<svg width="45" height="45" viewBox="0 0 45 45" fill="none" xmlns="http://www.w3.org/2000/svg">
<ellipse cx="22.454" cy="22.5" rx="22.454" ry="22.5" fill="#2F2F2F"/>
<path d="M26.4787 33.1001C26.5823 33.0701 26.6726 33.0071 26.7355 32.9212C26.7983 32.8353 26.8301 32.7313 26.8256 32.6258C26.7941 31.1697 26.8839 29.716 26.7723 28.2623C26.7386 27.6053 26.5092 26.9723 26.1123 26.441C26.0662 26.3794 25.9765 26.3343 26.0032 26.2395C26.0282 26.2221 26.0575 26.2114 26.0881 26.2086C26.1609 26.1944 26.2361 26.1873 26.3113 26.1778C27.5616 26.0458 28.7655 25.6406 29.8339 24.9921C30.6658 24.4705 31.3229 23.7218 31.7238 22.8388C32.209 21.7137 32.4502 20.5025 32.4322 19.2816C32.4803 17.9541 32.0337 16.6547 31.1755 15.6248C31.1116 15.5536 31.0667 15.4681 31.0447 15.3758C31.0227 15.2836 31.0243 15.1875 31.0494 15.096C31.3589 14.0352 31.3027 12.9043 30.8893 11.8779C30.8457 11.7612 30.7642 11.6617 30.6573 11.5944C30.5504 11.5272 30.424 11.496 30.2973 11.5056C30.0135 11.5283 29.7334 11.5832 29.4627 11.6692C28.6806 11.9127 27.9356 12.2581 27.2478 12.6961C27.0834 12.8082 26.8949 12.882 26.6967 12.9116C26.4986 12.9412 26.2962 12.9259 26.1051 12.8668C25.3818 12.6936 24.6435 12.5872 23.8998 12.549C22.5716 12.4721 21.2392 12.592 19.9478 12.9048C19.814 12.9465 19.672 12.9568 19.5333 12.935C19.3947 12.9132 19.2632 12.8598 19.1496 12.7791C18.4285 12.3235 17.6507 11.96 16.8351 11.6977C16.5233 11.5882 16.1959 11.5273 15.8647 11.5175C15.7523 11.4979 15.6365 11.5198 15.5397 11.579C15.4429 11.6381 15.372 11.7303 15.3407 11.8376C14.9865 12.8692 14.8264 13.9174 15.1612 14.9798C15.2084 15.1066 15.2178 15.244 15.1881 15.3759C15.1585 15.5077 15.0911 15.6286 14.9938 15.7244C14.6064 16.1442 14.3116 16.6374 14.1277 17.1734C13.8077 18.2598 13.7251 19.3998 13.8851 20.5195C13.9904 21.4471 14.2683 22.348 14.705 23.1779C15.314 24.3328 16.316 25.049 17.5071 25.5494C18.2923 25.8653 19.1186 26.0728 19.9623 26.166C20.2971 26.211 20.2995 26.2086 20.1079 26.4648C19.8422 26.7913 19.6624 27.1764 19.5839 27.5865C19.5722 27.7429 19.5037 27.8901 19.3906 28.0014C19.2776 28.1128 19.1276 28.1809 18.9676 28.1935C18.873 28.2101 18.7833 28.241 18.6911 28.2576C17.9075 28.3951 17.1408 28.4331 16.43 27.9659C15.9853 27.6375 15.6152 27.2224 15.3431 26.747C14.9446 26.1393 14.3453 25.6832 13.6449 25.4545C13.3542 25.3395 13.0331 25.3204 12.7303 25.4C12.674 25.4123 12.622 25.4387 12.5794 25.4767C12.5367 25.5146 12.5049 25.5627 12.4871 25.6163C12.4692 25.6699 12.4659 25.7271 12.4775 25.7823C12.4891 25.8375 12.5152 25.8888 12.5532 25.9312C12.6615 26.083 12.7991 26.2127 12.9583 26.313C13.7565 26.7873 14.2247 27.5129 14.5474 28.3358C14.9719 29.4243 15.809 29.9745 16.9468 30.1405C17.6969 30.2832 18.4674 30.2896 19.2199 30.1595C19.3267 30.1358 19.4407 30.1215 19.431 30.2852C19.3849 31.0488 19.5184 31.81 19.482 32.576C19.4737 32.6915 19.5069 32.8062 19.576 32.9002C19.6452 32.9942 19.7458 33.0615 19.8604 33.0906C22.0308 33.6329 24.3058 33.6329 26.4762 33.0906L26.4787 33.1001Z" fill="white"/>
</svg>
