<svg width="45" height="45" viewBox="0 0 45 45" fill="none" xmlns="http://www.w3.org/2000/svg">
<circle cx="22.5" cy="22.5" r="22.5" fill="#2F2F2F"/>
<path d="M31.6292 14.0368C34.5936 18.3953 36.0576 23.3116 35.5103 28.9714C35.508 28.9954 35.4956 29.0174 35.4759 29.0318C33.231 30.6802 31.056 31.6806 28.9115 32.344C28.8948 32.3491 28.8769 32.3488 28.8604 32.3432C28.8439 32.3376 28.8295 32.327 28.8193 32.3128C28.3239 31.6235 27.8737 30.8967 27.4793 30.1336C27.4567 30.0886 27.4774 30.0345 27.524 30.0168C28.2389 29.7474 28.9187 29.4245 29.5726 29.0423C29.6241 29.0121 29.6274 28.9383 29.5799 28.9029C29.4411 28.7998 29.3036 28.6916 29.172 28.5833C29.1474 28.5633 29.1143 28.5593 29.0864 28.5728C24.8411 30.5332 20.1905 30.5332 15.895 28.5728C15.8671 28.5603 15.834 28.5646 15.81 28.5843C15.6788 28.6925 15.541 28.7998 15.4035 28.9029C15.3559 28.9383 15.3598 29.0121 15.4117 29.0423C16.0656 29.4173 16.7454 29.7474 17.4594 30.0181C17.5056 30.0358 17.5276 30.0886 17.5047 30.1336C17.1188 30.8977 16.6686 31.6245 16.164 32.3138C16.142 32.3417 16.1059 32.3545 16.0718 32.344C13.9375 31.6806 11.7625 30.6802 9.51763 29.0318C9.49893 29.0174 9.48547 28.9944 9.4835 28.9704C9.02613 24.0748 9.95827 19.1178 13.361 14.0358C13.3692 14.0224 13.3817 14.0119 13.3961 14.0056C15.0705 13.2372 16.8642 12.6719 18.739 12.349C18.7731 12.3438 18.8072 12.3595 18.8249 12.3897C19.0566 12.7999 19.3214 13.3258 19.5005 13.7556C21.4767 13.4538 23.4837 13.4538 25.5012 13.7556C25.6803 13.335 25.9359 12.7999 26.1666 12.3897C26.1748 12.3747 26.1875 12.3628 26.203 12.3554C26.2184 12.3481 26.2358 12.3459 26.2526 12.349C28.1283 12.6729 29.9221 13.2382 31.5951 14.0056C31.6098 14.0119 31.622 14.0224 31.6292 14.0368ZM20.5052 23.3451C20.5258 21.8978 19.4707 20.7003 18.1461 20.7003C16.8324 20.7003 15.7874 21.8873 15.7874 23.3451C15.7874 24.8025 16.853 25.9896 18.1461 25.9896C19.4602 25.9896 20.5052 24.8025 20.5052 23.3451ZM29.2268 23.3451C29.2475 21.8978 28.1923 20.7003 26.8681 20.7003C25.554 20.7003 24.509 21.8873 24.509 23.3451C24.509 24.8025 25.5747 25.9896 26.8681 25.9896C28.1923 25.9896 29.2268 24.8025 29.2268 23.3451Z" fill="white"/>
</svg>
