<svg width="100" height="100" viewBox="0 0 100 100" fill="none" xmlns="http://www.w3.org/2000/svg">
<g clip-path="url(#clip0_3789_39327)">
<circle cx="50" cy="50" r="50" fill="#141414"/>
<path d="M45.5745 5.77136L9.84863 26.9603L16.4642 46.9947C18.9293 53.1017 22.7175 61.7022 22.8251 63.8512C22.9327 66.0001 47.116 84.0904 56.3487 89.3021L92.1982 68.002C88.6239 65.8095 75.4897 57.9186 69.6418 54.2956C62.4988 49.8704 60.045 43.4132 58.3811 39.4527C55.9761 33.7284 57.0701 26.59 57.5407 22.7673C58.0113 18.9447 57.8937 14.175 53.5911 9.00923C50.149 4.87663 46.7622 5.13999 45.5745 5.77136Z" fill="white" stroke="#060606" stroke-width="1.5"/>
<mask id="mask0_3789_39327" style="mask-type:alpha" maskUnits="userSpaceOnUse" x="9" y="5" width="84" height="85">
<path d="M45.5745 5.77136L9.84863 26.9603L16.4642 46.9947C18.9293 53.1017 22.7175 61.7022 22.8251 63.8512C22.9327 66.0001 47.116 84.0904 56.3487 89.3021L92.1982 68.002C88.6239 65.8095 75.4897 57.9186 69.6418 54.2956C62.4988 49.8704 60.045 43.4132 58.3811 39.4527C55.9761 33.7284 57.0701 26.59 57.5407 22.7673C58.0113 18.9447 57.8937 14.175 53.5911 9.00923C50.149 4.87663 46.7622 5.13999 45.5745 5.77136Z" fill="white"/>
</mask>
<g mask="url(#mask0_3789_39327)">
<rect width="54.875" height="54.875" transform="matrix(0.866025 -0.5 0.866025 0.5 20.3301 69.668)" fill="#B0F127"/>
</g>
<path d="M45.5745 5.77136L9.84863 26.9603L16.4642 46.9947C18.9293 53.1017 22.7175 61.7022 22.8251 63.8512C22.9327 66.0001 47.116 84.0904 56.3487 89.3021L92.1982 68.002C88.6239 65.8095 75.4897 57.9186 69.6418 54.2956C62.4988 49.8704 60.045 43.4132 58.3811 39.4527C55.9761 33.7284 57.0701 26.59 57.5407 22.7673C58.0113 18.9447 57.8937 14.175 53.5911 9.00923C50.149 4.87663 46.7622 5.13999 45.5745 5.77136Z" stroke="#060606" stroke-width="1.5"/>
<path d="M10.5049 26.7691C11.6798 26.447 13.0839 26.6969 14.5386 27.487C15.9933 28.2771 17.4328 29.5717 18.674 31.2062C21.9445 35.6058 22.0859 40.2678 21.6423 44.1571C21.3133 47.0243 20.6943 49.7085 20.8332 52.8727C21.0081 56.5961 22.2161 60.7534 24.2597 64.6645C25.5035 67.0277 27.0208 69.2275 28.7146 71.123C30.4084 73.0185 32.2413 74.568 34.0958 75.6722L56.405 89.3334" stroke="#060606" stroke-width="1.5" stroke-miterlimit="10" stroke-linecap="round" stroke-linejoin="round"/>
<path d="M52.6024 86.7693L56.6312 89.2718C55.4625 88.5624 54.0979 87.7168 52.6024 86.7693L8.42501 59.3288C9.02671 57.7891 10.0496 53.2658 9.32755 47.4896C8.42501 40.2693 5.39886 26.8374 11.6635 26.3065C17.9282 25.7756 23.237 36.2875 22.2814 42.1274C21.3257 47.9674 19.149 58.1613 25.7322 66.3372C30.2394 71.9349 43.7264 81.1459 52.6024 86.7693Z" fill="#060606"/>
<path d="M56.6312 89.2718L8.42501 59.3288C9.02671 57.7891 10.0496 53.2658 9.32755 47.4896C8.42501 40.2693 5.39886 26.8374 11.6635 26.3065C17.9282 25.7756 23.237 36.2875 22.2814 42.1274C21.3257 47.9674 19.149 58.1613 25.7322 66.3372C30.9988 72.878 48.5259 84.3522 56.6312 89.2718Z" stroke="#060606" stroke-linejoin="round"/>
<path d="M7.98993 34.6788C8.66988 39.7631 9.05981 44.748 9.60084 49.7588C9.75379 51.1808 10.2615 53.6423 9.37072 56.0013L21.6424 44.1584C22.086 40.2691 21.9446 35.6071 18.6741 31.2075C17.4329 29.5731 15.9934 28.2784 14.5387 27.4883C13.084 26.6982 11.6799 26.4483 10.505 26.7704C7.92168 27.5604 7.47571 30.8428 7.98993 34.6788Z" fill="#71A407"/>
<path d="M21.6424 44.1584C22.086 40.2691 21.9446 35.6071 18.6741 31.2075C17.4329 29.5731 15.9934 28.2784 14.5387 27.4883C13.084 26.6982 11.6799 26.4483 10.505 26.7704C7.92168 27.5604 7.47571 30.8428 7.98993 34.6788C8.66988 39.7631 9.05981 44.748 9.60084 49.7588C9.75379 51.1808 10.2615 53.6423 9.37072 56.0013L21.6424 44.1584ZM21.6424 44.1584C21.3134 47.0256 21.5035 40.9942 21.6424 44.1584Z" stroke="#060606" stroke-miterlimit="10" stroke-linecap="round" stroke-linejoin="round"/>
<path d="M54.0215 20.6074L25.3413 37.166" stroke="#717172" stroke-linecap="round"/>
<path d="M54.0215 27.4375L25.3413 43.996" stroke="#717172" stroke-linecap="round"/>
<path d="M47.0449 37.166L25.341 49.6968" stroke="#717172" stroke-linecap="round"/>
</g>
<defs>
<clipPath id="clip0_3789_39327">
<rect width="100" height="100" fill="white"/>
</clipPath>
</defs>
</svg>
