<svg width="100" height="100" viewBox="0 0 100 100" fill="none" xmlns="http://www.w3.org/2000/svg">
<g clip-path="url(#clip0_3789_39302)">
<circle cx="50.3428" cy="50.9668" r="50" fill="#141414"/>
<mask id="path-2-inside-1_3789_39302" fill="white">
<path d="M86.6572 54.1895C86.6572 34.1346 70.3996 17.877 50.3447 17.877C30.2899 17.877 14.0322 34.1346 14.0322 54.1895C14.0322 74.2443 30.2899 90.502 50.3447 90.502C70.3996 90.502 86.6572 74.2443 86.6572 54.1895ZM32.1885 54.1895C32.1885 44.162 40.3173 36.0332 50.3447 36.0332C60.3721 36.0332 68.501 44.162 68.501 54.1895C68.501 64.2169 60.3721 72.3457 50.3447 72.3457C40.3173 72.3457 32.1885 64.2169 32.1885 54.1895Z"/>
</mask>
<path d="M86.6572 54.1895C86.6572 34.1346 70.3996 17.877 50.3447 17.877C30.2899 17.877 14.0322 34.1346 14.0322 54.1895C14.0322 74.2443 30.2899 90.502 50.3447 90.502C70.3996 90.502 86.6572 74.2443 86.6572 54.1895ZM32.1885 54.1895C32.1885 44.162 40.3173 36.0332 50.3447 36.0332C60.3721 36.0332 68.501 44.162 68.501 54.1895C68.501 64.2169 60.3721 72.3457 50.3447 72.3457C40.3173 72.3457 32.1885 64.2169 32.1885 54.1895Z" fill="#060606" stroke="#060606" stroke-width="3" mask="url(#path-2-inside-1_3789_39302)"/>
<mask id="path-3-inside-2_3789_39302" fill="white">
<path d="M86.6101 50.3419C86.6101 30.313 70.3735 14.0764 50.3446 14.0764C30.3157 14.0764 14.0791 30.313 14.0791 50.3419C14.0791 70.3708 30.3157 86.6074 50.3446 86.6074C70.3735 86.6074 86.6101 70.3708 86.6101 50.3419ZM32.2119 50.3419C32.2119 40.3275 40.3302 32.2092 50.3446 32.2092C60.359 32.2092 68.4774 40.3275 68.4774 50.3419C68.4774 60.3564 60.359 68.4747 50.3446 68.4747C40.3302 68.4747 32.2119 60.3564 32.2119 50.3419Z"/>
</mask>
<path d="M86.6101 50.3419C86.6101 30.313 70.3735 14.0764 50.3446 14.0764C30.3157 14.0764 14.0791 30.313 14.0791 50.3419C14.0791 70.3708 30.3157 86.6074 50.3446 86.6074C70.3735 86.6074 86.6101 70.3708 86.6101 50.3419ZM32.2119 50.3419C32.2119 40.3275 40.3302 32.2092 50.3446 32.2092C60.359 32.2092 68.4774 40.3275 68.4774 50.3419C68.4774 60.3564 60.359 68.4747 50.3446 68.4747C40.3302 68.4747 32.2119 60.3564 32.2119 50.3419Z" fill="#C0C0C0" stroke="#060606" stroke-width="3" mask="url(#path-3-inside-2_3789_39302)"/>
<mask id="mask0_3789_39302" style="mask-type:alpha" maskUnits="userSpaceOnUse" x="14" y="14" width="73" height="73">
<mask id="path-4-inside-3_3789_39302" fill="white">
<path d="M86.6101 50.34C86.6101 30.3111 70.3735 14.0745 50.3446 14.0745C30.3157 14.0745 14.0791 30.3111 14.0791 50.34C14.0791 70.3689 30.3157 86.6055 50.3446 86.6055C70.3735 86.6055 86.6101 70.3689 86.6101 50.34ZM32.2119 50.34C32.2119 40.3255 40.3302 32.2072 50.3446 32.2072C60.359 32.2072 68.4774 40.3255 68.4774 50.34C68.4774 60.3544 60.359 68.4727 50.3446 68.4727C40.3302 68.4727 32.2119 60.3544 32.2119 50.34Z"/>
</mask>
<path d="M86.6101 50.34C86.6101 30.3111 70.3735 14.0745 50.3446 14.0745C30.3157 14.0745 14.0791 30.3111 14.0791 50.34C14.0791 70.3689 30.3157 86.6055 50.3446 86.6055C70.3735 86.6055 86.6101 70.3689 86.6101 50.34ZM32.2119 50.34C32.2119 40.3255 40.3302 32.2072 50.3446 32.2072C60.359 32.2072 68.4774 40.3255 68.4774 50.34C68.4774 60.3544 60.359 68.4727 50.3446 68.4727C40.3302 68.4727 32.2119 60.3544 32.2119 50.34Z" fill="white" stroke="#060606" stroke-width="3" mask="url(#path-4-inside-3_3789_39302)"/>
</mask>
<g mask="url(#mask0_3789_39302)">
<path d="M81.6809 50.3397C81.6809 33.0333 67.6513 19.0037 50.3449 19.0037C33.0384 19.0037 19.0088 33.0333 19.0088 50.3397C19.0088 67.6461 33.0384 81.6758 50.3449 81.6758C67.6513 81.6758 81.6809 67.6461 81.6809 50.3397ZM34.6768 50.3397C34.6768 41.6865 41.6916 34.6717 50.3449 34.6717C58.9981 34.6717 66.0129 41.6865 66.0129 50.3397C66.0129 58.9929 58.9981 66.0077 50.3449 66.0077C41.6916 66.0077 34.6768 58.9929 34.6768 50.3397Z" fill="white"/>
</g>
<mask id="path-6-inside-4_3789_39302" fill="white">
<path d="M86.6101 50.34C86.6101 30.3111 70.3735 14.0745 50.3446 14.0745C30.3157 14.0745 14.0791 30.3111 14.0791 50.34C14.0791 70.3689 30.3157 86.6055 50.3446 86.6055C70.3735 86.6055 86.6101 70.3689 86.6101 50.34ZM32.2119 50.34C32.2119 40.3255 40.3302 32.2072 50.3446 32.2072C60.359 32.2072 68.4774 40.3255 68.4774 50.34C68.4774 60.3544 60.359 68.4727 50.3446 68.4727C40.3302 68.4727 32.2119 60.3544 32.2119 50.34Z"/>
</mask>
<path d="M86.6101 50.34C86.6101 30.3111 70.3735 14.0745 50.3446 14.0745C30.3157 14.0745 14.0791 30.3111 14.0791 50.34C14.0791 70.3689 30.3157 86.6055 50.3446 86.6055C70.3735 86.6055 86.6101 70.3689 86.6101 50.34ZM32.2119 50.34C32.2119 40.3255 40.3302 32.2072 50.3446 32.2072C60.359 32.2072 68.4774 40.3255 68.4774 50.34C68.4774 60.3544 60.359 68.4727 50.3446 68.4727C40.3302 68.4727 32.2119 60.3544 32.2119 50.34Z" stroke="#060606" stroke-width="3" mask="url(#path-6-inside-4_3789_39302)"/>
<mask id="path-7-inside-5_3789_39302" fill="white">
<path d="M25.4987 75.1835C23.9366 76.7456 21.3857 76.7573 19.9912 75.044C17.5996 72.1057 15.6429 68.83 14.1876 65.3168C12.2211 60.5691 11.2089 55.4806 11.2089 50.3418C11.2089 45.203 12.2211 40.1145 14.1876 35.3668C15.6429 31.8536 17.5996 28.5779 19.9912 25.6396C21.3857 23.9263 23.9366 23.938 25.4987 25.5001L36.4439 36.4453C38.006 38.0074 37.9505 40.5247 36.834 42.4309C36.473 43.0473 36.1539 43.689 35.8793 44.3518C35.0927 46.2509 34.6878 48.2863 34.6878 50.3418C34.6878 52.3973 35.0927 54.4327 35.8793 56.3318C36.1539 56.9946 36.473 57.6363 36.834 58.2526C37.9505 60.1589 38.006 62.6762 36.4439 64.2383L25.4987 75.1835Z"/>
</mask>
<path d="M25.4987 75.1835C23.9366 76.7456 21.3857 76.7573 19.9912 75.044C17.5996 72.1057 15.6429 68.83 14.1876 65.3168C12.2211 60.5691 11.2089 55.4806 11.2089 50.3418C11.2089 45.203 12.2211 40.1145 14.1876 35.3668C15.6429 31.8536 17.5996 28.5779 19.9912 25.6396C21.3857 23.9263 23.9366 23.938 25.4987 25.5001L36.4439 36.4453C38.006 38.0074 37.9505 40.5247 36.834 42.4309C36.473 43.0473 36.1539 43.689 35.8793 44.3518C35.0927 46.2509 34.6878 48.2863 34.6878 50.3418C34.6878 52.3973 35.0927 54.4327 35.8793 56.3318C36.1539 56.9946 36.473 57.6363 36.834 58.2526C37.9505 60.1589 38.006 62.6762 36.4439 64.2383L25.4987 75.1835Z" fill="#71A407" stroke="#060606" stroke-width="3" mask="url(#path-7-inside-5_3789_39302)"/>
<mask id="mask1_3789_39302" style="mask-type:alpha" maskUnits="userSpaceOnUse" x="11" y="24" width="27" height="53">
<mask id="path-8-inside-6_3789_39302" fill="white">
<path d="M25.4987 75.1835C23.9366 76.7456 21.3857 76.7573 19.9912 75.044C17.5996 72.1057 15.6429 68.83 14.1876 65.3168C12.2211 60.5691 11.2089 55.4806 11.2089 50.3418C11.2089 45.203 12.2211 40.1145 14.1876 35.3668C15.6429 31.8536 17.5996 28.5779 19.9912 25.6396C21.3857 23.9263 23.9366 23.938 25.4987 25.5001L36.4439 36.4453C38.006 38.0074 37.9505 40.5247 36.834 42.4309C36.473 43.0473 36.1539 43.689 35.8793 44.3518C35.0927 46.2509 34.6878 48.2863 34.6878 50.3418C34.6878 52.3973 35.0927 54.4327 35.8793 56.3318C36.1539 56.9946 36.473 57.6363 36.834 58.2526C37.9505 60.1589 38.006 62.6762 36.4439 64.2383L25.4987 75.1835Z"/>
</mask>
<path d="M25.4987 75.1835C23.9366 76.7456 21.3857 76.7573 19.9912 75.044C17.5996 72.1057 15.6429 68.83 14.1876 65.3168C12.2211 60.5691 11.2089 55.4806 11.2089 50.3418C11.2089 45.203 12.2211 40.1145 14.1876 35.3668C15.6429 31.8536 17.5996 28.5779 19.9912 25.6396C21.3857 23.9263 23.9366 23.938 25.4987 25.5001L36.4439 36.4453C38.006 38.0074 37.9505 40.5247 36.834 42.4309C36.473 43.0473 36.1539 43.689 35.8793 44.3518C35.0927 46.2509 34.6878 48.2863 34.6878 50.3418C34.6878 52.3973 35.0927 54.4327 35.8793 56.3318C36.1539 56.9946 36.473 57.6363 36.834 58.2526C37.9505 60.1589 38.006 62.6762 36.4439 64.2383L25.4987 75.1835Z" fill="#B0F127" stroke="#060606" stroke-width="3" mask="url(#path-8-inside-6_3789_39302)"/>
</mask>
<g mask="url(#mask1_3789_39302)">
<circle cx="50.3447" cy="50.5918" r="29.6133" fill="#B0F127"/>
</g>
<mask id="path-10-inside-7_3789_39302" fill="white">
<path d="M25.4987 75.1815C23.9366 76.7436 21.3857 76.7553 19.9912 75.042C17.5996 72.1037 15.6429 68.828 14.1876 65.3148C12.2211 60.5672 11.2089 55.4787 11.2089 50.3398C11.2089 45.201 12.2211 40.1125 14.1876 35.3649C15.6429 31.8517 17.5996 28.576 19.9912 25.6377C21.3857 23.9243 23.9366 23.936 25.4987 25.4981L36.4439 36.4434C38.006 38.0055 37.9505 40.5228 36.834 42.429C36.473 43.0453 36.1539 43.687 35.8793 44.3499C35.0927 46.2489 34.6878 48.2843 34.6878 50.3398C34.6878 52.3954 35.0927 54.4308 35.8793 56.3298C36.1539 56.9927 36.473 57.6343 36.834 58.2507C37.9505 60.1569 38.006 62.6742 36.4439 64.2363L25.4987 75.1815Z"/>
</mask>
<path d="M25.4987 75.1815C23.9366 76.7436 21.3857 76.7553 19.9912 75.042C17.5996 72.1037 15.6429 68.828 14.1876 65.3148C12.2211 60.5672 11.2089 55.4787 11.2089 50.3398C11.2089 45.201 12.2211 40.1125 14.1876 35.3649C15.6429 31.8517 17.5996 28.576 19.9912 25.6377C21.3857 23.9243 23.9366 23.936 25.4987 25.4981L36.4439 36.4434C38.006 38.0055 37.9505 40.5228 36.834 42.429C36.473 43.0453 36.1539 43.687 35.8793 44.3499C35.0927 46.2489 34.6878 48.2843 34.6878 50.3398C34.6878 52.3954 35.0927 54.4308 35.8793 56.3298C36.1539 56.9927 36.473 57.6343 36.834 58.2507C37.9505 60.1569 38.006 62.6742 36.4439 64.2363L25.4987 75.1815Z" stroke="#060606" stroke-width="3" mask="url(#path-10-inside-7_3789_39302)"/>
<mask id="path-11-inside-8_3789_39302" fill="white">
<path d="M75.182 75.1835C76.7441 76.7456 79.2949 76.7573 80.6895 75.044C83.081 72.1057 85.0378 68.83 86.493 65.3168C88.4596 60.5691 89.4717 55.4806 89.4717 50.3418C89.4717 45.203 88.4596 40.1145 86.493 35.3668C85.0378 31.8536 83.081 28.5779 80.6895 25.6396C79.2949 23.9263 76.7441 23.938 75.182 25.5001L64.2367 36.4453C62.6746 38.0074 62.7301 40.5247 63.8466 42.4309C64.2076 43.0473 64.5268 43.689 64.8014 44.3518C65.588 46.2509 65.9928 48.2863 65.9928 50.3418C65.9928 52.3973 65.588 54.4327 64.8014 56.3318C64.5268 56.9946 64.2076 57.6363 63.8466 58.2526C62.7301 60.1589 62.6746 62.6762 64.2367 64.2383L75.182 75.1835Z"/>
</mask>
<path d="M75.182 75.1835C76.7441 76.7456 79.2949 76.7573 80.6895 75.044C83.081 72.1057 85.0378 68.83 86.493 65.3168C88.4596 60.5691 89.4717 55.4806 89.4717 50.3418C89.4717 45.203 88.4596 40.1145 86.493 35.3668C85.0378 31.8536 83.081 28.5779 80.6895 25.6396C79.2949 23.9263 76.7441 23.938 75.182 25.5001L64.2367 36.4453C62.6746 38.0074 62.7301 40.5247 63.8466 42.4309C64.2076 43.0473 64.5268 43.689 64.8014 44.3518C65.588 46.2509 65.9928 48.2863 65.9928 50.3418C65.9928 52.3973 65.588 54.4327 64.8014 56.3318C64.5268 56.9946 64.2076 57.6363 63.8466 58.2526C62.7301 60.1589 62.6746 62.6762 64.2367 64.2383L75.182 75.1835Z" fill="#71A407" stroke="#060606" stroke-width="3" mask="url(#path-11-inside-8_3789_39302)"/>
<mask id="mask2_3789_39302" style="mask-type:alpha" maskUnits="userSpaceOnUse" x="63" y="24" width="27" height="53">
<mask id="path-12-inside-9_3789_39302" fill="white">
<path d="M75.182 75.1835C76.7441 76.7456 79.2949 76.7573 80.6895 75.044C83.081 72.1057 85.0378 68.83 86.493 65.3168C88.4596 60.5691 89.4717 55.4806 89.4717 50.3418C89.4717 45.203 88.4596 40.1145 86.493 35.3668C85.0378 31.8536 83.081 28.5779 80.6895 25.6396C79.2949 23.9263 76.7441 23.938 75.182 25.5001L64.2367 36.4453C62.6746 38.0074 62.7301 40.5247 63.8466 42.4309C64.2076 43.0473 64.5268 43.689 64.8014 44.3518C65.588 46.2509 65.9928 48.2863 65.9928 50.3418C65.9928 52.3973 65.588 54.4327 64.8014 56.3318C64.5268 56.9946 64.2076 57.6363 63.8466 58.2526C62.7301 60.1589 62.6746 62.6762 64.2367 64.2383L75.182 75.1835Z"/>
</mask>
<path d="M75.182 75.1835C76.7441 76.7456 79.2949 76.7573 80.6895 75.044C83.081 72.1057 85.0378 68.83 86.493 65.3168C88.4596 60.5691 89.4717 55.4806 89.4717 50.3418C89.4717 45.203 88.4596 40.1145 86.493 35.3668C85.0378 31.8536 83.081 28.5779 80.6895 25.6396C79.2949 23.9263 76.7441 23.938 75.182 25.5001L64.2367 36.4453C62.6746 38.0074 62.7301 40.5247 63.8466 42.4309C64.2076 43.0473 64.5268 43.689 64.8014 44.3518C65.588 46.2509 65.9928 48.2863 65.9928 50.3418C65.9928 52.3973 65.588 54.4327 64.8014 56.3318C64.5268 56.9946 64.2076 57.6363 63.8466 58.2526C62.7301 60.1589 62.6746 62.6762 64.2367 64.2383L75.182 75.1835Z" fill="#B0F127" stroke="#060606" stroke-width="3" mask="url(#path-12-inside-9_3789_39302)"/>
</mask>
<g mask="url(#mask2_3789_39302)">
<circle r="29.6133" transform="matrix(-1 0 0 1 50.3359 50.5918)" fill="#B0F127"/>
</g>
<mask id="path-14-inside-10_3789_39302" fill="white">
<path d="M75.182 75.1815C76.7441 76.7436 79.2949 76.7553 80.6895 75.042C83.081 72.1037 85.0378 68.828 86.493 65.3148C88.4596 60.5672 89.4717 55.4787 89.4717 50.3398C89.4717 45.201 88.4596 40.1125 86.493 35.3649C85.0378 31.8517 83.081 28.576 80.6895 25.6377C79.2949 23.9243 76.7441 23.936 75.182 25.4981L64.2367 36.4434C62.6746 38.0055 62.7301 40.5228 63.8466 42.429C64.2076 43.0453 64.5268 43.687 64.8014 44.3499C65.588 46.2489 65.9928 48.2843 65.9928 50.3398C65.9928 52.3954 65.588 54.4308 64.8014 56.3298C64.5268 56.9927 64.2076 57.6343 63.8466 58.2507C62.7301 60.1569 62.6746 62.6742 64.2367 64.2363L75.182 75.1815Z"/>
</mask>
<path d="M75.182 75.1815C76.7441 76.7436 79.2949 76.7553 80.6895 75.042C83.081 72.1037 85.0378 68.828 86.493 65.3148C88.4596 60.5672 89.4717 55.4787 89.4717 50.3398C89.4717 45.201 88.4596 40.1125 86.493 35.3649C85.0378 31.8517 83.081 28.576 80.6895 25.6377C79.2949 23.9243 76.7441 23.936 75.182 25.4981L64.2367 36.4434C62.6746 38.0055 62.7301 40.5228 63.8466 42.429C64.2076 43.0453 64.5268 43.687 64.8014 44.3499C65.588 46.2489 65.9928 48.2843 65.9928 50.3398C65.9928 52.3954 65.588 54.4308 64.8014 56.3298C64.5268 56.9927 64.2076 57.6343 63.8466 58.2507C62.7301 60.1569 62.6746 62.6742 64.2367 64.2363L75.182 75.1815Z" stroke="#060606" stroke-width="3" mask="url(#path-14-inside-10_3789_39302)"/>
</g>
<defs>
<clipPath id="clip0_3789_39302">
<rect width="100" height="100" fill="white"/>
</clipPath>
</defs>
</svg>
