<svg width="100" height="100" viewBox="0 0 100 100" fill="none" xmlns="http://www.w3.org/2000/svg">
<g clip-path="url(#clip0_3789_39303)">
<circle cx="50" cy="50" r="50" fill="#141414"/>
<rect x="18.2217" y="28.0195" width="68.7764" height="54.459" rx="4" fill="#B0F127" stroke="#060606" stroke-width="1.5"/>
<rect x="9.625" y="22.0234" width="71.5927" height="55.0933" rx="4" fill="white" stroke="#060606" stroke-width="1.5"/>
<mask id="mask0_3789_39303" style="mask-type:alpha" maskUnits="userSpaceOnUse" x="8" y="22" width="74" height="56">
<rect x="9.625" y="22.9102" width="71.5927" height="54.2066" rx="4" fill="white" stroke="#060606" stroke-width="1.5"/>
</mask>
<g mask="url(#mask0_3789_39303)">
<rect x="-6.72754" y="12.5918" width="97.5" height="52.125" transform="rotate(-9.80324 -6.72754 12.5918)" fill="#71A407"/>
</g>
<rect x="9.625" y="22.0234" width="71.5927" height="55.0933" rx="4" stroke="#060606" stroke-width="1.5"/>
<path d="M14.1005 22.2617H74.949H77.5644C79.6299 22.2617 81.3044 23.9361 81.3044 26.0017C81.3044 26.6481 81.2206 27.2919 81.055 27.9168L76.8634 43.742C76.3988 45.4962 74.8115 46.7179 72.9968 46.7179H9.64278C7.81102 46.7179 6.40689 45.0906 6.67512 43.2786L9.15442 26.5296C9.51737 24.0776 11.6219 22.2617 14.1005 22.2617Z" fill="#E7E7E7" stroke="#060606" stroke-width="1.5"/>
<path fill-rule="evenodd" clip-rule="evenodd" d="M35.2672 12.1716C31.8491 12.1716 29.0782 14.9167 29.0782 18.3029V22.2627H24.9521V18.3029C24.9521 12.6592 29.5703 8.08398 35.2672 8.08398H55.5748C61.2717 8.08398 65.8898 12.6592 65.8898 18.3029V22.2627H61.7638V18.3029C61.7638 14.9167 58.9929 12.1716 55.5748 12.1716H35.2672Z" fill="#060606" stroke="#060606" stroke-width="1.5"/>
<path d="M35.0797 37.3324C35.2031 36.9042 35.595 36.6094 36.0406 36.6094H48.8018C49.4671 36.6094 49.9469 37.2471 49.7626 37.8864L49.052 40.3512C48.9286 40.7794 48.5368 41.0742 48.0912 41.0742H35.33C34.6646 41.0742 34.1848 40.4366 34.3691 39.7972L35.0797 37.3324Z" fill="#141414"/>
</g>
<defs>
<clipPath id="clip0_3789_39303">
<rect width="100" height="100" fill="white"/>
</clipPath>
</defs>
</svg>
