<svg width="382" height="590" viewBox="0 0 382 590" fill="none" xmlns="http://www.w3.org/2000/svg">
<g clip-path="url(#clip0_3789_39779)">
<path d="M125.875 537.538C192.523 555.396 254.856 538.881 265.1 500.65C275.344 462.419 229.62 416.949 162.972 399.091C96.3238 381.233 33.9905 397.748 23.7465 435.979C13.5025 474.211 59.227 519.68 125.875 537.538Z" fill="#C0C0C0" stroke="#060606" stroke-width="1.5"/>
<path d="M265.101 500.649C254.856 538.885 192.514 555.478 125.854 537.617C59.195 519.756 13.4824 474.209 23.7275 435.974L18.544 455.319C8.30415 493.534 54.0181 538.997 120.658 556.853C187.298 574.709 249.638 558.2 259.878 519.984L265.061 500.639L265.101 500.649Z" fill="white" stroke="#060606" stroke-width="1.5"/>
<path d="M128.088 529.281C66.2038 512.699 23.1795 471.863 32.1885 438.241C41.1974 404.619 98.8758 390.766 160.76 407.348C222.644 423.93 265.688 464.771 256.679 498.393C247.67 532.015 189.992 545.868 128.088 529.281ZM160.197 409.447C99.4627 393.173 42.9703 406.325 34.2691 438.799C25.5679 471.272 67.9156 510.908 128.65 527.182C189.385 543.456 245.883 530.284 254.578 497.83C263.274 465.377 220.952 425.726 160.197 409.447Z" fill="white"/>
<path d="M226.353 162.551C164.469 145.969 121.45 105.113 130.459 71.491C139.468 37.8693 197.146 24.016 259.03 40.5978C320.914 57.1795 363.958 98.0214 354.949 131.643C345.941 165.265 288.257 179.138 226.353 162.551ZM258.468 42.6967C197.733 26.4229 141.235 39.5951 132.54 72.0486C123.844 104.502 166.181 144.178 226.915 160.452C287.65 176.726 344.164 163.494 352.849 131.08C361.534 98.6664 319.222 58.9758 258.468 42.6967Z" fill="white"/>
<path d="M254.573 497.85L254.578 497.83L256.679 498.393L254.573 497.85Z" fill="white"/>
<path d="M32.1832 438.261L32.1885 438.241L34.2889 438.804L32.1832 438.261Z" fill="white"/>
<path d="M256.678 498.393L254.578 497.83C263.279 465.357 220.951 425.725 160.197 409.446C99.4424 393.167 42.9698 406.325 34.2687 438.798L32.2871 438.267L49.4932 374.053C54.1368 356.501 63.4546 340.537 76.4555 327.858C89.4564 315.179 105.654 306.26 123.326 302.05L158.401 293.77C161.528 293.02 164.394 291.441 166.698 289.199C169.001 286.957 170.656 284.135 171.488 281.031C172.319 277.926 172.297 274.655 171.424 271.561C170.55 268.468 168.857 265.667 166.523 263.455L140.288 238.747C127.08 226.284 117.495 210.48 112.554 193.013C107.612 175.546 107.498 157.069 112.223 139.546L129.732 74.2032L131.951 74.7978L131.702 75.7285C126.945 107.667 168.711 144.877 226.811 160.445C284.91 176.012 339.705 164.676 351.555 134.638L351.805 133.707L354.024 134.302L336.515 199.645C331.867 217.194 322.545 233.155 309.542 245.829C296.538 258.503 280.339 267.417 262.668 271.623L227.574 279.898C224.451 280.653 221.589 282.235 219.29 284.478C216.991 286.721 215.339 289.541 214.508 292.643C213.677 295.744 213.697 299.013 214.567 302.105C215.437 305.196 217.124 307.997 219.451 310.213L245.706 334.926C271.899 361.533 282.612 399.548 273.665 434.205L256.678 498.393ZM160.759 407.347C215.252 421.949 255.111 455.337 257.735 486.048L271.784 433.616C280.549 399.717 270.052 362.481 244.401 336.465L218.181 311.783C215.566 309.298 213.67 306.155 212.692 302.685C211.714 299.215 211.69 295.545 212.623 292.063C213.556 288.582 215.412 285.416 217.994 282.899C220.576 280.383 223.789 278.609 227.296 277.765L262.39 269.49C279.668 265.38 295.507 256.669 308.224 244.28C320.941 231.892 330.061 216.291 334.613 199.135L349.681 142.901C332.025 168.369 280.547 177.156 226.331 162.629C172.116 148.102 131.948 114.759 129.372 83.869L114.304 140.103C109.67 157.25 109.767 175.333 114.585 192.433C119.404 209.533 128.764 225.012 141.672 237.229L167.927 261.942C170.541 264.427 172.437 267.569 173.415 271.04C174.393 274.51 174.417 278.179 173.484 281.661C172.551 285.143 170.696 288.309 168.114 290.825C165.532 293.341 162.318 295.115 158.812 295.96L123.718 304.234C106.431 308.36 90.5852 317.086 77.8624 329.485C65.1395 341.885 56.0139 357.496 51.4535 374.663L37.4255 427.017C55.0534 401.732 106.286 392.751 160.759 407.347Z" fill="white"/>
<path d="M183.385 360.715C180.951 358.3 177.928 356.562 174.616 355.675C171.303 354.787 167.816 354.78 164.501 355.655C135.708 363.241 59.1502 385.49 52.6721 409.667C44.6765 439.507 83.0753 475.73 138.46 490.57C193.844 505.41 245.23 493.245 253.225 463.405C259.704 439.229 204.527 381.681 183.385 360.715Z" fill="white"/>
<path d="M183.385 360.715C180.951 358.3 177.928 356.562 174.616 355.675C171.303 354.787 167.816 354.78 164.501 355.655C135.708 363.241 59.1502 385.49 52.6721 409.667C44.6765 439.507 83.0753 475.73 138.46 490.57C193.844 505.41 245.23 493.245 253.225 463.405C259.704 439.229 204.527 381.681 183.385 360.715Z" fill="#B0F127" stroke="#060606" stroke-width="1.5"/>
<path d="M138.461 490.571C83.0761 475.73 44.6773 439.508 52.6729 409.668L45.3352 437.052C37.3396 466.892 75.7583 503.12 131.123 517.955C186.488 532.79 237.893 520.63 245.888 490.791L253.226 463.406C245.231 493.246 193.845 505.411 138.461 490.571Z" fill="#71A407" stroke="#060606" stroke-width="1.5"/>
<path d="M141.425 78.4405L125.508 137.843C121.285 153.478 121.374 169.965 125.766 185.556C130.158 201.148 138.69 215.262 150.456 226.404L174.214 248.708C174.566 249.057 174.919 249.406 175.226 249.764C176.047 250.663 176.873 251.542 177.75 252.393C182.472 257.459 185.826 263.643 187.496 270.361C189.166 277.08 189.098 284.112 187.297 290.795L180.399 316.536C180.235 317.127 180.19 317.744 180.265 318.352C180.341 318.961 180.536 319.548 180.839 320.081C181.142 320.614 181.548 321.081 182.032 321.457C182.517 321.833 183.071 322.11 183.663 322.271V322.271C184.862 322.581 186.135 322.405 187.205 321.782C188.275 321.158 189.055 320.137 189.376 318.942L196.273 293.201C198.056 286.515 201.51 280.393 206.312 275.409C211.114 270.426 217.105 266.744 223.722 264.711C224.906 264.413 226.022 264.054 227.242 263.702C227.687 263.545 228.167 263.419 228.647 263.293L260.373 255.856C276.134 252.09 290.58 244.132 302.18 232.826C313.779 221.519 322.1 207.286 326.26 191.634L342.176 132.232L141.425 78.4405Z" fill="white"/>
<path d="M184.331 337.369C184.565 336.48 184.531 335.541 184.231 334.671C183.932 333.802 183.382 333.04 182.65 332.483C181.918 331.925 181.037 331.597 180.119 331.539C179.201 331.481 178.286 331.697 177.49 332.158C176.694 332.619 176.053 333.306 175.648 334.131C175.242 334.957 175.091 335.884 175.212 336.795C175.333 337.707 175.722 338.562 176.329 339.253C176.936 339.944 177.735 340.44 178.624 340.678C179.216 340.837 179.834 340.877 180.442 340.797C181.05 340.716 181.635 340.516 182.166 340.209C182.696 339.901 183.16 339.492 183.532 339.005C183.904 338.518 184.175 337.962 184.331 337.369V337.369Z" fill="white"/>
<path d="M141.425 78.4405L125.508 137.843C121.285 153.478 121.374 169.965 125.766 185.556C130.158 201.148 138.69 215.262 150.456 226.404L174.214 248.708C174.566 249.057 174.919 249.406 175.226 249.764C176.047 250.663 176.873 251.542 177.75 252.393C182.472 257.459 185.826 263.643 187.496 270.361C189.166 277.08 189.098 284.112 187.297 290.795L180.399 316.536C180.235 317.127 180.19 317.744 180.265 318.352C180.341 318.961 180.536 319.548 180.839 320.081C181.142 320.614 181.548 321.081 182.032 321.457C182.517 321.833 183.071 322.11 183.663 322.271V322.271C184.862 322.581 186.135 322.405 187.205 321.782C188.275 321.158 189.055 320.137 189.376 318.942L196.273 293.201C198.056 286.515 201.51 280.393 206.312 275.409C211.114 270.426 217.105 266.744 223.722 264.711C224.906 264.413 226.022 264.054 227.242 263.702C227.687 263.545 228.167 263.419 228.647 263.293L260.373 255.856C276.134 252.09 290.58 244.132 302.18 232.826C313.779 221.519 322.1 207.286 326.26 191.634L342.176 132.232L141.425 78.4405Z" fill="#B0F127" stroke="#060606" stroke-width="1.5"/>
<path d="M184.331 337.369C184.565 336.48 184.531 335.541 184.231 334.671C183.932 333.802 183.382 333.04 182.65 332.483C181.918 331.925 181.037 331.597 180.119 331.539C179.201 331.481 178.286 331.697 177.49 332.158C176.694 332.619 176.053 333.306 175.648 334.131C175.242 334.957 175.091 335.884 175.212 336.795C175.333 337.707 175.722 338.562 176.329 339.253C176.936 339.944 177.735 340.44 178.624 340.678C179.216 340.837 179.834 340.877 180.442 340.797C181.05 340.716 181.635 340.516 182.166 340.209C182.696 339.901 183.16 339.492 183.532 339.005C183.904 338.518 184.175 337.962 184.331 337.369V337.369Z" fill="#B0F127"/>
<path d="M227.212 159.343C282.599 174.184 333.981 162.022 341.978 132.178C349.974 102.335 311.557 66.111 256.17 51.2701C200.784 36.4293 149.401 48.5913 141.405 78.4348C133.408 108.278 171.826 144.502 227.212 159.343Z" fill="white"/>
<g opacity="0.5">
<path d="M183.678 300.69L159.76 311.959C135.478 323.322 114.543 352.624 105.041 388.087L74.7673 501.07C69.2701 497.371 64.0497 493.277 59.1476 488.82L87.4052 383.361C96.9075 347.898 119.724 319.101 146.781 308.481L173.493 297.961C184.628 293.58 189.573 275.126 182.11 265.804L164.237 243.337C146.193 220.633 140.758 184.245 150.234 148.88L167.467 84.5674L185.103 89.2929L167.87 153.606C158.368 189.069 161.94 224.958 177.189 246.914L192.268 268.632C198.569 277.536 193.624 295.991 183.678 300.69Z" fill="white"/>
</g>
<path d="M224.145 170.787C290.793 188.645 353.127 172.13 363.371 133.899C373.615 95.6678 327.89 50.1984 261.242 32.3401C194.594 14.4819 132.261 30.9973 122.017 69.2284C111.773 107.46 157.497 152.929 224.145 170.787Z" fill="white" stroke="#060606" stroke-width="1.5"/>
<path d="M363.37 133.899C353.125 172.135 290.784 188.728 224.124 170.867C157.464 153.006 111.752 107.459 121.997 69.2236L116.814 88.569C106.568 126.804 152.261 172.346 218.901 190.202C285.541 208.058 347.881 191.549 358.147 153.234L363.331 133.889L363.37 133.899Z" fill="#C0C0C0" stroke="#060606" stroke-width="1.5"/>
</g>
<defs>
<clipPath id="clip0_3789_39779">
<rect width="249.888" height="543.026" fill="white" transform="translate(140.546) rotate(15)"/>
</clipPath>
</defs>
</svg>
