<svg width="242" height="42" viewBox="0 0 242 42" fill="none" xmlns="http://www.w3.org/2000/svg">
<rect width="8.28519" height="16.0965" transform="matrix(0.866025 0.5 -0.866025 0.5 14.4395 15.3691)" fill="#B0F127"/>
<rect width="26.8628" height="8.28519" transform="matrix(0.866025 0.5 -0.866025 0.5 25.2988 8.52051)" fill="#B0F127"/>
<rect width="12.2641" height="8.28519" transform="matrix(0.866025 0.5 -0.866025 0.5 21.502 19.4287)" fill="#B0F127"/>
<path d="M60.74 33V9.96H74.612V13.816H64.596V19.56H72.692V23.4H64.596V33H60.74ZM77.81 13.096V9.56H81.666V13.096H77.81ZM77.81 33V15.72H81.666V33H77.81ZM98.4108 33V24.68C98.4108 24.136 98.3734 23.5333 98.2988 22.872C98.2241 22.2107 98.0481 21.576 97.7708 20.968C97.5041 20.3493 97.0988 19.8427 96.5548 19.448C96.0214 19.0533 95.2961 18.856 94.3788 18.856C93.8881 18.856 93.4028 18.936 92.9228 19.096C92.4428 19.256 92.0054 19.5333 91.6108 19.928C91.2268 20.312 90.9174 20.8453 90.6828 21.528C90.4481 22.2 90.3308 23.064 90.3308 24.12L88.0428 23.144C88.0428 21.672 88.3254 20.3387 88.8908 19.144C89.4668 17.9493 90.3094 17 91.4188 16.296C92.5281 15.5813 93.8934 15.224 95.5148 15.224C96.7948 15.224 97.8508 15.4373 98.6828 15.864C99.5148 16.2907 100.176 16.8347 100.667 17.496C101.157 18.1573 101.52 18.8613 101.755 19.608C101.989 20.3547 102.139 21.064 102.203 21.736C102.277 22.3973 102.315 22.936 102.315 23.352V33H98.4108ZM86.4268 33V15.72H89.8668V21.08H90.3308V33H86.4268ZM111.322 33.48C110.074 33.48 109.018 33.2453 108.154 32.776C107.29 32.296 106.634 31.6613 106.186 30.872C105.749 30.0827 105.53 29.2133 105.53 28.264C105.53 27.432 105.669 26.6853 105.946 26.024C106.223 25.352 106.65 24.776 107.226 24.296C107.802 23.8053 108.549 23.4053 109.466 23.096C110.159 22.872 110.97 22.6693 111.898 22.488C112.837 22.3067 113.85 22.1413 114.938 21.992C116.037 21.832 117.183 21.6613 118.378 21.48L117.002 22.264C117.013 21.0693 116.746 20.1893 116.202 19.624C115.658 19.0587 114.741 18.776 113.45 18.776C112.671 18.776 111.919 18.9573 111.194 19.32C110.469 19.6827 109.962 20.3067 109.674 21.192L106.154 20.088C106.581 18.6267 107.391 17.4533 108.586 16.568C109.791 15.6827 111.413 15.24 113.45 15.24C114.986 15.24 116.335 15.4907 117.498 15.992C118.671 16.4933 119.541 17.3147 120.106 18.456C120.415 19.064 120.602 19.688 120.666 20.328C120.73 20.9573 120.762 21.6453 120.762 22.392V33H117.386V29.256L117.946 29.864C117.167 31.112 116.255 32.0293 115.21 32.616C114.175 33.192 112.879 33.48 111.322 33.48ZM112.09 30.408C112.965 30.408 113.711 30.2533 114.33 29.944C114.949 29.6347 115.439 29.256 115.802 28.808C116.175 28.36 116.426 27.9387 116.554 27.544C116.757 27.0533 116.869 26.4933 116.89 25.864C116.922 25.224 116.938 24.7067 116.938 24.312L118.122 24.664C116.959 24.8453 115.962 25.0053 115.13 25.144C114.298 25.2827 113.583 25.416 112.986 25.544C112.389 25.6613 111.861 25.7947 111.402 25.944C110.954 26.104 110.575 26.2907 110.266 26.504C109.957 26.7173 109.717 26.9627 109.546 27.24C109.386 27.5173 109.306 27.8427 109.306 28.216C109.306 28.6427 109.413 29.0213 109.626 29.352C109.839 29.672 110.149 29.928 110.554 30.12C110.97 30.312 111.482 30.408 112.09 30.408ZM136.88 33V24.68C136.88 24.136 136.842 23.5333 136.768 22.872C136.693 22.2107 136.517 21.576 136.24 20.968C135.973 20.3493 135.568 19.8427 135.024 19.448C134.49 19.0533 133.765 18.856 132.848 18.856C132.357 18.856 131.872 18.936 131.392 19.096C130.912 19.256 130.474 19.5333 130.08 19.928C129.696 20.312 129.386 20.8453 129.152 21.528C128.917 22.2 128.8 23.064 128.8 24.12L126.512 23.144C126.512 21.672 126.794 20.3387 127.36 19.144C127.936 17.9493 128.778 17 129.888 16.296C130.997 15.5813 132.362 15.224 133.984 15.224C135.264 15.224 136.32 15.4373 137.152 15.864C137.984 16.2907 138.645 16.8347 139.135 17.496C139.626 18.1573 139.989 18.8613 140.224 19.608C140.458 20.3547 140.608 21.064 140.672 21.736C140.746 22.3973 140.784 22.936 140.784 23.352V33H136.88ZM124.896 33V15.72H128.336V21.08H128.8V33H124.896ZM155.087 33C153.945 33.2133 152.825 33.304 151.727 33.272C150.639 33.2507 149.663 33.0533 148.799 32.68C147.935 32.296 147.279 31.6933 146.831 30.872C146.436 30.1253 146.228 29.3627 146.207 28.584C146.185 27.8053 146.175 26.9253 146.175 25.944V10.92H150.015V25.72C150.015 26.4133 150.02 27.0213 150.031 27.544C150.052 28.0667 150.164 28.4933 150.367 28.824C150.751 29.464 151.364 29.8213 152.207 29.896C153.049 29.9707 154.009 29.928 155.087 29.768V33ZM143.039 18.744V15.72H155.087V18.744H143.039ZM165.784 33.48C164.034 33.48 162.498 33.1013 161.176 32.344C159.853 31.5867 158.818 30.536 158.072 29.192C157.336 27.848 156.968 26.3013 156.968 24.552C156.968 22.664 157.33 21.0267 158.056 19.64C158.781 18.2427 159.789 17.16 161.08 16.392C162.37 15.624 163.864 15.24 165.56 15.24C167.352 15.24 168.872 15.6613 170.12 16.504C171.378 17.336 172.312 18.5147 172.92 20.04C173.528 21.5653 173.757 23.3627 173.608 25.432H169.784V24.024C169.773 22.1467 169.442 20.776 168.792 19.912C168.141 19.048 167.117 18.616 165.72 18.616C164.141 18.616 162.968 19.1067 162.2 20.088C161.432 21.0587 161.048 22.4827 161.048 24.36C161.048 26.1093 161.432 27.464 162.2 28.424C162.968 29.384 164.088 29.864 165.56 29.864C166.509 29.864 167.325 29.656 168.008 29.24C168.701 28.8133 169.234 28.2 169.608 27.4L173.416 28.552C172.754 30.1093 171.73 31.32 170.344 32.184C168.968 33.048 167.448 33.48 165.784 33.48ZM159.832 25.432V22.52H171.72V25.432H159.832ZM184.682 33.48C182.9 33.48 181.38 33.0853 180.122 32.296C178.863 31.496 177.898 30.408 177.226 29.032C176.564 27.656 176.228 26.0987 176.218 24.36C176.228 22.5893 176.575 21.0213 177.258 19.656C177.951 18.28 178.932 17.2027 180.202 16.424C181.471 15.6347 182.98 15.24 184.73 15.24C186.692 15.24 188.351 15.736 189.706 16.728C191.071 17.7093 191.962 19.0533 192.378 20.76L188.538 21.8C188.239 20.872 187.743 20.152 187.05 19.64C186.356 19.1173 185.567 18.856 184.682 18.856C183.679 18.856 182.852 19.096 182.202 19.576C181.551 20.0453 181.071 20.696 180.762 21.528C180.452 22.36 180.298 23.304 180.298 24.36C180.298 26.0027 180.666 27.3307 181.402 28.344C182.138 29.3573 183.231 29.864 184.682 29.864C185.706 29.864 186.511 29.6293 187.098 29.16C187.695 28.6907 188.143 28.0133 188.442 27.128L192.378 28.008C191.844 29.768 190.911 31.1227 189.578 32.072C188.244 33.0107 186.612 33.48 184.682 33.48ZM207.536 33V24.68C207.536 24.136 207.498 23.5333 207.424 22.872C207.349 22.2107 207.173 21.576 206.896 20.968C206.629 20.3493 206.224 19.8427 205.68 19.448C205.146 19.0533 204.421 18.856 203.504 18.856C203.013 18.856 202.528 18.936 202.048 19.096C201.568 19.256 201.13 19.5333 200.736 19.928C200.352 20.312 200.042 20.8453 199.808 21.528C199.573 22.2 199.456 23.064 199.456 24.12L197.168 23.144C197.168 21.672 197.45 20.3387 198.016 19.144C198.592 17.9493 199.434 17 200.544 16.296C201.653 15.5813 203.018 15.224 204.64 15.224C205.92 15.224 206.976 15.4373 207.808 15.864C208.64 16.2907 209.301 16.8347 209.792 17.496C210.282 18.1573 210.645 18.8613 210.88 19.608C211.114 20.3547 211.264 21.064 211.328 21.736C211.402 22.3973 211.44 22.936 211.44 23.352V33H207.536ZM195.552 33V9.96H198.992V22.088H199.456V33H195.552ZM220.101 33L227.909 21.352L220.325 9.96H225.045L230.293 18.072L235.493 9.96H240.245L232.661 21.352L240.437 33H235.717L230.293 24.632L224.853 33H220.101Z" fill="white"/>
</svg>
