<svg width="130" height="168" viewBox="0 0 130 168" fill="none" xmlns="http://www.w3.org/2000/svg">
<path d="M13.2676 99.9844L71.2169 126.052L76.5306 159.399L13.2676 99.9844Z" fill="#060606" stroke="#060606" stroke-width="2" stroke-linecap="round" stroke-linejoin="round"/>
<path d="M118.201 83.2641L71.2185 126.053L76.5322 159.399L118.201 83.2641Z" fill="white" stroke="#060606" stroke-width="2" stroke-linecap="round" stroke-linejoin="round"/>
<path d="M118.201 83.2641L71.2185 126.053L76.5322 159.399L118.201 83.2641Z" fill="#B0F127" stroke="#060606" stroke-width="2" stroke-linecap="round" stroke-linejoin="round"/>
<path d="M13.2676 99.9812L61.3119 63.89L118.2 83.2604L71.2169 126.049L13.2676 99.9812Z" fill="white" stroke="#060606" stroke-width="2" stroke-linecap="round" stroke-linejoin="round"/>
<path d="M13.2676 99.9812L61.3119 63.89L118.2 83.2604L71.2169 126.049L13.2676 99.9812Z" fill="#060606" stroke="#060606" stroke-width="2" stroke-linecap="round" stroke-linejoin="round"/>
<path d="M52.4639 8.36133L68.9886 112.063L115.915 68.9193L52.4639 8.36133Z" fill="white" stroke="#060606" stroke-width="2" stroke-linecap="round" stroke-linejoin="round"/>
<path d="M52.4639 8.36133L68.9886 112.063L115.915 68.9193L52.4639 8.36133Z" fill="#B0F127" stroke="#060606" stroke-width="2" stroke-linecap="round" stroke-linejoin="round"/>
<path d="M52.4633 8.36073L68.9881 112.062L10.9822 85.6396L52.4633 8.36073Z" fill="#547907" stroke="#060606" stroke-width="2" stroke-linecap="round" stroke-linejoin="round"/>
</svg>
