<svg width="142" height="185" viewBox="0 0 142 185" fill="none" xmlns="http://www.w3.org/2000/svg">
<path d="M14.6543 110.129L78.3418 138.778L84.1816 175.426L14.6543 110.129Z" fill="#060606" stroke="#939393" stroke-width="1.5" stroke-linecap="round" stroke-linejoin="round"/>
<path d="M129.979 91.7526L78.3437 138.778L84.1836 175.427L129.979 91.7526Z" fill="white" stroke="#939393" stroke-width="1.5" stroke-linecap="round" stroke-linejoin="round"/>
<path d="M129.979 91.7526L78.3437 138.778L84.1836 175.427L129.979 91.7526Z" fill="#060606" stroke="#939393" stroke-width="1.5" stroke-linecap="round" stroke-linejoin="round"/>
<path d="M14.6544 110.125L67.456 70.4597L129.977 91.7481L78.3419 138.774L14.6544 110.125Z" fill="white" stroke="#939393" stroke-width="1.5" stroke-linecap="round" stroke-linejoin="round"/>
<path d="M14.6544 110.125L67.456 70.4597L129.977 91.7481L78.3419 138.774L14.6544 110.125Z" fill="#060606" stroke="#939393" stroke-width="1.5" stroke-linecap="round" stroke-linejoin="round"/>
<path d="M57.7334 9.43262L75.8944 123.403L127.468 75.9871L57.7334 9.43262Z" fill="white" stroke="#939393" stroke-width="1.5" stroke-linecap="round" stroke-linejoin="round"/>
<path d="M57.7314 9.43262L75.8925 123.403L127.466 75.9871L57.7314 9.43262Z" fill="#060606" stroke="#939393" stroke-width="1.5" stroke-linecap="round" stroke-linejoin="round"/>
<path d="M57.7314 9.43136L75.8925 123.402L12.1429 94.3624L57.7314 9.43136Z" fill="#060606" stroke="#939393" stroke-width="1.5" stroke-linecap="round" stroke-linejoin="round"/>
</svg>
