<svg width="1608" height="904" viewBox="0 0 1608 904" fill="none" xmlns="http://www.w3.org/2000/svg">
<mask id="mask0_3745_42730" style="mask-type:alpha" maskUnits="userSpaceOnUse" x="0" y="0" width="1608" height="904">
<mask id="mask1_3745_42730" style="mask-type:alpha" maskUnits="userSpaceOnUse" x="0" y="0" width="1608" height="904">
<rect width="1608" height="904" fill="#D9D9D9"/>
</mask>
<g mask="url(#mask1_3745_42730)">
<rect width="1608" height="904" fill="#D9D9D9"/>
</g>
</mask>
<g mask="url(#mask0_3745_42730)">
<rect x="-104.139" y="-95.3633" width="1803.44" height="1202.88" rx="48" fill="#141414"/>
<g opacity="0.1">
<path d="M-671.707 367.844L1032.63 1351.84" stroke="white" stroke-width="2" stroke-linejoin="round"/>
<path d="M-422.291 223.844L1282.05 1207.84" stroke="white" stroke-width="2" stroke-linejoin="round"/>
<path d="M-172.877 79.8438L1531.46 1063.84" stroke="white" stroke-width="2" stroke-linejoin="round"/>
<path d="M76.5386 -64.1562L1780.88 919.844" stroke="white" stroke-width="2" stroke-linejoin="round"/>
<path d="M325.954 -208.156L2030.29 775.844" stroke="white" stroke-width="2" stroke-linejoin="round"/>
<path d="M575.37 -352.156L2279.71 631.844" stroke="white" stroke-width="2" stroke-linejoin="round"/>
<path d="M1032.63 -352.156L-671.707 631.844" stroke="white" stroke-width="2" stroke-linejoin="round"/>
<path d="M1282.05 -208.156L-422.292 775.844" stroke="white" stroke-width="2" stroke-linejoin="round"/>
<path d="M1531.46 -64.1562L-172.877 919.844" stroke="white" stroke-width="2" stroke-linejoin="round"/>
<path d="M1780.88 79.8438L76.5388 1063.84" stroke="white" stroke-width="2" stroke-linejoin="round"/>
<path d="M2030.29 223.844L325.954 1207.84" stroke="white" stroke-width="2" stroke-linejoin="round"/>
<path d="M2279.71 367.844L575.369 1351.84" stroke="white" stroke-width="2" stroke-linejoin="round"/>
</g>
<path d="M1423.88 508.239C1464.97 484.511 1464.97 446.04 1423.88 422.312L933.609 139.256C904.729 122.582 857.906 122.582 829.026 139.256L-218.482 744.035C-252.916 763.916 -252.916 796.148 -218.482 816.028L283.852 1106.05C312.732 1122.72 359.555 1122.72 388.435 1106.05L1423.88 508.239Z" fill="#E7E7E7" stroke="#060606" stroke-width="4"/>
<mask id="mask2_3745_42730" style="mask-type:alpha" maskUnits="userSpaceOnUse" x="-245" y="126" width="1700" height="993">
<path d="M1423.88 508.239C1464.97 484.511 1464.97 446.04 1423.88 422.312L933.609 139.256C904.729 122.582 857.906 122.582 829.026 139.256L-218.482 744.035C-252.916 763.916 -252.916 796.148 -218.482 816.028L283.852 1106.05C312.732 1122.72 359.555 1122.72 388.435 1106.05L1423.88 508.239Z" fill="white"/>
</mask>
<g mask="url(#mask2_3745_42730)">
<rect width="595.877" height="988.978" transform="matrix(-1 0 0 1 1475.56 39.9434)" fill="white"/>
</g>
<path d="M1423.88 508.239C1464.97 484.511 1464.97 446.04 1423.88 422.312L933.609 139.256C904.729 122.582 857.906 122.582 829.026 139.256L-218.482 744.035C-252.916 763.916 -252.916 796.148 -218.482 816.028L283.852 1106.05C312.732 1122.72 359.555 1122.72 388.435 1106.05L1423.88 508.239Z" stroke="#060606" stroke-width="4"/>
<path d="M855.064 192.647C856.388 193.411 857.263 194.275 857.689 195.237C858.124 196.204 858.092 197.185 857.592 198.179C857.101 199.168 856.129 200.082 854.675 200.921L848.87 204.273C847.296 205.182 845.63 205.791 843.871 206.101C842.121 206.406 840.38 206.416 838.649 206.133C836.927 205.844 835.316 205.267 833.816 204.401C832.844 203.84 832.062 203.223 831.469 202.549C830.895 201.876 830.576 201.13 830.511 200.312L835.899 200.312C835.899 200.697 836.024 201.068 836.274 201.427C836.534 201.79 836.89 202.103 837.344 202.365C838.066 202.782 838.857 203.046 839.718 203.158C840.598 203.271 841.45 203.255 842.274 203.11C843.116 202.966 843.843 202.717 844.454 202.365L847.426 200.649L847.37 201.418C846.222 201.429 845.111 201.306 844.037 201.05C842.973 200.788 842.038 200.424 841.232 199.959C839.973 199.232 839.144 198.428 838.746 197.546C838.357 196.669 838.381 195.79 838.816 194.908C839.26 194.031 840.112 193.229 841.371 192.503C842.63 191.776 844.084 191.305 845.732 191.091C847.389 190.872 849.042 190.896 850.69 191.164C852.347 191.425 853.805 191.92 855.064 192.647ZM851.453 194.732C850.879 194.4 850.213 194.176 849.454 194.058C848.704 193.946 847.949 193.943 847.19 194.05C846.44 194.162 845.778 194.384 845.204 194.715C844.63 195.047 844.241 195.432 844.037 195.87C843.843 196.303 843.838 196.739 844.024 197.177C844.218 197.61 844.602 197.992 845.176 198.324C845.75 198.655 846.412 198.877 847.162 198.989C847.931 199.101 848.69 199.101 849.44 198.989C850.208 198.877 850.879 198.655 851.453 198.324C852.009 198.003 852.384 197.626 852.578 197.193C852.773 196.76 852.777 196.324 852.592 195.886C852.407 195.448 852.027 195.063 851.453 194.732ZM847.65 209.983L851.428 207.802L855.205 209.983L851.428 212.164L847.65 209.983ZM855.566 205.445L859.343 203.264L863.121 205.445L859.343 207.625L855.566 205.445ZM862.271 220.349L865.382 218.553L856.689 213.533L860.216 211.497L879.881 207.424L884.214 209.925L864.549 213.999L868.91 216.516L873.909 213.63L877.742 215.843L872.743 218.729L874.52 219.755L870.993 221.792L869.215 220.766L866.104 222.562L862.271 220.349ZM874.027 227.136L889.914 217.963L883.859 217.129L888.025 214.724L894.025 215.59L897.885 217.819L877.887 229.365L874.027 227.136Z" fill="#060606"/>
<path opacity="0.35" d="M1323.39 455.522L1351.16 471.558C1353.82 473.09 1353.82 475.573 1351.16 477.104L1342.99 481.821C1340.34 483.352 1336.04 483.352 1333.39 481.821L1305.61 465.785C1302.96 464.253 1302.96 461.77 1305.61 460.239L1313.78 455.522C1316.43 453.991 1320.74 453.991 1323.39 455.522Z" stroke="#060606" stroke-width="4"/>
<path opacity="0.4" d="M1352.89 479.989L1346 483.97C1347.97 484.434 1350.23 484.17 1351.74 483.301C1353.24 482.432 1353.7 481.127 1352.89 479.989" fill="#060606"/>
<path d="M1315.32 456.409C1317.12 455.367 1320.05 455.367 1321.85 456.409L1349.63 472.445C1351.43 473.487 1351.43 475.176 1349.63 476.218L1341.46 480.934C1339.65 481.976 1336.73 481.976 1334.92 480.934L1307.15 464.899C1305.34 463.857 1305.34 462.167 1307.15 461.125L1315.32 456.409Z" fill="#060606"/>
<path fill-rule="evenodd" clip-rule="evenodd" d="M1287.39 439.511C1291.42 441.838 1293.72 444.988 1293.8 448.311C1293.81 448.564 1294.16 448.765 1294.6 448.762L1298.87 448.725C1299.09 448.724 1299.3 448.671 1299.46 448.579C1299.62 448.486 1299.71 448.362 1299.71 448.234C1299.54 439.479 1287.45 432.496 1272.28 432.4C1272.06 432.4 1271.85 432.451 1271.69 432.543C1271.53 432.634 1271.43 432.757 1271.43 432.886L1271.37 435.35C1271.36 435.604 1271.71 435.808 1272.15 435.809C1277.91 435.859 1283.36 437.184 1287.39 439.511ZM1280.78 443.398C1282.99 444.676 1284.28 446.394 1284.41 448.217C1284.42 448.47 1284.77 448.669 1285.21 448.666L1289.47 448.628C1289.7 448.627 1289.91 448.573 1290.07 448.48C1290.23 448.386 1290.32 448.261 1290.32 448.131C1290.06 442.506 1282.32 438.037 1272.58 437.892C1272.36 437.891 1272.14 437.942 1271.98 438.033C1271.82 438.125 1271.72 438.249 1271.72 438.379L1271.65 440.841C1271.65 441.094 1271.99 441.299 1272.43 441.302C1275.59 441.374 1278.56 442.121 1280.78 443.398ZM1280.69 448.383C1280.53 448.477 1280.32 448.531 1280.09 448.531L1272.72 448.594C1272.5 448.596 1272.29 448.548 1272.14 448.461C1271.99 448.373 1271.91 448.254 1271.91 448.129L1272.02 443.871C1272.02 443.741 1272.11 443.616 1272.28 443.525C1272.44 443.434 1272.66 443.386 1272.88 443.391C1277.21 443.574 1280.61 445.536 1280.92 448.031C1280.93 448.161 1280.85 448.288 1280.69 448.383Z" fill="#060606"/>
<path d="M1246.7 416.791C1247.6 416.27 1249.06 416.27 1249.97 416.791L1251.6 417.734C1252.5 418.255 1252.5 419.1 1251.6 419.621L1238.53 427.167C1237.63 427.688 1236.16 427.688 1235.26 427.167L1233.63 426.224C1232.73 425.703 1232.73 424.858 1233.63 424.337L1246.7 416.791Z" fill="#060606"/>
<path d="M1258.13 419.621C1259.04 419.1 1260.5 419.1 1261.4 419.621L1263.04 420.564C1263.94 421.085 1263.94 421.93 1263.04 422.451L1246.7 431.884C1245.8 432.405 1244.33 432.405 1243.43 431.884L1241.8 430.94C1240.89 430.419 1240.89 429.575 1241.8 429.054L1258.13 419.621Z" fill="#060606"/>
<path d="M1232.81 415.376C1233.71 414.855 1235.18 414.855 1236.08 415.376L1237.71 416.319C1238.61 416.84 1238.61 417.685 1237.71 418.206L1230.36 422.451C1229.46 422.972 1227.99 422.972 1227.09 422.451L1225.46 421.507C1224.56 420.987 1224.56 420.142 1225.46 419.621L1232.81 415.376Z" fill="#060606"/>
<path d="M1220.56 413.018C1221.46 412.497 1222.92 412.497 1223.82 413.018L1225.46 413.961C1226.36 414.482 1226.36 415.327 1225.46 415.848L1222.19 417.734C1221.29 418.255 1219.83 418.255 1218.92 417.734L1217.29 416.791C1216.39 416.27 1216.39 415.425 1217.29 414.904L1220.56 413.018Z" fill="#060606"/>
<rect width="145.731" height="44.3545" rx="22.1772" transform="matrix(0.866025 0.5 -0.866025 0.5 1050.76 280.797)" fill="#060606"/>
<circle r="10.5508" transform="matrix(0.866025 0.5 -0.866025 0.5 1050.96 303.48)" fill="white"/>
<mask id="path-28-inside-1_3745_42730" fill="white">
<path fill-rule="evenodd" clip-rule="evenodd" d="M730.737 152.635C726.987 150.47 726.987 146.96 730.737 144.795L785.695 113.065C789.445 110.9 795.525 110.9 799.275 113.065L800.144 113.567C800.62 113.768 801.106 114.011 801.599 114.296L1018.4 239.469C1024.4 242.933 1029.27 251.357 1029.27 258.285V352.95C1029.28 353.199 1029.29 353.454 1029.29 353.714V439.394C1029.29 457.58 1016.52 479.694 1000.77 488.787L956.106 514.575C940.356 523.668 927.589 516.297 927.589 498.111V412.431C927.589 405.875 931.944 397.979 937.497 394.214L801.599 315.754C795.599 312.29 790.735 303.865 790.735 296.937L790.735 187.275L730.737 152.635Z"/>
</mask>
<path fill-rule="evenodd" clip-rule="evenodd" d="M730.737 152.635C726.987 150.47 726.987 146.96 730.737 144.795L785.695 113.065C789.445 110.9 795.525 110.9 799.275 113.065L800.144 113.567C800.62 113.768 801.106 114.011 801.599 114.296L1018.4 239.469C1024.4 242.933 1029.27 251.357 1029.27 258.285V352.95C1029.28 353.199 1029.29 353.454 1029.29 353.714V439.394C1029.29 457.58 1016.52 479.694 1000.77 488.787L956.106 514.575C940.356 523.668 927.589 516.297 927.589 498.111V412.431C927.589 405.875 931.944 397.979 937.497 394.214L801.599 315.754C795.599 312.29 790.735 303.865 790.735 296.937L790.735 187.275L730.737 152.635Z" fill="#71A407"/>
<path d="M730.737 144.795L728.75 141.352L728.75 141.352L730.737 144.795ZM730.737 152.635L728.75 156.078L728.75 156.078L730.737 152.635ZM785.695 113.065L787.683 116.508L787.683 116.508L785.695 113.065ZM799.275 113.065L801.262 109.622L801.262 109.622L799.275 113.065ZM800.144 113.567L798.157 117.01L798.37 117.133L798.596 117.229L800.144 113.567ZM801.599 114.296L799.611 117.738L799.611 117.738L801.599 114.296ZM1018.4 239.469L1020.39 236.026L1020.39 236.026L1018.4 239.469ZM1029.27 352.95H1025.29V353.058L1025.3 353.166L1029.27 352.95ZM1029.29 439.394L1025.31 439.394L1025.31 439.394L1029.29 439.394ZM1000.77 488.787L998.784 485.344L998.784 485.344L1000.77 488.787ZM956.106 514.575L958.094 518.018L958.094 518.018L956.106 514.575ZM937.497 394.214L939.728 397.505L944.98 393.944L939.485 390.771L937.497 394.214ZM801.599 315.754L803.587 312.311L803.587 312.311L801.599 315.754ZM790.735 296.937L786.76 296.937V296.937H790.735ZM790.735 187.275L794.711 187.275L794.711 184.98L792.723 183.832L790.735 187.275ZM728.75 141.352C726.15 142.853 723.949 145.376 723.949 148.715C723.949 152.055 726.15 154.577 728.75 156.078L732.725 149.192C732.177 148.876 731.951 148.615 731.881 148.516C731.825 148.437 731.9 148.513 731.9 148.715C731.9 148.918 731.825 148.993 731.881 148.914C731.951 148.815 732.177 148.554 732.725 148.238L728.75 141.352ZM783.707 109.622L728.75 141.352L732.725 148.238L787.683 116.508L783.707 109.622ZM801.262 109.622C798.641 108.109 795.455 107.466 792.485 107.466C789.515 107.466 786.329 108.109 783.707 109.622L787.683 116.508C788.811 115.857 790.54 115.417 792.485 115.417C794.429 115.417 796.159 115.857 797.287 116.508L801.262 109.622ZM802.132 110.124L801.262 109.622L797.287 116.508L798.157 117.01L802.132 110.124ZM803.587 110.853C802.961 110.492 802.329 110.175 801.692 109.906L798.596 117.229C798.911 117.362 799.25 117.53 799.611 117.738L803.587 110.853ZM1020.39 236.026L803.587 110.853L799.611 117.738L1016.42 242.911L1020.39 236.026ZM1033.24 258.285C1033.24 253.959 1031.75 249.439 1029.53 245.59C1027.31 241.741 1024.14 238.189 1020.39 236.026L1016.42 242.911C1018.67 244.212 1020.93 246.605 1022.64 249.566C1024.35 252.526 1025.29 255.683 1025.29 258.285H1033.24ZM1033.24 352.95V258.285H1025.29V352.95H1033.24ZM1025.3 353.166C1025.31 353.341 1025.31 353.524 1025.31 353.714H1033.26C1033.26 353.384 1033.26 353.056 1033.24 352.733L1025.3 353.166ZM1025.31 353.714V439.394H1033.26V353.714H1025.31ZM1025.31 439.394C1025.31 447.625 1022.4 457.018 1017.49 465.513C1012.59 474.007 1005.91 481.229 998.784 485.344L1002.76 492.23C1011.38 487.252 1018.96 478.871 1024.38 469.488C1029.8 460.105 1033.26 449.349 1033.26 439.394L1025.31 439.394ZM998.784 485.344L954.118 511.132L958.094 518.018L1002.76 492.23L998.784 485.344ZM954.118 511.132C946.968 515.261 941.426 515.149 937.929 513.13C934.432 511.111 931.564 506.367 931.564 498.111H923.613C923.613 508.04 927.129 516.075 933.953 520.015C940.778 523.955 949.495 522.982 958.094 518.018L954.118 511.132ZM931.564 498.111V412.431H923.613V498.111H931.564ZM931.564 412.431C931.564 409.974 932.402 407.014 933.949 404.182C935.493 401.355 937.575 398.964 939.728 397.505L935.266 390.924C931.866 393.229 928.994 396.668 926.972 400.37C924.953 404.065 923.613 408.332 923.613 412.431H931.564ZM799.611 319.196L935.509 397.657L939.485 390.771L803.587 312.311L799.611 319.196ZM786.76 296.937C786.76 301.263 788.252 305.783 790.474 309.632C792.697 313.481 795.865 317.033 799.611 319.196L803.587 312.311C801.333 311.01 799.07 308.618 797.36 305.657C795.651 302.696 794.711 299.539 794.711 296.937H786.76ZM786.76 187.275L786.76 296.937L794.711 296.937L794.711 187.275L786.76 187.275ZM728.75 156.078L788.748 190.718L792.723 183.832L732.725 149.192L728.75 156.078Z" fill="#060606" mask="url(#path-28-inside-1_3745_42730)"/>
<mask id="mask3_3745_42730" style="mask-type:alpha" maskUnits="userSpaceOnUse" x="727" y="112" width="303" height="405">
<mask id="path-30-inside-2_3745_42730" fill="white">
<path fill-rule="evenodd" clip-rule="evenodd" d="M730.576 158.001L790.732 192.732L790.732 296.94C790.732 303.868 795.596 312.292 801.596 315.756L937.492 394.216C931.943 397.982 927.59 405.874 927.59 412.428V496.618C927.59 514.804 940.358 522.176 956.108 513.083L1000.77 487.295C1016.52 478.202 1029.29 456.088 1029.29 437.902V353.711C1029.29 353.42 1029.28 353.135 1029.27 352.859V258.288C1029.27 251.36 1024.4 242.935 1018.4 239.471L801.596 114.298C797.782 112.096 794.427 112.429 792.489 114.742C791.688 114.992 790.935 115.312 790.258 115.703L730.576 150.161C726.826 152.326 726.826 155.836 730.576 158.001Z"/>
</mask>
<path fill-rule="evenodd" clip-rule="evenodd" d="M730.576 158.001L790.732 192.732L790.732 296.94C790.732 303.868 795.596 312.292 801.596 315.756L937.492 394.216C931.943 397.982 927.59 405.874 927.59 412.428V496.618C927.59 514.804 940.358 522.176 956.108 513.083L1000.77 487.295C1016.52 478.202 1029.29 456.088 1029.29 437.902V353.711C1029.29 353.42 1029.28 353.135 1029.27 352.859V258.288C1029.27 251.36 1024.4 242.935 1018.4 239.471L801.596 114.298C797.782 112.096 794.427 112.429 792.489 114.742C791.688 114.992 790.935 115.312 790.258 115.703L730.576 150.161C726.826 152.326 726.826 155.836 730.576 158.001Z" fill="#141414"/>
<path d="M790.732 192.732L794.708 192.732L794.708 190.437L792.72 189.289L790.732 192.732ZM730.576 158.001L732.563 154.558L732.563 154.558L730.576 158.001ZM790.732 296.94L786.757 296.94V296.94H790.732ZM801.596 315.756L803.584 312.313L803.584 312.313L801.596 315.756ZM937.492 394.216L939.724 397.505L944.971 393.944L939.479 390.773L937.492 394.216ZM956.108 513.083L954.12 509.64L954.12 509.64L956.108 513.083ZM1000.77 487.295L998.786 483.852L1000.77 487.295ZM1029.29 437.902L1025.32 437.902L1025.32 437.902L1029.29 437.902ZM1029.27 352.859H1025.29V352.98L1025.3 353.102L1029.27 352.859ZM1018.4 239.471L1020.39 236.028L1020.39 236.028L1018.4 239.471ZM801.596 114.298L799.608 117.741L799.608 117.741L801.596 114.298ZM792.489 114.742L793.672 118.538L794.786 118.19L795.536 117.295L792.489 114.742ZM790.258 115.703L788.27 112.26L788.27 112.26L790.258 115.703ZM730.576 150.161L732.563 153.603L732.563 153.603L730.576 150.161ZM792.72 189.289L732.563 154.558L728.588 161.444L788.744 196.175L792.72 189.289ZM794.708 296.94L794.708 192.732L786.757 192.732L786.757 296.94L794.708 296.94ZM803.584 312.313C801.33 311.012 799.066 308.62 797.357 305.659C795.647 302.698 794.708 299.542 794.708 296.94H786.757C786.757 301.266 788.249 305.785 790.471 309.635C792.694 313.484 795.862 317.036 799.608 319.199L803.584 312.313ZM939.479 390.773L803.584 312.313L799.608 319.199L935.504 397.659L939.479 390.773ZM931.566 412.428C931.566 409.972 932.403 407.014 933.949 404.182C935.492 401.356 937.573 398.965 939.724 397.505L935.259 390.926C931.861 393.232 928.992 396.671 926.971 400.371C924.954 404.066 923.615 408.33 923.615 412.428H931.566ZM931.566 496.618V412.428H923.615V496.618H931.566ZM954.12 509.64C946.969 513.768 941.428 513.656 937.931 511.637C934.434 509.618 931.566 504.875 931.566 496.618H923.615C923.615 506.548 927.131 514.583 933.955 518.523C940.779 522.463 949.496 521.49 958.095 516.526L954.12 509.64ZM998.786 483.852L954.12 509.64L958.095 516.526L1002.76 490.738L998.786 483.852ZM1025.32 437.902C1025.32 446.133 1022.4 455.526 1017.5 464.02C1012.59 472.515 1005.91 479.737 998.786 483.852L1002.76 490.738C1011.38 485.76 1018.96 477.378 1024.38 467.996C1029.8 458.613 1033.27 447.857 1033.27 437.902L1025.32 437.902ZM1025.32 353.711V437.902H1033.27V353.711H1025.32ZM1025.3 353.102C1025.31 353.295 1025.32 353.498 1025.32 353.711H1033.27C1033.27 353.341 1033.26 352.976 1033.23 352.616L1025.3 353.102ZM1025.29 258.288V352.859H1033.24V258.288H1025.29ZM1016.41 242.914C1018.67 244.215 1020.93 246.607 1022.64 249.568C1024.35 252.529 1025.29 255.686 1025.29 258.288H1033.24C1033.24 253.962 1031.75 249.442 1029.53 245.593C1027.3 241.743 1024.14 238.191 1020.39 236.028L1016.41 242.914ZM799.608 117.741L1016.41 242.914L1020.39 236.028L803.584 110.855L799.608 117.741ZM795.536 117.295C795.785 116.999 796.083 116.826 796.586 116.795C797.168 116.758 798.186 116.92 799.608 117.741L803.584 110.855C798.817 108.104 793.086 107.839 789.442 112.189L795.536 117.295ZM792.245 119.146C792.635 118.921 793.112 118.712 793.672 118.538L791.306 110.947C790.263 111.272 789.234 111.704 788.27 112.26L792.245 119.146ZM732.563 153.603L792.245 119.146L788.27 112.26L728.588 146.718L732.563 153.603ZM732.563 154.558C732.016 154.242 731.789 153.981 731.719 153.882C731.664 153.802 731.739 153.878 731.739 154.081C731.739 154.283 731.664 154.359 731.719 154.279C731.789 154.181 732.016 153.92 732.563 153.603L728.588 146.718C725.989 148.218 723.788 150.741 723.788 154.081C723.788 157.42 725.989 159.943 728.588 161.444L732.563 154.558Z" fill="#060606" mask="url(#path-30-inside-2_3745_42730)"/>
</mask>
<g mask="url(#mask3_3745_42730)">
<path d="M927.592 316.242C927.592 309.314 932.456 300.889 938.456 297.425L1039.88 238.865C1045.88 235.401 1050.75 238.209 1050.75 245.138L1050.75 439.604C1050.75 457.79 1037.98 479.904 1022.23 488.997L956.109 527.172C940.359 536.265 927.592 528.894 927.592 510.708L927.592 316.242Z" fill="#141414"/>
</g>
<mask id="path-33-inside-3_3745_42730" fill="white">
<path fill-rule="evenodd" clip-rule="evenodd" d="M730.737 152.635C726.987 150.47 726.987 146.96 730.737 144.795L785.695 113.065C789.445 110.9 795.525 110.9 799.275 113.065L800.144 113.567C800.62 113.768 801.106 114.011 801.599 114.296L1018.4 239.469C1024.4 242.933 1029.27 251.357 1029.27 258.285V352.95C1029.28 353.199 1029.29 353.454 1029.29 353.714V439.394C1029.29 457.58 1016.52 479.694 1000.77 488.787L956.106 514.575C940.356 523.668 927.589 516.297 927.589 498.111V412.431C927.589 405.875 931.944 397.979 937.497 394.214L801.599 315.754C795.599 312.29 790.735 303.865 790.735 296.937L790.735 187.275L730.737 152.635Z"/>
</mask>
<path d="M730.737 144.795L728.75 141.352L728.75 141.352L730.737 144.795ZM730.737 152.635L728.75 156.078L728.75 156.078L730.737 152.635ZM785.695 113.065L787.683 116.508L787.683 116.508L785.695 113.065ZM799.275 113.065L801.262 109.622L801.262 109.622L799.275 113.065ZM800.144 113.567L798.157 117.01L798.37 117.133L798.596 117.229L800.144 113.567ZM801.599 114.296L799.611 117.738L799.611 117.738L801.599 114.296ZM1018.4 239.469L1020.39 236.026L1020.39 236.026L1018.4 239.469ZM1029.27 352.95H1025.29V353.058L1025.3 353.166L1029.27 352.95ZM1029.29 439.394L1025.31 439.394L1025.31 439.394L1029.29 439.394ZM1000.77 488.787L998.784 485.344L998.784 485.344L1000.77 488.787ZM956.106 514.575L958.094 518.018L958.094 518.018L956.106 514.575ZM937.497 394.214L939.728 397.505L944.98 393.944L939.485 390.771L937.497 394.214ZM801.599 315.754L803.587 312.311L803.587 312.311L801.599 315.754ZM790.735 296.937L786.76 296.937V296.937H790.735ZM790.735 187.275L794.711 187.275L794.711 184.98L792.723 183.832L790.735 187.275ZM728.75 141.352C726.15 142.853 723.949 145.376 723.949 148.715C723.949 152.055 726.15 154.577 728.75 156.078L732.725 149.192C732.177 148.876 731.951 148.615 731.881 148.516C731.825 148.437 731.9 148.513 731.9 148.715C731.9 148.918 731.825 148.993 731.881 148.914C731.951 148.815 732.177 148.554 732.725 148.238L728.75 141.352ZM783.707 109.622L728.75 141.352L732.725 148.238L787.683 116.508L783.707 109.622ZM801.262 109.622C798.641 108.109 795.455 107.466 792.485 107.466C789.515 107.466 786.329 108.109 783.707 109.622L787.683 116.508C788.811 115.857 790.54 115.417 792.485 115.417C794.429 115.417 796.159 115.857 797.287 116.508L801.262 109.622ZM802.132 110.124L801.262 109.622L797.287 116.508L798.157 117.01L802.132 110.124ZM803.587 110.853C802.961 110.492 802.329 110.175 801.692 109.906L798.596 117.229C798.911 117.362 799.25 117.53 799.611 117.738L803.587 110.853ZM1020.39 236.026L803.587 110.853L799.611 117.738L1016.42 242.911L1020.39 236.026ZM1033.24 258.285C1033.24 253.959 1031.75 249.439 1029.53 245.59C1027.31 241.741 1024.14 238.189 1020.39 236.026L1016.42 242.911C1018.67 244.212 1020.93 246.605 1022.64 249.566C1024.35 252.526 1025.29 255.683 1025.29 258.285H1033.24ZM1033.24 352.95V258.285H1025.29V352.95H1033.24ZM1025.3 353.166C1025.31 353.341 1025.31 353.524 1025.31 353.714H1033.26C1033.26 353.384 1033.26 353.056 1033.24 352.733L1025.3 353.166ZM1025.31 353.714V439.394H1033.26V353.714H1025.31ZM1025.31 439.394C1025.31 447.625 1022.4 457.018 1017.49 465.513C1012.59 474.007 1005.91 481.229 998.784 485.344L1002.76 492.23C1011.38 487.252 1018.96 478.871 1024.38 469.488C1029.8 460.105 1033.26 449.349 1033.26 439.394L1025.31 439.394ZM998.784 485.344L954.118 511.132L958.094 518.018L1002.76 492.23L998.784 485.344ZM954.118 511.132C946.968 515.261 941.426 515.149 937.929 513.13C934.432 511.111 931.564 506.367 931.564 498.111H923.613C923.613 508.04 927.129 516.075 933.953 520.015C940.778 523.955 949.495 522.982 958.094 518.018L954.118 511.132ZM931.564 498.111V412.431H923.613V498.111H931.564ZM931.564 412.431C931.564 409.974 932.402 407.014 933.949 404.182C935.493 401.355 937.575 398.964 939.728 397.505L935.266 390.924C931.866 393.229 928.994 396.668 926.972 400.37C924.953 404.065 923.613 408.332 923.613 412.431H931.564ZM799.611 319.196L935.509 397.657L939.485 390.771L803.587 312.311L799.611 319.196ZM786.76 296.937C786.76 301.263 788.252 305.783 790.474 309.632C792.697 313.481 795.865 317.033 799.611 319.196L803.587 312.311C801.333 311.01 799.07 308.618 797.36 305.657C795.651 302.696 794.711 299.539 794.711 296.937H786.76ZM786.76 187.275L786.76 296.937L794.711 296.937L794.711 187.275L786.76 187.275ZM728.75 156.078L788.748 190.718L792.723 183.832L732.725 149.192L728.75 156.078Z" fill="#060606" mask="url(#path-33-inside-3_3745_42730)"/>
<path d="M737.071 148.438L959.98 277.135C965.03 280.05 969.123 287.139 969.123 292.969L969.123 477.711C969.123 511.254 945.574 524.849 916.526 508.078L758.798 417.014C741.749 407.171 727.928 383.233 727.928 363.546L727.928 153.716C727.928 147.886 732.022 145.522 737.071 148.438Z" fill="#F4F4F4" stroke="#060606" stroke-width="3.97543"/>
<mask id="mask4_3745_42730" style="mask-type:alpha" maskUnits="userSpaceOnUse" x="726" y="144" width="245" height="374">
<path d="M737.071 148.432L959.98 277.129C965.03 280.044 969.123 287.133 969.123 292.964L969.123 477.705C969.123 511.248 945.574 524.844 916.526 508.072L758.798 417.008C741.749 407.165 727.928 383.227 727.928 363.541L727.928 153.71C727.928 147.88 732.022 145.517 737.071 148.432Z" fill="#B0F127" stroke="#060606" stroke-width="3.97543"/>
</mask>
<g mask="url(#mask4_3745_42730)">
<rect width="387.829" height="101.346" transform="matrix(0.866025 0.5 -2.20305e-08 1 693.423 121.248)" fill="white"/>
</g>
<path d="M737.071 148.438L959.98 277.135C965.03 280.05 969.123 287.139 969.123 292.969L969.123 477.711C969.123 511.254 945.574 524.849 916.526 508.078L758.798 417.014C741.749 407.171 727.928 383.233 727.928 363.546L727.928 153.716C727.928 147.886 732.022 145.522 737.071 148.438Z" stroke="#060606" stroke-width="3.97543"/>
<circle r="71.2954" transform="matrix(0.866025 0.5 -2.20305e-08 1 839.671 340.797)" fill="#939393" stroke="#060606" stroke-width="3.97543"/>
<mask id="mask5_3745_42730" style="mask-type:alpha" maskUnits="userSpaceOnUse" x="776" y="258" width="128" height="165">
<circle r="71.2954" transform="matrix(0.866025 0.5 -2.20305e-08 1 839.671 340.795)" fill="#939393" stroke="#060606" stroke-width="3.97543"/>
</mask>
<g mask="url(#mask5_3745_42730)">
<rect width="387.829" height="101.586" transform="matrix(0.866025 0.5 -2.20305e-08 1 698.19 124.145)" fill="#E7E7E7"/>
</g>
<circle r="71.2954" transform="matrix(0.866025 0.5 -2.20305e-08 1 839.671 340.797)" stroke="#060606" stroke-width="3.97543"/>
<circle r="54.7943" transform="matrix(0.866025 0.5 -2.20305e-08 1 839.675 340.804)" fill="#060606" stroke="#060606" stroke-width="3.97543"/>
<circle r="50.685" transform="matrix(0.866025 0.5 -2.20305e-08 1 843.235 342.859)" fill="white" stroke="#060606" stroke-width="3.97543"/>
<rect x="1.72141" y="2.98157" width="13.1574" height="46.1812" rx="6.57869" transform="matrix(0.866025 0.5 -2.20305e-08 1 832.483 312.635)" fill="#060606" stroke="#060606" stroke-width="3.97543"/>
<path d="M777.961 68.8938L778.277 150.052C778.277 152.868 780.135 155.685 783.851 157.819C788.004 159.912 792.596 160.988 797.248 160.957C801.9 160.927 806.478 159.791 810.603 157.644C814.32 155.475 816.143 152.623 816.125 149.807L815.827 68.6839C815.827 54.5307 819.754 44.0864 826.749 40.0276C833.743 35.9688 844.823 37.6483 857.129 44.6812L878.061 56.6301C910.843 75.3668 938.646 123.022 938.787 160.706L939.085 241.863C939.085 244.68 940.96 247.497 944.677 249.631C950.067 252.421 956.203 253.438 962.207 252.535C965.474 252.159 968.633 251.136 971.499 249.526C972.424 248.999 973.289 248.372 974.075 247.654C974.962 246.925 975.684 246.016 976.191 244.988C976.699 243.959 976.982 242.834 977.021 241.688L976.723 160.566C976.617 135.916 968.343 108.204 953.372 82.5746C938.401 56.9449 918.311 36.0738 896.906 23.8276L875.992 11.8613C865.295 5.48436 853.327 1.52511 840.931 0.262292C829.362 -0.850877 817.731 1.62331 807.623 7.34761C797.658 13.2886 789.773 22.1535 785.043 32.7324C780.051 44.1212 777.633 56.4673 777.961 68.8938Z" fill="#060606" stroke="#060606" stroke-width="3.97543" stroke-linecap="round" stroke-linejoin="round"/>
<path d="M572.932 410.404L607.85 390.244L630.401 403.264L624.921 406.428L608.213 396.782L599.605 401.752L613.403 409.718L607.922 412.882L594.125 404.916L584.256 410.614L600.963 420.26L595.483 423.424L572.932 410.404ZM629.123 442.846L641.733 435.566C642.557 435.09 643.414 434.53 644.303 433.886C645.192 433.242 645.887 432.533 646.389 431.758C646.922 430.984 647.076 430.186 646.849 429.364C646.639 428.552 645.839 427.745 644.449 426.942C643.705 426.513 642.848 426.158 641.878 425.878C640.908 425.598 639.825 425.458 638.629 425.458C637.465 425.458 636.188 425.654 634.798 426.046C633.424 426.429 631.936 427.082 630.336 428.006L628.347 425.15C630.578 423.862 633.027 422.943 635.695 422.392C638.378 421.851 641.094 421.758 643.842 422.112C646.607 422.458 649.218 423.34 651.675 424.758C653.615 425.878 654.892 426.989 655.506 428.09C656.12 429.192 656.298 430.246 656.04 431.254C655.781 432.262 655.264 433.196 654.488 434.054C653.712 434.913 652.863 435.664 651.941 436.308C651.052 436.952 650.293 437.456 649.662 437.82L635.04 446.262L629.123 442.846ZM610.961 432.36L637.15 417.24L642.363 420.25L634.24 424.94L634.943 425.346L616.878 435.776L610.961 432.36ZM656.717 458.778C654.664 457.966 652.829 457.065 651.213 456.076C649.596 455.105 648.416 454.078 647.673 452.996C646.945 451.904 646.864 450.802 647.43 449.692C647.964 448.693 648.804 447.844 649.952 447.144C651.1 446.444 652.417 445.664 653.904 444.806L676.674 431.66L682.494 435.02L660.064 447.97C659.013 448.576 658.1 449.113 657.324 449.58C656.564 450.056 656.087 450.527 655.893 450.994C655.505 451.89 655.893 452.739 657.057 453.542C658.221 454.344 659.74 455.147 661.616 455.95L656.717 458.778ZM660.064 435.762L664.647 433.116L682.906 443.658L678.323 446.304L660.064 435.762ZM672.201 468.557C669.55 467.027 667.796 465.351 666.939 463.531C666.083 461.711 666.107 459.887 667.012 458.057C667.933 456.237 669.72 454.562 672.371 453.031C675.232 451.379 678.263 450.264 681.464 449.685C684.681 449.097 687.85 449.032 690.97 449.489C694.09 449.947 696.935 450.917 699.505 452.401C702.221 453.969 703.886 455.668 704.501 457.497C705.147 459.327 704.775 461.175 703.385 463.041C701.995 464.908 699.618 466.681 696.256 468.361L690.461 465.015L692.594 463.783C695.423 462.131 697 460.643 697.323 459.317C697.646 457.992 696.749 456.718 694.631 455.495C692.239 454.114 689.717 453.517 687.066 453.703C684.431 453.881 681.691 454.791 678.845 456.433C676.194 457.964 674.723 459.485 674.432 460.997C674.141 462.509 675.111 463.909 677.342 465.197C678.781 466.028 680.333 466.56 681.998 466.793C683.695 467.027 685.433 466.957 687.211 466.583L691.237 470.923C687.874 471.707 684.487 471.871 681.076 471.413C677.681 470.965 674.723 470.013 672.201 468.557ZM675.378 456.307L679.791 453.759L697.808 464.161L693.395 466.709L675.378 456.307ZM690.197 478.107L716.385 462.987L721.55 465.969L715.173 469.651L715.367 468.811C716.563 468.494 717.784 468.284 719.029 468.181C720.306 468.079 721.559 468.111 722.787 468.279C723.87 468.401 724.921 468.615 725.939 468.923C726.99 469.231 727.952 469.609 728.825 470.057C729.714 470.496 730.482 470.977 731.129 471.499L725.673 474.649C725.123 474.071 724.299 473.511 723.199 472.969C722.116 472.437 720.928 472.078 719.635 471.891C718.39 471.677 717.169 471.616 715.973 471.709C714.793 471.812 713.645 472.045 712.53 472.409C711.431 472.764 710.38 473.231 709.378 473.809L696.065 481.495L690.197 478.107ZM711.08 503.604L729.97 498.522L725.993 500.93L742.628 478.138L748.714 481.652L736.056 498.312L734.505 497.416L763.142 489.982L768.986 493.356L716.56 506.768L711.08 503.604ZM756.306 517.115C753.687 515.603 751.99 513.942 751.214 512.131C750.438 510.321 750.543 508.505 751.529 506.685C752.547 504.865 754.407 503.176 757.106 501.617C759.854 500.031 762.813 498.957 765.981 498.397C769.15 497.837 772.294 497.786 775.414 498.243C778.534 498.701 781.379 499.671 783.95 501.155C786.585 502.677 788.29 504.343 789.066 506.153C789.842 507.964 789.729 509.784 788.727 511.613C787.74 513.433 785.898 515.123 783.198 516.681C780.482 518.249 777.532 519.318 774.347 519.887C771.195 520.457 768.05 520.517 764.914 520.069C761.794 519.612 758.925 518.627 756.306 517.115ZM761.786 513.951C764.114 515.295 766.62 515.846 769.303 515.603C771.987 515.361 774.557 514.53 777.014 513.111C779.552 511.646 780.999 510.148 781.355 508.617C781.727 507.077 780.765 505.645 778.469 504.319C776.901 503.414 775.252 502.873 773.523 502.695C771.825 502.518 770.104 502.653 768.358 503.101C766.628 503.54 764.939 504.235 763.29 505.187C760.752 506.653 759.297 508.155 758.925 509.695C758.585 511.235 759.539 512.654 761.786 513.951ZM784.515 533.43C782.575 532.31 781.298 531.199 780.684 530.098C780.07 528.997 779.892 527.942 780.15 526.934C780.409 525.926 780.926 524.993 781.702 524.134C782.478 523.275 783.311 522.524 784.2 521.88C785.121 521.236 785.897 520.732 786.528 520.368L801.15 511.926L807.067 515.342L794.457 522.622C793.649 523.089 792.792 523.649 791.887 524.302C790.998 524.946 790.286 525.655 789.753 526.43C789.252 527.205 789.106 527.998 789.316 528.81C789.543 529.631 790.351 530.443 791.741 531.246C792.485 531.675 793.342 532.03 794.312 532.31C795.282 532.59 796.349 532.73 797.513 532.73C798.709 532.73 800.002 532.534 801.392 532.142C802.783 531.75 804.27 531.097 805.854 530.182L807.843 533.038C805.612 534.326 803.154 535.241 800.471 535.782C797.804 536.333 795.088 536.435 792.323 536.09C789.575 535.735 786.972 534.849 784.515 533.43ZM793.827 537.938L801.95 533.248L801.247 532.842L819.312 522.412L825.18 525.8L798.992 540.92L793.827 537.938ZM805.804 544.853L831.993 529.733L837.158 532.715L830.781 536.397L830.975 535.557C832.171 535.24 833.391 535.03 834.636 534.927C835.913 534.825 837.166 534.857 838.395 535.025C839.478 535.147 840.529 535.361 841.547 535.669C842.598 535.977 843.56 536.355 844.433 536.803C845.322 537.242 846.09 537.723 846.736 538.245L841.28 541.395C840.731 540.817 839.906 540.257 838.807 539.715C837.724 539.183 836.536 538.824 835.242 538.637C833.998 538.423 832.777 538.362 831.581 538.455C830.401 538.558 829.253 538.791 828.138 539.155C827.038 539.51 825.987 539.977 824.985 540.555L811.673 548.241L805.804 544.853ZM845.529 568.628C842.829 567.07 841.124 565.394 840.413 563.602C839.718 561.801 839.903 560.004 840.97 558.212C842.054 556.43 843.904 554.773 846.523 553.242C849.223 551.702 852.125 550.634 855.229 550.036C858.365 549.439 861.485 549.355 864.589 549.784C867.709 550.204 870.594 551.18 873.245 552.71C876.22 554.428 877.982 556.313 878.532 558.366C879.114 560.42 878.427 562.375 876.471 564.232L869.075 561.782C870.028 560.709 870.368 559.645 870.093 558.59C869.834 557.526 869.034 556.607 867.692 555.832C866.173 554.955 864.556 554.442 862.843 554.292C861.145 554.134 859.432 554.283 857.702 554.74C855.972 555.198 854.307 555.888 852.707 556.812C850.217 558.25 848.762 559.734 848.342 561.264C847.922 562.795 848.811 564.195 851.009 565.464C852.561 566.36 854.137 566.86 855.738 566.962C857.354 567.074 859.06 566.874 860.854 566.36L865.486 570.574C862.01 571.648 858.543 572.016 855.083 571.68C851.64 571.335 848.455 570.318 845.529 568.628ZM872.908 584.436C870.289 582.924 868.592 581.262 867.816 579.452C867.04 577.641 867.145 575.826 868.131 574.006C869.15 572.186 871.009 570.496 873.708 568.938C876.457 567.351 879.415 566.278 882.583 565.718C885.752 565.158 888.896 565.106 892.016 565.564C895.136 566.021 897.981 566.992 900.552 568.476C903.187 569.997 904.892 571.663 905.668 573.474C906.444 575.284 906.331 577.104 905.329 578.934C904.343 580.754 902.5 582.443 899.8 584.002C897.084 585.57 894.134 586.638 890.949 587.208C887.797 587.777 884.653 587.838 881.517 587.39C878.397 586.932 875.527 585.948 872.908 584.436ZM878.388 581.272C880.716 582.616 883.222 583.166 885.906 582.924C888.589 582.681 891.159 581.85 893.617 580.432C896.155 578.966 897.602 577.468 897.957 575.938C898.329 574.398 897.367 572.965 895.072 571.64C893.503 570.734 891.855 570.193 890.125 570.016C888.427 569.838 886.706 569.974 884.96 570.422C883.23 570.86 881.541 571.556 879.892 572.508C877.354 573.973 875.899 575.476 875.527 577.016C875.188 578.556 876.141 579.974 878.388 581.272ZM901.821 601.128C899.412 599.738 897.917 598.174 897.335 596.438C896.753 594.702 897.011 592.948 898.111 591.174C899.21 589.401 901.069 587.758 903.688 586.246C906.339 584.716 909.192 583.638 912.248 583.012C915.335 582.387 918.391 582.256 921.414 582.62C924.453 582.975 927.209 583.866 929.682 585.294C932.172 586.732 933.651 588.286 934.12 589.956C934.621 591.627 934.265 593.316 933.053 595.024C931.841 596.732 929.917 598.347 927.282 599.868C924.679 601.371 921.891 602.477 918.916 603.186C915.958 603.886 913.007 604.087 910.065 603.788C907.123 603.49 904.375 602.603 901.821 601.128ZM907.956 598.622C909.524 599.528 911.14 600.05 912.805 600.19C914.503 600.33 916.216 600.153 917.946 599.658C919.692 599.173 921.414 598.44 923.111 597.46C924.825 596.471 926.094 595.477 926.918 594.478C927.775 593.48 928.09 592.504 927.864 591.552C927.654 590.591 926.805 589.681 925.318 588.822C923.75 587.917 922.068 587.394 920.274 587.254C918.496 587.105 916.709 587.268 914.915 587.744C913.137 588.211 911.455 588.902 909.871 589.816C908.271 590.74 907.05 591.716 906.21 592.742C905.401 593.769 905.11 594.786 905.337 595.794C905.563 596.802 906.436 597.745 907.956 598.622ZM910.017 605.02L928.397 594.408L927.67 593.988L944.207 584.44L950.1 587.842L915.182 608.002L910.017 605.02ZM933.159 619.222C930.508 617.691 928.754 616.016 927.897 614.196C927.04 612.376 927.065 610.551 927.97 608.722C928.891 606.902 930.678 605.226 933.329 603.696C936.19 602.044 939.221 600.928 942.422 600.35C945.639 599.762 948.808 599.696 951.928 600.154C955.048 600.611 957.893 601.582 960.463 603.066C963.179 604.634 964.844 606.332 965.458 608.162C966.105 609.991 965.733 611.839 964.343 613.706C962.953 615.572 960.576 617.346 957.214 619.026L951.418 615.68L953.552 614.448C956.381 612.796 957.957 611.307 958.281 609.982C958.604 608.656 957.707 607.382 955.589 606.16C953.197 604.778 950.675 604.181 948.024 604.368C945.389 604.545 942.648 605.455 939.803 607.098C937.152 608.628 935.681 610.15 935.39 611.662C935.099 613.174 936.069 614.574 938.3 615.862C939.739 616.692 941.29 617.224 942.956 617.458C944.653 617.691 946.391 617.621 948.169 617.248L952.194 621.588C948.832 622.372 945.445 622.535 942.034 622.078C938.639 621.63 935.681 620.678 933.159 619.222ZM936.336 606.972L940.749 604.424L958.766 614.826L954.352 617.374L936.336 606.972Z" fill="#060606"/>
<path d="M100.957 268.902L216.856 321.038L227.483 387.731L100.957 268.902Z" fill="#060606" stroke="#060606" stroke-width="4" stroke-linecap="round" stroke-linejoin="round"/>
<path d="M310.825 235.462L216.859 321.04L227.487 387.732L310.825 235.462Z" fill="white" stroke="#060606" stroke-width="4" stroke-linecap="round" stroke-linejoin="round"/>
<path d="M310.825 235.462L216.859 321.04L227.487 387.732L310.825 235.462Z" fill="#B0F127" stroke="#060606" stroke-width="4" stroke-linecap="round" stroke-linejoin="round"/>
<path d="M100.957 268.896L197.046 196.714L310.822 235.454L216.856 321.032L100.957 268.896Z" fill="white" stroke="#060606" stroke-width="4" stroke-linecap="round" stroke-linejoin="round"/>
<path d="M100.957 268.896L197.046 196.714L310.822 235.454L216.856 321.032L100.957 268.896Z" fill="#060606" stroke="#060606" stroke-width="4" stroke-linecap="round" stroke-linejoin="round"/>
<path d="M179.35 85.6562L212.4 293.06L306.252 206.772L179.35 85.6562Z" fill="white" stroke="#060606" stroke-width="4" stroke-linecap="round" stroke-linejoin="round"/>
<path d="M179.35 85.6562L212.399 293.06L306.252 206.772L179.35 85.6562Z" fill="#B0F127" stroke="#060606" stroke-width="4" stroke-linecap="round" stroke-linejoin="round"/>
<path d="M179.348 85.655L212.398 293.058L96.3862 240.213L179.348 85.655Z" fill="#547907" stroke="#060606" stroke-width="4" stroke-linecap="round" stroke-linejoin="round"/>
<path d="M1394.87 670.335L1380.82 805.217L1453.78 767.084L1394.87 670.335Z" fill="#B0F127" stroke="#060606" stroke-width="4" stroke-linecap="round" stroke-linejoin="round"/>
<path d="M1394.87 670.333L1380.82 805.215L1317.29 752.867L1394.87 670.333Z" fill="#547907" stroke="#060606" stroke-width="4" stroke-linecap="round" stroke-linejoin="round"/>
<rect width="149.306" height="149.306" rx="74.6532" transform="matrix(0.866025 0.5 -0.866025 0.5 473.595 432.453)" fill="#B0F127"/>
<path d="M447.784 520.248L484.839 498.855L471.144 496.946L479.518 492.111L493.119 494.074L500.863 498.546L455.528 524.72L447.784 520.248Z" fill="#060606"/>
<path d="M606.065 611.56L612.676 607.742L649.353 608.96C652.208 609.057 654.527 608.93 656.311 608.579C658.095 608.227 659.543 607.73 660.655 607.088C662.167 606.216 663.184 605.252 663.709 604.198C664.255 603.132 664.297 602.065 663.835 600.999C663.394 599.945 662.429 598.988 660.939 598.127C659.365 597.218 657.602 596.625 655.65 596.346C653.74 596.067 651.851 596.079 649.983 596.382C648.115 596.685 646.509 597.249 645.166 598.073L637.358 593.565C640.381 591.82 643.686 590.687 647.275 590.166C650.885 589.657 654.495 589.73 658.105 590.384C661.736 591.05 665.115 592.286 668.243 594.092C671.139 595.764 673.091 597.642 674.098 599.727C675.127 601.799 675.158 603.877 674.193 605.961C673.248 608.033 671.296 609.924 668.337 611.632C666.175 612.88 664.066 613.759 662.009 614.268C659.952 614.777 657.717 615.049 655.303 615.086C652.911 615.134 650.098 615.098 646.866 614.977L620.924 614.068L622.121 612.577L644.41 625.446L637.264 629.572L606.065 611.56Z" fill="#060606"/>
<path d="M792.14 720.047C789.873 718.738 788.173 717.248 787.04 715.576C785.906 713.904 785.403 712.171 785.529 710.377C785.675 708.596 786.526 706.881 788.079 705.233L797.397 708.323C796.117 709.668 795.676 711.026 796.075 712.395C796.516 713.764 797.586 714.927 799.286 715.885C800.777 716.745 802.456 717.315 804.324 717.593C806.192 717.872 808.049 717.866 809.896 717.575C811.764 717.272 813.433 716.697 814.902 715.848C817.147 714.552 818.302 713.049 818.365 711.341C818.428 709.632 817.315 708.117 815.028 706.797C814.335 706.397 813.558 706.057 812.698 705.779C811.858 705.512 810.966 705.3 810.022 705.143L812.541 699.69L840.812 700.962L839.647 702.398L818.081 689.947L825.228 685.821L853.027 701.871L845.849 706.015L821.828 705.742L824 704.415C826.561 706.112 828.135 707.905 828.723 709.796C829.331 711.698 829.09 713.558 827.998 715.376C826.928 717.206 825.134 718.848 822.615 720.302C819.761 721.95 816.497 723.022 812.824 723.519C809.172 724.028 805.509 723.985 801.836 723.392C798.206 722.798 794.973 721.683 792.14 720.047Z" fill="#060606"/>
<path d="M332.297 593.396L339.79 589.07L319.704 577.474L326.788 573.384L372.06 564.005L380.717 569.004L335.446 578.383L346.874 584.981L358.68 578.164L366.361 582.599L354.555 589.416L358.806 591.869L351.722 595.959L347.472 593.505L339.979 597.831L332.297 593.396Z" fill="#060606"/>
<path d="M498.974 690.718C496.666 689.385 494.987 687.871 493.937 686.174C492.909 684.466 492.51 682.708 492.741 680.903C492.993 679.11 493.916 677.389 495.511 675.741L504.767 678.831C503.844 679.703 503.329 680.618 503.224 681.575C503.14 682.545 503.382 683.472 503.949 684.356C504.536 685.253 505.397 686.029 506.53 686.683C507.999 687.531 509.699 688.101 511.63 688.392C513.561 688.682 515.482 688.689 517.392 688.41C519.322 688.119 521.023 687.549 522.492 686.701C523.961 685.853 524.926 684.871 525.388 683.757C525.892 682.642 525.881 681.533 525.357 680.43C524.853 679.316 523.877 678.34 522.429 677.504C520.687 676.498 518.924 675.844 517.14 675.541C515.377 675.25 513.834 675.135 512.512 675.196L508.104 670.252L533.479 657.201L558.098 671.415L550.983 675.523L530.425 663.654L535.935 663.744L518.242 672.796L518.556 671.015C520.802 671.076 522.964 671.403 525.042 671.996C527.12 672.59 528.883 673.305 530.331 674.141C533.164 675.777 535.022 677.601 535.903 679.612C536.827 681.624 536.795 683.629 535.809 685.629C534.843 687.64 532.944 689.464 530.11 691.1C527.277 692.736 523.971 693.796 520.193 694.281C516.437 694.753 512.669 694.687 508.891 694.081C505.134 693.487 501.829 692.366 498.974 690.718Z" fill="#060606"/>
<path d="M672.305 790.794C669.367 789.097 667.415 787.171 666.449 785.014C665.505 782.845 665.557 780.657 666.607 778.452C667.677 776.259 669.766 774.265 672.872 772.472L687.322 764.129C690.617 762.226 694.196 760.948 698.058 760.294C701.941 759.651 705.792 759.633 709.612 760.239C713.453 760.857 716.968 762.087 720.159 763.929C722.551 765.31 724.346 766.867 725.542 768.6C726.738 770.333 727.211 772.157 726.959 774.071L717.64 773.89C717.892 772.751 717.692 771.618 717.042 770.491C716.433 769.364 715.394 768.376 713.925 767.528C712.036 766.437 709.927 765.741 707.597 765.438C705.288 765.123 703.001 765.147 700.734 765.51C698.488 765.886 696.536 766.552 694.878 767.51L686.567 772.308L686.724 770.727C689.725 770.497 692.685 770.654 695.602 771.2C698.52 771.745 701.08 772.654 703.284 773.926C706.096 775.55 707.943 777.38 708.825 779.415C709.748 781.451 709.717 783.481 708.73 785.504C707.765 787.54 705.876 789.37 703.064 790.994C700.23 792.63 696.945 793.702 693.21 794.211C689.516 794.72 685.801 794.683 682.065 794.102C678.371 793.52 675.118 792.417 672.305 790.794ZM678.633 787.14C680.27 788.085 682.159 788.716 684.3 789.031C686.441 789.346 688.582 789.346 690.722 789.031C692.863 788.716 694.752 788.085 696.389 787.14C698.026 786.195 699.118 785.104 699.663 783.868C700.23 782.645 700.241 781.415 699.695 780.179C699.149 778.943 698.058 777.852 696.421 776.907C694.784 775.962 692.884 775.326 690.722 774.998C688.582 774.683 686.441 774.683 684.3 774.998C682.159 775.313 680.27 775.944 678.633 776.889C677.017 777.822 675.936 778.906 675.39 780.142C674.845 781.378 674.834 782.62 675.359 783.868C675.905 785.104 676.996 786.195 678.633 787.14Z" fill="#060606"/>
<path d="M197.052 655.132L250.824 642.117L231.021 630.684L238.199 626.54L266.124 642.663L258.946 646.807L205.237 659.857L197.052 655.132Z" fill="#060606"/>
<path d="M378.445 760.95C375.444 759.217 373.387 757.327 372.274 755.279C371.162 753.231 371.026 751.201 371.865 749.19C372.705 747.178 374.52 745.367 377.312 743.755C379.809 742.313 382.706 741.307 386.001 740.738C389.296 740.168 392.696 740.156 396.201 740.701L393.62 742.01C393.2 740.241 393.368 738.581 394.123 737.03C394.921 735.479 396.4 734.079 398.562 732.831C401.165 731.328 404.03 730.377 407.157 729.977C410.305 729.589 413.474 729.711 416.665 730.341C419.876 730.959 422.877 732.074 425.669 733.685C428.46 735.297 430.391 737.03 431.461 738.884C432.574 740.738 432.784 742.567 432.091 744.373C431.419 746.191 429.782 747.851 427.18 749.353C425.018 750.601 422.615 751.456 419.97 751.916C417.347 752.389 414.419 752.492 411.187 752.225L413.611 750.789C414.555 752.764 414.524 754.709 413.516 756.624C412.551 758.538 410.819 760.217 408.322 761.659C405.53 763.27 402.382 764.312 398.877 764.785C395.393 765.27 391.867 765.185 388.299 764.531C384.752 763.888 381.467 762.695 378.445 760.95ZM385.591 756.824C387.816 758.108 390.23 758.799 392.832 758.896C395.456 759.005 397.943 758.381 400.294 757.024C402.644 755.667 403.736 754.237 403.568 752.734C403.421 751.219 402.225 749.814 399.979 748.517C397.754 747.233 395.341 746.554 392.738 746.481C390.156 746.397 387.69 747.033 385.34 748.39C382.989 749.747 381.887 751.171 382.034 752.661C382.181 754.152 383.367 755.539 385.591 756.824ZM407.188 744.355C409.056 745.433 411.029 746.039 413.107 746.172C415.227 746.306 417.242 745.821 419.152 744.718C421.062 743.616 421.891 742.458 421.639 741.247C421.429 740.035 420.39 738.89 418.522 737.811C416.675 736.745 414.692 736.145 412.572 736.012C410.494 735.878 408.5 736.363 406.59 737.466C404.68 738.569 403.83 739.726 404.04 740.938C404.292 742.149 405.341 743.288 407.188 744.355Z" fill="#060606"/>
<path d="M597.437 832.931C600.396 834.64 602.359 836.585 603.324 838.766C604.311 840.935 604.248 843.128 603.135 845.346C602.065 847.563 599.924 849.599 596.713 851.453L582.892 859.432C579.471 861.408 575.788 862.735 571.842 863.413C567.938 864.092 564.055 864.116 560.193 863.486C556.331 862.856 552.742 861.583 549.426 859.669C547.138 858.348 545.365 856.876 544.106 855.252C542.867 853.616 542.259 851.859 542.28 849.981L553.047 850.053C552.921 851.071 553.152 852.065 553.739 853.034C554.369 854.004 555.303 854.846 556.541 855.561C558.304 856.579 560.256 857.233 562.397 857.524C564.559 857.803 566.668 857.772 568.725 857.433C570.803 857.082 572.608 856.464 574.14 855.579L581.664 851.235L581.507 852.889C578.715 853.022 575.976 852.81 573.29 852.253C570.624 851.683 568.284 850.817 566.269 849.654C563.436 848.018 561.568 846.188 560.665 844.164C559.784 842.153 559.826 840.141 560.791 838.13C561.799 836.118 563.719 834.294 566.553 832.659C569.386 831.023 572.66 829.956 576.375 829.46C580.111 828.951 583.837 828.993 587.551 829.587C591.308 830.181 594.604 831.295 597.437 832.931ZM590.196 837.112C588.727 836.264 587.027 835.694 585.096 835.403C583.165 835.112 581.234 835.112 579.303 835.403C577.393 835.682 575.704 836.245 574.234 837.094C572.765 837.942 571.768 838.917 571.244 840.02C570.74 841.135 570.729 842.244 571.212 843.346C571.716 844.461 572.702 845.443 574.171 846.291C575.641 847.139 577.341 847.709 579.272 848C581.203 848.29 583.133 848.29 585.064 848C587.016 847.721 588.727 847.157 590.196 846.309C591.623 845.485 592.578 844.522 593.061 843.419C593.565 842.304 593.575 841.183 593.092 840.056C592.631 838.942 591.665 837.96 590.196 837.112Z" fill="#060606"/>
<path d="M82.1436 728.616L89.9198 724.126L97.6959 728.616L89.9198 733.105L82.1436 728.616Z" fill="#060606"/>
<path d="M224.776 836.726C221.564 834.872 219.413 832.842 218.322 830.637C217.251 828.419 217.251 826.202 218.322 823.984C219.413 821.779 221.564 819.749 224.776 817.895L239.383 809.461C242.595 807.607 246.11 806.365 249.93 805.735C253.771 805.117 257.601 805.123 261.421 805.753C265.262 806.371 268.788 807.607 271.999 809.461C275.21 811.315 277.341 813.345 278.39 815.55C279.482 817.756 279.492 819.967 278.422 822.185C277.351 824.402 275.21 826.438 271.999 828.292L257.391 836.726C254.18 838.58 250.654 839.816 246.813 840.434C242.972 841.052 239.132 841.052 235.291 840.434C231.492 839.816 227.987 838.58 224.776 836.726ZM231.985 832.563C233.58 833.484 235.406 834.102 237.463 834.417C239.541 834.72 241.598 834.72 243.634 834.417C245.69 834.102 247.516 833.484 249.111 832.563L264.821 823.493C266.437 822.56 267.508 821.506 268.032 820.331C268.578 819.143 268.578 817.956 268.032 816.768C267.508 815.568 266.448 814.508 264.853 813.587C263.258 812.666 261.421 812.054 259.343 811.751C257.286 811.436 255.23 811.436 253.173 811.751C251.137 812.054 249.311 812.672 247.695 813.605L231.985 822.675C230.39 823.596 229.32 824.651 228.774 825.838C228.249 827.013 228.249 828.201 228.774 829.401C229.32 830.588 230.39 831.642 231.985 832.563Z" fill="#060606"/>
<path d="M451.341 938.389L414.454 917.092M414.454 917.092L449.865 917.092M414.454 917.092L414.454 937.537" stroke="#060606" stroke-width="6.19244" stroke-linecap="square"/>
</g>
</svg>
