<svg width="1284" height="754" viewBox="0 0 1284 754" fill="none" xmlns="http://www.w3.org/2000/svg">
<rect width="1284" height="754" fill="#141414"/>
<mask id="mask0_3759_38837" style="mask-type:alpha" maskUnits="userSpaceOnUse" x="0" y="0" width="1284" height="754">
<rect x="0.851438" y="0.851438" width="1282.3" height="752.297" fill="#141414" stroke="#2F2F2F" stroke-width="1.70288"/>
</mask>
<g mask="url(#mask0_3759_38837)">
<g opacity="0.1">
<path d="M-376.262 286.024L798.96 964.203" stroke="white" stroke-linejoin="round"/>
<path d="M-204.277 186.779L970.945 864.958" stroke="white" stroke-linejoin="round"/>
<path d="M-32.2939 87.5332L1142.93 765.712" stroke="white" stroke-linejoin="round"/>
<path d="M139.689 -11.7119L1314.91 666.467" stroke="white" stroke-linejoin="round"/>
<path d="M311.674 -110.957L1486.9 567.222" stroke="white" stroke-linejoin="round"/>
<path d="M483.657 -210.203L1658.88 467.975" stroke="white" stroke-linejoin="round"/>
<path d="M798.961 -210.203L-376.261 467.975" stroke="white" stroke-linejoin="round"/>
<path d="M970.944 -110.957L-204.278 567.222" stroke="white" stroke-linejoin="round"/>
<path d="M1142.93 -11.7119L-32.2934 666.467" stroke="white" stroke-linejoin="round"/>
<path d="M1314.91 87.5332L139.69 765.712" stroke="white" stroke-linejoin="round"/>
<path d="M1486.9 186.779L311.673 864.958" stroke="white" stroke-linejoin="round"/>
<path d="M1658.88 286.024L483.657 964.203" stroke="white" stroke-linejoin="round"/>
</g>
<rect width="140.739" height="187.582" rx="1.10642" transform="matrix(-0.866133 0.499814 2.20414e-08 1 768.74 443.306)" fill="#060606" stroke="#060606" stroke-width="3.40575" stroke-linejoin="round"/>
<rect width="140.739" height="187.582" rx="1.10642" transform="matrix(-0.866133 -0.499814 -2.20414e-08 1 646.847 513.646)" fill="white" stroke="#060606" stroke-width="3.40575" stroke-linejoin="round"/>
<rect width="140.739" height="140.739" rx="1.10642" transform="matrix(-0.866133 -0.499814 -0.866133 0.499814 768.74 443.306)" fill="#B0F127" stroke="#060606" stroke-width="3.40575" stroke-linejoin="round"/>
<rect width="140.739" height="187.582" rx="1.10642" transform="matrix(-0.866133 0.499814 2.20414e-08 1 887.092 476.496)" fill="#060606" stroke="#060606" stroke-width="3.40575" stroke-linejoin="round"/>
<rect width="140.739" height="187.582" rx="1.10642" transform="matrix(-0.866133 -0.499814 -2.20414e-08 1 765.198 546.836)" fill="white" stroke="#060606" stroke-width="3.40575" stroke-linejoin="round"/>
<rect width="140.739" height="140.739" rx="1.10642" transform="matrix(-0.866133 -0.499814 -0.866133 0.499814 887.092 476.496)" fill="#B0F127" stroke="#060606" stroke-width="3.40575" stroke-linejoin="round"/>
<rect width="140.739" height="187.582" rx="1.10642" transform="matrix(-0.866133 0.499814 2.20414e-08 1 627.402 496.066)" fill="#060606" stroke="#060606" stroke-width="3.40575" stroke-linejoin="round"/>
<rect width="140.739" height="187.582" rx="1.10642" transform="matrix(-0.866133 -0.499814 -2.20414e-08 1 505.509 566.406)" fill="white" stroke="#060606" stroke-width="3.40575" stroke-linejoin="round"/>
<rect width="140.739" height="140.739" rx="1.10642" transform="matrix(-0.866133 -0.499814 -0.866133 0.499814 627.402 496.066)" fill="#B0F127" stroke="#060606" stroke-width="3.40575" stroke-linejoin="round"/>
<rect width="140.739" height="187.582" rx="1.10642" transform="matrix(-0.866133 0.499814 2.20414e-08 1 769.592 585.935)" fill="#060606" stroke="#060606" stroke-width="3.40575" stroke-linejoin="round"/>
<rect width="140.739" height="187.582" rx="1.10642" transform="matrix(-0.866133 -0.499814 -2.20414e-08 1 647.698 656.274)" fill="white" stroke="#060606" stroke-width="3.40575" stroke-linejoin="round"/>
<rect width="140.739" height="140.739" rx="1.10642" transform="matrix(-0.866133 -0.499814 -0.866133 0.499814 769.592 585.935)" fill="#B0F127" stroke="#060606" stroke-width="3.40575" stroke-linejoin="round"/>
<rect width="140.739" height="217.86" rx="1.10642" transform="matrix(-0.866133 0.499814 2.20414e-08 1 491.173 543.611)" fill="#060606" stroke="#060606" stroke-width="3.40575" stroke-linejoin="round"/>
<rect width="140.739" height="217.86" rx="1.10642" transform="matrix(-0.866133 -0.499814 -2.20414e-08 1 369.279 613.951)" fill="white" stroke="#060606" stroke-width="3.40575" stroke-linejoin="round"/>
<rect width="140.739" height="140.739" rx="1.10642" transform="matrix(-0.866133 -0.499814 -0.866133 0.499814 491.173 543.611)" fill="#B0F127" stroke="#060606" stroke-width="3.40575" stroke-linejoin="round"/>
<rect width="140.739" height="187.582" rx="1.10642" transform="matrix(-0.866133 0.499814 2.20414e-08 1 626.551 660.198)" fill="#060606" stroke="#060606" stroke-width="3.40575" stroke-linejoin="round"/>
<rect width="140.739" height="187.582" rx="1.10642" transform="matrix(-0.866133 -0.499814 -2.20414e-08 1 504.657 730.54)" fill="white" stroke="#060606" stroke-width="3.40575" stroke-linejoin="round"/>
<rect width="140.739" height="140.739" rx="1.10642" transform="matrix(-0.866133 -0.499814 -0.866133 0.499814 626.551 660.198)" fill="#B0F127" stroke="#060606" stroke-width="3.40575" stroke-linejoin="round"/>
<rect width="140.739" height="238.284" rx="1.10642" transform="matrix(-0.866133 0.499814 2.20414e-08 1 1035.25 520.228)" fill="white" stroke="#060606" stroke-width="3.40575" stroke-linejoin="round"/>
<rect width="140.739" height="238.284" rx="1.10642" transform="matrix(-0.866133 -0.499814 -2.20414e-08 1 913.348 590.574)" fill="white" stroke="#060606" stroke-width="3.40575" stroke-linejoin="round"/>
<rect width="140.739" height="140.739" rx="1.10642" transform="matrix(-0.866133 -0.499814 -0.866133 0.499814 1035.24 519.672)" fill="#B0F127" stroke="#060606" stroke-width="3.40575" stroke-linejoin="round"/>
<rect width="140.739" height="187.582" rx="1.10642" transform="matrix(-0.866133 0.499814 2.20414e-08 1 912.633 635.41)" fill="white" stroke="#060606" stroke-width="3.40575" stroke-linejoin="round"/>
<rect width="140.739" height="187.582" rx="1.10642" transform="matrix(-0.866133 -0.499814 -2.20414e-08 1 790.739 705.754)" fill="white" stroke="#060606" stroke-width="3.40575" stroke-linejoin="round"/>
<rect width="140.739" height="140.739" rx="1.10642" transform="matrix(-0.866133 -0.499814 -0.866133 0.499814 912.633 635.41)" fill="#B0F127" stroke="#060606" stroke-width="3.40575" stroke-linejoin="round"/>
<rect width="140.739" height="187.582" rx="1.10642" transform="matrix(-0.866133 0.499814 2.20414e-08 1 768.176 750.072)" fill="#060606" stroke="#060606" stroke-width="3.40575" stroke-linejoin="round"/>
<rect width="140.739" height="187.582" rx="1.10642" transform="matrix(-0.866133 -0.499814 -2.20414e-08 1 646.282 820.412)" fill="white" stroke="#060606" stroke-width="3.40575" stroke-linejoin="round"/>
<rect width="140.739" height="140.739" rx="1.10642" transform="matrix(-0.866133 -0.499814 -0.866133 0.499814 768.176 750.072)" fill="#B0F127" stroke="#060606" stroke-width="3.40575" stroke-linejoin="round"/>
<path d="M231.768 235.103L312.187 287.85V338.94L231.768 235.103Z" fill="#060606" stroke="#060606" stroke-width="2.55431" stroke-linecap="round" stroke-linejoin="round"/>
<path d="M392.617 235.103L312.188 287.85V338.94L392.617 235.103Z" fill="white" stroke="#060606" stroke-width="2.55431" stroke-linecap="round" stroke-linejoin="round"/>
<path d="M392.617 235.103L312.188 287.85V338.94L392.617 235.103Z" fill="#B0F127" stroke="#060606" stroke-width="2.55431" stroke-linecap="round" stroke-linejoin="round"/>
<path d="M231.768 235.1L312.187 192.612L392.616 235.1L312.187 287.847L231.768 235.1Z" fill="white" stroke="#060606" stroke-width="2.55431" stroke-linecap="round" stroke-linejoin="round"/>
<path d="M231.768 235.1L312.187 192.612L392.616 235.1L312.187 287.847L231.768 235.1Z" fill="#060606" stroke="#060606" stroke-width="2.55431" stroke-linecap="round" stroke-linejoin="round"/>
<path d="M312.188 107.531V266.414L392.617 213.123L312.188 107.531Z" fill="white" stroke="#060606" stroke-width="2.55431" stroke-linecap="round" stroke-linejoin="round"/>
<path d="M312.188 107.531V266.414L392.617 213.123L312.188 107.531Z" fill="#B0F127" stroke="#060606" stroke-width="2.55431" stroke-linecap="round" stroke-linejoin="round"/>
<path d="M312.187 107.531V266.414L231.768 213.123L312.187 107.531Z" fill="#547907" stroke="#060606" stroke-width="2.55431" stroke-linecap="round" stroke-linejoin="round"/>
<path d="M1013.81 306.17L987.241 405.267L1046.32 385.463L1013.81 306.17Z" fill="#B0F127" stroke="#060606" stroke-width="2.55431" stroke-linecap="round" stroke-linejoin="round"/>
<path d="M1013.81 306.17L987.241 405.266L945.993 358.595L1013.81 306.17Z" fill="#547907" stroke="#060606" stroke-width="2.55431" stroke-linecap="round" stroke-linejoin="round"/>
<mask id="path-52-inside-1_3759_38837" fill="white">
<path fill-rule="evenodd" clip-rule="evenodd" d="M481.658 230.099C477.585 227.749 477.585 223.938 481.658 221.588L541.34 187.147C545.413 184.797 552.016 184.797 556.089 187.147L557.032 187.692C557.549 187.91 558.077 188.173 558.613 188.483L794.059 324.35C800.576 328.111 805.858 337.258 805.858 344.782L805.858 447.539C805.873 447.809 805.881 448.086 805.881 448.368V541.345C805.881 561.095 792.013 585.107 774.907 594.979L726.408 622.966C709.302 632.837 695.435 624.829 695.435 605.079V512.103C695.435 504.982 700.166 496.408 706.197 492.321L558.613 407.156C552.097 403.395 546.814 394.247 546.814 386.724L546.814 267.698L481.658 230.099Z"/>
</mask>
<path fill-rule="evenodd" clip-rule="evenodd" d="M481.658 230.099C477.585 227.749 477.585 223.938 481.658 221.588L541.34 187.147C545.413 184.797 552.016 184.797 556.089 187.147L557.032 187.692C557.549 187.91 558.077 188.173 558.613 188.483L794.059 324.35C800.576 328.111 805.858 337.258 805.858 344.782L805.858 447.539C805.873 447.809 805.881 448.086 805.881 448.368V541.345C805.881 561.095 792.013 585.107 774.907 594.979L726.408 622.966C709.302 632.837 695.435 624.829 695.435 605.079V512.103C695.435 504.982 700.166 496.408 706.197 492.321L558.613 407.156C552.097 403.395 546.814 394.247 546.814 386.724L546.814 267.698L481.658 230.099Z" fill="#71A407"/>
<path d="M481.658 221.588L479.956 218.638L479.956 218.638L481.658 221.588ZM481.658 230.099L479.956 233.049L479.956 233.049L481.658 230.099ZM541.34 187.147L539.638 184.198L539.638 184.198L541.34 187.147ZM556.089 187.147L554.387 190.097L554.387 190.097L556.089 187.147ZM557.032 187.692L555.33 190.641L555.512 190.747L555.707 190.829L557.032 187.692ZM558.613 188.483L556.911 191.433L556.911 191.433L558.613 188.483ZM794.059 324.35L795.761 321.4L795.761 321.4L794.059 324.35ZM805.858 344.782L809.264 344.782V344.782H805.858ZM805.858 447.539L802.453 447.539L802.453 447.632L802.458 447.724L805.858 447.539ZM774.907 594.979L776.61 597.928L776.61 597.928L774.907 594.979ZM726.408 622.966L724.706 620.016L726.408 622.966ZM706.197 492.321L708.108 495.141L712.61 492.09L707.899 489.371L706.197 492.321ZM558.613 407.156L556.911 410.105L556.911 410.105L558.613 407.156ZM546.814 386.724L543.408 386.724V386.724H546.814ZM546.814 267.698L550.22 267.698L550.22 265.731L548.516 264.748L546.814 267.698ZM479.956 218.638C477.299 220.171 475.198 222.657 475.198 225.843C475.198 229.03 477.299 231.516 479.956 233.049L483.36 227.149C482.676 226.754 482.321 226.387 482.154 226.15C482.072 226.034 482.038 225.953 482.023 225.909C482.009 225.868 482.009 225.849 482.009 225.843C482.009 225.838 482.009 225.819 482.023 225.777C482.038 225.734 482.072 225.652 482.154 225.537C482.321 225.299 482.676 224.933 483.36 224.538L479.956 218.638ZM539.638 184.198L479.956 218.638L483.36 224.538L543.042 190.097L539.638 184.198ZM557.791 184.198C555.115 182.654 551.823 181.979 548.715 181.979C545.606 181.979 542.314 182.654 539.638 184.198L543.042 190.097C544.439 189.291 546.485 188.791 548.715 188.791C550.944 188.791 552.99 189.291 554.387 190.097L557.791 184.198ZM558.734 184.742L557.791 184.198L554.387 190.097L555.33 190.641L558.734 184.742ZM560.315 185.533C559.666 185.158 559.013 184.831 558.357 184.554L555.707 190.829C556.086 190.989 556.488 191.189 556.911 191.433L560.315 185.533ZM795.761 321.4L560.315 185.533L556.911 191.433L792.357 327.3L795.761 321.4ZM809.264 344.782C809.264 340.282 807.707 335.53 805.352 331.452C802.997 327.374 799.659 323.65 795.761 321.4L792.357 327.3C794.975 328.811 797.538 331.541 799.453 334.858C801.369 338.175 802.453 341.759 802.453 344.782H809.264ZM809.264 447.539L809.264 344.782L802.453 344.782L802.453 447.539L809.264 447.539ZM802.458 447.724C802.469 447.931 802.475 448.146 802.475 448.368H809.286C809.286 448.026 809.277 447.687 809.259 447.354L802.458 447.724ZM802.475 448.368V541.345H809.286V448.368H802.475ZM802.475 541.345C802.475 550.481 799.245 560.838 793.859 570.163C788.474 579.488 781.118 587.462 773.205 592.029L776.61 597.928C785.802 592.624 793.933 583.656 799.758 573.569C805.583 563.483 809.286 551.958 809.286 541.345H802.475ZM773.205 592.029L724.706 620.016L728.11 625.916L776.61 597.928L773.205 592.029ZM724.706 620.016C716.774 624.593 710.39 624.595 706.21 622.181C702.03 619.767 698.841 614.237 698.841 605.079H692.029C692.029 615.67 695.774 624.02 702.804 628.079C709.833 632.139 718.937 631.209 728.11 625.916L724.706 620.016ZM698.841 605.079V512.103H692.029V605.079H698.841ZM698.841 512.103C698.841 509.246 699.808 505.882 701.543 502.707C703.275 499.538 705.627 496.821 708.108 495.141L704.287 489.502C700.737 491.907 697.707 495.521 695.566 499.441C693.427 503.355 692.029 507.839 692.029 512.103H698.841ZM556.911 410.105L704.495 495.271L707.899 489.371L560.315 404.206L556.911 410.105ZM543.408 386.724C543.408 391.224 544.965 395.976 547.321 400.054C549.676 404.132 553.013 407.856 556.911 410.105L560.315 404.206C557.697 402.695 555.135 399.964 553.219 396.648C551.304 393.331 550.22 389.747 550.22 386.724H543.408ZM543.408 267.698L543.408 386.724L550.22 386.724L550.22 267.698L543.408 267.698ZM479.956 233.049L545.112 270.648L548.516 264.748L483.36 227.149L479.956 233.049Z" fill="#060606" mask="url(#path-52-inside-1_3759_38837)"/>
<mask id="mask1_3759_38837" style="mask-type:alpha" maskUnits="userSpaceOnUse" x="478" y="186" width="328" height="440">
<mask id="path-54-inside-2_3759_38837" fill="white">
<path fill-rule="evenodd" clip-rule="evenodd" d="M481.484 235.927L546.812 273.625L546.812 386.732C546.812 394.256 552.095 403.403 558.611 407.164L706.192 492.327C700.165 496.416 695.438 504.986 695.438 512.103V603.463C695.438 623.213 709.305 631.222 726.411 621.35L774.91 593.363C792.016 583.492 805.883 559.479 805.883 539.729V448.369C805.883 448.056 805.874 447.752 805.856 447.455L805.856 344.79C805.856 337.267 800.574 328.119 794.057 324.358L558.611 188.491C554.472 186.103 550.831 186.462 548.725 188.97C547.853 189.241 547.033 189.589 546.297 190.015L481.484 227.415C477.411 229.766 477.411 233.576 481.484 235.927Z"/>
</mask>
<path fill-rule="evenodd" clip-rule="evenodd" d="M481.484 235.927L546.812 273.625L546.812 386.732C546.812 394.256 552.095 403.403 558.611 407.164L706.192 492.327C700.165 496.416 695.438 504.986 695.438 512.103V603.463C695.438 623.213 709.305 631.222 726.411 621.35L774.91 593.363C792.016 583.492 805.883 559.479 805.883 539.729V448.369C805.883 448.056 805.874 447.752 805.856 447.455L805.856 344.79C805.856 337.267 800.574 328.119 794.057 324.358L558.611 188.491C554.472 186.103 550.831 186.462 548.725 188.97C547.853 189.241 547.033 189.589 546.297 190.015L481.484 227.415C477.411 229.766 477.411 233.576 481.484 235.927Z" fill="#141414"/>
<path d="M546.812 273.625L550.218 273.625L550.218 271.658L548.514 270.675L546.812 273.625ZM481.484 235.927L479.782 238.876L479.782 238.876L481.484 235.927ZM546.812 386.732L543.406 386.732V386.732H546.812ZM558.611 407.164L556.909 410.114L556.909 410.114L558.611 407.164ZM706.192 492.327L708.104 495.146L712.602 492.094L707.894 489.377L706.192 492.327ZM726.411 621.35L724.709 618.4L726.411 621.35ZM774.91 593.363L776.613 596.313L776.613 596.313L774.91 593.363ZM805.856 447.455L802.451 447.455L802.451 447.557L802.457 447.66L805.856 447.455ZM805.856 344.79L809.262 344.79V344.79H805.856ZM794.057 324.358L795.759 321.409L795.759 321.409L794.057 324.358ZM558.611 188.491L560.313 185.541L558.611 188.491ZM548.725 188.97L549.736 192.222L550.69 191.925L551.333 191.16L548.725 188.97ZM546.297 190.015L544.594 187.065L544.594 187.065L546.297 190.015ZM481.484 227.415L479.782 224.466L479.782 224.466L481.484 227.415ZM548.514 270.675L483.187 232.977L479.782 238.876L545.11 276.575L548.514 270.675ZM550.218 386.732L550.218 273.625L543.406 273.625L543.406 386.732L550.218 386.732ZM560.313 404.214C557.695 402.703 555.133 399.973 553.217 396.656C551.302 393.339 550.218 389.755 550.218 386.732H543.406C543.406 391.232 544.963 395.984 547.319 400.062C549.674 404.14 553.011 407.864 556.909 410.114L560.313 404.214ZM707.894 489.377L560.313 404.214L556.909 410.114L704.489 495.277L707.894 489.377ZM698.844 512.103C698.844 509.248 699.81 505.886 701.544 502.712C703.274 499.544 705.624 496.828 708.104 495.146L704.28 489.509C700.732 491.916 697.706 495.529 695.566 499.447C693.429 503.36 692.032 507.841 692.032 512.103H698.844ZM698.844 603.463V512.103H692.032V603.463H698.844ZM724.709 618.4C716.777 622.978 710.393 622.98 706.213 620.566C702.033 618.151 698.844 612.622 698.844 603.463H692.032C692.032 614.055 695.777 622.404 702.807 626.464C709.836 630.524 718.94 629.594 728.113 624.3L724.709 618.4ZM773.208 590.413L724.709 618.4L728.113 624.3L776.613 596.313L773.208 590.413ZM802.478 539.729C802.478 548.866 799.248 559.222 793.862 568.547C788.477 577.873 781.121 585.847 773.208 590.413L776.613 596.313C785.805 591.008 793.936 582.04 799.761 571.954C805.586 561.867 809.289 550.343 809.289 539.729H802.478ZM802.478 448.369V539.729H809.289V448.369H802.478ZM802.457 447.66C802.471 447.886 802.478 448.123 802.478 448.369H809.289C809.289 447.99 809.278 447.617 809.256 447.249L802.457 447.66ZM802.451 344.79L802.451 447.455L809.262 447.455L809.262 344.79L802.451 344.79ZM792.355 327.308C794.973 328.819 797.536 331.55 799.451 334.866C801.367 338.183 802.451 341.767 802.451 344.79H809.262C809.262 340.29 807.705 335.538 805.35 331.46C802.995 327.382 799.657 323.658 795.759 321.409L792.355 327.308ZM556.909 191.441L792.355 327.308L795.759 321.409L560.313 185.541L556.909 191.441ZM551.333 191.16C551.977 190.393 553.585 189.523 556.909 191.441L560.313 185.541C555.359 182.682 549.684 182.531 546.117 186.78L551.333 191.16ZM547.999 192.964C548.489 192.681 549.072 192.429 549.736 192.222L547.713 185.718C546.633 186.054 545.577 186.497 544.594 187.065L547.999 192.964ZM483.187 230.365L547.999 192.964L544.594 187.065L479.782 224.466L483.187 230.365ZM483.187 232.977C482.502 232.582 482.147 232.215 481.98 231.978C481.899 231.862 481.864 231.78 481.849 231.737C481.836 231.696 481.835 231.676 481.835 231.671C481.835 231.666 481.836 231.646 481.849 231.605C481.864 231.562 481.899 231.48 481.98 231.364C482.147 231.127 482.502 230.76 483.187 230.365L479.782 224.466C477.126 225.999 475.024 228.484 475.024 231.671C475.024 234.858 477.126 237.343 479.782 238.876L483.187 232.977Z" fill="#060606" mask="url(#path-54-inside-2_3759_38837)"/>
</mask>
<g mask="url(#mask1_3759_38837)">
<path d="M695.439 407.698C695.439 400.174 700.722 391.027 707.239 387.266L817.386 323.704C823.903 319.944 829.185 322.994 829.185 330.518L829.185 541.577C829.185 561.327 815.318 585.34 798.212 595.211L726.413 636.644C709.307 646.515 695.439 638.507 695.439 618.757L695.439 407.698Z" fill="#141414"/>
</g>
<mask id="path-57-inside-3_3759_38837" fill="white">
<path fill-rule="evenodd" clip-rule="evenodd" d="M481.658 230.099C477.585 227.749 477.585 223.938 481.658 221.588L541.34 187.147C545.413 184.797 552.016 184.797 556.089 187.147L557.032 187.692C557.549 187.91 558.077 188.173 558.613 188.483L794.059 324.35C800.576 328.111 805.858 337.258 805.858 344.782L805.858 447.539C805.873 447.809 805.881 448.086 805.881 448.368V541.345C805.881 561.095 792.013 585.107 774.907 594.979L726.408 622.966C709.302 632.837 695.435 624.829 695.435 605.079V512.103C695.435 504.982 700.166 496.408 706.197 492.321L558.613 407.156C552.097 403.395 546.814 394.247 546.814 386.724L546.814 267.698L481.658 230.099Z"/>
</mask>
<path d="M481.658 221.588L479.956 218.638L479.956 218.638L481.658 221.588ZM481.658 230.099L479.956 233.049L479.956 233.049L481.658 230.099ZM541.34 187.147L539.638 184.198L539.638 184.198L541.34 187.147ZM556.089 187.147L554.387 190.097L554.387 190.097L556.089 187.147ZM557.032 187.692L555.33 190.641L555.512 190.747L555.707 190.829L557.032 187.692ZM558.613 188.483L556.911 191.433L556.911 191.433L558.613 188.483ZM794.059 324.35L795.761 321.4L795.761 321.4L794.059 324.35ZM805.858 344.782L809.264 344.782V344.782H805.858ZM805.858 447.539L802.453 447.539L802.453 447.632L802.458 447.724L805.858 447.539ZM774.907 594.979L776.61 597.928L776.61 597.928L774.907 594.979ZM726.408 622.966L724.706 620.016L726.408 622.966ZM706.197 492.321L708.108 495.141L712.61 492.09L707.899 489.371L706.197 492.321ZM558.613 407.156L556.911 410.105L556.911 410.105L558.613 407.156ZM546.814 386.724L543.408 386.724V386.724H546.814ZM546.814 267.698L550.22 267.698L550.22 265.731L548.516 264.748L546.814 267.698ZM479.956 218.638C477.299 220.171 475.198 222.657 475.198 225.843C475.198 229.03 477.299 231.516 479.956 233.049L483.36 227.149C482.676 226.754 482.321 226.387 482.154 226.15C482.072 226.034 482.038 225.953 482.023 225.909C482.009 225.868 482.009 225.849 482.009 225.843C482.009 225.838 482.009 225.819 482.023 225.777C482.038 225.734 482.072 225.652 482.154 225.537C482.321 225.299 482.676 224.933 483.36 224.538L479.956 218.638ZM539.638 184.198L479.956 218.638L483.36 224.538L543.042 190.097L539.638 184.198ZM557.791 184.198C555.115 182.654 551.823 181.979 548.715 181.979C545.606 181.979 542.314 182.654 539.638 184.198L543.042 190.097C544.439 189.291 546.485 188.791 548.715 188.791C550.944 188.791 552.99 189.291 554.387 190.097L557.791 184.198ZM558.734 184.742L557.791 184.198L554.387 190.097L555.33 190.641L558.734 184.742ZM560.315 185.533C559.666 185.158 559.013 184.831 558.357 184.554L555.707 190.829C556.086 190.989 556.488 191.189 556.911 191.433L560.315 185.533ZM795.761 321.4L560.315 185.533L556.911 191.433L792.357 327.3L795.761 321.4ZM809.264 344.782C809.264 340.282 807.707 335.53 805.352 331.452C802.997 327.374 799.659 323.65 795.761 321.4L792.357 327.3C794.975 328.811 797.538 331.541 799.453 334.858C801.369 338.175 802.453 341.759 802.453 344.782H809.264ZM809.264 447.539L809.264 344.782L802.453 344.782L802.453 447.539L809.264 447.539ZM802.458 447.724C802.469 447.931 802.475 448.146 802.475 448.368H809.286C809.286 448.026 809.277 447.687 809.259 447.354L802.458 447.724ZM802.475 448.368V541.345H809.286V448.368H802.475ZM802.475 541.345C802.475 550.481 799.245 560.838 793.859 570.163C788.474 579.488 781.118 587.462 773.205 592.029L776.61 597.928C785.802 592.624 793.933 583.656 799.758 573.569C805.583 563.483 809.286 551.958 809.286 541.345H802.475ZM773.205 592.029L724.706 620.016L728.11 625.916L776.61 597.928L773.205 592.029ZM724.706 620.016C716.774 624.593 710.39 624.595 706.21 622.181C702.03 619.767 698.841 614.237 698.841 605.079H692.029C692.029 615.67 695.774 624.02 702.804 628.079C709.833 632.139 718.937 631.209 728.11 625.916L724.706 620.016ZM698.841 605.079V512.103H692.029V605.079H698.841ZM698.841 512.103C698.841 509.246 699.808 505.882 701.543 502.707C703.275 499.538 705.627 496.821 708.108 495.141L704.287 489.502C700.737 491.907 697.707 495.521 695.566 499.441C693.427 503.355 692.029 507.839 692.029 512.103H698.841ZM556.911 410.105L704.495 495.271L707.899 489.371L560.315 404.206L556.911 410.105ZM543.408 386.724C543.408 391.224 544.965 395.976 547.321 400.054C549.676 404.132 553.013 407.856 556.911 410.105L560.315 404.206C557.697 402.695 555.135 399.964 553.219 396.648C551.304 393.331 550.22 389.747 550.22 386.724H543.408ZM543.408 267.698L543.408 386.724L550.22 386.724L550.22 267.698L543.408 267.698ZM479.956 233.049L545.112 270.648L548.516 264.748L483.36 227.149L479.956 233.049Z" fill="#060606" mask="url(#path-57-inside-3_3759_38837)"/>
<path d="M488.537 225.095L730.611 364.787C736.313 368.078 740.935 376.082 740.935 382.665L740.935 583.153C740.935 619.831 715.182 634.704 683.414 616.371L512.135 517.533C493.4 506.721 478.212 480.422 478.212 458.791L478.212 231.057C478.212 224.474 482.835 221.804 488.537 225.095Z" fill="#F4F4F4" stroke="#060606" stroke-width="3.40575"/>
<mask id="mask2_3759_38837" style="mask-type:alpha" maskUnits="userSpaceOnUse" x="476" y="221" width="267" height="406">
<path d="M488.535 225.09L730.58 364.834C736.281 368.126 740.903 376.131 740.903 382.714L740.903 583.202C740.903 619.88 715.153 634.747 683.388 616.408L512.131 517.532C493.398 506.717 478.212 480.414 478.212 458.783L478.212 231.05C478.212 224.466 482.834 221.798 488.535 225.09Z" fill="#B0F127" stroke="#060606" stroke-width="3.40575"/>
</mask>
<g mask="url(#mask2_3759_38837)">
<rect width="421.126" height="110.006" transform="matrix(0.866133 0.499814 -2.20414e-08 1 441.134 196.031)" fill="white"/>
</g>
<path d="M488.537 225.095L730.611 364.787C736.313 368.078 740.935 376.082 740.935 382.665L740.935 583.153C740.935 619.831 715.182 634.704 683.414 616.371L512.135 517.533C493.4 506.721 478.212 480.422 478.212 458.791L478.212 231.057C478.212 224.474 482.835 221.804 488.537 225.095Z" stroke="#060606" stroke-width="3.40575"/>
<ellipse rx="77.4164" ry="77.3876" transform="matrix(0.866133 0.499814 -2.20414e-08 1 599.958 434.347)" fill="#939393" stroke="#060606" stroke-width="3.40575"/>
<mask id="mask3_3759_38837" style="mask-type:alpha" maskUnits="userSpaceOnUse" x="531" y="345" width="138" height="178">
<ellipse rx="77.4164" ry="77.3876" transform="matrix(0.866133 0.499814 -2.20414e-08 1 599.958 434.347)" fill="#939393" stroke="#060606" stroke-width="3.40575"/>
</mask>
<g mask="url(#mask3_3759_38837)">
<rect width="421.126" height="110.266" transform="matrix(0.866133 0.499814 -2.20414e-08 1 446.312 199.184)" fill="#E7E7E7"/>
</g>
<ellipse rx="77.4164" ry="77.3876" transform="matrix(0.866133 0.499814 -2.20414e-08 1 599.958 434.347)" stroke="#060606" stroke-width="3.40575"/>
<path d="M651.89 464.319C651.89 497.418 628.641 510.835 599.962 494.285C571.282 477.735 548.034 437.486 548.034 404.388C548.034 371.289 571.282 357.872 599.962 374.422C628.641 390.972 651.89 431.221 651.89 464.319Z" fill="#060606" stroke="#060606" stroke-width="3.40575"/>
<path d="M651.891 464.323C651.891 494.958 630.373 507.377 603.827 492.058C577.282 476.74 555.764 439.487 555.764 408.852C555.764 378.217 577.282 365.799 603.827 381.117C630.373 396.435 651.891 433.688 651.891 464.323Z" fill="white" stroke="#060606" stroke-width="3.40575"/>
<rect x="1.47492" y="2.554" width="15.198" height="51.0368" rx="7.599" transform="matrix(0.866133 0.499814 -2.20414e-08 1 592.098 403.974)" fill="#060606" stroke="#060606" stroke-width="3.40575"/>
<path d="M532.942 139.206L533.285 227.299C533.285 230.356 535.303 233.414 539.339 235.731C543.849 238.002 548.836 239.17 553.888 239.137C558.94 239.104 563.912 237.871 568.391 235.541C572.427 233.186 574.407 230.091 574.388 227.033L574.064 138.979C574.064 123.616 578.329 112.279 585.925 107.874C593.521 103.468 605.553 105.291 618.918 112.925L641.649 125.895C677.25 146.233 707.445 197.96 707.597 238.864L707.92 326.956C707.92 330.014 709.957 333.071 713.993 335.388C719.847 338.416 726.511 339.52 733.031 338.54C736.579 338.132 740.01 337.022 743.122 335.274C744.127 334.702 745.066 334.021 745.92 333.242C746.883 332.451 747.667 331.464 748.218 330.348C748.77 329.231 749.076 328.01 749.118 326.767L748.795 238.712C748.681 211.956 739.695 181.876 723.436 154.056C707.178 126.237 685.36 103.582 662.115 90.2893L639.403 77.3004C627.786 70.3786 614.789 66.081 601.327 64.7103C588.763 63.502 576.132 66.1876 565.155 72.4011C554.333 78.8497 545.769 88.4721 540.633 99.955C535.212 112.317 532.586 125.718 532.942 139.206Z" fill="#060606" stroke="#060606" stroke-width="3.40575" stroke-linecap="round" stroke-linejoin="round"/>
</g>
</svg>
