<svg width="212" height="37" viewBox="0 0 212 37" fill="none" xmlns="http://www.w3.org/2000/svg">
<rect width="7.2032" height="13.9944" transform="matrix(0.866025 0.5 -0.866025 0.5 12.4668 13.3613)" fill="#B0F127"/>
<rect width="23.3547" height="7.2032" transform="matrix(0.866025 0.5 -0.866025 0.5 21.9082 7.4082)" fill="#B0F127"/>
<rect width="10.6625" height="7.2032" transform="matrix(0.866025 0.5 -0.866025 0.5 18.6074 16.8926)" fill="#B0F127"/>
<path d="M54.8108 28.2578V8.22668H66.8712V11.5791H58.1632V16.573H65.2019V19.9115H58.1632V28.2578H54.8108ZM69.6515 10.9531V7.87892H73.004V10.9531H69.6515ZM69.6515 28.2578V13.2345H73.004V28.2578H69.6515ZM87.5619 28.2578V21.0243C87.5619 20.5514 87.5295 20.0274 87.4646 19.4525C87.3997 18.8775 87.2466 18.3257 87.0055 17.7971C86.7737 17.2592 86.4213 16.8187 85.9483 16.4756C85.4846 16.1325 84.854 15.9609 84.0565 15.9609C83.6299 15.9609 83.208 16.0305 82.7906 16.1696C82.3733 16.3087 81.9931 16.5498 81.65 16.8929C81.3161 17.2268 81.0472 17.6905 80.8432 18.284C80.6392 18.8682 80.5371 19.6194 80.5371 20.5375L78.5479 19.6889C78.5479 18.4092 78.7937 17.25 79.2852 16.2113C79.786 15.1727 80.5186 14.3473 81.4831 13.7352C82.4475 13.1139 83.6346 12.8032 85.0441 12.8032C86.157 12.8032 87.0751 12.9887 87.7984 13.3597C88.5218 13.7306 89.0967 14.2036 89.5233 14.7785C89.9499 15.3535 90.2652 15.9656 90.4692 16.6147C90.6733 17.2639 90.8031 17.8806 90.8587 18.4648C90.9237 19.0398 90.9561 19.5081 90.9561 19.8698V28.2578H87.5619ZM77.143 28.2578V13.2345H80.1337V17.8945H80.5371V28.2578H77.143ZM98.7871 28.6751C97.7021 28.6751 96.784 28.4711 96.0328 28.0631C95.2816 27.6458 94.7113 27.094 94.3218 26.4077C93.9416 25.7215 93.7515 24.9657 93.7515 24.1403C93.7515 23.417 93.872 22.7678 94.1131 22.1928C94.3543 21.6086 94.7252 21.1078 95.226 20.6905C95.7268 20.2639 96.3759 19.9161 97.1735 19.6472C97.7762 19.4525 98.481 19.2763 99.2879 19.1186C100.104 18.961 100.985 18.8172 101.931 18.6874C102.886 18.5483 103.883 18.3999 104.922 18.2422L103.725 18.9239C103.735 17.8852 103.503 17.1201 103.03 16.6286C102.557 16.1371 101.759 15.8914 100.637 15.8914C99.9602 15.8914 99.3064 16.049 98.6758 16.3643C98.0452 16.6796 97.6047 17.2221 97.3543 17.9919L94.294 17.032C94.6649 15.7615 95.3697 14.7414 96.4084 13.9717C97.4563 13.202 98.8659 12.8172 100.637 12.8172C101.973 12.8172 103.146 13.0351 104.157 13.4709C105.177 13.9068 105.932 14.6209 106.424 15.6132C106.693 16.1418 106.855 16.6843 106.911 17.2407C106.966 17.7878 106.994 18.386 106.994 19.0351V28.2578H104.059V25.0028L104.546 25.5314C103.869 26.6164 103.076 27.4139 102.167 27.924C101.268 28.4247 100.141 28.6751 98.7871 28.6751ZM99.4548 26.0043C100.215 26.0043 100.864 25.8698 101.402 25.6009C101.94 25.332 102.367 25.0028 102.682 24.6133C103.007 24.2238 103.225 23.8575 103.336 23.5143C103.512 23.0877 103.609 22.6009 103.628 22.0537C103.656 21.4973 103.67 21.0475 103.67 20.7044L104.699 21.0104C103.688 21.1681 102.821 21.3072 102.098 21.4278C101.374 21.5483 100.753 21.6642 100.234 21.7755C99.7144 21.8775 99.2554 21.9934 98.8566 22.1233C98.4671 22.2624 98.1379 22.4247 97.869 22.6101C97.6 22.7956 97.3914 23.0089 97.243 23.25C97.1039 23.4911 97.0344 23.774 97.0344 24.0986C97.0344 24.4695 97.1271 24.7987 97.3126 25.0862C97.498 25.3644 97.767 25.587 98.1194 25.7539C98.481 25.9208 98.9262 26.0043 99.4548 26.0043ZM121.007 28.2578V21.0243C121.007 20.5514 120.974 20.0274 120.91 19.4525C120.845 18.8775 120.692 18.3257 120.451 17.7971C120.219 17.2592 119.866 16.8187 119.393 16.4756C118.93 16.1325 118.299 15.9609 117.501 15.9609C117.075 15.9609 116.653 16.0305 116.236 16.1696C115.818 16.3087 115.438 16.5498 115.095 16.8929C114.761 17.2268 114.492 17.6905 114.288 18.284C114.084 18.8682 113.982 19.6194 113.982 20.5375L111.993 19.6889C111.993 18.4092 112.239 17.25 112.73 16.2113C113.231 15.1727 113.964 14.3473 114.928 13.7352C115.893 13.1139 117.08 12.8032 118.489 12.8032C119.602 12.8032 120.52 12.9887 121.243 13.3597C121.967 13.7306 122.542 14.2036 122.968 14.7785C123.395 15.3535 123.71 15.9656 123.914 16.6147C124.118 17.2639 124.248 17.8806 124.304 18.4648C124.369 19.0398 124.401 19.5081 124.401 19.8698V28.2578H121.007ZM110.588 28.2578V13.2345H113.579V17.8945H113.982V28.2578H110.588ZM136.836 28.2578C135.844 28.4433 134.87 28.5221 133.915 28.4943C132.969 28.4757 132.121 28.3042 131.37 27.9796C130.618 27.6458 130.048 27.1218 129.659 26.4077C129.315 25.7586 129.135 25.0955 129.116 24.4185C129.098 23.7415 129.088 22.9765 129.088 22.1233V9.06131H132.427V21.9285C132.427 22.5313 132.431 23.0599 132.441 23.5143C132.459 23.9687 132.557 24.3397 132.733 24.6272C133.067 25.1836 133.6 25.4943 134.333 25.5592C135.065 25.6241 135.9 25.587 136.836 25.4479V28.2578ZM126.362 15.8636V13.2345H136.836V15.8636H126.362ZM146.136 28.6751C144.615 28.6751 143.28 28.3459 142.13 27.6875C140.98 27.0291 140.081 26.1156 139.431 24.9471C138.792 23.7786 138.472 22.4339 138.472 20.9131C138.472 19.2716 138.787 17.8481 139.417 16.6425C140.048 15.4277 140.924 14.4864 142.047 13.8187C143.169 13.151 144.467 12.8172 145.942 12.8172C147.499 12.8172 148.821 13.1835 149.906 13.9161C151 14.6394 151.812 15.6642 152.34 16.9903C152.869 18.3164 153.068 19.8791 152.939 21.6781H149.614V20.454C149.605 18.8219 149.317 17.6302 148.751 16.879C148.186 16.1279 147.295 15.7523 146.081 15.7523C144.708 15.7523 143.688 16.1789 143.02 17.032C142.353 17.8759 142.019 19.114 142.019 20.7461C142.019 22.267 142.353 23.4448 143.02 24.2794C143.688 25.114 144.662 25.5314 145.942 25.5314C146.767 25.5314 147.476 25.3505 148.07 24.9888C148.673 24.6179 149.136 24.0847 149.461 23.3891L152.772 24.3907C152.197 25.7446 151.306 26.7972 150.101 27.5484C148.904 28.2995 147.583 28.6751 146.136 28.6751ZM140.962 21.6781V19.1464H151.297V21.6781H140.962ZM162.566 28.6751C161.018 28.6751 159.696 28.332 158.602 27.6458C157.508 26.9502 156.668 26.0043 156.084 24.808C155.509 23.6117 155.217 22.2577 155.208 20.7461C155.217 19.2067 155.518 17.8435 156.112 16.6565C156.715 15.4601 157.568 14.5235 158.671 13.8465C159.775 13.1603 161.087 12.8172 162.608 12.8172C164.314 12.8172 165.756 13.2484 166.934 14.1108C168.121 14.964 168.896 16.1325 169.257 17.6163L165.919 18.5205C165.659 17.7136 165.228 17.0877 164.625 16.6425C164.022 16.1881 163.336 15.9609 162.566 15.9609C161.695 15.9609 160.976 16.1696 160.41 16.5869C159.844 16.9949 159.427 17.5606 159.158 18.284C158.889 19.0073 158.755 19.828 158.755 20.7461C158.755 22.1743 159.075 23.3289 159.715 24.2099C160.355 25.0909 161.305 25.5314 162.566 25.5314C163.457 25.5314 164.157 25.3273 164.667 24.9193C165.186 24.5112 165.576 23.9224 165.835 23.1527L169.257 23.9177C168.794 25.4479 167.982 26.6256 166.823 27.451C165.664 28.2671 164.245 28.6751 162.566 28.6751ZM182.436 28.2578V21.0243C182.436 20.5514 182.403 20.0274 182.339 19.4525C182.274 18.8775 182.121 18.3257 181.88 17.7971C181.648 17.2592 181.295 16.8187 180.822 16.4756C180.359 16.1325 179.728 15.9609 178.93 15.9609C178.504 15.9609 178.082 16.0305 177.665 16.1696C177.247 16.3087 176.867 16.5498 176.524 16.8929C176.19 17.2268 175.921 17.6905 175.717 18.284C175.513 18.8682 175.411 19.6194 175.411 20.5375L173.422 19.6889C173.422 18.4092 173.668 17.25 174.159 16.2113C174.66 15.1727 175.393 14.3473 176.357 13.7352C177.322 13.1139 178.509 12.8032 179.918 12.8032C181.031 12.8032 181.949 12.9887 182.672 13.3597C183.396 13.7306 183.971 14.2036 184.397 14.7785C184.824 15.3535 185.139 15.9656 185.343 16.6147C185.547 17.2639 185.677 17.8806 185.733 18.4648C185.798 19.0398 185.83 19.5081 185.83 19.8698V28.2578H182.436ZM172.017 28.2578V8.22668H175.008V18.7708H175.411V28.2578H172.017ZM193.36 28.2578L200.149 18.131L193.555 8.22668H197.659L202.221 15.2793L206.742 8.22668H210.874L204.28 18.131L211.041 28.2578H206.937L202.221 20.9826L197.492 28.2578H193.36Z" fill="white"/>
</svg>
