<svg width="113" height="106" viewBox="0 0 113 106" fill="none" xmlns="http://www.w3.org/2000/svg">
<circle cx="56.2305" cy="53" r="50" fill="#141414"/>
<path fill-rule="evenodd" clip-rule="evenodd" d="M69.0535 42.2319C67.7265 39.8148 65.403 37.5405 62.0829 35.6237C51.0216 29.2374 33.0877 29.2374 22.0263 35.6237C18.7063 37.5405 16.3828 39.8148 15.0558 42.2319H13.7285V46.9648H13.733C13.6333 51.2237 16.3978 55.5007 22.0263 58.7504C33.0877 65.1366 51.0216 65.1366 62.0829 58.7504C67.7115 55.5007 70.476 51.2237 70.3763 46.9648H70.3981V42.2319H69.0535Z" fill="#B0F127"/>
<path d="M62.0829 35.6237L61.7079 36.2732L61.7079 36.2732L62.0829 35.6237ZM69.0535 42.2319L68.3961 42.5929L68.6097 42.9819H69.0535V42.2319ZM22.0263 35.6237L22.4013 36.2732L22.4013 36.2732L22.0263 35.6237ZM15.0558 42.2319V42.9819H15.4996L15.7132 42.5929L15.0558 42.2319ZM13.7285 42.2319V41.4819H12.9785V42.2319H13.7285ZM13.7285 46.9648H12.9785V47.7148H13.7285V46.9648ZM13.733 46.9648L14.4827 46.9823L14.5007 46.2148H13.733V46.9648ZM22.0263 58.7504L21.6513 59.3999L21.6513 59.3999L22.0263 58.7504ZM62.0829 58.7504L62.4579 59.3999L62.4579 59.3999L62.0829 58.7504ZM70.3763 46.9648V46.2148H69.6086L69.6265 46.9823L70.3763 46.9648ZM70.3981 46.9648V47.7148H71.1481V46.9648H70.3981ZM70.3981 42.2319H71.1481V41.4819H70.3981V42.2319ZM61.7079 36.2732C64.941 38.1398 67.1507 40.3245 68.3961 42.5929L69.711 41.871C68.3023 39.3051 65.8649 36.9412 62.4579 34.9742L61.7079 36.2732ZM22.4013 36.2732C27.7912 33.1614 34.9026 31.584 42.0546 31.584C49.2067 31.584 56.3181 33.1614 61.7079 36.2732L62.4579 34.9742C56.7864 31.6997 49.4002 30.084 42.0546 30.084C34.7091 30.084 27.3228 31.6997 21.6513 34.9742L22.4013 36.2732ZM15.7132 42.5929C16.9585 40.3245 19.1683 38.1398 22.4013 36.2732L21.6513 34.9742C18.2444 36.9412 15.807 39.3051 14.3983 41.871L15.7132 42.5929ZM13.7285 42.9819H15.0558V41.4819H13.7285V42.9819ZM14.4785 46.9648V42.2319H12.9785V46.9648H14.4785ZM13.733 46.2148H13.7285V47.7148H13.733V46.2148ZM22.4013 58.1008C16.9117 54.9314 14.3918 50.8695 14.4827 46.9823L12.9832 46.9472C12.8748 51.5778 15.8838 56.07 21.6513 59.3999L22.4013 58.1008ZM61.7079 58.1008C56.3181 61.2127 49.2067 62.7901 42.0546 62.7901C34.9026 62.7901 27.7912 61.2127 22.4013 58.1008L21.6513 59.3999C27.3228 62.6743 34.7091 64.2901 42.0546 64.2901C49.4002 64.2901 56.7864 62.6743 62.4579 59.3999L61.7079 58.1008ZM69.6265 46.9823C69.7175 50.8695 67.1975 54.9314 61.7079 58.1008L62.4579 59.3999C68.2254 56.07 71.2344 51.5778 71.1261 46.9472L69.6265 46.9823ZM70.3981 46.2148H70.3763V47.7148H70.3981V46.2148ZM69.6481 42.2319V46.9648H71.1481V42.2319H69.6481ZM69.0535 42.9819H70.3981V41.4819H69.0535V42.9819Z" fill="#060606"/>
<mask id="mask0_3753_37801" style="mask-type:alpha" maskUnits="userSpaceOnUse" x="12" y="29" width="60" height="35">
<path fill-rule="evenodd" clip-rule="evenodd" d="M69.0535 41.3062C67.7265 38.889 65.403 36.6147 62.0829 34.6979C51.0216 28.3116 33.0877 28.3116 22.0263 34.6979C18.7063 36.6147 16.3828 38.889 15.0558 41.3062H13.7285V46.039H13.733C13.6333 50.2979 16.3978 54.5749 22.0263 57.8246C33.0877 64.2108 51.0216 64.2108 62.0829 57.8246C67.7115 54.5749 70.476 50.2979 70.3763 46.039H70.3981V41.3062H69.0535Z" fill="#71A407"/>
<path d="M62.0829 34.6979L61.7079 35.3474L61.7079 35.3474L62.0829 34.6979ZM69.0535 41.3062L68.3961 41.6671L68.6097 42.0562H69.0535V41.3062ZM22.0263 34.6979L22.4013 35.3474L22.4013 35.3474L22.0263 34.6979ZM15.0558 41.3062V42.0562H15.4996L15.7132 41.6671L15.0558 41.3062ZM13.7285 41.3062V40.5562H12.9785V41.3062H13.7285ZM13.7285 46.039H12.9785V46.789H13.7285V46.039ZM13.733 46.039L14.4827 46.0565L14.5007 45.289H13.733V46.039ZM22.0263 57.8246L21.6513 58.4741L21.6513 58.4741L22.0263 57.8246ZM62.0829 57.8246L62.4579 58.4741L62.4579 58.4741L62.0829 57.8246ZM70.3763 46.039V45.289H69.6086L69.6265 46.0565L70.3763 46.039ZM70.3981 46.039V46.789H71.1481V46.039H70.3981ZM70.3981 41.3062H71.1481V40.5562H70.3981V41.3062ZM61.7079 35.3474C64.941 37.214 67.1507 39.3987 68.3961 41.6671L69.711 40.9452C68.3023 38.3793 65.8649 36.0154 62.4579 34.0484L61.7079 35.3474ZM22.4013 35.3474C27.7912 32.2356 34.9026 30.6582 42.0546 30.6582C49.2067 30.6582 56.3181 32.2356 61.7079 35.3474L62.4579 34.0484C56.7864 30.7739 49.4002 29.1582 42.0546 29.1582C34.7091 29.1582 27.3228 30.7739 21.6513 34.0484L22.4013 35.3474ZM15.7132 41.6671C16.9585 39.3987 19.1683 37.214 22.4013 35.3474L21.6513 34.0484C18.2444 36.0154 15.807 38.3793 14.3983 40.9452L15.7132 41.6671ZM13.7285 42.0562H15.0558V40.5562H13.7285V42.0562ZM14.4785 46.039V41.3062H12.9785V46.039H14.4785ZM13.733 45.289H13.7285V46.789H13.733V45.289ZM22.4013 57.1751C16.9117 54.0056 14.3918 49.9437 14.4827 46.0565L12.9832 46.0215C12.8748 50.652 15.8838 55.1442 21.6513 58.4741L22.4013 57.1751ZM61.7079 57.1751C56.3181 60.2869 49.2067 61.8643 42.0546 61.8643C34.9026 61.8643 27.7912 60.2869 22.4013 57.1751L21.6513 58.4741C27.3228 61.7485 34.7091 63.3643 42.0546 63.3643C49.4002 63.3643 56.7864 61.7485 62.4579 58.4741L61.7079 57.1751ZM69.6265 46.0565C69.7175 49.9437 67.1975 54.0056 61.7079 57.1751L62.4579 58.4741C68.2254 55.1442 71.2344 50.652 71.1261 46.0215L69.6265 46.0565ZM70.3981 45.289H70.3763V46.789H70.3981V45.289ZM69.6481 41.3062V46.039H71.1481V41.3062H69.6481ZM69.0535 42.0562H70.3981V40.5562H69.0535V42.0562Z" fill="#060606"/>
</mask>
<g mask="url(#mask0_3753_37801)">
<rect width="28.3353" height="23.1263" transform="matrix(-1 0 0 1 42.0664 41.3066)" fill="#B0F127"/>
</g>
<path d="M62.0829 35.6237L61.7079 36.2732L61.7079 36.2732L62.0829 35.6237ZM69.0535 42.2319L68.3961 42.5929L68.6097 42.9819H69.0535V42.2319ZM22.0263 35.6237L22.4013 36.2732L22.4013 36.2732L22.0263 35.6237ZM15.0558 42.2319V42.9819H15.4996L15.7132 42.5929L15.0558 42.2319ZM13.7285 42.2319V41.4819H12.9785V42.2319H13.7285ZM13.7285 46.9648H12.9785V47.7148H13.7285V46.9648ZM13.733 46.9648L14.4827 46.9823L14.5007 46.2148H13.733V46.9648ZM22.0263 58.7504L21.6513 59.3999L21.6513 59.3999L22.0263 58.7504ZM62.0829 58.7504L62.4579 59.3999L62.4579 59.3999L62.0829 58.7504ZM70.3763 46.9648V46.2148H69.6086L69.6265 46.9823L70.3763 46.9648ZM70.3981 46.9648V47.7148H71.1481V46.9648H70.3981ZM70.3981 42.2319H71.1481V41.4819H70.3981V42.2319ZM61.7079 36.2732C64.941 38.1398 67.1507 40.3245 68.3961 42.5929L69.711 41.871C68.3023 39.3051 65.8649 36.9412 62.4579 34.9742L61.7079 36.2732ZM22.4013 36.2732C27.7912 33.1614 34.9026 31.584 42.0546 31.584C49.2067 31.584 56.3181 33.1614 61.7079 36.2732L62.4579 34.9742C56.7864 31.6997 49.4002 30.084 42.0546 30.084C34.7091 30.084 27.3228 31.6997 21.6513 34.9742L22.4013 36.2732ZM15.7132 42.5929C16.9585 40.3245 19.1683 38.1398 22.4013 36.2732L21.6513 34.9742C18.2444 36.9412 15.807 39.3051 14.3983 41.871L15.7132 42.5929ZM13.7285 42.9819H15.0558V41.4819H13.7285V42.9819ZM14.4785 46.9648V42.2319H12.9785V46.9648H14.4785ZM13.733 46.2148H13.7285V47.7148H13.733V46.2148ZM22.4013 58.1008C16.9117 54.9314 14.3918 50.8695 14.4827 46.9823L12.9832 46.9472C12.8748 51.5778 15.8838 56.07 21.6513 59.3999L22.4013 58.1008ZM61.7079 58.1008C56.3181 61.2127 49.2067 62.7901 42.0546 62.7901C34.9026 62.7901 27.7912 61.2127 22.4013 58.1008L21.6513 59.3999C27.3228 62.6743 34.7091 64.2901 42.0546 64.2901C49.4002 64.2901 56.7864 62.6743 62.4579 59.3999L61.7079 58.1008ZM69.6265 46.9823C69.7175 50.8695 67.1975 54.9314 61.7079 58.1008L62.4579 59.3999C68.2254 56.07 71.2344 51.5778 71.1261 46.9472L69.6265 46.9823ZM70.3981 46.2148H70.3763V47.7148H70.3981V46.2148ZM69.6481 42.2319V46.9648H71.1481V42.2319H69.6481ZM69.0535 42.9819H70.3981V41.4819H69.0535V42.9819Z" fill="#060606"/>
<circle r="23.1267" transform="matrix(0.866025 -0.5 0.866025 0.5 42.0566 40.416)" fill="white" stroke="#060606" stroke-width="1.5"/>
<path fill-rule="evenodd" clip-rule="evenodd" d="M97.3992 60.73C96.0722 58.3128 93.7487 56.0385 90.4286 54.1217C79.3673 47.7355 61.4334 47.7355 50.372 54.1217C47.052 56.0385 44.7285 58.3128 43.4015 60.73H42.0742V65.4628H42.0787C41.979 69.7217 44.7435 73.9988 50.372 77.2484C61.4334 83.6347 79.3673 83.6347 90.4286 77.2484C96.0572 73.9988 98.8217 69.7217 98.722 65.4628H98.7438V60.73H97.3992Z" fill="#B0F127"/>
<path d="M90.4286 54.1217L90.0536 54.7712L90.0536 54.7712L90.4286 54.1217ZM97.3992 60.73L96.7418 61.0909L96.9554 61.48H97.3992V60.73ZM50.372 54.1217L50.747 54.7712L50.747 54.7712L50.372 54.1217ZM43.4015 60.73V61.48H43.8453L44.0589 61.0909L43.4015 60.73ZM42.0742 60.73V59.98H41.3242V60.73H42.0742ZM42.0742 65.4628H41.3242V66.2128H42.0742V65.4628ZM42.0787 65.4628L42.8284 65.4804L42.8464 64.7128H42.0787V65.4628ZM50.372 77.2484L49.997 77.8979L49.997 77.8979L50.372 77.2484ZM90.4286 77.2484L90.8036 77.8979L90.8036 77.8979L90.4286 77.2484ZM98.722 65.4628V64.7128H97.9543L97.9722 65.4804L98.722 65.4628ZM98.7438 65.4628V66.2128H99.4938V65.4628H98.7438ZM98.7438 60.73H99.4938V59.98H98.7438V60.73ZM90.0536 54.7712C93.2867 56.6379 95.4964 58.8225 96.7418 61.0909L98.0567 60.3691C96.648 57.8031 94.2106 55.4392 90.8036 53.4722L90.0536 54.7712ZM50.747 54.7712C56.1369 51.6594 63.2483 50.082 70.4003 50.082C77.5524 50.082 84.6638 51.6594 90.0536 54.7712L90.8036 53.4722C85.1321 50.1978 77.7459 48.582 70.4003 48.582C63.0548 48.582 55.6686 50.1978 49.997 53.4722L50.747 54.7712ZM44.0589 61.0909C45.3042 58.8225 47.514 56.6379 50.747 54.7712L49.997 53.4722C46.5901 55.4392 44.1527 57.8031 42.744 60.3691L44.0589 61.0909ZM42.0742 61.48H43.4015V59.98H42.0742V61.48ZM42.8242 65.4628V60.73H41.3242V65.4628H42.8242ZM42.0787 64.7128H42.0742V66.2128H42.0787V64.7128ZM50.747 76.5989C45.2574 73.4295 42.7375 69.3676 42.8284 65.4804L41.3289 65.4453C41.2205 70.0758 44.2295 74.5681 49.997 77.8979L50.747 76.5989ZM90.0536 76.5989C84.6638 79.7107 77.5524 81.2881 70.4003 81.2881C63.2483 81.2881 56.1369 79.7107 50.747 76.5989L49.997 77.8979C55.6685 81.1724 63.0548 82.7881 70.4003 82.7881C77.7459 82.7881 85.1321 81.1724 90.8036 77.8979L90.0536 76.5989ZM97.9722 65.4804C98.0632 69.3676 95.5432 73.4295 90.0536 76.5989L90.8036 77.8979C96.5712 74.5681 99.5802 70.0758 99.4718 65.4453L97.9722 65.4804ZM98.7438 64.7128H98.722V66.2128H98.7438V64.7128ZM97.9938 60.73V65.4628H99.4938V60.73H97.9938ZM97.3992 61.48H98.7438V59.98H97.3992V61.48Z" fill="#060606"/>
<mask id="mask1_3753_37801" style="mask-type:alpha" maskUnits="userSpaceOnUse" x="41" y="47" width="59" height="35">
<path fill-rule="evenodd" clip-rule="evenodd" d="M97.3992 59.8023C96.0722 57.3851 93.7487 55.1108 90.4286 53.194C79.3673 46.8077 61.4334 46.8077 50.372 53.194C47.052 55.1108 44.7285 57.3851 43.4015 59.8023H42.0742V64.5351H42.0787C41.979 68.794 44.7435 73.071 50.372 76.3207C61.4334 82.7069 79.3673 82.7069 90.4286 76.3207C96.0572 73.071 98.8217 68.794 98.722 64.5351H98.7438V59.8023H97.3992Z" fill="#71A407"/>
<path d="M90.4286 53.194L90.0536 53.8435L90.0536 53.8435L90.4286 53.194ZM97.3992 59.8023L96.7418 60.1632L96.9554 60.5523H97.3992V59.8023ZM50.372 53.194L50.747 53.8435L50.747 53.8435L50.372 53.194ZM43.4015 59.8023V60.5523H43.8453L44.0589 60.1632L43.4015 59.8023ZM42.0742 59.8023V59.0523H41.3242V59.8023H42.0742ZM42.0742 64.5351H41.3242V65.2851H42.0742V64.5351ZM42.0787 64.5351L42.8284 64.5526L42.8464 63.7851H42.0787V64.5351ZM50.372 76.3207L49.997 76.9702L49.997 76.9702L50.372 76.3207ZM90.4286 76.3207L90.8036 76.9702L90.8036 76.9702L90.4286 76.3207ZM98.722 64.5351V63.7851H97.9543L97.9722 64.5526L98.722 64.5351ZM98.7438 64.5351V65.2851H99.4938V64.5351H98.7438ZM98.7438 59.8023H99.4938V59.0523H98.7438V59.8023ZM90.0536 53.8435C93.2867 55.7101 95.4964 57.8948 96.7418 60.1632L98.0567 59.4413C96.648 56.8754 94.2106 54.5115 90.8036 52.5445L90.0536 53.8435ZM50.747 53.8435C56.1369 50.7317 63.2483 49.1543 70.4003 49.1543C77.5524 49.1543 84.6638 50.7317 90.0536 53.8435L90.8036 52.5445C85.1321 49.27 77.7459 47.6543 70.4003 47.6543C63.0548 47.6543 55.6686 49.27 49.997 52.5445L50.747 53.8435ZM44.0589 60.1632C45.3042 57.8948 47.514 55.7101 50.747 53.8435L49.997 52.5445C46.5901 54.5115 44.1527 56.8754 42.744 59.4413L44.0589 60.1632ZM42.0742 60.5523H43.4015V59.0523H42.0742V60.5523ZM42.8242 64.5351V59.8023H41.3242V64.5351H42.8242ZM42.0787 63.7851H42.0742V65.2851H42.0787V63.7851ZM50.747 75.6712C45.2574 72.5017 42.7375 68.4398 42.8284 64.5526L41.3289 64.5176C41.2205 69.1481 44.2295 73.6403 49.997 76.9702L50.747 75.6712ZM90.0536 75.6712C84.6638 78.783 77.5524 80.3604 70.4003 80.3604C63.2483 80.3604 56.1369 78.783 50.747 75.6712L49.997 76.9702C55.6685 80.2446 63.0548 81.8604 70.4003 81.8604C77.7459 81.8604 85.1321 80.2446 90.8036 76.9702L90.0536 75.6712ZM97.9722 64.5526C98.0632 68.4398 95.5432 72.5017 90.0536 75.6712L90.8036 76.9702C96.5712 73.6403 99.5802 69.1481 99.4718 64.5176L97.9722 64.5526ZM98.7438 63.7851H98.722V65.2851H98.7438V63.7851ZM97.9938 59.8023V64.5351H99.4938V59.8023H97.9938ZM97.3992 60.5523H98.7438V59.0523H97.3992V60.5523Z" fill="#060606"/>
</mask>
<g mask="url(#mask1_3753_37801)">
<rect width="28.3353" height="23.1263" transform="matrix(-1 0 0 1 70.4121 59.8047)" fill="#B0F127"/>
</g>
<path d="M90.4286 54.1217L90.0536 54.7712L90.0536 54.7712L90.4286 54.1217ZM97.3992 60.73L96.7418 61.0909L96.9554 61.48H97.3992V60.73ZM50.372 54.1217L50.747 54.7712L50.747 54.7712L50.372 54.1217ZM43.4015 60.73V61.48H43.8453L44.0589 61.0909L43.4015 60.73ZM42.0742 60.73V59.98H41.3242V60.73H42.0742ZM42.0742 65.4628H41.3242V66.2128H42.0742V65.4628ZM42.0787 65.4628L42.8284 65.4804L42.8464 64.7128H42.0787V65.4628ZM50.372 77.2484L49.997 77.8979L49.997 77.8979L50.372 77.2484ZM90.4286 77.2484L90.8036 77.8979L90.8036 77.8979L90.4286 77.2484ZM98.722 65.4628V64.7128H97.9543L97.9722 65.4804L98.722 65.4628ZM98.7438 65.4628V66.2128H99.4938V65.4628H98.7438ZM98.7438 60.73H99.4938V59.98H98.7438V60.73ZM90.0536 54.7712C93.2867 56.6379 95.4964 58.8225 96.7418 61.0909L98.0567 60.3691C96.648 57.8031 94.2106 55.4392 90.8036 53.4722L90.0536 54.7712ZM50.747 54.7712C56.1369 51.6594 63.2483 50.082 70.4003 50.082C77.5524 50.082 84.6638 51.6594 90.0536 54.7712L90.8036 53.4722C85.1321 50.1978 77.7459 48.582 70.4003 48.582C63.0548 48.582 55.6686 50.1978 49.997 53.4722L50.747 54.7712ZM44.0589 61.0909C45.3042 58.8225 47.514 56.6379 50.747 54.7712L49.997 53.4722C46.5901 55.4392 44.1527 57.8031 42.744 60.3691L44.0589 61.0909ZM42.0742 61.48H43.4015V59.98H42.0742V61.48ZM42.8242 65.4628V60.73H41.3242V65.4628H42.8242ZM42.0787 64.7128H42.0742V66.2128H42.0787V64.7128ZM50.747 76.5989C45.2574 73.4295 42.7375 69.3676 42.8284 65.4804L41.3289 65.4453C41.2205 70.0758 44.2295 74.5681 49.997 77.8979L50.747 76.5989ZM90.0536 76.5989C84.6638 79.7107 77.5524 81.2881 70.4003 81.2881C63.2483 81.2881 56.1369 79.7107 50.747 76.5989L49.997 77.8979C55.6685 81.1724 63.0548 82.7881 70.4003 82.7881C77.7459 82.7881 85.1321 81.1724 90.8036 77.8979L90.0536 76.5989ZM97.9722 65.4804C98.0632 69.3676 95.5432 73.4295 90.0536 76.5989L90.8036 77.8979C96.5712 74.5681 99.5802 70.0758 99.4718 65.4453L97.9722 65.4804ZM98.7438 64.7128H98.722V66.2128H98.7438V64.7128ZM97.9938 60.73V65.4628H99.4938V60.73H97.9938ZM97.3992 61.48H98.7438V59.98H97.3992V61.48Z" fill="#060606"/>
<circle r="23.1267" transform="matrix(0.866025 -0.5 0.866025 0.5 70.4003 58.9141)" fill="#B0F127" stroke="#060606" stroke-width="1.5"/>
<path d="M76.4992 52.111C74.5373 50.5798 71.5406 50.8779 68.3114 51.7869L65.9653 49.5328L63.5889 50.3573L65.8732 52.5521C65.2485 52.7688 64.6173 52.9975 63.9904 53.2249L61.6915 51.0155L59.3162 51.8395L61.6606 54.0933C61.1524 54.2779 60.6529 54.4587 60.1604 54.6298L60.1528 54.6229L56.8743 55.7593L58.4 57.2246C58.4 57.2246 60.1349 56.5964 60.1251 56.6252C61.0879 56.2914 61.737 56.5054 62.1179 56.7522L64.7907 59.3201C64.8573 59.2973 64.9456 59.2688 65.0518 59.2425C64.9727 59.2701 64.8877 59.2992 64.801 59.3298L68.5444 62.9275C68.6841 63.1171 68.7963 63.4577 68.1245 63.6917C68.1711 63.6967 66.3966 64.2908 66.3966 64.2908L67.6298 66.0932L70.7224 65.0202C71.2984 64.821 71.8705 64.6302 72.4286 64.4393L74.8023 66.7188L77.1765 65.8955L74.8288 63.6398C75.4888 63.4214 76.1227 63.2056 76.7382 62.9916L79.0739 65.2373L81.4503 64.4128L79.0826 62.1367C82.9403 60.6183 85.1319 59.0671 83.2248 56.7804C81.6898 54.9388 79.4586 54.6535 76.8633 55.1259C77.8196 54.2428 77.9383 53.2302 76.4992 52.111V52.111ZM78.2477 58.1392C80.0221 59.8425 74.7676 61.4016 73.1579 61.9612L70.0148 58.9404C71.6262 58.3817 76.3985 56.3621 78.2477 58.1392V58.1392ZM72.7071 54.261C74.3195 55.8113 69.9173 57.0923 68.5758 57.5577L65.7248 54.8181C67.0663 54.3526 71.0242 52.6443 72.7071 54.261V54.261Z" fill="#060606"/>
<path fill-rule="evenodd" clip-rule="evenodd" d="M97.3992 53.7964C96.0722 51.3792 93.7487 49.1049 90.4286 47.1881C79.3673 40.8019 61.4334 40.8019 50.372 47.1881C47.052 49.1049 44.7285 51.3792 43.4015 53.7964H42.0742V58.5292H42.0787C41.979 62.7881 44.7435 67.0652 50.372 70.3148C61.4334 76.7011 79.3673 76.7011 90.4286 70.3148C96.0572 67.0652 98.8217 62.7881 98.722 58.5292H98.7438V53.7964H97.3992Z" fill="#B0F127"/>
<path d="M90.4286 47.1881L90.0536 47.8376L90.0536 47.8376L90.4286 47.1881ZM97.3992 53.7964L96.7418 54.1573L96.9554 54.5464H97.3992V53.7964ZM50.372 47.1881L50.747 47.8376L50.747 47.8376L50.372 47.1881ZM43.4015 53.7964V54.5464H43.8453L44.0589 54.1573L43.4015 53.7964ZM42.0742 53.7964V53.0464H41.3242V53.7964H42.0742ZM42.0742 58.5292H41.3242V59.2792H42.0742V58.5292ZM42.0787 58.5292L42.8284 58.5468L42.8464 57.7792H42.0787V58.5292ZM50.372 70.3148L49.997 70.9643L49.997 70.9643L50.372 70.3148ZM90.4286 70.3148L90.8036 70.9643L90.8036 70.9643L90.4286 70.3148ZM98.722 58.5292V57.7792H97.9543L97.9722 58.5468L98.722 58.5292ZM98.7438 58.5292V59.2792H99.4938V58.5292H98.7438ZM98.7438 53.7964H99.4938V53.0464H98.7438V53.7964ZM90.0536 47.8376C93.2867 49.7043 95.4964 51.889 96.7418 54.1573L98.0567 53.4355C96.648 50.8695 94.2106 48.5056 90.8036 46.5386L90.0536 47.8376ZM50.747 47.8376C56.1369 44.7258 63.2483 43.1484 70.4003 43.1484C77.5524 43.1484 84.6638 44.7258 90.0536 47.8376L90.8036 46.5386C85.1321 43.2642 77.7459 41.6484 70.4003 41.6484C63.0548 41.6484 55.6686 43.2642 49.997 46.5386L50.747 47.8376ZM44.0589 54.1573C45.3042 51.889 47.514 49.7043 50.747 47.8376L49.997 46.5386C46.5901 48.5056 44.1527 50.8695 42.744 53.4355L44.0589 54.1573ZM42.0742 54.5464H43.4015V53.0464H42.0742V54.5464ZM42.8242 58.5292V53.7964H41.3242V58.5292H42.8242ZM42.0787 57.7792H42.0742V59.2792H42.0787V57.7792ZM50.747 69.6653C45.2574 66.4959 42.7375 62.434 42.8284 58.5468L41.3289 58.5117C41.2205 63.1422 44.2295 67.6345 49.997 70.9643L50.747 69.6653ZM90.0536 69.6653C84.6638 72.7771 77.5524 74.3545 70.4003 74.3545C63.2483 74.3545 56.1369 72.7771 50.747 69.6653L49.997 70.9643C55.6685 74.2388 63.0548 75.8545 70.4003 75.8545C77.7459 75.8545 85.1321 74.2388 90.8036 70.9643L90.0536 69.6653ZM97.9722 58.5468C98.0632 62.434 95.5432 66.4959 90.0536 69.6653L90.8036 70.9643C96.5712 67.6345 99.5802 63.1422 99.4718 58.5117L97.9722 58.5468ZM98.7438 57.7792H98.722V59.2792H98.7438V57.7792ZM97.9938 53.7964V58.5292H99.4938V53.7964H97.9938ZM97.3992 54.5464H98.7438V53.0464H97.3992V54.5464Z" fill="#060606"/>
<mask id="mask2_3753_37801" style="mask-type:alpha" maskUnits="userSpaceOnUse" x="41" y="40" width="59" height="35">
<path fill-rule="evenodd" clip-rule="evenodd" d="M97.3992 52.8706C96.0722 50.4535 93.7487 48.1792 90.4286 46.2623C79.3673 39.8761 61.4334 39.8761 50.372 46.2623C47.052 48.1792 44.7285 50.4535 43.4015 52.8706H42.0742V57.6035H42.0787C41.979 61.8623 44.7435 66.1394 50.372 69.389C61.4334 75.7753 79.3673 75.7753 90.4286 69.389C96.0572 66.1394 98.8217 61.8623 98.722 57.6035H98.7438V52.8706H97.3992Z" fill="#71A407"/>
<path d="M90.4286 46.2623L90.0536 46.9119L90.0536 46.9119L90.4286 46.2623ZM97.3992 52.8706L96.7418 53.2316L96.9554 53.6206H97.3992V52.8706ZM50.372 46.2623L50.747 46.9119L50.747 46.9119L50.372 46.2623ZM43.4015 52.8706V53.6206H43.8453L44.0589 53.2316L43.4015 52.8706ZM42.0742 52.8706V52.1206H41.3242V52.8706H42.0742ZM42.0742 57.6035H41.3242V58.3535H42.0742V57.6035ZM42.0787 57.6035L42.8284 57.621L42.8464 56.8535H42.0787V57.6035ZM50.372 69.389L49.997 70.0386L49.997 70.0386L50.372 69.389ZM90.4286 69.389L90.8036 70.0386L90.8036 70.0386L90.4286 69.389ZM98.722 57.6035V56.8535H97.9543L97.9722 57.621L98.722 57.6035ZM98.7438 57.6035V58.3535H99.4938V57.6035H98.7438ZM98.7438 52.8706H99.4938V52.1206H98.7438V52.8706ZM90.0536 46.9119C93.2867 48.7785 95.4964 50.9632 96.7418 53.2316L98.0567 52.5097C96.648 49.9437 94.2106 47.5798 90.8036 45.6128L90.0536 46.9119ZM50.747 46.9119C56.1369 43.8001 63.2483 42.2227 70.4003 42.2227C77.5524 42.2227 84.6638 43.8001 90.0536 46.9119L90.8036 45.6128C85.1321 42.3384 77.7459 40.7227 70.4003 40.7227C63.0548 40.7227 55.6686 42.3384 49.997 45.6128L50.747 46.9119ZM44.0589 53.2316C45.3042 50.9632 47.514 48.7785 50.747 46.9119L49.997 45.6128C46.5901 47.5798 44.1527 49.9437 42.744 52.5097L44.0589 53.2316ZM42.0742 53.6206H43.4015V52.1206H42.0742V53.6206ZM42.8242 57.6035V52.8706H41.3242V57.6035H42.8242ZM42.0787 56.8535H42.0742V58.3535H42.0787V56.8535ZM50.747 68.7395C45.2574 65.5701 42.7375 61.5082 42.8284 57.621L41.3289 57.5859C41.2205 62.2165 44.2295 66.7087 49.997 70.0386L50.747 68.7395ZM90.0536 68.7395C84.6638 71.8513 77.5524 73.4287 70.4003 73.4287C63.2483 73.4287 56.1369 71.8513 50.747 68.7395L49.997 70.0386C55.6685 73.313 63.0548 74.9287 70.4003 74.9287C77.7459 74.9287 85.1321 73.313 90.8036 70.0386L90.0536 68.7395ZM97.9722 57.621C98.0632 61.5082 95.5432 65.5701 90.0536 68.7395L90.8036 70.0386C96.5712 66.7087 99.5802 62.2165 99.4718 57.5859L97.9722 57.621ZM98.7438 56.8535H98.722V58.3535H98.7438V56.8535ZM97.9938 52.8706V57.6035H99.4938V52.8706H97.9938ZM97.3992 53.6206H98.7438V52.1206H97.3992V53.6206Z" fill="#060606"/>
</mask>
<g mask="url(#mask2_3753_37801)">
<rect width="28.3353" height="23.1263" transform="matrix(-1 0 0 1 70.4121 52.8711)" fill="#B0F127"/>
</g>
<path d="M90.4286 47.1881L90.0536 47.8376L90.0536 47.8376L90.4286 47.1881ZM97.3992 53.7964L96.7418 54.1573L96.9554 54.5464H97.3992V53.7964ZM50.372 47.1881L50.747 47.8376L50.747 47.8376L50.372 47.1881ZM43.4015 53.7964V54.5464H43.8453L44.0589 54.1573L43.4015 53.7964ZM42.0742 53.7964V53.0464H41.3242V53.7964H42.0742ZM42.0742 58.5292H41.3242V59.2792H42.0742V58.5292ZM42.0787 58.5292L42.8284 58.5468L42.8464 57.7792H42.0787V58.5292ZM50.372 70.3148L49.997 70.9643L49.997 70.9643L50.372 70.3148ZM90.4286 70.3148L90.8036 70.9643L90.8036 70.9643L90.4286 70.3148ZM98.722 58.5292V57.7792H97.9543L97.9722 58.5468L98.722 58.5292ZM98.7438 58.5292V59.2792H99.4938V58.5292H98.7438ZM98.7438 53.7964H99.4938V53.0464H98.7438V53.7964ZM90.0536 47.8376C93.2867 49.7043 95.4964 51.889 96.7418 54.1573L98.0567 53.4355C96.648 50.8695 94.2106 48.5056 90.8036 46.5386L90.0536 47.8376ZM50.747 47.8376C56.1369 44.7258 63.2483 43.1484 70.4003 43.1484C77.5524 43.1484 84.6638 44.7258 90.0536 47.8376L90.8036 46.5386C85.1321 43.2642 77.7459 41.6484 70.4003 41.6484C63.0548 41.6484 55.6686 43.2642 49.997 46.5386L50.747 47.8376ZM44.0589 54.1573C45.3042 51.889 47.514 49.7043 50.747 47.8376L49.997 46.5386C46.5901 48.5056 44.1527 50.8695 42.744 53.4355L44.0589 54.1573ZM42.0742 54.5464H43.4015V53.0464H42.0742V54.5464ZM42.8242 58.5292V53.7964H41.3242V58.5292H42.8242ZM42.0787 57.7792H42.0742V59.2792H42.0787V57.7792ZM50.747 69.6653C45.2574 66.4959 42.7375 62.434 42.8284 58.5468L41.3289 58.5117C41.2205 63.1422 44.2295 67.6345 49.997 70.9643L50.747 69.6653ZM90.0536 69.6653C84.6638 72.7771 77.5524 74.3545 70.4003 74.3545C63.2483 74.3545 56.1369 72.7771 50.747 69.6653L49.997 70.9643C55.6685 74.2388 63.0548 75.8545 70.4003 75.8545C77.7459 75.8545 85.1321 74.2388 90.8036 70.9643L90.0536 69.6653ZM97.9722 58.5468C98.0632 62.434 95.5432 66.4959 90.0536 69.6653L90.8036 70.9643C96.5712 67.6345 99.5802 63.1422 99.4718 58.5117L97.9722 58.5468ZM98.7438 57.7792H98.722V59.2792H98.7438V57.7792ZM97.9938 53.7964V58.5292H99.4938V53.7964H97.9938ZM97.3992 54.5464H98.7438V53.0464H97.3992V54.5464Z" fill="#060606"/>
<circle r="23.1267" transform="matrix(0.866025 -0.5 0.866025 0.5 70.4003 51.9805)" fill="#B0F127" stroke="#060606" stroke-width="1.5"/>
<path d="M76.4992 45.1774C74.5373 43.6462 71.5406 43.9443 68.3114 44.8533L65.9653 42.5992L63.5889 43.4237L65.8732 45.6185C65.2485 45.8352 64.6173 46.0639 63.9904 46.2913L61.6915 44.0819L59.3162 44.9059L61.6606 47.1597C61.1524 47.3443 60.6529 47.5251 60.1604 47.6962L60.1528 47.6893L56.8743 48.8258L58.4 50.291C58.4 50.291 60.1349 49.6628 60.1251 49.6916C61.0879 49.3578 61.737 49.5718 62.1179 49.8186L64.7907 52.3865C64.8573 52.3637 64.9456 52.3352 65.0518 52.3089C64.9727 52.3365 64.8877 52.3656 64.801 52.3962L68.5444 55.9939C68.6841 56.1835 68.7963 56.5241 68.1245 56.7581C68.1711 56.7631 66.3966 57.3572 66.3966 57.3572L67.6298 59.1596L70.7224 58.0866C71.2984 57.8874 71.8705 57.6966 72.4286 57.5057L74.8023 59.7852L77.1765 58.9619L74.8288 56.7062C75.4888 56.4878 76.1227 56.272 76.7382 56.058L79.0739 58.3037L81.4503 57.4792L79.0826 55.2031C82.9403 53.6847 85.1319 52.1335 83.2248 49.8468C81.6898 48.0052 79.4586 47.7199 76.8633 48.1923C77.8196 47.3092 77.9383 46.2966 76.4992 45.1774V45.1774ZM78.2477 51.2056C80.0221 52.9089 74.7676 54.468 73.1579 55.0276L70.0148 52.0068C71.6262 51.4481 76.3985 49.4285 78.2477 51.2056V51.2056ZM72.7071 47.3274C74.3195 48.8777 69.9173 50.1587 68.5758 50.6241L65.7248 47.8845C67.0663 47.419 71.0242 45.7107 72.7071 47.3274V47.3274Z" fill="#060606"/>
<path fill-rule="evenodd" clip-rule="evenodd" d="M97.3992 47.1831C96.0722 44.766 93.7487 42.4917 90.4286 40.5748C79.3673 34.1886 61.4334 34.1886 50.372 40.5748C47.052 42.4917 44.7285 44.766 43.4015 47.1831H42.0742V51.916H42.0787C41.979 56.1748 44.7435 60.4519 50.372 63.7015C61.4334 70.0878 79.3673 70.0878 90.4286 63.7015C96.0572 60.4519 98.8217 56.1748 98.722 51.916H98.7438V47.1831H97.3992Z" fill="#B0F127"/>
<path d="M90.4286 40.5748L90.0536 41.2244L90.0536 41.2244L90.4286 40.5748ZM97.3992 47.1831L96.7418 47.5441L96.9554 47.9331H97.3992V47.1831ZM50.372 40.5748L50.747 41.2244L50.747 41.2244L50.372 40.5748ZM43.4015 47.1831V47.9331H43.8453L44.0589 47.5441L43.4015 47.1831ZM42.0742 47.1831V46.4331H41.3242V47.1831H42.0742ZM42.0742 51.916H41.3242V52.666H42.0742V51.916ZM42.0787 51.916L42.8284 51.9335L42.8464 51.166H42.0787V51.916ZM50.372 63.7015L49.997 64.3511L49.997 64.3511L50.372 63.7015ZM90.4286 63.7015L90.8036 64.3511L90.8036 64.3511L90.4286 63.7015ZM98.722 51.916V51.166H97.9543L97.9722 51.9335L98.722 51.916ZM98.7438 51.916V52.666H99.4938V51.916H98.7438ZM98.7438 47.1831H99.4938V46.4331H98.7438V47.1831ZM90.0536 41.2244C93.2867 43.091 95.4964 45.2757 96.7418 47.5441L98.0567 46.8222C96.648 44.2562 94.2106 41.8923 90.8036 39.9253L90.0536 41.2244ZM50.747 41.2244C56.1369 38.1126 63.2483 36.5352 70.4003 36.5352C77.5524 36.5352 84.6638 38.1126 90.0536 41.2244L90.8036 39.9253C85.1321 36.6509 77.7459 35.0352 70.4003 35.0352C63.0548 35.0352 55.6686 36.6509 49.997 39.9253L50.747 41.2244ZM44.0589 47.5441C45.3042 45.2757 47.514 43.091 50.747 41.2244L49.997 39.9253C46.5901 41.8923 44.1527 44.2562 42.744 46.8222L44.0589 47.5441ZM42.0742 47.9331H43.4015V46.4331H42.0742V47.9331ZM42.8242 51.916V47.1831H41.3242V51.916H42.8242ZM42.0787 51.166H42.0742V52.666H42.0787V51.166ZM50.747 63.052C45.2574 59.8826 42.7375 55.8207 42.8284 51.9335L41.3289 51.8984C41.2205 56.529 44.2295 61.0212 49.997 64.3511L50.747 63.052ZM90.0536 63.052C84.6638 66.1638 77.5524 67.7412 70.4003 67.7412C63.2483 67.7412 56.1369 66.1638 50.747 63.052L49.997 64.3511C55.6685 67.6255 63.0548 69.2412 70.4003 69.2412C77.7459 69.2412 85.1321 67.6255 90.8036 64.3511L90.0536 63.052ZM97.9722 51.9335C98.0632 55.8207 95.5432 59.8826 90.0536 63.052L90.8036 64.3511C96.5712 61.0212 99.5802 56.529 99.4718 51.8984L97.9722 51.9335ZM98.7438 51.166H98.722V52.666H98.7438V51.166ZM97.9938 47.1831V51.916H99.4938V47.1831H97.9938ZM97.3992 47.9331H98.7438V46.4331H97.3992V47.9331Z" fill="#060606"/>
<path d="M90.4286 40.5748L90.0536 41.2244L90.0536 41.2244L90.4286 40.5748ZM97.3992 47.1831L96.7418 47.5441L96.9554 47.9331H97.3992V47.1831ZM50.372 40.5748L50.747 41.2244L50.747 41.2244L50.372 40.5748ZM43.4015 47.1831V47.9331H43.8453L44.0589 47.5441L43.4015 47.1831ZM42.0742 47.1831V46.4331H41.3242V47.1831H42.0742ZM42.0742 51.916H41.3242V52.666H42.0742V51.916ZM42.0787 51.916L42.8284 51.9335L42.8464 51.166H42.0787V51.916ZM50.372 63.7015L49.997 64.3511L49.997 64.3511L50.372 63.7015ZM90.4286 63.7015L90.8036 64.3511L90.8036 64.3511L90.4286 63.7015ZM98.722 51.916V51.166H97.9543L97.9722 51.9335L98.722 51.916ZM98.7438 51.916V52.666H99.4938V51.916H98.7438ZM98.7438 47.1831H99.4938V46.4331H98.7438V47.1831ZM90.0536 41.2244C93.2867 43.091 95.4964 45.2757 96.7418 47.5441L98.0567 46.8222C96.648 44.2562 94.2106 41.8923 90.8036 39.9253L90.0536 41.2244ZM50.747 41.2244C56.1369 38.1126 63.2483 36.5352 70.4003 36.5352C77.5524 36.5352 84.6638 38.1126 90.0536 41.2244L90.8036 39.9253C85.1321 36.6509 77.7459 35.0352 70.4003 35.0352C63.0548 35.0352 55.6686 36.6509 49.997 39.9253L50.747 41.2244ZM44.0589 47.5441C45.3042 45.2757 47.514 43.091 50.747 41.2244L49.997 39.9253C46.5901 41.8923 44.1527 44.2562 42.744 46.8222L44.0589 47.5441ZM42.0742 47.9331H43.4015V46.4331H42.0742V47.9331ZM42.8242 51.916V47.1831H41.3242V51.916H42.8242ZM42.0787 51.166H42.0742V52.666H42.0787V51.166ZM50.747 63.052C45.2574 59.8826 42.7375 55.8207 42.8284 51.9335L41.3289 51.8984C41.2205 56.529 44.2295 61.0212 49.997 64.3511L50.747 63.052ZM90.0536 63.052C84.6638 66.1638 77.5524 67.7412 70.4003 67.7412C63.2483 67.7412 56.1369 66.1638 50.747 63.052L49.997 64.3511C55.6685 67.6255 63.0548 69.2412 70.4003 69.2412C77.7459 69.2412 85.1321 67.6255 90.8036 64.3511L90.0536 63.052ZM97.9722 51.9335C98.0632 55.8207 95.5432 59.8826 90.0536 63.052L90.8036 64.3511C96.5712 61.0212 99.5802 56.529 99.4718 51.8984L97.9722 51.9335ZM98.7438 51.166H98.722V52.666H98.7438V51.166ZM97.9938 47.1831V51.916H99.4938V47.1831H97.9938ZM97.3992 47.9331H98.7438V46.4331H97.3992V47.9331Z" fill="#060606"/>
<circle r="23.1267" transform="matrix(0.866025 -0.5 0.866025 0.5 70.4003 45.3672)" fill="white" stroke="#060606" stroke-width="1.5"/>
<path d="M76.4992 38.5641C74.5373 37.0329 71.5406 37.331 68.3114 38.24L65.9653 35.9859L63.5889 36.8105L65.8732 39.0052C65.2485 39.222 64.6173 39.4506 63.9904 39.678L61.6915 37.4686L59.3162 38.2926L61.6606 40.5464C61.1524 40.731 60.6529 40.9118 60.1604 41.0829L60.1528 41.076L56.8743 42.2125L58.4 43.6777C58.4 43.6777 60.1349 43.0496 60.1251 43.0783C61.0879 42.7446 61.737 42.9585 62.1179 43.2053L64.7907 45.7732C64.8573 45.7504 64.9456 45.7219 65.0518 45.6957C64.9727 45.7232 64.8877 45.7523 64.801 45.7829L68.5444 49.3806C68.6841 49.5702 68.7963 49.9109 68.1245 50.1448C68.1711 50.1498 66.3966 50.7439 66.3966 50.7439L67.6298 52.5463L70.7224 51.4734C71.2984 51.2741 71.8705 51.0833 72.4286 50.8925L74.8023 53.172L77.1765 52.3486L74.8288 50.0929C75.4888 49.8746 76.1227 49.6587 76.7382 49.4448L79.0739 51.6905L81.4503 50.8659L79.0826 48.5898C82.9403 47.0714 85.1319 45.5202 83.2248 43.2335C81.6898 41.392 79.4586 41.1067 76.8633 41.579C77.8196 40.6959 77.9383 39.6834 76.4992 38.5641V38.5641ZM78.2477 44.5924C80.0221 46.2956 74.7676 47.8547 73.1579 48.4143L70.0148 45.3935C71.6262 44.8348 76.3985 42.8153 78.2477 44.5924V44.5924ZM72.7071 40.7141C74.3195 42.2644 69.9173 43.5454 68.5758 44.0108L65.7248 41.2712C67.0663 40.8057 71.0242 39.0975 72.7071 40.7141V40.7141Z" fill="#060606"/>
</svg>
