<svg width="194" height="347" viewBox="0 0 194 347" fill="none" xmlns="http://www.w3.org/2000/svg">
<mask id="path-1-inside-1_3753_37169" fill="white">
<path fill-rule="evenodd" clip-rule="evenodd" d="M2.88832 98.3373C0.496862 96.9566 0.49686 94.718 2.88832 93.3373L37.9371 73.1019C40.3285 71.7212 44.2058 71.7212 46.5973 73.1019L47.1526 73.4226C47.4554 73.5507 47.7644 73.705 48.0782 73.8862L186.344 153.714C190.17 155.923 193.272 161.295 193.272 165.714V226.072C193.281 226.235 193.286 226.402 193.286 226.573V281.214C193.286 292.812 185.143 306.915 175.099 312.714L146.614 329.16C136.57 334.959 128.427 330.258 128.427 318.66V264.019C128.427 259.838 131.205 254.802 134.746 252.401L48.0782 202.364C44.2518 200.155 41.15 194.782 41.15 190.364L41.15 120.428L2.88832 98.3373Z"/>
</mask>
<path fill-rule="evenodd" clip-rule="evenodd" d="M2.88832 98.3373C0.496862 96.9566 0.49686 94.718 2.88832 93.3373L37.9371 73.1019C40.3285 71.7212 44.2058 71.7212 46.5973 73.1019L47.1526 73.4226C47.4554 73.5507 47.7644 73.705 48.0782 73.8862L186.344 153.714C190.17 155.923 193.272 161.295 193.272 165.714V226.072C193.281 226.235 193.286 226.402 193.286 226.573V281.214C193.286 292.812 185.143 306.915 175.099 312.714L146.614 329.16C136.57 334.959 128.427 330.258 128.427 318.66V264.019C128.427 259.838 131.205 254.802 134.746 252.401L48.0782 202.364C44.2518 200.155 41.15 194.782 41.15 190.364L41.15 120.428L2.88832 98.3373Z" fill="#B0F127"/>
<path d="M2.88832 93.3373L2.38832 92.4713L2.38832 92.4713L2.88832 93.3373ZM2.88832 98.3373L2.38832 99.2034L2.38832 99.2034L2.88832 98.3373ZM37.9371 73.1019L37.4371 72.2359L37.4371 72.2359L37.9371 73.1019ZM46.5973 73.1019L47.0973 72.2359L47.0973 72.2359L46.5973 73.1019ZM47.1526 73.4226L46.6526 74.2886L46.7061 74.3194L46.7629 74.3435L47.1526 73.4226ZM48.0782 73.8862L47.5782 74.7522L47.5782 74.7522L48.0782 73.8862ZM186.344 153.714L185.844 154.58L185.844 154.58L186.344 153.714ZM193.272 226.072H192.272V226.1L192.273 226.128L193.272 226.072ZM175.099 312.714L175.599 313.58L175.599 313.58L175.099 312.714ZM146.614 329.16L147.114 330.026L147.114 330.026L146.614 329.16ZM134.746 252.401L135.307 253.229L136.628 252.333L135.246 251.535L134.746 252.401ZM48.0782 202.364L48.5782 201.498L48.5782 201.498L48.0782 202.364ZM41.15 190.364L40.15 190.364V190.364H41.15ZM41.15 120.428L42.15 120.428L42.15 119.85L41.65 119.562L41.15 120.428ZM2.38832 92.4713C1.01041 93.2668 0.0947257 94.4493 0.0947266 95.8373C0.0947274 97.2253 1.01041 98.4078 2.38832 99.2034L3.38833 97.4713C2.37477 96.8861 2.09473 96.259 2.09473 95.8373C2.09473 95.4157 2.37477 94.7885 3.38832 94.2034L2.38832 92.4713ZM37.4371 72.2359L2.38832 92.4713L3.38832 94.2034L38.4371 73.968L37.4371 72.2359ZM47.0973 72.2359C45.7138 71.4371 43.9634 71.0664 42.2672 71.0664C40.571 71.0664 38.8206 71.4371 37.4371 72.2359L38.4371 73.968C39.445 73.386 40.829 73.0664 42.2672 73.0664C43.7054 73.0664 45.0894 73.386 46.0973 73.968L47.0973 72.2359ZM47.6526 72.5565L47.0973 72.2359L46.0973 73.968L46.6526 74.2886L47.6526 72.5565ZM48.5782 73.0201C48.2312 72.8198 47.8855 72.6468 47.5424 72.5016L46.7629 74.3435C47.0253 74.4545 47.2975 74.5901 47.5782 74.7522L48.5782 73.0201ZM186.844 152.848L48.5782 73.0201L47.5782 74.7522L185.844 154.58L186.844 152.848ZM194.272 165.714C194.272 163.288 193.427 160.669 192.109 158.385C190.79 156.102 188.945 154.061 186.844 152.848L185.844 154.58C187.569 155.576 189.187 157.325 190.377 159.385C191.566 161.445 192.272 163.721 192.272 165.714H194.272ZM194.272 226.072V165.714H192.272V226.072H194.272ZM192.273 226.128C192.281 226.272 192.286 226.42 192.286 226.573H194.286C194.286 226.384 194.28 226.198 194.27 226.016L192.273 226.128ZM192.286 226.573V281.214H194.286V226.573H192.286ZM192.286 281.214C192.286 286.796 190.32 293.05 187.093 298.639C183.866 304.227 179.433 309.057 174.599 311.848L175.599 313.58C180.809 310.572 185.469 305.451 188.825 299.639C192.181 293.826 194.286 287.23 194.286 281.214H192.286ZM174.599 311.848L146.114 328.294L147.114 330.026L175.599 313.58L174.599 311.848ZM146.114 328.294C141.274 331.088 137.127 331.226 134.254 329.568C131.381 327.909 129.427 324.249 129.427 318.66H127.427C127.427 324.669 129.544 329.158 133.254 331.3C136.964 333.442 141.91 333.031 147.114 330.026L146.114 328.294ZM129.427 318.66V264.019H127.427V318.66H129.427ZM129.427 264.019C129.427 262.135 130.059 259.995 131.136 258.022C132.213 256.05 133.694 254.323 135.307 253.229L134.185 251.574C132.257 252.88 130.578 254.871 129.381 257.063C128.185 259.253 127.427 261.722 127.427 264.019H129.427ZM47.5782 203.23L134.246 253.267L135.246 251.535L48.5782 201.498L47.5782 203.23ZM40.15 190.364C40.15 192.79 40.9949 195.409 42.3132 197.692C43.6315 199.975 45.4772 202.017 47.5782 203.23L48.5782 201.498C46.8528 200.501 45.2345 198.752 44.0452 196.692C42.856 194.632 42.15 192.356 42.15 190.364H40.15ZM40.15 120.428L40.15 190.364L42.15 190.364L42.15 120.428L40.15 120.428ZM2.38832 99.2034L40.65 121.294L41.65 119.562L3.38832 97.4713L2.38832 99.2034Z" fill="#060606" mask="url(#path-1-inside-1_3753_37169)"/>
<mask id="mask0_3753_37169" style="mask-type:alpha" maskUnits="userSpaceOnUse" x="0" y="72" width="194" height="259">
<mask id="path-3-inside-2_3753_37169" fill="white">
<path fill-rule="evenodd" clip-rule="evenodd" d="M2.78676 101.761L41.15 123.91L41.15 190.367C41.15 194.785 44.2518 200.158 48.0782 202.367L134.747 252.405C131.207 254.806 128.429 259.842 128.429 264.022V317.714C128.429 329.312 136.572 334.013 146.616 328.214L175.101 311.768C185.145 305.969 193.288 291.866 193.288 280.268V226.576C193.288 226.394 193.282 226.215 193.272 226.042V165.717C193.272 161.299 190.17 155.926 186.344 153.717L48.0782 73.8896C45.6457 72.4852 43.506 72.6974 42.2699 74.1735C41.7593 74.3327 41.2797 74.5368 40.8483 74.7858L2.78676 96.7607C0.395298 98.1414 0.395299 100.38 2.78676 101.761Z"/>
</mask>
<path fill-rule="evenodd" clip-rule="evenodd" d="M2.78676 101.761L41.15 123.91L41.15 190.367C41.15 194.785 44.2518 200.158 48.0782 202.367L134.747 252.405C131.207 254.806 128.429 259.842 128.429 264.022V317.714C128.429 329.312 136.572 334.013 146.616 328.214L175.101 311.768C185.145 305.969 193.288 291.866 193.288 280.268V226.576C193.288 226.394 193.282 226.215 193.272 226.042V165.717C193.272 161.299 190.17 155.926 186.344 153.717L48.0782 73.8896C45.6457 72.4852 43.506 72.6974 42.2699 74.1735C41.7593 74.3327 41.2797 74.5368 40.8483 74.7858L2.78676 96.7607C0.395298 98.1414 0.395299 100.38 2.78676 101.761Z" fill="#141414"/>
<path d="M41.15 123.91L42.15 123.91L42.15 123.332L41.65 123.044L41.15 123.91ZM2.78676 101.761L2.28676 102.627L2.28676 102.627L2.78676 101.761ZM41.15 190.367L40.15 190.367V190.367H41.15ZM48.0782 202.367L47.5782 203.233L47.5782 203.233L48.0782 202.367ZM134.747 252.405L135.308 253.233L136.629 252.337L135.247 251.539L134.747 252.405ZM146.616 328.214L146.116 327.348L146.116 327.348L146.616 328.214ZM175.101 311.768L174.601 310.902L174.601 310.902L175.101 311.768ZM193.272 226.042H192.272V226.072L192.274 226.102L193.272 226.042ZM186.344 153.717L185.844 154.583L185.844 154.583L186.344 153.717ZM48.0782 73.8896L47.5782 74.7556L47.5782 74.7556L48.0782 73.8896ZM42.2699 74.1735L42.5676 75.1282L42.848 75.0407L43.0366 74.8155L42.2699 74.1735ZM40.8483 74.7858L41.3483 75.6519L41.3483 75.6519L40.8483 74.7858ZM2.78676 96.7607L2.28676 95.8947L2.28676 95.8947L2.78676 96.7607ZM41.65 123.044L3.28676 100.895L2.28676 102.627L40.65 124.776L41.65 123.044ZM42.15 190.367L42.15 123.91L40.15 123.91L40.15 190.367L42.15 190.367ZM48.5782 201.501C46.8528 200.505 45.2345 198.755 44.0452 196.696C42.856 194.636 42.15 192.359 42.15 190.367H40.15C40.15 192.793 40.9949 195.412 42.3132 197.696C43.6315 199.979 45.4772 202.02 47.5782 203.233L48.5782 201.501ZM135.247 251.539L48.5782 201.501L47.5782 203.233L134.247 253.271L135.247 251.539ZM129.429 264.022C129.429 262.139 130.061 259.999 131.138 258.026C132.215 256.054 133.695 254.327 135.308 253.233L134.186 251.578C132.259 252.885 130.58 254.875 129.383 257.067C128.187 259.257 127.429 261.725 127.429 264.022H129.429ZM129.429 317.714V264.022H127.429V317.714H129.429ZM146.116 327.348C141.276 330.142 137.129 330.28 134.256 328.622C131.383 326.963 129.429 323.303 129.429 317.714H127.429C127.429 323.723 129.546 328.212 133.256 330.354C136.966 332.496 141.912 332.085 147.116 329.08L146.116 327.348ZM174.601 310.902L146.116 327.348L147.116 329.08L175.601 312.634L174.601 310.902ZM192.288 280.268C192.288 285.85 190.321 292.104 187.095 297.693C183.868 303.281 179.435 308.111 174.601 310.902L175.601 312.634C180.811 309.626 185.471 304.505 188.827 298.693C192.183 292.881 194.288 286.284 194.288 280.268H192.288ZM192.288 226.576V280.268H194.288V226.576H192.288ZM192.274 226.102C192.283 226.255 192.288 226.413 192.288 226.576H194.288C194.288 226.374 194.282 226.176 194.27 225.982L192.274 226.102ZM192.272 165.717V226.042H194.272V165.717H192.272ZM185.844 154.583C187.569 155.579 189.187 157.329 190.377 159.389C191.566 161.449 192.272 163.725 192.272 165.717H194.272C194.272 163.291 193.427 160.672 192.109 158.389C190.79 156.105 188.945 154.064 186.844 152.851L185.844 154.583ZM47.5782 74.7556L185.844 154.583L186.844 152.851L48.5782 73.0236L47.5782 74.7556ZM43.0366 74.8155C43.8436 73.8518 45.3853 73.4896 47.5782 74.7556L48.5782 73.0236C45.9061 71.4808 43.1684 71.5429 41.5032 73.5315L43.0366 74.8155ZM41.3483 75.6519C41.7075 75.4445 42.1178 75.2684 42.5676 75.1282L41.9722 73.2188C41.4008 73.397 40.8518 73.6291 40.3483 73.9198L41.3483 75.6519ZM3.28676 97.6267L41.3483 75.6519L40.3483 73.9198L2.28676 95.8947L3.28676 97.6267ZM3.28676 100.895C2.27321 100.309 1.99316 99.6823 1.99316 99.2607C1.99316 98.8391 2.27321 98.2119 3.28676 97.6267L2.28676 95.8947C0.908849 96.6902 -0.00683613 97.8727 -0.00683594 99.2607C-0.00683574 100.649 0.90885 101.831 2.28676 102.627L3.28676 100.895Z" fill="#060606" mask="url(#path-3-inside-2_3753_37169)"/>
</mask>
<g mask="url(#mask0_3753_37169)">
<path d="M128.432 202.678C128.432 198.259 131.534 192.887 135.36 190.678L200.045 153.332C203.871 151.123 206.973 152.914 206.973 157.332L206.973 281.35C206.973 292.948 198.83 307.051 188.786 312.85L146.618 337.196C136.574 342.995 128.432 338.294 128.432 326.696L128.432 202.678Z" fill="#141414"/>
</g>
<mask id="path-6-inside-3_3753_37169" fill="white">
<path fill-rule="evenodd" clip-rule="evenodd" d="M2.88832 98.3373C0.496862 96.9566 0.49686 94.718 2.88832 93.3373L37.9371 73.1019C40.3285 71.7212 44.2058 71.7212 46.5973 73.1019L47.1526 73.4226C47.4554 73.5507 47.7644 73.705 48.0782 73.8862L186.344 153.714C190.17 155.923 193.272 161.295 193.272 165.714V226.072C193.281 226.235 193.286 226.402 193.286 226.573V281.214C193.286 292.812 185.143 306.915 175.099 312.714L146.614 329.16C136.57 334.959 128.427 330.258 128.427 318.66V264.019C128.427 259.838 131.205 254.802 134.746 252.401L48.0782 202.364C44.2518 200.155 41.15 194.782 41.15 190.364L41.15 120.428L2.88832 98.3373Z"/>
</mask>
<path d="M2.88832 93.3373L2.38832 92.4713L2.38832 92.4713L2.88832 93.3373ZM2.88832 98.3373L2.38832 99.2034L2.38832 99.2034L2.88832 98.3373ZM37.9371 73.1019L37.4371 72.2359L37.4371 72.2359L37.9371 73.1019ZM46.5973 73.1019L47.0973 72.2359L47.0973 72.2359L46.5973 73.1019ZM47.1526 73.4226L46.6526 74.2886L46.7061 74.3194L46.7629 74.3435L47.1526 73.4226ZM48.0782 73.8862L47.5782 74.7522L47.5782 74.7522L48.0782 73.8862ZM186.344 153.714L185.844 154.58L185.844 154.58L186.344 153.714ZM193.272 226.072H192.272V226.1L192.273 226.128L193.272 226.072ZM175.099 312.714L175.599 313.58L175.599 313.58L175.099 312.714ZM146.614 329.16L147.114 330.026L147.114 330.026L146.614 329.16ZM134.746 252.401L135.307 253.229L136.628 252.333L135.246 251.535L134.746 252.401ZM48.0782 202.364L48.5782 201.498L48.5782 201.498L48.0782 202.364ZM41.15 190.364L40.15 190.364V190.364H41.15ZM41.15 120.428L42.15 120.428L42.15 119.85L41.65 119.562L41.15 120.428ZM2.38832 92.4713C1.01041 93.2668 0.0947257 94.4493 0.0947266 95.8373C0.0947274 97.2253 1.01041 98.4078 2.38832 99.2034L3.38833 97.4713C2.37477 96.8861 2.09473 96.259 2.09473 95.8373C2.09473 95.4157 2.37477 94.7885 3.38832 94.2034L2.38832 92.4713ZM37.4371 72.2359L2.38832 92.4713L3.38832 94.2034L38.4371 73.968L37.4371 72.2359ZM47.0973 72.2359C45.7138 71.4371 43.9634 71.0664 42.2672 71.0664C40.571 71.0664 38.8206 71.4371 37.4371 72.2359L38.4371 73.968C39.445 73.386 40.829 73.0664 42.2672 73.0664C43.7054 73.0664 45.0894 73.386 46.0973 73.968L47.0973 72.2359ZM47.6526 72.5565L47.0973 72.2359L46.0973 73.968L46.6526 74.2886L47.6526 72.5565ZM48.5782 73.0201C48.2312 72.8198 47.8855 72.6468 47.5424 72.5016L46.7629 74.3435C47.0253 74.4545 47.2975 74.5901 47.5782 74.7522L48.5782 73.0201ZM186.844 152.848L48.5782 73.0201L47.5782 74.7522L185.844 154.58L186.844 152.848ZM194.272 165.714C194.272 163.288 193.427 160.669 192.109 158.385C190.79 156.102 188.945 154.061 186.844 152.848L185.844 154.58C187.569 155.576 189.187 157.325 190.377 159.385C191.566 161.445 192.272 163.721 192.272 165.714H194.272ZM194.272 226.072V165.714H192.272V226.072H194.272ZM192.273 226.128C192.281 226.272 192.286 226.42 192.286 226.573H194.286C194.286 226.384 194.28 226.198 194.27 226.016L192.273 226.128ZM192.286 226.573V281.214H194.286V226.573H192.286ZM192.286 281.214C192.286 286.796 190.32 293.05 187.093 298.639C183.866 304.227 179.433 309.057 174.599 311.848L175.599 313.58C180.809 310.572 185.469 305.451 188.825 299.639C192.181 293.826 194.286 287.23 194.286 281.214H192.286ZM174.599 311.848L146.114 328.294L147.114 330.026L175.599 313.58L174.599 311.848ZM146.114 328.294C141.274 331.088 137.127 331.226 134.254 329.568C131.381 327.909 129.427 324.249 129.427 318.66H127.427C127.427 324.669 129.544 329.158 133.254 331.3C136.964 333.442 141.91 333.031 147.114 330.026L146.114 328.294ZM129.427 318.66V264.019H127.427V318.66H129.427ZM129.427 264.019C129.427 262.135 130.059 259.995 131.136 258.022C132.213 256.05 133.694 254.323 135.307 253.229L134.185 251.574C132.257 252.88 130.578 254.871 129.381 257.063C128.185 259.253 127.427 261.722 127.427 264.019H129.427ZM47.5782 203.23L134.246 253.267L135.246 251.535L48.5782 201.498L47.5782 203.23ZM40.15 190.364C40.15 192.79 40.9949 195.409 42.3132 197.692C43.6315 199.975 45.4772 202.017 47.5782 203.23L48.5782 201.498C46.8528 200.501 45.2345 198.752 44.0452 196.692C42.856 194.632 42.15 192.356 42.15 190.364H40.15ZM40.15 120.428L40.15 190.364L42.15 190.364L42.15 120.428L40.15 120.428ZM2.38832 99.2034L40.65 121.294L41.65 119.562L3.38832 97.4713L2.38832 99.2034Z" fill="#060606" mask="url(#path-6-inside-3_3753_37169)"/>
<path d="M6.9282 94.8965L149.086 176.971C152.673 179.043 155.581 184.079 155.581 188.221L155.581 306.038C155.581 327.854 140.266 336.696 121.373 325.788L20.7846 267.713C9.54474 261.224 0.433009 245.442 0.43301 232.463L0.433013 98.6465C0.433013 94.5043 3.34101 92.8254 6.9282 94.8965Z" fill="#F4F4F4" stroke="#060606"/>
<mask id="mask1_3753_37169" style="mask-type:alpha" maskUnits="userSpaceOnUse" x="0" y="93" width="157" height="239">
<path d="M6.9282 94.8926L149.086 176.968C152.673 179.039 155.581 184.075 155.581 188.218L155.581 306.034C155.581 327.85 140.266 336.692 121.373 325.784L20.7846 267.709C9.54474 261.22 0.433009 245.438 0.43301 232.459L0.433013 98.6426C0.433013 94.5004 3.34101 92.8215 6.9282 94.8926Z" fill="#B0F127" stroke="#060606"/>
</mask>
<g mask="url(#mask1_3753_37169)">
<rect width="247.334" height="64.6322" transform="matrix(0.866025 0.5 -2.20305e-08 1 -20.9082 78.3223)" fill="white"/>
</g>
<path d="M6.9282 94.8965L149.086 176.971C152.673 179.043 155.581 184.079 155.581 188.221L155.581 306.038C155.581 327.854 140.266 336.696 121.373 325.788L20.7846 267.713C9.54474 261.224 0.433009 245.442 0.43301 232.463L0.433013 98.6465C0.433013 94.5043 3.34101 92.8254 6.9282 94.8965Z" stroke="#060606"/>
<circle r="45.4678" transform="matrix(0.866025 0.5 -2.20305e-08 1 72.3606 218.34)" fill="#939393" stroke="#060606"/>
<mask id="mask2_3753_37169" style="mask-type:alpha" maskUnits="userSpaceOnUse" x="32" y="166" width="81" height="104">
<circle r="45.4678" transform="matrix(0.866025 0.5 -2.20305e-08 1 72.3606 218.34)" fill="#939393" stroke="#060606"/>
</mask>
<g mask="url(#mask2_3753_37169)">
<rect width="247.334" height="64.7852" transform="matrix(0.866025 0.5 -2.20305e-08 1 -17.8672 80.1738)" fill="#E7E7E7"/>
</g>
<circle r="45.4678" transform="matrix(0.866025 0.5 -2.20305e-08 1 72.3606 218.34)" stroke="#060606"/>
<circle r="35.712" transform="matrix(0.866025 0.5 -2.20305e-08 1 72.3625 218.343)" fill="#060606" stroke="#060606"/>
<circle r="33.0914" transform="matrix(0.866025 0.5 -2.20305e-08 1 74.632 219.655)" fill="white" stroke="#060606"/>
<rect x="0.433013" y="0.75" width="9.92625" height="30.9868" rx="4.96313" transform="matrix(0.866025 0.5 -2.20305e-08 1 67.6869 200.711)" fill="#060606" stroke="#060606"/>
<path d="M33.0051 44.935L33.2065 96.6924C33.2065 98.4886 34.3915 100.285 36.7616 101.646C39.4099 102.981 42.3386 103.667 45.3054 103.647C48.2722 103.628 51.1916 102.904 53.8222 101.534C56.1923 100.151 57.3549 98.3324 57.3437 96.5361L57.1538 44.8011C57.1538 35.7751 59.658 29.1143 64.1188 26.5259C68.5796 23.9375 75.6454 25.0085 83.4937 29.4937L96.8424 37.1139C117.749 49.0631 135.48 79.4548 135.57 103.487L135.76 155.244C135.76 157.041 136.956 158.837 139.326 160.198C142.763 161.977 146.677 162.626 150.506 162.05C152.589 161.81 154.604 161.158 156.431 160.131C157.022 159.795 157.573 159.395 158.075 158.937C158.64 158.472 159.1 157.893 159.424 157.237C159.748 156.581 159.928 155.864 159.953 155.133L159.763 103.398C159.696 87.6775 154.419 70.0048 144.871 53.6598C135.324 37.3147 122.511 24.0044 108.861 16.1945L95.5233 8.56313C88.7013 4.49634 81.0689 1.97137 73.1635 1.16603C65.7857 0.456118 58.368 2.034 51.9216 5.6846C45.5667 9.4734 40.5378 15.1269 37.5218 21.8734C34.3382 29.1366 32.7961 37.0101 33.0051 44.935Z" fill="#060606" stroke="#060606" stroke-linecap="round" stroke-linejoin="round"/>
</svg>
