<svg width="113" height="106" viewBox="0 0 113 106" fill="none" xmlns="http://www.w3.org/2000/svg">
<g clip-path="url(#clip0_3753_37770)">
<circle cx="56.3516" cy="55.6562" r="50" fill="#141414"/>
<circle cx="56.3516" cy="55.6562" r="50" fill="#141414"/>
<path d="M85.2684 100.872L59.54 56.4433C59.1951 55.8477 59.4382 55.3081 59.9249 55.5891L71.5557 62.3041C71.8571 62.4781 72.1013 62.3371 72.1013 61.9891L72.1013 32.0616C72.1013 31.7137 72.3456 31.5727 72.6469 31.7466L98.592 46.726C98.8933 46.9 99.1376 47.3231 99.1376 47.671L99.1376 77.5985C99.1376 77.9465 99.3818 78.3695 99.6832 78.5435L111.382 85.2976C111.868 85.5786 112.111 86.399 111.767 86.5964L86.0382 101.317C85.8253 101.439 85.4812 101.24 85.2684 100.872Z" fill="#060606" stroke="#060606" stroke-width="1.5" stroke-linecap="round" stroke-linejoin="round"/>
<rect width="8.61666" height="7.79411" rx="0.63382" transform="matrix(0.866025 -0.5 0.866025 0.5 64.5117 34.9512)" fill="#060606"/>
<rect width="8.61666" height="18.145" rx="0.63382" transform="matrix(0.866025 -0.5 0.866025 0.5 51.7988 58.7617)" fill="#060606"/>
<path d="M78.4637 104.654L52.7353 60.2246C52.3904 59.629 52.6336 59.0894 53.1202 59.3703L64.751 66.0854C65.0524 66.2594 65.2966 66.1183 65.2966 65.7704L65.2966 35.8429C65.2966 35.495 65.5409 35.3539 65.8422 35.5279L91.7873 50.5073C92.0886 50.6812 92.3329 51.1043 92.3329 51.4523L92.3329 81.3798C92.3329 81.7277 92.5771 82.1508 92.8785 82.3248L104.577 89.0789C105.064 89.3599 105.307 90.1803 104.962 90.3776L79.2335 105.098C79.0206 105.22 78.6765 105.021 78.4637 104.654Z" fill="white" stroke="#060606" stroke-width="1.5" stroke-linecap="round" stroke-linejoin="round"/>
<path d="M53.2734 51.711L59.8394 47.7991L32.9615 2.16406L25.5537 6.40274L53.2734 51.711Z" fill="#060606" stroke="#060606" stroke-width="1.5" stroke-linecap="round" stroke-linejoin="round"/>
<path d="M7.9824 17.9015L19.6937 24.663C19.9969 24.8381 20.2426 25.2637 20.2426 25.6138L20.2426 55.4695C20.2426 55.8246 20.4952 56.2563 20.8027 56.4266L46.7384 70.7925C47.0371 70.958 47.2762 70.8143 47.2762 70.4693L47.2762 41.2216C47.2762 40.8715 47.5219 40.7297 47.8251 40.9047L59.4606 47.6225C59.9506 47.9054 60.1951 47.3614 59.8473 46.762L34.0103 2.23707C33.7957 1.86726 33.4493 1.66802 33.2355 1.79145L7.59426 16.5954C7.24847 16.7951 7.49338 17.6192 7.9824 17.9015Z" fill="#060606" stroke="#060606" stroke-width="1.5" stroke-linecap="round"/>
<path d="M1.32517 21.8624L13.0365 28.624C13.3396 28.799 13.5854 29.2247 13.5854 29.5747L13.5854 59.4435C13.5854 59.7935 13.8311 60.2192 14.1343 60.3942L40.07 75.3682C40.3732 75.5432 40.6189 75.4014 40.6189 75.0513L40.6189 45.1825C40.6189 44.8325 40.8647 44.6906 41.1678 44.8656L52.8034 51.5834C53.2934 51.8663 53.5378 51.3223 53.19 50.7229L27.3531 6.19801C27.1385 5.8282 26.7921 5.62896 26.5783 5.75239L0.937038 20.5564C0.591247 20.756 0.836151 21.5801 1.32517 21.8624Z" fill="#B0F127" stroke="#060606" stroke-width="1.5" stroke-linecap="round"/>
<rect width="8.66928" height="8.37134" rx="0.63382" transform="matrix(0.866025 -0.5 2.20305e-08 1 40.5137 68.2285)" fill="#060606"/>
</g>
<defs>
<clipPath id="clip0_3753_37770">
<rect width="113" height="106" fill="white"/>
</clipPath>
</defs>
</svg>
