<svg width="143" height="37" viewBox="0 0 143 37" fill="none" xmlns="http://www.w3.org/2000/svg">
<path d="M46.7702 14.6717C46.7702 12.1222 44.291 9.41446 40.0008 9.41446C35.1831 9.41446 29.8906 12.9486 29.0818 19.9993C28.2554 27.1204 32.6863 30.2853 37.1524 30.2853C41.6184 30.2853 43.9569 28.5446 46.3482 26.2237C44.291 23.639 41.636 24.8346 41.1261 25.0984C40.5634 25.3797 39.8425 25.7665 38.3656 25.7665C36.6425 25.7665 34.8842 24.9929 34.8842 21.7752C45.9262 20.6851 46.7702 17.2213 46.7702 14.6717ZM41.3019 15.0937C41.2316 15.885 40.9151 17.2388 35.3237 17.9949C36.5018 13.8102 38.7524 13.4937 39.7898 13.4937C40.7568 13.4937 41.3722 14.2497 41.3019 15.0937ZM22.5937 15.7795C22.5937 15.7795 20.2201 23.2346 20.0266 23.85C19.9563 23.217 18.2156 9.83645 18.2156 9.83645C14.1716 9.83645 12.0089 12.72 10.866 15.7619C10.866 15.7619 7.98238 23.2346 7.73622 23.8676C7.71864 23.2873 7.29665 15.8498 7.29665 15.8498C7.05049 12.1222 3.63942 9.85403 0.878906 9.85403L4.21965 30.1271C8.45712 30.1095 10.7429 27.2435 11.9385 24.2016C11.9385 24.2016 14.488 17.6081 14.5935 17.3092C14.6111 17.5905 16.4222 30.1271 16.4222 30.1271C20.6772 30.1271 22.963 27.4369 24.1938 24.5006L30.1544 9.85403C25.9521 9.85403 23.7366 12.72 22.5937 15.7795ZM62.3838 9.3793C59.7639 9.3793 57.7595 10.8035 56.0715 12.8959V12.8783L57.5836 0.693359C54.1022 0.693359 51.2714 3.71761 50.7263 8.21883L48.0889 29.9688C50.0933 29.9688 52.2209 29.3886 53.3638 27.9116C54.3836 29.2304 55.9133 30.2853 58.1815 30.2853C64.0541 30.2853 68.0806 23.4632 68.0806 17.063C68.0455 11.2255 65.2146 9.3793 62.3838 9.3793ZM61.8387 19.8411C61.2233 23.4104 59.2364 25.8369 57.3199 25.8369C55.3858 25.8369 54.5594 24.9753 54.5594 24.9753C54.9286 21.8455 55.1572 19.929 55.8605 18.2762C56.5638 16.6234 58.2342 13.986 59.9749 13.986C61.6805 13.986 62.4541 16.2542 61.8387 19.8411ZM82.7447 9.85403H78.6479L78.6655 9.64304C78.9468 6.97044 79.5798 5.56381 81.6722 5.33524C83.0964 5.19457 83.7294 4.45609 83.8876 3.64728C84.0107 3.0143 84.3975 0.816439 84.3975 0.816439C76.1687 0.763691 73.5841 4.31543 72.9159 9.73095L72.8983 9.85403H72.8104C71.4741 9.85403 69.9972 11.3662 69.751 13.2827L69.6631 13.986H72.406L70.1026 33.0107L69.3993 36.4217C69.4873 36.4217 69.5927 36.4393 69.6807 36.4393C73.5313 36.2987 75.9929 33.2568 76.538 28.8435L78.3314 13.986H79.615C80.8809 13.986 82.3579 12.72 82.6216 10.6101L82.7447 9.85403ZM104.055 9.50237C99.3254 9.50237 94.8593 12.9838 93.4879 18.4521C92.1164 23.9203 94.1912 30.3908 101.154 30.3908C108.099 30.3908 112.108 23.6566 112.108 18.0476C112.108 12.4739 108.328 9.50237 104.055 9.50237ZM105.972 19.6653C105.726 22.1445 104.635 25.9072 101.646 25.9072C98.6396 25.9072 99.0616 21.5115 99.3605 19.4191C99.677 17.1861 100.925 14.0036 103.616 14.0036C106.024 14.0036 106.253 16.8696 105.972 19.6653ZM135.476 15.7795C135.476 15.7795 133.102 23.2346 132.909 23.85C132.838 23.217 131.098 9.83645 131.098 9.83645C127.054 9.83645 124.891 12.72 123.748 15.7619C123.748 15.7619 120.864 23.2346 120.618 23.8676C120.601 23.2873 120.179 15.8498 120.179 15.8498C119.932 12.1222 116.521 9.85403 113.761 9.85403L117.084 30.1271C121.322 30.1095 123.607 27.2435 124.803 24.2016C124.803 24.2016 127.352 17.6081 127.44 17.3092C127.476 17.5905 129.269 30.1271 129.269 30.1271C133.524 30.1271 135.81 27.4369 137.041 24.5006L143.001 9.85403C138.816 9.85403 136.601 12.72 135.476 15.7795ZM86.613 0.816439L83.1667 28.615L82.4634 32.0436C82.5513 32.0436 82.6568 32.0612 82.7447 32.0612C86.4547 32.0084 89.0921 28.7556 89.5845 24.6588L91.5713 8.71115C92.1691 3.84069 89.268 0.816439 86.613 0.816439Z" fill="#939393"/>
</svg>
