<svg width="149" height="37" viewBox="0 0 149 37" fill="none" xmlns="http://www.w3.org/2000/svg">
<path d="M16.0089 0.607181C14.0839 0.82522 11.1963 1.73092 9.55343 2.63662C5.13917 5.03505 2.15207 8.77526 0.658524 13.7566C0.359814 14.7294 0.0113195 17.3794 0.0279145 18.6206C0.0279145 19.7108 0.359814 22.3775 0.558954 23.0149C0.658524 23.3168 0.874258 24.038 1.0568 24.5915C1.35551 25.5307 2.79928 28.4826 3.0482 28.6839C3.09799 28.7342 3.36351 29.0697 3.61243 29.4554C4.22644 30.3779 5.83616 32.0216 7.04759 32.9608C7.97691 33.682 10.5989 35.2083 10.9308 35.2251C11.0138 35.2251 11.0304 34.5877 10.9806 33.7491C10.8644 31.8874 11.2129 29.3548 11.9597 26.7719C12.0925 26.3358 12.192 25.7655 12.192 25.5139C12.192 25.2624 12.2584 24.994 12.3414 24.9101C12.4244 24.8095 12.5737 24.3231 12.6567 23.82C12.7563 23.3168 12.9222 22.5453 13.0384 22.1092C13.2043 21.4551 13.1877 21.2035 12.9554 20.499C12.6235 19.4256 12.6069 17.6813 12.9388 16.8427C13.7188 14.8468 14.5817 14.0921 16.0421 14.0921C17.8011 14.0921 18.6475 15.4338 18.3156 17.6813C18.1662 18.7044 17.7514 20.3146 17.4858 20.8177C17.4195 20.9687 17.3033 21.388 17.2535 21.7402C17.1871 22.1092 17.0544 22.6291 16.9714 22.9143C16.7391 23.5684 17.1871 24.8431 17.7845 25.3295C18.3488 25.7823 19.527 25.9165 20.6057 25.6649C21.3691 25.4972 21.6844 25.2959 22.4809 24.5244C23.4268 23.5851 24.1404 22.4949 24.1404 21.975C24.1404 21.8241 24.2234 21.6228 24.323 21.5222C24.7876 21.0525 25.0365 17.3962 24.6881 15.8531C24.3064 14.1591 23.1281 12.4987 21.6014 11.5259C20.0746 10.5363 16.9216 10.2512 14.98 10.9221C13.6192 11.3917 12.4078 12.18 11.6278 13.1025C10.9308 13.9243 10.2006 15.2661 10.2006 15.7357C10.2006 15.9035 10.1177 16.1215 10.0181 16.2221C9.91852 16.3228 9.80236 16.9601 9.75257 17.6478C9.6696 18.6709 9.73598 19.1405 10.0347 20.1468C10.2338 20.8345 10.5989 21.6396 10.8146 21.9415C11.2627 22.5453 11.2627 22.7801 10.8478 24.3902C10.7317 24.8263 10.5325 25.2288 10.4164 25.2791C9.37089 25.6817 7.24673 23.1491 6.53315 20.6332C6.26763 19.6772 6.25103 16.2724 6.51655 15.2661C6.63272 14.8468 6.83186 14.2766 6.96462 13.9747C7.09738 13.6895 7.21354 13.4044 7.21354 13.3373C7.21354 13.2702 7.54544 12.7 7.96031 12.0794C10.1177 8.79203 13.6192 7.04772 18.0501 7.04772C19.0624 7.04772 20.1078 7.11481 20.39 7.19867C22.6801 7.91988 23.2941 8.15469 24.1902 8.6914C25.9327 9.74805 27.1939 11.1905 28.4551 13.6057C28.5381 13.7566 28.6543 14.1591 28.704 14.4946C28.7704 14.83 28.8866 15.1487 28.9696 15.199C29.0525 15.2493 29.1189 16.3395 29.1189 17.631C29.1189 19.9623 28.953 20.9016 28.256 22.8136C27.476 24.9101 25.468 27.2247 23.6426 28.1304C22.5971 28.6336 20.6389 29.1871 19.8589 29.1871C18.8134 29.1871 16.7557 28.3149 16.1914 27.6105C15.9259 27.2918 15.677 27.4092 15.677 27.8621C15.677 28.0298 15.6106 28.3149 15.511 28.4826C15.4281 28.6336 15.2787 29.1032 15.1957 29.5225C14.7145 31.7364 14.0341 33.5311 12.9886 35.2083C12.6733 35.7282 12.9388 36.0301 13.8017 36.1475C14.2332 36.2146 14.814 36.332 15.0796 36.4159C15.7434 36.6339 19.3445 36.6004 20.5559 36.3824C21.6512 36.1811 23.4268 35.6779 24.2234 35.3425C29.2351 33.2627 33.0353 29.0361 34.6782 23.6522C35.5578 20.7842 35.6075 17.4465 34.811 14.0921C34.5455 13.0019 34.4625 12.7503 33.7489 11.0731C32.72 8.62431 30.3967 5.75626 28.0402 3.99517C26.0156 2.48567 24.0243 1.61352 20.921 0.858765C20.0581 0.657498 16.988 0.489775 16.0089 0.607181ZM60.2677 6.66196C59.6205 6.76259 58.5916 7.83601 58.3261 8.67463C58.044 9.5971 58.3261 10.5867 59.1226 11.3582C60.8817 13.0857 63.9352 11.4588 63.5535 8.97653C63.3212 7.39994 61.894 6.3936 60.2677 6.66196ZM42.1792 7.65152C42.0298 7.81924 42.0298 28.0466 42.1958 28.2814C42.2787 28.4155 42.9923 28.4659 44.3863 28.4491L46.4607 28.4323L46.5436 25.0276C46.61 22.2601 46.6764 21.5892 46.8755 21.4718C47.0083 21.388 48.1368 21.3041 49.3814 21.3041C52.103 21.3041 53.248 21.1029 54.4926 20.432C56.1189 19.543 57.0649 18.2683 57.5793 16.2389C57.8946 14.9642 57.8946 14.0417 57.5627 12.7335C57.264 11.5594 57.1312 11.2743 56.4177 10.3183C55.5381 9.12748 54.642 8.47336 53.1816 7.95342C52.3685 7.68506 51.6881 7.63475 47.2904 7.58443C44.5522 7.55089 42.2455 7.58443 42.1792 7.65152ZM51.2898 11.8278C52.4017 12.18 52.9493 12.6832 53.1982 13.5889C53.5135 14.7797 53.2812 15.8867 52.5842 16.5576C51.8208 17.2788 51.1404 17.4465 48.9167 17.4465C47.4564 17.4465 47.0083 17.3962 46.8092 17.1781C46.5934 16.9769 46.5436 16.4905 46.5436 14.5785C46.5436 11.5594 46.527 11.5762 48.8337 11.5762C49.8294 11.5762 50.792 11.6769 51.2898 11.8278ZM80.3974 10.8382C80.3974 11.9955 80.3144 13.0857 80.2314 13.2702C80.1153 13.4883 79.883 13.5889 79.4847 13.5889C79.186 13.5889 78.9039 13.656 78.8707 13.7566C78.8541 13.8405 78.8541 14.4275 78.9038 15.0481C78.9868 16.155 79.0034 16.1718 79.5013 16.2892C79.7834 16.3395 80.0987 16.4402 80.1983 16.5073C80.3476 16.5911 80.3974 17.9161 80.3974 21.2706C80.3974 25.7823 80.414 25.95 80.7791 26.6209C81.5424 28.0466 82.7373 28.5497 85.1602 28.4826L86.7865 28.4323L86.8363 26.8054L86.886 25.1617H86.4712C85.8406 25.1617 84.9112 24.6586 84.8117 24.256C84.7619 24.0548 84.7121 22.2769 84.7121 20.281C84.7121 17.5304 84.7619 16.6079 84.9278 16.4737C85.044 16.3731 85.5087 16.2724 85.9567 16.2389L86.7865 16.1886V13.6728L85.8737 13.6224C85.3759 13.5889 84.9112 13.4715 84.8449 13.3709C84.7785 13.2534 84.7121 12.1632 84.7121 10.9389V8.72494H80.3974V10.8382ZM142.081 8.82558C142.015 8.89266 141.965 9.94932 141.965 11.1737C141.965 13.5553 141.948 13.5889 141.035 13.5889C140.621 13.5889 140.621 13.6057 140.67 14.8804C140.72 16.155 140.737 16.1886 141.168 16.2389C141.401 16.2724 141.683 16.3899 141.766 16.4905C141.865 16.6079 141.965 18.6373 142.015 21.2203C142.064 23.7025 142.147 25.9668 142.214 26.2352C142.413 26.9731 143.442 27.9124 144.421 28.2311C145.516 28.6 148.304 28.6336 148.586 28.2814C148.719 28.1304 148.769 27.5266 148.736 26.6545L148.686 25.2456L148.105 25.145C147.474 25.0443 146.761 24.7089 146.578 24.4238C146.512 24.3231 146.445 22.4949 146.445 20.3649C146.445 15.9873 146.346 16.2724 147.79 16.2724C148.736 16.2724 148.818 16.1047 148.736 14.5785L148.686 13.6728L147.607 13.5889L146.528 13.505L146.445 11.1569L146.362 8.8088L144.271 8.75849C143.126 8.74171 142.147 8.77526 142.081 8.82558ZM72.1829 13.1864C71.3697 13.4044 70.4238 13.9579 69.7932 14.612C69.0298 15.4171 68.8307 15.3667 68.7477 14.3436L68.6979 13.6728H64.5492V28.4323L66.6402 28.4659C68.6979 28.5162 68.7477 28.4994 68.8473 28.1304C68.8971 27.9291 68.9469 25.7991 68.9469 23.3839C68.9469 18.6038 68.9635 18.4696 69.9426 17.5304C70.374 17.1111 70.6064 17.0272 71.5357 16.9769L72.6144 16.9098L73.2616 17.5975C74.0249 18.4025 73.942 17.631 74.0083 24.5747C74.0249 26.4196 74.0415 28.0466 74.0581 28.2143C74.0913 28.4491 74.3568 28.4826 76.2155 28.4491L78.323 28.4323V16.6582L77.8418 15.7022C77.012 14.0417 75.7342 13.2534 73.776 13.1528C73.079 13.136 72.3654 13.136 72.1829 13.1864ZM92.9266 13.1864C91.1344 13.6727 90.2714 14.1591 89.1596 15.2661C87.666 16.7924 86.9856 18.5702 86.9856 20.9687C87.0022 25.1785 89.6076 28.2981 93.4577 28.6671C96.7435 28.9858 99.2825 28.013 100.909 25.8158C101.141 25.4972 101.639 24.4741 101.639 24.2896C101.639 24.2225 100.676 24.1554 99.5148 24.1554H97.3907L96.8928 24.6753C96.312 25.2791 95.4988 25.6649 94.7521 25.6649C94.0053 25.6649 92.8602 25.1282 92.3292 24.5579C91.9309 24.1051 91.3501 22.7968 91.3501 22.344C91.3501 22.193 92.5615 22.1427 96.4613 22.1427C99.2659 22.1427 101.639 22.0756 101.755 22.0086C102.004 21.8408 101.772 19.174 101.407 18.2013C100.66 16.1718 99.2493 14.461 97.8221 13.8572C97.4073 13.6895 96.926 13.4715 96.76 13.3876C96.4116 13.2031 93.4576 13.0522 92.9266 13.1864ZM96.1626 16.8595C96.8098 17.3123 97.3741 18.3857 97.2911 18.9895C97.2413 19.3753 97.2081 19.3753 94.4036 19.4256C91.1675 19.4759 91.151 19.4592 91.6654 18.2516C92.0305 17.413 92.7607 16.6582 93.4411 16.4402C94.221 16.1886 95.4822 16.3899 96.1626 16.8595ZM117.487 13.1864C115.562 13.7063 114.218 14.5617 113.172 15.8867C112.758 16.4234 112.426 16.9266 112.426 17.0272C112.426 17.1111 112.31 17.413 112.16 17.6981C112.011 17.9664 111.795 18.8051 111.679 19.5598C111.098 23.1491 112.691 26.5035 115.678 28.013L116.823 28.6H119.23C121.719 28.6 121.935 28.5497 123.461 27.7279C124.573 27.1241 126.399 24.776 126.117 24.3063C126.05 24.2225 125.104 24.1554 123.992 24.1554H121.951L121.536 24.6418C119.877 26.5371 116.774 25.5643 116.11 22.931C116.01 22.5788 116.01 22.2769 116.093 22.2098C116.176 22.1595 118.549 22.126 121.387 22.1427C125.436 22.1427 126.531 22.1092 126.548 21.9415C126.697 19.8449 125.702 16.7421 124.457 15.4003C123.76 14.6455 122.549 13.8069 121.951 13.656C121.686 13.5889 121.387 13.4715 121.271 13.3876C121.039 13.2031 118.002 13.0522 117.487 13.1864ZM120.076 16.4569C120.823 16.7253 121.686 17.6645 121.818 18.3857C122.018 19.4759 122.034 19.4759 118.948 19.4256C116.176 19.3753 116.16 19.3753 116.11 18.9895C116.043 18.5199 116.624 17.3626 117.122 16.9266C117.836 16.3228 119.08 16.1215 120.076 16.4569ZM131.925 13.1864C128.523 14.0082 127.295 15.2326 127.278 17.7819C127.278 20.5326 128.639 21.6899 132.672 22.4111C135.443 22.8975 136.24 23.3336 136.206 24.3902C136.19 25.145 135.675 25.6314 134.646 25.8494C133.352 26.1345 132.34 25.8158 131.527 24.8934L130.879 24.1554H128.871C127.245 24.1554 126.863 24.2057 126.863 24.3902C126.863 24.8766 127.527 26.1513 128.075 26.7886C128.589 27.3421 128.988 27.6105 130.547 28.3652C130.697 28.4491 131.51 28.5833 132.323 28.6839C133.833 28.8684 136.455 28.7007 137.119 28.3652C137.268 28.2981 137.7 28.0801 138.065 27.9124C139.011 27.4595 139.907 26.4364 140.239 25.4636C140.604 24.3567 140.504 22.8136 139.99 21.7402C139.376 20.4823 137.75 19.5766 135.327 19.1405C132.207 18.587 132.157 18.5702 131.659 18.0838C131.062 17.4633 131.062 17.2452 131.659 16.5743C132.141 16.0376 132.174 16.0209 133.501 16.0209C134.829 16.0209 134.862 16.0376 135.343 16.5743C135.609 16.8762 135.825 17.2285 135.825 17.3626C135.825 17.5639 136.173 17.6142 137.899 17.6142C140.189 17.6142 140.123 17.6645 139.724 16.4737C138.994 14.3604 137.119 13.287 133.999 13.1696C133.037 13.136 132.107 13.136 131.925 13.1864ZM109.853 13.5386C109.123 13.7902 108.111 14.6288 107.796 15.2326C107.48 15.8364 107.198 15.5848 107.115 14.5785L107.032 13.6728H102.884L102.834 20.7171C102.817 24.5915 102.834 27.9291 102.884 28.1472C102.967 28.5162 103.016 28.5162 105.008 28.4826C106.153 28.4659 107.082 28.3652 107.149 28.2646C107.215 28.1807 107.281 26.4029 107.281 24.3231C107.281 21.0358 107.314 20.4487 107.597 19.7108C108.177 18.1845 109.422 17.2788 110.982 17.2788C111.413 17.2788 111.596 17.1949 111.646 16.9769C111.762 16.4905 111.779 14.2262 111.679 13.7231C111.579 13.3205 111.496 13.2534 111.048 13.2702C110.75 13.287 110.219 13.4044 109.853 13.5386ZM58.741 13.7902C58.6912 13.9076 58.6746 17.2117 58.6912 21.1364L58.741 28.2646L60.7158 28.3485C61.9106 28.3988 62.7735 28.3652 62.9063 28.2646C63.0888 28.1304 63.1386 26.7048 63.1386 21.0022C63.1552 17.1111 63.1054 13.8405 63.0556 13.7566C62.8897 13.505 58.8239 13.5386 58.741 13.7902Z" fill="#939393"/>
</svg>
