<svg width="119" height="39" viewBox="0 0 119 39" fill="none" xmlns="http://www.w3.org/2000/svg">
<path d="M15.1869 0.148438H16.2337C19.8677 0.228284 23.4426 1.70544 26.0101 4.3204C25.0621 5.29852 24.0943 6.23671 23.1661 7.21483C21.7243 5.89737 19.9862 4.87933 18.0902 4.52002C15.2856 3.92117 12.2638 4.46013 9.9135 6.07702C7.34594 7.77375 5.6079 10.6482 5.23264 13.7223C4.81788 16.7565 5.66715 19.9503 7.62245 22.3058C9.49874 24.6013 12.3626 26.0386 15.3251 26.1384C18.0902 26.2981 20.9738 25.4397 22.9883 23.4835C24.5684 22.1061 25.2991 20.0102 25.5361 17.9741C22.2575 17.9741 18.979 17.9941 15.7004 17.9741V13.862H29.506C30.217 18.2735 29.19 23.244 25.8719 26.3979C23.6598 28.6336 20.5985 29.951 17.4779 30.2105C14.4561 30.51 11.3355 29.9311 8.64947 28.4539C5.43014 26.7173 2.86258 23.7829 1.59855 20.3296C0.413521 17.1557 0.393771 13.5626 1.4998 10.3688C2.50707 7.45437 4.44262 4.87933 6.93118 3.08279C9.32099 1.30621 12.2243 0.328091 15.1869 0.148438Z" fill="#939393"/>
<path d="M94.3867 1.18555H98.6133V29.6906C97.211 29.6906 95.789 29.7106 94.3867 29.6706C94.4065 20.1889 94.3867 10.6872 94.3867 1.18555Z" fill="#939393"/>
<path d="M38.9076 11.0677C41.5147 10.5687 44.339 11.1276 46.4918 12.7045C48.4471 14.1018 49.8099 16.2976 50.2246 18.693C50.7579 21.4676 50.0864 24.5017 48.3088 26.6975C46.393 29.1527 43.2527 30.4702 40.1914 30.2706C37.3868 30.1109 34.6612 28.6936 33.0022 26.3781C31.1259 23.823 30.6716 20.3098 31.6987 17.3156C32.7257 14.1018 35.629 11.6466 38.9076 11.0677ZM39.5001 14.8604C38.4336 15.1398 37.4461 15.7586 36.735 16.6369C34.8192 18.9525 34.9377 22.7252 37.051 24.881C38.2558 26.1186 40.0729 26.6975 41.7517 26.3581C43.312 26.0787 44.6747 25.0207 45.4253 23.6234C46.7288 21.248 46.3535 17.9743 44.3587 16.1179C43.0749 14.9202 41.1986 14.4212 39.5001 14.8604Z" fill="#939393"/>
<path d="M59.8408 11.0672C62.8232 10.4883 66.082 11.3267 68.3138 13.4426C71.9479 16.7363 72.3429 22.9044 69.2421 26.6971C67.3658 29.0925 64.3242 30.41 61.3221 30.2703C58.4583 30.1904 55.634 28.7532 53.9354 26.3778C52.0196 23.7628 51.6049 20.1697 52.6912 17.1156C53.7774 14.0016 56.6215 11.6261 59.8408 11.0672ZM60.4333 14.8599C59.3668 15.1394 58.3793 15.7582 57.6683 16.6165C55.7722 18.8922 55.8512 22.605 57.8855 24.7808C59.0903 26.0783 60.9666 26.7171 62.7047 26.3578C64.2452 26.0584 65.6277 25.0204 66.3783 23.6231C67.662 21.2277 67.2868 17.954 65.2722 16.0975C63.9884 14.8998 62.1121 14.4208 60.4333 14.8599Z" fill="#939393"/>
<path d="M77.6 12.2256C79.8713 10.7884 82.8931 10.3891 85.3422 11.6268C86.1125 11.9661 86.7445 12.545 87.3567 13.1239C87.3765 12.5849 87.3567 12.026 87.3765 11.4671C88.6998 11.487 90.0231 11.4671 91.3661 11.487V29.0931C91.3463 31.748 90.6748 34.5625 88.7788 36.4988C86.705 38.6347 83.5251 39.2934 80.6613 38.8543C77.6 38.3951 74.9337 36.1395 73.7486 33.285C74.9337 32.7061 76.1779 32.247 77.4025 31.708C78.0937 33.3449 79.496 34.7422 81.2538 35.0616C83.0116 35.381 85.0459 34.9418 86.1915 33.4647C87.416 31.9476 87.416 29.8716 87.3567 28.0152C86.4482 28.9134 85.4014 29.7119 84.1374 30.0113C81.3921 30.7898 78.3703 29.8317 76.2569 27.9553C74.1239 26.0789 72.8599 23.1845 72.9784 20.31C73.0376 17.0563 74.8547 13.9223 77.6 12.2256ZM81.6883 14.7807C80.4836 14.9803 79.3578 15.659 78.5875 16.5972C76.731 18.8329 76.731 22.406 78.6073 24.6017C79.6738 25.8992 81.3921 26.6179 83.0511 26.4382C84.6114 26.2785 86.0532 25.2804 86.8235 23.9031C88.127 21.5676 87.9097 18.3937 86.152 16.3576C85.0657 15.1001 83.3276 14.4813 81.6883 14.7807Z" fill="#939393"/>
<path d="M103.686 13.2444C106.056 11.0087 109.71 10.2502 112.751 11.4279C115.635 12.5258 117.472 15.3004 118.4 18.1549C114.114 19.9515 109.848 21.728 105.562 23.5246C106.155 24.6624 107.063 25.7004 108.288 26.1196C110.006 26.7384 112.06 26.5188 113.502 25.361C114.075 24.9219 114.529 24.343 114.964 23.7841C116.05 24.5227 117.136 25.2413 118.222 25.9798C116.682 28.3153 114.094 29.9522 111.31 30.2117C108.229 30.591 104.95 29.3933 102.955 26.958C99.6766 23.1253 99.9926 16.6977 103.686 13.2444ZM105.799 16.9373C105.128 17.9154 104.851 19.1131 104.871 20.2908C107.735 19.0931 110.599 17.8954 113.462 16.6778C112.988 15.5599 111.843 14.8812 110.678 14.7016C108.801 14.3622 106.846 15.3803 105.799 16.9373Z" fill="#939393"/>
</svg>
