<svg width="145" height="29" viewBox="0 0 145 29" fill="none" xmlns="http://www.w3.org/2000/svg">
<path d="M9.48706 28.2249H4.05785V14.5459H0.359375V10.0923H4.05771V6.92324C4.05771 3.16791 5.69349 0.474609 11.108 0.474609C12.2532 0.474609 14.051 0.707898 14.051 0.707898V4.84331H12.1627C10.2386 4.84331 9.48735 5.43483 9.48735 7.07018V10.0923H13.979L13.579 14.5459H9.4872L9.48706 28.2249ZM21.9445 9.73639C21.8654 9.73639 21.784 9.73931 21.7035 9.74134C16.6692 9.74134 14.3659 13.5686 14.3659 19.0015C14.3659 25.8455 17.3536 28.5847 21.7428 28.5847C24.254 28.5847 25.9039 27.5164 26.9067 25.5228V28.2268H32.0707V10.0942H26.9067V12.8827C26.0879 11.0887 24.3919 9.75765 21.9445 9.73639ZM23.2575 14.0211C25.372 14.0211 26.6411 15.5117 26.6411 18.0471L26.646 20.6367C26.646 22.3456 25.5977 24.3449 23.2575 24.3449C19.6598 24.3449 19.7559 20.4186 19.7559 19.1109C19.7559 14.712 21.6728 14.0211 23.2575 14.0211ZM34.1562 19.1614C34.1562 16.958 34.0518 9.74819 43.3458 9.74819C47.0765 9.74819 48.6344 10.9471 48.6344 10.9471L47.3823 14.8721C47.3823 14.8721 45.8265 14.0062 43.7992 14.0062C41.2027 14.0062 39.5459 15.5275 39.5459 18.2042L39.5488 20.1236C39.5488 22.6955 41.1474 24.4124 43.8046 24.4124C45.6514 24.4124 47.3536 23.5384 47.3536 23.5384L48.6025 27.3814C48.6025 27.3814 47.1781 28.5879 43.3719 28.5879C34.5226 28.5879 34.1563 22.1193 34.1563 19.1614H34.1562ZM78.9125 9.74134C83.9469 9.74134 86.2865 13.5686 86.2865 19.0015C86.2865 25.8455 83.2987 28.5847 78.9095 28.5847C76.3982 28.5847 74.5419 27.5166 73.539 25.5228V28.2268L68.4401 28.2247V1.02594L73.8539 0.548732V12.6371C74.6352 10.5222 77.2031 9.74134 78.9126 9.74134H78.9125ZM77.3947 14.0211C75.2803 14.0211 73.8539 15.5117 73.8539 18.0471L73.8488 20.6367C73.8456 22.3456 74.8367 24.3449 77.3947 24.3449C80.9925 24.3449 80.8964 20.4186 80.8964 19.1109C80.8964 14.712 78.9796 14.0211 77.3947 14.0211ZM58.0277 9.75634C52.3177 9.75634 49.3032 12.9028 49.3032 18.4945V19.5333C49.3032 26.7908 53.5365 28.6593 58.5835 28.6593C63.4891 28.6593 65.7096 27.2725 65.7096 27.2725L64.6965 23.5795C64.6965 23.5795 62.0846 24.7027 59.2326 24.7027C56.276 24.7027 55.0044 23.9411 54.6785 21.0694H66.1424V18.1067C66.1424 12.0412 62.7592 9.7562 58.0276 9.7562L58.0277 9.75634ZM58.1653 13.4543C60.1419 13.4543 61.4226 14.6793 61.3523 17.5202H54.6885C54.804 14.5302 56.1852 13.4544 58.1653 13.4544V13.4543ZM97.0814 9.73144C91.2176 9.73144 88.1307 13.0712 88.1307 19.0561C88.1307 27.2678 93.4519 28.5897 97.0912 28.5897C102.419 28.5897 105.963 25.6907 105.963 19.1307C105.963 12.3029 101.978 9.73144 97.0814 9.73144ZM97.0076 14.0359C99.586 14.0359 100.608 15.9863 100.608 18.2063V20.115C100.608 22.8043 99.1781 24.3599 96.9978 24.3599C94.9588 24.3599 93.5257 22.9048 93.5257 20.115V18.2063C93.5257 15.2309 95.2309 14.0359 97.0076 14.0359ZM116.748 9.73144C110.885 9.73144 107.798 13.0712 107.798 19.0561C107.798 27.2678 113.119 28.5897 116.758 28.5897C122.086 28.5897 125.63 25.6907 125.63 19.1307C125.63 12.3029 121.645 9.73144 116.748 9.73144ZM116.675 14.0359C119.253 14.0359 120.275 15.9863 120.275 18.2063V20.115C120.275 22.8043 118.845 24.3599 116.665 24.3599C114.626 24.3599 113.193 22.9048 113.193 20.115V18.2063C113.193 15.2309 114.898 14.0359 116.675 14.0359ZM127.676 28.2249V1.02594L133.106 0.548732V18.7792L138.492 10.0923H144.226L138.607 19.0893L144.443 28.2249H138.693L133.106 19.3544V28.2249H127.676Z" fill="#939393"/>
</svg>
