<svg width="134" height="31" viewBox="0 0 134 31" fill="none" xmlns="http://www.w3.org/2000/svg">
<path d="M22.5272 30.3421L13.8334 30.1813C11.0184 30.1254 8.19654 30.2372 5.43691 29.657C1.23867 28.7902 0.941267 24.5402 0.630031 20.9752C0.201216 15.9632 0.367209 10.8603 1.17642 5.89027C1.6329 3.10117 3.43116 1.4375 6.21154 1.25575C15.597 0.59867 25.0448 0.675563 34.4096 0.983132C35.3986 1.01109 36.3946 1.16488 37.3698 1.33963C42.1836 2.19244 42.3011 7.0087 42.6124 11.063C42.9236 15.1593 42.7922 19.2765 42.1974 23.3448C41.7202 26.7141 40.8072 29.5382 36.9548 29.8108C32.1272 30.1673 27.4102 30.4539 22.5687 30.363C22.5687 30.3421 22.5411 30.3421 22.5272 30.3421ZM17.4161 21.814C21.0541 19.7029 24.6229 17.6268 28.2402 15.5298C24.5952 13.4187 21.0333 11.3426 17.4161 9.24557V21.814Z" fill="#939393"/>
<path d="M112.347 26.5109C112.181 27.196 112.036 27.7342 111.891 28.3075H108.488V1.7793H112.458V11.5657C112.665 11.3001 112.769 11.1882 112.859 11.0694C113.537 10.1257 114.415 9.51056 115.549 9.27289C117.355 8.91638 118.897 9.72027 119.443 11.4748C119.796 12.5653 120.024 13.7327 120.052 14.8721C120.107 17.801 120.066 20.723 119.962 23.6519C119.921 24.5467 119.651 25.4624 119.312 26.3012C118.198 29.0694 114.56 29.4888 112.755 27.0911C112.645 26.9443 112.541 26.7836 112.347 26.5109ZM112.541 19.2131V24.0643C112.541 24.8542 112.956 25.3366 113.737 25.5183C114.505 25.7001 115.127 25.3995 115.439 24.6795C115.57 24.3789 115.702 24.0643 115.708 23.7498C115.785 20.7859 115.854 17.822 115.874 14.8511C115.874 14.2989 115.743 13.7257 115.577 13.1875C115.266 12.2158 114.408 11.9292 113.564 12.4954C112.928 12.9288 112.541 13.544 112.541 14.3618V19.2131ZM101.751 9.65037H105.908V28.3214H102.664C102.547 27.6154 102.429 26.8884 102.291 26.0356C102.069 26.3642 101.938 26.5739 101.8 26.7836C100.721 28.3564 99.1922 28.8946 97.387 28.608C95.8447 28.3564 94.9179 27.1541 94.7104 25.1828C94.6481 24.5956 94.6205 24.0014 94.6205 23.4142C94.6066 19.0453 94.6205 14.6624 94.6205 10.2935V9.63638H98.8256V10.3983C98.8256 14.6205 98.8118 18.8356 98.8395 23.0577C98.8395 23.6589 98.9017 24.281 99.0055 24.8822C99.123 25.4974 99.5657 25.721 100.16 25.6791C101.122 25.6022 101.786 24.8822 101.786 23.9175V10.4752C101.751 10.2026 101.751 9.95095 101.751 9.65037ZM73.1314 9.63638H77.3088V10.4263C77.3088 14.6275 77.295 18.8216 77.3227 23.0088C77.3227 23.61 77.378 24.2321 77.5025 24.8193C77.6616 25.5113 78.0627 25.735 78.7474 25.6441C79.695 25.5113 80.269 24.8473 80.276 23.8756V10.5032V9.66435H84.4327V28.3214H81.2027C81.0852 27.6294 80.9676 26.9164 80.8154 26.0146C80.6079 26.3292 80.4904 26.5109 80.3728 26.6997C79.2938 28.3005 77.7792 28.8876 75.9325 28.601C74.4524 28.3774 73.5463 27.2729 73.2697 25.4624C73.1936 24.8962 73.1383 24.337 73.1383 23.7708C73.1244 19.2341 73.1244 14.6764 73.1244 10.1397L73.1314 9.63638ZM70.9873 19.6045C70.9735 20.2337 70.932 20.8628 70.8974 21.4919C70.7383 23.3793 70.6622 26.0566 69.1544 27.4337C68.1931 28.3005 66.9758 28.615 65.717 28.657C65.1568 28.6709 64.5897 28.6709 64.0294 28.5941C61.3805 28.1886 60.1494 27.0073 59.7067 24.0643C59.2018 20.6671 59.1603 17.2139 59.762 13.8166C60.3845 10.3005 62.5286 9.05619 65.8623 9.28687C68.9746 9.51056 70.3648 11.5727 70.7314 14.5086C70.932 16.1933 71.0288 17.8989 70.9873 19.6045ZM66.7545 18.9614C66.7545 17.7661 66.7821 16.5638 66.7406 15.3684C66.713 14.6764 66.6231 13.9774 66.4778 13.2923C66.3118 12.5024 65.8139 12.1249 65.1914 12.1389C64.5827 12.1529 64.1539 12.5304 63.9326 13.2643C63.8565 13.537 63.7735 13.8166 63.7735 14.0892C63.7735 15.9626 63.7597 17.843 63.7459 19.7164C63.732 21.464 63.5107 23.2954 64.0571 24.9661C64.2231 25.4764 64.6519 25.756 65.2121 25.756C65.7585 25.756 66.1182 25.4834 66.3187 24.9941C66.4778 24.6166 66.6161 24.2042 66.6161 23.7987C66.6646 22.1909 66.7545 20.5762 66.7545 18.9614ZM53.6065 15.4453C53.973 13.6348 54.3189 11.8663 54.6993 10.0908C55.1765 7.83289 55.7091 5.57502 56.1794 3.31017C56.2969 2.75794 56.5183 2.62512 57.037 2.6391C58.1505 2.68104 59.2848 2.65308 60.4744 2.65308C60.0871 4.09308 59.7067 5.46318 59.3332 6.81231C58.1505 11.0484 56.9678 15.2985 55.799 19.5486C55.7091 19.8772 55.6676 20.2337 55.6676 20.5832C55.6537 22.904 55.6676 25.2177 55.6676 27.5385V28.2935H51.6076C51.5938 28.0838 51.5662 27.8741 51.5662 27.6643C51.5662 26.3502 51.4624 25.029 51.58 23.7288C51.8774 20.6042 50.8953 17.7311 50.0999 14.8232C49.0486 10.9785 47.9835 7.11988 46.9322 3.27522C46.8769 3.09347 46.8561 2.89774 46.8008 2.67405H50.9437C51.8151 6.91716 52.6935 11.1603 53.6065 15.4453ZM133.041 20.3175H126.041C126.118 21.7366 126.145 23.0857 126.29 24.4208C126.394 25.3506 126.899 25.749 127.694 25.756C128.524 25.77 129.009 25.3506 129.202 24.4278C129.265 24.1273 129.306 23.8267 129.334 23.5191C129.361 23.2465 129.375 22.9529 129.396 22.5614C130.579 22.6243 131.734 22.6942 132.875 22.7432C133.539 24.7354 132.342 27.2939 130.33 28.0838C128.746 28.7129 127.12 28.7129 125.502 28.2306C124.305 27.8741 123.413 27.1051 123.012 25.9238C122.639 24.8193 122.286 23.6659 122.21 22.5125C122.002 19.6674 121.926 16.7944 122.355 13.9424C122.431 13.4671 122.563 13.0127 122.708 12.5513C123.289 10.65 124.554 9.4826 126.512 9.28687C127.577 9.18202 128.677 9.22396 129.728 9.4057C131.429 9.70629 132.335 10.9436 132.73 12.5653C132.909 13.3273 133.041 14.1102 133.069 14.8861C133.075 16.6686 133.041 18.4372 133.041 20.3175ZM129.064 17.864C129.064 16.4589 129.078 15.1377 129.05 13.8096C129.05 13.495 128.933 13.1665 128.815 12.8659C128.58 12.2787 128.089 12.1179 127.501 12.1179C126.913 12.1179 126.539 12.4185 126.394 12.9568C125.952 14.5715 126.097 16.2212 126.111 17.8779C127.169 17.864 128.13 17.864 129.064 17.864Z" fill="#939393"/>
<path d="M87.6426 6.07831H83.5273V2.70898H95.8107V6.05734H91.7232V28.2935H87.6495L87.6426 6.07831Z" fill="#939393"/>
</svg>
