<svg width="115" height="39" viewBox="0 0 115 39" fill="none" xmlns="http://www.w3.org/2000/svg">
<path d="M109.912 7.5456H104.903V0.533203H93.9045L88.8466 7.5456H79.8587L76.8534 10.5509V7.5456H69.841V0.533203H47.802V7.5456H16.7972L11.7382 0.533203H0.71875V24.5757L14.7436 38.6005H28.7684V34.5934L32.7754 38.6005H59.8233V34.5934L63.8304 38.6005H76.8534V34.5934L80.8605 38.6005H105.905L114.921 29.5846V12.5545L109.912 7.5456ZM17.7489 17.5633H10.7365V19.5669H17.7489V27.581H6.72938L2.72229 23.5739V2.53675H10.7365V9.54915H17.7489V17.5633ZM47.802 27.581H23.7595L19.7524 23.5739V9.54915H27.7666V19.5669H29.7701V9.54915H37.7843V19.5669H39.7878V9.54915H47.802V27.581ZM57.8197 27.581H49.8056V9.54915H57.8197V27.581ZM57.8197 7.5456H49.8056V2.53675H57.8197V7.5456ZM74.8499 17.5633H67.8374V19.5669H74.8499V27.581H63.8304L59.8233 23.5739V2.53675H67.8374V9.54915H74.8499V17.5633ZM92.8817 17.5633H84.8676V19.5669H92.8817V27.581H80.8605L76.8534 23.5739V13.5562L80.8605 9.54915H92.8817V17.5633ZM112.917 27.581H104.903V17.5633H102.899V27.581H94.8853V2.53675H102.899V9.54915H108.91L112.917 13.5562V27.581Z" fill="#939393"/>
</svg>
