<svg width="469" height="711" viewBox="0 0 469 711" fill="none" xmlns="http://www.w3.org/2000/svg">
<path d="M1 195.429C1 192.038 3.7489 189.289 7.13984 189.289V189.289V230.221V230.221C3.7489 230.221 1 227.472 1 224.081V195.429Z" fill="white"/>
<path d="M1 260.921C1 257.53 3.7489 254.781 7.13984 254.781V254.781V330.25V330.25C3.7489 330.25 1 327.501 1 324.11V260.921Z" stroke="white"/>
<path d="M1 351.484C1 348.093 3.7489 345.344 7.13984 345.344V345.344V420.813V420.813C3.7489 420.813 1 418.064 1 414.673V351.484Z" stroke="white"/>
<path d="M461.488 282.406V282.406C464.879 282.406 467.628 285.155 467.628 288.546V414.669C467.628 418.06 464.879 420.809 461.488 420.809V420.809V282.406Z" stroke="white"/>
<path d="M7.14062 59C7.14062 26.9675 33.1081 1 65.1406 1H403.488C435.521 1 461.488 26.9675 461.488 59V710.564H7.14062V59Z" fill="#141414"/>
<path d="M6.64062 59C6.64062 26.6913 32.832 0.5 65.1406 0.5H403.488C435.797 0.5 461.988 26.6913 461.988 59H460.988C460.988 27.2436 435.245 1.5 403.488 1.5H65.1406C33.3843 1.5 7.64062 27.2436 7.64062 59H6.64062ZM461.488 710.564H7.14062H461.488ZM6.64062 710.564V59C6.64062 26.6913 32.832 0.5 65.1406 0.5V1.5C33.3843 1.5 7.64062 27.2436 7.64062 59V710.564H6.64062ZM403.488 0.5C435.797 0.5 461.988 26.6913 461.988 59V710.564H460.988V59C460.988 27.2436 435.245 1.5 403.488 1.5V0.5Z" fill="white"/>
<path d="M58.9308 55.7411C59.7888 55.7411 60.5568 55.9421 61.2348 56.3441C61.9188 56.7461 62.4588 57.3071 62.8548 58.0271C63.2508 58.7411 63.4488 59.5691 63.4488 60.5111V64.2731C63.4488 65.2931 63.2508 66.1751 62.8548 66.9191C62.4588 67.6571 61.9008 68.2271 61.1808 68.6291C60.4608 69.0251 59.6148 69.2231 58.6428 69.2231C58.0128 69.2231 57.4128 69.1301 56.8428 68.9441C56.2788 68.7521 55.7568 68.4371 55.2768 67.9991L57.0228 66.2531C57.2388 66.4691 57.4878 66.6371 57.7698 66.7571C58.0578 66.8771 58.3488 66.9371 58.6428 66.9371C59.1108 66.9371 59.5158 66.8291 59.8578 66.6131C60.2058 66.3911 60.4728 66.1061 60.6588 65.7581C60.8508 65.4041 60.9468 65.0291 60.9468 64.6331V62.7071L61.3608 63.1571C60.9948 63.5351 60.5658 63.8261 60.0738 64.0301C59.5818 64.2281 59.0748 64.3271 58.5528 64.3271C57.7368 64.3271 57.0168 64.1441 56.3928 63.7781C55.7748 63.4121 55.2888 62.9111 54.9348 62.2751C54.5868 61.6391 54.4128 60.9131 54.4128 60.0971C54.4128 59.2811 54.6198 58.5461 55.0338 57.8921C55.4478 57.2321 55.9968 56.7101 56.6808 56.3261C57.3648 55.9361 58.1148 55.7411 58.9308 55.7411ZM58.9308 58.0811C58.5588 58.0811 58.2168 58.1711 57.9048 58.3511C57.5988 58.5311 57.3528 58.7741 57.1668 59.0801C56.9868 59.3861 56.8968 59.7251 56.8968 60.0971C56.8968 60.4691 56.9868 60.8111 57.1668 61.1231C57.3468 61.4291 57.5898 61.6751 57.8958 61.8611C58.2018 62.0411 58.5408 62.1311 58.9128 62.1311C59.2848 62.1311 59.6238 62.0411 59.9298 61.8611C60.2418 61.6751 60.4878 61.4291 60.6678 61.1231C60.8538 60.8111 60.9468 60.4691 60.9468 60.0971C60.9468 59.7371 60.8568 59.4041 60.6768 59.0981C60.4968 58.7921 60.2538 58.5461 59.9478 58.3601C59.6418 58.1741 59.3028 58.0811 58.9308 58.0811ZM66.2166 67.8731V65.4251H68.6646V67.8731H66.2166ZM66.2346 62.7611V60.3131H68.6826V62.7611H66.2346ZM76.7307 68.9531V66.9371H71.0967V64.6511L75.1827 55.9931H77.9907L73.9047 64.6511H76.7307V61.4111H79.2147V64.6511H80.3667V66.9371H79.2147V68.9531H76.7307ZM84.3074 68.9531V58.6571L81.8774 60.1511V57.4511L84.3074 55.9931H86.8094V68.9531H84.3074Z" fill="white"/>
<path opacity="0.35" d="M401.738 54.206H421.466C423.692 54.206 425.496 56.0102 425.496 58.2358V64.0384C425.496 66.264 423.692 68.0682 421.466 68.0682H401.738C399.512 68.0682 397.708 66.264 397.708 64.0384V58.2358C397.708 56.0102 399.512 54.206 401.738 54.206Z" stroke="white" stroke-width="1.22444"/>
<path opacity="0.4" d="M427.27 59.3984V64.2962C428.255 63.8814 428.896 62.9164 428.896 61.8473C428.896 60.7782 428.255 59.8132 427.27 59.3984" fill="white"/>
<path d="M399.417 58.2351C399.417 56.9532 400.456 55.9141 401.738 55.9141H421.467C422.749 55.9141 423.788 56.9532 423.788 58.2351V64.0376C423.788 65.3195 422.749 66.3587 421.467 66.3587H401.738C400.456 66.3587 399.417 65.3195 399.417 64.0376V58.2351Z" fill="white"/>
<path fill-rule="evenodd" clip-rule="evenodd" d="M379.108 57.7529C381.971 57.753 384.724 58.8757 386.798 60.8889C386.954 61.0443 387.204 61.0424 387.358 60.8845L388.851 59.3461C388.929 59.2661 388.973 59.1576 388.972 59.0448C388.971 58.9319 388.927 58.824 388.848 58.7449C383.403 53.4184 374.813 53.4184 369.368 58.7449C369.289 58.8239 369.244 58.9318 369.243 59.0447C369.242 59.1575 369.286 59.266 369.364 59.3461L370.857 60.8845C371.011 61.0426 371.261 61.0446 371.417 60.8889C373.492 58.8755 376.245 57.7528 379.108 57.7529ZM379.148 62.4894C380.721 62.4893 382.237 63.086 383.403 64.1635C383.561 64.3165 383.809 64.3132 383.963 64.1561L385.455 62.6177C385.533 62.537 385.577 62.4276 385.576 62.3138C385.575 62.2001 385.529 62.0915 385.449 62.0125C381.899 58.6417 376.401 58.6417 372.851 62.0125C372.77 62.0915 372.725 62.2001 372.724 62.3139C372.723 62.4277 372.766 62.5371 372.845 62.6177L374.336 64.1561C374.49 64.3132 374.738 64.3165 374.896 64.1635C376.061 63.0867 377.576 62.49 379.148 62.4894ZM382.182 65.5922C382.184 65.7062 382.141 65.8162 382.061 65.8961L379.481 68.5539C379.405 68.6321 379.302 68.676 379.194 68.676C379.087 68.676 378.984 68.6321 378.908 68.5539L376.327 65.8961C376.248 65.8161 376.204 65.7061 376.206 65.5921C376.209 65.478 376.257 65.37 376.34 65.2935C377.988 63.8709 380.401 63.8709 382.049 65.2935C382.132 65.37 382.18 65.4781 382.182 65.5922Z" fill="white"/>
<path d="M350.674 58.2393C350.674 57.5984 351.194 57.0788 351.835 57.0788H352.995C353.636 57.0788 354.156 57.5984 354.156 58.2393V67.5234C354.156 68.1644 353.636 68.684 352.995 68.684H351.835C351.194 68.684 350.674 68.1644 350.674 67.5234V58.2393Z" fill="white"/>
<path d="M356.477 55.9183C356.477 55.2774 356.997 54.7578 357.638 54.7578H358.798C359.439 54.7578 359.959 55.2774 359.959 55.9183V67.5234C359.959 68.1644 359.439 68.684 358.798 68.684H357.638C356.997 68.684 356.477 68.1644 356.477 67.5234V55.9183Z" fill="white"/>
<path d="M344.872 62.3011C344.872 61.6602 345.391 61.1406 346.032 61.1406H347.193C347.834 61.1406 348.353 61.6602 348.353 62.3011V67.5234C348.353 68.1644 347.834 68.684 347.193 68.684H346.032C345.391 68.684 344.872 68.1644 344.872 67.5234V62.3011Z" fill="white"/>
<path d="M339.069 65.2024C339.069 64.5615 339.589 64.0419 340.23 64.0419H341.39C342.031 64.0419 342.551 64.5615 342.551 65.2024V67.5234C342.551 68.1644 342.031 68.684 341.39 68.684H340.23C339.589 68.684 339.069 68.1644 339.069 67.5234V65.2024Z" fill="white"/>
<path d="M163.852 138.51V121.23H166.744V138.51H163.852ZM179.302 138.51V132.27C179.302 131.862 179.274 131.41 179.218 130.914C179.162 130.418 179.03 129.942 178.822 129.486C178.622 129.022 178.318 128.642 177.91 128.346C177.51 128.05 176.966 127.902 176.278 127.902C175.91 127.902 175.546 127.962 175.186 128.082C174.826 128.202 174.498 128.41 174.202 128.706C173.914 128.994 173.682 129.394 173.506 129.906C173.33 130.41 173.242 131.058 173.242 131.85L171.526 131.118C171.526 130.014 171.738 129.014 172.162 128.118C172.594 127.222 173.226 126.51 174.058 125.982C174.89 125.446 175.914 125.178 177.13 125.178C178.09 125.178 178.882 125.338 179.506 125.658C180.13 125.978 180.626 126.386 180.994 126.882C181.362 127.378 181.634 127.906 181.81 128.466C181.986 129.026 182.098 129.558 182.146 130.062C182.202 130.558 182.23 130.962 182.23 131.274V138.51H179.302ZM170.314 138.51V125.55H172.894V129.57H173.242V138.51H170.314ZM192.958 138.51C192.102 138.67 191.262 138.738 190.438 138.714C189.622 138.698 188.89 138.55 188.242 138.27C187.594 137.982 187.102 137.53 186.766 136.914C186.47 136.354 186.314 135.782 186.298 135.198C186.282 134.614 186.274 133.954 186.274 133.218V121.95H189.154V133.05C189.154 133.57 189.158 134.026 189.166 134.418C189.182 134.81 189.266 135.13 189.418 135.378C189.706 135.858 190.166 136.126 190.798 136.182C191.43 136.238 192.15 136.206 192.958 136.086V138.51ZM183.922 127.818V125.55H192.958V127.818H183.922ZM200.98 138.87C199.668 138.87 198.516 138.586 197.524 138.018C196.532 137.45 195.756 136.662 195.196 135.654C194.644 134.646 194.368 133.486 194.368 132.174C194.368 130.758 194.64 129.53 195.184 128.49C195.728 127.442 196.484 126.63 197.452 126.054C198.42 125.478 199.54 125.19 200.812 125.19C202.156 125.19 203.296 125.506 204.232 126.138C205.176 126.762 205.876 127.646 206.332 128.79C206.788 129.934 206.96 131.282 206.848 132.834H203.98V131.778C203.972 130.37 203.724 129.342 203.236 128.694C202.748 128.046 201.98 127.722 200.932 127.722C199.748 127.722 198.868 128.09 198.292 128.826C197.716 129.554 197.428 130.622 197.428 132.03C197.428 133.342 197.716 134.358 198.292 135.078C198.868 135.798 199.708 136.158 200.812 136.158C201.524 136.158 202.136 136.002 202.648 135.69C203.168 135.37 203.568 134.91 203.848 134.31L206.704 135.174C206.208 136.342 205.44 137.25 204.4 137.898C203.368 138.546 202.228 138.87 200.98 138.87ZM196.516 132.834V130.65H205.432V132.834H196.516ZM214.974 144.63C214.254 144.63 213.562 144.518 212.898 144.294C212.242 144.07 211.65 143.746 211.122 143.322C210.594 142.906 210.162 142.402 209.826 141.81L212.49 140.49C212.738 140.962 213.086 141.31 213.534 141.534C213.99 141.766 214.474 141.882 214.986 141.882C215.586 141.882 216.122 141.774 216.594 141.558C217.066 141.35 217.43 141.038 217.686 140.622C217.95 140.214 218.074 139.702 218.058 139.086V135.402H218.418V125.55H220.95V139.134C220.95 139.462 220.934 139.774 220.902 140.07C220.878 140.374 220.834 140.67 220.77 140.958C220.578 141.798 220.21 142.486 219.666 143.022C219.122 143.566 218.446 143.97 217.638 144.234C216.838 144.498 215.95 144.63 214.974 144.63ZM214.722 138.87C213.53 138.87 212.49 138.57 211.602 137.97C210.714 137.37 210.026 136.554 209.538 135.522C209.05 134.49 208.806 133.326 208.806 132.03C208.806 130.718 209.05 129.55 209.538 128.526C210.034 127.494 210.734 126.682 211.638 126.09C212.542 125.49 213.606 125.19 214.83 125.19C216.062 125.19 217.094 125.49 217.926 126.09C218.766 126.682 219.402 127.494 219.834 128.526C220.266 129.558 220.482 130.726 220.482 132.03C220.482 133.318 220.266 134.482 219.834 135.522C219.402 136.554 218.758 137.37 217.902 137.97C217.046 138.57 215.986 138.87 214.722 138.87ZM215.166 136.278C215.942 136.278 216.566 136.102 217.038 135.75C217.518 135.39 217.866 134.89 218.082 134.25C218.306 133.61 218.418 132.87 218.418 132.03C218.418 131.182 218.306 130.442 218.082 129.81C217.866 129.17 217.526 128.674 217.062 128.322C216.598 127.962 215.998 127.782 215.262 127.782C214.486 127.782 213.846 127.974 213.342 128.358C212.838 128.734 212.466 129.246 212.226 129.894C211.986 130.534 211.866 131.246 211.866 132.03C211.866 132.822 211.982 133.542 212.214 134.19C212.454 134.83 212.818 135.338 213.306 135.714C213.794 136.09 214.414 136.278 215.166 136.278ZM224.315 138.51V125.55H226.871V128.706L226.559 128.298C226.719 127.866 226.931 127.474 227.195 127.122C227.467 126.762 227.791 126.466 228.167 126.234C228.487 126.018 228.839 125.85 229.223 125.73C229.615 125.602 230.015 125.526 230.423 125.502C230.831 125.47 231.227 125.486 231.611 125.55V128.25C231.227 128.138 230.783 128.102 230.279 128.142C229.783 128.182 229.335 128.322 228.935 128.562C228.535 128.778 228.207 129.054 227.951 129.39C227.703 129.726 227.519 130.11 227.399 130.542C227.279 130.966 227.219 131.426 227.219 131.922V138.51H224.315ZM237.22 138.87C236.284 138.87 235.492 138.694 234.844 138.342C234.196 137.982 233.704 137.506 233.368 136.914C233.04 136.322 232.876 135.67 232.876 134.958C232.876 134.334 232.98 133.774 233.188 133.278C233.396 132.774 233.716 132.342 234.148 131.982C234.58 131.614 235.14 131.314 235.828 131.082C236.348 130.914 236.956 130.762 237.652 130.626C238.356 130.49 239.116 130.366 239.932 130.254C240.756 130.134 241.616 130.006 242.512 129.87L241.48 130.458C241.488 129.562 241.288 128.902 240.88 128.478C240.472 128.054 239.784 127.842 238.816 127.842C238.232 127.842 237.668 127.978 237.124 128.25C236.58 128.522 236.2 128.99 235.984 129.654L233.344 128.826C233.664 127.73 234.272 126.85 235.168 126.186C236.072 125.522 237.288 125.19 238.816 125.19C239.968 125.19 240.98 125.378 241.852 125.754C242.732 126.13 243.384 126.746 243.808 127.602C244.04 128.058 244.18 128.526 244.228 129.006C244.276 129.478 244.3 129.994 244.3 130.554V138.51H241.768V135.702L242.188 136.158C241.604 137.094 240.92 137.782 240.136 138.222C239.36 138.654 238.388 138.87 237.22 138.87ZM237.796 136.566C238.452 136.566 239.012 136.45 239.476 136.218C239.94 135.986 240.308 135.702 240.58 135.366C240.86 135.03 241.048 134.714 241.144 134.418C241.296 134.05 241.38 133.63 241.396 133.158C241.42 132.678 241.432 132.29 241.432 131.994L242.32 132.258C241.448 132.394 240.7 132.514 240.076 132.618C239.452 132.722 238.916 132.822 238.468 132.918C238.02 133.006 237.624 133.106 237.28 133.218C236.944 133.338 236.66 133.478 236.428 133.638C236.196 133.798 236.016 133.982 235.888 134.19C235.768 134.398 235.708 134.642 235.708 134.922C235.708 135.242 235.788 135.526 235.948 135.774C236.108 136.014 236.34 136.206 236.644 136.35C236.956 136.494 237.34 136.566 237.796 136.566ZM255.02 138.51C254.164 138.67 253.324 138.738 252.5 138.714C251.684 138.698 250.952 138.55 250.304 138.27C249.656 137.982 249.164 137.53 248.828 136.914C248.532 136.354 248.376 135.782 248.36 135.198C248.344 134.614 248.336 133.954 248.336 133.218V121.95H251.216V133.05C251.216 133.57 251.22 134.026 251.228 134.418C251.244 134.81 251.328 135.13 251.48 135.378C251.768 135.858 252.228 136.126 252.86 136.182C253.492 136.238 254.212 136.206 255.02 136.086V138.51ZM245.984 127.818V125.55H255.02V127.818H245.984ZM258.047 123.582V120.93H260.939V123.582H258.047ZM258.047 138.51V125.55H260.939V138.51H258.047ZM270.258 138.87C268.962 138.87 267.83 138.578 266.862 137.994C265.894 137.41 265.142 136.606 264.606 135.582C264.078 134.55 263.814 133.366 263.814 132.03C263.814 130.67 264.086 129.478 264.63 128.454C265.174 127.43 265.93 126.63 266.898 126.054C267.866 125.478 268.986 125.19 270.258 125.19C271.562 125.19 272.698 125.482 273.666 126.066C274.634 126.65 275.386 127.458 275.922 128.49C276.458 129.514 276.726 130.694 276.726 132.03C276.726 133.374 276.454 134.562 275.91 135.594C275.374 136.618 274.622 137.422 273.654 138.006C272.686 138.582 271.554 138.87 270.258 138.87ZM270.258 136.158C271.41 136.158 272.266 135.774 272.826 135.006C273.386 134.238 273.666 133.246 273.666 132.03C273.666 130.774 273.382 129.774 272.814 129.03C272.246 128.278 271.394 127.902 270.258 127.902C269.482 127.902 268.842 128.078 268.338 128.43C267.842 128.774 267.474 129.258 267.234 129.882C266.994 130.498 266.874 131.214 266.874 132.03C266.874 133.286 267.158 134.29 267.726 135.042C268.302 135.786 269.146 136.158 270.258 136.158ZM288.333 138.51V132.27C288.333 131.862 288.305 131.41 288.249 130.914C288.193 130.418 288.061 129.942 287.853 129.486C287.653 129.022 287.349 128.642 286.941 128.346C286.541 128.05 285.997 127.902 285.309 127.902C284.941 127.902 284.577 127.962 284.217 128.082C283.857 128.202 283.529 128.41 283.233 128.706C282.945 128.994 282.713 129.394 282.537 129.906C282.361 130.41 282.273 131.058 282.273 131.85L280.557 131.118C280.557 130.014 280.769 129.014 281.193 128.118C281.625 127.222 282.257 126.51 283.089 125.982C283.921 125.446 284.945 125.178 286.161 125.178C287.121 125.178 287.913 125.338 288.537 125.658C289.161 125.978 289.657 126.386 290.025 126.882C290.393 127.378 290.665 127.906 290.841 128.466C291.017 129.026 291.129 129.558 291.177 130.062C291.233 130.558 291.261 130.962 291.261 131.274V138.51H288.333ZM279.345 138.51V125.55H281.925V129.57H282.273V138.51H279.345ZM299.397 138.87C297.797 138.87 296.497 138.51 295.497 137.79C294.497 137.07 293.889 136.058 293.673 134.754L296.625 134.298C296.777 134.938 297.113 135.442 297.633 135.81C298.153 136.178 298.809 136.362 299.601 136.362C300.297 136.362 300.833 136.226 301.209 135.954C301.593 135.674 301.785 135.294 301.785 134.814C301.785 134.518 301.713 134.282 301.569 134.106C301.433 133.922 301.129 133.746 300.657 133.578C300.185 133.41 299.461 133.198 298.485 132.942C297.397 132.654 296.533 132.346 295.893 132.018C295.253 131.682 294.793 131.286 294.513 130.83C294.233 130.374 294.093 129.822 294.093 129.174C294.093 128.366 294.305 127.662 294.729 127.062C295.153 126.462 295.745 126.002 296.505 125.682C297.265 125.354 298.161 125.19 299.193 125.19C300.201 125.19 301.093 125.346 301.869 125.658C302.653 125.97 303.285 126.414 303.765 126.99C304.245 127.566 304.541 128.242 304.653 129.018L301.701 129.546C301.629 128.994 301.377 128.558 300.945 128.238C300.521 127.918 299.953 127.738 299.241 127.698C298.561 127.658 298.013 127.762 297.597 128.01C297.181 128.25 296.973 128.59 296.973 129.03C296.973 129.278 297.057 129.49 297.225 129.666C297.393 129.842 297.729 130.018 298.233 130.194C298.745 130.37 299.505 130.586 300.513 130.842C301.545 131.106 302.369 131.41 302.985 131.754C303.609 132.09 304.057 132.494 304.329 132.966C304.609 133.438 304.749 134.01 304.749 134.682C304.749 135.986 304.273 137.01 303.321 137.754C302.377 138.498 301.069 138.87 299.397 138.87Z" fill="white"/>
<path d="M47.8122 137.005C52.6435 137.005 56.56 133.089 56.56 128.258C56.56 123.426 52.6435 119.51 47.8122 119.51C42.981 119.51 39.0645 123.426 39.0645 128.258C39.0645 133.089 42.981 137.005 47.8122 137.005Z" stroke="white" stroke-width="2" stroke-linecap="round" stroke-linejoin="round"/>
<path d="M53.999 134.449L59.0602 139.51" stroke="white" stroke-width="2" stroke-linejoin="round"/>
<path d="M406.922 121.135H430.922" stroke="white" stroke-width="2"/>
<path d="M406.922 129.506H430.922" stroke="white" stroke-width="2"/>
<path d="M417.132 137.887L430.921 137.887" stroke="white" stroke-width="2"/>
<rect x="177.549" y="44.8594" width="113.529" height="33.9668" rx="16.9834" stroke="white"/>
<circle cx="270.202" cy="61.1328" r="9.92969" fill="white"/>
</svg>
