<svg width="124" height="195" viewBox="0 0 124 195" fill="none" xmlns="http://www.w3.org/2000/svg">
<path fill-rule="evenodd" clip-rule="evenodd" d="M110.127 156.428C118.314 149.893 123.244 138.215 123.244 122.361C123.244 86.5683 98.1156 43.045 67.1185 25.1488C50.8017 15.7283 36.1112 15.2867 25.8561 22.2021L25.8523 22.196L25.5697 22.398C25.3597 22.5436 25.1516 22.6923 24.9454 22.8442L14.9746 29.9707L16.5748 32.5659C12.9984 39.0292 10.9932 47.4417 10.9932 57.5528C10.9932 93.3452 36.1213 136.868 67.1185 154.765C77.8812 160.978 87.9363 163.286 96.4777 162.152L98.2179 164.974L110.157 156.476L110.127 156.428Z" fill="#B0F127"/>
<mask id="mask0_3751_42888" style="mask-type:alpha" maskUnits="userSpaceOnUse" x="10" y="17" width="114" height="148">
<path fill-rule="evenodd" clip-rule="evenodd" d="M110.128 156.426C118.315 149.891 123.245 138.213 123.245 122.359C123.245 86.5663 98.1166 43.0431 67.1194 25.1469C50.8027 15.7264 36.1122 15.2848 25.8571 22.2002L25.8532 22.1941L25.5706 22.396C25.3607 22.5417 25.1526 22.6904 24.9464 22.8422L14.9756 29.9688L16.5758 32.5639C12.9994 39.0272 10.9941 47.4397 10.9941 57.5508C10.9941 93.3432 36.1223 136.866 67.1194 154.763C77.8821 160.977 87.9373 163.284 96.4787 162.15L98.2188 164.972L110.158 156.474L110.128 156.426Z" fill="#B0F127"/>
</mask>
<g mask="url(#mask0_3751_42888)">
<rect width="137.095" height="58.9485" transform="matrix(0.866025 -0.5 2.20305e-08 1 71.5527 155.138)" fill="#B0F127"/>
</g>
<circle r="64.8079" transform="matrix(0.866025 0.5 -2.20305e-08 1 56.7884 97.3183)" fill="white"/>
<mask id="mask1_3751_42888" style="mask-type:alpha" maskUnits="userSpaceOnUse" x="0" y="24" width="113" height="146">
<circle r="64.8079" transform="matrix(0.866025 0.5 -2.20305e-08 1 56.7903 97.3183)" fill="#B0F127"/>
</mask>
<g mask="url(#mask1_3751_42888)">
<path d="M56.7843 64.4207L56.4023 65.6992L56.4023 109.198L56.7843 109.859L74.2707 108.019L56.7843 64.4207Z" fill="#060606"/>
<path d="M56.7863 64.421L39.2998 87.828L56.7862 109.859L56.7862 88.7462L56.7863 64.421Z" fill="#060606"/>
<path d="M56.7855 113.685L56.5703 113.864L56.5703 129.359L56.7855 130.209L74.2824 111.858L56.7855 113.685Z" fill="#060606"/>
<path d="M56.7862 130.204L56.7863 113.68L39.2998 91.6553L56.7862 130.204Z" fill="#060606"/>
<path d="M56.7861 109.862L74.2723 108.022L56.7861 88.749L56.7861 109.862Z" fill="#060606"/>
<path d="M39.2998 87.829L56.786 109.86L56.786 88.747L39.2998 87.829Z" fill="#060606"/>
</g>
<circle r="64.8079" transform="matrix(0.866025 0.5 -2.20305e-08 1 56.7884 97.3183)" stroke="#060606" stroke-width="1.5"/>
</svg>
