<svg width="200" height="336" viewBox="0 0 200 336" fill="none" xmlns="http://www.w3.org/2000/svg">
<path d="M188.927 109.177C188.927 169.418 146.634 242.672 94.4635 272.792C42.2927 302.913 3.73018e-06 278.495 2.40302e-06 218.254C1.07587e-06 158.012 42.2927 84.759 94.4635 54.6382C146.634 24.5174 188.927 48.9352 188.927 109.177ZM23.6159 204.619C23.6159 249.8 55.3354 268.114 94.4635 245.523C133.592 222.932 165.311 167.993 165.311 122.811C165.311 77.6302 133.592 59.3169 94.4635 81.9075C55.3354 104.498 23.6159 159.438 23.6159 204.619Z" fill="#060606"/>
<mask id="path-2-inside-1_3751_42952" fill="white">
<path d="M199.245 116.91C199.245 177.152 156.953 250.405 104.782 280.526C52.6111 310.647 10.3184 286.229 10.3184 225.987C10.3184 165.746 52.6111 92.4924 104.782 62.3716C156.953 32.2508 199.245 56.6686 199.245 116.91ZM33.9342 212.353C33.9342 257.534 65.6538 275.847 104.782 253.256C143.91 230.666 175.629 175.726 175.629 130.545C175.629 85.3636 143.91 67.0503 104.782 89.6409C65.6538 112.231 33.9342 167.171 33.9342 212.353Z"/>
</mask>
<path d="M199.245 116.91C199.245 177.152 156.953 250.405 104.782 280.526C52.6111 310.647 10.3184 286.229 10.3184 225.987C10.3184 165.746 52.6111 92.4924 104.782 62.3716C156.953 32.2508 199.245 56.6686 199.245 116.91ZM33.9342 212.353C33.9342 257.534 65.6538 275.847 104.782 253.256C143.91 230.666 175.629 175.726 175.629 130.545C175.629 85.3636 143.91 67.0503 104.782 89.6409C65.6538 112.231 33.9342 167.171 33.9342 212.353Z" fill="#141414" stroke="#060606" stroke-width="3" mask="url(#path-2-inside-1_3751_42952)"/>
<path d="M195.612 148.968C201.025 123.961 200.376 101.047 193.755 83.4358C187.134 65.8242 174.874 54.3967 158.69 50.7535C142.507 47.1104 123.211 51.4341 103.505 63.1191C83.7985 74.8041 64.6692 93.2652 48.7957 115.917C32.9221 138.569 21.0993 164.277 14.9829 189.442C8.86646 214.606 8.76277 237.966 14.6863 256.25C20.6099 274.535 32.264 286.828 48.0167 291.408C63.7694 295.988 82.8316 292.626 102.534 281.793L103.096 254.207C88.3192 262.332 74.0225 264.853 62.208 261.418C50.3935 257.983 41.6529 248.763 37.2102 235.05C32.7675 221.337 32.8453 203.817 37.4326 184.943C42.0199 166.07 50.8871 146.789 62.7922 129.8C74.6974 112.811 89.0443 98.9652 103.824 90.2015C118.603 81.4377 133.075 78.1949 145.213 80.9273C157.351 83.6597 166.546 92.2303 171.512 105.439C176.477 118.648 176.964 135.833 172.905 154.588L195.612 148.968Z" fill="white" stroke="#060606" stroke-width="1.5"/>
<path d="M25.7309 157.375C14.9419 182.648 9.58133 208.206 10.3999 230.471C11.2184 252.735 18.1751 270.591 30.2956 281.537C42.4162 292.483 59.0936 295.972 77.9924 291.514C96.8911 287.057 117.065 274.876 135.688 256.679C154.311 238.481 170.451 215.178 181.848 190.033C193.245 164.887 199.328 139.158 199.244 116.45C199.161 93.7415 192.916 75.1905 181.384 63.3949C169.852 51.5992 153.61 47.1497 134.933 50.6694L127.395 80.8642C141.403 78.2244 153.584 81.5616 162.233 90.4083C170.883 99.255 175.566 113.168 175.629 130.2C175.691 147.231 171.129 166.527 162.582 185.387C154.034 204.246 141.929 221.723 127.961 235.371C113.994 249.02 98.8638 258.155 84.6897 261.498C70.5157 264.841 58.0076 262.225 48.9172 254.015C39.8268 245.805 34.6093 232.413 33.9954 215.715C33.3815 199.017 37.4019 179.848 45.4936 160.893L25.7309 157.375Z" fill="#547907"/>
<path d="M25.7309 157.375C15.0453 182.406 9.682 207.723 10.3785 229.845C11.075 251.967 17.7971 269.808 29.6206 280.915C41.444 292.022 57.7881 295.849 76.4057 291.871C95.0233 287.893 115 276.304 133.589 258.698L126.388 236.886C112.446 250.09 97.4629 258.782 83.4997 261.765C69.5366 264.749 57.2785 261.879 48.4109 253.548C39.5433 245.218 34.5017 231.837 33.9794 215.246C33.457 198.654 37.4794 179.666 45.4936 160.893L25.7309 157.375Z" fill="#B0F127"/>
<path d="M199.245 116.91C199.245 177.152 156.953 250.405 104.782 280.526C52.6111 310.647 10.3184 286.229 10.3184 225.987C10.3184 165.746 52.6111 92.4924 104.782 62.3716C156.953 32.2508 199.245 56.6686 199.245 116.91ZM33.9342 212.353C33.9342 257.534 65.6538 275.847 104.782 253.256C143.91 230.666 175.629 175.726 175.629 130.545C175.629 85.3636 143.91 67.0503 104.782 89.6409C65.6538 112.231 33.9342 167.171 33.9342 212.353Z" stroke="#060606" stroke-width="1.5"/>
</svg>
