<svg width="125" height="195" viewBox="0 0 125 195" fill="none" xmlns="http://www.w3.org/2000/svg">
<path fill-rule="evenodd" clip-rule="evenodd" d="M110.964 156.322C119.151 149.786 124.081 138.108 124.081 122.254C124.081 86.4618 98.9525 42.9386 67.9554 25.0424C51.6386 15.6219 36.9481 15.1803 26.693 22.0957L26.6892 22.0896L26.4066 22.2916C26.1966 22.4372 25.9885 22.5859 25.7823 22.7377L15.8115 29.8643L17.4117 32.4594C13.8353 38.9227 11.8301 47.3353 11.8301 57.4463C11.8301 93.2387 36.9582 136.762 67.9554 154.658C78.7181 160.872 88.7732 163.179 97.3146 162.045L99.0548 164.868L110.994 156.369L110.964 156.322Z" fill="#B0F127"/>
<path d="M110.964 156.322L110.496 155.736L109.973 156.153L110.329 156.721L110.964 156.322ZM67.9554 25.0424L68.3304 24.3928L68.3304 24.3928L67.9554 25.0424ZM26.693 22.0957L26.0578 22.4945L26.4699 23.1507L27.1123 22.7175L26.693 22.0957ZM26.6892 22.0896L27.3244 21.6908L26.9009 21.0164L26.2531 21.4794L26.6892 22.0896ZM26.4066 22.2916L26.834 22.908L26.8427 22.9017L26.4066 22.2916ZM25.7823 22.7377L26.2185 23.348L26.2271 23.3416L25.7823 22.7377ZM15.8115 29.8643L15.3754 29.2541L14.8054 29.6615L15.1731 30.2579L15.8115 29.8643ZM17.4117 32.4594L18.068 32.8226L18.2802 32.439L18.0501 32.0658L17.4117 32.4594ZM11.8301 57.4463L12.5801 57.4463V57.4463H11.8301ZM67.9554 154.658L68.3304 154.009L68.3304 154.009L67.9554 154.658ZM97.3146 162.045L97.953 161.652L97.6979 161.238L97.2159 161.302L97.3146 162.045ZM99.0548 164.868L98.4164 165.261L98.8369 165.943L99.4897 165.479L99.0548 164.868ZM110.994 156.369L111.429 156.98L112.005 156.57L111.629 155.97L110.994 156.369ZM123.331 122.254C123.331 137.967 118.446 149.389 110.496 155.736L111.432 156.908C119.855 150.183 124.831 138.249 124.831 122.254H123.331ZM67.5804 25.6919C82.9381 34.5587 96.8841 49.8041 106.992 67.3122C117.101 84.8203 123.331 104.521 123.331 122.254H124.831C124.831 104.195 118.497 84.2379 108.291 66.5622C98.0864 48.8865 83.9698 33.4223 68.3304 24.3928L67.5804 25.6919ZM27.1123 22.7175C37.0438 16.0204 51.4073 16.3544 67.5804 25.6919L68.3304 24.3928C51.8699 14.8894 36.8525 14.3402 26.2737 21.4739L27.1123 22.7175ZM27.3282 21.6969L27.3244 21.6908L26.054 22.4884L26.0578 22.4945L27.3282 21.6969ZM26.2531 21.4794L25.9705 21.6814L26.8427 22.9017L27.1253 22.6997L26.2531 21.4794ZM26.2271 23.3416C26.4275 23.194 26.6298 23.0494 26.8339 22.9079L25.9792 21.6752C25.7634 21.8249 25.5495 21.9778 25.3376 22.1339L26.2271 23.3416ZM25.3462 22.1276L15.3754 29.2541L16.2476 30.4744L26.2184 23.3479L25.3462 22.1276ZM15.1731 30.2579L16.7733 32.8531L18.0501 32.0658L16.4499 29.4706L15.1731 30.2579ZM12.5801 57.4463C12.5801 47.4303 14.5669 39.1497 18.068 32.8226L16.7555 32.0963C13.1038 38.6958 11.0801 47.2402 11.0801 57.4463H12.5801ZM68.3304 154.009C52.9726 145.142 39.0266 129.896 28.9183 112.388C18.81 94.8802 12.5801 75.1799 12.5801 57.4463L11.0801 57.4463C11.0801 75.5052 17.4142 95.4626 27.6193 113.138C37.8243 130.814 51.941 146.278 67.5804 155.308L68.3304 154.009ZM97.2159 161.302C88.8828 162.408 78.9941 160.165 68.3304 154.009L67.5804 155.308C78.442 161.579 88.6637 163.95 97.4133 162.789L97.2159 161.302ZM96.6762 162.439L98.4164 165.261L99.6932 164.474L97.953 161.652L96.6762 162.439ZM99.4897 165.479L111.429 156.98L110.559 155.758L98.6199 164.257L99.4897 165.479ZM111.629 155.97L111.599 155.923L110.329 156.721L110.359 156.768L111.629 155.97Z" fill="#060606"/>
<mask id="mask0_3751_42959" style="mask-type:alpha" maskUnits="userSpaceOnUse" x="11" y="16" width="114" height="150">
<path fill-rule="evenodd" clip-rule="evenodd" d="M110.965 156.32C119.152 149.784 124.082 138.106 124.082 122.252C124.082 86.4599 98.9535 42.9366 67.9564 25.0404C51.6396 15.6199 36.9491 15.1783 26.694 22.0937L26.6902 22.0876L26.4076 22.2896C26.1976 22.4352 25.9895 22.5839 25.7833 22.7358L15.8125 29.8623L17.4127 32.4575C13.8363 38.9208 11.8311 47.3333 11.8311 57.4444C11.8311 93.2368 36.9592 136.76 67.9564 154.656C78.7191 160.87 88.7742 163.177 97.3156 162.043L99.0558 164.866L110.995 156.367L110.965 156.32Z" fill="#B0F127"/>
<path d="M110.965 156.32L110.497 155.734L109.974 156.151L110.33 156.719L110.965 156.32ZM67.9564 25.0404L68.3314 24.3909L68.3314 24.3909L67.9564 25.0404ZM26.694 22.0937L26.0588 22.4926L26.4709 23.1488L27.1133 22.7156L26.694 22.0937ZM26.6902 22.0876L27.3253 21.6888L26.9019 21.0144L26.254 21.4775L26.6902 22.0876ZM26.4076 22.2896L26.835 22.906L26.8437 22.8998L26.4076 22.2896ZM25.7833 22.7358L26.2195 23.346L26.2281 23.3397L25.7833 22.7358ZM15.8125 29.8623L15.3764 29.2521L14.8064 29.6596L15.1741 30.2559L15.8125 29.8623ZM17.4127 32.4575L18.0689 32.8206L18.2812 32.437L18.0511 32.0639L17.4127 32.4575ZM11.8311 57.4444L12.5811 57.4444V57.4444H11.8311ZM67.9564 154.656L68.3314 154.007L68.3314 154.007L67.9564 154.656ZM97.3156 162.043L97.954 161.65L97.6988 161.236L97.2169 161.3L97.3156 162.043ZM99.0558 164.866L98.4174 165.259L98.8379 165.941L99.4907 165.477L99.0558 164.866ZM110.995 156.367L111.43 156.978L112.006 156.568L111.63 155.968L110.995 156.367ZM123.332 122.252C123.332 137.965 118.447 149.387 110.497 155.734L111.433 156.906C119.856 150.181 124.832 138.248 124.832 122.252H123.332ZM67.5814 25.6899C82.9391 34.5567 96.8851 49.8022 106.993 67.3103C117.102 84.8184 123.332 104.519 123.332 122.252H124.832C124.832 104.193 118.498 84.236 108.292 66.5603C98.0874 48.8846 83.9708 33.4203 68.3314 24.3909L67.5814 25.6899ZM27.1133 22.7156C37.0448 16.0184 51.4083 16.3524 67.5814 25.6899L68.3314 24.3909C51.8709 14.8875 36.8534 14.3382 26.2747 21.4719L27.1133 22.7156ZM27.3292 21.6949L27.3253 21.6888L26.055 22.4864L26.0588 22.4926L27.3292 21.6949ZM26.254 21.4775L25.9715 21.6794L26.8437 22.8998L27.1263 22.6978L26.254 21.4775ZM26.2281 23.3397C26.4285 23.1921 26.6308 23.0475 26.8349 22.9059L25.9802 21.6733C25.7643 21.8229 25.5504 21.9758 25.3385 22.1319L26.2281 23.3397ZM25.3472 22.1256L15.3764 29.2521L16.2486 30.4725L26.2194 23.346L25.3472 22.1256ZM15.1741 30.2559L16.7743 32.8511L18.0511 32.0639L16.4509 29.4687L15.1741 30.2559ZM12.5811 57.4444C12.5811 47.4283 14.5679 39.1478 18.0689 32.8206L16.7565 32.0944C13.1048 38.6938 11.0811 47.2383 11.0811 57.4444H12.5811ZM68.3314 154.007C52.9736 145.14 39.0276 129.894 28.9193 112.386C18.811 94.8783 12.5811 75.1779 12.5811 57.4444L11.0811 57.4444C11.0811 75.5032 17.4152 95.4607 27.6203 113.136C37.8253 130.812 51.9419 146.276 67.5814 155.306L68.3314 154.007ZM97.2169 161.3C88.8838 162.406 78.9951 160.163 68.3314 154.007L67.5814 155.306C78.443 161.577 88.6646 163.948 97.4143 162.787L97.2169 161.3ZM96.6772 162.437L98.4174 165.259L99.6942 164.472L97.954 161.65L96.6772 162.437ZM99.4907 165.477L111.43 156.978L110.56 155.756L98.6208 164.255L99.4907 165.477ZM111.63 155.968L111.6 155.921L110.33 156.719L110.36 156.766L111.63 155.968Z" fill="#060606"/>
</mask>
<g mask="url(#mask0_3751_42959)">
<rect width="137.095" height="58.9485" transform="matrix(0.866025 -0.5 2.20305e-08 1 72.3896 155.031)" fill="#B0F127"/>
</g>
<path d="M110.964 156.322L110.496 155.736L109.973 156.153L110.329 156.721L110.964 156.322ZM67.9554 25.0424L68.3304 24.3928L68.3304 24.3928L67.9554 25.0424ZM26.693 22.0957L26.0578 22.4945L26.4699 23.1507L27.1123 22.7175L26.693 22.0957ZM26.6892 22.0896L27.3244 21.6908L26.9009 21.0164L26.2531 21.4794L26.6892 22.0896ZM26.4066 22.2916L26.834 22.908L26.8427 22.9017L26.4066 22.2916ZM25.7823 22.7377L26.2185 23.348L26.2271 23.3416L25.7823 22.7377ZM15.8115 29.8643L15.3754 29.2541L14.8054 29.6615L15.1731 30.2579L15.8115 29.8643ZM17.4117 32.4594L18.068 32.8226L18.2802 32.439L18.0501 32.0658L17.4117 32.4594ZM11.8301 57.4463L12.5801 57.4463V57.4463H11.8301ZM67.9554 154.658L68.3304 154.009L68.3304 154.009L67.9554 154.658ZM97.3146 162.045L97.953 161.652L97.6979 161.238L97.2159 161.302L97.3146 162.045ZM99.0548 164.868L98.4164 165.261L98.8369 165.943L99.4897 165.479L99.0548 164.868ZM110.994 156.369L111.429 156.98L112.005 156.57L111.629 155.97L110.994 156.369ZM123.331 122.254C123.331 137.967 118.446 149.389 110.496 155.736L111.432 156.908C119.855 150.183 124.831 138.249 124.831 122.254H123.331ZM67.5804 25.6919C82.9381 34.5587 96.8841 49.8041 106.992 67.3122C117.101 84.8203 123.331 104.521 123.331 122.254H124.831C124.831 104.195 118.497 84.2379 108.291 66.5622C98.0864 48.8865 83.9698 33.4223 68.3304 24.3928L67.5804 25.6919ZM27.1123 22.7175C37.0438 16.0204 51.4073 16.3544 67.5804 25.6919L68.3304 24.3928C51.8699 14.8894 36.8525 14.3402 26.2737 21.4739L27.1123 22.7175ZM27.3282 21.6969L27.3244 21.6908L26.054 22.4884L26.0578 22.4945L27.3282 21.6969ZM26.2531 21.4794L25.9705 21.6814L26.8427 22.9017L27.1253 22.6997L26.2531 21.4794ZM26.2271 23.3416C26.4275 23.194 26.6298 23.0494 26.8339 22.9079L25.9792 21.6752C25.7634 21.8249 25.5495 21.9778 25.3376 22.1339L26.2271 23.3416ZM25.3462 22.1276L15.3754 29.2541L16.2476 30.4744L26.2184 23.3479L25.3462 22.1276ZM15.1731 30.2579L16.7733 32.8531L18.0501 32.0658L16.4499 29.4706L15.1731 30.2579ZM12.5801 57.4463C12.5801 47.4303 14.5669 39.1497 18.068 32.8226L16.7555 32.0963C13.1038 38.6958 11.0801 47.2402 11.0801 57.4463H12.5801ZM68.3304 154.009C52.9726 145.142 39.0266 129.896 28.9183 112.388C18.81 94.8802 12.5801 75.1799 12.5801 57.4463L11.0801 57.4463C11.0801 75.5052 17.4142 95.4626 27.6193 113.138C37.8243 130.814 51.941 146.278 67.5804 155.308L68.3304 154.009ZM97.2159 161.302C88.8828 162.408 78.9941 160.165 68.3304 154.009L67.5804 155.308C78.442 161.579 88.6637 163.95 97.4133 162.789L97.2159 161.302ZM96.6762 162.439L98.4164 165.261L99.6932 164.474L97.953 161.652L96.6762 162.439ZM99.4897 165.479L111.429 156.98L110.559 155.758L98.6199 164.257L99.4897 165.479ZM111.629 155.97L111.599 155.923L110.329 156.721L110.359 156.768L111.629 155.97Z" fill="#060606"/>
<circle r="64.8079" transform="matrix(0.866025 0.5 -2.20305e-08 1 57.6253 97.2119)" fill="white" stroke="#060606" stroke-width="1.5"/>
<mask id="mask1_3751_42959" style="mask-type:alpha" maskUnits="userSpaceOnUse" x="0" y="23" width="115" height="148">
<circle r="64.8079" transform="matrix(0.866025 0.5 -2.20305e-08 1 57.6273 97.2119)" fill="#B0F127" stroke="#060606" stroke-width="1.5"/>
</mask>
<g mask="url(#mask1_3751_42959)">
<circle r="64.8079" transform="matrix(0.866025 0.5 -2.20305e-08 1 57.6273 97.2119)" stroke="#060606" stroke-width="1.5"/>
</g>
<path d="M41.6482 98.9927C41.9173 98.8411 42.2874 98.8757 42.6798 99.1023L78.27 119.65C78.9204 120.026 79.2456 121.109 78.7858 121.368L71.7553 125.328C71.4861 125.479 71.1161 125.445 70.7237 125.218L35.1335 104.67C34.4831 104.295 34.1579 103.212 34.6177 102.953L41.6482 98.9927Z" fill="#060606"/>
<path d="M41.6482 69.0952C41.9286 68.9501 42.2986 68.9847 42.6798 69.2048L78.27 89.7528C78.9204 90.1283 79.2456 91.2113 78.7858 91.4703L71.7553 95.4303C71.4861 95.5819 71.1161 95.5473 70.7237 95.3207L35.1335 74.7727C34.4831 74.3972 34.1579 73.3142 34.6177 73.0553L41.6482 69.0952Z" fill="#060606"/>
<path d="M71.7553 101.353C71.4861 100.89 71.1161 100.497 70.7237 100.271L35.1335 79.7229C34.4831 79.3474 34.1579 80.0549 34.6177 80.8447L41.6482 92.923C41.9173 93.3853 42.2874 93.778 42.6798 94.0046L78.27 114.553C78.9204 114.928 79.2456 114.221 78.7858 113.431L71.7553 101.353Z" fill="#060606"/>
</svg>
