<svg width="830" height="480" viewBox="0 0 830 480" fill="none" xmlns="http://www.w3.org/2000/svg">
<path d="M34.699 186.787C15.5353 175.723 15.5353 157.785 34.699 146.72L263.305 14.7345C276.772 6.95965 298.605 6.95967 312.072 14.7345L800.514 296.737C816.57 306.007 816.57 321.036 800.514 330.306L566.28 465.541C552.814 473.316 530.981 473.316 517.514 465.541L34.699 186.787Z" fill="#E7E7E7"/>
<mask id="mask0_3751_42853" style="mask-type:alpha" maskUnits="userSpaceOnUse" x="20" y="8" width="793" height="464">
<path d="M34.699 186.786C15.5353 175.722 15.5353 157.784 34.699 146.719L263.305 14.7335C276.772 6.95868 298.605 6.95869 312.072 14.7335L800.514 296.736C816.57 306.006 816.57 321.035 800.514 330.305L566.281 465.54C552.814 473.315 530.981 473.315 517.514 465.54L34.699 186.786Z" fill="white"/>
</mask>
<g mask="url(#mask0_3751_42853)">
<rect x="10.5996" y="-31.5752" width="277.851" height="461.151" fill="white"/>
</g>
<path d="M34.699 186.787C15.5353 175.723 15.5353 157.785 34.699 146.72L263.305 14.7345C276.772 6.95965 298.605 6.95967 312.072 14.7345L800.514 296.737C816.57 306.007 816.57 321.036 800.514 330.306L566.28 465.541C552.814 473.316 530.981 473.316 517.514 465.541L34.699 186.787Z" stroke="#060606" stroke-width="1.5"/>
<mask id="mask1_3751_42853" style="mask-type:alpha" maskUnits="userSpaceOnUse" x="111" y="64" width="704" height="407">
<rect width="331.083" height="513.886" rx="28.1551" transform="matrix(0.866025 -0.5 0.866025 0.5 96.9258 222.161)" fill="#C0C0C0"/>
</mask>
<g mask="url(#mask1_3751_42853)">
<path d="M412.343 357.055L622.936 235.469C623.972 234.871 624.812 235.355 624.812 236.552L624.812 479.063C624.812 480.259 623.972 481.714 622.936 482.312L414.218 602.815C413.183 603.413 412.343 602.928 412.343 601.732L412.343 357.055Z" fill="white"/>
<path d="M415.123 358.888L232.686 253.558C231.65 252.96 230.811 253.444 230.811 254.641L230.811 479.912C230.811 481.108 231.65 482.562 232.686 483.16L413.247 587.407C414.283 588.005 415.123 587.521 415.123 586.324L415.123 358.888Z" fill="#C0C0C0"/>
<rect width="252.709" height="223.347" rx="17.3262" transform="matrix(0.866025 -0.5 0.866025 0.5 222.188 253.388)" fill="#B0F127" stroke="#060606" stroke-width="1.5"/>
<path d="M541.296 358.333L644.045 299.01C645.081 298.412 645.921 298.897 645.921 300.093L645.921 435.185C645.921 436.381 645.081 437.836 644.045 438.434L543.172 496.674C542.136 497.272 541.296 496.787 541.296 495.591L541.296 358.333Z" fill="white"/>
<path d="M541.296 360.392L516.849 346.277C515.813 345.679 514.974 346.164 514.974 347.36L514.974 480.971C514.974 482.167 515.813 483.622 516.849 484.22L539.42 497.251C540.456 497.849 541.296 497.364 541.296 496.168L541.296 360.392Z" fill="#C0C0C0"/>
<rect width="133.918" height="41.8517" rx="20.9259" transform="matrix(0.866025 -0.5 0.866025 0.5 504.343 347.002)" fill="#060606"/>
<path d="M552.335 345.22L545.898 341.504L543.434 342.926L542.056 342.13L548.46 338.433L549.838 339.229L547.374 340.651L553.811 344.368L552.335 345.22ZM556.606 342.754L550.745 339.37L552.047 338.618L553.48 339.445L553.155 339.42C553.028 339.259 552.945 339.094 552.905 338.925C552.865 338.756 552.883 338.586 552.959 338.417C553.013 338.286 553.1 338.158 553.22 338.035C553.335 337.91 553.477 337.793 553.643 337.684C553.806 337.573 553.987 337.473 554.186 337.383L555.564 338.179C555.351 338.244 555.145 338.344 554.946 338.48C554.747 338.611 554.602 338.751 554.511 338.9C554.417 339.046 554.377 339.192 554.392 339.338C554.403 339.482 554.468 339.625 554.587 339.764C554.703 339.902 554.873 340.036 555.097 340.166L558.093 341.895L556.606 342.754ZM562.754 339.392C562.334 339.635 561.898 339.795 561.446 339.872C560.993 339.945 560.557 339.948 560.138 339.881C559.718 339.81 559.345 339.681 559.02 339.493C558.748 339.336 558.542 339.169 558.401 338.991C558.26 338.814 558.197 338.623 558.211 338.418C558.226 338.209 558.332 337.98 558.531 337.732C558.669 337.56 558.857 337.37 559.096 337.162C559.335 336.953 559.617 336.723 559.942 336.472C560.264 336.219 560.619 335.942 561.006 335.639L560.767 336.115C560.42 335.914 560.082 335.815 559.752 335.817C559.423 335.819 559.063 335.933 558.672 336.159C558.455 336.284 558.282 336.445 558.151 336.641C558.021 336.838 558.043 337.04 558.217 337.249L556.458 337.776C556.122 337.41 556.006 337.022 556.111 336.61C556.216 336.199 556.621 335.789 557.327 335.382C557.844 335.083 558.383 334.864 558.944 334.724C559.505 334.584 560.084 334.567 560.68 334.674C561.013 334.732 561.299 334.818 561.538 334.931C561.777 335.043 562.03 335.177 562.298 335.332L565.88 337.4L564.588 338.145L563.383 337.45L563.817 337.487C563.926 337.88 563.902 338.224 563.747 338.518C563.591 338.809 563.26 339.1 562.754 339.392ZM561.907 338.54C562.178 338.383 562.359 338.225 562.45 338.064C562.54 337.899 562.578 337.75 562.564 337.616C562.553 337.48 562.526 337.377 562.482 337.306C562.399 337.17 562.258 337.038 562.059 336.911C561.86 336.779 561.69 336.673 561.549 336.591L562.092 336.403C561.726 336.698 561.433 336.938 561.212 337.124C560.988 337.308 560.813 337.459 560.686 337.578C560.559 337.697 560.456 337.807 560.377 337.907C560.29 338.024 560.235 338.129 560.214 338.221C560.192 338.308 560.199 338.388 560.235 338.459C560.275 338.528 560.344 338.59 560.442 338.647C560.576 338.724 560.724 338.772 560.887 338.791C561.05 338.805 561.218 338.792 561.391 338.75C561.565 338.708 561.737 338.638 561.907 338.54ZM569.831 335.307C569.292 335.618 568.684 335.812 568.007 335.889C567.331 335.967 566.645 335.936 565.95 335.798C565.259 335.659 564.621 335.419 564.035 335.081C563.438 334.736 563.021 334.364 562.786 333.965C562.551 333.562 562.508 333.163 562.656 332.769C562.804 332.374 563.159 332.014 563.72 331.691C564.277 331.369 564.881 331.177 565.532 331.114C566.184 331.051 566.84 331.098 567.502 331.255C568.165 331.412 568.789 331.659 569.375 331.998C569.961 332.336 570.388 332.698 570.656 333.082C570.927 333.464 571.003 333.846 570.883 334.229C570.764 334.611 570.413 334.97 569.831 335.307ZM568.756 334.41C569.085 334.22 569.273 334.026 569.32 333.828C569.371 333.627 569.306 333.424 569.125 333.22C568.944 333.015 568.676 332.81 568.322 332.606C567.967 332.401 567.613 332.246 567.258 332.142C566.904 332.037 566.556 331.998 566.216 332.023C565.88 332.046 565.558 332.146 565.25 332.324C564.921 332.514 564.731 332.717 564.68 332.935C564.63 333.148 564.689 333.362 564.859 333.577C565.026 333.79 565.272 333.991 565.598 334.179C565.927 334.369 566.276 334.514 566.645 334.614C567.01 334.712 567.374 334.749 567.736 334.724C568.098 334.699 568.438 334.594 568.756 334.41ZM571.253 334.298L567.236 331.979L567.052 332.085L563.253 329.892L564.74 329.034L572.555 333.546L571.253 334.298ZM576.962 331.189C576.361 331.536 575.703 331.768 574.986 331.885C574.27 331.998 573.555 331.999 572.843 331.888C572.13 331.773 571.48 331.547 570.894 331.208C570.254 330.838 569.823 330.444 569.603 330.024C569.382 329.604 569.364 329.19 569.548 328.783C569.729 328.374 570.109 328.002 570.688 327.667C571.303 327.312 571.971 327.094 572.691 327.013C573.411 326.931 574.136 326.982 574.867 327.166C575.598 327.35 576.287 327.664 576.935 328.109L575.475 328.952L574.932 328.639C574.335 328.294 573.81 328.102 573.358 328.062C572.906 328.018 572.465 328.121 572.034 328.369C571.531 328.66 571.314 328.963 571.383 329.278C571.452 329.589 571.784 329.917 572.381 330.262C572.928 330.577 573.469 330.754 574.004 330.791C574.54 330.825 575.037 330.709 575.496 330.444C575.786 330.277 575.97 330.097 576.05 329.905C576.13 329.713 576.104 329.516 575.974 329.316L577.874 328.708C578.188 329.144 578.255 329.586 578.074 330.033C577.897 330.478 577.526 330.863 576.962 331.189ZM572.338 330.763L571.242 330.13L575.127 327.887L576.224 328.52L572.338 330.763ZM582.851 327.601L575.036 323.089L578.162 321.284C578.719 320.963 579.282 320.767 579.85 320.698C580.414 320.627 580.944 320.643 581.44 320.745C581.936 320.848 582.356 320.998 582.699 321.197C583.137 321.449 583.401 321.717 583.492 321.999C583.586 322.279 583.51 322.546 583.264 322.801L582.992 322.644C583.582 322.421 584.174 322.34 584.767 322.403C585.364 322.464 585.879 322.619 586.314 322.87C586.78 323.139 587.104 323.426 587.285 323.731C587.47 324.034 587.488 324.346 587.339 324.665C587.187 324.983 586.845 325.295 586.314 325.602L582.851 327.601ZM582.96 325.934L584.772 324.888C584.971 324.773 585.107 324.646 585.179 324.509C585.248 324.369 585.25 324.23 585.185 324.092C585.12 323.95 584.982 323.818 584.772 323.697C584.588 323.59 584.385 323.517 584.165 323.478C583.944 323.438 583.714 323.439 583.475 323.481C583.236 323.518 583.003 323.603 582.775 323.735L580.963 324.781L582.96 325.934ZM579.584 323.985L581.19 323.058C581.357 322.962 581.476 322.859 581.549 322.751C581.621 322.642 581.636 322.531 581.592 322.419C581.545 322.304 581.426 322.191 581.234 322.08C580.995 321.942 580.72 321.869 580.409 321.861C580.098 321.853 579.801 321.93 579.519 322.093L577.913 323.02L579.584 323.985ZM583.195 319.694L581.893 318.942L583.369 318.09L584.672 318.842L583.195 319.694ZM589.871 323.548L584.01 320.164L585.486 319.312L591.347 322.696L589.871 323.548ZM596.491 319.726C596.161 320.004 595.796 320.253 595.394 320.472C595 320.691 594.586 320.853 594.152 320.958C593.717 321.058 593.278 321.072 592.833 320.998C592.42 320.927 592.073 320.815 591.791 320.66C591.505 320.503 591.187 320.324 590.836 320.121L585.832 317.232L587.308 316.38L592.225 319.219C592.453 319.35 592.661 319.468 592.849 319.573C593.037 319.673 593.22 319.735 593.397 319.758C593.734 319.802 594.054 319.746 594.358 319.592C594.662 319.437 594.964 319.246 595.264 319.018L596.491 319.726ZM587.601 319.407L586.461 318.749L590.629 316.342L591.769 317L587.601 319.407ZM600.225 317.758C599.617 318.109 598.96 318.332 598.255 318.426C597.549 318.52 596.847 318.499 596.149 318.363C595.451 318.227 594.809 317.99 594.223 317.652C593.629 317.309 593.219 316.934 592.991 316.527C592.766 316.118 592.739 315.709 592.909 315.302C593.079 314.895 593.463 314.519 594.06 314.174C594.751 313.775 595.505 313.542 596.323 313.475C597.141 313.404 597.917 313.505 598.651 313.779L597.566 314.857C597.175 314.732 596.786 314.682 596.399 314.71C596.015 314.735 595.688 314.826 595.417 314.982C595.105 315.162 594.926 315.353 594.879 315.556C594.829 315.756 594.886 315.959 595.053 316.164C595.216 316.366 595.46 316.561 595.786 316.749C596.296 317.044 596.822 317.218 597.365 317.273C597.908 317.323 598.401 317.219 598.846 316.963C599.179 316.77 599.357 316.58 599.378 316.392C599.4 316.204 599.313 316.004 599.118 315.791L600.941 315.101C601.397 315.557 601.562 316.015 601.435 316.477C601.309 316.938 600.905 317.366 600.225 317.758ZM606.448 314.165C605.858 314.506 605.209 314.728 604.5 314.833C603.791 314.937 603.08 314.928 602.367 314.805C601.654 314.677 600.996 314.439 600.392 314.09C599.78 313.737 599.37 313.354 599.16 312.94C598.946 312.525 598.932 312.113 599.116 311.706C599.301 311.298 599.682 310.928 600.261 310.593C600.851 310.253 601.501 310.03 602.21 309.926C602.922 309.819 603.637 309.829 604.353 309.954C605.066 310.077 605.725 310.313 606.329 310.662C606.937 311.013 607.347 311.397 607.561 311.812C607.774 312.224 607.789 312.635 607.604 313.047C607.42 313.454 607.034 313.827 606.448 314.165ZM605.07 313.369C605.544 313.096 605.737 312.8 605.65 312.483C605.564 312.161 605.269 311.855 604.766 311.565C604.245 311.264 603.709 311.093 603.159 311.051C602.613 311.007 602.107 311.12 601.64 311.389C601.318 311.575 601.126 311.769 601.065 311.972C601.003 312.175 601.05 312.379 601.206 312.586C601.365 312.791 601.615 312.991 601.955 313.188C602.479 313.491 603.015 313.664 603.561 313.708C604.107 313.748 604.61 313.635 605.07 313.369ZM603.886 307.749L602.584 306.997L604.06 306.144L605.362 306.896L603.886 307.749ZM610.561 311.603L604.7 308.219L606.176 307.366L612.038 310.75L610.561 311.603ZM617.659 307.505L614.891 305.907C614.757 305.83 614.58 305.736 614.359 305.625C614.135 305.512 613.88 305.417 613.594 305.34C613.308 305.262 613.008 305.233 612.693 305.252C612.382 305.269 612.069 305.368 611.754 305.55C611.628 305.623 611.512 305.713 611.407 305.819C611.302 305.926 611.244 306.049 611.233 306.189C611.219 306.327 611.28 306.483 611.418 306.659C611.559 306.832 611.812 307.024 612.178 307.235L610.929 307.492C610.466 307.225 610.126 306.92 609.909 306.577C609.692 306.235 609.647 305.883 609.773 305.521C609.904 305.158 610.256 304.81 610.832 304.478C611.291 304.213 611.743 304.041 612.188 303.964C612.633 303.887 613.055 303.871 613.453 303.917C613.855 303.961 614.22 304.038 614.549 304.149C614.875 304.258 615.152 304.369 615.38 304.484C615.608 304.599 615.77 304.685 615.868 304.741L619.157 306.64L617.659 307.505ZM613.654 309.817L607.793 306.433L609.106 305.675L611.049 306.797L611.233 306.69L615.152 308.952L613.654 309.817Z" fill="white"/>
</g>
<path d="M55.7417 160.928C56.3591 160.572 57.0563 160.336 57.8333 160.222C58.6147 160.105 59.4069 160.113 60.2099 160.248C61.0085 160.38 61.7468 160.642 62.4245 161.033L65.1313 162.596C65.8652 163.02 66.3574 163.468 66.6078 163.942C66.8538 164.413 66.8625 164.881 66.6337 165.348C66.4005 165.811 65.9343 166.245 65.2349 166.649C64.7816 166.91 64.283 167.121 63.7391 167.28C63.1951 167.435 62.5929 167.521 61.9324 167.538L61.9324 166.088C62.2432 166.088 62.5433 166.054 62.8325 165.987C63.1261 165.917 63.3786 165.821 63.5901 165.699C63.9269 165.505 64.1406 165.291 64.2312 165.06C64.3219 164.823 64.3089 164.594 64.1924 164.372C64.0758 164.145 63.8751 163.949 63.5901 163.785L62.2044 162.985L62.826 163C62.8347 163.309 62.7354 163.608 62.5281 163.897C62.3166 164.184 62.023 164.435 61.6475 164.652C61.0603 164.991 60.4106 165.214 59.6983 165.321C58.9903 165.426 58.2802 165.42 57.5678 165.303C56.8598 165.183 56.2123 164.954 55.6252 164.615C55.0381 164.276 54.6581 163.884 54.4855 163.441C54.3085 162.995 54.3279 162.55 54.5437 162.106C54.7553 161.66 55.1546 161.267 55.7417 160.928ZM57.4254 161.9C57.1577 162.055 56.9764 162.234 56.8814 162.439C56.7908 162.641 56.7886 162.844 56.875 163.048C56.9656 163.25 57.1448 163.428 57.4124 163.583C57.6801 163.737 57.9909 163.842 58.3449 163.897C58.6946 163.949 59.0464 163.95 59.4004 163.901C59.7501 163.848 60.0588 163.745 60.3264 163.59C60.5941 163.436 60.7733 163.258 60.8639 163.056C60.9546 162.849 60.9546 162.644 60.8639 162.443C60.7733 162.236 60.5941 162.055 60.3264 161.9C60.0674 161.751 59.7631 161.65 59.4134 161.598C59.0637 161.545 58.7119 161.544 58.3579 161.594C58.0039 161.644 57.693 161.746 57.4254 161.9ZM69.7429 162.924L67.9815 161.907L69.7429 160.89L71.5042 161.907L69.7429 162.924ZM66.0777 160.793L64.3163 159.776L66.0777 158.759L67.839 159.776L66.0777 160.793ZM78.1148 158.988L76.6642 158.151L72.6105 160.491L70.9657 159.541L67.6761 154.247L69.6965 153.081L72.9861 158.375L75.0194 157.201L72.6882 155.855L74.4755 154.823L76.8067 156.169L77.6356 155.691L79.2804 156.64L78.4515 157.119L79.902 157.956L78.1148 158.988ZM83.5962 155.823L76.1881 151.546L75.5146 153.176L73.572 152.055L74.2713 150.44L76.0715 149.4L85.3964 154.784L83.5962 155.823Z" fill="#060606"/>
<path opacity="0.35" d="M274.754 34.7162L287.706 27.2388C289.03 26.4743 291.177 26.4743 292.501 27.2388L296.31 29.4381C297.635 30.2026 297.635 31.4423 296.31 32.2068L283.359 39.6842C282.035 40.4488 279.888 40.4488 278.564 39.6842L274.754 37.485C273.43 36.7204 273.43 35.4808 274.754 34.7162Z" stroke="#060606" stroke-width="1.5"/>
<path opacity="0.4" d="M294.674 26.8643L297.889 28.7206C298.264 28.1899 298.051 27.5813 297.349 27.1761C296.647 26.7709 295.593 26.648 294.674 26.8643" fill="#060606"/>
<path d="M275.629 36.9803C274.788 36.4944 274.788 35.7067 275.629 35.2209L288.58 27.7435C289.422 27.2577 290.786 27.2577 291.628 27.7435L295.437 29.9428C296.278 30.4286 296.278 31.2163 295.437 31.7021L282.486 39.1795C281.644 39.6653 280.28 39.6653 279.438 39.1795L275.629 36.9803Z" fill="#060606"/>
<path fill-rule="evenodd" clip-rule="evenodd" d="M261.981 44.4979C263.861 43.413 266.405 42.7951 269.088 42.7719C269.293 42.7716 269.456 42.6762 269.453 42.558L269.423 41.409C269.422 41.3491 269.379 41.2916 269.305 41.249C269.23 41.2065 269.13 41.1825 269.026 41.1824C261.955 41.2273 256.316 44.4831 256.238 48.5656C256.238 48.6255 256.28 48.6833 256.353 48.7264C256.427 48.7694 256.527 48.7941 256.63 48.795L258.621 48.8119C258.826 48.8135 258.991 48.7195 258.991 48.6014C259.032 47.0519 260.102 45.5829 261.981 44.4979ZM265.121 46.2792C266.153 45.6831 267.54 45.3344 269.013 45.301C269.217 45.2992 269.378 45.2038 269.376 45.086L269.345 43.9376C269.344 43.8772 269.3 43.8192 269.225 43.7765C269.15 43.7339 269.048 43.7101 268.944 43.7105C264.4 43.7784 260.791 45.8621 260.674 48.4852C260.673 48.5456 260.714 48.6041 260.788 48.6476C260.862 48.6911 260.963 48.716 261.067 48.7167L263.056 48.7346C263.26 48.7359 263.425 48.643 263.428 48.5253C263.486 47.6756 264.089 46.8751 265.121 46.2792ZM269.146 46.3024C269.222 46.3447 269.265 46.4031 269.266 46.4636L269.317 48.4488C269.318 48.5071 269.279 48.5628 269.209 48.6036C269.138 48.6444 269.042 48.6668 268.941 48.6659L265.502 48.6366C265.397 48.6365 265.296 48.6114 265.223 48.5673C265.149 48.5232 265.11 48.4639 265.114 48.4035C265.262 47.2398 266.846 46.3251 268.862 46.2398C268.967 46.2374 269.069 46.26 269.146 46.3024Z" fill="#060606"/>
<path d="M243.632 55.4533C243.212 55.2104 243.212 54.8165 243.632 54.5736L244.394 54.1338C244.815 53.8909 245.497 53.8909 245.918 54.1338L252.013 57.6525C252.433 57.8955 252.433 58.2893 252.013 58.5322L251.251 58.9721C250.83 59.215 250.148 59.215 249.727 58.9721L243.632 55.4533Z" fill="#060606"/>
<path d="M245.918 52.3744C245.497 52.1315 245.497 51.7376 245.918 51.4947L246.68 51.0549C247.1 50.8119 247.783 50.8119 248.203 51.0549L255.822 55.4533C256.242 55.6962 256.242 56.0901 255.822 56.333L255.06 56.7728C254.639 57.0158 253.957 57.0158 253.536 56.7728L245.918 52.3744Z" fill="#060606"/>
<path d="M242.49 59.192C242.069 58.9491 242.069 58.5552 242.49 58.3123L243.251 57.8725C243.672 57.6295 244.354 57.6295 244.775 57.8725L248.203 59.8518C248.624 60.0947 248.624 60.4885 248.203 60.7315L247.442 61.1713C247.021 61.4142 246.339 61.4142 245.918 61.1713L242.49 59.192Z" fill="#060606"/>
<path d="M240.585 62.4908C240.164 62.2479 240.164 61.8541 240.585 61.6111L241.347 61.1713C241.768 60.9284 242.45 60.9284 242.871 61.1713L244.394 62.051C244.815 62.2939 244.815 62.6878 244.394 62.9307L243.632 63.3705C243.212 63.6134 242.529 63.6134 242.109 63.3705L240.585 62.4908Z" fill="#060606"/>
<rect width="67.9529" height="20.682" rx="10.341" transform="matrix(0.866025 -0.5 0.866025 0.5 138.572 109.622)" fill="#060606"/>
<circle r="4.91971" transform="matrix(0.866025 -0.5 0.866025 0.5 156.492 108.751)" fill="white"/>
<rect opacity="0.4" width="260.604" height="148.641" rx="12.9947" transform="matrix(0.866025 -0.5 0.866025 0.5 226.037 220.953)" fill="#060606"/>
<rect width="277.449" height="159.707" rx="12.9947" transform="matrix(0.866025 -0.5 0.866025 0.5 215.332 200.189)" fill="#B0F127" stroke="#060606" stroke-width="1.5"/>
<path d="M252.585 199.038L246.851 195.728L249.144 194.403C249.553 194.167 249.966 194.024 250.383 193.974C250.797 193.921 251.186 193.933 251.55 194.008C251.913 194.083 252.221 194.193 252.473 194.339C252.795 194.525 252.988 194.721 253.055 194.928C253.124 195.133 253.068 195.329 252.888 195.516L252.688 195.401C253.121 195.237 253.555 195.178 253.991 195.224C254.429 195.269 254.807 195.383 255.126 195.567C255.468 195.765 255.706 195.975 255.838 196.199C255.974 196.421 255.987 196.65 255.878 196.884C255.767 197.117 255.516 197.346 255.126 197.572L252.585 199.038ZM252.665 197.815L253.995 197.047C254.141 196.963 254.24 196.87 254.293 196.769C254.344 196.667 254.345 196.565 254.297 196.463C254.249 196.359 254.149 196.263 253.995 196.174C253.859 196.096 253.711 196.042 253.549 196.013C253.387 195.984 253.218 195.984 253.043 196.015C252.868 196.043 252.696 196.105 252.529 196.201L251.199 196.969L252.665 197.815ZM250.188 196.385L251.366 195.705C251.489 195.634 251.576 195.559 251.629 195.479C251.682 195.4 251.693 195.319 251.661 195.236C251.627 195.151 251.539 195.069 251.398 194.987C251.223 194.886 251.021 194.833 250.793 194.827C250.565 194.82 250.347 194.877 250.14 194.997L248.961 195.677L250.188 196.385ZM252.838 193.237L251.882 192.685L252.965 192.06L253.921 192.611L252.838 193.237ZM257.736 196.065L253.435 193.582L254.518 192.956L258.819 195.439L257.736 196.065ZM262.593 193.26C262.352 193.464 262.083 193.647 261.789 193.807C261.499 193.968 261.195 194.087 260.877 194.164C260.558 194.237 260.236 194.247 259.909 194.194C259.606 194.142 259.352 194.059 259.145 193.945C258.935 193.83 258.701 193.699 258.444 193.55L254.772 191.43L255.855 190.805L259.463 192.888C259.63 192.984 259.783 193.071 259.921 193.148C260.059 193.221 260.193 193.266 260.323 193.283C260.57 193.315 260.805 193.275 261.028 193.161C261.251 193.048 261.473 192.908 261.693 192.741L262.593 193.26ZM256.07 193.026L255.234 192.543L258.292 190.777L259.129 191.26L256.07 193.026ZM265.333 191.816C264.887 192.074 264.405 192.237 263.888 192.306C263.37 192.375 262.855 192.36 262.343 192.26C261.83 192.16 261.359 191.986 260.929 191.738C260.493 191.487 260.192 191.212 260.025 190.913C259.86 190.612 259.84 190.313 259.965 190.014C260.09 189.715 260.371 189.439 260.809 189.186C261.316 188.893 261.87 188.722 262.47 188.673C263.07 188.621 263.639 188.696 264.178 188.896L263.382 189.687C263.095 189.595 262.81 189.559 262.526 189.579C262.244 189.598 262.004 189.664 261.805 189.779C261.577 189.911 261.445 190.051 261.411 190.2C261.374 190.347 261.416 190.496 261.538 190.646C261.658 190.795 261.837 190.938 262.076 191.076C262.45 191.292 262.836 191.42 263.235 191.46C263.633 191.497 263.995 191.421 264.322 191.232C264.566 191.091 264.696 190.952 264.712 190.814C264.728 190.676 264.664 190.529 264.521 190.372L265.859 189.867C266.193 190.201 266.314 190.537 266.221 190.876C266.128 191.215 265.832 191.528 265.333 191.816ZM269.9 189.18C269.467 189.43 268.99 189.593 268.47 189.67C267.95 189.746 267.428 189.739 266.905 189.649C266.382 189.555 265.899 189.381 265.455 189.125C265.007 188.866 264.705 188.584 264.552 188.281C264.395 187.976 264.384 187.674 264.52 187.375C264.655 187.076 264.935 186.804 265.36 186.559C265.793 186.309 266.269 186.146 266.789 186.069C267.312 185.991 267.837 185.998 268.362 186.09C268.885 186.18 269.369 186.353 269.812 186.609C270.258 186.867 270.559 187.148 270.716 187.453C270.873 187.755 270.883 188.057 270.748 188.359C270.612 188.658 270.33 188.932 269.9 189.18ZM268.888 188.596C269.236 188.395 269.378 188.178 269.314 187.945C269.25 187.709 269.034 187.485 268.665 187.272C268.283 187.051 267.89 186.925 267.486 186.895C267.086 186.862 266.714 186.945 266.371 187.143C266.135 187.279 265.994 187.422 265.949 187.57C265.904 187.719 265.939 187.869 266.053 188.021C266.17 188.171 266.353 188.318 266.602 188.462C266.987 188.685 267.38 188.812 267.781 188.844C268.182 188.873 268.551 188.791 268.888 188.596ZM268.02 184.471L267.064 183.92L268.147 183.294L269.103 183.846L268.02 184.471ZM272.918 187.299L268.617 184.816L269.7 184.191L274.001 186.674L272.918 187.299ZM278.126 184.293L276.095 183.12C275.996 183.063 275.866 182.994 275.704 182.913C275.54 182.83 275.353 182.761 275.143 182.704C274.933 182.647 274.713 182.626 274.482 182.64C274.254 182.652 274.024 182.725 273.793 182.858C273.7 182.912 273.615 182.977 273.538 183.056C273.461 183.134 273.419 183.224 273.411 183.327C273.4 183.428 273.445 183.543 273.546 183.672C273.65 183.799 273.835 183.94 274.104 184.095L273.188 184.283C272.848 184.087 272.598 183.863 272.439 183.612C272.28 183.361 272.247 183.102 272.339 182.837C272.435 182.571 272.694 182.315 273.116 182.072C273.453 181.877 273.785 181.751 274.112 181.695C274.438 181.638 274.747 181.626 275.039 181.66C275.334 181.692 275.602 181.749 275.844 181.83C276.083 181.91 276.286 181.992 276.453 182.076C276.62 182.161 276.74 182.223 276.811 182.265L279.225 183.658L278.126 184.293ZM275.187 185.989L270.886 183.506L271.85 182.95L273.275 183.773L273.411 183.695L276.286 185.355L275.187 185.989ZM281.852 182.141L276.118 178.83L278.412 177.506C278.821 177.27 279.233 177.127 279.65 177.076C280.064 177.024 280.453 177.035 280.817 177.11C281.181 177.186 281.489 177.296 281.741 177.442C282.062 177.627 282.256 177.823 282.322 178.03C282.391 178.235 282.336 178.432 282.155 178.619L281.956 178.504C282.389 178.34 282.823 178.281 283.258 178.327C283.696 178.371 284.074 178.485 284.393 178.669C284.735 178.867 284.973 179.078 285.106 179.302C285.241 179.524 285.255 179.752 285.146 179.987C285.034 180.22 284.783 180.449 284.393 180.674L281.852 182.141ZM281.932 180.918L283.262 180.15C283.408 180.066 283.508 179.973 283.561 179.872C283.611 179.769 283.613 179.667 283.565 179.566C283.517 179.462 283.416 179.365 283.262 179.276C283.127 179.198 282.978 179.144 282.816 179.115C282.654 179.086 282.486 179.087 282.31 179.118C282.135 179.145 281.964 179.207 281.797 179.304L280.467 180.072L281.932 180.918ZM279.455 179.488L280.634 178.807C280.756 178.737 280.844 178.662 280.897 178.582C280.95 178.502 280.96 178.421 280.929 178.338C280.894 178.254 280.806 178.171 280.666 178.09C280.49 177.989 280.289 177.935 280.06 177.929C279.832 177.923 279.614 177.98 279.407 178.099L278.229 178.78L279.455 179.488ZM288.238 178.592C287.93 178.77 287.61 178.887 287.278 178.944C286.946 178.998 286.626 179 286.318 178.951C286.01 178.899 285.737 178.804 285.498 178.666C285.299 178.551 285.147 178.428 285.044 178.298C284.94 178.168 284.894 178.028 284.904 177.877C284.915 177.724 284.993 177.556 285.139 177.374C285.24 177.248 285.378 177.109 285.554 176.955C285.729 176.802 285.936 176.634 286.175 176.45C286.411 176.264 286.671 176.06 286.955 175.838L286.78 176.188C286.525 176.04 286.277 175.968 286.035 175.969C285.794 175.971 285.53 176.054 285.243 176.22C285.084 176.312 284.956 176.43 284.861 176.574C284.765 176.718 284.781 176.867 284.908 177.02L283.618 177.406C283.371 177.138 283.286 176.853 283.363 176.551C283.44 176.249 283.738 175.948 284.255 175.65C284.635 175.43 285.031 175.269 285.442 175.167C285.854 175.064 286.278 175.052 286.716 175.13C286.961 175.173 287.17 175.236 287.346 175.318C287.521 175.401 287.707 175.499 287.903 175.613L290.531 177.13L289.584 177.677L288.699 177.167L289.018 177.195C289.098 177.483 289.08 177.735 288.966 177.951C288.852 178.164 288.609 178.378 288.238 178.592ZM287.616 177.967C287.815 177.852 287.948 177.736 288.015 177.618C288.081 177.496 288.109 177.387 288.098 177.289C288.09 177.189 288.07 177.113 288.038 177.061C287.977 176.962 287.874 176.865 287.728 176.771C287.582 176.675 287.457 176.597 287.354 176.537L287.752 176.399C287.484 176.615 287.269 176.791 287.107 176.928C286.942 177.063 286.813 177.174 286.72 177.261C286.627 177.349 286.552 177.429 286.493 177.503C286.43 177.588 286.39 177.665 286.374 177.733C286.358 177.797 286.363 177.855 286.39 177.907C286.419 177.958 286.469 178.004 286.541 178.045C286.639 178.102 286.748 178.137 286.868 178.151C286.987 178.162 287.111 178.152 287.238 178.121C287.365 178.09 287.492 178.039 287.616 177.967ZM291.646 176.486L285.793 173.107L286.876 172.481L292.73 175.861L291.646 176.486ZM295.237 174.551C294.93 174.729 294.61 174.846 294.278 174.903C293.946 174.956 293.626 174.959 293.318 174.91C293.01 174.858 292.737 174.762 292.498 174.625C292.299 174.51 292.147 174.387 292.044 174.257C291.94 174.126 291.894 173.986 291.904 173.836C291.915 173.683 291.993 173.515 292.139 173.332C292.24 173.207 292.378 173.067 292.553 172.914C292.729 172.761 292.936 172.592 293.175 172.408C293.411 172.223 293.671 172.019 293.955 171.797L293.78 172.146C293.525 171.999 293.277 171.926 293.035 171.928C292.794 171.929 292.53 172.013 292.243 172.178C292.084 172.27 291.956 172.388 291.861 172.532C291.765 172.676 291.781 172.825 291.908 172.978L290.618 173.365C290.371 173.096 290.286 172.811 290.363 172.509C290.44 172.207 290.738 171.907 291.255 171.608C291.635 171.389 292.031 171.228 292.442 171.125C292.853 171.023 293.278 171.01 293.716 171.089C293.961 171.131 294.17 171.194 294.345 171.277C294.521 171.36 294.707 171.458 294.903 171.571L297.531 173.089L296.583 173.636L295.699 173.126L296.018 173.153C296.098 173.441 296.08 173.693 295.966 173.91C295.852 174.123 295.609 174.336 295.237 174.551ZM294.616 173.926C294.815 173.811 294.948 173.694 295.014 173.576C295.081 173.455 295.109 173.345 295.098 173.247C295.09 173.148 295.07 173.072 295.038 173.02C294.977 172.92 294.874 172.824 294.728 172.73C294.582 172.634 294.457 172.555 294.353 172.496L294.752 172.358C294.484 172.574 294.268 172.75 294.107 172.886C293.942 173.021 293.813 173.132 293.72 173.22C293.627 173.307 293.552 173.388 293.493 173.461C293.43 173.547 293.39 173.624 293.374 173.691C293.358 173.755 293.363 173.814 293.39 173.866C293.419 173.916 293.469 173.962 293.541 174.004C293.639 174.06 293.748 174.096 293.868 174.11C293.987 174.12 294.111 174.11 294.238 174.08C294.365 174.049 294.491 173.998 294.616 173.926ZM301.498 170.799L299.467 169.626C299.368 169.57 299.238 169.501 299.076 169.419C298.912 169.337 298.725 169.267 298.515 169.21C298.305 169.153 298.085 169.132 297.854 169.146C297.626 169.158 297.396 169.231 297.165 169.364C297.072 169.418 296.987 169.484 296.91 169.562C296.833 169.64 296.791 169.73 296.783 169.833C296.772 169.934 296.817 170.049 296.918 170.178C297.022 170.305 297.207 170.446 297.476 170.601L296.56 170.79C296.22 170.593 295.97 170.37 295.811 170.118C295.652 169.867 295.619 169.609 295.711 169.343C295.807 169.077 296.066 168.822 296.488 168.578C296.825 168.383 297.157 168.257 297.483 168.201C297.81 168.144 298.119 168.133 298.411 168.166C298.706 168.198 298.974 168.255 299.216 168.336C299.455 168.416 299.658 168.498 299.825 168.582C299.992 168.667 300.112 168.73 300.183 168.771L302.597 170.164L301.498 170.799ZM298.559 172.496L294.258 170.012L295.222 169.456L296.647 170.279L296.783 170.201L299.658 171.861L298.559 172.496ZM305.567 168.587C305.121 168.845 304.639 169.008 304.122 169.077C303.604 169.146 303.089 169.131 302.577 169.031C302.064 168.931 301.593 168.757 301.163 168.509C300.727 168.258 300.426 167.982 300.259 167.684C300.094 167.383 300.074 167.084 300.199 166.785C300.324 166.486 300.605 166.21 301.043 165.957C301.55 165.664 302.104 165.493 302.704 165.444C303.304 165.392 303.873 165.466 304.412 165.667L303.616 166.458C303.329 166.366 303.044 166.33 302.76 166.35C302.478 166.369 302.238 166.435 302.039 166.55C301.811 166.682 301.679 166.822 301.645 166.971C301.608 167.118 301.65 167.267 301.772 167.417C301.892 167.566 302.071 167.709 302.31 167.847C302.684 168.063 303.07 168.191 303.469 168.231C303.867 168.268 304.229 168.192 304.556 168.003C304.8 167.862 304.93 167.723 304.946 167.585C304.962 167.447 304.898 167.3 304.755 167.143L306.093 166.638C306.427 166.972 306.548 167.308 306.455 167.647C306.362 167.986 306.066 168.299 305.567 168.587ZM310.197 165.914C309.757 166.168 309.273 166.338 308.748 166.424C308.222 166.507 307.698 166.508 307.175 166.427C306.652 166.342 306.175 166.176 305.745 165.928C305.275 165.656 304.959 165.367 304.797 165.059C304.636 164.751 304.622 164.447 304.758 164.148C304.89 163.848 305.169 163.575 305.594 163.33C306.045 163.069 306.535 162.909 307.063 162.849C307.592 162.789 308.124 162.827 308.66 162.962C309.196 163.097 309.702 163.327 310.177 163.654L309.106 164.272L308.708 164.042C308.27 163.79 307.885 163.649 307.553 163.619C307.221 163.587 306.897 163.662 306.581 163.845C306.212 164.058 306.053 164.28 306.104 164.511C306.154 164.74 306.398 164.98 306.836 165.233C307.237 165.465 307.634 165.594 308.027 165.622C308.42 165.646 308.785 165.561 309.122 165.367C309.334 165.244 309.47 165.112 309.528 164.971C309.587 164.83 309.568 164.686 309.473 164.539L310.866 164.093C311.097 164.413 311.146 164.738 311.014 165.066C310.884 165.392 310.611 165.675 310.197 165.914ZM306.804 165.601L306 165.137L308.851 163.491L309.656 163.955L306.804 165.601Z" fill="#060606"/>
<path d="M274.686 207.986C273.648 208.586 272.522 208.985 271.308 209.183C270.095 209.382 268.881 209.382 267.668 209.183C266.454 208.985 265.328 208.586 264.29 207.986L260.085 205.558C259.046 204.959 258.355 204.309 258.011 203.608C257.667 202.908 257.667 202.207 258.011 201.506C258.355 200.806 259.046 200.156 260.085 199.556C261.123 198.957 262.249 198.558 263.462 198.359C264.676 198.16 265.89 198.16 267.103 198.359C268.317 198.558 269.443 198.957 270.481 199.556L274.686 201.984C275.724 202.583 276.415 203.233 276.759 203.934C277.103 204.635 277.103 205.335 276.759 206.036C276.415 206.737 275.724 207.387 274.686 207.986ZM272.175 206.536C272.642 206.266 272.953 205.959 273.109 205.614C273.265 205.27 273.265 204.925 273.109 204.58C272.953 204.236 272.642 203.928 272.175 203.659L267.561 200.995C267.093 200.725 266.561 200.545 265.964 200.455C265.367 200.365 264.77 200.365 264.173 200.455C263.576 200.545 263.044 200.725 262.577 200.995C262.109 201.265 261.798 201.572 261.642 201.917C261.486 202.261 261.486 202.606 261.642 202.951C261.798 203.295 262.109 203.603 262.577 203.872L267.191 206.536C267.658 206.806 268.19 206.986 268.787 207.076C269.384 207.166 269.981 207.166 270.578 207.076C271.175 206.986 271.707 206.806 272.175 206.536ZM282.743 202.997L280.095 201.469L282.743 199.94L285.39 201.469L282.743 202.997ZM288.141 199.858L285.844 198.532L286.506 192.125C286.558 191.645 286.503 191.254 286.341 190.95C286.178 190.647 285.948 190.409 285.649 190.236C285.221 189.989 284.754 189.821 284.248 189.731C283.735 189.637 283.226 189.628 282.72 189.703C282.207 189.774 281.736 189.933 281.308 190.18C280.86 190.439 280.568 190.727 280.432 191.046C280.296 191.357 280.302 191.664 280.451 191.967C280.594 192.267 280.867 192.526 281.269 192.743L278.544 194.317C277.583 193.762 276.963 193.161 276.684 192.513C276.405 191.864 276.451 191.212 276.821 190.557C277.19 189.901 277.875 189.285 278.874 188.708C279.79 188.18 280.808 187.824 281.931 187.64C283.054 187.449 284.18 187.44 285.309 187.612C286.438 187.784 287.473 188.142 288.414 188.685C289.108 189.086 289.589 189.476 289.855 189.854C290.114 190.229 290.247 190.639 290.254 191.085C290.254 191.527 290.218 192.05 290.147 192.653L289.679 196.767L288.881 196.553L295.462 192.754L297.954 194.193L288.141 199.858ZM299.891 193.074L297.594 191.748L298.256 185.341C298.308 184.862 298.252 184.47 298.09 184.167C297.928 183.863 297.698 183.625 297.399 183.453C296.971 183.206 296.503 183.037 295.997 182.947C295.485 182.853 294.975 182.844 294.469 182.919C293.956 182.99 293.486 183.149 293.058 183.397C292.61 183.655 292.318 183.944 292.181 184.262C292.045 184.573 292.052 184.88 292.201 185.184C292.344 185.484 292.616 185.742 293.019 185.959L290.293 187.533C289.333 186.979 288.713 186.377 288.434 185.729C288.155 185.081 288.2 184.429 288.57 183.773C288.94 183.118 289.625 182.501 290.624 181.924C291.539 181.396 292.558 181.04 293.681 180.856C294.803 180.665 295.929 180.656 297.058 180.828C298.187 181.001 299.223 181.358 300.164 181.902C300.858 182.303 301.338 182.692 301.604 183.071C301.864 183.445 301.997 183.856 302.003 184.302C302.003 184.744 301.968 185.266 301.896 185.87L301.429 189.983L300.631 189.77L307.211 185.971L309.703 187.409L299.891 193.074ZM314.483 184.672L303.347 178.243L302.335 180.693L299.414 179.007L300.466 176.579L303.172 175.017L317.189 183.11L314.483 184.672ZM321.591 180.568L314.777 171.194L308.781 174.656L306.289 173.217L315.127 168.114L317.619 169.553L324.453 178.916L321.591 180.568ZM336.404 172.016L334.224 170.757L328.13 174.275L325.658 172.848L320.713 164.89L323.75 163.136L328.695 171.094L331.751 169.329L328.247 167.306L330.934 165.755L334.438 167.778L335.684 167.059L338.157 168.486L336.911 169.206L339.091 170.465L336.404 172.016ZM347.856 165.741C346.928 166.277 345.877 166.633 344.703 166.809C343.534 166.981 342.35 166.968 341.15 166.77C339.943 166.567 338.83 166.172 337.811 165.584L333.742 163.235C332.639 162.598 331.902 161.925 331.532 161.217C331.156 160.505 331.143 159.801 331.493 159.104C331.837 158.403 332.535 157.75 333.586 157.143C334.267 156.749 335.017 156.433 335.835 156.193C336.652 155.953 337.558 155.824 338.551 155.805L338.551 157.986C338.083 157.986 337.632 158.036 337.197 158.137C336.763 158.238 336.383 158.383 336.059 158.57C335.552 158.862 335.231 159.186 335.095 159.542C334.959 159.891 334.978 160.235 335.153 160.576C335.328 160.91 335.63 161.2 336.059 161.447L338.142 162.65L337.207 162.628C337.201 162.159 337.353 161.712 337.665 161.285C337.976 160.85 338.414 160.47 338.979 160.144C339.861 159.634 340.835 159.301 341.899 159.143C342.97 158.982 344.037 158.992 345.102 159.171C346.172 159.347 347.149 159.69 348.032 160.2C348.914 160.709 349.489 161.3 349.755 161.97C350.014 162.637 349.985 163.306 349.667 163.977C349.343 164.643 348.739 165.232 347.856 165.741ZM345.326 164.28C345.728 164.048 345.997 163.78 346.133 163.476C346.276 163.169 346.279 162.864 346.143 162.56C346.013 162.253 345.747 161.983 345.345 161.751C344.943 161.519 344.479 161.363 343.953 161.285C343.421 161.202 342.892 161.2 342.366 161.279C341.834 161.354 341.367 161.507 340.965 161.74C340.562 161.972 340.293 162.244 340.157 162.555C340.02 162.858 340.02 163.165 340.157 163.476C340.293 163.78 340.562 164.048 340.965 164.28C341.354 164.505 341.811 164.657 342.337 164.735C342.863 164.814 343.392 164.816 343.924 164.741C344.456 164.666 344.923 164.512 345.326 164.28Z" fill="#060606"/>
<rect width="40.6739" height="15.1515" rx="7.57575" transform="matrix(0.866025 -0.5 0.866025 0.5 279.64 219.349)" fill="#060606"/>
<path d="M299.959 217.623L296.614 215.692L296.31 216.428L295.433 215.921L295.749 215.192L296.562 214.723L300.772 217.154L299.959 217.623ZM301.761 216.576L301.071 216.178L301.27 214.253C301.285 214.109 301.269 213.992 301.22 213.9C301.171 213.809 301.102 213.738 301.012 213.686C300.884 213.612 300.743 213.561 300.591 213.534C300.437 213.506 300.284 213.503 300.132 213.526C299.978 213.547 299.837 213.595 299.708 213.669C299.574 213.747 299.486 213.833 299.445 213.929C299.404 214.022 299.406 214.115 299.451 214.206C299.494 214.296 299.576 214.374 299.697 214.439L298.878 214.912C298.59 214.745 298.403 214.564 298.32 214.37C298.236 214.175 298.249 213.979 298.361 213.782C298.472 213.585 298.677 213.4 298.977 213.227C299.252 213.068 299.558 212.961 299.896 212.906C300.233 212.849 300.571 212.846 300.91 212.898C301.249 212.949 301.56 213.057 301.843 213.22C302.051 213.341 302.196 213.458 302.276 213.571C302.354 213.684 302.393 213.807 302.395 213.941C302.395 214.074 302.385 214.231 302.363 214.412L302.223 215.648L301.983 215.583L303.96 214.442L304.708 214.874L301.761 216.576ZM305.542 214.4L304.746 213.941L305.542 213.482L306.337 213.941L305.542 214.4ZM308.59 212.728C308.379 212.849 308.137 212.941 307.862 213.003C307.585 213.064 307.299 213.091 307.002 213.084C306.708 213.076 306.426 213.029 306.157 212.944L306.725 212.38C306.919 212.445 307.119 212.468 307.324 212.449C307.529 212.428 307.701 212.377 307.841 212.296C307.962 212.226 308.043 212.145 308.084 212.054C308.127 211.962 308.128 211.87 308.087 211.779C308.048 211.687 307.968 211.606 307.847 211.536C307.666 211.431 307.449 211.378 307.195 211.376C306.942 211.371 306.719 211.425 306.526 211.536C306.467 211.57 306.42 211.607 306.382 211.649C306.344 211.69 306.313 211.733 306.292 211.779L305.309 211.624L305.538 210.209L305.766 210.273L303.812 211.401L303.064 210.969L305.695 209.45L306.444 209.882L306.409 211.063L306.181 210.938C306.459 210.82 306.748 210.752 307.046 210.732C307.344 210.711 307.633 210.731 307.912 210.793C308.19 210.853 308.438 210.945 308.654 211.07C308.919 211.223 309.091 211.4 309.169 211.6C309.245 211.799 309.234 211.999 309.137 212.199C309.037 212.399 308.855 212.575 308.59 212.728ZM312.454 210.409L311.799 210.031L309.969 211.088L309.226 210.659L307.741 208.269L308.653 207.742L310.139 210.132L311.057 209.602L310.004 208.994L310.811 208.528L311.864 209.136L312.238 208.92L312.98 209.349L312.606 209.565L313.261 209.943L312.454 210.409ZM314.982 208.95H313.929L313.929 204.696L314.988 204.699L314.982 208.95ZM317.876 207.38C317.683 207.491 317.46 207.566 317.207 207.604C316.953 207.64 316.7 207.64 316.447 207.604C316.191 207.567 315.966 207.492 315.771 207.38C315.58 207.27 315.453 207.14 315.391 206.992C315.329 206.843 315.33 206.695 315.394 206.548C315.458 206.4 315.584 206.272 315.771 206.164C315.964 206.053 316.188 205.979 316.444 205.942C316.697 205.903 316.95 205.903 317.204 205.942C317.457 205.978 317.681 206.052 317.876 206.164C318.071 206.277 318.201 206.407 318.265 206.554C318.329 206.7 318.329 206.846 318.265 206.993C318.199 207.14 318.069 207.268 317.876 207.38ZM317.204 206.992C317.272 206.952 317.317 206.906 317.338 206.853C317.362 206.799 317.363 206.746 317.341 206.693C317.318 206.639 317.272 206.592 317.204 206.553C317.136 206.513 317.056 206.487 316.964 206.475C316.871 206.462 316.777 206.462 316.683 206.475C316.592 206.487 316.512 206.513 316.444 206.553C316.375 206.592 316.33 206.639 316.306 206.693C316.285 206.746 316.286 206.799 316.309 206.853C316.331 206.906 316.375 206.952 316.444 206.992C316.512 207.031 316.593 207.057 316.686 207.071C316.778 207.083 316.87 207.083 316.961 207.071C317.055 207.057 317.136 207.031 317.204 206.992ZM313.14 207.481C312.947 207.593 312.724 207.667 312.47 207.706C312.215 207.743 311.96 207.743 311.707 207.707C311.454 207.669 311.23 207.594 311.035 207.481C310.844 207.371 310.717 207.241 310.654 207.093C310.592 206.944 310.593 206.796 310.657 206.649C310.722 206.501 310.847 206.374 311.035 206.266C311.228 206.154 311.451 206.081 311.704 206.045C311.958 206.006 312.212 206.006 312.467 206.043C312.721 206.079 312.945 206.153 313.14 206.266C313.335 206.378 313.464 206.508 313.529 206.656C313.591 206.802 313.59 206.949 313.526 207.096C313.461 207.241 313.333 207.37 313.14 207.481ZM312.467 207.093C312.535 207.053 312.58 207.007 312.602 206.954C312.625 206.9 312.626 206.847 312.605 206.794C312.581 206.74 312.535 206.693 312.467 206.654C312.399 206.615 312.319 206.589 312.227 206.576C312.134 206.563 312.04 206.563 311.947 206.576C311.855 206.589 311.775 206.615 311.707 206.654C311.639 206.693 311.593 206.74 311.57 206.794C311.548 206.847 311.549 206.9 311.573 206.954C311.594 207.007 311.639 207.053 311.707 207.093C311.775 207.132 311.856 207.159 311.95 207.172C312.041 207.185 312.133 207.185 312.225 207.172C312.318 207.159 312.399 207.132 312.467 207.093Z" fill="white"/>
<g clip-path="url(#clip0_3751_42853)">
<path d="M293.103 220.929L293.094 217.824" stroke="white" stroke-width="0.84403" stroke-linecap="square"/>
<path d="M295.914 219.108L293.104 217.486L290.293 219.108" stroke="white" stroke-width="0.84403" stroke-linecap="square"/>
</g>
<path d="M139.211 194.487C143.301 192.126 143.301 188.298 139.211 185.937C135.122 183.575 128.491 183.575 124.401 185.937C120.311 188.298 120.311 192.126 124.401 194.487C128.491 196.848 135.122 196.848 139.211 194.487Z" stroke="#060606" stroke-width="1.5" stroke-linecap="round" stroke-linejoin="round"/>
<path d="M142.279 190.212H149.789" stroke="#060606" stroke-width="1.5" stroke-linecap="square" stroke-linejoin="round"/>
<path d="M197.914 153.061L185.443 145.861L190.709 142.821C190.83 142.751 190.997 142.661 191.211 142.551C191.425 142.434 191.627 142.337 191.817 142.261C192.678 141.897 193.532 141.687 194.381 141.631C195.235 141.571 196.061 141.641 196.858 141.841C197.648 142.037 198.393 142.337 199.092 142.741C199.79 143.144 200.31 143.577 200.651 144.041C200.991 144.497 201.11 144.972 201.006 145.466C200.908 145.956 200.547 146.447 199.923 146.941C199.785 147.047 199.617 147.164 199.421 147.291C199.225 147.417 199.069 147.514 198.953 147.581L196.043 149.261L200.27 151.701L197.914 153.061ZM193.844 147.991L196.65 146.371C196.771 146.301 196.898 146.221 197.031 146.131C197.164 146.041 197.273 145.951 197.36 145.861C197.591 145.627 197.692 145.402 197.663 145.186C197.628 144.966 197.519 144.766 197.334 144.586C197.149 144.399 196.944 144.241 196.719 144.111C196.494 143.981 196.222 143.864 195.905 143.761C195.587 143.651 195.241 143.587 194.866 143.571C194.485 143.551 194.092 143.607 193.688 143.741C193.532 143.791 193.376 143.854 193.22 143.931C193.064 144.007 192.926 144.081 192.805 144.151L189.999 145.771L193.844 147.991ZM213.479 144.374C212.538 144.918 211.501 145.273 210.37 145.439C209.238 145.606 208.104 145.591 206.966 145.394C205.829 145.191 204.778 144.811 203.814 144.254C202.838 143.691 202.183 143.079 201.848 142.419C201.507 141.756 201.484 141.099 201.779 140.449C202.073 139.799 202.682 139.208 203.606 138.674C204.547 138.131 205.583 137.776 206.715 137.609C207.852 137.439 208.993 137.454 210.136 137.654C211.273 137.851 212.324 138.228 213.288 138.784C214.258 139.344 214.913 139.956 215.254 140.619C215.595 141.276 215.618 141.933 215.323 142.589C215.029 143.239 214.414 143.834 213.479 144.374ZM211.279 143.104C212.035 142.668 212.344 142.196 212.206 141.689C212.067 141.176 211.597 140.688 210.794 140.224C209.963 139.744 209.108 139.471 208.231 139.404C207.359 139.334 206.551 139.514 205.806 139.944C205.292 140.241 204.986 140.551 204.888 140.874C204.79 141.198 204.865 141.524 205.113 141.854C205.367 142.181 205.765 142.501 206.308 142.814C207.145 143.298 208 143.574 208.871 143.644C209.743 143.708 210.546 143.528 211.279 143.104ZM219.869 140.385L210.516 134.985L212.595 133.785L214.881 135.105L214.361 135.065C214.159 134.808 214.026 134.545 213.963 134.275C213.899 134.005 213.928 133.735 214.049 133.465C214.136 133.255 214.275 133.052 214.465 132.855C214.65 132.655 214.875 132.468 215.141 132.295C215.4 132.118 215.689 131.958 216.007 131.815L218.206 133.085C217.866 133.188 217.537 133.348 217.219 133.565C216.902 133.775 216.671 133.998 216.526 134.235C216.376 134.468 216.313 134.702 216.336 134.935C216.353 135.165 216.457 135.392 216.648 135.615C216.832 135.835 217.104 136.048 217.462 136.255L222.242 139.015L219.869 140.385ZM232.619 133.024C232.094 133.467 231.51 133.864 230.87 134.214C230.24 134.564 229.579 134.822 228.886 134.989C228.194 135.149 227.492 135.171 226.782 135.054C226.124 134.941 225.57 134.761 225.119 134.514C224.663 134.264 224.155 133.977 223.595 133.654L215.61 129.044L217.966 127.684L225.812 132.214C226.176 132.424 226.508 132.612 226.808 132.779C227.108 132.939 227.4 133.037 227.683 133.074C228.22 133.144 228.731 133.056 229.215 132.809C229.7 132.562 230.183 132.257 230.662 131.894L232.619 133.024ZM218.433 132.514L216.615 131.464L223.266 127.624L225.085 128.674L218.433 132.514ZM235.483 131.371L226.164 125.991C225.928 125.854 225.665 125.696 225.376 125.516C225.087 125.336 224.831 125.134 224.605 124.911C224.386 124.684 224.265 124.434 224.242 124.161C224.207 123.807 224.299 123.501 224.519 123.241C224.738 122.974 225.004 122.747 225.316 122.561C225.622 122.371 225.887 122.211 226.112 122.081L227.273 121.411L229.178 122.511L228.104 123.131C227.735 123.344 227.556 123.557 227.567 123.771C227.573 123.981 227.706 124.161 227.966 124.311L237.838 130.011L235.483 131.371ZM226.476 127.871L224.657 126.821L230.65 123.361L232.469 124.411L226.476 127.871ZM245.515 125.878C244.574 126.422 243.537 126.777 242.406 126.943C241.274 127.11 240.14 127.095 239.002 126.898C237.865 126.695 236.814 126.315 235.85 125.758C234.874 125.195 234.219 124.583 233.884 123.923C233.544 123.26 233.52 122.603 233.815 121.953C234.109 121.303 234.718 120.712 235.642 120.178C236.583 119.635 237.62 119.28 238.751 119.113C239.889 118.943 241.029 118.958 242.172 119.158C243.309 119.355 244.36 119.732 245.324 120.288C246.294 120.848 246.95 121.46 247.29 122.123C247.631 122.78 247.654 123.437 247.36 124.093C247.065 124.743 246.45 125.338 245.515 125.878ZM243.315 124.608C244.072 124.172 244.38 123.7 244.242 123.193C244.103 122.68 243.633 122.192 242.83 121.728C241.999 121.248 241.144 120.975 240.267 120.908C239.395 120.838 238.587 121.018 237.842 121.448C237.328 121.745 237.022 122.055 236.924 122.378C236.826 122.702 236.901 123.028 237.149 123.358C237.403 123.685 237.801 124.005 238.344 124.318C239.181 124.802 240.036 125.078 240.908 125.148C241.779 125.212 242.582 125.032 243.315 124.608ZM252.079 121.789L239.348 114.439L241.704 113.079L254.434 120.429L252.079 121.789ZM246.552 112.68L244.473 111.48L246.829 110.12L248.907 111.32L246.552 112.68ZM257.204 118.83L247.851 113.43L250.206 112.07L259.559 117.47L257.204 118.83ZM266.624 113.691C265.683 114.234 264.647 114.589 263.515 114.756C262.384 114.923 261.249 114.908 260.112 114.711C258.974 114.508 257.924 114.128 256.959 113.571C255.984 113.008 255.328 112.396 254.994 111.736C254.653 111.073 254.63 110.416 254.924 109.766C255.219 109.116 255.828 108.524 256.752 107.991C257.693 107.448 258.729 107.093 259.861 106.926C260.998 106.756 262.138 106.771 263.281 106.971C264.419 107.168 265.47 107.544 266.434 108.101C267.404 108.661 268.059 109.273 268.4 109.936C268.74 110.593 268.763 111.249 268.469 111.906C268.174 112.556 267.56 113.151 266.624 113.691ZM264.425 112.421C265.181 111.984 265.49 111.513 265.351 111.006C265.213 110.493 264.742 110.004 263.94 109.541C263.108 109.061 262.254 108.788 261.376 108.721C260.504 108.651 259.696 108.831 258.951 109.261C258.437 109.558 258.131 109.868 258.033 110.191C257.935 110.514 258.01 110.841 258.258 111.171C258.512 111.498 258.911 111.818 259.454 112.131C260.291 112.614 261.145 112.891 262.017 112.961C262.889 113.024 263.691 112.844 264.425 112.421Z" fill="#060606"/>
<path d="M304.369 71.1631L326.234 58.5395" stroke="#060606" stroke-width="1.5"/>
<path d="M311.999 75.5674L333.864 62.9438" stroke="#060606" stroke-width="1.5"/>
<path d="M328.929 74.6025L341.491 67.3495" stroke="#060606" stroke-width="1.5"/>
<rect width="180.369" height="29.429" rx="14.7145" transform="matrix(0.866025 -0.5 0.866025 0.5 396.225 310.429)" fill="white" stroke="#060606" stroke-width="1.5"/>
<rect width="163.809" height="16.7666" rx="8.38329" transform="matrix(0.866025 -0.5 0.866025 0.5 409.003 308.804)" fill="#060606" stroke="#060606" stroke-width="1.5"/>
<mask id="mask2_3751_42853" style="mask-type:alpha" maskUnits="userSpaceOnUse" x="422" y="94" width="129" height="223">
<rect width="147.873" height="147.873" transform="matrix(0.866025 -0.5 2.20305e-08 1 422.65 168.685)" fill="#D9D9D9"/>
</mask>
<g mask="url(#mask2_3751_42853)">
<path fill-rule="evenodd" clip-rule="evenodd" d="M439.506 309.374C431.404 302.907 426.525 291.349 426.525 275.659C426.525 240.238 451.393 197.165 482.069 179.454C498.217 170.131 512.756 169.694 522.905 176.538L522.908 176.533L523.12 176.685C523.373 176.86 523.624 177.039 523.872 177.222L533.673 184.228L532.09 186.795C535.629 193.191 537.613 201.517 537.613 211.523C537.613 246.944 512.745 290.017 482.069 307.728C471.418 313.877 461.467 316.161 453.015 315.039L451.292 317.833L439.476 309.422L439.506 309.374Z" fill="#060606"/>
<mask id="mask3_3751_42853" style="mask-type:alpha" maskUnits="userSpaceOnUse" x="426" y="171" width="112" height="147">
<path fill-rule="evenodd" clip-rule="evenodd" d="M439.506 309.373C431.404 302.905 426.525 291.347 426.525 275.657C426.525 240.236 451.393 197.163 482.069 179.452C498.217 170.129 512.756 169.692 522.905 176.536L522.908 176.531L523.12 176.683C523.373 176.858 523.624 177.037 523.872 177.22L533.673 184.226L532.09 186.793C535.629 193.189 537.613 201.515 537.613 211.521C537.613 246.942 512.745 290.015 482.069 307.726C471.418 313.875 461.467 316.159 453.015 315.037L451.292 317.831L439.476 309.421L439.506 309.373Z" fill="#B0F127"/>
</mask>
<g mask="url(#mask3_3751_42853)">
<rect width="135.676" height="58.3381" transform="matrix(-0.866025 -0.5 -2.20305e-08 1 477.682 308.1)" fill="#060606"/>
</g>
<path d="M439.506 309.374L439.974 308.788L440.497 309.206L440.141 309.773L439.506 309.374ZM482.069 179.454L482.444 180.104L482.444 180.104L482.069 179.454ZM522.905 176.538L523.54 176.937L523.128 177.593L522.485 177.16L522.905 176.538ZM522.908 176.533L522.273 176.135L522.696 175.46L523.344 175.923L522.908 176.533ZM523.12 176.685L522.695 177.303L522.684 177.295L523.12 176.685ZM523.872 177.222L523.436 177.833L523.425 177.825L523.872 177.222ZM533.673 184.228L534.109 183.617L534.679 184.025L534.311 184.621L533.673 184.228ZM532.09 186.795L531.433 187.158L531.221 186.775L531.451 186.401L532.09 186.795ZM482.069 307.728L482.444 308.377L482.444 308.377L482.069 307.728ZM453.015 315.039L452.376 314.645L452.631 314.231L453.113 314.295L453.015 315.039ZM451.292 317.833L451.93 318.227L451.509 318.909L450.857 318.444L451.292 317.833ZM439.476 309.422L439.041 310.033L438.465 309.623L438.841 309.024L439.476 309.422ZM427.275 275.659C427.275 291.208 432.109 302.509 439.974 308.788L439.038 309.961C430.7 303.304 425.775 291.491 425.775 275.659H427.275ZM482.444 180.104C467.247 188.878 453.446 203.964 443.443 221.29C433.44 238.616 427.275 258.111 427.275 275.659H425.775C425.775 257.786 432.044 238.034 442.144 220.54C452.244 203.047 466.215 187.741 481.694 178.805L482.444 180.104ZM522.485 177.16C512.66 170.534 498.449 170.864 482.444 180.104L481.694 178.805C497.986 169.399 512.851 168.854 523.324 175.917L522.485 177.16ZM522.27 176.14L522.273 176.135L523.543 176.932L523.54 176.937L522.27 176.14ZM523.344 175.923L523.556 176.075L522.684 177.295L522.472 177.144L523.344 175.923ZM523.425 177.825C523.184 177.646 522.941 177.472 522.695 177.303L523.545 176.067C523.806 176.247 524.064 176.431 524.318 176.62L523.425 177.825ZM524.308 176.612L534.109 183.617L533.237 184.838L523.436 177.833L524.308 176.612ZM534.311 184.621L532.728 187.189L531.451 186.401L533.034 183.834L534.311 184.621ZM536.863 211.523C536.863 201.612 534.897 193.418 531.433 187.158L532.746 186.432C536.36 192.964 538.363 201.421 538.363 211.523H536.863ZM481.694 307.078C496.891 298.304 510.692 283.218 520.695 265.892C530.698 248.566 536.863 229.071 536.863 211.523H538.363C538.363 229.396 532.094 249.148 521.994 266.642C511.894 284.135 497.923 299.441 482.444 308.377L481.694 307.078ZM453.113 314.295C461.358 315.389 471.142 313.171 481.694 307.078L482.444 308.377C471.694 314.584 461.577 316.932 452.916 315.782L453.113 314.295ZM453.653 315.432L451.93 318.227L450.653 317.439L452.376 314.645L453.653 315.432ZM450.857 318.444L439.041 310.033L439.911 308.811L451.726 317.222L450.857 318.444ZM438.841 309.024L438.871 308.976L440.141 309.773L440.111 309.821L438.841 309.024Z" fill="#060606"/>
<circle r="64.1368" transform="matrix(-0.866025 0.5 2.20305e-08 1 492.293 250.875)" fill="white"/>
<mask id="mask4_3751_42853" style="mask-type:alpha" maskUnits="userSpaceOnUse" x="436" y="179" width="112" height="144">
<circle r="64.1368" transform="matrix(-0.866025 0.5 2.20305e-08 1 492.293 250.875)" fill="white"/>
</mask>
<g mask="url(#mask4_3751_42853)">
<rect width="135.676" height="72.7568" transform="matrix(-0.866025 0.5 -2.20305e-08 -1 551.254 219.007)" fill="white"/>
<path d="M510.326 233.284C511.046 227.31 507.381 226.438 502.37 227.338L503.995 218.871L500.027 220.021L498.444 228.265C497.401 228.567 496.329 228.902 495.264 229.236L496.858 220.937L492.892 222.085L491.265 230.551C490.401 230.822 489.554 231.087 488.731 231.326L488.735 231.3L483.262 232.882L482.206 238.386C482.206 238.386 485.151 237.465 485.089 237.549C486.696 237.085 486.987 238.145 486.938 239.147L485.086 248.793C485.197 248.762 485.341 248.726 485.499 248.707C485.367 248.746 485.225 248.786 485.08 248.829L482.484 262.343C482.288 263.02 481.789 264.154 480.666 264.481C480.705 264.525 477.781 265.315 477.781 265.315L475.811 271.699L480.975 270.204C481.936 269.927 482.878 269.674 483.805 269.413L482.162 277.976L486.126 276.83L487.753 268.357C488.836 268.071 489.887 267.777 490.916 267.478L489.295 275.913L493.264 274.763L494.906 266.215C501.674 263.786 506.763 260.252 508.905 251.947C510.631 245.26 508.819 243.023 505.258 242.938C507.851 240.751 509.804 237.653 510.326 233.284V233.284ZM501.258 253.202C500.031 259.601 491.733 261.315 489.043 262.097L491.222 250.751C493.912 249.973 502.54 246.527 501.258 253.202V253.202ZM502.485 237.728C501.366 243.551 494.46 244.908 492.219 245.557L494.195 235.267C496.435 234.618 503.651 231.656 502.485 237.728V237.728Z" fill="#060606"/>
</g>
<circle r="64.1368" transform="matrix(-0.866025 0.5 2.20305e-08 1 492.293 250.875)" stroke="#060606" stroke-width="1.5"/>
</g>
<defs>
<clipPath id="clip0_3751_42853">
<rect width="5.1631" height="5.1631" fill="white" transform="matrix(0.866025 -0.5 0.866025 0.5 288.632 219.207)"/>
</clipPath>
</defs>
</svg>
