<svg width="141" height="221" viewBox="0 0 141 221" fill="none" xmlns="http://www.w3.org/2000/svg">
<path fill-rule="evenodd" clip-rule="evenodd" d="M125.15 177.294C134.435 169.881 140.026 156.637 140.026 138.656C140.026 98.0617 111.527 48.6998 76.3714 28.4027C57.8657 17.7184 41.2044 17.2176 29.5736 25.0608L29.5693 25.054L29.261 25.2744C29.0146 25.4451 28.7705 25.6195 28.5288 25.7978L17.2324 33.8717L19.0472 36.8149C14.9911 44.1452 12.7168 53.6863 12.7168 65.1538C12.7168 105.748 41.2159 155.11 76.3714 175.407C88.5779 182.454 99.982 185.071 109.669 183.785L111.643 186.986L125.184 177.348L125.15 177.294Z" fill="#B0F127"/>
<path d="M125.15 177.294L124.682 176.708L124.159 177.125L124.515 177.692L125.15 177.294ZM76.3714 28.4027L75.9964 29.0522L75.9964 29.0522L76.3714 28.4027ZM29.5736 25.0608L28.9384 25.4596L29.3504 26.1159L29.9929 25.6826L29.5736 25.0608ZM29.5693 25.054L30.2045 24.6552L29.7811 23.9808L29.1332 24.4439L29.5693 25.054ZM29.261 25.2744L29.6881 25.891L29.6971 25.8846L29.261 25.2744ZM28.5288 25.7978L28.9649 26.408L28.9738 26.4014L28.5288 25.7978ZM17.2324 33.8717L16.7963 33.2615L16.2263 33.669L16.594 34.2654L17.2324 33.8717ZM19.0472 36.8149L19.7034 37.178L19.9157 36.7944L19.6856 36.4213L19.0472 36.8149ZM12.7168 65.1538L13.4668 65.1538V65.1538H12.7168ZM76.3714 175.407L75.9964 176.056L75.9964 176.056L76.3714 175.407ZM109.669 183.785L110.308 183.391L110.052 182.978L109.571 183.042L109.669 183.785ZM111.643 186.986L111.005 187.38L111.425 188.062L112.078 187.597L111.643 186.986ZM125.184 177.348L125.619 177.959L126.195 177.548L125.819 176.949L125.184 177.348ZM139.276 138.656C139.276 156.495 133.73 169.484 124.682 176.708L125.618 177.88C135.139 170.278 140.776 156.778 140.776 138.656H139.276ZM75.9964 29.0522C93.4333 39.1194 109.262 56.4248 120.733 76.2929C132.203 96.161 139.276 118.521 139.276 138.656H140.776C140.776 118.196 133.599 95.5786 122.032 75.5429C110.464 55.5072 94.465 37.983 76.7464 27.7532L75.9964 29.0522ZM29.9929 25.6826C41.3001 18.0577 57.6344 18.4509 75.9964 29.0522L76.7464 27.7532C58.097 16.986 41.1088 16.3775 29.1543 24.439L29.9929 25.6826ZM30.2088 24.662L30.2045 24.6552L28.9342 25.4528L28.9384 25.4596L30.2088 24.662ZM29.1332 24.4439L28.8249 24.6643L29.6971 25.8846L30.0054 25.6642L29.1332 24.4439ZM28.9738 26.4014C29.2097 26.2276 29.4477 26.0574 29.688 25.891L28.834 24.6579C28.5815 24.8327 28.3314 25.0115 28.0837 25.1941L28.9738 26.4014ZM28.0927 25.1876L16.7963 33.2615L17.6685 34.4819L28.9649 26.4079L28.0927 25.1876ZM16.594 34.2654L18.4088 37.2085L19.6856 36.4213L17.8708 33.4781L16.594 34.2654ZM13.4668 65.1538C13.4668 53.7813 15.7226 44.3722 19.7034 37.178L18.391 36.4518C14.2595 43.9183 11.9668 53.5913 11.9668 65.1538H13.4668ZM76.7464 174.757C59.3095 164.69 43.4812 147.385 32.0103 127.517C20.5395 107.649 13.4668 85.2882 13.4668 65.1538L11.9668 65.1538C11.9668 85.6134 19.1437 108.231 30.7113 128.267C42.2789 148.302 58.2779 165.827 75.9964 176.056L76.7464 174.757ZM109.571 183.042C100.092 184.3 88.854 181.748 76.7464 174.757L75.9964 176.056C88.3019 183.161 99.8724 185.842 109.768 184.529L109.571 183.042ZM109.031 184.179L111.005 187.38L112.281 186.592L110.308 183.391L109.031 184.179ZM112.078 187.597L125.619 177.959L124.749 176.737L111.208 186.375L112.078 187.597ZM125.819 176.949L125.785 176.895L124.515 177.692L124.549 177.746L125.819 176.949Z" fill="#060606"/>
<mask id="mask0_3754_36630" style="mask-type:alpha" maskUnits="userSpaceOnUse" x="11" y="18" width="130" height="171">
<path fill-rule="evenodd" clip-rule="evenodd" d="M125.15 177.29C134.435 169.877 140.026 156.633 140.026 138.652C140.026 98.0578 111.527 48.6959 76.3714 28.3988C57.8657 17.7145 41.2044 17.2137 29.5736 25.0569L29.5693 25.0501L29.261 25.2705C29.0146 25.4412 28.7705 25.6156 28.5288 25.7939L17.2324 33.8678L19.0472 36.811C14.9911 44.1413 12.7168 53.6824 12.7168 65.1498C12.7168 105.744 41.2159 155.106 76.3714 175.403C88.5779 182.45 99.982 185.067 109.669 183.781L111.643 186.982L125.184 177.344L125.15 177.29Z" fill="#B0F127"/>
<path d="M125.15 177.29L124.682 176.704L124.159 177.121L124.515 177.689L125.15 177.29ZM76.3714 28.3988L75.9964 29.0483L75.9964 29.0483L76.3714 28.3988ZM29.5736 25.0569L28.9384 25.4557L29.3504 26.112L29.9929 25.6787L29.5736 25.0569ZM29.5693 25.0501L30.2045 24.6513L29.7811 23.9769L29.1332 24.44L29.5693 25.0501ZM29.261 25.2705L29.6881 25.8871L29.6971 25.8807L29.261 25.2705ZM28.5288 25.7939L28.9649 26.4041L28.9738 26.3975L28.5288 25.7939ZM17.2324 33.8678L16.7963 33.2576L16.2263 33.6651L16.594 34.2614L17.2324 33.8678ZM19.0472 36.811L19.7034 37.1741L19.9157 36.7905L19.6856 36.4173L19.0472 36.811ZM12.7168 65.1498L13.4668 65.1498V65.1498H12.7168ZM76.3714 175.403L75.9964 176.052L75.9964 176.052L76.3714 175.403ZM109.669 183.781L110.308 183.388L110.052 182.974L109.571 183.038L109.669 183.781ZM111.643 186.982L111.005 187.376L111.425 188.058L112.078 187.593L111.643 186.982ZM125.184 177.344L125.619 177.955L126.195 177.544L125.819 176.945L125.184 177.344ZM139.276 138.652C139.276 156.491 133.73 169.48 124.682 176.704L125.618 177.876C135.139 170.275 140.776 156.774 140.776 138.652H139.276ZM75.9964 29.0483C93.4333 39.1155 109.262 56.4209 120.733 76.289C132.203 96.1571 139.276 118.517 139.276 138.652H140.776C140.776 118.192 133.599 95.5747 122.032 75.539C110.464 55.5033 94.465 37.9791 76.7464 27.7493L75.9964 29.0483ZM29.9929 25.6787C41.3001 18.0538 57.6344 18.447 75.9964 29.0483L76.7464 27.7493C58.097 16.9821 41.1088 16.3736 29.1543 24.4351L29.9929 25.6787ZM30.2088 24.6581L30.2045 24.6513L28.9342 25.4489L28.9384 25.4557L30.2088 24.6581ZM29.1332 24.44L28.8249 24.6603L29.6971 25.8807L30.0054 25.6603L29.1332 24.44ZM28.9738 26.3975C29.2097 26.2237 29.4477 26.0535 29.688 25.8871L28.834 24.654C28.5815 24.8288 28.3314 25.0076 28.0837 25.1902L28.9738 26.3975ZM28.0927 25.1837L16.7963 33.2576L17.6685 34.478L28.9649 26.404L28.0927 25.1837ZM16.594 34.2614L18.4088 37.2046L19.6856 36.4173L17.8708 33.4742L16.594 34.2614ZM13.4668 65.1498C13.4668 53.7774 15.7226 44.3683 19.7034 37.1741L18.391 36.4479C14.2595 43.9144 11.9668 53.5874 11.9668 65.1498H13.4668ZM76.7464 174.753C59.3095 164.686 43.4812 147.381 32.0103 127.513C20.5395 107.645 13.4668 85.2842 13.4668 65.1498L11.9668 65.1498C11.9668 85.6095 19.1437 108.227 30.7113 128.263C42.2789 148.298 58.2779 165.823 75.9964 176.052L76.7464 174.753ZM109.571 183.038C100.092 184.296 88.854 181.744 76.7464 174.753L75.9964 176.052C88.3019 183.157 99.8724 185.838 109.768 184.525L109.571 183.038ZM109.031 184.175L111.005 187.376L112.281 186.589L110.308 183.388L109.031 184.175ZM112.078 187.593L125.619 177.955L124.749 176.733L111.208 186.371L112.078 187.593ZM125.819 176.945L125.785 176.891L124.515 177.689L124.549 177.742L125.819 176.945Z" fill="#060606"/>
</mask>
<g mask="url(#mask0_3754_36630)">
<rect width="155.487" height="66.8566" transform="matrix(0.866025 -0.5 2.20305e-08 1 81.4004 175.832)" fill="#B0F127"/>
</g>
<path d="M125.15 177.294L124.682 176.708L124.159 177.125L124.515 177.692L125.15 177.294ZM76.3714 28.4027L75.9964 29.0522L75.9964 29.0522L76.3714 28.4027ZM29.5736 25.0608L28.9384 25.4596L29.3504 26.1159L29.9929 25.6826L29.5736 25.0608ZM29.5693 25.054L30.2045 24.6552L29.7811 23.9808L29.1332 24.4439L29.5693 25.054ZM29.261 25.2744L29.6881 25.891L29.6971 25.8846L29.261 25.2744ZM28.5288 25.7978L28.9649 26.408L28.9738 26.4014L28.5288 25.7978ZM17.2324 33.8717L16.7963 33.2615L16.2263 33.669L16.594 34.2654L17.2324 33.8717ZM19.0472 36.8149L19.7034 37.178L19.9157 36.7944L19.6856 36.4213L19.0472 36.8149ZM12.7168 65.1538L13.4668 65.1538V65.1538H12.7168ZM76.3714 175.407L75.9964 176.056L75.9964 176.056L76.3714 175.407ZM109.669 183.785L110.308 183.391L110.052 182.978L109.571 183.042L109.669 183.785ZM111.643 186.986L111.005 187.38L111.425 188.062L112.078 187.597L111.643 186.986ZM125.184 177.348L125.619 177.959L126.195 177.548L125.819 176.949L125.184 177.348ZM139.276 138.656C139.276 156.495 133.73 169.484 124.682 176.708L125.618 177.88C135.139 170.278 140.776 156.778 140.776 138.656H139.276ZM75.9964 29.0522C93.4333 39.1194 109.262 56.4248 120.733 76.2929C132.203 96.161 139.276 118.521 139.276 138.656H140.776C140.776 118.196 133.599 95.5786 122.032 75.5429C110.464 55.5072 94.465 37.983 76.7464 27.7532L75.9964 29.0522ZM29.9929 25.6826C41.3001 18.0577 57.6344 18.4509 75.9964 29.0522L76.7464 27.7532C58.097 16.986 41.1088 16.3775 29.1543 24.439L29.9929 25.6826ZM30.2088 24.662L30.2045 24.6552L28.9342 25.4528L28.9384 25.4596L30.2088 24.662ZM29.1332 24.4439L28.8249 24.6643L29.6971 25.8846L30.0054 25.6642L29.1332 24.4439ZM28.9738 26.4014C29.2097 26.2276 29.4477 26.0574 29.688 25.891L28.834 24.6579C28.5815 24.8327 28.3314 25.0115 28.0837 25.1941L28.9738 26.4014ZM28.0927 25.1876L16.7963 33.2615L17.6685 34.4819L28.9649 26.4079L28.0927 25.1876ZM16.594 34.2654L18.4088 37.2085L19.6856 36.4213L17.8708 33.4781L16.594 34.2654ZM13.4668 65.1538C13.4668 53.7813 15.7226 44.3722 19.7034 37.178L18.391 36.4518C14.2595 43.9183 11.9668 53.5913 11.9668 65.1538H13.4668ZM76.7464 174.757C59.3095 164.69 43.4812 147.385 32.0103 127.517C20.5395 107.649 13.4668 85.2882 13.4668 65.1538L11.9668 65.1538C11.9668 85.6134 19.1437 108.231 30.7113 128.267C42.2789 148.302 58.2779 165.827 75.9964 176.056L76.7464 174.757ZM109.571 183.042C100.092 184.3 88.854 181.748 76.7464 174.757L75.9964 176.056C88.3019 183.161 99.8724 185.842 109.768 184.529L109.571 183.042ZM109.031 184.179L111.005 187.38L112.281 186.592L110.308 183.391L109.031 184.179ZM112.078 187.597L125.619 177.959L124.749 176.737L111.208 186.375L112.078 187.597ZM125.819 176.949L125.785 176.895L124.515 177.692L124.549 177.746L125.819 176.949Z" fill="#060606"/>
<circle r="73.5021" transform="matrix(0.866025 0.5 -2.20305e-08 1 64.6546 110.253)" fill="white" stroke="#060606" stroke-width="1.5"/>
<mask id="mask1_3754_36630" style="mask-type:alpha" maskUnits="userSpaceOnUse" x="0" y="27" width="129" height="167">
<circle r="73.5021" transform="matrix(0.866025 0.5 -2.20305e-08 1 64.6546 110.253)" fill="#B0F127" stroke="#060606" stroke-width="1.5"/>
</mask>
<g mask="url(#mask1_3754_36630)">
<rect width="155.487" height="83.3807" transform="matrix(0.866025 0.5 2.20305e-08 -1 -2.91602 73.7305)" fill="white"/>
<path d="M85.2458 116.935C86.2575 109.71 81.1084 102.539 74.0676 95.6736L76.3516 86.4139L70.7752 81.5897L68.5516 90.6055C67.0857 89.3373 65.58 88.07 64.0839 86.8119L66.3233 77.7375L60.7501 72.9151L58.4646 82.1702C57.2512 81.1505 56.06 80.1473 54.9038 79.1478L54.9101 79.1184L47.2198 72.4612L45.7363 78.4821C45.7363 78.4821 49.8737 81.9657 49.7864 81.9831C52.0449 83.9381 52.4531 85.8995 52.3848 87.2282L49.7832 97.7771C49.9389 97.9129 50.1406 98.0954 50.3629 98.3264C50.1771 98.166 49.9786 97.9926 49.7737 97.8175L46.127 112.594C45.8507 113.226 45.1503 114.01 43.5716 112.648C43.6271 112.773 39.5183 109.139 39.5183 109.139L36.75 114.912L44.0067 121.19C45.3568 122.36 46.6798 123.533 47.9821 124.67L45.6744 134.037L51.2444 138.858L53.5299 129.592C55.0514 130.947 56.5285 132.24 57.9738 133.489L55.6963 142.71L61.2726 147.534L63.5804 138.188C73.0893 145.755 80.2396 149.045 83.2494 140.852C85.6746 134.256 83.1286 128.174 78.1256 122.278C81.7691 123.411 84.5136 122.228 85.2458 116.935V116.935ZM72.5048 130.209C70.7815 137.21 59.1222 126.156 55.3421 122.89L58.4043 110.483C62.1843 113.755 74.3059 122.91 72.5048 130.209V130.209ZM74.2296 110.459C72.6573 116.825 62.953 107.526 59.8051 104.803L62.5814 93.5499C65.7293 96.2733 75.8671 103.817 74.2296 110.459V110.459Z" fill="#060606"/>
<circle r="73.5021" transform="matrix(0.866025 0.5 -2.20305e-08 1 64.6546 110.253)" stroke="#060606" stroke-width="1.5"/>
</g>
</svg>
