<svg width="563" height="633" viewBox="0 0 563 633" fill="none" xmlns="http://www.w3.org/2000/svg">
<rect width="381.722" height="267.364" rx="17.3262" transform="matrix(0.866025 -0.5 0.866025 0.5 0 498.852)" fill="#547907" stroke="#060606" stroke-width="1.5"/>
<rect opacity="0.4" width="381.722" height="267.364" rx="17.3262" transform="matrix(0.866025 -0.5 0.866025 0.5 0 468.852)" fill="#060606"/>
<path fill-rule="evenodd" clip-rule="evenodd" d="M236.84 563.303C236.121 563.718 235.586 564.444 235.586 565.274V567.677C235.586 570.991 233.26 572.334 230.39 570.677L14.1278 445.818C11.258 444.161 8.93164 440.132 8.93164 436.818L8.93164 328.818C8.93164 325.505 11.258 324.161 14.1278 325.818L230.39 450.678V450.678C230.765 450.894 231.263 450.749 231.439 450.354C232.624 447.694 234.601 445.258 236.84 443.965L495.857 294.422C499.482 292.329 502.421 294.026 502.421 298.212V402.389C502.421 406.576 499.482 411.666 495.857 413.759L236.84 563.303V563.303Z" fill="#547907"/>
<circle r="8.07046" transform="matrix(0.866025 0.5 -2.20305e-08 1 38.9072 376.785)" fill="white" stroke="#060606" stroke-width="1.5"/>
<circle r="8.07046" transform="matrix(0.866025 0.5 -2.20305e-08 1 38.9072 403.785)" fill="white" stroke="#060606" stroke-width="1.5"/>
<rect width="375.076" height="120" rx="6.17" transform="matrix(0.866025 -0.5 2.20305e-08 1 228.398 454.539)" fill="#71A407"/>
<rect width="15.6028" height="47.0058" rx="7.80142" transform="matrix(0.866025 -0.5 2.20305e-08 1 477.236 347.799)" fill="#2F2F2F" stroke="#060606" stroke-width="1.5"/>
<rect width="9.31837" height="42.7696" rx="4.65918" transform="matrix(0.866025 -0.5 2.20305e-08 1 477.236 349.926)" fill="#060606" stroke="#060606" stroke-width="1.5"/>
<rect width="15.6028" height="47.0058" rx="7.80142" transform="matrix(0.866025 -0.5 2.20305e-08 1 498.518 336.229)" fill="#2F2F2F" stroke="#060606" stroke-width="1.5"/>
<rect width="9.31837" height="42.7696" rx="4.65918" transform="matrix(0.866025 -0.5 2.20305e-08 1 498.518 338.355)" fill="#060606" stroke="#060606" stroke-width="1.5"/>
<rect width="15.6028" height="47.0058" rx="7.80142" transform="matrix(0.866025 -0.5 2.20305e-08 1 518.342 324.656)" fill="#2F2F2F" stroke="#060606" stroke-width="1.5"/>
<rect width="9.31837" height="42.7696" rx="4.65918" transform="matrix(0.866025 -0.5 2.20305e-08 1 518.342 326.783)" fill="#060606" stroke="#060606" stroke-width="1.5"/>
<rect width="381.722" height="267.364" rx="17.3262" transform="matrix(0.866025 -0.5 0.866025 0.5 0 328.852)" fill="#B0F127" stroke="#060606" stroke-width="1.5"/>
<rect width="321.527" height="214.972" rx="17.3262" transform="matrix(0.866025 -0.5 0.866025 0.5 49.0762 325.25)" fill="white" stroke="#060606" stroke-width="1.5"/>
<mask id="mask0_3754_36667" style="mask-type:alpha" maskUnits="userSpaceOnUse" x="56" y="169" width="450" height="260">
<rect width="321.527" height="214.972" rx="17.3262" transform="matrix(0.866025 -0.5 0.866025 0.5 49.0762 325.25)" fill="white" stroke="#060606" stroke-width="1.5"/>
</mask>
<g mask="url(#mask0_3754_36667)">
<rect width="356.225" height="395.304" transform="matrix(0.866025 0.5 -2.20305e-08 1 39.9316 -20.7695)" fill="#C0C0C0"/>
</g>
<rect width="321.527" height="214.972" rx="17.3262" transform="matrix(0.866025 -0.5 0.866025 0.5 49.0762 325.25)" stroke="#060606" stroke-width="1.5"/>
<rect width="300.369" height="200.826" rx="17.3262" transform="matrix(0.866025 -0.5 0.866025 0.5 61.3262 332.322)" fill="#141414" stroke="#060606" stroke-width="1.5"/>
<mask id="mask1_3754_36667" style="mask-type:alpha" maskUnits="userSpaceOnUse" x="69" y="186" width="419" height="243">
<rect width="300.369" height="200.826" rx="17.3262" transform="matrix(0.866025 -0.5 0.866025 0.5 61.3262 332.322)" fill="#060606" stroke="#060606" stroke-width="1.5"/>
</mask>
<g mask="url(#mask1_3754_36667)">
<rect width="356.225" height="395.304" transform="matrix(0.866025 0.5 -2.20305e-08 1 51.9316 -2.76953)" fill="#060606"/>
</g>
<rect width="300.369" height="200.826" rx="17.3262" transform="matrix(0.866025 -0.5 0.866025 0.5 61.3262 332.322)" stroke="#060606" stroke-width="1.5"/>
<ellipse cx="322.807" cy="165.639" rx="14.875" ry="8.86978" fill="#060606"/>
<rect opacity="0.4" width="323.335" height="207.42" rx="18" transform="matrix(0.866025 -0.5 2.20305e-08 1 117.025 161.668)" fill="#060606"/>
<rect x="0.649519" y="0.375" width="321.835" height="214.418" rx="17.25" transform="matrix(0.866025 -0.5 2.20305e-08 1 137.112 166.106)" fill="white" stroke="#060606" stroke-width="1.5"/>
<path d="M201.604 194.528L201.604 182.603L205.734 180.219C206.471 179.793 207.066 179.621 207.52 179.701C207.974 179.775 208.306 180.009 208.517 180.401C208.727 180.793 208.832 181.251 208.832 181.775C208.832 182.443 208.701 183.074 208.438 183.667C208.18 184.258 207.824 184.759 207.369 185.17L207.369 184.756C208.015 184.538 208.498 184.605 208.818 184.955C209.143 185.303 209.306 185.808 209.306 186.471C209.306 187.183 209.191 187.876 208.961 188.549C208.737 189.22 208.393 189.844 207.929 190.42C207.465 190.992 206.882 191.48 206.179 191.886L201.604 194.528ZM203.583 191.265L205.978 189.882C206.241 189.73 206.475 189.532 206.681 189.286C206.887 189.035 207.047 188.76 207.161 188.462C207.281 188.156 207.341 187.842 207.341 187.522C207.341 187.241 207.291 187.018 207.19 186.856C207.09 186.693 206.937 186.607 206.731 186.599C206.53 186.582 206.279 186.661 205.978 186.835L203.583 188.218L203.583 191.265ZM203.583 186.114L205.706 184.889C205.926 184.762 206.122 184.605 206.294 184.417C206.466 184.229 206.602 184.015 206.702 183.775C206.803 183.529 206.853 183.26 206.853 182.968C206.853 182.603 206.755 182.354 206.559 182.218C206.363 182.083 206.079 182.123 205.706 182.338L203.583 183.564L203.583 186.114ZM210.879 178.987L210.879 177L212.83 175.873L212.83 177.861L210.879 178.987ZM210.879 189.172L210.879 180.229L212.83 179.103L212.83 188.046L210.879 189.172ZM219.627 184.122C219.092 184.547 218.566 184.9 218.049 185.182C217.538 185.466 217.079 185.629 216.672 185.67C216.271 185.704 215.965 185.563 215.754 185.248C215.563 184.95 215.463 184.594 215.453 184.18C215.444 183.76 215.439 183.283 215.439 182.747L215.439 175.112L217.39 173.986L217.39 181.489C217.39 181.836 217.392 182.15 217.397 182.429C217.406 182.699 217.456 182.891 217.547 183.004C217.719 183.219 217.994 183.232 218.372 183.041C218.75 182.851 219.168 182.587 219.627 182.25L219.627 184.122ZM214.119 180.097L214.119 178.358L219.627 175.179L219.627 176.918L214.119 180.097ZM224.346 181.646C223.543 182.109 222.855 182.3 222.281 182.217C221.707 182.134 221.267 181.825 220.961 181.29C220.655 180.754 220.502 180.039 220.502 179.145C220.502 178.239 220.66 177.34 220.976 176.445C221.296 175.548 221.746 174.728 222.324 173.986C222.903 173.243 223.586 172.644 224.375 172.189C225.288 171.662 226.053 171.488 226.67 171.667C227.291 171.838 227.688 172.335 227.86 173.158L225.91 174.88C225.795 174.483 225.594 174.237 225.307 174.143C225.025 174.047 224.705 174.102 224.346 174.309C223.935 174.546 223.598 174.857 223.335 175.24C223.072 175.619 222.879 176.042 222.754 176.512C222.63 176.975 222.568 177.456 222.568 177.952C222.568 178.731 222.716 179.277 223.012 179.592C223.314 179.898 223.758 179.882 224.346 179.542C224.786 179.288 225.121 178.979 225.35 178.615C225.58 178.251 225.752 177.82 225.867 177.323L227.86 176.652C227.64 177.729 227.224 178.7 226.613 179.567C226.001 180.434 225.245 181.127 224.346 181.646ZM232.57 176.898C231.791 177.348 231.107 177.541 230.519 177.477C229.931 177.414 229.472 177.124 229.142 176.608C228.817 176.083 228.654 175.36 228.654 174.438C228.654 173.505 228.822 172.589 229.156 171.689C229.491 170.784 229.952 169.963 230.54 169.226C231.128 168.489 231.805 167.899 232.57 167.458C233.349 167.008 234.033 166.814 234.621 166.878C235.214 166.939 235.675 167.23 236.005 167.752C236.335 168.268 236.5 168.987 236.5 169.909C236.5 170.836 236.333 171.753 235.998 172.658C235.668 173.555 235.207 174.376 234.614 175.122C234.026 175.859 233.344 176.451 232.57 176.898ZM232.57 174.794C233.196 174.433 233.662 173.921 233.968 173.258C234.279 172.588 234.435 171.869 234.435 171.101C234.435 170.306 234.277 169.762 233.961 169.47C233.65 169.175 233.187 169.205 232.57 169.561C232.144 169.807 231.795 170.119 231.523 170.497C231.25 170.875 231.047 171.299 230.913 171.768C230.784 172.234 230.72 172.727 230.72 173.246C230.72 174.046 230.875 174.594 231.186 174.89C231.501 175.177 231.963 175.145 232.57 174.794ZM238.22 163.202L238.22 161.214L240.171 160.088L240.171 162.075L238.22 163.202ZM238.22 173.387L238.22 164.444L240.171 163.318L240.171 172.261L238.22 173.387ZM247.599 167.972L247.599 163.749C247.599 163.545 247.59 163.291 247.57 162.987C247.551 162.678 247.492 162.392 247.391 162.13C247.291 161.868 247.126 161.695 246.896 161.613C246.672 161.527 246.351 161.604 245.935 161.844C245.768 161.941 245.589 162.075 245.397 162.246C245.206 162.417 245.027 162.639 244.86 162.913C244.692 163.18 244.554 163.514 244.444 163.915C244.338 164.312 244.286 164.79 244.286 165.347L243.167 165.38C243.167 164.674 243.291 163.94 243.54 163.178C243.789 162.416 244.162 161.701 244.659 161.033C245.161 160.362 245.792 159.807 246.552 159.368C247.159 159.018 247.654 158.851 248.037 158.868C248.419 158.884 248.715 159.014 248.926 159.257C249.141 159.497 249.294 159.789 249.385 160.134C249.476 160.474 249.531 160.801 249.55 161.116C249.569 161.43 249.578 161.662 249.578 161.811L249.578 166.83L247.599 167.972ZM242.307 171.028L242.307 162.085L244.042 161.083L244.042 164.047L244.286 163.906L244.286 169.885L242.307 171.028Z" fill="#060606"/>
<path d="M206.15 226.004L206.15 223.023L209.076 221.334L209.076 224.315L206.15 226.004ZM206.15 206.155L206.15 203.174L209.076 201.485L209.076 204.466L206.15 206.155ZM207.635 223.036C206.523 223.677 205.53 224.015 204.655 224.048C203.78 224.073 203.067 223.81 202.514 223.259C201.962 222.7 201.611 221.868 201.46 220.762L204.365 218.564C204.558 219.429 204.963 219.974 205.58 220.197C206.204 220.417 206.946 220.278 207.807 219.781C208.617 219.313 209.288 218.707 209.818 217.961C210.356 217.212 210.625 216.514 210.625 215.868C210.625 215.43 210.507 215.138 210.27 214.993C210.041 214.835 209.679 214.809 209.184 214.912L205.354 215.757C203.145 216.245 202.041 215.326 202.041 212.999C202.041 211.906 202.263 210.83 202.708 209.77C203.16 208.706 203.794 207.722 204.612 206.82C205.437 205.905 206.408 205.128 207.527 204.491C208.553 203.915 209.463 203.605 210.259 203.559C211.056 203.505 211.719 203.714 212.25 204.186C212.787 204.646 213.178 205.36 213.422 206.329L210.41 208.689C210.31 208.217 210.123 207.861 209.851 207.621C209.578 207.372 209.238 207.254 208.829 207.267C208.427 207.267 207.979 207.401 207.484 207.67C207.011 207.927 206.581 208.254 206.193 208.652C205.813 209.045 205.508 209.465 205.279 209.912C205.057 210.347 204.945 210.759 204.945 211.148C204.945 211.579 205.103 211.861 205.419 211.993C205.734 212.117 206.236 212.092 206.925 211.918L209.657 211.235C211.027 210.9 212.013 210.948 212.615 211.378C213.225 211.805 213.53 212.66 213.53 213.943C213.53 215.069 213.282 216.202 212.787 217.34C212.293 218.479 211.601 219.545 210.711 220.539C209.829 221.528 208.804 222.361 207.635 223.036ZM221.073 215.277C220.026 215.881 219.094 216.175 218.276 216.159C217.466 216.13 216.828 215.819 216.361 215.227C215.902 214.623 215.673 213.766 215.673 212.656C215.673 211.712 215.856 210.716 216.222 209.669C216.595 208.617 217.129 207.625 217.824 206.694L217.76 207.774C217.236 207.489 216.824 207.106 216.523 206.626C216.229 206.141 216.082 205.489 216.082 204.669C216.082 203.634 216.293 202.609 216.716 201.595C217.147 200.576 217.735 199.641 218.481 198.788C219.234 197.922 220.098 197.208 221.073 196.645C222.048 196.082 222.909 195.8 223.655 195.8C224.408 195.788 224.996 196.045 225.419 196.571C225.849 197.092 226.064 197.871 226.064 198.906C226.064 199.726 225.925 200.543 225.645 201.359C225.365 202.166 224.938 203.042 224.365 203.986L224.365 202.943C225.046 203.046 225.57 203.415 225.935 204.048C226.308 204.677 226.495 205.464 226.495 206.408C226.495 207.518 226.262 208.642 225.795 209.78C225.329 210.911 224.687 211.96 223.87 212.929C223.052 213.89 222.12 214.672 221.073 215.277ZM221.073 212.097C221.762 211.7 222.321 211.161 222.751 210.482C223.181 209.803 223.397 209.041 223.397 208.197C223.397 207.36 223.181 206.847 222.751 206.657C222.321 206.458 221.762 206.557 221.073 206.955C220.385 207.352 219.829 207.897 219.406 208.588C218.983 209.271 218.771 210.031 218.771 210.867C218.771 211.712 218.983 212.227 219.406 212.414C219.829 212.6 220.385 212.495 221.073 212.097ZM221.073 203.75C221.632 203.427 222.088 203.007 222.439 202.489C222.791 201.963 222.966 201.365 222.966 200.694C222.966 200.024 222.791 199.628 222.439 199.508C222.088 199.38 221.632 199.477 221.073 199.8C220.514 200.123 220.058 200.552 219.707 201.086C219.356 201.611 219.18 202.21 219.18 202.88C219.18 203.551 219.356 203.947 219.707 204.067C220.058 204.179 220.514 204.073 221.073 203.75ZM229.077 213.637L229.249 212.121C229.594 211.956 229.873 211.728 230.089 211.438C230.304 211.157 230.451 210.84 230.53 210.488C230.616 210.14 230.634 209.782 230.583 209.413L229.077 210.283L229.077 206.904L232.003 205.215L232.003 208.594C232.003 209.786 231.763 210.827 231.283 211.718C230.802 212.608 230.067 213.248 229.077 213.637ZM236.874 205.781L242.081 188.069L235.454 191.895L235.454 188.715L245.222 183.075L245.222 186.255L240.037 203.956L236.874 205.781ZM252.772 178.368C253.798 177.776 254.716 177.524 255.526 177.611C256.343 177.694 256.989 178.095 257.462 178.816C257.935 179.528 258.172 180.534 258.172 181.834L258.172 187.026C258.172 188.434 257.935 189.788 257.462 191.088C256.989 192.38 256.322 193.551 255.461 194.603C254.601 195.646 253.59 196.503 252.428 197.174C251.675 197.609 250.958 197.895 250.276 198.031C249.602 198.155 248.978 198.081 248.405 197.808L250.492 194.193C250.75 194.342 251.047 194.402 251.384 194.373C251.729 194.34 252.076 194.222 252.428 194.019C252.987 193.696 253.471 193.268 253.88 192.734C254.296 192.187 254.615 191.609 254.837 191.001C255.067 190.38 255.182 189.796 255.182 189.249L255.182 186.591L255.676 186.927C255.239 187.701 254.726 188.399 254.138 189.02C253.55 189.632 252.944 190.119 252.32 190.479C251.345 191.042 250.484 191.287 249.739 191.212C249 191.133 248.419 190.777 247.996 190.144C247.58 189.506 247.372 188.624 247.372 187.498C247.372 186.372 247.619 185.215 248.114 184.026C248.609 182.83 249.265 181.73 250.083 180.728C250.9 179.718 251.797 178.932 252.772 178.368ZM252.772 181.598C252.327 181.855 251.919 182.215 251.546 182.679C251.18 183.138 250.886 183.643 250.664 184.194C250.449 184.741 250.341 185.271 250.341 185.784C250.341 186.297 250.449 186.707 250.664 187.014C250.879 187.312 251.169 187.484 251.535 187.529C251.901 187.566 252.306 187.457 252.751 187.2C253.195 186.943 253.6 186.585 253.966 186.126C254.339 185.654 254.633 185.144 254.848 184.598C255.07 184.039 255.182 183.503 255.182 182.989C255.182 182.492 255.074 182.095 254.859 181.797C254.644 181.499 254.353 181.327 253.988 181.281C253.622 181.236 253.217 181.341 252.772 181.598ZM266.371 189.124C265.324 189.729 264.391 190.023 263.574 190.006C262.763 189.977 262.125 189.667 261.659 189.075C261.2 188.47 260.97 187.613 260.97 186.503C260.97 185.559 261.153 184.564 261.519 183.516C261.892 182.465 262.426 181.473 263.122 180.541L263.057 181.622C262.534 181.336 262.122 180.953 261.82 180.473C261.526 179.989 261.379 179.336 261.379 178.517C261.379 177.482 261.591 176.457 262.014 175.442C262.444 174.424 263.032 173.488 263.778 172.635C264.531 171.77 265.395 171.056 266.371 170.493C267.346 169.929 268.206 169.648 268.952 169.648C269.705 169.635 270.293 169.892 270.716 170.418C271.147 170.94 271.362 171.718 271.362 172.753C271.362 173.573 271.222 174.391 270.942 175.206C270.663 176.014 270.236 176.889 269.662 177.833L269.662 176.79C270.344 176.894 270.867 177.262 271.233 177.896C271.606 178.525 271.792 179.312 271.792 180.256C271.792 181.365 271.559 182.489 271.093 183.628C270.627 184.758 269.985 185.808 269.167 186.777C268.35 187.737 267.418 188.52 266.371 189.124ZM266.371 185.945C267.059 185.547 267.618 185.009 268.049 184.33C268.479 183.651 268.694 182.889 268.694 182.044C268.694 181.208 268.479 180.694 268.049 180.504C267.618 180.305 267.059 180.405 266.371 180.802C265.682 181.2 265.126 181.744 264.703 182.436C264.28 183.119 264.069 183.878 264.069 184.715C264.069 185.559 264.28 186.075 264.703 186.261C265.126 186.448 265.682 186.342 266.371 185.945ZM266.371 177.597C266.93 177.275 267.385 176.854 267.737 176.337C268.088 175.811 268.264 175.213 268.264 174.542C268.264 173.871 268.088 173.476 267.737 173.356C267.385 173.227 266.93 173.325 266.371 173.648C265.811 173.97 265.356 174.399 265.004 174.933C264.653 175.459 264.477 176.057 264.477 176.728C264.477 177.399 264.653 177.794 265.004 177.914C265.356 178.026 265.811 177.92 266.371 177.597ZM275.063 183.733L275.063 180.354L277.989 178.665L277.989 182.044L275.063 183.733ZM281.051 180.251L281.051 177.32L287.548 166.911C288.036 166.132 288.38 165.466 288.581 164.911C288.782 164.356 288.882 163.888 288.882 163.507C288.882 162.961 288.785 162.532 288.592 162.222C288.398 161.903 288.126 161.725 287.774 161.688C287.423 161.642 287.01 161.756 286.537 162.029C286.042 162.315 285.605 162.7 285.225 163.184C284.852 163.656 284.561 164.168 284.353 164.718C284.145 165.261 284.049 165.776 284.063 166.265L281.051 168.004C281.051 166.778 281.284 165.584 281.75 164.42C282.216 163.257 282.865 162.191 283.697 161.222C284.529 160.253 285.497 159.45 286.602 158.812C287.613 158.228 288.516 157.963 289.312 158.017C290.116 158.059 290.747 158.402 291.206 159.048C291.665 159.694 291.894 160.617 291.894 161.818C291.894 162.704 291.787 163.503 291.571 164.215C291.356 164.919 291.037 165.642 290.614 166.383C290.191 167.116 289.671 167.971 289.054 168.948L284.859 175.618L284.622 175.009L291.894 170.811L291.894 173.991L281.051 180.251ZM298.983 170.246C298.209 170.693 297.47 170.941 296.767 170.991C296.065 171.032 295.451 170.877 294.928 170.525C294.412 170.169 294.042 169.612 293.82 168.854L296.66 166.345C296.81 166.913 297.104 167.252 297.542 167.364C297.987 167.463 298.467 167.364 298.983 167.066C299.428 166.809 299.833 166.451 300.199 165.991C300.572 165.528 300.866 165.023 301.081 164.476C301.303 163.925 301.415 163.393 301.415 162.88C301.415 162.11 301.185 161.584 300.726 161.302C300.274 161.008 299.693 161.066 298.983 161.476C298.768 161.6 298.56 161.758 298.359 161.948C298.159 162.13 297.965 162.337 297.779 162.569L296.466 160.669L301.393 153.104L301.608 153.701L294.422 157.849L294.422 154.669L304.104 149.08L304.104 152.26L300.274 158.744L300.253 157.812C301.142 157.456 301.891 157.383 302.501 157.595C303.118 157.793 303.584 158.212 303.899 158.849C304.222 159.474 304.383 160.247 304.383 161.166C304.383 162.292 304.136 163.449 303.641 164.637C303.146 165.817 302.49 166.908 301.673 167.91C300.855 168.904 299.959 169.683 298.983 170.246ZM317.787 159.439C316.539 160.159 315.442 160.503 314.495 160.47C313.549 160.429 312.81 160.031 312.28 159.278C311.749 158.524 311.483 157.431 311.483 155.998L311.483 144.844L314.452 143.105L314.452 154.259C314.452 154.847 314.539 155.332 314.711 155.713C314.883 156.094 315.119 156.371 315.421 156.545C315.729 156.715 316.084 156.779 316.486 156.737C316.894 156.684 317.328 156.524 317.787 156.259C318.26 155.986 318.698 155.638 319.1 155.216C319.508 154.789 319.863 154.315 320.164 153.794C320.466 153.272 320.699 152.723 320.864 152.148C321.036 151.568 321.122 150.988 321.122 150.409L321.122 139.254L324.091 137.54L324.091 148.719C324.091 150.152 323.825 151.551 323.295 152.918C322.764 154.284 322.025 155.535 321.079 156.669C320.132 157.795 319.035 158.719 317.787 159.439ZM332.294 151.063C331.147 151.726 330.111 152.092 329.186 152.162C328.268 152.22 327.511 151.987 326.916 151.461C326.328 150.922 325.955 150.094 325.797 148.976L328.852 146.691C329.067 147.594 329.512 148.128 330.186 148.293C330.86 148.459 331.628 148.293 332.488 147.796C332.969 147.519 333.435 147.163 333.887 146.728C334.338 146.293 334.708 145.823 334.994 145.318C335.289 144.809 335.436 144.306 335.436 143.809C335.436 143.627 335.41 143.468 335.36 143.331C335.317 143.182 335.242 143.064 335.134 142.977C335.027 142.89 334.873 142.838 334.672 142.822C334.478 142.801 334.231 142.824 333.93 142.89L329.906 143.846C329.605 143.921 329.254 143.983 328.852 144.033C328.458 144.078 328.074 144.039 327.701 143.915C327.328 143.791 327.016 143.524 326.765 143.114C326.521 142.691 326.4 142.054 326.4 141.201C326.4 140 326.661 138.851 327.185 137.754C327.708 136.657 328.408 135.661 329.282 134.767C330.157 133.872 331.126 133.123 332.187 132.518C333.255 131.918 334.209 131.578 335.048 131.5C335.887 131.421 336.59 131.607 337.157 132.059C337.723 132.502 338.132 133.21 338.383 134.183L335.22 136.63C335.106 136.116 334.894 135.75 334.586 135.53C334.277 135.311 333.908 135.222 333.478 135.263C333.055 135.301 332.61 135.446 332.144 135.698C331.685 135.947 331.251 136.272 330.842 136.673C330.441 137.062 330.111 137.485 329.853 137.94C329.602 138.391 329.476 138.828 329.476 139.251C329.476 139.64 329.58 139.899 329.788 140.027C329.996 140.147 330.258 140.19 330.573 140.157C330.889 140.124 331.212 140.062 331.541 139.971L334.231 139.263C334.632 139.155 335.077 139.064 335.565 138.99C336.052 138.907 336.518 138.919 336.963 139.027C337.415 139.122 337.784 139.381 338.071 139.803C338.365 140.222 338.512 140.882 338.512 141.785C338.512 142.745 338.336 143.687 337.985 144.61C337.641 145.521 337.175 146.382 336.587 147.194C335.998 147.997 335.332 148.73 334.586 149.393C333.847 150.051 333.083 150.608 332.294 151.063ZM340.876 145.736L340.876 127.849L345.889 124.955C346.011 124.885 346.262 124.744 346.642 124.533C347.022 124.322 347.388 124.139 347.739 123.986C348.987 123.44 350.045 123.33 350.913 123.657C351.781 123.984 352.44 124.655 352.892 125.669C353.344 126.684 353.57 127.949 353.57 129.464C353.57 130.979 353.344 132.505 352.892 134.041C352.44 135.577 351.781 137.01 350.913 138.339C350.045 139.668 348.987 140.78 347.739 141.674C347.388 141.927 347.022 142.167 346.642 142.394C346.262 142.622 346.011 142.771 345.889 142.842L340.876 145.736ZM343.845 140.842L345.889 139.662C346.083 139.55 346.345 139.395 346.675 139.196C347.004 138.989 347.302 138.78 347.567 138.569C348.241 138.022 348.79 137.341 349.213 136.525C349.643 135.706 349.959 134.836 350.16 133.917C350.368 132.994 350.472 132.106 350.472 131.253C350.472 130.358 350.364 129.572 350.149 128.893C349.941 128.209 349.622 127.715 349.192 127.408C348.761 127.102 348.22 127.062 347.567 127.29C347.302 127.377 347.004 127.512 346.675 127.694C346.345 127.876 346.083 128.023 345.889 128.135L343.845 129.315L343.845 140.842Z" fill="#060606"/>
<circle r="19.1419" transform="matrix(0.866025 -0.5 2.20305e-08 1 171.593 208.13)" fill="#060606"/>
<path d="M177.528 203.275C177.776 201.216 176.513 200.915 174.785 201.225L175.345 198.306L173.977 198.702L173.431 201.545C173.071 201.649 172.702 201.764 172.335 201.88L172.884 199.018L171.517 199.414L170.956 202.333C170.658 202.427 170.366 202.518 170.082 202.6L170.084 202.591L168.196 203.137L167.832 205.035C167.832 205.035 168.848 204.717 168.826 204.746C169.38 204.586 169.481 204.952 169.464 205.297L168.825 208.623C168.864 208.612 168.913 208.6 168.968 208.593C168.922 208.607 168.873 208.62 168.823 208.636L167.928 213.295C167.86 213.529 167.688 213.919 167.301 214.032C167.315 214.048 166.306 214.32 166.306 214.32L165.627 216.521L167.408 216.006C167.739 215.91 168.064 215.823 168.383 215.733L167.817 218.686L169.184 218.29L169.745 215.369C170.118 215.27 170.481 215.169 170.835 215.066L170.276 217.974L171.645 217.578L172.211 214.63C174.545 213.793 176.299 212.574 177.038 209.711C177.633 207.405 177.008 206.633 175.781 206.604C176.675 205.85 177.348 204.782 177.528 203.275V203.275ZM174.401 210.143C173.978 212.35 171.117 212.941 170.19 213.21L170.941 209.298C171.869 209.03 174.843 207.842 174.401 210.143V210.143ZM174.825 204.808C174.439 206.815 172.057 207.284 171.285 207.507L171.966 203.959C172.739 203.735 175.226 202.714 174.825 204.808V204.808Z" fill="white"/>
<rect width="6.63254" height="50.7344" rx="3.31627" transform="matrix(0.866025 -0.5 2.20305e-08 1 157.682 281.684)" fill="#060606"/>
<rect width="6.63254" height="40.2419" rx="3.31627" transform="matrix(0.866025 -0.5 2.20305e-08 1 216.795 258.043)" fill="#060606"/>
<rect width="6.63254" height="38.9963" rx="3.31627" transform="matrix(0.866025 -0.5 2.20305e-08 1 275.912 225.162)" fill="#060606"/>
<rect width="6.63254" height="42.1102" rx="3.31627" transform="matrix(0.866025 -0.5 2.20305e-08 1 347.229 180.873)" fill="#060606"/>
<rect width="6.63254" height="29.6545" rx="3.31627" transform="matrix(0.866025 -0.5 2.20305e-08 1 169.885 295.719)" fill="#060606"/>
<rect width="6.63254" height="28.0975" rx="3.31627" transform="matrix(0.866025 -0.5 2.20305e-08 1 288.117 229.012)" fill="#060606"/>
<rect width="6.63254" height="50.7344" rx="3.31627" transform="matrix(0.866025 -0.5 2.20305e-08 1 229 240.508)" fill="#060606"/>
<rect width="6.63254" height="50.7344" rx="3.31627" transform="matrix(0.866025 -0.5 2.20305e-08 1 359.432 165.203)" fill="#060606"/>
<rect width="6.63254" height="19.0671" rx="3.31627" transform="matrix(0.866025 -0.5 2.20305e-08 1 300.322 230.996)" fill="#060606"/>
<rect width="6.63254" height="41.4874" rx="3.31627" transform="matrix(0.866025 -0.5 2.20305e-08 1 182.094 276.834)" fill="#060606"/>
<rect width="6.63254" height="30.2773" rx="3.31627" transform="matrix(0.866025 -0.5 2.20305e-08 1 241.213 253.914)" fill="#060606"/>
<rect width="6.63254" height="46.1584" rx="3.31627" transform="matrix(0.866025 -0.5 2.20305e-08 1 313.49 196.303)" fill="#060606"/>
<rect width="6.63254" height="25.9202" rx="3.31627" transform="matrix(0.866025 -0.5 2.20305e-08 1 371.639 182.973)" fill="#060606"/>
<rect width="6.63254" height="50.7344" rx="3.31627" transform="matrix(0.866025 -0.5 2.20305e-08 1 265.143 219.641)" fill="#060606"/>
<rect width="6.63254" height="50.7344" rx="3.31627" transform="matrix(0.866025 -0.5 2.20305e-08 1 324.254 185.514)" fill="#060606"/>
<rect width="6.63254" height="50.7344" rx="3.31627" transform="matrix(0.866025 -0.5 2.20305e-08 1 195.256 259.984)" fill="#060606"/>
<rect width="6.63254" height="20.0013" rx="3.31627" transform="matrix(0.866025 -0.5 2.20305e-08 1 254.371 256.592)" fill="#060606"/>
<rect width="6.63254" height="39.9329" rx="3.31627" transform="matrix(0.866025 -0.5 2.20305e-08 1 384.805 161.359)" fill="#060606"/>
<rect width="6.63254" height="50.7344" rx="3.31627" transform="matrix(0.866025 -0.5 2.20305e-08 1 206.027 253.773)" fill="#060606"/>
<rect width="6.63254" height="31.8342" rx="3.31627" transform="matrix(0.866025 -0.5 2.20305e-08 1 336.457 197.365)" fill="#060606"/>
<rect width="6.63254" height="50.7344" rx="3.31627" transform="matrix(0.866025 -0.5 2.20305e-08 1 395.572 144.338)" fill="#060606"/>
</svg>
