<svg width="75" height="68" viewBox="0 0 75 68" fill="none" xmlns="http://www.w3.org/2000/svg">
<g clip-path="url(#clip0_3754_37700)">
<path fill-rule="evenodd" clip-rule="evenodd" d="M50.2976 57.0735L57.7448 63.9915C58.4547 64.651 59.5353 64.7067 60.3093 64.1236L67.4977 58.7087C69.4232 57.474 70.9718 55.6234 72.054 53.2312C73.7957 49.3814 74.2515 44.3018 73.3635 38.6347C72.4756 32.9676 70.2839 26.9675 67.0656 21.3933C63.8474 15.8191 59.747 10.921 55.2831 7.3185C50.8192 3.71598 46.1923 1.57083 41.9874 1.1543C37.7825 0.737779 34.1885 2.06859 31.6599 4.97844C30.7837 5.98682 30.049 7.16914 29.463 8.50245L29.4788 8.41765C28.171 7.28693 26.8282 6.32208 25.4805 5.54456C21.2083 3.078 17.1111 2.67214 14.0902 4.41626C13.8782 4.53864 13.6727 4.6709 13.4739 4.81276C13.1573 4.86103 12.8488 4.98588 12.5776 5.18904L4.45546 11.2716C3.45696 12.0193 3.37916 13.4887 4.29313 14.3377L9.82285 19.4746C10.5132 23.1711 11.9782 27.0631 14.0902 30.7212C17.1111 35.9535 21.2083 40.2787 25.4805 42.7453L50.2976 57.0735Z" fill="#060606"/>
<path d="M57.7448 63.9915L57.934 63.3833L57.934 63.3832L57.7448 63.9915ZM50.2976 57.0735L50.4868 56.4652L50.3943 56.3793L50.2976 56.3235L50.2976 57.0735ZM60.3093 64.1236L60.7999 64.8984L60.7999 64.8984L60.3093 64.1236ZM67.4977 58.7087L67.0262 57.9206L67.0165 57.9269L67.0072 57.9339L67.4977 58.7087ZM72.054 53.2312L71.4539 52.5977L71.4539 52.5977L72.054 53.2312ZM73.3635 38.6347L74.0006 38.8562L74.0006 38.8562L73.3635 38.6347ZM67.0656 21.3933L67.5249 21.1282L67.5249 21.1282L67.0656 21.3933ZM55.2831 7.3185L55.4098 6.65607L55.2831 7.3185ZM41.9874 1.1543L41.7388 0.317889L41.7388 0.317889L41.9874 1.1543ZM31.6599 4.97844L32.2 5.70692L32.2 5.70692L31.6599 4.97844ZM29.463 8.50245L28.8255 7.99101L30.0651 9.13146L29.463 8.50245ZM29.4788 8.41765L30.1164 8.92909L30.2343 8.29793L29.6356 7.78034L29.4788 8.41765ZM25.4805 5.54456L25.4805 6.29456L25.4808 6.2947L25.4805 5.54456ZM14.0902 4.41626L13.6309 3.62076L13.6309 3.62076L14.0902 4.41626ZM13.4739 4.81276L13.8209 5.6471L13.8976 5.63542L13.958 5.59228L13.4739 4.81276ZM12.5776 5.18904L13.0674 5.96435L13.0674 5.96435L12.5776 5.18904ZM4.45546 11.2716L3.9656 10.4963L3.9656 10.4963L4.45546 11.2716ZM4.29313 14.3377L4.10393 14.946L4.10393 14.946L4.29313 14.3377ZM9.82285 19.4746L10.4542 19.6629L10.367 19.1961L10.012 18.8663L9.82285 19.4746ZM14.0902 30.7212L13.6309 30.9863L13.6309 30.9863L14.0902 30.7212ZM57.934 63.3832L50.4868 56.4652L50.1084 57.6817L57.5556 64.5997L57.934 63.3832ZM59.8188 63.3489C59.4879 63.5981 59.0981 63.7043 58.7339 63.6856C58.3555 63.6661 58.0797 63.5186 57.934 63.3833L57.5556 64.5997C58.1198 65.1239 58.7393 65.334 59.2722 65.3615C59.8192 65.3897 60.3567 65.2323 60.7999 64.8984L59.8188 63.3489ZM67.0072 57.9339L59.8188 63.3489L60.7999 64.8984L67.9883 59.4835L67.0072 57.9339ZM71.4539 52.5977C70.4022 54.9224 68.8973 56.7207 67.0262 57.9206L67.9692 59.4967C69.949 58.2272 71.5413 56.3244 72.6541 53.8647L71.4539 52.5977ZM72.7265 38.4132C73.5894 43.9204 73.1465 48.8566 71.4539 52.5977L72.6541 53.8647C74.445 49.9062 74.9136 44.6832 74.0006 38.8562L72.7265 38.4132ZM66.6064 21.6585C69.7338 27.0754 71.8636 32.9061 72.7265 38.4132L74.0006 38.8562C73.0876 33.0291 70.834 26.8597 67.5249 21.1282L66.6064 21.6585ZM55.1564 7.98093C59.4943 11.4818 63.4789 16.2416 66.6064 21.6585L67.5249 21.1282C64.2158 15.3966 59.9997 10.3603 55.4098 6.65607L55.1564 7.98093ZM42.236 1.99072C46.3222 2.39549 50.8185 4.4801 55.1564 7.98093L55.4098 6.65607C50.8199 2.95187 46.0624 0.746173 41.7388 0.317889L42.236 1.99072ZM32.2 5.70692C34.6572 2.8792 38.1497 1.58595 42.236 1.99072L41.7388 0.317889C37.4153 -0.110393 33.7198 1.25798 31.1199 4.24996L32.2 5.70692ZM30.0651 9.13146C30.6345 7.83578 31.3485 6.68684 32.2 5.70692L31.1199 4.24996C30.2189 5.2868 29.4635 6.50249 28.8609 7.87344L30.0651 9.13146ZM28.8413 7.90621L28.8255 7.99101L30.1005 9.01389L30.1164 8.92909L28.8413 7.90621ZM25.4808 6.2947C26.7755 7.04169 28.0656 7.96865 29.3221 9.05497L29.6356 7.78034C28.2764 6.60522 26.8809 5.60247 25.4803 4.79442L25.4808 6.2947ZM14.5494 5.21175C17.4485 3.53796 21.3806 3.92745 25.4805 6.29456L25.4805 4.79456C21.036 2.22854 16.7736 1.80631 13.6309 3.62076L14.5494 5.21175ZM13.958 5.59228C14.1488 5.45614 14.346 5.32921 14.5494 5.21175L13.6309 3.62076C13.4104 3.74807 13.1966 3.88567 12.9898 4.03324L13.958 5.59228ZM13.0674 5.96435C13.2981 5.79162 13.5586 5.68709 13.8209 5.6471L13.1269 3.97843C12.7559 4.03498 12.3996 4.18015 12.0877 4.41373L13.0674 5.96435ZM4.94533 12.0469L13.0674 5.96435L12.0877 4.41373L3.9656 10.4963L4.94533 12.0469ZM4.48232 13.7295C4.40288 13.6557 4.37216 13.599 4.35268 13.5494C4.32722 13.4846 4.29614 13.3623 4.3055 13.1854C4.32472 12.8223 4.51134 12.3719 4.94533 12.0469L3.9656 10.4963C3.40109 10.919 3.04955 11.5772 3.00874 12.3479C2.98809 12.738 3.04652 13.1889 3.23232 13.6618C3.4241 14.1499 3.72639 14.5953 4.10393 14.946L4.48232 13.7295ZM10.012 18.8663L4.48232 13.7295L4.10393 14.946L9.63365 20.0828L10.012 18.8663ZM14.5494 30.456C12.5226 26.9454 11.1167 23.2104 10.4542 19.6629L9.19151 19.2863C9.90969 23.1318 11.4337 27.1807 13.6309 30.9863L14.5494 30.456ZM25.4805 41.9953C21.3806 39.6282 17.4485 35.4774 14.5494 30.456L13.6309 30.9863C16.7736 36.4297 21.036 40.9293 25.4805 43.4953L25.4805 41.9953ZM50.2976 56.3235L25.4805 41.9953L25.4805 43.4953L50.2976 57.8235L50.2976 56.3235Z" fill="#060606"/>
<path d="M19.4673 23.4775C19.4673 18.2056 20.8211 13.8337 23.3577 10.9147C25.8942 7.99577 29.4994 6.66079 33.7175 7.07862C37.9356 7.49646 42.577 9.64833 47.0549 13.2621C51.5328 16.8759 55.6459 21.7894 58.8743 27.3811C62.1027 32.9728 64.3012 38.9916 65.1919 44.6765C66.0826 50.3613 65.6255 55.4569 63.8783 59.3187C62.1311 63.1806 59.1724 65.6353 55.3762 66.3725C51.5801 67.1097 47.117 66.0963 42.5514 63.4603L17.1589 48.7999C12.8733 46.3257 8.7632 41.9869 5.73282 36.7381C2.70245 31.4894 0.999999 25.7605 0.999999 20.812C0.999999 15.8634 2.70245 12.1004 5.73282 10.3508C8.7632 8.60121 12.8733 9.00834 17.1589 11.4826C18.5108 12.2626 19.8578 13.2305 21.1697 14.3647" fill="white"/>
<path d="M19.4673 23.4775C19.4673 18.2056 20.8211 13.8337 23.3577 10.9147C25.8942 7.99577 29.4994 6.66079 33.7175 7.07862C37.9356 7.49646 42.577 9.64833 47.0549 13.2621C51.5328 16.8759 55.6459 21.7894 58.8743 27.3811C62.1027 32.9728 64.3012 38.9916 65.1919 44.6765C66.0826 50.3613 65.6255 55.4569 63.8783 59.3187C62.1311 63.1806 59.1724 65.6353 55.3762 66.3725C51.5801 67.1097 47.117 66.0963 42.5514 63.4603L17.1589 48.7999C12.8733 46.3257 8.7632 41.9869 5.73282 36.7381C2.70245 31.4894 0.999999 25.7605 0.999999 20.812C0.999999 15.8634 2.70245 12.1004 5.73282 10.3508C8.7632 8.60121 12.8733 9.00834 17.1589 11.4826C18.5108 12.2626 19.8578 13.2305 21.1697 14.3647" stroke="#060606" stroke-width="1.5" stroke-linecap="round" stroke-linejoin="round"/>
<mask id="mask0_3754_37700" style="mask-type:alpha" maskUnits="userSpaceOnUse" x="0" y="6" width="67" height="62">
<path d="M19.4673 23.4775C19.4673 18.2056 20.8211 13.8337 23.3577 10.9147C25.8942 7.99577 29.4994 6.66079 33.7175 7.07862C37.9356 7.49646 42.577 9.64833 47.0549 13.2621C51.5328 16.8759 55.6459 21.7894 58.8743 27.3811C62.1027 32.9728 64.3012 38.9916 65.1919 44.6765C66.0826 50.3613 65.6255 55.4569 63.8783 59.3187C62.1311 63.1806 59.1724 65.6353 55.3762 66.3725C51.5801 67.1097 47.117 66.0963 42.5514 63.4603L17.1589 48.7999C12.8733 46.3257 8.7632 41.9869 5.73282 36.7381C2.70245 31.4894 0.999999 25.7605 0.999999 20.812C0.999999 15.8634 2.70245 12.1004 5.73282 10.3508C8.7632 8.60121 12.8733 9.00834 17.1589 11.4826C18.5108 12.2626 19.8578 13.2305 21.1697 14.3647" fill="white"/>
<path d="M19.4673 23.4775C19.4673 18.2056 20.8211 13.8337 23.3577 10.9147C25.8942 7.99577 29.4994 6.66079 33.7175 7.07862C37.9356 7.49646 42.577 9.64833 47.0549 13.2621C51.5328 16.8759 55.6459 21.7894 58.8743 27.3811C62.1027 32.9728 64.3012 38.9916 65.1919 44.6765C66.0826 50.3613 65.6255 55.4569 63.8783 59.3187C62.1311 63.1806 59.1724 65.6353 55.3762 66.3725C51.5801 67.1097 47.117 66.0963 42.5514 63.4603L17.1589 48.7999C12.8733 46.3257 8.7632 41.9869 5.73282 36.7381C2.70245 31.4894 0.999999 25.7605 0.999999 20.812C0.999999 15.8634 2.70245 12.1004 5.73282 10.3508C8.7632 8.60121 12.8733 9.00834 17.1589 11.4826C18.5108 12.2626 19.8578 13.2305 21.1697 14.3647" stroke="#060606" stroke-width="1.5" stroke-linecap="round" stroke-linejoin="round"/>
</mask>
<g mask="url(#mask0_3754_37700)">
<rect x="-9.41406" y="36.166" width="86.375" height="61.25" fill="#B0F127"/>
</g>
<path d="M19.4673 23.4775C19.4673 18.2056 20.8211 13.8337 23.3577 10.9147C25.8942 7.99577 29.4994 6.66079 33.7175 7.07862C37.9356 7.49646 42.577 9.64833 47.0549 13.2621C51.5328 16.8759 55.6459 21.7894 58.8743 27.3811C62.1027 32.9728 64.3012 38.9916 65.1919 44.6765C66.0826 50.3613 65.6255 55.4569 63.8783 59.3187C62.1311 63.1806 59.1724 65.6353 55.3762 66.3725C51.5801 67.1097 47.117 66.0963 42.5514 63.4603L17.1589 48.7999C12.8733 46.3257 8.7632 41.9869 5.73282 36.7381C2.70245 31.4894 0.999999 25.7605 0.999999 20.812C0.999999 15.8634 2.70245 12.1004 5.73282 10.3508C8.7632 8.60121 12.8733 9.00834 17.1589 11.4826C18.5108 12.2626 19.8578 13.2305 21.1697 14.3647" stroke="#060606" stroke-width="1.5" stroke-linecap="round" stroke-linejoin="round"/>
<path d="M38.7285 28.543L38.7285 48.8959" stroke="#060606" stroke-width="2" stroke-linecap="round" stroke-linejoin="round"/>
<path d="M48.8505 44.2427L38.7285 50.0866L28.6066 32.5549" stroke="#060606" stroke-width="2" stroke-linecap="round" stroke-linejoin="round"/>
</g>
<defs>
<clipPath id="clip0_3754_37700">
<rect width="75" height="68" fill="white"/>
</clipPath>
</defs>
</svg>
