<svg width="113" height="106" viewBox="0 0 113 106" fill="none" xmlns="http://www.w3.org/2000/svg">
<circle cx="56" cy="53" r="50" fill="#141414"/>
<path fill-rule="evenodd" clip-rule="evenodd" d="M35.4215 10.272C34.465 9.71976 34.465 8.82433 35.4215 8.27205L38.1387 6.70328C39.0953 6.15099 40.6462 6.15099 41.6028 6.70328L54.3477 14.0615C54.4678 14.1309 54.5729 14.2057 54.6629 14.2845L91.8454 35.7518C93.7586 36.8564 95.3095 39.5427 95.3095 41.7518V51.9218C95.3099 51.9397 95.3101 51.9577 95.3101 51.9759V77.3949C95.3101 78.4995 94.5346 79.8426 93.5781 80.3949L90.7106 82.0505C89.754 82.6027 88.9786 82.155 88.9786 81.0505V64.2015L47.3274 40.1542C45.4143 39.0496 43.8633 36.3633 43.8633 34.1542L43.8633 15.1459L35.4215 10.272Z" fill="#C0C0C0"/>
<path d="M35.4215 8.27205L35.7965 8.92156L35.4215 8.27205ZM35.4215 10.272L35.7965 9.62253L35.4215 10.272ZM38.1387 6.70328L38.5137 7.35279L38.5137 7.35279L38.1387 6.70328ZM41.6028 6.70328L41.2278 7.3528L41.2278 7.3528L41.6028 6.70328ZM54.3477 14.0615L54.7227 13.412L54.7227 13.412L54.3477 14.0615ZM54.6629 14.2845L54.1686 14.8486L54.224 14.8972L54.2879 14.934L54.6629 14.2845ZM91.8454 35.7518L91.4704 36.4014L91.4704 36.4014L91.8454 35.7518ZM95.3095 51.9218H94.5595V51.9306L94.5597 51.9394L95.3095 51.9218ZM93.5781 80.3949L93.2031 79.7454L93.2031 79.7454L93.5781 80.3949ZM90.7106 82.0505L91.0856 82.7L91.0856 82.7L90.7106 82.0505ZM88.9786 64.2015H89.7286V63.7684L89.3536 63.5519L88.9786 64.2015ZM47.3274 40.1542L47.7024 39.5046L47.7024 39.5046L47.3274 40.1542ZM43.8633 34.1542L43.1133 34.1542V34.1542H43.8633ZM43.8633 15.1459L44.6133 15.1459L44.6133 14.7129L44.2383 14.4964L43.8633 15.1459ZM35.0465 7.62253C34.4316 7.97756 33.9541 8.54772 33.9541 9.27205C33.9541 9.99637 34.4316 10.5665 35.0465 10.9216L35.7965 9.62253C35.6309 9.5269 35.5415 9.43614 35.4972 9.37314C35.4555 9.31381 35.4541 9.28098 35.4541 9.27205C35.4541 9.26311 35.4555 9.23028 35.4972 9.17095C35.5415 9.10795 35.6309 9.01719 35.7965 8.92156L35.0465 7.62253ZM37.7637 6.05376L35.0465 7.62253L35.7965 8.92156L38.5137 7.35279L37.7637 6.05376ZM41.9778 6.05376C41.3587 5.6963 40.5944 5.53906 39.8708 5.53906C39.1471 5.53906 38.3829 5.6963 37.7637 6.05376L38.5137 7.35279C38.8512 7.15797 39.3407 7.03906 39.8708 7.03906C40.4009 7.03906 40.8904 7.15797 41.2278 7.3528L41.9778 6.05376ZM54.7227 13.412L41.9778 6.05376L41.2278 7.3528L53.9727 14.711L54.7227 13.412ZM55.1571 13.7204C55.0265 13.606 54.8807 13.5032 54.7227 13.412L53.9727 14.711C54.0549 14.7585 54.1192 14.8054 54.1686 14.8486L55.1571 13.7204ZM92.2204 35.1023L55.0379 13.635L54.2879 14.934L91.4704 36.4014L92.2204 35.1023ZM96.0595 41.7518C96.0595 40.4846 95.6196 39.1322 94.9444 37.9626C94.2691 36.793 93.3178 35.7359 92.2204 35.1023L91.4704 36.4014C92.2861 36.8723 93.0669 37.7106 93.6454 38.7126C94.2238 39.7146 94.5595 40.8099 94.5595 41.7518H96.0595ZM96.0595 51.9218V41.7518H94.5595V51.9218H96.0595ZM94.5597 51.9394C94.56 51.9513 94.5601 51.9634 94.5601 51.9759H96.0601C96.0601 51.9519 96.0598 51.928 96.0593 51.9042L94.5597 51.9394ZM94.5601 51.9759V77.3949H96.0601V51.9759H94.5601ZM94.5601 77.3949C94.5601 77.7846 94.4183 78.2679 94.1533 78.727C93.8882 79.1861 93.5405 79.5506 93.2031 79.7454L93.9531 81.0445C94.5722 80.687 95.0905 80.1037 95.4523 79.477C95.8141 78.8503 96.0601 78.1098 96.0601 77.3949H94.5601ZM93.2031 79.7454L90.3356 81.4009L91.0856 82.7L93.9531 81.0445L93.2031 79.7454ZM90.3356 81.4009C90.17 81.4966 90.0466 81.5287 89.97 81.5355C89.8977 81.5419 89.8686 81.5267 89.8609 81.5223C89.8531 81.5178 89.8254 81.5001 89.7949 81.4344C89.7624 81.3646 89.7286 81.2417 89.7286 81.0505H88.2286C88.2286 81.7605 88.4836 82.4591 89.1109 82.8213C89.7381 83.1835 90.4707 83.055 91.0856 82.7L90.3356 81.4009ZM89.7286 81.0505V64.2015H88.2286V81.0505H89.7286ZM46.9524 40.8037L88.6036 64.851L89.3536 63.5519L47.7024 39.5046L46.9524 40.8037ZM43.1133 34.1542C43.1133 35.4214 43.5531 36.7738 44.2284 37.9434C44.9037 39.113 45.855 40.1701 46.9524 40.8037L47.7024 39.5046C46.8867 39.0337 46.1059 38.1954 45.5274 37.1934C44.949 36.1914 44.6133 35.0961 44.6133 34.1542H43.1133ZM43.1133 15.1459L43.1133 34.1542L44.6133 34.1542L44.6133 15.1459L43.1133 15.1459ZM35.0465 10.9216L43.4883 15.7954L44.2383 14.4964L35.7965 9.62253L35.0465 10.9216Z" fill="#060606"/>
<mask id="mask0_3753_37769" style="mask-type:alpha" maskUnits="userSpaceOnUse" x="33" y="5" width="64" height="79">
<path fill-rule="evenodd" clip-rule="evenodd" d="M35.4215 10.272C34.465 9.71976 34.465 8.82433 35.4215 8.27205L38.1387 6.70328C39.0953 6.15099 40.6462 6.15099 41.6028 6.70328L54.3477 14.0615C54.4678 14.1309 54.5729 14.2057 54.6629 14.2845L91.8454 35.7518C93.7586 36.8564 95.3095 39.5427 95.3095 41.7518V51.9218C95.3099 51.9397 95.3101 51.9577 95.3101 51.9759V77.3602C95.3101 78.4647 94.5346 79.8079 93.5781 80.3602L90.7106 82.0157C89.754 82.568 88.9786 82.1203 88.9786 81.0157V64.2015L47.3274 40.1542C45.4143 39.0496 43.8633 36.3633 43.8633 34.1542L43.8633 15.1459L35.4215 10.272Z" fill="#C0C0C0"/>
<path d="M35.4215 8.27205L35.7965 8.92156L35.4215 8.27205ZM35.4215 10.272L35.7965 9.62253L35.4215 10.272ZM38.1387 6.70328L38.5137 7.35279L38.5137 7.35279L38.1387 6.70328ZM41.6028 6.70328L41.2278 7.3528L41.2278 7.3528L41.6028 6.70328ZM54.3477 14.0615L54.7227 13.412L54.7227 13.412L54.3477 14.0615ZM54.6629 14.2845L54.1686 14.8486L54.224 14.8972L54.2879 14.934L54.6629 14.2845ZM91.8454 35.7518L91.4704 36.4014L91.4704 36.4014L91.8454 35.7518ZM95.3095 51.9218H94.5595V51.9306L94.5597 51.9394L95.3095 51.9218ZM93.5781 80.3602L93.9531 81.0097L93.9531 81.0097L93.5781 80.3602ZM90.7106 82.0157L91.0856 82.6652L91.0856 82.6652L90.7106 82.0157ZM88.9786 64.2015H89.7286V63.7684L89.3536 63.5519L88.9786 64.2015ZM47.3274 40.1542L47.7024 39.5046L47.7024 39.5046L47.3274 40.1542ZM43.8633 34.1542L43.1133 34.1542V34.1542H43.8633ZM43.8633 15.1459L44.6133 15.1459L44.6133 14.7129L44.2383 14.4964L43.8633 15.1459ZM35.0465 7.62253C34.4316 7.97756 33.9541 8.54772 33.9541 9.27205C33.9541 9.99637 34.4316 10.5665 35.0465 10.9216L35.7965 9.62253C35.6309 9.5269 35.5415 9.43614 35.4972 9.37314C35.4555 9.31381 35.4541 9.28098 35.4541 9.27205C35.4541 9.26311 35.4555 9.23028 35.4972 9.17095C35.5415 9.10795 35.6309 9.01719 35.7965 8.92156L35.0465 7.62253ZM37.7637 6.05376L35.0465 7.62253L35.7965 8.92156L38.5137 7.35279L37.7637 6.05376ZM41.9778 6.05376C41.3587 5.6963 40.5944 5.53906 39.8708 5.53906C39.1471 5.53906 38.3829 5.6963 37.7637 6.05376L38.5137 7.35279C38.8512 7.15797 39.3407 7.03906 39.8708 7.03906C40.4009 7.03906 40.8904 7.15797 41.2278 7.3528L41.9778 6.05376ZM54.7227 13.412L41.9778 6.05376L41.2278 7.3528L53.9727 14.711L54.7227 13.412ZM55.1571 13.7204C55.0265 13.606 54.8807 13.5032 54.7227 13.412L53.9727 14.711C54.0549 14.7585 54.1192 14.8054 54.1686 14.8486L55.1571 13.7204ZM92.2204 35.1023L55.0379 13.635L54.2879 14.934L91.4704 36.4014L92.2204 35.1023ZM96.0595 41.7518C96.0595 40.4846 95.6196 39.1322 94.9444 37.9626C94.2691 36.793 93.3178 35.7359 92.2204 35.1023L91.4704 36.4014C92.2861 36.8723 93.0669 37.7106 93.6454 38.7126C94.2238 39.7146 94.5595 40.8099 94.5595 41.7518H96.0595ZM96.0595 51.9218V41.7518H94.5595V51.9218H96.0595ZM94.5597 51.9394C94.56 51.9513 94.5601 51.9634 94.5601 51.9759H96.0601C96.0601 51.9519 96.0598 51.928 96.0593 51.9042L94.5597 51.9394ZM94.5601 51.9759V77.3602H96.0601V51.9759H94.5601ZM94.5601 77.3602C94.5601 77.7498 94.4183 78.2332 94.1533 78.6923C93.8882 79.1514 93.5405 79.5158 93.2031 79.7106L93.9531 81.0097C94.5722 80.6522 95.0905 80.069 95.4523 79.4423C95.8141 78.8156 96.0601 78.0751 96.0601 77.3602H94.5601ZM93.2031 79.7106L90.3356 81.3662L91.0856 82.6652L93.9531 81.0097L93.2031 79.7106ZM90.3356 81.3662C90.17 81.4618 90.0466 81.4939 89.97 81.5007C89.8977 81.5071 89.8686 81.492 89.8609 81.4875C89.8531 81.483 89.8254 81.4654 89.7949 81.3996C89.7624 81.3298 89.7286 81.2069 89.7286 81.0157H88.2286C88.2286 81.7257 88.4836 82.4244 89.1109 82.7865C89.7381 83.1487 90.4707 83.0202 91.0856 82.6652L90.3356 81.3662ZM89.7286 81.0157V64.2015H88.2286V81.0157H89.7286ZM46.9524 40.8037L88.6036 64.851L89.3536 63.5519L47.7024 39.5046L46.9524 40.8037ZM43.1133 34.1542C43.1133 35.4214 43.5531 36.7738 44.2284 37.9434C44.9037 39.113 45.855 40.1701 46.9524 40.8037L47.7024 39.5046C46.8867 39.0337 46.1059 38.1954 45.5274 37.1934C44.949 36.1914 44.6133 35.0961 44.6133 34.1542H43.1133ZM43.1133 15.1459L43.1133 34.1542L44.6133 34.1542L44.6133 15.1459L43.1133 15.1459ZM35.0465 10.9216L43.4883 15.7954L44.2383 14.4964L35.7965 9.62253L35.0465 10.9216Z" fill="#060606"/>
</mask>
<g mask="url(#mask0_3753_37769)">
<rect width="10.4234" height="42.405" rx="2" transform="matrix(0.866025 -0.5 2.20305e-08 1 88.9795 42.7188)" fill="#717172"/>
</g>
<path d="M35.4215 8.27205L35.7965 8.92156L35.4215 8.27205ZM35.4215 10.272L35.7965 9.62253L35.4215 10.272ZM38.1387 6.70328L38.5137 7.35279L38.5137 7.35279L38.1387 6.70328ZM41.6028 6.70328L41.2278 7.3528L41.2278 7.3528L41.6028 6.70328ZM54.3477 14.0615L54.7227 13.412L54.7227 13.412L54.3477 14.0615ZM54.6629 14.2845L54.1686 14.8486L54.224 14.8972L54.2879 14.934L54.6629 14.2845ZM91.8454 35.7518L91.4704 36.4014L91.4704 36.4014L91.8454 35.7518ZM95.3095 51.9218H94.5595V51.9306L94.5597 51.9394L95.3095 51.9218ZM93.5781 81.3434L93.9531 81.9929L93.9531 81.9929L93.5781 81.3434ZM90.7106 82.9989L91.0856 83.6484L91.0856 83.6484L90.7106 82.9989ZM88.9786 64.2015H89.7286V63.7684L89.3536 63.5519L88.9786 64.2015ZM47.3274 40.1542L47.7024 39.5046L47.7024 39.5046L47.3274 40.1542ZM43.8633 34.1542L43.1133 34.1542V34.1542H43.8633ZM43.8633 15.1459L44.6133 15.1459L44.6133 14.7129L44.2383 14.4964L43.8633 15.1459ZM35.0465 7.62253C34.4316 7.97756 33.9541 8.54772 33.9541 9.27205C33.9541 9.99637 34.4316 10.5665 35.0465 10.9216L35.7965 9.62253C35.6309 9.5269 35.5415 9.43614 35.4972 9.37314C35.4555 9.31381 35.4541 9.28098 35.4541 9.27205C35.4541 9.26311 35.4555 9.23028 35.4972 9.17095C35.5415 9.10795 35.6309 9.01719 35.7965 8.92156L35.0465 7.62253ZM37.7637 6.05376L35.0465 7.62253L35.7965 8.92156L38.5137 7.35279L37.7637 6.05376ZM41.9778 6.05376C41.3587 5.6963 40.5944 5.53906 39.8708 5.53906C39.1471 5.53906 38.3829 5.6963 37.7637 6.05376L38.5137 7.35279C38.8512 7.15797 39.3407 7.03906 39.8708 7.03906C40.4009 7.03906 40.8904 7.15797 41.2278 7.3528L41.9778 6.05376ZM54.7227 13.412L41.9778 6.05376L41.2278 7.3528L53.9727 14.711L54.7227 13.412ZM55.1571 13.7204C55.0265 13.606 54.8807 13.5032 54.7227 13.412L53.9727 14.711C54.0549 14.7585 54.1192 14.8054 54.1686 14.8486L55.1571 13.7204ZM92.2204 35.1023L55.0379 13.635L54.2879 14.934L91.4704 36.4014L92.2204 35.1023ZM96.0595 41.7518C96.0595 40.4846 95.6196 39.1322 94.9444 37.9626C94.2691 36.793 93.3178 35.7359 92.2204 35.1023L91.4704 36.4014C92.2861 36.8723 93.0669 37.7106 93.6454 38.7126C94.2238 39.7146 94.5595 40.8099 94.5595 41.7518H96.0595ZM96.0595 51.9218V41.7518H94.5595V51.9218H96.0595ZM94.5597 51.9394C94.56 51.9513 94.5601 51.9634 94.5601 51.9759H96.0601C96.0601 51.9519 96.0598 51.928 96.0593 51.9042L94.5597 51.9394ZM94.5601 51.9759V78.3434H96.0601V51.9759H94.5601ZM94.5601 78.3434C94.5601 78.733 94.4183 79.2164 94.1533 79.6755C93.8882 80.1346 93.5405 80.499 93.2031 80.6939L93.9531 81.9929C94.5722 81.6354 95.0905 81.0522 95.4523 80.4255C95.8141 79.7988 96.0601 79.0583 96.0601 78.3434H94.5601ZM93.2031 80.6939L90.3356 82.3494L91.0856 83.6484L93.9531 81.9929L93.2031 80.6939ZM90.3356 82.3494C90.17 82.445 90.0466 82.4771 89.97 82.4839C89.8977 82.4904 89.8686 82.4752 89.8609 82.4707C89.8531 82.4662 89.8254 82.4486 89.7949 82.3828C89.7624 82.313 89.7286 82.1901 89.7286 81.9989H88.2286C88.2286 82.709 88.4836 83.4076 89.1109 83.7697C89.7381 84.1319 90.4707 84.0035 91.0856 83.6484L90.3356 82.3494ZM89.7286 81.9989V64.2015H88.2286V81.9989H89.7286ZM46.9524 40.8037L88.6036 64.851L89.3536 63.5519L47.7024 39.5046L46.9524 40.8037ZM43.1133 34.1542C43.1133 35.4214 43.5531 36.7738 44.2284 37.9434C44.9037 39.113 45.855 40.1701 46.9524 40.8037L47.7024 39.5046C46.8867 39.0337 46.1059 38.1954 45.5274 37.1934C44.949 36.1914 44.6133 35.0961 44.6133 34.1542H43.1133ZM43.1133 15.1459L43.1133 34.1542L44.6133 34.1542L44.6133 15.1459L43.1133 15.1459ZM35.0465 10.9216L43.4883 15.7954L44.2383 14.4964L35.7965 9.62253L35.0465 10.9216Z" fill="#060606"/>
<path d="M33.6943 10.0996C33.6943 8.44276 34.8575 7.77118 36.2924 8.59961L88.3721 38.6678C89.8069 39.4962 90.9701 41.511 90.9701 43.1678L90.9701 80.9299C90.9701 83.6913 89.0315 84.8106 86.64 83.4299L36.2924 54.3617C34.8575 53.5333 33.6943 51.5186 33.6943 49.8617L33.6943 10.0996Z" fill="#C0C0C0" stroke="#060606" stroke-width="1.5"/>
<path d="M33.6943 10.0996C33.6943 8.44276 34.8575 7.77118 36.2924 8.59961L88.3721 38.6678C89.8069 39.4962 90.9701 41.511 90.9701 43.1678L90.9701 64.201L33.6943 31.1328L33.6943 10.0996Z" fill="#060606" stroke="#060606" stroke-width="1.5"/>
<path d="M25.1934 19.4219C25.1934 17.765 26.3566 17.0934 27.7914 17.9219L79.8711 47.9901C81.306 48.8185 82.4692 50.8332 82.4692 52.4901L82.4692 90.2522C82.4692 93.0136 80.5305 94.1329 78.139 92.7522L27.7914 63.684C26.3566 62.8556 25.1934 60.8408 25.1934 59.184L25.1934 19.4219Z" fill="#141414" stroke="#060606" stroke-width="1.5"/>
<path d="M25.1934 39.4473L82.4692 72.5155L82.4692 90.2545C82.4692 93.0159 80.5305 94.1352 78.139 92.7545L27.7914 63.6863C26.3566 62.8579 25.1934 60.8432 25.1934 59.1863L25.1934 39.4473Z" fill="#71A407" stroke="#060606" stroke-width="1.5"/>
<path d="M16.6904 23.8809C16.6904 22.224 17.8536 21.5524 19.2885 22.3809L71.3682 52.4491C72.803 53.2775 73.9662 55.2922 73.9662 56.9491L73.9662 94.7112C73.9662 97.4726 72.0276 98.5919 69.6361 97.2112L19.2885 68.143C17.8536 67.3145 16.6904 65.2998 16.6904 63.643L16.6904 23.8809Z" fill="white" stroke="#060606" stroke-width="1.5"/>
<path d="M16.6904 42.168L73.9662 75.2362L73.9662 94.71C73.9662 97.4714 72.0276 98.5907 69.6361 97.21L19.2885 68.1418C17.8536 67.3133 16.6904 65.2986 16.6904 63.6418L16.6904 42.168Z" fill="#B0F127" stroke="#060606" stroke-width="1.5"/>
<circle r="5.73415" transform="matrix(0.866025 0.5 -2.20305e-08 1 55.9894 77.3336)" fill="white"/>
<circle r="5.73415" transform="matrix(0.866025 0.5 -2.20305e-08 1 61.8829 80.734)" fill="#060606"/>
</svg>
