<svg width="429" height="887" viewBox="0 0 429 887" fill="none" xmlns="http://www.w3.org/2000/svg">
<rect x="0.649519" y="0.375" width="461.173" height="634.727" rx="39.25" transform="matrix(0.866025 -0.5 2.20305e-08 1 0.0870191 231.661)" fill="#141414" stroke="#060606" stroke-width="1.5"/>
<mask id="mask0_3754_36585" style="mask-type:alpha" maskUnits="userSpaceOnUse" x="0" y="15" width="401" height="838">
<rect x="0.649519" y="0.375" width="461.173" height="634.727" rx="39.25" transform="matrix(0.866025 -0.5 2.20305e-08 1 0.0870191 231.661)" fill="#B0F127" stroke="#060606" stroke-width="1.5"/>
</mask>
<g mask="url(#mask0_3754_36585)">
<rect width="188.636" height="551.969" transform="matrix(0.866025 0.5 -2.20305e-08 1 -81.209 199.787)" fill="#060606"/>
</g>
<rect width="15.3877" height="64.8605" rx="7.69387" transform="matrix(0.866025 0.5 -2.20305e-08 1 8.17383 360.27)" fill="#2F2F2F" stroke="#060606" stroke-width="1.5"/>
<rect width="15.3877" height="110.422" rx="7.69387" transform="matrix(0.866025 0.5 -2.20305e-08 1 8.17383 449.77)" fill="#2F2F2F" stroke="#060606" stroke-width="1.5"/>
<path d="M8.17383 503.615L21.5 511.309L21.5 560.193C21.5 564.442 18.5168 566.164 14.8369 564.04V564.04C11.157 561.915 8.17383 556.748 8.17383 552.499L8.17383 503.615Z" fill="#2F2F2F" stroke="#060606" stroke-width="1.5"/>
<rect x="0.649519" y="0.375" width="461.173" height="634.727" rx="39.25" transform="matrix(0.866025 -0.5 2.20305e-08 1 0.0870191 231.661)" stroke="#060606" stroke-width="1.5"/>
<rect x="0.649519" y="0.375" width="461.173" height="634.727" rx="39.25" transform="matrix(0.866025 -0.5 2.20305e-08 1 28.087 250.661)" fill="white" stroke="#060606" stroke-width="1.5"/>
<path d="M179.804 299.017L179.804 278.857L187.176 274.601C187.346 274.503 187.572 274.382 187.855 274.237C188.146 274.079 188.405 273.957 188.631 273.873C189.674 273.458 190.526 273.362 191.189 273.586C191.86 273.806 192.353 274.286 192.668 275.028C192.984 275.761 193.141 276.692 193.141 277.821C193.141 278.951 192.98 280.071 192.656 281.181C192.341 282.278 191.848 283.323 191.177 284.317C190.514 285.307 189.666 286.193 188.631 286.977C188.405 287.145 188.146 287.323 187.855 287.509C187.564 287.696 187.338 287.836 187.176 287.929L183.102 290.281L183.102 297.113L179.804 299.017ZM183.102 286.725L187.031 284.457C187.2 284.359 187.386 284.243 187.588 284.107C187.79 283.972 187.976 283.827 188.146 283.673C188.591 283.277 188.934 282.845 189.177 282.378C189.419 281.902 189.585 281.438 189.674 280.985C189.771 280.519 189.819 280.103 189.819 279.739C189.819 279.375 189.771 279.021 189.674 278.675C189.585 278.316 189.419 278.043 189.177 277.856C188.934 277.66 188.591 277.621 188.146 277.737C187.976 277.779 187.79 277.849 187.588 277.947C187.386 278.045 187.2 278.143 187.031 278.241L183.102 280.509L183.102 286.725ZM200.647 287.404C199.33 288.164 198.174 288.491 197.18 288.384C196.186 288.276 195.41 287.786 194.852 286.914C194.302 286.027 194.028 284.804 194.028 283.246C194.028 281.668 194.31 280.119 194.876 278.598C195.442 277.067 196.222 275.679 197.216 274.433C198.21 273.187 199.354 272.19 200.647 271.444C201.965 270.683 203.121 270.356 204.115 270.464C205.117 270.566 205.897 271.059 206.455 271.941C207.013 272.813 207.292 274.029 207.292 275.588C207.292 277.156 207.009 278.705 206.443 280.236C205.885 281.752 205.105 283.141 204.103 284.401C203.109 285.647 201.957 286.648 200.647 287.404ZM200.647 283.848C201.706 283.236 202.494 282.371 203.012 281.251C203.537 280.117 203.8 278.901 203.8 277.604C203.8 276.26 203.533 275.34 203 274.846C202.474 274.346 201.69 274.398 200.647 275C199.928 275.415 199.338 275.942 198.877 276.582C198.417 277.221 198.073 277.937 197.847 278.731C197.628 279.519 197.519 280.352 197.519 281.23C197.519 282.583 197.782 283.509 198.307 284.009C198.841 284.494 199.621 284.44 200.647 283.848ZM209.374 281.945L209.374 266.825L212.284 265.145L212.284 268.841L211.969 268.547C212.138 267.927 212.365 267.32 212.648 266.727C212.93 266.135 213.278 265.579 213.69 265.061C214.005 264.655 214.349 264.284 214.721 263.948C215.093 263.603 215.477 263.302 215.873 263.045C216.269 262.779 216.665 262.56 217.061 262.387L217.061 265.943C216.697 266.023 216.273 266.226 215.788 266.552C215.311 266.865 214.878 267.241 214.49 267.679C214.102 268.109 213.775 268.573 213.508 269.072C213.242 269.562 213.04 270.08 212.902 270.626C212.765 271.163 212.696 271.721 212.696 272.299L212.696 280.027L209.374 281.945ZM226.64 271.977C225.735 272.696 224.845 273.293 223.972 273.769C223.108 274.25 222.332 274.525 221.645 274.595C220.966 274.651 220.448 274.413 220.093 273.881C219.769 273.377 219.6 272.775 219.583 272.075C219.567 271.366 219.559 270.558 219.559 269.653L219.559 256.745L222.857 254.841L222.857 267.525C222.857 268.113 222.861 268.643 222.869 269.114C222.885 269.571 222.97 269.896 223.124 270.087C223.415 270.451 223.88 270.472 224.518 270.15C225.157 269.828 225.864 269.382 226.64 268.813L226.64 271.977ZM217.328 265.173L217.328 262.233L226.64 256.857L226.64 259.797L217.328 265.173ZM230.065 269.999L230.065 254.935C230.065 254.553 230.073 254.114 230.089 253.619C230.106 253.125 230.17 252.597 230.283 252.037C230.405 251.473 230.623 250.899 230.938 250.315C231.342 249.559 231.779 248.953 232.248 248.495C232.724 248.024 233.185 247.655 233.63 247.389C234.074 247.114 234.454 246.885 234.769 246.703L236.394 245.765L236.394 248.845L234.891 249.713C234.373 250.012 233.989 250.388 233.739 250.84C233.488 251.284 233.363 251.715 233.363 252.135L233.363 268.095L230.065 269.999ZM228.004 259.009L228.004 256.069L236.394 251.225L236.394 254.165L228.004 259.009ZM243.163 262.858C241.845 263.618 240.689 263.945 239.695 263.838C238.701 263.73 237.925 263.24 237.367 262.368C236.818 261.481 236.543 260.258 236.543 258.7C236.543 257.122 236.826 255.573 237.392 254.052C237.957 252.521 238.737 251.133 239.732 249.887C240.726 248.641 241.869 247.644 243.163 246.898C244.48 246.137 245.636 245.81 246.63 245.918C247.633 246.02 248.413 246.513 248.97 247.395C249.528 248.267 249.807 249.483 249.807 251.042C249.807 252.61 249.524 254.159 248.958 255.69C248.4 257.206 247.62 258.595 246.618 259.855C245.624 261.101 244.472 262.102 243.163 262.858ZM243.163 259.302C244.222 258.69 245.01 257.825 245.527 256.705C246.052 255.571 246.315 254.355 246.315 253.058C246.315 251.714 246.048 250.794 245.515 250.3C244.989 249.8 244.205 249.852 243.163 250.454C242.443 250.869 241.853 251.396 241.393 252.036C240.932 252.675 240.588 253.391 240.362 254.185C240.144 254.973 240.035 255.806 240.035 256.684C240.035 258.037 240.297 258.963 240.823 259.463C241.356 259.948 242.136 259.894 243.163 259.302ZM252.132 257.259L252.132 236.679L255.43 234.775L255.43 255.355L252.132 257.259ZM258.723 236.234L258.723 232.874L262.021 230.97L262.021 234.33L258.723 236.234ZM258.723 253.454L258.723 238.334L262.021 236.43L262.021 251.55L258.723 253.454ZM270.964 246.806C269.647 247.567 268.491 247.894 267.497 247.786C266.503 247.679 265.727 247.189 265.169 246.316C264.619 245.43 264.344 244.207 264.344 242.648C264.344 241.071 264.627 239.522 265.193 238C265.759 236.47 266.539 235.081 267.533 233.835C268.527 232.589 269.671 231.593 270.964 230.846C272.282 230.086 273.438 229.759 274.432 229.866C275.434 229.969 276.214 230.461 276.772 231.343C277.33 232.216 277.608 233.432 277.608 234.99C277.608 236.558 277.326 238.108 276.76 239.638C276.202 241.155 275.422 242.543 274.42 243.803C273.426 245.049 272.274 246.05 270.964 246.806ZM270.964 243.25C272.023 242.639 272.811 241.773 273.329 240.653C273.854 239.519 274.117 238.304 274.117 237.006C274.117 235.662 273.85 234.743 273.316 234.248C272.791 233.749 272.007 233.8 270.964 234.402C270.245 234.818 269.655 235.345 269.194 235.984C268.733 236.624 268.39 237.34 268.164 238.133C267.945 238.922 267.836 239.755 267.836 240.632C267.836 241.986 268.099 242.912 268.624 243.411C269.158 243.897 269.938 243.843 270.964 243.25Z" fill="#060606"/>
<path d="M75.0562 357.994C80.0782 355.095 84.1494 348.043 84.1494 342.244C84.1494 336.445 80.0782 334.095 75.0562 336.994C70.0341 339.894 65.9629 346.945 65.9629 352.744C65.9629 358.543 70.0341 360.894 75.0562 357.994Z" stroke="#060606" stroke-width="2" stroke-linecap="round" stroke-linejoin="round"/>
<path d="M81.4863 351.207L86.7474 354.245" stroke="#060606" stroke-width="2" stroke-linejoin="round"/>
<path d="M362.801 170.865L390.72 154.746" stroke="#060606" stroke-width="2"/>
<path d="M362.801 182.115L390.72 165.996" stroke="#060606" stroke-width="2"/>
<path d="M374.678 186.508L390.719 177.246" stroke="#060606" stroke-width="2"/>
<rect x="0.649519" y="0.375" width="101.483" height="31.9944" rx="15.9972" transform="matrix(0.866025 -0.5 2.20305e-08 1 183.837 200.141)" fill="#060606" stroke="#060606" stroke-width="1.5"/>
<circle r="10.1026" transform="matrix(0.866025 -0.5 2.20305e-08 1 257.245 173.137)" fill="white"/>
<path d="M66.6231 270.962C67.7665 270.302 68.7963 270.021 69.7126 270.119C70.6289 270.208 71.3506 270.653 71.8777 271.453C72.4129 272.24 72.6805 273.349 72.6805 274.782L72.6805 280.948C72.6805 282.474 72.4129 283.963 71.8777 285.414C71.3506 286.851 70.6087 288.155 69.6518 289.326C68.695 290.496 67.5759 291.451 66.2947 292.191C65.4109 292.701 64.5756 293.01 63.7891 293.118C63.0025 293.216 62.297 293.08 61.6727 292.71L63.7769 289.122C64.0932 289.361 64.4702 289.475 64.9081 289.466C65.3541 289.443 65.8163 289.293 66.2947 289.017C66.9759 288.623 67.5719 288.097 68.0827 287.437C68.5936 286.767 68.9909 286.055 69.2747 285.302C69.5586 284.539 69.7005 283.815 69.7005 283.132L69.7005 279.775L70.2235 280.147C69.7288 281.107 69.1288 281.982 68.4233 282.774C67.7178 283.555 66.9759 284.171 66.1974 284.621C65.1027 285.253 64.1297 285.524 63.2782 285.435C62.4349 285.342 61.77 284.939 61.2834 284.227C60.805 283.502 60.5658 282.507 60.5658 281.243C60.5658 279.979 60.8415 278.677 61.3929 277.338C61.9443 275.99 62.6782 274.752 63.5945 273.623C64.5189 272.481 65.5284 271.594 66.6231 270.962ZM66.6231 274.192C66.0555 274.52 65.5365 274.979 65.0662 275.569C64.5959 276.158 64.2229 276.804 63.9472 277.507C63.6715 278.2 63.5337 278.874 63.5337 279.529C63.5337 280.185 63.6674 280.707 63.935 281.095C64.2107 281.479 64.5797 281.697 65.0419 281.748C65.5122 281.795 66.0312 281.655 66.5988 281.327C67.1664 280.999 67.6854 280.54 68.1557 279.951C68.626 279.361 68.999 278.715 69.2747 278.012C69.5586 277.305 69.7005 276.624 69.7005 275.969C69.7005 275.332 69.5626 274.826 69.2869 274.452C69.0112 274.068 68.6382 273.848 68.1679 273.792C67.7057 273.731 67.1908 273.864 66.6231 274.192ZM76.4656 284.071L76.4656 280.602L79.4699 278.868L79.4699 282.337L76.4656 284.071ZM76.4899 276.01L76.4899 272.541L79.4942 270.806L79.4942 274.275L76.4899 276.01ZM90.5209 277.782L90.5209 274.44L82.7606 278.92L82.7606 275.76L88.3679 258.801L91.7129 256.869L86.1056 273.829L90.5209 271.28L90.5209 266.013L93.4887 264.299L93.4887 269.566L95.1308 268.618L95.1308 271.778L93.4887 272.726L93.4887 276.069L90.5209 277.782ZM100.504 272.018L100.504 255.487L97.2204 259.701L97.2204 255.965L100.504 251.794L103.497 250.066L103.497 270.291L100.504 272.018Z" fill="#060606"/>
<path opacity="0.35" d="M379.148 89.5058L393.572 81.1781C396.374 79.5601 398.646 80.8718 398.646 84.1078L398.646 92.3696C398.646 95.6057 396.374 99.5407 393.572 101.159L379.148 109.486C376.345 111.104 374.073 109.793 374.073 106.557L374.073 98.295C374.073 95.0589 376.345 91.1239 379.148 89.5058Z" stroke="#060606" stroke-width="1.5"/>
<path opacity="0.4" d="M400.332 84.7871L400.332 91.7606C401.211 90.6627 401.782 88.9589 401.782 87.4367C401.782 85.9145 401.211 84.8704 400.332 84.7871" fill="#060606"/>
<path d="M375.494 97.4746C375.494 95.6495 376.775 93.4301 378.356 92.5176L394.365 83.2751C395.945 82.3625 397.226 83.1023 397.226 84.9275L397.226 93.1892C397.226 95.0144 395.945 97.2337 394.365 98.1463L378.356 107.389C376.775 108.301 375.494 107.562 375.494 105.736L375.494 97.4746Z" fill="#060606"/>
<path fill-rule="evenodd" clip-rule="evenodd" d="M357.381 107.249C359.933 105.776 362.388 105.957 364.238 107.755C364.378 107.896 364.6 107.765 364.738 107.461L366.069 104.502C366.139 104.348 366.177 104.171 366.177 104.01C366.176 103.85 366.136 103.719 366.066 103.647C361.211 98.8668 353.55 103.289 348.695 113.677C348.625 113.83 348.585 114.007 348.584 114.168C348.583 114.329 348.622 114.461 348.691 114.535L350.023 115.956C350.161 116.102 350.383 115.976 350.523 115.674C352.373 111.739 354.828 108.723 357.381 107.249ZM357.418 113.975C358.821 113.165 360.173 113.234 361.213 114.168C361.354 114.304 361.575 114.172 361.712 113.869L363.042 110.911C363.112 110.755 363.151 110.577 363.15 110.416C363.149 110.254 363.108 110.123 363.037 110.052C359.871 107.08 354.968 109.911 351.803 116.538C351.731 116.692 351.69 116.87 351.689 117.033C351.689 117.195 351.728 117.328 351.798 117.403L353.127 118.825C353.265 118.97 353.486 118.847 353.627 118.548C354.666 116.415 356.017 114.785 357.418 113.975ZM360.122 116.829C360.124 116.99 360.085 117.169 360.014 117.324L357.713 122.436C357.646 122.587 357.554 122.702 357.458 122.758C357.362 122.813 357.27 122.804 357.202 122.731L354.901 120.276C354.83 120.203 354.791 120.069 354.793 119.905C354.795 119.741 354.838 119.563 354.912 119.411C356.382 116.537 358.534 115.295 360.003 116.472C360.077 116.538 360.12 116.667 360.122 116.829Z" fill="#060606"/>
<path d="M332.026 122.572C332.026 121.659 332.49 120.652 333.061 120.322L334.096 119.725C334.668 119.395 335.131 119.867 335.131 120.78L335.131 133.998C335.131 134.911 334.668 135.918 334.096 136.248L333.061 136.846C332.49 137.176 332.026 136.703 332.026 135.791L332.026 122.572Z" fill="#060606"/>
<path d="M337.201 116.28C337.201 115.367 337.664 114.36 338.236 114.03L339.271 113.433C339.842 113.103 340.305 113.575 340.305 114.487L340.305 131.011C340.305 131.924 339.842 132.931 339.271 133.261L338.236 133.858C337.664 134.188 337.201 133.716 337.201 132.803L337.201 116.28Z" fill="#060606"/>
<path d="M326.852 131.343C326.852 130.43 327.315 129.423 327.887 129.093L328.922 128.495C329.493 128.165 329.957 128.638 329.957 129.55L329.957 136.986C329.957 137.898 329.493 138.906 328.922 139.236L327.887 139.833C327.315 140.163 326.852 139.691 326.852 138.778L326.852 131.343Z" fill="#060606"/>
<path d="M321.678 138.461C321.678 137.548 322.141 136.541 322.713 136.211L323.747 135.614C324.319 135.284 324.782 135.756 324.782 136.669L324.782 139.973C324.782 140.886 324.319 141.893 323.747 142.223L322.713 142.821C322.141 143.151 321.678 142.678 321.678 141.766L321.678 138.461Z" fill="#060606"/>
<path d="M370.909 392.656C370.909 469.332 317.079 562.568 250.676 600.906C184.273 639.244 130.443 608.165 130.443 531.489C130.443 454.814 184.273 361.577 250.676 323.24C317.079 284.902 370.909 315.981 370.909 392.656ZM160.502 514.135C160.502 571.642 200.874 594.951 250.676 566.198C300.478 537.444 340.851 467.517 340.851 410.01C340.851 352.504 300.478 329.195 250.676 357.948C200.874 386.701 160.502 456.629 160.502 514.135Z" fill="#060606"/>
<mask id="path-24-inside-1_3754_36585" fill="white">
<path d="M384.04 402.5C384.04 479.175 330.21 572.412 263.807 610.75C197.404 649.087 143.574 618.008 143.574 541.333C143.574 464.658 197.404 371.421 263.807 333.083C330.21 294.746 384.04 325.825 384.04 402.5ZM173.632 523.979C173.632 581.485 214.005 604.795 263.807 576.041C313.609 547.288 353.982 477.361 353.982 419.854C353.982 362.348 313.609 339.038 263.807 367.792C214.005 396.545 173.632 466.472 173.632 523.979Z"/>
</mask>
<path d="M384.04 402.5C384.04 479.175 330.21 572.412 263.807 610.75C197.404 649.087 143.574 618.008 143.574 541.333C143.574 464.658 197.404 371.421 263.807 333.083C330.21 294.746 384.04 325.825 384.04 402.5ZM173.632 523.979C173.632 581.485 214.005 604.795 263.807 576.041C313.609 547.288 353.982 477.361 353.982 419.854C353.982 362.348 313.609 339.038 263.807 367.792C214.005 396.545 173.632 466.472 173.632 523.979Z" fill="#141414" stroke="#060606" stroke-width="3" mask="url(#path-24-inside-1_3754_36585)"/>
<path d="M314.965 548.53C319.001 554.575 328.222 552.345 334.916 542.812C350.959 519.962 363.899 494.458 372.479 468.576C383.212 436.2 386.584 404.853 382.125 378.924C377.666 352.996 365.597 333.784 347.61 323.98C329.623 314.177 306.618 314.272 281.817 324.252C257.016 334.232 231.661 353.598 209.302 379.637C186.944 405.676 168.702 437.085 157.131 469.464C145.559 501.844 141.239 533.572 144.774 560.207C147.6 581.499 155.334 598.683 167.172 610.314C172.111 615.166 181.712 609.821 187.716 599.736V599.736C193.719 589.652 193.815 578.674 189.159 573.429C181.504 564.804 176.474 552.762 174.533 538.134C171.881 518.158 175.121 494.362 183.8 470.077C192.478 445.793 206.16 422.236 222.929 402.707C239.698 383.177 258.714 368.653 277.315 361.168C295.916 353.683 313.169 353.612 326.66 360.964C340.15 368.317 349.201 382.726 352.545 402.172C355.89 421.619 353.36 445.129 345.311 469.411C339.417 487.192 330.779 504.735 320.121 520.728C313.638 530.456 310.928 542.485 314.965 548.53V548.53Z" fill="white"/>
<path d="M163.191 454.004C176.495 422.84 195.649 393.506 218.128 369.866C240.607 346.227 265.356 329.393 289.113 321.583C312.87 313.773 334.52 315.354 351.208 326.117C367.896 336.88 378.839 356.321 382.595 381.876L352.898 404.386C350.081 385.22 341.874 370.639 329.358 362.567C316.842 354.495 300.605 353.309 282.787 359.166C264.969 365.024 246.407 377.649 229.548 395.379C212.688 413.108 198.323 435.109 188.345 458.482L163.191 454.004Z" fill="#141414"/>
<path d="M245.731 345.098C221.17 363.591 198.368 389.748 180.462 419.972C162.556 450.196 150.424 483.003 145.735 513.882C141.046 544.76 144.03 572.195 154.276 592.413C164.522 612.631 181.528 624.64 202.955 626.788L218.168 588.07C202.098 586.459 189.344 577.452 181.659 562.289C173.974 547.125 171.736 526.549 175.253 503.39C178.77 480.231 187.869 455.626 201.298 432.958C214.728 410.29 231.829 390.672 250.25 376.802L245.731 345.098Z" fill="#B0F127"/>
<mask id="path-28-inside-2_3754_36585" fill="white">
<path d="M384.04 402.5C384.04 479.175 330.21 572.412 263.807 610.75C197.404 649.087 143.574 618.008 143.574 541.333C143.574 464.658 197.404 371.421 263.807 333.083C330.21 294.746 384.04 325.825 384.04 402.5ZM173.632 523.979C173.632 581.485 214.005 604.795 263.807 576.041C313.609 547.288 353.982 477.361 353.982 419.854C353.982 362.348 313.609 339.038 263.807 367.792C214.005 396.545 173.632 466.472 173.632 523.979Z"/>
</mask>
<path d="M384.04 402.5C384.04 479.175 330.21 572.412 263.807 610.75C197.404 649.087 143.574 618.008 143.574 541.333C143.574 464.658 197.404 371.421 263.807 333.083C330.21 294.746 384.04 325.825 384.04 402.5ZM173.632 523.979C173.632 581.485 214.005 604.795 263.807 576.041C313.609 547.288 353.982 477.361 353.982 419.854C353.982 362.348 313.609 339.038 263.807 367.792C214.005 396.545 173.632 466.472 173.632 523.979Z" stroke="#060606" stroke-width="3" mask="url(#path-28-inside-2_3754_36585)"/>
</svg>
