<svg width="342" height="342" viewBox="0 0 342 342" fill="none" xmlns="http://www.w3.org/2000/svg">
<rect width="342" height="342" fill="#141414"/>
<path d="M0.508789 137.359H341.214" stroke="#2F2F2F" stroke-width="0.666144" stroke-dasharray="7.77 7.77"/>
<path d="M0.508789 190.586H341.214" stroke="#2F2F2F" stroke-width="0.666144" stroke-dasharray="7.77 7.77"/>
<path d="M0.508789 243.811H341.214" stroke="#2F2F2F" stroke-width="0.666144" stroke-dasharray="7.77 7.77"/>
<path d="M0.508789 297.037H341.214" stroke="#2F2F2F" stroke-width="0.666144" stroke-dasharray="7.77 7.77"/>
<path d="M70.8545 297.037L70.8545 137.358" stroke="#2F2F2F" stroke-width="0.666144"/>
<path d="M171 297.037L171 137.358" stroke="#2F2F2F" stroke-width="0.666144"/>
<path d="M271.146 297.037L271.146 137.358" stroke="#2F2F2F" stroke-width="0.666144"/>
<rect x="27.7038" y="34.6325" width="31.1453" height="31.1453" rx="15.5727" stroke="white" stroke-width="0.663493"/>
<path d="M49.4273 48.6478C49.6773 46.9766 48.4049 46.0782 46.665 45.4789L47.2294 43.2151L45.8514 42.8717L45.302 45.0758C44.9397 44.9856 44.5676 44.9004 44.1979 44.816L44.7513 42.5973L43.3741 42.2539L42.8093 44.5169C42.5095 44.4486 42.2151 44.3811 41.9294 44.3101L41.931 44.303L40.0306 43.8285L39.664 45.3003C39.664 45.3003 40.6864 45.5346 40.6648 45.5492C41.2229 45.6885 41.3238 46.0578 41.3069 46.3506L40.664 48.9296C40.7025 48.9394 40.7523 48.9535 40.8073 48.9755C40.7614 48.9641 40.7123 48.9515 40.6617 48.9394L39.7605 52.5521C39.6923 52.7217 39.5192 52.976 39.1291 52.8795C39.1428 52.8995 38.1274 52.6295 38.1274 52.6295L37.4434 54.2068L39.2366 54.6539C39.5702 54.7375 39.8971 54.825 40.219 54.9074L39.6487 57.1971L41.0251 57.5405L41.5899 55.2752C41.9659 55.3772 42.3309 55.4714 42.688 55.5601L42.1252 57.8149L43.5032 58.1583L44.0735 55.8729C46.4233 56.3176 48.1902 56.1382 48.9339 54.013C49.5333 52.3017 48.9041 51.3147 47.6678 50.671C48.5682 50.4634 49.2464 49.8711 49.4273 48.6478V48.6478ZM46.2788 53.0628C45.853 54.774 42.9718 53.8489 42.0377 53.6169L42.7944 50.5835C43.7285 50.8166 46.7239 51.2782 46.2788 53.0628V53.0628ZM46.7051 48.623C46.3165 50.1796 43.9185 49.3888 43.1406 49.1949L43.8266 46.4436C44.6045 46.6375 47.1097 46.9994 46.7051 48.623V48.623Z" fill="#F4F4F4"/>
<path d="M69.3879 46.6348V37.0805H73.1764C73.8222 37.0805 74.3508 37.211 74.7622 37.4719C75.178 37.7285 75.4854 38.058 75.6844 38.4605C75.8879 38.863 75.9896 39.2788 75.9896 39.7079C75.9896 40.2343 75.8636 40.681 75.6114 41.0482C75.3637 41.4153 75.0254 41.663 74.5963 41.7913V41.4595C75.1979 41.5966 75.6535 41.8819 75.9631 42.3154C76.2771 42.7489 76.4342 43.2421 76.4342 43.795C76.4342 44.3612 76.3258 44.8566 76.1091 45.2812C75.8923 45.7059 75.5694 46.0376 75.1404 46.2765C74.7157 46.5153 74.1894 46.6348 73.5612 46.6348H69.3879ZM71.0068 45.1286H73.3622C73.6409 45.1286 73.8908 45.0733 74.1119 44.9628C74.3331 44.8478 74.5056 44.6885 74.6295 44.485C74.7577 44.2772 74.8219 44.0317 74.8219 43.7486C74.8219 43.492 74.7666 43.262 74.656 43.0585C74.5454 42.8551 74.384 42.6936 74.1717 42.5742C73.9593 42.4503 73.705 42.3884 73.4086 42.3884H71.0068V45.1286ZM71.0068 40.8955H73.1565C73.3865 40.8955 73.5922 40.8513 73.7736 40.7629C73.9549 40.6744 74.0987 40.5439 74.2048 40.3714C74.311 40.1989 74.3641 39.9866 74.3641 39.7344C74.3641 39.4027 74.2579 39.1262 74.0456 38.9051C73.8333 38.6839 73.5369 38.5733 73.1565 38.5733H71.0068V40.8955ZM77.892 38.3809V36.9146H79.491V38.3809H77.892ZM77.892 46.6348V39.469H79.491V46.6348H77.892ZM85.6784 46.6348C85.2051 46.7232 84.7407 46.7608 84.2851 46.7476C83.8339 46.7387 83.4292 46.6569 83.0709 46.5021C82.7126 46.3428 82.4405 46.0929 82.2548 45.7523C82.0911 45.4427 82.0049 45.1264 81.996 44.8035C81.9872 44.4806 81.9827 44.1157 81.9827 43.7088V37.4786H83.5751V43.6159C83.5751 43.9034 83.5773 44.1555 83.5818 44.3723C83.5906 44.589 83.637 44.7659 83.7211 44.903C83.8803 45.1684 84.1347 45.3166 84.4841 45.3476C84.8335 45.3786 85.2316 45.3609 85.6784 45.2945V46.6348ZM80.6823 40.723V39.469H85.6784V40.723H80.6823ZM89.9682 46.8338C89.2295 46.8338 88.5992 46.6702 88.0772 46.3428C87.5553 46.0111 87.155 45.5599 86.8763 44.9893C86.6021 44.4187 86.4627 43.7729 86.4583 43.0519C86.4627 42.3176 86.6065 41.6674 86.8896 41.1012C87.1771 40.5306 87.584 40.0839 88.1104 39.761C88.6368 39.4337 89.2627 39.27 89.9881 39.27C90.802 39.27 91.4898 39.4757 92.0516 39.887C92.6177 40.294 92.9871 40.8513 93.1596 41.559L91.5672 41.9903C91.4434 41.6055 91.2377 41.3069 90.9502 41.0946C90.6626 40.8779 90.3353 40.7695 89.9682 40.7695C89.5524 40.7695 89.2096 40.869 88.9398 41.0681C88.67 41.2627 88.4709 41.5325 88.3426 41.8775C88.2144 42.2225 88.1502 42.614 88.1502 43.0519C88.1502 43.7331 88.3028 44.2838 88.608 44.704C88.9132 45.1242 89.3666 45.3343 89.9682 45.3343C90.3928 45.3343 90.7268 45.237 90.9701 45.0424C91.2178 44.8478 91.4035 44.5669 91.5274 44.1997L93.1596 44.5647C92.9384 45.2945 92.5514 45.8563 91.9985 46.2499C91.4456 46.6392 90.7688 46.8338 89.9682 46.8338ZM97.4596 46.8338C96.7431 46.8338 96.1172 46.6724 95.582 46.3495C95.0467 46.0266 94.631 45.582 94.3346 45.0158C94.0427 44.4452 93.8967 43.7906 93.8967 43.0519C93.8967 42.2999 94.0471 41.6409 94.3479 41.0747C94.6486 40.5085 95.0667 40.0662 95.6019 39.7477C96.1371 39.4292 96.7563 39.27 97.4596 39.27C98.1806 39.27 98.8088 39.4314 99.344 39.7543C99.8792 40.0772 100.295 40.524 100.591 41.0946C100.888 41.6608 101.036 42.3132 101.036 43.0519C101.036 43.795 100.885 44.4519 100.585 45.0225C100.288 45.5887 99.8726 46.0332 99.3373 46.3561C98.8021 46.6746 98.1762 46.8338 97.4596 46.8338ZM97.4596 45.3343C98.0966 45.3343 98.5699 45.122 98.8795 44.6974C99.1892 44.2727 99.344 43.7242 99.344 43.0519C99.344 42.3574 99.1869 41.8045 98.8729 41.3932C98.5588 40.9774 98.0878 40.7695 97.4596 40.7695C97.0306 40.7695 96.6767 40.8668 96.3981 41.0614C96.1238 41.2516 95.9203 41.5192 95.7876 41.8642C95.6549 42.2048 95.5886 42.6007 95.5886 43.0519C95.5886 43.7464 95.7456 44.3015 96.0597 44.7173C96.3782 45.1286 96.8448 45.3343 97.4596 45.3343ZM102.63 38.3809V36.9146H104.229V38.3809H102.63ZM102.63 46.6348V39.469H104.229V46.6348H102.63ZM111.173 46.6348V43.1846C111.173 42.959 111.158 42.7091 111.127 42.4349C111.096 42.1606 111.023 41.8974 110.908 41.6453C110.797 41.3887 110.629 41.1786 110.404 41.015C110.182 40.8513 109.882 40.7695 109.501 40.7695C109.298 40.7695 109.096 40.8027 108.897 40.869C108.698 40.9354 108.517 41.0504 108.353 41.214C108.194 41.3733 108.066 41.5944 107.969 41.8775C107.871 42.1562 107.823 42.5145 107.823 42.9524L106.874 42.5476C106.874 41.9372 106.991 41.3843 107.225 40.8889C107.464 40.3935 107.814 39.9998 108.274 39.7079C108.734 39.4115 109.3 39.2634 109.972 39.2634C110.503 39.2634 110.941 39.3518 111.286 39.5288C111.631 39.7057 111.905 39.9313 112.109 40.2055C112.312 40.4798 112.463 40.7717 112.56 41.0813C112.657 41.391 112.719 41.6851 112.746 41.9638C112.777 42.238 112.792 42.4614 112.792 42.6339V46.6348H111.173ZM106.204 46.6348V39.469H107.63V41.6917H107.823V46.6348H106.204Z" fill="white"/>
<path d="M69.2021 63.1914V55.548H72.1799C72.6363 55.548 73.0256 55.6417 73.3476 55.8293C73.6732 56.0168 73.9209 56.2645 74.0907 56.5724C74.2641 56.8767 74.3508 57.2058 74.3508 57.5597C74.3508 57.9737 74.2446 58.3364 74.0323 58.6478C73.82 58.9592 73.5334 59.1733 73.1724 59.2901L73.1618 59.03C73.6537 59.1609 74.0359 59.4015 74.3083 59.7519C74.5808 60.1022 74.7171 60.5197 74.7171 61.0045C74.7171 61.4504 74.625 61.8361 74.441 62.1617C74.2606 62.4872 73.9987 62.7402 73.6555 62.9207C73.3158 63.1012 72.9124 63.1914 72.4453 63.1914H69.2021ZM70.1575 62.2891H72.2648C72.5479 62.2891 72.8009 62.2377 73.0238 62.1351C73.2468 62.029 73.4219 61.8803 73.5493 61.6893C73.6802 61.4982 73.7457 61.2682 73.7457 60.9992C73.7457 60.7409 73.6873 60.5091 73.5705 60.3039C73.4573 60.0986 73.2963 59.9359 73.0875 59.8156C72.8823 59.6917 72.6434 59.6298 72.3709 59.6298H70.1575V62.2891ZM70.1575 58.738H72.1692C72.3957 58.738 72.5992 58.6903 72.7797 58.5947C72.9637 58.4956 73.1087 58.3576 73.2149 58.1807C73.3246 58.0038 73.3794 57.7968 73.3794 57.5597C73.3794 57.2306 73.268 56.9616 73.045 56.7529C72.8221 56.5441 72.5302 56.4397 72.1692 56.4397H70.1575V58.738ZM77.5367 63.1914V56.445H74.9305V55.548H81.0877V56.445H78.4815V63.1914H77.5367ZM85.0752 63.3506C84.3144 63.3506 83.6686 63.1826 83.1378 62.8464C82.607 62.5102 82.2018 62.0431 81.9223 61.4451C81.6462 60.8471 81.5082 60.1553 81.5082 59.3697C81.5082 58.5841 81.6462 57.8923 81.9223 57.2943C82.2018 56.6963 82.607 56.2292 83.1378 55.893C83.6686 55.5568 84.3144 55.3887 85.0752 55.3887C85.9598 55.3887 86.687 55.6134 87.2567 56.0628C87.83 56.5122 88.2246 57.1173 88.4404 57.8782L87.4797 58.1329C87.324 57.5632 87.0462 57.1138 86.6463 56.7847C86.2465 56.4556 85.7227 56.2911 85.0752 56.2911C84.5055 56.2911 84.0313 56.4202 83.6526 56.6786C83.274 56.9369 82.9892 57.2978 82.7981 57.7614C82.607 58.2214 82.5097 58.7575 82.5061 59.3697C82.5026 59.9783 82.5964 60.5144 82.7875 60.978C82.9785 61.438 83.2652 61.799 83.6473 62.0608C84.0295 62.3191 84.5055 62.4483 85.0752 62.4483C85.7227 62.4483 86.2465 62.2837 86.6463 61.9547C87.0462 61.622 87.324 61.1726 87.4797 60.6064L88.4404 60.8612C88.2246 61.6185 87.83 62.2236 87.2567 62.6765C86.687 63.1259 85.9598 63.3506 85.0752 63.3506Z" fill="#939393"/>
<path d="M181.777 49.6967V47.6235H183.629V49.6967H181.777ZM181.777 35.4944V33.4123H183.629V35.4944H181.777ZM182.796 48.1994C181.91 48.1994 181.118 48.0399 180.421 47.721C179.724 47.402 179.152 46.9501 178.703 46.3654C178.26 45.7747 177.97 45.0778 177.834 44.2745L179.668 43.9821C179.846 44.7381 180.224 45.3406 180.802 45.7895C181.381 46.2325 182.075 46.454 182.885 46.454C183.688 46.454 184.34 46.262 184.843 45.8781C185.351 45.4942 185.604 45.0039 185.604 44.4074C185.604 43.9821 185.475 43.6366 185.215 43.3708C184.961 43.105 184.544 42.8805 183.965 42.6974L180.971 41.776C179.199 41.2267 178.313 40.1635 178.313 38.5864C178.313 37.8422 178.49 37.1954 178.844 36.6461C179.205 36.0968 179.71 35.6715 180.359 35.3703C181.009 35.0691 181.768 34.9185 182.636 34.9185C183.469 34.9303 184.208 35.0838 184.851 35.3792C185.501 35.6745 186.039 36.0998 186.464 36.655C186.895 37.2102 187.193 37.8777 187.359 38.6573L185.472 38.994C185.389 38.5392 185.215 38.1375 184.949 37.7891C184.689 37.4406 184.358 37.1689 183.957 36.9739C183.561 36.779 183.115 36.6786 182.619 36.6727C182.152 36.6609 181.733 36.7347 181.361 36.8942C180.994 37.0478 180.702 37.2663 180.483 37.5498C180.271 37.8274 180.165 38.1434 180.165 38.4978C180.165 38.8877 180.315 39.2184 180.616 39.4901C180.918 39.7619 181.393 39.9952 182.043 40.1901L184.391 40.8723C185.466 41.1912 186.242 41.6195 186.721 42.157C187.199 42.6945 187.438 43.4092 187.438 44.3011C187.438 45.0807 187.244 45.7629 186.854 46.3477C186.47 46.9265 185.929 47.3813 185.232 47.7121C184.535 48.037 183.723 48.1994 182.796 48.1994ZM194.734 47.9336V45.7098H188.975V43.9555L193.122 35.1754H195.239L191.093 43.9555H194.734V40.5002H196.613V43.9555H197.88V45.7098H196.613V47.9336H194.734ZM204.091 48.1994C203.258 48.1994 202.52 48.034 201.876 47.7032C201.238 47.3666 200.736 46.8999 200.37 46.3034C200.01 45.7068 199.829 45.0157 199.829 44.2302C199.829 43.4978 200.001 42.8274 200.343 42.219C200.686 41.6106 201.197 41.1322 201.876 40.7837L201.841 41.4216C201.297 41.0849 200.878 40.6656 200.582 40.1635C200.293 39.6555 200.148 39.0885 200.148 38.4624C200.148 37.7359 200.317 37.1068 200.653 36.5753C200.99 36.0437 201.454 35.6332 202.044 35.3437C202.641 35.0543 203.323 34.9096 204.091 34.9096C204.859 34.9096 205.538 35.0543 206.129 35.3437C206.719 35.6332 207.183 36.0437 207.52 36.5753C207.856 37.1068 208.025 37.7359 208.025 38.4624C208.025 39.0885 207.886 39.6526 207.608 40.1546C207.331 40.6567 206.905 41.079 206.333 41.4216L206.306 40.8014C206.979 41.1322 207.49 41.6047 207.839 42.219C208.187 42.8274 208.361 43.4978 208.361 44.2302C208.361 45.0157 208.178 45.7068 207.812 46.3034C207.446 46.8999 206.941 47.3666 206.297 47.7032C205.653 48.034 204.918 48.1994 204.091 48.1994ZM204.091 46.4363C204.776 46.4363 205.331 46.2502 205.757 45.8781C206.182 45.5001 206.395 44.9508 206.395 44.2302C206.395 43.5096 206.182 42.9603 205.757 42.5822C205.337 42.1983 204.782 42.0063 204.091 42.0063C203.4 42.0063 202.842 42.1983 202.416 42.5822C201.997 42.9603 201.787 43.5096 201.787 44.2302C201.787 44.9508 202 45.5001 202.425 45.8781C202.851 46.2502 203.406 46.4363 204.091 46.4363ZM204.091 40.2344C204.676 40.2344 205.148 40.0897 205.509 39.8002C205.875 39.5049 206.058 39.059 206.058 38.4624C206.058 37.8658 205.875 37.4199 205.509 37.1246C205.148 36.8233 204.676 36.6727 204.091 36.6727C203.506 36.6727 203.031 36.8233 202.665 37.1246C202.298 37.4199 202.115 37.8658 202.115 38.4624C202.115 39.059 202.298 39.5049 202.665 39.8002C203.031 40.0897 203.506 40.2344 204.091 40.2344ZM210.489 50.0511L210.604 49.2271C210.858 49.2449 211.056 49.1976 211.198 49.0854C211.339 48.9732 211.434 48.8166 211.481 48.6158C211.528 48.415 211.537 48.1876 211.508 47.9336H210.489V45.7984H212.447V48.1108C212.447 48.8078 212.279 49.3335 211.942 49.6878C211.611 50.0422 211.127 50.1633 210.489 50.0511ZM216.47 47.9336L220.953 36.9385H215.274V35.1754H222.947V36.9385L218.472 47.9336H216.47ZM229.227 34.9185C230.048 34.9185 230.789 35.1163 231.451 35.5121C232.112 35.9019 232.638 36.4394 233.028 37.1246C233.418 37.8097 233.613 38.5923 233.613 39.4724V43.5302C233.613 44.4635 233.418 45.2815 233.028 45.9844C232.644 46.6814 232.107 47.2248 231.415 47.6146C230.73 48.0045 229.939 48.1994 229.041 48.1994C228.368 48.1994 227.736 48.0724 227.145 47.8184C226.554 47.5644 226.041 47.1864 225.603 46.6844L226.968 45.4174C227.21 45.7304 227.514 45.9815 227.88 46.1705C228.247 46.3595 228.634 46.454 229.041 46.454C229.567 46.454 230.03 46.327 230.432 46.073C230.84 45.819 231.156 45.4883 231.38 45.0807C231.605 44.6732 231.717 44.2361 231.717 43.7695V41.4305L232.089 41.838C231.723 42.3164 231.268 42.6945 230.724 42.9721C230.181 43.2497 229.599 43.3885 228.979 43.3885C228.182 43.3885 227.473 43.2054 226.853 42.8392C226.232 42.473 225.742 41.9739 225.382 41.3419C225.022 40.7099 224.841 39.9952 224.841 39.1978C224.841 38.4004 225.042 37.6798 225.444 37.036C225.846 36.3922 226.377 35.8783 227.039 35.4944C227.7 35.1104 228.43 34.9185 229.227 34.9185ZM229.227 36.7082C228.766 36.7082 228.344 36.8204 227.96 37.0448C227.582 37.2634 227.281 37.5617 227.056 37.9397C226.832 38.3177 226.72 38.7371 226.72 39.1978C226.72 39.6585 226.832 40.0808 227.056 40.4647C227.281 40.8428 227.582 41.144 227.96 41.3684C228.338 41.5929 228.758 41.7051 229.218 41.7051C229.679 41.7051 230.098 41.5929 230.476 41.3684C230.854 41.144 231.156 40.8428 231.38 40.4647C231.605 40.0808 231.717 39.6585 231.717 39.1978C231.717 38.743 231.605 38.3266 231.38 37.9485C231.162 37.5705 230.863 37.2693 230.485 37.0448C230.107 36.8204 229.688 36.7082 229.227 36.7082ZM240.171 48.1994C239.338 48.1994 238.6 48.034 237.956 47.7032C237.318 47.3666 236.816 46.8999 236.45 46.3034C236.089 45.7068 235.909 45.0157 235.909 44.2302C235.909 43.4978 236.08 42.8274 236.423 42.219C236.766 41.6106 237.276 41.1322 237.956 40.7837L237.92 41.4216C237.377 41.0849 236.958 40.6656 236.662 40.1635C236.373 39.6555 236.228 39.0885 236.228 38.4624C236.228 37.7359 236.396 37.1068 236.733 36.5753C237.07 36.0437 237.533 35.6332 238.124 35.3437C238.721 35.0543 239.403 34.9096 240.171 34.9096C240.939 34.9096 241.618 35.0543 242.208 35.3437C242.799 35.6332 243.263 36.0437 243.599 36.5753C243.936 37.1068 244.104 37.7359 244.104 38.4624C244.104 39.0885 243.966 39.6526 243.688 40.1546C243.41 40.6567 242.985 41.079 242.412 41.4216L242.386 40.8014C243.059 41.1322 243.57 41.6047 243.918 42.219C244.267 42.8274 244.441 43.4978 244.441 44.2302C244.441 45.0157 244.258 45.7068 243.892 46.3034C243.526 46.8999 243.021 47.3666 242.377 47.7032C241.733 48.034 240.998 48.1994 240.171 48.1994ZM240.171 46.4363C240.856 46.4363 241.411 46.2502 241.836 45.8781C242.262 45.5001 242.474 44.9508 242.474 44.2302C242.474 43.5096 242.262 42.9603 241.836 42.5822C241.417 42.1983 240.862 42.0063 240.171 42.0063C239.48 42.0063 238.921 42.1983 238.496 42.5822C238.077 42.9603 237.867 43.5096 237.867 44.2302C237.867 44.9508 238.08 45.5001 238.505 45.8781C238.93 46.2502 239.486 46.4363 240.171 46.4363ZM240.171 40.2344C240.755 40.2344 241.228 40.0897 241.588 39.8002C241.954 39.5049 242.138 39.059 242.138 38.4624C242.138 37.8658 241.954 37.4199 241.588 37.1246C241.228 36.8233 240.755 36.6727 240.171 36.6727C239.586 36.6727 239.11 36.8233 238.744 37.1246C238.378 37.4199 238.195 37.8658 238.195 38.4624C238.195 39.059 238.378 39.5049 238.744 39.8002C239.11 40.0897 239.586 40.2344 240.171 40.2344ZM247.065 47.9336V45.9756H249.023V47.9336H247.065ZM251.462 47.9247L251.47 46.2768L257.026 41.2976C257.475 40.9018 257.779 40.5238 257.938 40.1635C258.104 39.8032 258.186 39.4429 258.186 39.0826C258.186 38.6278 258.086 38.2202 257.885 37.8599C257.684 37.4937 257.407 37.2043 257.052 36.9917C256.698 36.779 256.29 36.6727 255.83 36.6727C255.357 36.6727 254.935 36.7849 254.563 37.0094C254.196 37.2279 253.91 37.5203 253.703 37.8865C253.496 38.2527 253.396 38.6485 253.402 39.0737H251.506C251.506 38.2468 251.692 37.5233 252.064 36.9031C252.442 36.277 252.959 35.7897 253.615 35.4412C254.27 35.0868 255.02 34.9096 255.865 34.9096C256.668 34.9096 257.389 35.0927 258.027 35.4589C258.665 35.8192 259.167 36.3154 259.533 36.9474C259.905 37.5794 260.091 38.3 260.091 39.1092C260.091 39.6939 260.014 40.1901 259.861 40.5976C259.707 41.0052 259.477 41.3832 259.17 41.7317C258.863 42.0802 258.479 42.4582 258.018 42.8658L253.73 46.6932L253.526 46.1616H260.091V47.9247H251.462ZM265.786 48.1728C265.154 48.1728 264.561 48.0547 264.006 47.8184C263.45 47.5762 262.969 47.2337 262.561 46.7907C262.16 46.3477 261.867 45.8249 261.684 45.2225L263.474 44.7263C263.645 45.2756 263.944 45.698 264.369 45.9933C264.794 46.2827 265.267 46.4245 265.786 46.4186C266.253 46.4127 266.664 46.3034 267.018 46.0907C267.372 45.8781 267.65 45.5916 267.851 45.2313C268.052 44.8651 268.152 44.4458 268.152 43.9732C268.152 43.2644 267.931 42.6797 267.488 42.219C267.05 41.7583 266.478 41.5279 265.769 41.5279C265.568 41.5279 265.361 41.5574 265.149 41.6165C264.942 41.6756 264.747 41.7524 264.564 41.8469L263.696 40.385L268.196 36.4069L268.391 36.9385H262.189V35.1754H269.862V36.9385L266.123 40.5356L266.105 39.9331C266.909 39.9331 267.606 40.1133 268.196 40.4736C268.787 40.828 269.242 41.3123 269.561 41.9266C269.886 42.535 270.048 43.2172 270.048 43.9732C270.048 44.7883 269.856 45.5119 269.472 46.1439C269.094 46.7759 268.583 47.2721 267.939 47.6324C267.302 47.9927 266.584 48.1728 265.786 48.1728ZM284.537 48.1994C283.539 48.1994 282.655 47.9956 281.888 47.5881C281.126 47.1746 280.529 46.5987 280.098 45.8604C279.667 45.1162 279.451 44.242 279.451 43.2379V35.1843L281.329 35.1754V43.1404C281.329 43.6838 281.421 44.1622 281.604 44.5757C281.787 44.9892 282.032 45.3347 282.339 45.6123C282.647 45.8899 282.989 46.0996 283.367 46.2414C283.751 46.3831 284.141 46.454 284.537 46.454C284.938 46.454 285.328 46.3831 285.706 46.2414C286.09 46.0937 286.436 45.8811 286.743 45.6035C287.05 45.3258 287.292 44.9803 287.469 44.5668C287.652 44.1534 287.744 43.6779 287.744 43.1404V35.1754H289.622V43.2379C289.622 44.2361 289.407 45.1073 288.976 45.8515C288.544 46.5958 287.945 47.1746 287.177 47.5881C286.415 47.9956 285.535 48.1994 284.537 48.1994ZM296.189 48.1994C295.274 48.1994 294.447 48.0429 293.708 47.7298C292.976 47.4109 292.37 46.959 291.892 46.3743C291.42 45.7836 291.112 45.0837 290.971 44.2745L292.902 43.9821C293.097 44.7618 293.505 45.3701 294.125 45.8072C294.745 46.2384 295.468 46.454 296.295 46.454C296.809 46.454 297.282 46.3743 297.713 46.2148C298.144 46.0494 298.49 45.8161 298.75 45.5149C299.015 45.2077 299.148 44.8415 299.148 44.4162C299.148 44.1859 299.107 43.9821 299.024 43.8049C298.947 43.6277 298.838 43.4741 298.696 43.3442C298.561 43.2083 298.392 43.0932 298.191 42.9987C297.996 42.8982 297.781 42.8126 297.545 42.7417L294.275 41.776C293.956 41.6815 293.632 41.5604 293.301 41.4127C292.97 41.2592 292.666 41.0613 292.388 40.8191C292.117 40.5711 291.895 40.2669 291.724 39.9066C291.552 39.5404 291.467 39.0974 291.467 38.5776C291.467 37.792 291.668 37.1275 292.069 36.5841C292.477 36.0348 293.026 35.6213 293.717 35.3437C294.408 35.0602 295.182 34.9185 296.038 34.9185C296.901 34.9303 297.672 35.0838 298.351 35.3792C299.036 35.6745 299.603 36.0998 300.052 36.655C300.507 37.2043 300.82 37.8717 300.991 38.6573L299.007 38.994C298.918 38.5156 298.729 38.1051 298.439 37.7625C298.15 37.414 297.796 37.1482 297.376 36.9651C296.957 36.7761 296.502 36.6786 296.012 36.6727C295.539 36.6609 295.105 36.7318 294.709 36.8853C294.32 37.0389 294.007 37.2545 293.77 37.5321C293.54 37.8097 293.425 38.1287 293.425 38.489C293.425 38.8434 293.528 39.1298 293.735 39.3484C293.942 39.5669 294.196 39.7412 294.497 39.8711C294.804 39.9952 295.108 40.0985 295.409 40.1812L297.766 40.8457C298.061 40.9284 298.395 41.0406 298.767 41.1824C299.145 41.3182 299.509 41.5102 299.857 41.7583C300.211 42.0063 300.504 42.3371 300.734 42.7506C300.965 43.1581 301.08 43.672 301.08 44.2922C301.08 44.936 300.95 45.503 300.69 45.9933C300.43 46.4776 300.073 46.8852 299.618 47.2159C299.169 47.5408 298.649 47.7859 298.059 47.9513C297.468 48.1167 296.845 48.1994 296.189 48.1994ZM302.968 47.9336V35.1754H306.964C307.082 35.1754 307.3 35.1784 307.619 35.1843C307.944 35.1902 308.254 35.2138 308.55 35.2551C309.548 35.3792 310.387 35.7365 311.066 36.3272C311.751 36.9178 312.268 37.668 312.616 38.5776C312.965 39.4813 313.139 40.4736 313.139 41.5545C313.139 42.6413 312.965 43.6395 312.616 44.5491C312.268 45.4528 311.751 46.2 311.066 46.7907C310.387 47.3754 309.548 47.7298 308.55 47.8539C308.254 47.8952 307.944 47.9188 307.619 47.9247C307.3 47.9306 307.082 47.9336 306.964 47.9336H302.968ZM304.864 46.1705H306.964C307.164 46.1705 307.404 46.1646 307.681 46.1528C307.959 46.1409 308.204 46.1173 308.417 46.0819C309.066 45.9578 309.592 45.6773 309.994 45.2402C310.401 44.7972 310.7 44.2538 310.889 43.61C311.078 42.9662 311.172 42.281 311.172 41.5545C311.172 40.8044 311.075 40.1103 310.88 39.4724C310.685 38.8286 310.384 38.2911 309.976 37.8599C309.574 37.4228 309.055 37.1452 308.417 37.0271C308.204 36.9858 307.956 36.9621 307.672 36.9562C307.395 36.9444 307.159 36.9385 306.964 36.9385H304.864V46.1705Z" fill="white"/>
<path d="M181.073 62.2441L185.332 57.9849L189.592 62.2441" stroke="#B0F127" stroke-width="1.20816" stroke-linecap="square"/>
<path d="M185.332 58.3386L185.332 67.0469" stroke="#B0F127" stroke-width="1.20816" stroke-linecap="square"/>
<path d="M197.9 67.0156V65.3081H193.635V64.2191L196.695 57.7369H197.997L194.936 64.2191H197.9V61.6095H199.06V64.2191H200.027V65.3081H199.06V67.0156H197.9ZM201.524 67.0156V65.7527H202.787V67.0156H201.524ZM207.955 67.2089C207.366 67.2089 206.831 67.0672 206.35 66.7837C205.873 66.5001 205.493 66.1135 205.21 65.6238C204.931 65.1298 204.791 64.5735 204.791 63.9549V60.8685C204.791 60.2198 204.931 59.6464 205.21 59.1481C205.493 58.6455 205.88 58.2546 206.37 57.9753C206.864 57.6918 207.426 57.5501 208.058 57.5501C208.569 57.5501 209.044 57.6553 209.482 57.8658C209.924 58.072 210.296 58.3706 210.597 58.7615L209.74 59.5218C209.555 59.2512 209.314 59.0364 209.018 58.8774C208.721 58.7185 208.401 58.639 208.058 58.639C207.65 58.639 207.287 58.7378 206.969 58.9354C206.655 59.1287 206.408 59.3865 206.228 59.7087C206.047 60.0265 205.957 60.3702 205.957 60.7396V62.6018L205.706 62.3183C205.977 61.9317 206.32 61.6224 206.737 61.3904C207.154 61.1585 207.605 61.0425 208.09 61.0425C208.666 61.0425 209.181 61.1778 209.636 61.4484C210.096 61.719 210.457 62.0863 210.719 62.5503C210.985 63.0099 211.118 63.5275 211.118 64.1031C211.118 64.6788 210.975 65.2007 210.687 65.6689C210.399 66.1372 210.014 66.5109 209.533 66.7901C209.057 67.0693 208.53 67.2089 207.955 67.2089ZM207.955 66.1006C208.324 66.1006 208.661 66.0126 208.966 65.8365C209.271 65.656 209.512 65.4155 209.688 65.1148C209.868 64.8098 209.959 64.4726 209.959 64.1031C209.959 63.7337 209.868 63.3965 209.688 63.0915C209.512 62.7865 209.271 62.546 208.966 62.3698C208.666 62.1894 208.331 62.0992 207.961 62.0992C207.592 62.0992 207.254 62.1894 206.949 62.3698C206.649 62.546 206.408 62.7865 206.228 63.0915C206.047 63.3965 205.957 63.7337 205.957 64.1031C205.957 64.4683 206.045 64.8033 206.221 65.1083C206.402 65.409 206.642 65.6496 206.943 65.83C207.248 66.0104 207.585 66.1006 207.955 66.1006ZM215.54 67.2089C215.063 67.2089 214.619 67.1101 214.206 66.9125C213.798 66.7149 213.448 66.4443 213.156 66.1006C212.868 65.7527 212.662 65.3532 212.537 64.9021L213.639 64.6057C213.716 64.9107 213.854 65.1749 214.051 65.3983C214.249 65.6174 214.479 65.7892 214.741 65.9138C215.007 66.0341 215.284 66.0942 215.572 66.0942C215.95 66.0942 216.29 66.004 216.59 65.8236C216.895 65.6389 217.136 65.3962 217.312 65.0955C217.488 64.7905 217.576 64.4575 217.576 64.0967C217.576 63.723 217.484 63.3858 217.299 63.0851C217.119 62.7801 216.876 62.5395 216.571 62.3634C216.266 62.1873 215.933 62.0992 215.572 62.0992C215.164 62.0992 214.814 62.1851 214.522 62.357C214.234 62.5245 214.006 62.7307 213.839 62.9755L212.821 62.5889L213.104 57.7369H218.085V58.8259H213.658L214.167 58.3491L213.929 62.2345L213.678 61.9059C213.935 61.631 214.243 61.4183 214.599 61.268C214.96 61.1176 215.327 61.0425 215.701 61.0425C216.277 61.0425 216.792 61.1778 217.247 61.4484C217.703 61.7147 218.064 62.0799 218.33 62.5438C218.596 63.0035 218.729 63.5211 218.729 64.0967C218.729 64.668 218.583 65.19 218.291 65.6625C217.999 66.1307 217.61 66.5066 217.125 66.7901C216.644 67.0693 216.116 67.2089 215.54 67.2089ZM221.301 67.0156L220.528 66.2424L229.047 57.7369L229.82 58.5102L221.301 67.0156ZM227.887 67.2089C227.461 67.2089 227.073 67.1058 226.72 66.8996C226.373 66.6892 226.093 66.4099 225.883 66.062C225.672 65.7097 225.567 65.3188 225.567 64.8893C225.567 64.4683 225.674 64.0817 225.889 63.7294C226.104 63.3772 226.388 63.0958 226.74 62.8853C227.092 62.6748 227.474 62.5696 227.887 62.5696C228.312 62.5696 228.701 62.6748 229.053 62.8853C229.405 63.0915 229.684 63.3707 229.891 63.723C230.101 64.0709 230.206 64.4597 230.206 64.8893C230.206 65.3188 230.101 65.7097 229.891 66.062C229.684 66.4099 229.405 66.6892 229.053 66.8996C228.701 67.1058 228.312 67.2089 227.887 67.2089ZM227.887 66.1973C228.123 66.1973 228.34 66.1372 228.538 66.0169C228.739 65.8966 228.898 65.7377 229.014 65.5401C229.135 65.3425 229.195 65.1255 229.195 64.8893C229.195 64.653 229.135 64.4361 229.014 64.2385C228.898 64.0366 228.739 63.8776 228.538 63.7616C228.34 63.6414 228.123 63.5812 227.887 63.5812C227.65 63.5812 227.434 63.6414 227.236 63.7616C227.038 63.8776 226.879 64.0366 226.759 64.2385C226.639 64.4361 226.579 64.653 226.579 64.8893C226.579 65.1255 226.639 65.3425 226.759 65.5401C226.879 65.7377 227.038 65.8966 227.236 66.0169C227.434 66.1372 227.65 66.1973 227.887 66.1973ZM222.461 62.183C222.036 62.183 221.647 62.0799 221.295 61.8737C220.943 61.6632 220.661 61.384 220.451 61.036C220.245 60.6838 220.142 60.2929 220.142 59.8633C220.142 59.4423 220.249 59.0557 220.464 58.7035C220.679 58.3512 220.962 58.0699 221.314 57.8594C221.667 57.6489 222.049 57.5436 222.461 57.5436C222.887 57.5436 223.273 57.6489 223.621 57.8594C223.973 58.0656 224.255 58.3448 224.465 58.697C224.676 59.045 224.781 59.4337 224.781 59.8633C224.781 60.2929 224.676 60.6838 224.465 61.036C224.255 61.384 223.973 61.6632 223.621 61.8737C223.273 62.0799 222.887 62.183 222.461 62.183ZM222.461 61.1713C222.698 61.1713 222.914 61.1112 223.112 60.9909C223.314 60.8706 223.473 60.7117 223.589 60.5141C223.709 60.3165 223.769 60.0996 223.769 59.8633C223.769 59.627 223.709 59.4101 223.589 59.2125C223.473 59.0106 223.314 58.8517 223.112 58.7357C222.914 58.6154 222.698 58.5553 222.461 58.5553C222.225 58.5553 222.008 58.6154 221.81 58.7357C221.613 58.8517 221.454 59.0106 221.334 59.2125C221.213 59.4101 221.153 59.627 221.153 59.8633C221.153 60.0996 221.213 60.3165 221.334 60.5141C221.454 60.7117 221.613 60.8706 221.81 60.9909C222.008 61.1112 222.225 61.1713 222.461 61.1713Z" fill="#939393"/>
<path d="M1.27148 296.9L13.4182 270.776C14.1466 269.21 15.7175 268.208 17.4451 268.208H39.177C40.3374 268.208 41.4516 267.754 42.2814 266.942L63.6901 246.015C65.4159 244.328 68.173 244.328 69.8987 246.015L88.8969 264.586C89.7266 265.397 90.8409 265.851 92.0012 265.851H102.419C103.58 265.851 104.694 265.397 105.524 264.586L126.332 244.246C127.161 243.435 128.276 242.981 129.436 242.981H150.94C152.411 242.981 153.787 242.252 154.613 241.036L167.095 222.668C168.918 219.986 172.907 220.099 174.576 222.879L199.075 263.696C199.878 265.033 201.323 265.851 202.883 265.851H215.562C217.207 265.851 218.717 264.942 219.486 263.488L248.464 208.751C249.233 207.297 250.744 206.387 252.389 206.387H271.443C272.604 206.387 273.718 205.933 274.548 205.122L305.282 175.079C306.111 174.268 307.226 173.814 308.386 173.814H316.931C318.51 173.814 319.969 172.976 320.766 171.614L340.867 137.221" stroke="#B0F127" stroke-width="0.666144" stroke-linecap="round"/>
<circle cx="170.861" cy="220.526" r="3.32665" fill="#B0F127"/>
<path d="M19.9242 319.85V312.949L18.4198 313.86V312.755L19.9242 311.856H20.929V319.85H19.9242ZM23.0412 319.85V311.856H25.5059C25.5874 311.856 25.7298 311.858 25.9334 311.861C26.1369 311.865 26.3312 311.88 26.5163 311.906C27.1343 311.987 27.6506 312.213 28.065 312.583C28.4832 312.949 28.7978 313.416 29.0087 313.982C29.2197 314.548 29.3252 315.172 29.3252 315.853C29.3252 316.534 29.2197 317.157 29.0087 317.723C28.7978 318.29 28.4832 318.758 28.065 319.128C27.6506 319.494 27.1343 319.718 26.5163 319.8C26.3312 319.822 26.1351 319.837 25.9278 319.844C25.7243 319.848 25.5837 319.85 25.5059 319.85H23.0412ZM24.0571 318.906H25.5059C25.6466 318.906 25.8039 318.902 25.9778 318.895C26.1517 318.884 26.3035 318.867 26.433 318.845C26.8697 318.763 27.2231 318.58 27.4933 318.295C27.7634 318.01 27.9614 317.655 28.0873 317.229C28.2131 316.804 28.276 316.345 28.276 315.853C28.276 315.349 28.2112 314.885 28.0817 314.459C27.9559 314.034 27.7579 313.68 27.4877 313.399C27.2176 313.118 26.866 312.938 26.433 312.861C26.3035 312.835 26.1499 312.818 25.9722 312.811C25.7946 312.803 25.6392 312.8 25.5059 312.8H24.0571V318.906Z" fill="#939393"/>
<path d="M75.3215 319.85L78.197 312.805H74.5665V311.856H79.2573V312.805L76.3873 319.85H75.3215ZM80.5917 319.85V311.856H83.0565C83.1379 311.856 83.2804 311.858 83.4839 311.861C83.6875 311.865 83.8818 311.88 84.0668 311.906C84.6848 311.987 85.2011 312.213 85.6156 312.583C86.0338 312.949 86.3483 313.416 86.5593 313.982C86.7702 314.548 86.8757 315.172 86.8757 315.853C86.8757 316.534 86.7702 317.157 86.5593 317.723C86.3483 318.29 86.0338 318.758 85.6156 319.128C85.2011 319.494 84.6848 319.718 84.0668 319.8C83.8818 319.822 83.6856 319.837 83.4784 319.844C83.2748 319.848 83.1342 319.85 83.0565 319.85H80.5917ZM81.6076 318.906H83.0565C83.1971 318.906 83.3544 318.902 83.5283 318.895C83.7023 318.884 83.854 318.867 83.9835 318.845C84.4202 318.763 84.7737 318.58 85.0438 318.295C85.314 318.01 85.512 317.655 85.6378 317.229C85.7636 316.804 85.8265 316.345 85.8265 315.853C85.8265 315.349 85.7618 314.885 85.6322 314.459C85.5064 314.034 85.3084 313.68 85.0383 313.399C84.7681 313.118 84.4165 312.938 83.9835 312.861C83.854 312.835 83.7004 312.818 83.5228 312.811C83.3451 312.803 83.1897 312.8 83.0565 312.8H81.6076V318.906Z" fill="#939393"/>
<path d="M134.305 319.85V312.949L132.8 313.86V312.755L134.305 311.856H135.309V319.85H134.305ZM137.422 319.85V311.856H138.321L141.341 318.223L144.344 311.856H145.254V319.844H144.316V314.026L141.602 319.85H141.074L138.36 314.026V319.85H137.422Z" fill="#939393"/>
<path d="M194.137 320.005C193.741 320.005 193.373 319.933 193.033 319.789C192.692 319.641 192.398 319.433 192.15 319.167C191.906 318.897 191.726 318.577 191.611 318.206L192.561 317.934C192.683 318.305 192.886 318.586 193.171 318.778C193.456 318.971 193.776 319.065 194.132 319.061C194.457 319.054 194.739 318.98 194.975 318.839C195.216 318.695 195.401 318.499 195.531 318.251C195.664 318.003 195.73 317.716 195.73 317.39C195.73 316.895 195.582 316.493 195.286 316.186C194.99 315.875 194.602 315.72 194.121 315.72C193.987 315.72 193.847 315.738 193.699 315.775C193.554 315.812 193.419 315.864 193.293 315.93L192.816 315.148L195.78 312.467L195.908 312.8H191.928V311.856H196.641V312.805L194.115 315.225L194.104 314.876C194.633 314.839 195.096 314.926 195.492 315.137C195.888 315.348 196.195 315.649 196.413 316.041C196.635 316.434 196.746 316.883 196.746 317.39C196.746 317.901 196.632 318.353 196.402 318.745C196.173 319.137 195.862 319.446 195.47 319.672C195.077 319.894 194.633 320.005 194.137 320.005ZM198.19 319.85V311.856H199.089L202.109 318.223L205.112 311.856H206.022V319.844H205.084V314.026L202.37 319.85H201.842L199.128 314.026V319.85H198.19Z" fill="#939393"/>
<path d="M255.009 320.016C254.502 320.016 254.041 319.894 253.626 319.65C253.216 319.406 252.888 319.072 252.644 318.651C252.403 318.225 252.283 317.746 252.283 317.213V314.554C252.283 313.995 252.403 313.501 252.644 313.072C252.888 312.639 253.221 312.302 253.643 312.061C254.069 311.817 254.553 311.695 255.097 311.695C255.538 311.695 255.947 311.786 256.324 311.967C256.705 312.145 257.026 312.402 257.285 312.739L256.546 313.394C256.387 313.16 256.18 312.975 255.925 312.838C255.669 312.702 255.393 312.633 255.097 312.633C254.746 312.633 254.433 312.718 254.159 312.888C253.889 313.055 253.676 313.277 253.521 313.555C253.365 313.828 253.288 314.124 253.288 314.443V316.047L253.071 315.803C253.304 315.47 253.6 315.203 253.959 315.003C254.318 314.804 254.707 314.704 255.125 314.704C255.621 314.704 256.065 314.82 256.457 315.053C256.853 315.287 257.164 315.603 257.39 316.003C257.62 316.399 257.734 316.845 257.734 317.34C257.734 317.836 257.61 318.286 257.362 318.689C257.114 319.093 256.783 319.415 256.369 319.655C255.958 319.896 255.505 320.016 255.009 320.016ZM255.009 319.061C255.327 319.061 255.617 318.985 255.88 318.834C256.143 318.678 256.35 318.471 256.502 318.212C256.657 317.949 256.735 317.659 256.735 317.34C256.735 317.022 256.657 316.732 256.502 316.469C256.35 316.206 256.143 315.999 255.88 315.847C255.621 315.692 255.332 315.614 255.014 315.614C254.696 315.614 254.405 315.692 254.143 315.847C253.884 315.999 253.676 316.206 253.521 316.469C253.365 316.732 253.288 317.022 253.288 317.34C253.288 317.655 253.364 317.944 253.515 318.206C253.671 318.466 253.878 318.673 254.137 318.828C254.4 318.984 254.69 319.061 255.009 319.061ZM259.179 319.85V311.856H260.078L263.098 318.223L266.101 311.856H267.011V319.844H266.073V314.026L263.359 319.85H262.831L260.117 314.026V319.85H259.179Z" fill="#939393"/>
<path d="M315.07 319.85V312.949L313.566 313.86V312.755L315.07 311.856H316.075V319.85H315.07ZM320.103 319.85V316.524L317.41 311.856H318.559L320.602 315.392L322.639 311.856H323.789L321.102 316.524V319.85H320.103Z" fill="#939393"/>
<rect x="138.015" y="180.504" width="66.1101" height="26.5675" rx="13.2838" fill="white"/>
<path d="M152.955 200.122V198.553H154.551V200.122H152.955ZM152.955 189.527V187.958H154.551V189.527H152.955ZM153.79 199.003C153.119 199.003 152.518 198.88 151.988 198.633C151.459 198.385 151.024 198.037 150.684 197.586C150.348 197.136 150.134 196.602 150.041 195.984L151.618 195.732C151.741 196.275 152.006 196.708 152.412 197.03C152.823 197.348 153.313 197.507 153.882 197.507C154.43 197.507 154.88 197.379 155.233 197.123C155.586 196.862 155.763 196.533 155.763 196.136C155.763 195.858 155.679 195.633 155.511 195.46C155.344 195.284 155.074 195.138 154.703 195.023L152.406 194.308C151.068 193.893 150.399 193.081 150.399 191.871C150.399 191.306 150.534 190.814 150.803 190.395C151.077 189.971 151.461 189.646 151.955 189.421C152.45 189.192 153.032 189.079 153.704 189.083C154.326 189.088 154.88 189.2 155.366 189.421C155.856 189.642 156.262 189.96 156.584 190.375C156.911 190.79 157.143 191.289 157.28 191.871L155.644 192.169C155.582 191.856 155.461 191.58 155.28 191.342C155.099 191.103 154.871 190.918 154.598 190.785C154.324 190.653 154.019 190.582 153.684 190.573C153.361 190.569 153.072 190.62 152.816 190.726C152.56 190.827 152.357 190.973 152.207 191.163C152.057 191.348 151.982 191.558 151.982 191.792C151.982 192.052 152.086 192.275 152.293 192.461C152.505 192.646 152.838 192.805 153.293 192.937L155.008 193.434C155.834 193.673 156.427 193.997 156.789 194.408C157.156 194.814 157.339 195.355 157.339 196.03C157.339 196.622 157.191 197.14 156.895 197.586C156.6 198.032 156.185 198.381 155.65 198.633C155.116 198.88 154.496 199.003 153.79 199.003ZM162.073 199.003C161.451 199.003 160.89 198.858 160.391 198.566C159.897 198.27 159.504 197.862 159.212 197.341C158.921 196.82 158.775 196.222 158.775 195.547V192.646C158.775 191.922 158.919 191.293 159.206 190.759C159.497 190.225 159.903 189.812 160.424 189.52C160.949 189.229 161.559 189.083 162.252 189.083C162.733 189.083 163.19 189.165 163.623 189.328C164.055 189.487 164.439 189.743 164.775 190.097L163.623 191.216C163.455 191.017 163.25 190.86 163.007 190.746C162.768 190.631 162.517 190.573 162.252 190.573C161.881 190.573 161.556 190.662 161.278 190.838C161 191.01 160.784 191.238 160.629 191.52C160.479 191.803 160.404 192.105 160.404 192.428V194.01L160.113 193.692C160.387 193.375 160.715 193.127 161.1 192.951C161.484 192.77 161.885 192.679 162.305 192.679C162.905 192.679 163.435 192.816 163.894 193.09C164.353 193.359 164.715 193.73 164.98 194.202C165.245 194.67 165.377 195.204 165.377 195.805C165.377 196.401 165.225 196.942 164.921 197.427C164.62 197.908 164.221 198.293 163.722 198.58C163.223 198.862 162.673 199.003 162.073 199.003ZM162.073 197.474C162.382 197.474 162.665 197.401 162.921 197.255C163.177 197.105 163.38 196.904 163.53 196.652C163.684 196.396 163.762 196.114 163.762 195.805C163.762 195.496 163.687 195.213 163.537 194.957C163.386 194.701 163.183 194.498 162.927 194.348C162.676 194.193 162.395 194.116 162.086 194.116C161.777 194.116 161.495 194.193 161.239 194.348C160.983 194.498 160.779 194.701 160.629 194.957C160.479 195.213 160.404 195.496 160.404 195.805C160.404 196.105 160.477 196.383 160.623 196.639C160.773 196.891 160.974 197.094 161.225 197.248C161.481 197.399 161.764 197.474 162.073 197.474ZM166.869 200.493L166.961 199.805C167.165 199.822 167.326 199.787 167.445 199.699C167.564 199.615 167.644 199.493 167.683 199.334C167.727 199.18 167.738 199.003 167.716 198.805H166.869V197.103H168.504V198.871C168.504 199.449 168.368 199.886 168.094 200.182C167.82 200.478 167.412 200.582 166.869 200.493ZM173.752 198.983C173.275 198.983 172.825 198.891 172.401 198.705C171.977 198.52 171.609 198.257 171.295 197.917C170.986 197.577 170.763 197.176 170.626 196.712L172.169 196.295C172.28 196.675 172.48 196.968 172.772 197.176C173.068 197.379 173.392 197.478 173.745 197.474C174.059 197.474 174.339 197.401 174.586 197.255C174.834 197.109 175.028 196.913 175.169 196.666C175.31 196.414 175.381 196.134 175.381 195.825C175.381 195.352 175.229 194.957 174.924 194.639C174.619 194.321 174.227 194.163 173.745 194.163C173.6 194.163 173.456 194.182 173.315 194.222C173.178 194.262 173.046 194.317 172.918 194.388L172.189 193.129L175.394 190.388L175.533 190.772H170.997V189.269H176.844V190.779L174.268 193.255L174.255 192.785C174.834 192.825 175.326 192.986 175.732 193.269C176.143 193.551 176.456 193.915 176.672 194.361C176.893 194.807 177.003 195.295 177.003 195.825C177.003 196.425 176.856 196.964 176.56 197.441C176.268 197.917 175.875 198.295 175.381 198.573C174.891 198.847 174.348 198.983 173.752 198.983ZM182.679 198.805V197.229H178.454V195.739L181.507 189.269H183.328L180.275 195.739H182.679V193.255H184.295V195.739H185.189V197.229H184.295V198.805H182.679ZM189.605 199.003C189.119 199.003 188.667 198.904 188.247 198.705C187.828 198.502 187.466 198.224 187.161 197.871C186.861 197.518 186.645 197.107 186.512 196.639L188.049 196.229C188.11 196.485 188.223 196.705 188.386 196.891C188.554 197.076 188.748 197.22 188.969 197.321C189.194 197.423 189.426 197.474 189.664 197.474C189.973 197.474 190.256 197.399 190.512 197.248C190.768 197.098 190.971 196.898 191.121 196.646C191.271 196.39 191.346 196.107 191.346 195.798C191.346 195.489 191.269 195.209 191.115 194.957C190.965 194.701 190.761 194.5 190.505 194.355C190.249 194.204 189.969 194.129 189.664 194.129C189.298 194.129 188.993 194.196 188.751 194.328C188.512 194.461 188.329 194.602 188.201 194.752L186.837 194.315L187.128 189.269H192.307V190.765H187.982L188.578 190.202L188.366 193.712L188.075 193.355C188.322 193.129 188.609 192.962 188.936 192.851C189.263 192.741 189.578 192.686 189.883 192.686C190.479 192.686 191.006 192.823 191.466 193.096C191.929 193.366 192.291 193.734 192.552 194.202C192.817 194.67 192.949 195.202 192.949 195.798C192.949 196.394 192.794 196.935 192.485 197.421C192.176 197.902 191.768 198.286 191.26 198.573C190.757 198.86 190.205 199.003 189.605 199.003Z" fill="#141414"/>
</svg>
