<svg width="65" height="82" viewBox="0 0 65 82" fill="none" xmlns="http://www.w3.org/2000/svg">
<g clip-path="url(#clip0_3754_37701)">
<path d="M12.0977 17.2507V2.49805L54.1526 25.9843L62.06 32.2394L57.0244 41.9172L12.0977 17.2507Z" fill="#060606" stroke="#060606" stroke-width="1.5" stroke-linejoin="round"/>
<path d="M3.59814 52.8553L3.66209 7.26758L44.0819 29.7629L56.6709 34.4838L63.5161 31.2579V68.5167C63.5161 72.2435 61.5427 75.6918 58.3293 77.5796L56.2065 78.8268C52.9436 80.7437 48.902 80.7587 45.625 78.866L5.09934 55.4601C4.16907 54.9228 3.59663 53.9296 3.59814 52.8553Z" fill="white" stroke="#060606" stroke-width="1.5" stroke-linejoin="round"/>
<mask id="mask0_3754_37701" style="mask-type:alpha" maskUnits="userSpaceOnUse" x="2" y="6" width="63" height="75">
<path d="M3.59814 52.8553L3.66209 7.26758L44.0819 29.7629L56.6709 34.4838L63.5161 31.2579V67.2965C63.5161 71.7793 61.1424 75.9269 57.2773 78.1977C53.3525 80.5035 48.4913 80.5215 44.5495 78.2449L5.09934 55.4601C4.16907 54.9228 3.59663 53.9296 3.59814 52.8553Z" fill="white" stroke="#060606" stroke-width="1.5" stroke-linejoin="round"/>
</mask>
<g mask="url(#mask0_3754_37701)">
<rect x="51.0879" y="29.125" width="16.75" height="58.875" fill="#B0F127"/>
</g>
<path d="M3.59814 52.8542L3.66217 7.26758L44.1304 29.7629L56.7345 34.4838L63.5879 31.2579V67.2835C63.5879 71.774 61.2089 75.9284 57.3359 78.201C53.4093 80.5051 48.5479 80.5231 44.6044 78.2482L5.10069 55.4599C4.16966 54.9228 3.59663 53.9291 3.59814 52.8542Z" stroke="#060606" stroke-width="1.5" stroke-linejoin="round"/>
<path fill-rule="evenodd" clip-rule="evenodd" d="M12.781 1.39109C13.6842 0.869638 15.1485 0.869637 16.0517 1.39109L61.1611 27.435C64.3975 29.3035 64.3975 32.333 61.1611 34.2016C57.9247 36.0701 52.6775 36.0701 49.4411 34.2016L4.33168 8.15764C3.4285 7.63619 3.4285 6.79075 4.33168 6.2693C5.23486 5.74785 6.6992 5.74785 7.60238 6.2693L52.7118 32.3132C54.1418 33.1388 56.4603 33.1388 57.8904 32.3132C59.3204 31.4876 59.3204 30.149 57.8904 29.3233L12.781 3.27943C11.8778 2.75798 11.8778 1.91254 12.781 1.39109Z" fill="#060606" stroke="#060606" stroke-width="1.5"/>
<path fill-rule="evenodd" clip-rule="evenodd" d="M3.61955 27.0096C4.37348 25.7362 5.91136 25.4538 7.68596 26.4784L18.0234 32.4467C20.4722 33.8605 22.4702 37.2424 22.5796 40.102L22.5859 40.0984C22.5859 40.1469 22.5851 40.1957 22.5835 40.2446C22.5841 40.2787 22.5844 40.3126 22.5844 40.3465C22.5844 41.3067 22.3618 42.0784 21.9731 42.629C21.3904 43.889 20.4465 45.0342 19.3811 45.6493L18.9922 45.8738V43.4201C18.68 43.3178 18.3558 43.1717 18.0234 42.9798L7.68596 37.0115C5.16701 35.5572 3.125 32.0203 3.125 29.1117C3.125 28.832 3.14387 28.5684 3.18023 28.3216L2.26367 27.7924L3.61955 27.0096Z" fill="#060606"/>
<path d="M7.68596 26.4784L8.06096 25.8289L8.06096 25.8289L7.68596 26.4784ZM3.61955 27.0096L3.99455 27.6591C4.10615 27.5947 4.19926 27.5026 4.26491 27.3917L3.61955 27.0096ZM18.0234 32.4467L17.6484 33.0962L17.6484 33.0962L18.0234 32.4467ZM22.5796 40.102L21.8302 40.1307C21.8402 40.3933 21.987 40.6316 22.2171 40.7586C22.4472 40.8856 22.727 40.883 22.9546 40.7516L22.5796 40.102ZM22.5859 40.0984H23.3359C23.3359 39.8304 23.193 39.5829 22.9609 39.4489C22.7289 39.3149 22.443 39.3149 22.2109 39.4489L22.5859 40.0984ZM22.5835 40.2446L21.8339 40.2201C21.8335 40.2323 21.8334 40.2445 21.8336 40.2568L22.5835 40.2446ZM21.9731 42.629L21.3604 42.1965C21.3342 42.2336 21.3114 42.273 21.2924 42.3142L21.9731 42.629ZM19.3811 45.6493L19.0061 44.9998L19.0061 44.9998L19.3811 45.6493ZM18.9922 45.8738H18.2422C18.2422 46.1418 18.3851 46.3894 18.6172 46.5234C18.8492 46.6573 19.1351 46.6573 19.3672 46.5234L18.9922 45.8738ZM18.9922 43.4201H19.7422C19.7422 43.0958 19.5338 42.8083 19.2257 42.7073L18.9922 43.4201ZM18.0234 42.9798L17.6484 43.6293L17.6484 43.6293L18.0234 42.9798ZM7.68596 37.0115L7.31096 37.661L7.31096 37.661L7.68596 37.0115ZM3.125 29.1117L3.875 29.1117V29.1117H3.125ZM3.18023 28.3216L3.92222 28.4308C3.96703 28.1266 3.82156 27.8258 3.55523 27.672L3.18023 28.3216ZM2.26367 27.7924L1.88867 27.1429C1.65662 27.2768 1.51367 27.5244 1.51367 27.7924C1.51367 28.0603 1.65662 28.3079 1.88867 28.4419L2.26367 27.7924ZM8.06096 25.8289C7.07343 25.2587 6.07519 25.0075 5.16226 25.14C4.22825 25.2756 3.46196 25.8036 2.97419 26.6275L4.26491 27.3917C4.53107 26.9421 4.91069 26.6923 5.37775 26.6245C5.86589 26.5536 6.52389 26.6735 7.31096 27.1279L8.06096 25.8289ZM18.3984 31.7972L8.06096 25.8289L7.31096 27.1279L17.6484 33.0962L18.3984 31.7972ZM23.3291 40.0734C23.2686 38.492 22.6917 36.811 21.8236 35.3493C20.956 33.8882 19.7602 32.5834 18.3984 31.7972L17.6484 33.0962C18.7354 33.7238 19.7629 34.8169 20.5339 36.1151C21.3045 37.4127 21.7813 38.8524 21.8302 40.1307L23.3291 40.0734ZM22.2109 39.4489L22.2046 39.4525L22.9546 40.7516L22.9609 40.7479L22.2109 39.4489ZM23.3331 40.2692C23.335 40.2121 23.3359 40.1552 23.3359 40.0984H21.8359C21.8359 40.1386 21.8353 40.1792 21.8339 40.2201L23.3331 40.2692ZM23.3344 40.3465C23.3344 40.3086 23.334 40.2705 23.3334 40.2325L21.8336 40.2568C21.8341 40.2868 21.8344 40.3167 21.8344 40.3465H23.3344ZM22.5858 43.0616C23.087 42.3516 23.3344 41.416 23.3344 40.3465H21.8344C21.8344 41.1974 21.6367 41.8051 21.3604 42.1965L22.5858 43.0616ZM19.7561 46.2988C20.9866 45.5884 22.0231 44.3077 22.6538 42.9439L21.2924 42.3142C20.7577 43.4704 19.9063 44.48 19.0061 44.9998L19.7561 46.2988ZM19.3672 46.5234L19.7561 46.2988L19.0061 44.9998L18.6172 45.2243L19.3672 46.5234ZM18.2422 43.4201V45.8738H19.7422V43.4201H18.2422ZM17.6484 43.6293C18.0206 43.8442 18.392 44.0127 18.7587 44.1328L19.2257 42.7073C18.968 42.6229 18.6911 42.4992 18.3984 42.3303L17.6484 43.6293ZM7.31096 37.661L17.6484 43.6293L18.3984 42.3303L8.06096 36.3619L7.31096 37.661ZM2.375 29.1117C2.375 30.7286 2.9376 32.4685 3.81135 33.9819C4.68511 35.4953 5.91064 36.8525 7.31096 37.661L8.06096 36.3619C6.94233 35.7161 5.88738 34.5777 5.11039 33.2319C4.3334 31.8861 3.875 30.4033 3.875 29.1117L2.375 29.1117ZM2.43823 28.2123C2.39613 28.4981 2.375 28.7984 2.375 29.1117H3.875C3.875 28.8656 3.89161 28.6387 3.92222 28.4308L2.43823 28.2123ZM3.55523 27.672L2.63867 27.1429L1.88867 28.4419L2.80523 28.9711L3.55523 27.672ZM2.63867 28.4419L3.99455 27.6591L3.24455 26.3601L1.88867 27.1429L2.63867 28.4419Z" fill="#060606"/>
<path d="M1 31.16C1 27.8884 3.2968 26.5624 6.13004 28.1982L15.3293 33.5094C18.1626 35.1451 20.4594 39.1233 20.4594 42.3948V42.3948C20.4594 45.6664 18.1626 46.9924 15.3293 45.3567L6.13004 40.0455C3.2968 38.4097 1 34.4315 1 31.16V31.16Z" fill="#E7E7E7" stroke="#060606" stroke-width="1.5"/>
</g>
<defs>
<clipPath id="clip0_3754_37701">
<rect width="65" height="82" fill="white"/>
</clipPath>
</defs>
</svg>
