<svg width="113" height="106" viewBox="0 0 113 106" fill="none" xmlns="http://www.w3.org/2000/svg">
<circle cx="56" cy="53" r="50" fill="#141414"/>
<rect width="14.7887" height="54.15" rx="0.649734" transform="matrix(0.866025 0.5 -2.20305e-08 1 62.6201 14.6406)" fill="#060606" stroke="#060606" stroke-width="1.5" stroke-linejoin="round"/>
<rect width="14.7887" height="54.15" rx="0.649734" transform="matrix(0.866025 -0.5 2.20305e-08 1 75.4268 22.0352)" fill="#B0F127" stroke="#060606" stroke-width="1.5" stroke-linejoin="round"/>
<rect width="14.7887" height="14.7887" rx="0.649734" transform="matrix(0.866025 -0.5 0.866025 0.5 62.6201 14.6406)" fill="#B0F127" stroke="#060606" stroke-width="1.5" stroke-linejoin="round"/>
<rect width="14.7887" height="40.87" rx="0.649734" transform="matrix(0.866025 0.5 -2.20305e-08 1 43.1914 39.2285)" fill="#060606" stroke="#060606" stroke-width="1.5" stroke-linejoin="round"/>
<rect width="14.7887" height="40.87" rx="0.649734" transform="matrix(0.866025 -0.5 2.20305e-08 1 55.998 46.623)" fill="white" stroke="#060606" stroke-width="1.5" stroke-linejoin="round"/>
<rect width="14.7887" height="14.7887" rx="0.649734" transform="matrix(0.866025 -0.5 0.866025 0.5 43.1914 39.2285)" fill="white" stroke="#060606" stroke-width="1.5" stroke-linejoin="round"/>
<rect width="14.7887" height="24.3" rx="0.649734" transform="matrix(0.866025 0.5 -2.20305e-08 1 23.7646 67.0586)" fill="#060606" stroke="#060606" stroke-width="1.5" stroke-linejoin="round"/>
<rect width="14.7887" height="24.3" rx="0.649734" transform="matrix(0.866025 -0.5 2.20305e-08 1 36.5723 74.4531)" fill="#E7E7E7" stroke="#060606" stroke-width="1.5" stroke-linejoin="round"/>
<rect width="14.7887" height="14.7887" rx="0.649734" transform="matrix(0.866025 -0.5 0.866025 0.5 23.7646 67.0586)" fill="white" stroke="#060606" stroke-width="1.5" stroke-linejoin="round"/>
</svg>
