<svg width="626" height="443" viewBox="0 0 626 443" fill="none" xmlns="http://www.w3.org/2000/svg">
<path d="M0 0H626V443H0V0Z" fill="#141414"/>
<mask id="mask0_3760_41724" style="mask-type:alpha" maskUnits="userSpaceOnUse" x="0" y="0" width="626" height="443">
<path d="M0 0H626V443H0V0Z" fill="#060606"/>
</mask>
<g mask="url(#mask0_3760_41724)">
<g opacity="0.1">
<path d="M-407.685 248.27L444.484 740.27" stroke="white" stroke-linejoin="round"/>
<path d="M-282.977 176.27L569.192 668.27" stroke="white" stroke-linejoin="round"/>
<path d="M-158.27 104.27L693.899 596.27" stroke="white" stroke-linejoin="round"/>
<path d="M-33.5615 32.2695L818.607 524.27" stroke="white" stroke-linejoin="round"/>
<path d="M91.1465 -39.7305L943.315 452.27" stroke="white" stroke-linejoin="round"/>
<path d="M215.854 -111.73L1068.02 380.27" stroke="white" stroke-linejoin="round"/>
<path d="M444.484 -111.73L-407.685 380.27" stroke="white" stroke-linejoin="round"/>
<path d="M569.192 -39.7305L-282.977 452.27" stroke="white" stroke-linejoin="round"/>
<path d="M693.899 32.2695L-158.27 524.27" stroke="white" stroke-linejoin="round"/>
<path d="M818.607 104.27L-33.5617 596.27" stroke="white" stroke-linejoin="round"/>
<path d="M943.315 176.27L91.1463 668.27" stroke="white" stroke-linejoin="round"/>
<path d="M1068.02 248.27L215.853 740.27" stroke="white" stroke-linejoin="round"/>
</g>
<path fill-rule="evenodd" clip-rule="evenodd" d="M198.28 378.215C197.179 378.851 196.5 380.027 196.5 381.299V531.137C196.5 533.878 193.533 535.592 191.159 534.221L44.9152 449.787C43.8135 449.151 43.1348 447.976 43.1348 446.704L43.1348 190.786C43.1348 188.045 46.1022 186.331 48.4762 187.702L154.077 248.671C155.179 249.307 156.536 249.307 157.638 248.671L331.692 148.181C334.066 146.81 337.034 148.523 337.034 151.265V296.05C337.034 297.322 336.355 298.498 335.253 299.134L198.28 378.215Z" fill="#71A407"/>
<path d="M186.205 274.549C186.205 272.583 187.586 270.191 189.289 269.208L390.824 152.851C392.528 151.868 393.908 152.665 393.908 154.632L393.908 467.849C393.908 469.816 392.528 472.207 390.824 473.191L189.289 589.547C187.586 590.531 186.205 589.733 186.205 587.767L186.205 274.549Z" fill="#547907"/>
<rect width="245.762" height="182.078" rx="18.9918" transform="matrix(0.866025 -0.5 0.866025 0.5 33.4082 190.214)" fill="#B0F127" stroke="#060606" stroke-width="1.64419"/>
<rect opacity="0.4" width="237.186" height="181.278" rx="12.1965" transform="matrix(0.866025 -0.5 0.866025 0.5 36.0957 170.956)" fill="#060606"/>
<rect width="237.186" height="183.308" rx="12.1965" transform="matrix(0.866025 -0.5 0.866025 0.5 36.0957 152.748)" fill="white" stroke="#060606" stroke-width="1.40786"/>
<path d="M114.491 133.597L106.886 129.206L109.928 127.45C110.47 127.136 111.017 126.946 111.57 126.879C112.119 126.81 112.635 126.825 113.118 126.925C113.6 127.025 114.008 127.171 114.343 127.364C114.769 127.61 115.026 127.87 115.114 128.145C115.205 128.417 115.131 128.677 114.892 128.925L114.628 128.773C115.202 128.555 115.778 128.477 116.355 128.538C116.936 128.597 117.438 128.748 117.86 128.992C118.314 129.255 118.629 129.534 118.805 129.831C118.985 130.126 119.003 130.429 118.858 130.74C118.71 131.049 118.378 131.352 117.86 131.651L114.491 133.597ZM114.596 131.974L116.36 130.956C116.554 130.844 116.686 130.721 116.756 130.587C116.823 130.451 116.825 130.316 116.762 130.182C116.698 130.043 116.564 129.915 116.36 129.797C116.181 129.694 115.984 129.623 115.769 129.584C115.554 129.545 115.33 129.546 115.098 129.587C114.866 129.624 114.639 129.706 114.417 129.834L112.653 130.852L114.596 131.974ZM111.311 130.078L112.875 129.175C113.037 129.082 113.153 128.982 113.223 128.877C113.294 128.771 113.308 128.663 113.265 128.553C113.22 128.442 113.103 128.332 112.917 128.224C112.684 128.09 112.417 128.019 112.114 128.011C111.811 128.002 111.523 128.078 111.248 128.236L109.685 129.139L111.311 130.078ZM114.826 125.902L113.558 125.17L114.995 124.341L116.262 125.073L114.826 125.902ZM121.322 129.653L115.618 126.36L117.054 125.53L122.758 128.823L121.322 129.653ZM127.764 125.933C127.443 126.204 127.088 126.446 126.697 126.659C126.313 126.873 125.91 127.03 125.487 127.132C125.065 127.229 124.637 127.242 124.204 127.171C123.803 127.102 123.465 126.992 123.19 126.842C122.912 126.69 122.602 126.515 122.261 126.318L117.391 123.506L118.828 122.677L123.613 125.439C123.834 125.568 124.037 125.682 124.22 125.784C124.403 125.882 124.581 125.942 124.753 125.964C125.081 126.007 125.392 125.953 125.688 125.802C125.984 125.652 126.278 125.466 126.57 125.244L127.764 125.933ZM119.113 125.622L118.004 124.982L122.06 122.64L123.169 123.281L119.113 125.622ZM131.398 124.018C130.806 124.36 130.167 124.576 129.48 124.668C128.794 124.759 128.111 124.739 127.431 124.607C126.752 124.475 126.127 124.244 125.557 123.915C124.979 123.581 124.579 123.216 124.358 122.82C124.139 122.422 124.113 122.024 124.278 121.628C124.444 121.231 124.817 120.866 125.398 120.53C126.071 120.142 126.805 119.915 127.6 119.85C128.396 119.781 129.151 119.88 129.866 120.146L128.81 121.195C128.43 121.073 128.051 121.025 127.674 121.052C127.301 121.076 126.982 121.164 126.718 121.317C126.416 121.492 126.241 121.678 126.196 121.875C126.146 122.07 126.203 122.267 126.365 122.466C126.523 122.663 126.761 122.854 127.078 123.036C127.574 123.323 128.086 123.493 128.614 123.546C129.142 123.594 129.623 123.494 130.056 123.244C130.38 123.057 130.553 122.872 130.574 122.689C130.595 122.506 130.51 122.311 130.32 122.103L132.095 121.433C132.538 121.876 132.699 122.322 132.575 122.771C132.452 123.22 132.059 123.636 131.398 124.018ZM137.454 120.522C136.88 120.853 136.248 121.07 135.558 121.171C134.868 121.273 134.176 121.264 133.482 121.144C132.789 121.02 132.148 120.788 131.56 120.449C130.965 120.105 130.565 119.732 130.361 119.33C130.153 118.925 130.139 118.525 130.319 118.128C130.498 117.732 130.87 117.371 131.433 117.046C132.007 116.714 132.639 116.498 133.329 116.396C134.023 116.293 134.718 116.302 135.415 116.424C136.109 116.544 136.75 116.773 137.337 117.113C137.929 117.454 138.329 117.827 138.536 118.232C138.744 118.632 138.758 119.033 138.579 119.433C138.399 119.83 138.024 120.193 137.454 120.522ZM136.112 119.747C136.573 119.481 136.762 119.193 136.677 118.884C136.593 118.571 136.306 118.274 135.816 117.991C135.309 117.698 134.788 117.532 134.253 117.491C133.722 117.448 133.229 117.558 132.774 117.82C132.461 118.001 132.275 118.19 132.215 118.387C132.155 118.585 132.201 118.784 132.352 118.985C132.507 119.184 132.75 119.379 133.081 119.57C133.591 119.865 134.112 120.034 134.644 120.077C135.176 120.115 135.665 120.006 136.112 119.747ZM134.96 114.278L133.693 113.546L135.129 112.716L136.397 113.448L134.96 114.278ZM141.456 118.028L135.753 114.735L137.189 113.906L142.893 117.199L141.456 118.028ZM148.363 114.04L145.67 112.485C145.539 112.41 145.367 112.319 145.152 112.211C144.934 112.101 144.686 112.009 144.407 111.933C144.129 111.858 143.837 111.83 143.531 111.848C143.228 111.864 142.923 111.961 142.617 112.138C142.494 112.209 142.381 112.296 142.279 112.4C142.177 112.504 142.121 112.623 142.11 112.76C142.096 112.894 142.156 113.046 142.29 113.217C142.427 113.386 142.673 113.573 143.029 113.778L141.814 114.028C141.364 113.768 141.033 113.471 140.822 113.138C140.61 112.804 140.566 112.462 140.69 112.11C140.816 111.756 141.16 111.418 141.719 111.095C142.166 110.837 142.607 110.67 143.04 110.595C143.473 110.52 143.883 110.504 144.27 110.549C144.661 110.592 145.017 110.667 145.337 110.775C145.654 110.88 145.923 110.989 146.145 111.101C146.367 111.213 146.525 111.296 146.62 111.351L149.821 113.199L148.363 114.04ZM144.466 116.291L138.762 112.997L140.04 112.26L141.931 113.351L142.11 113.248L145.923 115.449L144.466 116.291Z" fill="#060606"/>
<path d="M137.757 145.734L135.856 144.637L138.01 143.393L139.912 144.49L137.757 145.734ZM125.098 138.426L123.197 137.328L125.351 136.084L127.253 137.182L125.098 138.426ZM137.503 144.326C136.685 144.798 135.803 145.134 134.858 145.332C133.907 145.527 132.951 145.582 131.99 145.497C131.023 145.408 130.104 145.176 129.233 144.801L131.039 143.374C131.805 143.652 132.6 143.766 133.424 143.717C134.253 143.666 134.984 143.457 135.618 143.091C136.215 142.746 136.569 142.38 136.68 141.993C136.796 141.603 136.648 141.289 136.236 141.051C135.956 140.889 135.639 140.807 135.285 140.804C134.932 140.795 134.514 140.862 134.034 141.005L130.342 142.13C128.214 142.78 126.408 142.676 124.924 141.819C124.226 141.417 123.785 140.973 123.601 140.488C123.421 140.001 123.495 139.504 123.822 138.997C124.15 138.485 124.728 137.993 125.557 137.52C126.323 137.09 127.131 136.782 127.981 136.596C128.826 136.407 129.693 136.343 130.58 136.404C131.467 136.459 132.354 136.639 133.242 136.944L131.419 138.453C131.008 138.301 130.574 138.209 130.12 138.179C129.661 138.145 129.209 138.174 128.766 138.266C128.322 138.351 127.913 138.496 127.538 138.7C127.179 138.895 126.912 139.107 126.738 139.336C126.569 139.561 126.5 139.781 126.532 139.994C126.563 140.202 126.703 140.377 126.952 140.52C127.226 140.679 127.58 140.749 128.013 140.731C128.441 140.709 128.98 140.594 129.629 140.383L132.212 139.551C133.511 139.136 134.63 138.944 135.571 138.974C136.516 139.002 137.398 139.252 138.216 139.725C138.935 140.139 139.384 140.609 139.563 141.133C139.743 141.658 139.658 142.197 139.31 142.752C138.966 143.304 138.364 143.829 137.503 144.326ZM147.4 138.612C146.629 139.057 145.786 139.364 144.873 139.531C143.959 139.693 143.056 139.714 142.164 139.595C141.271 139.47 140.471 139.204 139.763 138.795C139.161 138.447 138.728 138.042 138.464 137.578C138.205 137.112 138.163 136.633 138.337 136.142L138.955 136.554C138.195 136.56 137.495 136.507 136.856 136.394C136.222 136.278 135.644 136.069 135.121 135.767C134.461 135.386 134.041 134.964 133.861 134.5C133.687 134.034 133.74 133.564 134.02 133.092C134.3 132.613 134.799 132.166 135.517 131.752C136.235 131.337 137.006 131.05 137.83 130.892C138.654 130.727 139.467 130.697 140.27 130.8C141.078 130.901 141.812 131.142 142.472 131.523C142.995 131.825 143.362 132.156 143.574 132.515C143.78 132.872 143.867 133.285 143.835 133.755L143.17 133.371C143.988 133.264 144.801 133.288 145.61 133.444C146.423 133.596 147.131 133.846 147.733 134.194C148.44 134.602 148.9 135.066 149.111 135.584C149.317 136.1 149.277 136.622 148.992 137.153C148.702 137.681 148.171 138.167 147.4 138.612ZM145.372 137.441C145.879 137.148 146.153 136.831 146.196 136.49C146.238 136.148 145.99 135.822 145.451 135.511C144.918 135.203 144.353 135.06 143.756 135.081C143.154 135.099 142.599 135.255 142.092 135.548C141.585 135.84 141.319 136.159 141.292 136.504C141.26 136.845 141.511 137.17 142.045 137.478C142.583 137.789 143.146 137.934 143.732 137.912C144.318 137.891 144.865 137.734 145.372 137.441ZM140.048 134.368C140.46 134.13 140.695 133.878 140.753 133.613C140.806 133.345 140.619 133.087 140.191 132.84C139.763 132.593 139.317 132.485 138.852 132.515C138.382 132.543 137.941 132.675 137.529 132.913C137.117 133.151 136.888 133.406 136.84 133.677C136.787 133.945 136.975 134.203 137.402 134.45C137.83 134.697 138.277 134.805 138.741 134.775C139.201 134.741 139.636 134.605 140.048 134.368ZM155.196 136.306L154.419 135.712C154.694 135.578 154.858 135.434 154.911 135.282C154.969 135.133 154.929 134.985 154.792 134.838C154.665 134.692 154.456 134.556 154.166 134.431L153.057 135.072L150.902 133.828L153.057 132.583L155.212 133.828C155.972 134.267 156.371 134.701 156.408 135.131C156.445 135.561 156.041 135.953 155.196 136.306ZM158.799 131.757L153.253 124.128L148.373 126.945L146.346 125.774L153.539 121.621L155.567 122.792L161.128 130.412L158.799 131.757ZM158.877 118.283C159.632 117.847 160.485 117.559 161.436 117.418C162.392 117.275 163.361 117.286 164.343 117.451C165.32 117.612 166.223 117.932 167.052 118.411L170.364 120.323C171.262 120.841 171.864 121.39 172.17 121.969C172.471 122.546 172.481 123.119 172.202 123.689C171.916 124.256 171.346 124.787 170.49 125.281C169.936 125.601 169.326 125.858 168.661 126.054C167.995 126.243 167.258 126.348 166.45 126.369L166.45 124.595C166.831 124.595 167.198 124.553 167.551 124.471C167.911 124.386 168.22 124.268 168.478 124.119C168.89 123.881 169.152 123.62 169.263 123.337C169.373 123.047 169.358 122.767 169.215 122.495C169.072 122.218 168.827 121.978 168.478 121.777L166.783 120.798L167.544 120.817C167.554 121.195 167.433 121.561 167.179 121.914C166.92 122.265 166.561 122.573 166.102 122.838C165.384 123.253 164.589 123.526 163.717 123.657C162.851 123.785 161.982 123.777 161.111 123.634C160.245 123.488 159.453 123.207 158.734 122.793C158.016 122.378 157.551 121.899 157.34 121.356C157.124 120.811 157.147 120.266 157.411 119.724C157.67 119.178 158.159 118.698 158.877 118.283ZM160.937 119.472C160.609 119.661 160.387 119.881 160.271 120.131C160.16 120.378 160.158 120.626 160.263 120.876C160.374 121.123 160.593 121.341 160.921 121.53C161.248 121.719 161.629 121.847 162.062 121.914C162.489 121.978 162.92 121.98 163.353 121.919C163.781 121.855 164.158 121.728 164.486 121.539C164.813 121.35 165.032 121.132 165.143 120.885C165.254 120.632 165.254 120.382 165.143 120.135C165.032 119.882 164.813 119.661 164.486 119.472C164.169 119.289 163.796 119.166 163.369 119.102C162.941 119.038 162.511 119.036 162.077 119.097C161.644 119.158 161.264 119.283 160.937 119.472ZM180.758 119.353C179.987 119.798 179.145 120.104 178.231 120.272C177.318 120.433 176.414 120.455 175.522 120.336C174.629 120.211 173.829 119.944 173.122 119.535C172.52 119.188 172.087 118.782 171.822 118.319C171.564 117.852 171.521 117.374 171.696 116.883L172.314 117.294C171.553 117.3 170.853 117.247 170.214 117.134C169.581 117.018 169.002 116.81 168.479 116.508C167.819 116.127 167.399 115.704 167.22 115.241C167.046 114.774 167.098 114.305 167.378 113.832C167.658 113.353 168.157 112.907 168.876 112.492C169.594 112.077 170.365 111.791 171.189 111.632C172.013 111.467 172.826 111.437 173.629 111.541C174.437 111.641 175.171 111.882 175.831 112.263C176.354 112.565 176.721 112.896 176.932 113.256C177.138 113.613 177.225 114.026 177.193 114.495L176.528 114.111C177.347 114.004 178.16 114.029 178.968 114.184C179.781 114.337 180.489 114.587 181.091 114.934C181.799 115.343 182.258 115.806 182.469 116.325C182.675 116.84 182.636 117.363 182.351 117.894C182.06 118.421 181.529 118.907 180.758 119.353ZM178.73 118.182C179.237 117.889 179.512 117.572 179.554 117.23C179.596 116.889 179.348 116.563 178.81 116.252C178.276 115.944 177.711 115.8 177.114 115.822C176.512 115.84 175.958 115.995 175.451 116.288C174.944 116.581 174.677 116.9 174.651 117.244C174.619 117.586 174.87 117.91 175.403 118.218C175.942 118.529 176.504 118.674 177.09 118.653C177.677 118.631 178.223 118.474 178.73 118.182ZM173.407 115.108C173.819 114.87 174.054 114.619 174.112 114.353C174.165 114.085 173.977 113.828 173.549 113.581C173.122 113.334 172.675 113.225 172.211 113.256C171.741 113.283 171.3 113.416 170.888 113.654C170.476 113.892 170.246 114.146 170.198 114.418C170.146 114.686 170.333 114.943 170.761 115.19C171.189 115.437 171.635 115.546 172.1 115.515C172.559 115.482 172.995 115.346 173.407 115.108ZM186.922 115.519L184.767 114.275L186.922 113.031L189.077 114.275L186.922 115.519ZM191.316 112.964L189.446 111.885L189.985 106.671C190.027 106.281 189.982 105.962 189.85 105.715C189.718 105.468 189.531 105.274 189.288 105.134C188.939 104.933 188.559 104.796 188.147 104.723C187.73 104.646 187.315 104.639 186.903 104.7C186.486 104.758 186.103 104.887 185.755 105.088C185.39 105.299 185.153 105.534 185.042 105.793C184.931 106.046 184.936 106.296 185.058 106.543C185.174 106.787 185.396 106.997 185.723 107.174L183.505 108.455C182.723 108.003 182.219 107.514 181.992 106.987C181.765 106.459 181.802 105.929 182.103 105.395C182.404 104.861 182.961 104.36 183.774 103.89C184.519 103.46 185.348 103.171 186.262 103.021C187.175 102.866 188.092 102.858 189.011 102.998C189.93 103.139 190.772 103.43 191.538 103.872C192.103 104.198 192.494 104.515 192.71 104.823C192.921 105.128 193.03 105.462 193.035 105.825C193.035 106.185 193.006 106.61 192.948 107.101L192.568 110.449L191.918 110.275L197.273 107.183L199.301 108.354L191.316 112.964ZM204.744 105.468C204.173 105.797 203.516 106.046 202.771 106.213C202.021 106.378 201.245 106.451 200.442 106.433C199.645 106.412 198.882 106.285 198.153 106.053L199.69 104.526C200.218 104.703 200.759 104.765 201.314 104.713C201.868 104.655 202.335 104.517 202.716 104.297C203.043 104.108 203.262 103.89 203.373 103.643C203.489 103.393 203.492 103.145 203.381 102.898C203.276 102.648 203.059 102.428 202.732 102.239C202.24 101.955 201.652 101.811 200.965 101.804C200.278 101.792 199.674 101.937 199.151 102.239C198.992 102.33 198.863 102.433 198.763 102.545C198.657 102.655 198.575 102.773 198.517 102.898L195.855 102.477L196.473 98.644L197.091 98.8178L191.799 101.873L189.771 100.702L196.901 96.5859L198.929 97.7567L198.834 100.958L198.216 100.62C198.971 100.3 199.753 100.114 200.561 100.062C201.369 100.004 202.151 100.059 202.906 100.227C203.661 100.388 204.332 100.638 204.918 100.977C205.636 101.391 206.101 101.87 206.312 102.413C206.518 102.952 206.489 103.494 206.225 104.036C205.956 104.576 205.462 105.053 204.744 105.468ZM218.623 97.4913C217.704 98.0219 216.711 98.3816 215.644 98.5707C214.572 98.7567 213.503 98.7674 212.436 98.6027C211.369 98.4381 210.379 98.092 209.465 97.5645L202.352 93.4573L204.522 92.1858L211.636 96.293C212.011 96.5095 212.415 96.6696 212.848 96.7732C213.281 96.8769 213.719 96.9287 214.163 96.9287C214.612 96.9257 215.045 96.8739 215.462 96.7732C215.879 96.6665 216.257 96.5156 216.595 96.3204C216.944 96.1192 217.205 95.8981 217.379 95.6573C217.559 95.4133 217.649 95.1633 217.649 94.9072C217.649 94.651 217.556 94.3995 217.371 94.1525C217.192 93.9025 216.917 93.6708 216.548 93.4573L209.434 89.3501L211.62 88.0878L218.75 92.2041C219.663 92.7316 220.263 93.3033 220.548 93.9193C220.833 94.5352 220.815 95.1526 220.493 95.7716C220.165 96.3875 219.542 96.9608 218.623 97.4913ZM229.307 91.3231C228.462 91.811 227.551 92.1662 226.574 92.3888C225.597 92.6053 224.612 92.68 223.619 92.6129C222.626 92.5397 221.686 92.3141 220.799 91.936L222.716 90.445C223.529 90.7316 224.361 90.8337 225.211 90.7514C226.061 90.6691 226.803 90.445 227.437 90.0791C227.791 89.8748 228.079 89.6446 228.301 89.3884C228.522 89.1323 228.631 88.8808 228.625 88.6338C228.625 88.3838 228.467 88.1673 228.15 87.9843C228.034 87.9172 227.904 87.8639 227.762 87.8242C227.619 87.7785 227.461 87.7511 227.287 87.7419C227.112 87.7328 226.909 87.7465 226.677 87.7831C226.45 87.8166 226.191 87.8776 225.9 87.966L222.066 89.1735C221.781 89.265 221.432 89.3625 221.02 89.4662C220.614 89.5668 220.165 89.6339 219.674 89.6674C219.183 89.701 218.668 89.669 218.129 89.5714C217.59 89.4677 217.049 89.2589 216.505 88.9448C215.739 88.5027 215.296 88.024 215.174 87.5087C215.053 86.9934 215.19 86.4781 215.586 85.9628C215.982 85.4475 216.574 84.9657 217.36 84.5175C218.158 84.0693 218.995 83.7415 219.872 83.5341C220.748 83.3268 221.644 83.246 222.557 83.2917C223.466 83.3344 224.369 83.5082 225.267 83.8131L223.334 85.3865C222.879 85.2218 222.412 85.1319 221.931 85.1166C221.451 85.1014 220.986 85.1471 220.537 85.2538C220.094 85.3575 219.695 85.5054 219.341 85.6975C218.992 85.8865 218.72 86.0984 218.525 86.3332C218.33 86.5619 218.235 86.7875 218.24 87.0101C218.25 87.2297 218.39 87.4172 218.66 87.5727C218.908 87.716 219.188 87.7892 219.499 87.7922C219.806 87.7922 220.123 87.7526 220.45 87.6733C220.777 87.594 221.094 87.5026 221.401 87.3989L223.92 86.5665C224.295 86.4415 224.728 86.3134 225.219 86.1823C225.705 86.0481 226.228 85.9536 226.788 85.8987C227.347 85.8377 227.92 85.8545 228.507 85.949C229.098 86.0405 229.682 86.2524 230.257 86.5848C230.87 86.9385 231.277 87.3227 231.477 87.7373C231.678 88.1459 231.712 88.5621 231.58 88.986C231.443 89.4067 231.174 89.8184 230.772 90.2209C230.376 90.6203 229.888 90.9877 229.307 91.3231ZM235.389 87.537L223.982 80.9509L227.673 78.8196C227.763 78.7678 227.95 78.6626 228.236 78.504C228.521 78.3454 228.809 78.2006 229.099 78.0695C230.129 77.603 231.227 77.3377 232.395 77.2737C233.562 77.2096 234.718 77.3164 235.864 77.5938C237.01 77.8713 238.067 78.289 239.033 78.847C240 79.405 240.723 80.0148 241.204 80.6765C241.684 81.3382 241.869 82.0059 241.758 82.6798C241.647 83.3536 241.188 83.9879 240.38 84.5824C240.153 84.7501 239.902 84.9163 239.627 85.081C239.353 85.2456 239.17 85.3539 239.081 85.4057L235.389 87.537ZM235.547 85.1038L237.053 84.2348C237.195 84.1525 237.385 84.0397 237.623 83.8964C237.855 83.75 238.051 83.6098 238.209 83.4756C238.605 83.131 238.777 82.7636 238.724 82.3733C238.677 81.98 238.471 81.5928 238.106 81.2116C237.747 80.8274 237.296 80.4783 236.752 80.1643C236.181 79.8349 235.561 79.5681 234.89 79.3639C234.225 79.1565 233.556 79.0422 232.886 79.0208C232.215 78.9995 231.592 79.1001 231.016 79.3227C230.779 79.4111 230.536 79.5239 230.287 79.6611C230.039 79.7984 229.844 79.9081 229.701 79.9905L228.196 80.8595L235.547 85.1038Z" fill="#060606"/>
<circle r="14.6838" transform="matrix(0.866025 -0.5 0.866025 0.5 97.5191 153.293)" fill="#060606"/>
<path d="M100.885 149.978C99.8023 149.133 98.1486 149.297 96.3666 149.799L95.072 148.555L93.7606 149.01L95.0212 150.221C94.6764 150.341 94.3281 150.467 93.9822 150.593L92.7136 149.373L91.4028 149.828L92.6965 151.072C92.4161 151.174 92.1404 151.273 91.8686 151.368L91.8644 151.364L90.0553 151.991L90.8972 152.8C90.8972 152.8 91.8546 152.453 91.8492 152.469C92.3805 152.285 92.7387 152.403 92.9489 152.539L94.4238 153.956C94.4606 153.944 94.5093 153.928 94.5679 153.913C94.5243 153.928 94.4773 153.945 94.4295 153.961L96.4952 155.947C96.5723 156.051 96.6342 156.239 96.2635 156.369C96.2892 156.371 95.31 156.699 95.31 156.699L95.9905 157.694L97.6971 157.102C98.015 156.992 98.3307 156.886 98.6386 156.781L99.9485 158.039L101.259 157.585L99.9632 156.34C100.327 156.219 100.677 156.1 101.017 155.982L102.306 157.221L103.617 156.766L102.311 155.51C104.439 154.672 105.649 153.816 104.596 152.555C103.749 151.538 102.518 151.381 101.086 151.642C101.614 151.154 101.679 150.596 100.885 149.978V149.978ZM101.85 153.304C102.829 154.244 99.9294 155.105 99.0411 155.414L97.3066 153.747C98.1958 153.438 100.829 152.324 101.85 153.304V153.304ZM98.7923 151.164C99.6821 152.02 97.2528 152.727 96.5125 152.984L94.9392 151.472C95.6795 151.215 97.8637 150.272 98.7923 151.164V151.164Z" fill="white"/>
<rect width="4.75388" height="36.364" rx="2.37694" transform="matrix(0.866025 -0.5 0.866025 0.5 127.476 184.982)" fill="#060606"/>
<rect width="4.75388" height="28.8434" rx="2.37694" transform="matrix(0.866025 -0.5 0.866025 0.5 176.355 164.281)" fill="#060606"/>
<rect width="4.75388" height="27.9507" rx="2.37694" transform="matrix(0.866025 -0.5 0.866025 0.5 219.504 140.265)" fill="#060606"/>
<rect width="4.75388" height="30.1826" rx="2.37694" transform="matrix(0.866025 -0.5 0.866025 0.5 268.688 109.637)" fill="#060606"/>
<rect width="4.75388" height="21.2549" rx="2.37694" transform="matrix(0.866025 -0.5 0.866025 0.5 149.309 187.488)" fill="#060606"/>
<rect width="4.75388" height="20.1389" rx="2.37694" transform="matrix(0.866025 -0.5 0.866025 0.5 235.016 139.119)" fill="#060606"/>
<rect width="4.75388" height="36.364" rx="2.37694" transform="matrix(0.866025 -0.5 0.866025 0.5 178.593 155.47)" fill="#060606"/>
<rect width="4.75388" height="36.364" rx="2.37694" transform="matrix(0.866025 -0.5 0.866025 0.5 272.08 101.495)" fill="#060606"/>
<rect width="4.75388" height="13.6664" rx="2.37694" transform="matrix(0.866025 -0.5 0.866025 0.5 249.369 137.305)" fill="#060606"/>
<rect width="4.75388" height="29.7362" rx="2.37694" transform="matrix(0.866025 -0.5 0.866025 0.5 150.712 178.194)" fill="#060606"/>
<rect width="4.75388" height="21.7013" rx="2.37694" transform="matrix(0.866025 -0.5 0.866025 0.5 200.045 157.748)" fill="#060606"/>
<rect width="4.75388" height="33.0841" rx="2.37694" transform="matrix(0.866025 -0.5 0.866025 0.5 241.991 122.146)" fill="#060606"/>
<rect width="4.75388" height="18.5783" rx="2.37694" transform="matrix(0.866025 -0.5 0.866025 0.5 296.235 105.338)" fill="#060606"/>
<rect width="4.75388" height="36.364" rx="2.37694" transform="matrix(0.866025 -0.5 0.866025 0.5 204.498 140.514)" fill="#060606"/>
<rect width="4.75388" height="36.364" rx="2.37694" transform="matrix(0.866025 -0.5 0.866025 0.5 246.866 116.053)" fill="#060606"/>
<rect width="4.75388" height="36.364" rx="2.37694" transform="matrix(0.866025 -0.5 0.866025 0.5 154.403 169.433)" fill="#060606"/>
<rect width="4.75388" height="14.336" rx="2.37694" transform="matrix(0.866025 -0.5 0.866025 0.5 215.854 155.985)" fill="#060606"/>
<rect width="4.75388" height="28.622" rx="2.37694" transform="matrix(0.866025 -0.5 0.866025 0.5 296.973 94.8682)" fill="#060606"/>
<rect width="4.75388" height="36.364" rx="2.37694" transform="matrix(0.866025 -0.5 0.866025 0.5 162.129 164.979)" fill="#060606"/>
<rect width="4.75388" height="22.8172" rx="2.37694" transform="matrix(0.866025 -0.5 0.866025 0.5 267.344 117.776)" fill="#060606"/>
<rect width="4.75388" height="36.364" rx="2.37694" transform="matrix(0.866025 -0.5 0.866025 0.5 297.983 86.54)" fill="#060606"/>
<rect width="89.8863" height="31.4665" rx="15.7332" transform="matrix(0.866025 -0.5 0.866025 0.5 209.975 188.228)" fill="#060606"/>
<path d="M244.107 187.755L238.364 184.439L240.661 183.113C241.071 182.877 241.484 182.733 241.901 182.682C242.316 182.63 242.706 182.642 243.07 182.717C243.434 182.792 243.743 182.903 243.995 183.049C244.317 183.234 244.511 183.431 244.577 183.638C244.647 183.844 244.591 184.04 244.41 184.227L244.211 184.112C244.644 183.948 245.079 183.889 245.515 183.935C245.953 183.98 246.332 184.094 246.651 184.278C246.994 184.476 247.232 184.687 247.365 184.911C247.501 185.134 247.514 185.363 247.405 185.597C247.293 185.831 247.042 186.06 246.651 186.286L244.107 187.755ZM244.187 186.53L245.519 185.761C245.665 185.676 245.765 185.584 245.818 185.482C245.868 185.379 245.87 185.277 245.822 185.176C245.774 185.072 245.673 184.975 245.519 184.886C245.383 184.808 245.234 184.754 245.072 184.725C244.91 184.696 244.741 184.696 244.565 184.727C244.39 184.755 244.219 184.817 244.051 184.914L242.719 185.683L244.187 186.53ZM241.706 185.098L242.887 184.416C243.009 184.346 243.097 184.27 243.15 184.191C243.203 184.111 243.214 184.029 243.182 183.947C243.147 183.862 243.059 183.779 242.918 183.698C242.743 183.597 242.541 183.543 242.312 183.537C242.084 183.531 241.866 183.587 241.658 183.707L240.478 184.389L241.706 185.098ZM250.916 183.971C250.578 184.166 250.246 184.292 249.919 184.348C249.592 184.405 249.281 184.418 248.986 184.385C248.693 184.351 248.428 184.295 248.188 184.215C247.946 184.134 247.742 184.051 247.574 183.966C247.407 183.882 247.287 183.819 247.215 183.777L244.799 182.382L245.899 181.747L247.933 182.921C248.031 182.978 248.163 183.048 248.328 183.13C248.49 183.212 248.676 183.281 248.886 183.338C249.096 183.394 249.316 183.417 249.544 183.404C249.776 183.391 250.007 183.317 250.238 183.183C250.331 183.13 250.416 183.064 250.493 182.985C250.571 182.907 250.614 182.817 250.625 182.716C250.633 182.613 250.585 182.498 250.481 182.371C250.378 182.24 250.193 182.098 249.927 181.945L250.844 181.756C251.185 181.952 251.435 182.176 251.594 182.428C251.754 182.68 251.786 182.939 251.69 183.206C251.597 183.472 251.339 183.727 250.916 183.971ZM252.184 183.091L250.757 182.267L250.621 182.345L247.742 180.683L248.834 180.052L253.141 182.539L252.184 183.091ZM256.721 182.683L255.269 180.887L255.955 181.264L249.47 179.685L250.595 179.035L255.117 180.191L254.862 180.339L252.852 177.732L253.937 177.106L257.726 182.102L256.721 182.683ZM260.402 178.347L254.659 175.031L256.956 173.705C257.365 173.469 257.779 173.325 258.196 173.275C258.611 173.222 259 173.234 259.365 173.309C259.729 173.384 260.037 173.495 260.29 173.641C260.612 173.826 260.806 174.023 260.872 174.23C260.941 174.436 260.885 174.632 260.705 174.82L260.505 174.705C260.939 174.54 261.373 174.481 261.809 174.527C262.248 174.572 262.627 174.686 262.946 174.87C263.289 175.068 263.527 175.279 263.66 175.503C263.795 175.726 263.809 175.955 263.7 176.19C263.588 176.423 263.337 176.652 262.946 176.878L260.402 178.347ZM260.481 177.122L261.813 176.353C261.96 176.269 262.059 176.176 262.112 176.074C262.163 175.972 262.164 175.87 262.116 175.768C262.069 175.664 261.968 175.567 261.813 175.478C261.678 175.4 261.529 175.346 261.367 175.317C261.205 175.288 261.036 175.289 260.86 175.319C260.685 175.347 260.513 175.409 260.346 175.506L259.014 176.275L260.481 177.122ZM258.001 175.69L259.181 175.008C259.304 174.938 259.391 174.863 259.444 174.783C259.498 174.703 259.508 174.622 259.476 174.539C259.442 174.454 259.354 174.371 259.213 174.29C259.038 174.189 258.836 174.135 258.607 174.129C258.378 174.123 258.16 174.18 257.953 174.299L256.773 174.981L258.001 175.69ZM260.655 172.537L259.697 171.984L260.782 171.358L261.739 171.911L260.655 172.537ZM265.56 175.369L261.253 172.882L262.338 172.256L266.645 174.743L265.56 175.369ZM270.424 172.56C270.182 172.765 269.914 172.947 269.619 173.108C269.329 173.27 269.025 173.388 268.706 173.465C268.387 173.539 268.064 173.549 267.736 173.495C267.433 173.443 267.178 173.36 266.971 173.246C266.761 173.131 266.527 172.999 266.269 172.85L262.592 170.728L263.677 170.101L267.29 172.187C267.457 172.284 267.61 172.371 267.748 172.448C267.887 172.521 268.021 172.566 268.151 172.583C268.398 172.616 268.634 172.575 268.857 172.461C269.08 172.348 269.302 172.207 269.523 172.04L270.424 172.56ZM263.892 172.326L263.055 171.842L266.117 170.074L266.955 170.557L263.892 172.326ZM273.168 171.114C272.722 171.372 272.239 171.536 271.721 171.605C271.202 171.674 270.687 171.658 270.173 171.559C269.66 171.459 269.188 171.285 268.758 171.036C268.322 170.784 268.02 170.509 267.852 170.209C267.688 169.908 267.668 169.608 267.793 169.309C267.918 169.01 268.199 168.733 268.638 168.48C269.146 168.187 269.7 168.016 270.301 167.967C270.902 167.915 271.472 167.989 272.012 168.19L271.214 168.982C270.927 168.89 270.641 168.854 270.357 168.874C270.075 168.892 269.834 168.959 269.635 169.074C269.406 169.206 269.275 169.347 269.24 169.496C269.203 169.643 269.246 169.792 269.368 169.942C269.488 170.091 269.667 170.235 269.906 170.373C270.281 170.589 270.668 170.717 271.067 170.757C271.466 170.794 271.828 170.718 272.156 170.529C272.4 170.388 272.53 170.248 272.546 170.11C272.562 169.972 272.498 169.825 272.355 169.668L273.695 169.162C274.03 169.496 274.151 169.833 274.058 170.173C273.965 170.512 273.668 170.826 273.168 171.114ZM277.742 168.474C277.308 168.724 276.831 168.888 276.31 168.964C275.789 169.041 275.266 169.034 274.743 168.944C274.219 168.85 273.735 168.675 273.291 168.419C272.842 168.159 272.54 167.878 272.386 167.574C272.229 167.268 272.218 166.966 272.354 166.666C272.489 166.367 272.77 166.095 273.195 165.849C273.629 165.599 274.106 165.435 274.627 165.359C275.151 165.28 275.676 165.287 276.202 165.379C276.726 165.47 277.21 165.643 277.654 165.9C278.101 166.158 278.402 166.439 278.559 166.745C278.716 167.047 278.727 167.35 278.591 167.652C278.455 167.951 278.172 168.225 277.742 168.474ZM276.729 167.889C277.077 167.688 277.219 167.471 277.155 167.237C277.092 167.001 276.875 166.776 276.505 166.563C276.122 166.342 275.729 166.216 275.325 166.185C274.923 166.153 274.551 166.236 274.208 166.434C273.972 166.571 273.831 166.713 273.785 166.862C273.74 167.011 273.775 167.162 273.889 167.313C274.006 167.464 274.19 167.611 274.44 167.756C274.825 167.978 275.219 168.106 275.62 168.138C276.021 168.167 276.391 168.084 276.729 167.889ZM275.859 163.759L274.902 163.206L275.986 162.58L276.944 163.132L275.859 163.759ZM280.764 166.591L276.457 164.104L277.542 163.478L281.849 165.964L280.764 166.591ZM285.98 163.58L283.946 162.405C283.847 162.348 283.717 162.279 283.555 162.198C283.39 162.115 283.203 162.045 282.993 161.989C282.783 161.932 282.562 161.91 282.331 161.924C282.102 161.936 281.872 162.009 281.641 162.143C281.548 162.197 281.463 162.263 281.385 162.341C281.308 162.419 281.266 162.51 281.258 162.613C281.247 162.714 281.292 162.829 281.393 162.958C281.497 163.085 281.683 163.226 281.952 163.382L281.035 163.57C280.694 163.374 280.444 163.15 280.285 162.898C280.125 162.646 280.092 162.388 280.185 162.122C280.281 161.855 280.54 161.599 280.963 161.355C281.3 161.16 281.633 161.035 281.96 160.978C282.287 160.921 282.596 160.909 282.889 160.943C283.184 160.975 283.453 161.032 283.695 161.114C283.934 161.193 284.137 161.276 284.305 161.36C284.472 161.444 284.592 161.507 284.664 161.549L287.08 162.944L285.98 163.58ZM283.036 165.279L278.729 162.792L279.695 162.235L281.122 163.059L281.258 162.981L284.137 164.643L283.036 165.279Z" fill="white"/>
<path fill-rule="evenodd" clip-rule="evenodd" d="M477.901 258.553C477.901 255.811 474.934 254.098 472.56 255.469L432.28 278.724C431.179 279.36 430.5 280.536 430.5 281.808V426.593C430.5 429.334 433.467 431.048 435.841 429.677L476.121 406.422C477.222 405.786 477.901 404.61 477.901 403.338V258.553ZM481 466.08C481 464.808 480.321 463.633 479.22 462.996L234.343 321.617C231.969 320.246 229.002 321.96 229.002 324.701L229.002 580.619C229.002 581.891 229.681 583.066 230.782 583.702L475.659 725.082C478.033 726.452 481 724.739 481 721.998L481 466.08Z" fill="#71A407"/>
<path d="M662.5 341.114C662.5 339.147 661.119 338.35 659.416 339.333L465.584 451.242C463.881 452.226 462.5 454.617 462.5 456.584L462.5 604.827C462.5 606.794 463.881 607.591 465.584 606.608L659.416 494.699C661.119 493.715 662.5 491.324 662.5 489.357L662.5 341.114Z" fill="#547907"/>
<rect width="245.762" height="281.928" rx="18.9918" transform="matrix(0.866025 -0.5 0.866025 0.5 219.275 324.131)" fill="#B0F127" stroke="#060606" stroke-width="1.64419"/>
<rect opacity="0.4" width="237.186" height="83.745" rx="12.1965" transform="matrix(0.866025 -0.5 0.866025 0.5 221.963 304.873)" fill="#060606"/>
<rect width="237.186" height="83.9858" rx="12.1965" transform="matrix(0.866025 -0.5 0.866025 0.5 221.963 286.663)" fill="white" stroke="#060606" stroke-width="1.40786"/>
<path d="M439.373 204.206L452.843 196.429" stroke="#060606" stroke-width="1.5"/>
<path d="M439.373 196.43H452.845L452.845 204.208" stroke="#060606" stroke-width="1.5"/>
<path d="M298.858 270.513L291.253 266.122L296.217 263.256L297.559 264.03L294.031 266.067L295.657 267.006L298.552 265.335L299.893 266.11L296.999 267.781L298.953 268.909L302.481 266.872L303.822 267.646L298.858 270.513ZM308.51 264.94C308.19 265.21 307.834 265.452 307.444 265.665C307.06 265.879 306.657 266.036 306.234 266.138C305.812 266.236 305.384 266.249 304.951 266.178C304.549 266.109 304.211 265.999 303.937 265.848C303.659 265.696 303.349 265.521 303.007 265.324L298.138 262.513L299.574 261.683L304.359 264.446C304.581 264.574 304.784 264.689 304.967 264.79C305.15 264.888 305.327 264.948 305.5 264.97C305.827 265.013 306.139 264.959 306.435 264.809C306.731 264.658 307.025 264.472 307.317 264.251L308.51 264.94ZM299.86 264.629L298.751 263.988L302.807 261.647L303.916 262.287L299.86 264.629ZM313.668 261.962L310.975 260.407C310.845 260.331 310.672 260.24 310.457 260.132C310.239 260.022 309.991 259.93 309.713 259.855C309.435 259.78 309.142 259.751 308.836 259.769C308.533 259.786 308.229 259.882 307.922 260.059C307.799 260.13 307.686 260.218 307.584 260.321C307.482 260.425 307.426 260.545 307.415 260.681C307.401 260.815 307.461 260.968 307.595 261.138C307.732 261.307 307.979 261.494 308.334 261.7L307.12 261.95C306.669 261.689 306.338 261.393 306.127 261.059C305.916 260.726 305.871 260.383 305.995 260.032C306.121 259.678 306.465 259.339 307.025 259.016C307.472 258.758 307.912 258.591 308.345 258.516C308.778 258.441 309.188 258.426 309.575 258.47C309.966 258.513 310.322 258.588 310.642 258.696C310.959 258.802 311.228 258.911 311.45 259.022C311.672 259.134 311.83 259.218 311.926 259.272L315.126 261.12L313.668 261.962ZM309.771 264.212L302.166 259.821L303.444 259.083L307.352 261.34L307.532 261.236L311.228 263.37L309.771 264.212ZM319.306 258.89C318.722 259.227 318.081 259.453 317.384 259.567C316.687 259.676 315.991 259.677 315.298 259.57C314.604 259.458 313.972 259.237 313.402 258.908C312.778 258.548 312.359 258.164 312.145 257.756C311.93 257.347 311.912 256.944 312.092 256.548C312.268 256.15 312.638 255.788 313.201 255.463C313.799 255.117 314.449 254.905 315.15 254.825C315.85 254.746 316.556 254.796 317.267 254.975C317.979 255.154 318.649 255.46 319.28 255.893L317.859 256.713L317.331 256.408C316.75 256.072 316.239 255.885 315.799 255.847C315.359 255.804 314.93 255.904 314.511 256.146C314.021 256.428 313.81 256.723 313.877 257.03C313.944 257.333 314.268 257.652 314.849 257.987C315.38 258.294 315.907 258.466 316.428 258.503C316.949 258.535 317.433 258.422 317.88 258.164C318.162 258.001 318.341 257.827 318.419 257.64C318.496 257.453 318.472 257.262 318.345 257.066L320.193 256.475C320.5 256.9 320.565 257.33 320.389 257.765C320.216 258.198 319.855 258.573 319.306 258.89ZM314.806 258.475L313.74 257.859L317.521 255.676L318.588 256.292L314.806 258.475ZM322.923 256.619L317.219 253.326L318.486 252.594L319.881 253.399L319.564 253.375C319.44 253.218 319.359 253.057 319.321 252.893C319.282 252.728 319.3 252.563 319.374 252.399C319.426 252.271 319.511 252.147 319.627 252.027C319.74 251.905 319.877 251.791 320.039 251.685C320.197 251.578 320.373 251.48 320.567 251.393L321.909 252.167C321.701 252.23 321.5 252.328 321.307 252.46C321.113 252.588 320.972 252.724 320.884 252.868C320.792 253.011 320.754 253.153 320.768 253.295C320.778 253.436 320.842 253.574 320.958 253.71C321.071 253.844 321.236 253.974 321.454 254.1L324.37 255.783L322.923 256.619ZM329.982 252.726C329.397 253.063 328.757 253.289 328.06 253.403C327.362 253.513 326.667 253.514 325.973 253.406C325.28 253.294 324.648 253.074 324.078 252.744C323.454 252.385 323.035 252 322.821 251.592C322.606 251.183 322.588 250.781 322.768 250.384C322.944 249.986 323.313 249.624 323.877 249.299C324.475 248.953 325.125 248.741 325.826 248.662C326.526 248.582 327.232 248.632 327.943 248.811C328.655 248.99 329.325 249.296 329.956 249.729L328.535 250.549L328.007 250.244C327.426 249.909 326.915 249.722 326.475 249.683C326.035 249.64 325.606 249.74 325.187 249.982C324.697 250.264 324.486 250.559 324.553 250.866C324.62 251.169 324.944 251.488 325.525 251.823C326.056 252.13 326.583 252.302 327.104 252.339C327.625 252.371 328.109 252.259 328.556 252C328.838 251.838 329.017 251.663 329.095 251.476C329.172 251.289 329.148 251.098 329.021 250.903L330.869 250.311C331.175 250.736 331.241 251.166 331.065 251.601C330.892 252.034 330.531 252.409 329.982 252.726ZM325.482 252.311L324.416 251.695L328.197 249.512L329.264 250.128L325.482 252.311ZM335.891 249.327C335.443 249.585 335.003 249.752 334.57 249.827C334.137 249.902 333.725 249.918 333.334 249.876C332.947 249.831 332.595 249.756 332.278 249.65C331.958 249.542 331.687 249.433 331.465 249.321C331.243 249.209 331.085 249.126 330.99 249.071L327.789 247.223L329.247 246.381L331.94 247.936C332.07 248.012 332.245 248.104 332.463 248.214C332.678 248.322 332.924 248.413 333.202 248.488C333.481 248.564 333.771 248.593 334.074 248.577C334.38 248.559 334.686 248.461 334.993 248.284C335.116 248.213 335.229 248.126 335.331 248.022C335.433 247.918 335.491 247.799 335.505 247.665C335.516 247.529 335.452 247.376 335.315 247.208C335.178 247.035 334.933 246.847 334.581 246.644L335.796 246.394C336.246 246.654 336.577 246.951 336.788 247.284C337 247.617 337.042 247.961 336.915 248.315C336.792 248.666 336.45 249.004 335.891 249.327ZM337.57 248.162L335.679 247.071L335.5 247.174L331.687 244.973L333.134 244.137L338.837 247.43L337.57 248.162ZM347.179 242.614L343.81 240.669C343.433 240.451 343.051 240.335 342.664 240.318C342.276 240.298 341.926 240.378 341.613 240.559C341.412 240.675 341.285 240.803 341.232 240.943C341.176 241.082 341.19 241.224 341.275 241.37C341.359 241.513 341.511 241.647 341.729 241.773L340.725 241.889C340.335 241.663 340.081 241.411 339.965 241.132C339.852 240.852 339.868 240.574 340.012 240.3C340.157 240.022 340.419 239.772 340.799 239.553C341.451 239.177 342.136 239.005 342.854 239.038C343.572 239.066 344.243 239.26 344.866 239.62L348.616 241.785L347.179 242.614ZM340.303 246.584L334.599 243.291L335.867 242.559L337.757 243.651L337.937 243.547L341.75 245.749L340.303 246.584ZM343.746 244.596L340.377 242.651C340 242.433 339.618 242.316 339.231 242.3C338.844 242.28 338.493 242.36 338.18 242.541C337.881 242.714 337.743 242.913 337.768 243.139C337.793 243.36 337.969 243.566 338.296 243.755L337.272 243.858C336.898 243.643 336.657 243.396 336.548 243.117C336.439 242.839 336.455 242.559 336.596 242.279C336.74 241.996 337.007 241.742 337.398 241.517C337.845 241.258 338.307 241.102 338.782 241.047C339.261 240.99 339.727 241.013 340.181 241.117C340.636 241.221 341.053 241.382 341.433 241.602L345.183 243.767L343.746 244.596Z" fill="#060606"/>
<path d="M322.124 282.65L320.223 281.553L322.378 280.309L324.279 281.406L322.124 282.65ZM309.465 275.342L307.564 274.244L309.719 273L311.62 274.098L309.465 275.342ZM321.871 281.242C321.052 281.714 320.17 282.05 319.225 282.248C318.274 282.443 317.318 282.498 316.357 282.413C315.391 282.324 314.472 282.092 313.6 281.717L315.406 280.29C316.172 280.568 316.967 280.682 317.791 280.633C318.62 280.582 319.352 280.373 319.985 280.007C320.582 279.662 320.936 279.296 321.047 278.909C321.163 278.519 321.015 278.205 320.603 277.967C320.323 277.805 320.006 277.723 319.653 277.72C319.299 277.711 318.881 277.778 318.401 277.921L314.709 279.046C312.581 279.696 310.775 279.592 309.291 278.735C308.594 278.333 308.153 277.889 307.968 277.404C307.788 276.917 307.862 276.42 308.19 275.913C308.517 275.401 309.095 274.909 309.924 274.436C310.69 274.006 311.498 273.698 312.349 273.512C313.194 273.323 314.06 273.259 314.947 273.32C315.834 273.375 316.721 273.555 317.609 273.86L315.787 275.369C315.375 275.217 314.942 275.125 314.487 275.095C314.028 275.061 313.576 275.09 313.133 275.182C312.689 275.267 312.28 275.412 311.905 275.616C311.546 275.811 311.279 276.023 311.105 276.252C310.936 276.477 310.867 276.697 310.899 276.91C310.931 277.118 311.071 277.293 311.319 277.436C311.593 277.595 311.947 277.665 312.38 277.647C312.808 277.625 313.347 277.51 313.996 277.299L316.579 276.467C317.878 276.052 318.998 275.86 319.938 275.891C320.883 275.918 321.765 276.168 322.584 276.641C323.302 277.055 323.751 277.525 323.93 278.049C324.11 278.574 324.025 279.113 323.677 279.668C323.334 280.22 322.732 280.745 321.871 281.242ZM331.925 275.437C331.17 275.873 330.315 276.162 329.359 276.306C328.408 276.446 327.444 276.435 326.467 276.274C325.485 276.109 324.579 275.787 323.75 275.309L320.439 273.397C319.541 272.878 318.942 272.331 318.641 271.755C318.334 271.175 318.324 270.602 318.609 270.035C318.889 269.465 319.456 268.933 320.312 268.439C320.867 268.119 321.477 267.861 322.142 267.666C322.807 267.471 323.544 267.366 324.352 267.35L324.352 269.125C323.972 269.125 323.605 269.166 323.251 269.248C322.897 269.331 322.588 269.448 322.324 269.601C321.912 269.838 321.651 270.102 321.54 270.392C321.429 270.675 321.445 270.956 321.587 271.233C321.73 271.505 321.976 271.741 322.324 271.942L324.019 272.921L323.259 272.903C323.254 272.522 323.378 272.157 323.631 271.81C323.885 271.456 324.241 271.146 324.701 270.881C325.419 270.466 326.211 270.195 327.077 270.067C327.949 269.936 328.817 269.944 329.684 270.09C330.555 270.233 331.35 270.512 332.068 270.927C332.786 271.342 333.254 271.822 333.47 272.368C333.681 272.91 333.658 273.455 333.399 274C333.135 274.543 332.644 275.022 331.925 275.437ZM329.866 274.247C330.193 274.058 330.412 273.84 330.523 273.593C330.639 273.343 330.642 273.095 330.531 272.848C330.426 272.598 330.209 272.378 329.882 272.189C329.554 272 329.177 271.874 328.749 271.81C328.316 271.743 327.885 271.741 327.458 271.805C327.024 271.866 326.644 271.991 326.317 272.18C325.989 272.369 325.77 272.59 325.659 272.843C325.548 273.09 325.548 273.34 325.659 273.593C325.77 273.84 325.989 274.058 326.317 274.247C326.634 274.43 327.006 274.554 327.434 274.618C327.862 274.682 328.292 274.683 328.725 274.622C329.158 274.561 329.538 274.436 329.866 274.247ZM339.547 273.231L338.771 272.637C339.046 272.503 339.209 272.359 339.262 272.207C339.32 272.057 339.281 271.91 339.143 271.763C339.017 271.617 338.808 271.481 338.518 271.356L337.409 271.997L335.254 270.752L337.409 269.508L339.563 270.752C340.324 271.192 340.722 271.626 340.759 272.056C340.796 272.486 340.392 272.878 339.547 273.231ZM343.15 268.681L337.605 261.053L332.725 263.87L330.697 262.699L337.89 258.546L339.918 259.717L345.479 267.337L343.15 268.681ZM355.666 261.73C354.821 262.218 353.905 262.543 352.917 262.704C351.93 262.866 350.942 262.866 349.954 262.704C348.967 262.543 348.05 262.218 347.206 261.73L343.783 259.754C342.938 259.266 342.376 258.737 342.096 258.167C341.816 257.597 341.816 257.027 342.096 256.456C342.376 255.886 342.938 255.357 343.783 254.869C344.628 254.382 345.545 254.057 346.532 253.895C347.52 253.734 348.507 253.734 349.495 253.895C350.483 254.057 351.399 254.382 352.244 254.869L355.666 256.845C356.511 257.333 357.073 257.862 357.353 258.432C357.633 259.003 357.633 259.573 357.353 260.143C357.073 260.713 356.511 261.242 355.666 261.73ZM353.622 260.55C354.002 260.33 354.256 260.08 354.383 259.8C354.509 259.519 354.509 259.239 354.383 258.958C354.256 258.678 354.002 258.428 353.622 258.208L349.867 256.04C349.487 255.821 349.054 255.674 348.568 255.601C348.082 255.528 347.596 255.528 347.11 255.601C346.625 255.674 346.192 255.821 345.811 256.04C345.431 256.26 345.178 256.51 345.051 256.79C344.924 257.071 344.924 257.351 345.051 257.632C345.178 257.912 345.431 258.162 345.811 258.382L349.566 260.55C349.946 260.769 350.38 260.916 350.865 260.989C351.351 261.062 351.837 261.062 352.323 260.989C352.809 260.916 353.242 260.769 353.622 260.55ZM366.088 255.713C365.333 256.149 364.478 256.438 363.522 256.582C362.571 256.722 361.607 256.711 360.63 256.55C359.648 256.385 358.742 256.063 357.913 255.584L354.602 253.673C353.704 253.154 353.105 252.607 352.804 252.031C352.497 251.451 352.487 250.878 352.772 250.311C353.052 249.741 353.619 249.209 354.475 248.715C355.03 248.395 355.64 248.137 356.305 247.942C356.97 247.747 357.707 247.642 358.515 247.626L358.515 249.401C358.135 249.401 357.768 249.442 357.414 249.524C357.06 249.607 356.751 249.724 356.487 249.877C356.075 250.114 355.814 250.378 355.703 250.668C355.592 250.951 355.608 251.232 355.75 251.509C355.893 251.781 356.139 252.017 356.487 252.218L358.182 253.197L357.422 253.179C357.417 252.798 357.541 252.433 357.794 252.086C358.048 251.732 358.404 251.422 358.864 251.157C359.582 250.742 360.374 250.471 361.24 250.343C362.112 250.212 362.98 250.22 363.847 250.366C364.718 250.509 365.513 250.788 366.231 251.203C366.949 251.618 367.417 252.098 367.633 252.644C367.844 253.186 367.821 253.731 367.562 254.276C367.298 254.819 366.807 255.298 366.088 255.713ZM364.029 254.523C364.356 254.334 364.575 254.116 364.686 253.869C364.803 253.619 364.805 253.371 364.694 253.124C364.589 252.874 364.372 252.654 364.045 252.465C363.717 252.276 363.34 252.15 362.912 252.086C362.479 252.019 362.048 252.017 361.621 252.081C361.187 252.142 360.807 252.267 360.48 252.456C360.152 252.645 359.933 252.866 359.822 253.119C359.711 253.366 359.711 253.616 359.822 253.869C359.933 254.116 360.152 254.334 360.48 254.523C360.797 254.706 361.169 254.83 361.597 254.894C362.025 254.958 362.455 254.959 362.888 254.898C363.321 254.837 363.701 254.712 364.029 254.523ZM372.079 251.98L369.924 250.736L372.079 249.492L374.233 250.736L372.079 251.98ZM376.882 249.206L367.82 243.974L366.996 245.968L364.619 244.596L365.475 242.62L367.677 241.349L379.085 247.935L376.882 249.206ZM386.152 244.129C385.381 244.574 384.539 244.88 383.625 245.048C382.712 245.21 381.809 245.231 380.916 245.112C380.024 244.987 379.223 244.72 378.516 244.312C377.914 243.964 377.481 243.558 377.217 243.095C376.958 242.628 376.916 242.15 377.09 241.659L377.708 242.07C376.947 242.077 376.247 242.023 375.608 241.91C374.975 241.795 374.396 241.586 373.874 241.284C373.213 240.903 372.794 240.48 372.614 240.017C372.44 239.55 372.493 239.081 372.772 238.608C373.052 238.129 373.551 237.683 374.27 237.268C374.988 236.853 375.759 236.567 376.583 236.408C377.407 236.244 378.22 236.213 379.023 236.317C379.831 236.417 380.565 236.658 381.225 237.039C381.748 237.341 382.115 237.672 382.326 238.032C382.532 238.389 382.619 238.802 382.588 239.271L381.922 238.887C382.741 238.78 383.554 238.805 384.362 238.96C385.175 239.113 385.883 239.363 386.485 239.71C387.193 240.119 387.652 240.582 387.864 241.101C388.07 241.616 388.03 242.139 387.745 242.67C387.454 243.197 386.924 243.683 386.152 244.129ZM384.124 242.958C384.631 242.665 384.906 242.348 384.948 242.006C384.991 241.665 384.742 241.339 384.204 241.028C383.67 240.72 383.105 240.576 382.508 240.598C381.906 240.616 381.352 240.772 380.845 241.064C380.338 241.357 380.071 241.676 380.045 242.02C380.013 242.362 380.264 242.686 380.797 242.994C381.336 243.305 381.898 243.45 382.485 243.429C383.071 243.407 383.617 243.25 384.124 242.958ZM378.801 239.884C379.213 239.646 379.448 239.395 379.506 239.13C379.559 238.861 379.371 238.604 378.944 238.357C378.516 238.11 378.07 238.001 377.605 238.032C377.135 238.059 376.694 238.192 376.282 238.43C375.87 238.668 375.64 238.922 375.593 239.194C375.54 239.462 375.727 239.72 376.155 239.967C376.583 240.214 377.029 240.322 377.494 240.291C377.953 240.258 378.389 240.122 378.801 239.884ZM400.02 236.122C399.101 236.653 398.108 237.013 397.041 237.202C395.969 237.388 394.899 237.399 393.833 237.234C392.766 237.069 391.776 236.723 390.862 236.196L383.748 232.088L385.919 230.817L393.032 234.924C393.407 235.141 393.811 235.301 394.245 235.404C394.678 235.508 395.116 235.56 395.56 235.56C396.008 235.557 396.441 235.505 396.859 235.404C397.276 235.298 397.654 235.147 397.992 234.952C398.34 234.75 398.602 234.529 398.776 234.288C398.955 234.044 399.045 233.794 399.045 233.538C399.045 233.282 398.953 233.031 398.768 232.784C398.588 232.534 398.314 232.302 397.944 232.088L390.83 227.981L393.017 226.719L400.146 230.835C401.06 231.363 401.659 231.934 401.945 232.55C402.23 233.166 402.211 233.784 401.889 234.403C401.562 235.019 400.938 235.592 400.02 236.122ZM410.703 229.954C409.858 230.442 408.947 230.797 407.97 231.02C406.993 231.236 406.008 231.311 405.015 231.244C404.022 231.171 403.082 230.945 402.195 230.567L404.112 229.076C404.925 229.363 405.757 229.465 406.608 229.383C407.458 229.3 408.2 229.076 408.834 228.71C409.187 228.506 409.475 228.276 409.697 228.02C409.919 227.763 410.027 227.512 410.022 227.265C410.022 227.015 409.863 226.798 409.547 226.615C409.43 226.548 409.301 226.495 409.158 226.455C409.016 226.41 408.857 226.382 408.683 226.373C408.509 226.364 408.305 226.378 408.073 226.414C407.846 226.448 407.587 226.509 407.297 226.597L403.463 227.805C403.177 227.896 402.829 227.994 402.417 228.097C402.01 228.198 401.561 228.265 401.07 228.299C400.579 228.332 400.064 228.3 399.525 228.203C398.987 228.099 398.445 227.89 397.901 227.576C397.136 227.134 396.692 226.655 396.571 226.14C396.449 225.625 396.586 225.109 396.982 224.594C397.379 224.079 397.97 223.597 398.757 223.149C399.554 222.7 400.392 222.373 401.268 222.165C402.145 221.958 403.04 221.877 403.954 221.923C404.862 221.966 405.765 222.139 406.663 222.444L404.73 224.018C404.276 223.853 403.808 223.763 403.328 223.748C402.847 223.733 402.383 223.778 401.934 223.885C401.49 223.989 401.091 224.137 400.737 224.329C400.389 224.518 400.117 224.73 399.922 224.964C399.726 225.193 399.631 225.419 399.636 225.641C399.647 225.861 399.787 226.048 400.056 226.204C400.304 226.347 400.584 226.42 400.896 226.423C401.202 226.423 401.519 226.384 401.847 226.304C402.174 226.225 402.491 226.134 402.797 226.03L405.316 225.198C405.691 225.073 406.124 224.945 406.615 224.813C407.101 224.679 407.624 224.585 408.184 224.53C408.744 224.469 409.317 224.486 409.903 224.58C410.495 224.672 411.078 224.884 411.654 225.216C412.266 225.57 412.673 225.954 412.874 226.368C413.074 226.777 413.109 227.193 412.977 227.617C412.839 228.038 412.57 228.45 412.169 228.852C411.773 229.251 411.284 229.619 410.703 229.954ZM416.786 226.168L405.378 219.582L409.07 217.451C409.159 217.399 409.347 217.294 409.632 217.135C409.917 216.977 410.205 216.832 410.496 216.701C411.525 216.234 412.624 215.969 413.791 215.905C414.958 215.841 416.115 215.948 417.261 216.225C418.407 216.502 419.463 216.92 420.43 217.478C421.396 218.036 422.12 218.646 422.6 219.308C423.081 219.969 423.266 220.637 423.155 221.311C423.044 221.985 422.584 222.619 421.776 223.214C421.549 223.381 421.298 223.547 421.024 223.712C420.749 223.877 420.567 223.985 420.477 224.037L416.786 226.168ZM416.944 223.735L418.449 222.866C418.592 222.784 418.782 222.671 419.019 222.528C419.252 222.381 419.447 222.241 419.606 222.107C420.002 221.762 420.173 221.395 420.121 221.004C420.073 220.611 419.867 220.224 419.503 219.843C419.144 219.459 418.692 219.109 418.148 218.795C417.578 218.466 416.957 218.199 416.286 217.995C415.621 217.788 414.953 217.673 414.282 217.652C413.612 217.631 412.988 217.731 412.413 217.954C412.175 218.042 411.932 218.155 411.684 218.292C411.436 218.43 411.24 218.539 411.098 218.622L409.592 219.491L416.944 223.735Z" fill="#060606"/>
<circle r="14.6838" transform="matrix(0.866025 -0.5 0.866025 0.5 283.386 287.209)" fill="#060606"/>
<path d="M275.481 282.265L275.738 282.537L286.292 288.63L286.506 288.63L288.509 284.13L275.481 282.265Z" fill="white"/>
<path d="M275.481 282.265L278.711 289.787L286.506 288.63L281.383 285.673L275.481 282.265Z" fill="white"/>
<path d="M287.434 289.167L287.447 289.244L291.207 291.414L291.443 291.481L289.442 284.665L287.434 289.167Z" fill="white"/>
<path d="M291.444 291.482L287.435 289.167L279.642 290.324L291.444 291.482Z" fill="white"/>
<path d="M286.504 288.63L288.508 284.13L281.382 285.673L286.504 288.63Z" fill="white"/>
<path d="M278.71 289.786L286.505 288.629L281.382 285.672L278.71 289.786Z" fill="white"/>
<rect opacity="0.4" width="237.186" height="83.745" rx="12.1965" transform="matrix(0.866025 -0.5 0.866025 0.5 304.096 356.303)" fill="#060606"/>
<rect width="237.186" height="83.9858" rx="12.1965" transform="matrix(0.866025 -0.5 0.866025 0.5 304.096 338.093)" fill="white" stroke="#060606" stroke-width="1.40786"/>
<path d="M521.373 255.206L534.843 247.429" stroke="#060606" stroke-width="1.5"/>
<path d="M521.373 247.43H534.845L534.845 255.208" stroke="#060606" stroke-width="1.5"/>
<path d="M381.096 321.881L373.491 317.491L374.928 316.661L381.191 320.277L384.466 318.387L385.807 319.161L381.096 321.881ZM380.315 314.832L379.047 314.1L380.484 313.27L381.751 314.002L380.315 314.832ZM386.811 318.582L381.107 315.289L382.544 314.46L388.247 317.753L386.811 318.582ZM393.253 314.863C392.932 315.133 392.577 315.375 392.186 315.588C391.802 315.802 391.399 315.959 390.977 316.061C390.554 316.159 390.126 316.172 389.693 316.101C389.292 316.032 388.954 315.922 388.679 315.771C388.401 315.619 388.091 315.444 387.75 315.247L382.88 312.436L384.317 311.606L389.102 314.369C389.324 314.497 389.526 314.612 389.709 314.713C389.892 314.811 390.07 314.871 390.243 314.893C390.57 314.936 390.882 314.882 391.177 314.732C391.473 314.581 391.767 314.395 392.059 314.174L393.253 314.863ZM384.602 314.552L383.493 313.911L387.549 311.57L388.658 312.21L384.602 314.552ZM397.024 312.868C396.44 313.206 395.799 313.431 395.102 313.545C394.405 313.655 393.709 313.656 393.016 313.548C392.322 313.437 391.69 313.216 391.12 312.887C390.496 312.527 390.077 312.143 389.863 311.734C389.648 311.325 389.63 310.923 389.81 310.527C389.986 310.128 390.356 309.766 390.919 309.441C391.517 309.096 392.167 308.883 392.868 308.804C393.568 308.725 394.274 308.774 394.985 308.953C395.697 309.132 396.367 309.438 396.998 309.871L395.577 310.691L395.049 310.386C394.468 310.051 393.957 309.864 393.517 309.825C393.077 309.783 392.648 309.882 392.229 310.124C391.739 310.407 391.528 310.701 391.595 311.008C391.662 311.311 391.986 311.63 392.567 311.966C393.098 312.273 393.625 312.445 394.146 312.481C394.667 312.514 395.151 312.401 395.598 312.143C395.88 311.98 396.059 311.805 396.137 311.618C396.214 311.431 396.19 311.24 396.063 311.045L397.911 310.453C398.218 310.878 398.283 311.308 398.107 311.743C397.934 312.176 397.573 312.551 397.024 312.868ZM392.524 312.454L391.458 311.838L395.239 309.655L396.306 310.271L392.524 312.454ZM403.313 309.237C402.721 309.579 402.082 309.795 401.396 309.887C400.709 309.978 400.026 309.958 399.347 309.826C398.667 309.694 398.042 309.463 397.472 309.134C396.894 308.8 396.495 308.436 396.273 308.039C396.055 307.641 396.028 307.243 396.194 306.847C396.359 306.451 396.732 306.085 397.313 305.749C397.986 305.361 398.72 305.134 399.516 305.069C400.311 305 401.067 305.099 401.781 305.365L400.725 306.414C400.345 306.292 399.966 306.244 399.59 306.271C399.216 306.295 398.898 306.383 398.634 306.536C398.331 306.711 398.157 306.897 398.111 307.094C398.062 307.289 398.118 307.486 398.28 307.685C398.438 307.883 398.676 308.073 398.993 308.256C399.489 308.542 400.002 308.712 400.53 308.765C401.058 308.814 401.538 308.713 401.971 308.463C402.295 308.276 402.468 308.091 402.489 307.908C402.51 307.725 402.426 307.53 402.236 307.323L404.01 306.652C404.454 307.095 404.614 307.541 404.491 307.99C404.367 308.44 403.975 308.855 403.313 309.237ZM409.369 305.741C408.795 306.072 408.163 306.289 407.473 306.39C406.783 306.492 406.091 306.483 405.398 306.363C404.704 306.239 404.063 306.007 403.475 305.668C402.88 305.324 402.481 304.951 402.276 304.549C402.069 304.144 402.054 303.744 402.234 303.347C402.414 302.951 402.785 302.59 403.348 302.265C403.922 301.934 404.554 301.717 405.244 301.616C405.938 301.512 406.633 301.521 407.33 301.643C408.024 301.763 408.665 301.993 409.253 302.332C409.844 302.674 410.244 303.047 410.452 303.451C410.659 303.852 410.673 304.252 410.494 304.652C410.314 305.049 409.939 305.412 409.369 305.741ZM408.028 304.967C408.489 304.7 408.677 304.413 408.593 304.104C408.508 303.791 408.221 303.493 407.732 303.21C407.225 302.917 406.704 302.751 406.169 302.71C405.637 302.667 405.144 302.777 404.69 303.039C404.376 303.22 404.19 303.409 404.13 303.607C404.07 303.804 404.116 304.003 404.267 304.204C404.422 304.403 404.665 304.599 404.996 304.79C405.507 305.084 406.028 305.253 406.559 305.296C407.091 305.334 407.58 305.225 408.028 304.967ZM406.876 299.497L405.608 298.765L407.045 297.936L408.312 298.667L406.876 299.497ZM413.372 303.247L407.668 299.954L409.104 299.125L414.808 302.418L413.372 303.247ZM420.278 299.259L417.585 297.704C417.455 297.629 417.282 297.538 417.067 297.43C416.849 297.32 416.601 297.228 416.323 297.153C416.045 297.077 415.752 297.049 415.446 297.067C415.143 297.083 414.839 297.18 414.532 297.357C414.409 297.428 414.297 297.515 414.194 297.619C414.092 297.723 414.036 297.843 414.025 297.979C414.011 298.113 414.071 298.265 414.205 298.436C414.342 298.605 414.589 298.792 414.944 298.997L413.73 299.247C413.279 298.987 412.948 298.69 412.737 298.357C412.526 298.024 412.482 297.681 412.605 297.329C412.732 296.976 413.075 296.637 413.635 296.314C414.082 296.056 414.522 295.889 414.955 295.814C415.388 295.739 415.798 295.723 416.186 295.768C416.576 295.811 416.932 295.886 417.252 295.994C417.569 296.1 417.839 296.208 418.06 296.32C418.282 296.432 418.441 296.515 418.536 296.57L421.736 298.418L420.278 299.259ZM416.381 301.51L410.677 298.217L411.955 297.479L413.846 298.57L414.025 298.467L417.839 300.668L416.381 301.51Z" fill="#060606"/>
<path d="M404.257 334.08L402.356 332.982L404.51 331.738L406.412 332.836L404.257 334.08ZM391.598 326.771L389.697 325.674L391.851 324.43L393.753 325.527L391.598 326.771ZM404.003 332.671C403.185 333.144 402.303 333.479 401.358 333.678C400.407 333.873 399.451 333.928 398.49 333.842C397.523 333.754 396.604 333.522 395.733 333.147L397.539 331.72C398.305 331.998 399.1 332.112 399.924 332.063C400.753 332.011 401.484 331.802 402.118 331.437C402.715 331.092 403.069 330.726 403.18 330.339C403.296 329.949 403.148 329.634 402.736 329.397C402.456 329.235 402.139 329.153 401.785 329.15C401.432 329.141 401.014 329.208 400.534 329.351L396.842 330.476C394.714 331.126 392.908 331.022 391.424 330.165C390.726 329.763 390.285 329.319 390.101 328.834C389.921 328.346 389.995 327.849 390.322 327.343C390.65 326.831 391.228 326.338 392.057 325.866C392.823 325.436 393.631 325.128 394.481 324.942C395.326 324.753 396.193 324.689 397.08 324.75C397.967 324.805 398.854 324.985 399.742 325.289L397.919 326.799C397.508 326.646 397.074 326.555 396.62 326.524C396.161 326.491 395.709 326.52 395.266 326.611C394.822 326.697 394.413 326.841 394.038 327.046C393.679 327.241 393.412 327.453 393.238 327.682C393.069 327.907 393 328.127 393.032 328.34C393.063 328.547 393.203 328.723 393.452 328.866C393.726 329.025 394.08 329.095 394.513 329.076C394.941 329.055 395.48 328.939 396.129 328.729L398.712 327.896C400.011 327.482 401.13 327.29 402.071 327.32C403.016 327.348 403.898 327.598 404.716 328.07C405.435 328.485 405.884 328.955 406.063 329.479C406.243 330.003 406.158 330.543 405.81 331.098C405.466 331.65 404.864 332.174 404.003 332.671ZM413.377 327.223C412.807 327.552 412.149 327.801 411.404 327.969C410.655 328.133 409.878 328.206 409.075 328.188C408.278 328.167 407.515 328.04 406.786 327.808L408.323 326.281C408.851 326.458 409.392 326.52 409.947 326.468C410.501 326.41 410.969 326.272 411.349 326.052C411.676 325.863 411.896 325.645 412.007 325.398C412.123 325.148 412.125 324.9 412.014 324.653C411.909 324.403 411.692 324.183 411.365 323.994C410.874 323.71 410.285 323.566 409.598 323.559C408.912 323.547 408.307 323.692 407.784 323.994C407.626 324.085 407.496 324.188 407.396 324.3C407.29 324.41 407.209 324.528 407.15 324.653L404.489 324.232L405.107 320.399L405.724 320.573L400.433 323.628L398.405 322.457L405.534 318.341L407.562 319.512L407.467 322.713L406.849 322.375C407.605 322.055 408.386 321.869 409.194 321.817C410.002 321.759 410.784 321.814 411.539 321.982C412.294 322.143 412.965 322.393 413.551 322.732C414.27 323.146 414.734 323.625 414.946 324.168C415.152 324.707 415.122 325.249 414.858 325.791C414.589 326.331 414.095 326.808 413.377 327.223ZM421.185 324.947L420.409 324.352C420.683 324.218 420.847 324.075 420.9 323.922C420.958 323.773 420.918 323.625 420.781 323.479C420.654 323.332 420.446 323.197 420.155 323.072L419.046 323.712L416.891 322.468L419.046 321.224L421.201 322.468C421.961 322.907 422.36 323.342 422.397 323.772C422.434 324.201 422.03 324.593 421.185 324.947ZM427.846 318.906C427.27 319.238 426.61 319.482 425.865 319.638C425.126 319.79 424.363 319.85 423.576 319.816C422.789 319.783 422.037 319.65 421.318 319.418L422.839 317.9C423.177 318.016 423.531 318.08 423.901 318.092C424.276 318.101 424.635 318.071 424.978 318C425.321 317.924 425.617 317.814 425.865 317.671C426.193 317.482 426.412 317.264 426.523 317.017C426.639 316.767 426.642 316.519 426.531 316.272C426.425 316.022 426.209 315.802 425.881 315.613C425.554 315.424 425.174 315.299 424.741 315.238C424.313 315.174 423.882 315.175 423.449 315.242C423.021 315.306 422.644 315.433 422.316 315.622C421.915 315.854 421.656 316.082 421.54 316.308C421.419 316.531 421.355 316.714 421.35 316.857L418.973 317.589L413.254 313.884L419.48 310.289L421.493 311.451L416.454 314.36L416.502 313.509L420.178 315.906L419.37 315.86C419.422 315.561 419.578 315.276 419.837 315.005C420.096 314.733 420.384 314.506 420.7 314.323C421.419 313.908 422.211 313.637 423.077 313.509C423.943 313.375 424.809 313.381 425.675 313.527C426.541 313.668 427.334 313.945 428.052 314.36C428.77 314.774 429.232 315.258 429.438 315.81C429.639 316.358 429.605 316.909 429.335 317.461C429.061 318.01 428.564 318.491 427.846 318.906ZM437.762 313.181C437.007 313.617 436.151 313.907 435.195 314.05C434.245 314.19 433.281 314.18 432.304 314.018C431.321 313.853 430.416 313.532 429.587 313.053L426.275 311.141C425.377 310.623 424.778 310.075 424.477 309.499C424.171 308.92 424.16 308.347 424.445 307.779C424.725 307.209 425.293 306.677 426.149 306.183C426.703 305.863 427.313 305.605 427.978 305.41C428.644 305.215 429.381 305.11 430.189 305.095L430.189 306.869C429.808 306.869 429.441 306.91 429.088 306.993C428.734 307.075 428.425 307.192 428.161 307.345C427.749 307.583 427.487 307.846 427.376 308.136C427.266 308.42 427.281 308.7 427.424 308.978C427.567 309.249 427.812 309.485 428.161 309.687L429.856 310.665L429.095 310.647C429.09 310.266 429.214 309.902 429.468 309.554C429.721 309.2 430.078 308.891 430.537 308.626C431.255 308.211 432.048 307.939 432.914 307.811C433.785 307.68 434.654 307.688 435.52 307.834C436.391 307.978 437.186 308.257 437.905 308.671C438.623 309.086 439.09 309.566 439.307 310.112C439.518 310.655 439.494 311.199 439.235 311.745C438.971 312.288 438.48 312.766 437.762 313.181ZM435.702 311.992C436.03 311.803 436.249 311.585 436.36 311.338C436.476 311.088 436.479 310.839 436.368 310.592C436.262 310.342 436.046 310.123 435.718 309.934C435.391 309.745 435.013 309.618 434.585 309.554C434.152 309.487 433.722 309.485 433.294 309.549C432.861 309.61 432.481 309.735 432.153 309.924C431.826 310.114 431.607 310.335 431.496 310.588C431.385 310.835 431.385 311.085 431.496 311.338C431.607 311.585 431.826 311.803 432.153 311.992C432.47 312.175 432.842 312.298 433.27 312.362C433.698 312.426 434.128 312.428 434.562 312.367C434.995 312.306 435.375 312.181 435.702 311.992ZM446.937 307.847C446.366 308.177 445.709 308.425 444.964 308.593C444.214 308.758 443.438 308.831 442.635 308.812C441.838 308.791 441.074 308.665 440.346 308.433L441.882 306.905C442.411 307.082 442.952 307.145 443.506 307.093C444.061 307.035 444.528 306.896 444.909 306.677C445.236 306.487 445.455 306.269 445.566 306.022C445.682 305.772 445.685 305.524 445.574 305.277C445.468 305.027 445.252 304.807 444.924 304.618C444.433 304.335 443.844 304.19 443.158 304.184C442.471 304.172 441.867 304.316 441.344 304.618C441.185 304.71 441.056 304.812 440.956 304.925C440.85 305.035 440.768 305.152 440.71 305.277L438.048 304.856L438.666 301.023L439.284 301.197L433.992 304.252L431.964 303.082L439.094 298.965L441.122 300.136L441.027 303.338L440.409 302.999C441.164 302.679 441.946 302.493 442.754 302.441C443.562 302.383 444.344 302.438 445.099 302.606C445.854 302.768 446.525 303.018 447.111 303.356C447.829 303.771 448.294 304.249 448.505 304.792C448.711 305.332 448.682 305.873 448.418 306.416C448.149 306.956 447.655 307.433 446.937 307.847ZM453.113 304.044L450.958 302.8L453.113 301.556L455.268 302.8L453.113 304.044ZM461.467 299.495C460.892 299.827 460.232 300.071 459.487 300.226C458.748 300.379 457.984 300.438 457.198 300.405C456.411 300.371 455.658 300.239 454.94 300.007L456.461 298.488C456.799 298.604 457.153 298.668 457.522 298.68C457.897 298.69 458.256 298.659 458.6 298.589C458.943 298.513 459.239 298.403 459.487 298.26C459.814 298.071 460.034 297.853 460.144 297.606C460.261 297.356 460.263 297.107 460.152 296.86C460.047 296.61 459.83 296.391 459.503 296.202C459.175 296.013 458.795 295.887 458.362 295.827C457.934 295.762 457.504 295.764 457.071 295.831C456.643 295.895 456.265 296.022 455.938 296.211C455.537 296.442 455.278 296.671 455.162 296.897C455.04 297.119 454.977 297.302 454.971 297.446L452.595 298.177L446.875 294.473L453.102 290.878L455.114 292.039L450.076 294.948L450.123 294.098L453.799 296.494L452.991 296.449C453.044 296.15 453.2 295.865 453.458 295.593C453.717 295.322 454.005 295.095 454.322 294.912C455.04 294.497 455.832 294.226 456.698 294.098C457.565 293.963 458.431 293.97 459.297 294.116C460.163 294.256 460.955 294.534 461.673 294.948C462.392 295.363 462.854 295.846 463.06 296.398C463.26 296.947 463.226 297.497 462.957 298.049C462.682 298.598 462.186 299.08 461.467 299.495ZM471.811 293.248L470.037 292.224L465.078 295.087L463.065 293.925L459.041 287.449L461.513 286.022L465.537 292.498L468.025 291.062L465.173 289.415L467.359 288.153L470.211 289.8L471.225 289.214L473.237 290.376L472.223 290.961L473.998 291.986L471.811 293.248ZM484.968 285.926C484.049 286.457 483.057 286.817 481.99 287.006C480.918 287.192 479.848 287.202 478.781 287.038C477.715 286.873 476.724 286.527 475.811 286L468.697 281.892L470.867 280.621L477.981 284.728C478.356 284.945 478.76 285.105 479.193 285.208C479.626 285.312 480.065 285.364 480.508 285.364C480.957 285.361 481.39 285.309 481.807 285.208C482.225 285.102 482.602 284.951 482.94 284.755C483.289 284.554 483.55 284.333 483.725 284.092C483.904 283.848 483.994 283.598 483.994 283.342C483.994 283.086 483.902 282.835 483.717 282.588C483.537 282.338 483.262 282.106 482.893 281.892L475.779 277.785L477.965 276.523L485.095 280.639C486.009 281.167 486.608 281.738 486.893 282.354C487.179 282.97 487.16 283.588 486.838 284.207C486.51 284.823 485.887 285.396 484.968 285.926ZM495.652 279.758C494.807 280.246 493.896 280.601 492.919 280.824C491.942 281.04 490.957 281.115 489.964 281.048C488.971 280.975 488.031 280.749 487.144 280.371L489.061 278.88C489.874 279.167 490.706 279.269 491.556 279.186C492.407 279.104 493.149 278.88 493.782 278.514C494.136 278.31 494.424 278.08 494.646 277.823C494.868 277.567 494.976 277.316 494.971 277.069C494.971 276.819 494.812 276.602 494.495 276.419C494.379 276.352 494.25 276.299 494.107 276.259C493.965 276.214 493.806 276.186 493.632 276.177C493.458 276.168 493.254 276.182 493.022 276.218C492.795 276.252 492.536 276.313 492.246 276.401L488.411 277.609C488.126 277.7 487.778 277.798 487.366 277.901C486.959 278.002 486.51 278.069 486.019 278.102C485.528 278.136 485.013 278.104 484.474 278.006C483.936 277.903 483.394 277.694 482.85 277.38C482.084 276.938 481.641 276.459 481.519 275.944C481.398 275.428 481.535 274.913 481.931 274.398C482.327 273.882 482.919 273.401 483.706 272.953C484.503 272.504 485.34 272.177 486.217 271.969C487.094 271.762 487.989 271.681 488.903 271.727C489.811 271.769 490.714 271.943 491.612 272.248L489.679 273.822C489.225 273.657 488.757 273.567 488.277 273.552C487.796 273.536 487.331 273.582 486.882 273.689C486.439 273.793 486.04 273.94 485.686 274.133C485.338 274.322 485.066 274.533 484.87 274.768C484.675 274.997 484.58 275.223 484.585 275.445C484.596 275.665 484.736 275.852 485.005 276.008C485.253 276.151 485.533 276.224 485.845 276.227C486.151 276.227 486.468 276.188 486.795 276.108C487.123 276.029 487.44 275.938 487.746 275.834L490.265 275.002C490.64 274.877 491.073 274.748 491.564 274.617C492.05 274.483 492.573 274.389 493.133 274.334C493.693 274.273 494.266 274.29 494.852 274.384C495.443 274.476 496.027 274.687 496.603 275.02C497.215 275.374 497.622 275.758 497.823 276.172C498.023 276.581 498.058 276.997 497.926 277.421C497.788 277.842 497.519 278.253 497.117 278.656C496.721 279.055 496.233 279.423 495.652 279.758ZM501.734 275.972L490.327 269.386L494.018 267.255C494.108 267.203 494.296 267.098 494.581 266.939C494.866 266.78 495.154 266.636 495.444 266.505C496.474 266.038 497.573 265.773 498.74 265.709C499.907 265.645 501.064 265.751 502.21 266.029C503.356 266.306 504.412 266.724 505.378 267.282C506.345 267.84 507.068 268.45 507.549 269.112C508.03 269.773 508.214 270.441 508.103 271.115C507.993 271.789 507.533 272.423 506.725 273.017C506.498 273.185 506.247 273.351 505.973 273.516C505.698 273.681 505.516 273.789 505.426 273.841L501.734 275.972ZM501.893 273.539L503.398 272.67C503.54 272.588 503.731 272.475 503.968 272.331C504.201 272.185 504.396 272.045 504.554 271.911C504.951 271.566 505.122 271.199 505.069 270.808C505.022 270.415 504.816 270.028 504.452 269.647C504.092 269.262 503.641 268.913 503.097 268.599C502.526 268.27 501.906 268.003 501.235 267.799C500.57 267.592 499.902 267.477 499.231 267.456C498.56 267.435 497.937 267.535 497.361 267.758C497.124 267.846 496.881 267.959 496.633 268.096C496.384 268.233 496.189 268.343 496.046 268.425L494.541 269.294L501.893 273.539Z" fill="#060606"/>
<circle r="14.6838" transform="matrix(0.866025 -0.5 0.866025 0.5 365.519 338.639)" fill="#060606"/>
<path d="M372.656 338.416L367.288 341.515L364.908 338.982L366.005 337.837L365.211 337.001L364.138 338.16L360.217 334.01L360.147 333.97C359.984 333.875 359.75 333.875 359.587 333.97L357.51 335.169C357.346 335.263 357.323 335.411 357.44 335.533L362.084 340.424L361.01 341.583L361.757 342.418L362.831 341.259L366.145 344.763L374.337 340.033C374.5 339.939 374.523 339.791 374.43 339.683L373.286 338.484L373.216 338.443C373.053 338.322 372.82 338.322 372.656 338.416V338.416Z" fill="white"/>
<rect opacity="0.4" width="237.186" height="83.745" rx="12.1965" transform="matrix(0.866025 -0.5 0.866025 0.5 390.357 409.303)" fill="#060606"/>
<rect width="237.186" height="83.9858" rx="12.1965" transform="matrix(0.866025 -0.5 0.866025 0.5 390.357 391.093)" fill="white" stroke="#060606" stroke-width="1.40786"/>
<path d="M607.373 308.206L620.843 300.429" stroke="#060606" stroke-width="1.5"/>
<path d="M607.373 300.43H620.845L620.845 308.208" stroke="#060606" stroke-width="1.5"/>
<path d="M470.284 373.375C469.72 373.7 469.113 373.937 468.462 374.085C467.81 374.23 467.154 374.28 466.492 374.235C465.83 374.186 465.203 374.036 464.612 373.784L465.89 372.79C466.432 372.981 466.987 373.049 467.553 372.994C468.12 372.939 468.615 372.79 469.037 372.546C469.273 372.409 469.465 372.256 469.613 372.085C469.761 371.914 469.833 371.747 469.83 371.582C469.83 371.415 469.724 371.271 469.513 371.149C469.435 371.104 469.349 371.069 469.254 371.042C469.159 371.012 469.053 370.994 468.937 370.988C468.821 370.981 468.685 370.991 468.53 371.015C468.379 371.037 468.207 371.078 468.013 371.137L465.457 371.942C465.267 372.003 465.034 372.068 464.76 372.137C464.489 372.204 464.189 372.249 463.862 372.271C463.534 372.294 463.191 372.272 462.832 372.207C462.473 372.138 462.112 371.999 461.749 371.789C461.239 371.495 460.943 371.176 460.862 370.832C460.781 370.489 460.873 370.145 461.137 369.801C461.401 369.458 461.795 369.137 462.32 368.838C462.851 368.539 463.409 368.321 463.994 368.182C464.578 368.044 465.175 367.99 465.784 368.021C466.39 368.049 466.992 368.165 467.59 368.368L466.302 369.417C465.999 369.307 465.687 369.248 465.367 369.237C465.047 369.227 464.737 369.258 464.438 369.329C464.142 369.398 463.876 369.497 463.64 369.625C463.408 369.751 463.226 369.892 463.096 370.048C462.966 370.201 462.902 370.351 462.906 370.5C462.913 370.646 463.006 370.771 463.186 370.875C463.351 370.97 463.538 371.019 463.746 371.021C463.95 371.021 464.161 370.995 464.379 370.942C464.598 370.889 464.809 370.828 465.013 370.759L466.693 370.204C466.943 370.121 467.231 370.035 467.559 369.948C467.883 369.858 468.231 369.795 468.604 369.759C468.978 369.718 469.36 369.729 469.75 369.792C470.145 369.853 470.534 369.995 470.918 370.216C471.326 370.452 471.597 370.708 471.731 370.985C471.865 371.257 471.888 371.534 471.8 371.817C471.708 372.097 471.528 372.372 471.261 372.64C470.997 372.906 470.671 373.151 470.284 373.375ZM477.064 369.461C476.49 369.792 475.858 370.008 475.168 370.11C474.478 370.212 473.786 370.203 473.092 370.083C472.399 369.959 471.758 369.727 471.17 369.387C470.575 369.044 470.175 368.671 469.971 368.268C469.763 367.864 469.749 367.463 469.929 367.067C470.108 366.671 470.48 366.31 471.043 365.985C471.617 365.653 472.249 365.437 472.939 365.335C473.633 365.231 474.328 365.241 475.025 365.363C475.719 365.482 476.36 365.712 476.948 366.052C477.539 366.393 477.939 366.766 478.147 367.171C478.354 367.571 478.368 367.972 478.189 368.372C478.009 368.768 477.634 369.131 477.064 369.461ZM475.722 368.686C476.184 368.42 476.372 368.132 476.288 367.823C476.203 367.51 475.916 367.212 475.427 366.93C474.92 366.637 474.399 366.47 473.863 366.43C473.332 366.387 472.839 366.497 472.385 366.759C472.071 366.94 471.885 367.129 471.825 367.326C471.765 367.523 471.811 367.723 471.962 367.924C472.117 368.123 472.36 368.318 472.691 368.509C473.202 368.804 473.723 368.973 474.254 369.015C474.786 369.054 475.275 368.944 475.722 368.686ZM481.067 366.967L473.303 362.484L474.74 361.655L482.503 366.137L481.067 366.967ZM485.829 364.4C485.421 364.636 484.996 364.791 484.556 364.866C484.116 364.938 483.692 364.941 483.284 364.876C482.875 364.806 482.513 364.68 482.196 364.497C481.932 364.345 481.731 364.182 481.594 364.01C481.456 363.837 481.395 363.651 481.409 363.452C481.423 363.248 481.527 363.026 481.72 362.784C481.854 362.617 482.037 362.432 482.27 362.229C482.502 362.026 482.777 361.802 483.093 361.558C483.407 361.312 483.752 361.042 484.129 360.747L483.896 361.211C483.558 361.015 483.229 360.919 482.909 360.921C482.588 360.923 482.238 361.034 481.858 361.253C481.646 361.375 481.477 361.532 481.351 361.723C481.224 361.914 481.245 362.111 481.414 362.314L479.703 362.827C479.375 362.471 479.263 362.093 479.365 361.692C479.467 361.292 479.861 360.893 480.548 360.497C481.051 360.206 481.576 359.993 482.122 359.857C482.667 359.721 483.231 359.704 483.812 359.808C484.136 359.865 484.414 359.948 484.646 360.058C484.879 360.168 485.125 360.298 485.386 360.448L488.871 362.461L487.614 363.186L486.442 362.509L486.864 362.546C486.97 362.928 486.947 363.263 486.796 363.549C486.644 363.832 486.322 364.115 485.829 364.4ZM485.005 363.571C485.269 363.418 485.445 363.264 485.533 363.107C485.621 362.947 485.658 362.801 485.644 362.671C485.634 362.539 485.607 362.438 485.565 362.369C485.484 362.237 485.347 362.109 485.153 361.985C484.96 361.857 484.794 361.753 484.657 361.674L485.185 361.491C484.829 361.778 484.544 362.011 484.329 362.192C484.111 362.371 483.94 362.519 483.817 362.634C483.694 362.75 483.593 362.857 483.516 362.955C483.431 363.068 483.379 363.17 483.358 363.26C483.336 363.345 483.343 363.422 483.379 363.491C483.417 363.558 483.484 363.619 483.579 363.674C483.71 363.749 483.854 363.796 484.012 363.814C484.171 363.829 484.335 363.816 484.504 363.775C484.673 363.734 484.84 363.666 485.005 363.571ZM494.131 359.424L491.438 357.869C491.308 357.793 491.135 357.702 490.92 357.594C490.702 357.484 490.454 357.392 490.176 357.317C489.898 357.242 489.605 357.213 489.299 357.231C488.996 357.248 488.692 357.344 488.385 357.521C488.262 357.592 488.149 357.68 488.047 357.783C487.945 357.887 487.889 358.007 487.878 358.143C487.864 358.277 487.924 358.43 488.058 358.6C488.195 358.769 488.442 358.956 488.797 359.161L487.583 359.412C487.132 359.151 486.801 358.855 486.59 358.521C486.378 358.188 486.334 357.845 486.458 357.494C486.584 357.14 486.928 356.801 487.488 356.478C487.935 356.22 488.375 356.053 488.808 355.978C489.241 355.903 489.651 355.888 490.038 355.932C490.429 355.975 490.785 356.05 491.105 356.158C491.422 356.264 491.691 356.373 491.913 356.484C492.135 356.596 492.293 356.679 492.389 356.734L495.589 358.582L494.131 359.424ZM490.234 361.674L484.53 358.381L485.808 357.643L487.699 358.735L487.878 358.631L491.691 360.832L490.234 361.674ZM498.702 356.968C498.294 357.203 497.869 357.359 497.429 357.434C496.989 357.505 496.565 357.508 496.157 357.443C495.748 357.374 495.386 357.248 495.069 357.065C494.805 356.913 494.604 356.75 494.467 356.577C494.329 356.405 494.268 356.219 494.282 356.019C494.296 355.816 494.4 355.594 494.593 355.352C494.727 355.185 494.91 355 495.143 354.797C495.375 354.593 495.65 354.37 495.966 354.126C496.28 353.88 496.625 353.61 497.002 353.315L496.769 353.778C496.431 353.583 496.102 353.487 495.782 353.489C495.461 353.491 495.111 353.601 494.731 353.821C494.519 353.943 494.35 354.099 494.224 354.291C494.097 354.482 494.118 354.679 494.287 354.882L492.576 355.394C492.249 355.039 492.136 354.661 492.238 354.26C492.34 353.86 492.734 353.461 493.421 353.065C493.924 352.774 494.449 352.561 494.995 352.424C495.54 352.288 496.104 352.272 496.685 352.376C497.009 352.433 497.287 352.516 497.519 352.626C497.752 352.735 497.998 352.866 498.259 353.016L501.744 355.028L500.487 355.754L499.315 355.077L499.737 355.114C499.843 355.496 499.82 355.83 499.669 356.117C499.517 356.4 499.195 356.683 498.702 356.968ZM497.878 356.138C498.142 355.986 498.318 355.831 498.406 355.675C498.494 355.514 498.531 355.369 498.517 355.239C498.507 355.107 498.48 355.006 498.438 354.937C498.357 354.805 498.22 354.677 498.026 354.553C497.833 354.425 497.667 354.321 497.53 354.242L498.058 354.059C497.702 354.345 497.417 354.579 497.202 354.76C496.984 354.939 496.813 355.086 496.69 355.202C496.567 355.318 496.466 355.425 496.389 355.522C496.304 355.636 496.252 355.738 496.231 355.827C496.209 355.913 496.216 355.99 496.252 356.059C496.29 356.126 496.357 356.187 496.452 356.242C496.583 356.317 496.727 356.364 496.885 356.382C497.044 356.396 497.208 356.383 497.377 356.343C497.546 356.302 497.713 356.234 497.878 356.138Z" fill="#060606"/>
<path d="M490.519 387.08L488.617 385.982L490.772 384.738L492.673 385.836L490.519 387.08ZM477.86 379.771L475.958 378.674L478.113 377.43L480.014 378.527L477.86 379.771ZM490.265 385.671C489.447 386.144 488.565 386.479 487.619 386.678C486.669 386.873 485.713 386.928 484.752 386.842C483.785 386.754 482.866 386.522 481.995 386.147L483.801 384.72C484.567 384.998 485.362 385.112 486.185 385.063C487.015 385.011 487.746 384.802 488.38 384.437C488.977 384.092 489.33 383.726 489.441 383.339C489.558 382.949 489.41 382.634 488.998 382.397C488.718 382.235 488.401 382.153 488.047 382.15C487.693 382.141 487.276 382.208 486.795 382.351L483.104 383.476C480.975 384.126 479.169 384.022 477.685 383.165C476.988 382.763 476.547 382.319 476.362 381.834C476.183 381.346 476.257 380.849 476.584 380.343C476.912 379.831 477.49 379.338 478.319 378.866C479.085 378.436 479.893 378.128 480.743 377.942C481.588 377.753 482.454 377.689 483.341 377.75C484.229 377.805 485.116 377.985 486.003 378.289L484.181 379.799C483.769 379.646 483.336 379.555 482.882 379.524C482.423 379.491 481.971 379.52 481.527 379.611C481.084 379.697 480.674 379.841 480.299 380.046C479.94 380.241 479.674 380.453 479.499 380.682C479.33 380.907 479.262 381.127 479.293 381.34C479.325 381.547 479.465 381.723 479.713 381.866C479.988 382.025 480.342 382.095 480.775 382.076C481.203 382.055 481.741 381.939 482.391 381.729L484.973 380.896C486.273 380.482 487.392 380.29 488.332 380.32C489.278 380.348 490.16 380.598 490.978 381.07C491.696 381.485 492.145 381.955 492.325 382.479C492.504 383.003 492.42 383.543 492.071 384.098C491.728 384.65 491.126 385.174 490.265 385.671ZM498.086 380.882L489.023 375.649L488.2 377.643L485.823 376.271L486.679 374.296L488.881 373.024L500.288 379.61L498.086 380.882ZM504.646 379.564L503.87 378.969C504.145 378.835 504.308 378.692 504.361 378.539C504.419 378.39 504.38 378.242 504.242 378.096C504.116 377.949 503.907 377.814 503.616 377.689L502.507 378.329L500.353 377.085L502.507 375.841L504.662 377.085C505.423 377.524 505.821 377.958 505.858 378.388C505.895 378.818 505.491 379.21 504.646 379.564ZM512.321 372.663L510.547 371.638L505.588 374.502L503.575 373.34L499.551 366.864L502.023 365.437L506.047 371.913L508.534 370.477L505.683 368.83L507.869 367.568L510.721 369.214L511.735 368.629L513.747 369.791L512.733 370.376L514.508 371.401L512.321 372.663ZM521.055 367.895C520.479 368.227 519.819 368.471 519.074 368.627C518.335 368.779 517.572 368.839 516.785 368.805C515.998 368.772 515.245 368.639 514.527 368.407L516.048 366.889C516.386 367.005 516.74 367.069 517.11 367.081C517.485 367.09 517.844 367.06 518.187 366.989C518.53 366.913 518.826 366.803 519.074 366.66C519.402 366.471 519.621 366.253 519.732 366.006C519.848 365.756 519.851 365.508 519.74 365.261C519.634 365.011 519.418 364.791 519.09 364.602C518.763 364.413 518.382 364.288 517.949 364.227C517.522 364.163 517.091 364.164 516.658 364.232C516.23 364.296 515.853 364.422 515.525 364.611C515.124 364.843 514.865 365.072 514.749 365.297C514.627 365.52 514.564 365.703 514.559 365.846L512.182 366.578L506.463 362.873L512.689 359.278L514.701 360.44L509.663 363.349L509.711 362.498L513.386 364.895L512.578 364.849C512.631 364.55 512.787 364.265 513.046 363.994C513.305 363.722 513.592 363.495 513.909 363.312C514.627 362.898 515.42 362.626 516.286 362.498C517.152 362.364 518.018 362.37 518.884 362.516C519.75 362.657 520.542 362.934 521.261 363.349C521.979 363.764 522.441 364.247 522.647 364.799C522.848 365.348 522.813 365.898 522.544 366.45C522.269 366.999 521.773 367.48 521.055 367.895ZM531.224 362.024C530.379 362.512 529.463 362.836 528.475 362.998C527.488 363.159 526.5 363.159 525.513 362.998C524.525 362.836 523.609 362.512 522.764 362.024L519.342 360.048C518.497 359.56 517.934 359.031 517.654 358.461C517.374 357.891 517.374 357.32 517.654 356.75C517.934 356.18 518.497 355.651 519.342 355.163C520.187 354.675 521.103 354.351 522.09 354.189C523.078 354.027 524.066 354.027 525.053 354.189C526.041 354.351 526.957 354.675 527.802 355.163L531.224 357.139C532.069 357.627 532.632 358.156 532.912 358.726C533.192 359.296 533.192 359.866 532.912 360.437C532.632 361.007 532.069 361.536 531.224 362.024ZM529.18 360.844C529.561 360.624 529.814 360.374 529.941 360.094C530.068 359.813 530.068 359.533 529.941 359.252C529.814 358.971 529.561 358.721 529.18 358.502L525.425 356.334C525.045 356.114 524.612 355.968 524.126 355.895C523.64 355.822 523.155 355.822 522.669 355.895C522.183 355.968 521.75 356.114 521.369 356.334C520.989 356.554 520.736 356.804 520.609 357.084C520.482 357.365 520.482 357.645 520.609 357.926C520.736 358.206 520.989 358.456 521.369 358.676L525.124 360.844C525.505 361.063 525.938 361.21 526.424 361.283C526.91 361.356 527.395 361.356 527.881 361.283C528.367 361.21 528.8 361.063 529.18 360.844ZM537.781 357.964L535.626 356.72L537.781 355.476L539.936 356.72L537.781 357.964ZM546.722 353.076C545.966 353.512 545.111 353.802 544.155 353.945C543.204 354.086 542.241 354.075 541.264 353.913C540.281 353.749 539.375 353.427 538.546 352.948L535.235 351.036C534.337 350.518 533.738 349.971 533.437 349.394C533.13 348.815 533.12 348.242 533.405 347.675C533.685 347.105 534.253 346.572 535.108 346.079C535.663 345.758 536.273 345.501 536.938 345.306C537.604 345.11 538.34 345.005 539.148 344.99L539.148 346.765C538.768 346.765 538.401 346.806 538.047 346.888C537.693 346.97 537.384 347.088 537.12 347.24C536.708 347.478 536.447 347.742 536.336 348.031C536.225 348.315 536.241 348.596 536.384 348.873C536.526 349.144 536.772 349.381 537.12 349.582L538.816 350.561L538.055 350.542C538.05 350.161 538.174 349.797 538.427 349.449C538.681 349.096 539.037 348.786 539.497 348.521C540.215 348.106 541.007 347.835 541.873 347.707C542.745 347.576 543.614 347.583 544.48 347.73C545.351 347.873 546.146 348.152 546.864 348.567C547.583 348.981 548.05 349.462 548.266 350.007C548.478 350.55 548.454 351.094 548.195 351.64C547.931 352.183 547.44 352.662 546.722 353.076ZM544.662 351.887C544.989 351.698 545.209 351.48 545.319 351.233C545.436 350.983 545.438 350.735 545.327 350.488C545.222 350.238 545.005 350.018 544.678 349.829C544.35 349.64 543.973 349.513 543.545 349.449C543.112 349.382 542.682 349.381 542.254 349.445C541.821 349.506 541.44 349.631 541.113 349.82C540.786 350.009 540.566 350.23 540.455 350.483C540.345 350.73 540.345 350.98 540.455 351.233C540.566 351.48 540.786 351.698 541.113 351.887C541.43 352.07 541.802 352.194 542.23 352.258C542.658 352.322 543.088 352.323 543.521 352.262C543.954 352.201 544.335 352.076 544.662 351.887ZM555.896 347.743C555.326 348.072 554.668 348.32 553.924 348.488C553.174 348.653 552.397 348.726 551.595 348.708C550.797 348.686 550.034 348.56 549.305 348.328L550.842 346.801C551.37 346.977 551.912 347.04 552.466 346.988C553.021 346.93 553.488 346.791 553.868 346.572C554.196 346.383 554.415 346.165 554.526 345.918C554.642 345.668 554.645 345.419 554.534 345.172C554.428 344.922 554.212 344.703 553.884 344.514C553.393 344.23 552.804 344.085 552.118 344.079C551.431 344.067 550.826 344.212 550.303 344.514C550.145 344.605 550.016 344.707 549.915 344.82C549.81 344.93 549.728 345.047 549.67 345.172L547.008 344.751L547.626 340.919L548.244 341.093L542.952 344.148L540.924 342.977L548.054 338.861L550.082 340.031L549.987 343.233L549.369 342.895C550.124 342.574 550.906 342.388 551.714 342.337C552.522 342.279 553.303 342.334 554.058 342.501C554.814 342.663 555.484 342.913 556.071 343.251C556.789 343.666 557.254 344.145 557.465 344.687C557.671 345.227 557.642 345.768 557.378 346.311C557.108 346.851 556.615 347.328 555.896 347.743ZM569.776 339.766C568.857 340.297 567.864 340.656 566.797 340.845C565.725 341.031 564.655 341.042 563.589 340.877C562.522 340.713 561.532 340.367 560.618 339.839L553.504 335.732L555.675 334.461L562.789 338.568C563.164 338.784 563.568 338.944 564.001 339.048C564.434 339.152 564.872 339.203 565.316 339.203C565.765 339.2 566.198 339.149 566.615 339.048C567.032 338.941 567.41 338.79 567.748 338.595C568.096 338.394 568.358 338.173 568.532 337.932C568.711 337.688 568.801 337.438 568.801 337.182C568.801 336.926 568.709 336.674 568.524 336.427C568.344 336.177 568.07 335.945 567.7 335.732L560.586 331.625L562.773 330.363L569.902 334.479C570.816 335.006 571.415 335.578 571.701 336.194C571.986 336.81 571.967 337.427 571.645 338.046C571.318 338.662 570.695 339.235 569.776 339.766ZM580.459 333.598C579.614 334.086 578.703 334.441 577.726 334.664C576.749 334.88 575.764 334.955 574.771 334.888C573.778 334.814 572.838 334.589 571.951 334.211L573.868 332.72C574.682 333.006 575.513 333.108 576.364 333.026C577.214 332.944 577.956 332.72 578.59 332.354C578.944 332.15 579.231 331.919 579.453 331.663C579.675 331.407 579.783 331.155 579.778 330.909C579.778 330.658 579.62 330.442 579.303 330.259C579.186 330.192 579.057 330.139 578.914 330.099C578.772 330.053 578.613 330.026 578.439 330.017C578.265 330.008 578.062 330.021 577.829 330.058C577.602 330.091 577.343 330.152 577.053 330.241L573.219 331.448C572.933 331.54 572.585 331.637 572.173 331.741C571.766 331.842 571.317 331.909 570.826 331.942C570.335 331.976 569.82 331.944 569.282 331.846C568.743 331.742 568.201 331.534 567.658 331.22C566.892 330.777 566.448 330.299 566.327 329.783C566.205 329.268 566.343 328.753 566.739 328.237C567.135 327.722 567.726 327.24 568.513 326.792C569.311 326.344 570.148 326.016 571.024 325.809C571.901 325.602 572.796 325.521 573.71 325.566C574.618 325.609 575.521 325.783 576.419 326.088L574.486 327.661C574.032 327.497 573.565 327.407 573.084 327.391C572.603 327.376 572.139 327.422 571.69 327.529C571.246 327.632 570.847 327.78 570.494 327.972C570.145 328.161 569.873 328.373 569.678 328.608C569.482 328.837 569.387 329.062 569.392 329.285C569.403 329.504 569.543 329.692 569.812 329.847C570.06 329.991 570.34 330.064 570.652 330.067C570.958 330.067 571.275 330.027 571.603 329.948C571.93 329.869 572.247 329.777 572.553 329.674L575.072 328.841C575.447 328.716 575.88 328.588 576.372 328.457C576.857 328.323 577.38 328.228 577.94 328.173C578.5 328.112 579.073 328.129 579.659 328.224C580.251 328.315 580.834 328.527 581.41 328.86C582.022 329.213 582.429 329.597 582.63 330.012C582.831 330.421 582.865 330.837 582.733 331.261C582.596 331.681 582.326 332.093 581.925 332.496C581.529 332.895 581.04 333.262 580.459 333.598ZM586.542 329.812L575.134 323.226L578.826 321.094C578.916 321.042 579.103 320.937 579.388 320.779C579.673 320.62 579.961 320.475 580.252 320.344C581.282 319.878 582.38 319.612 583.547 319.548C584.714 319.484 585.871 319.591 587.017 319.869C588.163 320.146 589.219 320.564 590.186 321.122C591.152 321.68 591.876 322.29 592.356 322.951C592.837 323.613 593.022 324.281 592.911 324.955C592.8 325.628 592.34 326.263 591.532 326.857C591.305 327.025 591.054 327.191 590.78 327.356C590.505 327.52 590.323 327.629 590.233 327.68L586.542 329.812ZM586.7 327.379L588.205 326.51C588.348 326.427 588.538 326.314 588.776 326.171C589.008 326.025 589.203 325.884 589.362 325.75C589.758 325.406 589.93 325.038 589.877 324.648C589.829 324.255 589.623 323.867 589.259 323.486C588.9 323.102 588.448 322.753 587.904 322.439C587.334 322.11 586.713 321.843 586.043 321.639C585.377 321.431 584.709 321.317 584.038 321.296C583.368 321.274 582.744 321.375 582.169 321.597C581.931 321.686 581.688 321.799 581.44 321.936C581.192 322.073 580.996 322.183 580.854 322.265L579.349 323.134L586.7 327.379Z" fill="#060606"/>
<circle r="14.6838" transform="matrix(0.866025 -0.5 0.866025 0.5 451.781 391.639)" fill="#060606"/>
<path d="M450.078 395.601C450.079 395.513 450.14 395.426 450.252 395.362L460.378 389.516C460.563 389.409 460.876 389.483 460.874 389.633L460.85 391.929C460.849 392.017 460.788 392.103 460.676 392.167L450.55 398.013C450.365 398.12 450.052 398.046 450.053 397.896L450.078 395.601Z" fill="white"/>
<path d="M442.71 391.347C442.714 391.257 442.775 391.171 442.883 391.108L453.009 385.262C453.194 385.155 453.508 385.229 453.506 385.379L453.482 387.675C453.481 387.763 453.419 387.849 453.308 387.913L443.182 393.76C442.997 393.866 442.684 393.792 442.685 393.642L442.71 391.347Z" fill="white"/>
<path d="M454.941 388.517C454.788 388.518 454.639 388.553 454.527 388.618L444.401 394.464C444.216 394.571 444.344 394.751 444.604 394.751L448.581 394.736C448.733 394.736 448.882 394.701 448.994 394.636L459.12 388.79C459.305 388.683 459.177 388.502 458.917 388.503L454.941 388.517Z" fill="white"/>
</g>
</svg>
