<svg width="120" height="120" viewBox="0 0 120 120" fill="none" xmlns="http://www.w3.org/2000/svg">
<rect width="120" height="120" rx="60" fill="#B0F127"/>
<path d="M83.2089 54.1231C84.1521 47.8185 79.3518 44.4293 72.7881 42.1684L74.9173 33.628L69.7188 32.3325L67.6459 40.6478C66.2793 40.3072 64.8756 39.9859 63.4808 39.6676L65.5685 31.2975L60.373 30.002L58.2423 38.5393C57.1111 38.2817 56.0006 38.027 54.9227 37.759L54.9287 37.7324L47.7594 35.9423L46.3765 41.4947C46.3765 41.4947 50.2335 42.3786 50.1521 42.4334C52.2576 42.959 52.6381 44.3523 52.5744 45.4569L50.1492 55.1862C50.2943 55.2232 50.4823 55.2765 50.6896 55.3594C50.5164 55.3165 50.3313 55.2691 50.1403 55.2232L46.7407 68.8525C46.4831 69.4921 45.8301 70.4516 44.3584 70.0873C44.4102 70.1629 40.5798 69.1442 40.5798 69.1442L37.999 75.0949L44.7641 76.7813C46.0226 77.0967 47.256 77.4269 48.4701 77.7378L46.3187 86.3759L51.5113 87.6714L53.642 79.1252C55.0604 79.5101 56.4374 79.8655 57.7848 80.2001L55.6616 88.7064L60.8601 90.002L63.0115 81.3802C71.8761 83.0578 78.5419 82.3811 81.3477 74.3634C83.6087 67.9078 81.2352 64.184 76.5712 61.7558C79.9678 60.9725 82.5263 58.7382 83.2089 54.1231V54.1231ZM71.3312 70.7788C69.7247 77.2344 58.8553 73.7445 55.3314 72.8695L58.1861 61.4256C61.71 62.3051 73.0102 64.0463 71.3312 70.7788V70.7788ZM72.9392 54.0298C71.4733 59.902 62.4266 56.9185 59.492 56.1871L62.0802 45.8078C65.0148 46.5392 74.4657 47.9044 72.9392 54.0298V54.0298Z" fill="#060606"/>
</svg>
