<svg width="62" height="62" viewBox="0 0 62 62" fill="none" xmlns="http://www.w3.org/2000/svg">
<rect opacity="0.1" x="0.356934" y="0.53125" width="61.2848" height="61.2848" rx="30.6424" fill="white"/>
<path d="M40.6907 39.4165H29.4004L31.5112 32.2987L34.751 31.3661L35.4382 29.0098L32.1984 29.9916L35.6346 18.3086V18.1613C35.6346 17.8177 35.3891 17.5723 35.0455 17.5723H30.6767C30.3331 17.5723 30.0385 17.8177 29.9403 18.1613L25.9151 31.9551L22.6753 32.9369L21.939 35.244L25.1788 34.2623L22.2826 44.129H39.5126C39.8562 44.129 40.1507 43.8836 40.2489 43.589L41.2306 40.2019V40.0547C41.2797 39.662 41.0343 39.4165 40.6907 39.4165V39.4165Z" fill="white"/>
</svg>
