<svg width="143" height="225" viewBox="0 0 143 225" fill="none" xmlns="http://www.w3.org/2000/svg">
<path fill-rule="evenodd" clip-rule="evenodd" d="M127.149 180.146C136.583 172.615 142.264 159.157 142.264 140.886C142.264 99.6391 113.307 49.4827 77.5853 28.859C58.7816 18.0027 41.8521 17.4939 30.034 25.4635L30.0306 25.458L29.7959 25.6257C29.4922 25.8347 29.1919 26.0493 28.8951 26.2695L17.4951 34.4176L19.3383 37.4069C15.217 44.8552 12.9063 54.5497 12.9063 66.2015C12.9062 107.449 41.864 157.605 77.5853 178.229C89.9881 185.39 101.576 188.049 111.419 186.742L113.425 189.996L127.184 180.202L127.149 180.146Z" fill="#B0F127"/>
<path d="M127.149 180.146L126.837 179.755L126.488 180.034L126.725 180.412L127.149 180.146ZM77.5853 28.859L77.3353 29.2921L77.5853 28.859ZM30.034 25.4635L29.6106 25.7294L29.8853 26.1669L30.3136 25.8781L30.034 25.4635ZM30.0306 25.458L30.454 25.1921L30.1717 24.7425L29.7398 25.0512L30.0306 25.458ZM29.7959 25.6257L30.0794 26.0377L30.0867 26.0325L29.7959 25.6257ZM28.8951 26.2695L29.1859 26.6764L29.1931 26.671L28.8951 26.2695ZM17.4951 34.4176L17.2044 34.0108L16.8244 34.2824L17.0695 34.68L17.4951 34.4176ZM19.3383 37.4069L19.7758 37.649L19.9173 37.3932L19.7639 37.1445L19.3383 37.4069ZM12.9063 66.2015L13.4063 66.2015V66.2015H12.9063ZM77.5853 178.229L77.8353 177.796L77.8353 177.796L77.5853 178.229ZM111.419 186.742L111.844 186.48L111.674 186.204L111.353 186.246L111.419 186.742ZM113.425 189.996L112.999 190.258L113.28 190.713L113.715 190.403L113.425 189.996ZM127.184 180.202L127.474 180.61L127.858 180.336L127.607 179.937L127.184 180.202ZM141.764 140.886C141.764 159.063 136.113 172.35 126.837 179.755L127.46 180.537C137.052 172.879 142.764 159.251 142.764 140.886H141.764ZM77.3353 29.2921C95.102 39.5497 111.215 57.1717 122.887 77.3888C134.56 97.6059 141.764 120.371 141.764 140.886H142.764C142.764 120.154 135.49 97.2177 123.753 76.8888C112.016 56.56 95.7898 38.7921 77.8353 28.426L77.3353 29.2921ZM30.3136 25.8781C41.9159 18.054 58.6274 18.4911 77.3353 29.2921L77.8353 28.426C58.9358 17.5144 41.7883 16.9339 29.7545 25.049L30.3136 25.8781ZM30.4575 25.1976L30.454 25.1921L29.6071 25.7239L29.6106 25.7294L30.4575 25.1976ZM29.7398 25.0512L29.5052 25.2189L30.0867 26.0325L30.3213 25.8648L29.7398 25.0512ZM29.1931 26.671C29.4851 26.4543 29.7805 26.2432 30.0793 26.0376L29.5125 25.2138C29.2039 25.4261 28.8988 25.6442 28.5972 25.868L29.1931 26.671ZM28.6044 25.8627L17.2044 34.0108L17.7859 34.8243L29.1859 26.6763L28.6044 25.8627ZM17.0695 34.68L18.9127 37.6693L19.7639 37.1445L17.9207 34.1551L17.0695 34.68ZM13.4063 66.2015C13.4063 54.613 15.7048 45.0065 19.7758 37.649L18.9008 37.1648C14.7293 44.7039 12.4063 54.4863 12.4063 66.2015H13.4063ZM77.8353 177.796C60.0686 167.538 43.9557 149.916 32.2833 129.699C20.611 109.482 13.4062 86.7167 13.4063 66.2015L12.4063 66.2015C12.4062 86.9336 19.6804 109.87 31.4173 130.199C43.1541 150.528 59.3808 168.296 77.3353 178.662L77.8353 177.796ZM111.353 186.246C101.649 187.534 90.1721 184.919 77.8353 177.796L77.3353 178.662C89.8041 185.861 101.502 188.563 111.484 187.238L111.353 186.246ZM110.993 187.004L112.999 190.258L113.851 189.734L111.844 186.48L110.993 187.004ZM113.715 190.403L127.474 180.61L126.894 179.795L113.135 189.589L113.715 190.403ZM127.607 179.937L127.572 179.88L126.725 180.412L126.76 180.468L127.607 179.937Z" fill="#060606"/>
<mask id="mask0_3752_36593" style="mask-type:alpha" maskUnits="userSpaceOnUse" x="12" y="19" width="131" height="172">
<path fill-rule="evenodd" clip-rule="evenodd" d="M127.149 180.146C136.583 172.615 142.264 159.157 142.264 140.886C142.264 99.6391 113.307 49.4827 77.5853 28.859C58.7816 18.0027 41.8521 17.4939 30.034 25.4635L30.0306 25.458L29.7959 25.6257C29.4922 25.8347 29.1919 26.0493 28.8951 26.2695L17.4951 34.4176L19.3383 37.4069C15.217 44.8552 12.9063 54.5497 12.9063 66.2015C12.9062 107.449 41.864 157.605 77.5853 178.229C89.9881 185.39 101.576 188.049 111.419 186.742L113.425 189.996L127.184 180.202L127.149 180.146Z" fill="#B0F127"/>
<path d="M127.149 180.146L126.837 179.755L126.488 180.034L126.725 180.412L127.149 180.146ZM77.5853 28.859L77.3353 29.2921L77.5853 28.859ZM30.034 25.4635L29.6106 25.7294L29.8853 26.1669L30.3136 25.8781L30.034 25.4635ZM30.0306 25.458L30.454 25.1921L30.1717 24.7425L29.7398 25.0512L30.0306 25.458ZM29.7959 25.6257L30.0794 26.0377L30.0867 26.0325L29.7959 25.6257ZM28.8951 26.2695L29.1859 26.6764L29.1931 26.671L28.8951 26.2695ZM17.4951 34.4176L17.2044 34.0108L16.8244 34.2824L17.0695 34.68L17.4951 34.4176ZM19.3383 37.4069L19.7758 37.649L19.9173 37.3932L19.7639 37.1445L19.3383 37.4069ZM12.9063 66.2015L13.4063 66.2015V66.2015H12.9063ZM77.5853 178.229L77.8353 177.796L77.8353 177.796L77.5853 178.229ZM111.419 186.742L111.844 186.48L111.674 186.204L111.353 186.246L111.419 186.742ZM113.425 189.996L112.999 190.258L113.28 190.713L113.715 190.403L113.425 189.996ZM127.184 180.202L127.474 180.61L127.858 180.336L127.607 179.937L127.184 180.202ZM141.764 140.886C141.764 159.063 136.113 172.35 126.837 179.755L127.46 180.537C137.052 172.879 142.764 159.251 142.764 140.886H141.764ZM77.3353 29.2921C95.102 39.5497 111.215 57.1717 122.887 77.3888C134.56 97.6059 141.764 120.371 141.764 140.886H142.764C142.764 120.154 135.49 97.2177 123.753 76.8888C112.016 56.56 95.7898 38.7921 77.8353 28.426L77.3353 29.2921ZM30.3136 25.8781C41.9159 18.054 58.6274 18.4911 77.3353 29.2921L77.8353 28.426C58.9358 17.5144 41.7883 16.9339 29.7545 25.049L30.3136 25.8781ZM30.4575 25.1976L30.454 25.1921L29.6071 25.7239L29.6106 25.7294L30.4575 25.1976ZM29.7398 25.0512L29.5052 25.2189L30.0867 26.0325L30.3213 25.8648L29.7398 25.0512ZM29.1931 26.671C29.4851 26.4543 29.7805 26.2432 30.0793 26.0376L29.5125 25.2138C29.2039 25.4261 28.8988 25.6442 28.5972 25.868L29.1931 26.671ZM28.6044 25.8627L17.2044 34.0108L17.7859 34.8243L29.1859 26.6763L28.6044 25.8627ZM17.0695 34.68L18.9127 37.6693L19.7639 37.1445L17.9207 34.1551L17.0695 34.68ZM13.4063 66.2015C13.4063 54.613 15.7048 45.0065 19.7758 37.649L18.9008 37.1648C14.7293 44.7039 12.4063 54.4863 12.4063 66.2015H13.4063ZM77.8353 177.796C60.0686 167.538 43.9557 149.916 32.2833 129.699C20.611 109.482 13.4062 86.7167 13.4063 66.2015L12.4063 66.2015C12.4062 86.9336 19.6804 109.87 31.4173 130.199C43.1541 150.528 59.3808 168.296 77.3353 178.662L77.8353 177.796ZM111.353 186.246C101.649 187.534 90.1721 184.919 77.8353 177.796L77.3353 178.662C89.8041 185.861 101.502 188.563 111.484 187.238L111.353 186.246ZM110.993 187.004L112.999 190.258L113.851 189.734L111.844 186.48L110.993 187.004ZM113.715 190.403L127.474 180.61L126.894 179.795L113.135 189.589L113.715 190.403ZM127.607 179.937L127.572 179.88L126.725 180.412L126.76 180.468L127.607 179.937Z" fill="#060606"/>
</mask>
<g mask="url(#mask0_3752_36593)">
<rect width="157.989" height="67.9325" transform="matrix(0.866025 -0.5 2.20305e-08 1 82.6943 178.664)" fill="#B0F127"/>
</g>
<path d="M127.149 180.146L126.837 179.755L126.488 180.034L126.725 180.412L127.149 180.146ZM77.5853 28.859L77.3353 29.2921L77.5853 28.859ZM30.034 25.4635L29.6106 25.7294L29.8853 26.1669L30.3136 25.8781L30.034 25.4635ZM30.0306 25.458L30.454 25.1921L30.1717 24.7425L29.7398 25.0512L30.0306 25.458ZM29.7959 25.6257L30.0794 26.0377L30.0867 26.0325L29.7959 25.6257ZM28.8951 26.2695L29.1859 26.6764L29.1931 26.671L28.8951 26.2695ZM17.4951 34.4176L17.2044 34.0108L16.8244 34.2824L17.0695 34.68L17.4951 34.4176ZM19.3383 37.4069L19.7758 37.649L19.9173 37.3932L19.7639 37.1445L19.3383 37.4069ZM12.9063 66.2015L13.4063 66.2015V66.2015H12.9063ZM77.5853 178.229L77.8353 177.796L77.8353 177.796L77.5853 178.229ZM111.419 186.742L111.844 186.48L111.674 186.204L111.353 186.246L111.419 186.742ZM113.425 189.996L112.999 190.258L113.28 190.713L113.715 190.403L113.425 189.996ZM127.184 180.202L127.474 180.61L127.858 180.336L127.607 179.937L127.184 180.202ZM141.764 140.886C141.764 159.063 136.113 172.35 126.837 179.755L127.46 180.537C137.052 172.879 142.764 159.251 142.764 140.886H141.764ZM77.3353 29.2921C95.102 39.5497 111.215 57.1717 122.887 77.3888C134.56 97.6059 141.764 120.371 141.764 140.886H142.764C142.764 120.154 135.49 97.2177 123.753 76.8888C112.016 56.56 95.7898 38.7921 77.8353 28.426L77.3353 29.2921ZM30.3136 25.8781C41.9159 18.054 58.6274 18.4911 77.3353 29.2921L77.8353 28.426C58.9358 17.5144 41.7883 16.9339 29.7545 25.049L30.3136 25.8781ZM30.4575 25.1976L30.454 25.1921L29.6071 25.7239L29.6106 25.7294L30.4575 25.1976ZM29.7398 25.0512L29.5052 25.2189L30.0867 26.0325L30.3213 25.8648L29.7398 25.0512ZM29.1931 26.671C29.4851 26.4543 29.7805 26.2432 30.0793 26.0376L29.5125 25.2138C29.2039 25.4261 28.8988 25.6442 28.5972 25.868L29.1931 26.671ZM28.6044 25.8627L17.2044 34.0108L17.7859 34.8243L29.1859 26.6763L28.6044 25.8627ZM17.0695 34.68L18.9127 37.6693L19.7639 37.1445L17.9207 34.1551L17.0695 34.68ZM13.4063 66.2015C13.4063 54.613 15.7048 45.0065 19.7758 37.649L18.9008 37.1648C14.7293 44.7039 12.4063 54.4863 12.4063 66.2015H13.4063ZM77.8353 177.796C60.0686 167.538 43.9557 149.916 32.2833 129.699C20.611 109.482 13.4062 86.7167 13.4063 66.2015L12.4063 66.2015C12.4062 86.9336 19.6804 109.87 31.4173 130.199C43.1541 150.528 59.3808 168.296 77.3353 178.662L77.8353 177.796ZM111.353 186.246C101.649 187.534 90.1721 184.919 77.8353 177.796L77.3353 178.662C89.8041 185.861 101.502 188.563 111.484 187.238L111.353 186.246ZM110.993 187.004L112.999 190.258L113.851 189.734L111.844 186.48L110.993 187.004ZM113.715 190.403L127.474 180.61L126.894 179.795L113.135 189.589L113.715 190.403ZM127.607 179.937L127.572 179.88L126.725 180.412L126.76 180.468L127.607 179.937Z" fill="#060606"/>
<circle r="74.6849" transform="matrix(0.866025 0.5 -2.20305e-08 1 65.679 112.027)" fill="white" stroke="#060606"/>
<mask id="mask1_3752_36593" style="mask-type:alpha" maskUnits="userSpaceOnUse" x="0" y="27" width="131" height="170">
<circle r="74.6849" transform="matrix(0.866025 0.5 -2.20305e-08 1 65.679 112.027)" fill="#B0F127" stroke="#060606"/>
</mask>
<g mask="url(#mask1_3752_36593)">
<path d="M86.6024 118.817C87.6304 111.476 82.3984 104.19 75.2444 97.214L77.565 87.8053L71.8989 82.9035L69.6396 92.0643C68.15 90.7757 66.6201 89.488 65.0999 88.2097L67.3754 78.9892L61.7125 74.0892L59.3903 83.4933C58.1573 82.4572 56.9469 81.4378 55.7721 80.4223L55.7785 80.3924L47.9644 73.628L46.4571 79.7458C46.4571 79.7458 50.6611 83.2855 50.5724 83.3032C52.8672 85.2896 53.282 87.2826 53.2126 88.6327L50.5691 99.3514C50.7273 99.4893 50.9322 99.6747 51.1582 99.9095C50.9694 99.7465 50.7676 99.5704 50.5595 99.3924L46.8541 114.406C46.5733 115.049 45.8616 115.846 44.2575 114.461C44.314 114.589 40.139 110.897 40.139 110.897L37.3262 116.762L44.6997 123.141C46.0714 124.33 47.4157 125.522 48.7391 126.677L46.3942 136.195L52.0538 141.093L54.3761 131.678C55.9221 133.055 57.423 134.369 58.8916 135.638L56.5774 145.007L62.2435 149.909L64.5883 140.412C74.2503 148.102 81.5157 151.445 84.5738 143.12C87.0381 136.418 84.4512 130.238 79.3677 124.246C83.0698 125.398 85.8584 124.196 86.6024 118.817V118.817ZM73.6564 132.305C71.9054 139.419 60.0584 128.187 56.2175 124.868L59.3289 112.262C63.1698 115.586 75.4864 124.888 73.6564 132.305V132.305ZM75.409 112.237C73.8113 118.705 63.9509 109.258 60.7523 106.49L63.5733 95.0561C66.7718 97.8234 77.0728 105.489 75.409 112.237V112.237Z" fill="#060606"/>
<circle r="74.6849" transform="matrix(0.866025 0.5 -2.20305e-08 1 65.679 112.027)" stroke="#060606"/>
</g>
</svg>
