<svg width="65" height="81" viewBox="0 0 65 81" fill="none" xmlns="http://www.w3.org/2000/svg">
<g clip-path="url(#clip0_3754_37716)">
<path fill-rule="evenodd" clip-rule="evenodd" d="M57.3327 72.4462C61.546 69.0829 64.0833 63.073 64.0833 54.9138C64.0833 36.4942 51.1518 14.096 35.1999 4.88621C26.8026 0.0380268 19.2422 -0.189074 13.9647 3.37017L13.9612 3.36464L8.36328 7.36568L9.18846 8.70394C7.34822 12.03 6.31641 16.3591 6.31641 21.5621C6.31641 39.9817 19.248 62.3799 35.1999 71.5897C40.7383 74.7873 45.9126 75.9747 50.3081 75.3915L51.2023 76.8417L57.3465 72.4682L57.3327 72.4462Z" fill="#B0F127"/>
<path d="M57.3327 72.4462L56.8648 71.8601L56.3415 72.2779L56.6975 72.845L57.3327 72.4462ZM35.1999 4.88621L35.5749 4.23669L35.5749 4.23669L35.1999 4.88621ZM13.9647 3.37017L13.3295 3.76898L13.7415 4.42527L14.384 3.99198L13.9647 3.37017ZM13.9612 3.36464L14.5964 2.96583L14.1729 2.29142L13.5251 2.75447L13.9612 3.36464ZM8.36328 7.36568L7.92717 6.75551L7.35715 7.16293L7.72488 7.75932L8.36328 7.36568ZM9.18846 8.70394L9.84471 9.06703L10.0569 8.68345L9.82685 8.31031L9.18846 8.70394ZM35.1999 71.5897L34.8249 72.2392L34.8249 72.2392L35.1999 71.5897ZM50.3081 75.3915L50.9465 74.9978L50.6913 74.584L50.2094 74.648L50.3081 75.3915ZM51.2023 76.8417L50.5639 77.2354L50.9845 77.9174L51.6372 77.4527L51.2023 76.8417ZM57.3465 72.4682L57.7814 73.0792L58.358 72.6688L57.9817 72.0694L57.3465 72.4682ZM63.3333 54.9138C63.3333 62.9317 60.8415 68.6856 56.8648 71.8601L57.8006 73.0324C62.2505 69.4802 64.8333 63.2143 64.8333 54.9138H63.3333ZM34.8249 5.53573C42.66 10.0593 49.7955 17.8519 54.974 26.8213C60.1525 35.7908 63.3333 45.8666 63.3333 54.9138H64.8333C64.8333 45.5414 61.5483 35.2084 56.2731 26.0713C50.9978 16.9343 43.6916 8.92292 35.5749 4.23669L34.8249 5.53573ZM14.384 3.99198C19.3379 0.651021 26.5712 0.770503 34.8249 5.53573L35.5749 4.23669C27.0339 -0.694449 19.1465 -1.02917 13.5453 2.74837L14.384 3.99198ZM14.5998 2.97137L14.5964 2.96583L13.326 3.76344L13.3295 3.76898L14.5998 2.97137ZM13.5251 2.75447L7.92717 6.75551L8.79939 7.97585L14.3973 3.97481L13.5251 2.75447ZM7.72488 7.75932L8.55006 9.09758L9.82685 8.31031L9.00168 6.97205L7.72488 7.75932ZM7.06641 21.5621C7.06641 16.4541 8.07979 12.257 9.84471 9.06703L8.5322 8.34086C6.61665 11.8031 5.56641 16.264 5.56641 21.5621H7.06641ZM35.5749 70.9402C27.7398 66.4166 20.6042 58.624 15.4257 49.6546C10.2472 40.6852 7.06641 30.6093 7.06641 21.5621H5.56641C5.56641 30.9345 8.8514 41.2676 14.1267 50.4046C19.4019 59.5416 26.7081 67.553 34.8249 72.2392L35.5749 70.9402ZM50.2094 74.648C46.0222 75.2036 41.0143 74.0807 35.5749 70.9402L34.8249 72.2392C40.4623 75.494 45.803 76.7458 50.4067 76.1349L50.2094 74.648ZM49.6697 75.7851L50.5639 77.2354L51.8407 76.4481L50.9465 74.9978L49.6697 75.7851ZM51.6372 77.4527L57.7814 73.0792L56.9116 71.8572L50.7674 76.2307L51.6372 77.4527ZM57.9817 72.0694L57.9679 72.0475L56.6975 72.845L56.7113 72.867L57.9817 72.0694Z" fill="#060606"/>
<mask id="mask0_3754_37716" style="mask-type:alpha" maskUnits="userSpaceOnUse" x="5" y="0" width="60" height="78">
<path fill-rule="evenodd" clip-rule="evenodd" d="M57.3327 72.4501C61.546 69.0868 64.0833 63.0769 64.0833 54.9177C64.0833 36.4981 51.1518 14.0999 35.1999 4.89012C26.8026 0.041933 19.2422 -0.185168 13.9647 3.37408L13.9612 3.36855L8.36328 7.36959L9.18846 8.70785C7.34822 12.0339 6.31641 16.363 6.31641 21.566C6.31641 39.9856 19.248 62.3838 35.1999 71.5936C40.7383 74.7912 45.9126 75.9786 50.3081 75.3954L51.2023 76.8456L57.3465 72.4721L57.3327 72.4501Z" fill="#B0F127"/>
<path d="M57.3327 72.4501L56.8648 71.864L56.3415 72.2818L56.6975 72.8489L57.3327 72.4501ZM35.1999 4.89012L35.5749 4.2406L35.5749 4.2406L35.1999 4.89012ZM13.9647 3.37408L13.3295 3.77288L13.7415 4.42918L14.384 3.99589L13.9647 3.37408ZM13.9612 3.36855L14.5964 2.96974L14.1729 2.29533L13.5251 2.75838L13.9612 3.36855ZM8.36328 7.36959L7.92717 6.75942L7.35715 7.16683L7.72488 7.76322L8.36328 7.36959ZM9.18846 8.70785L9.84471 9.07094L10.0569 8.68736L9.82685 8.31421L9.18846 8.70785ZM35.1999 71.5936L34.8249 72.2431L34.8249 72.2431L35.1999 71.5936ZM50.3081 75.3954L50.9465 75.0017L50.6913 74.5879L50.2094 74.6519L50.3081 75.3954ZM51.2023 76.8456L50.5639 77.2393L50.9845 77.9213L51.6372 77.4566L51.2023 76.8456ZM57.3465 72.4721L57.7814 73.0831L58.358 72.6727L57.9817 72.0734L57.3465 72.4721ZM63.3333 54.9177C63.3333 62.9356 60.8415 68.6895 56.8648 71.864L57.8006 73.0363C62.2505 69.4841 64.8333 63.2182 64.8333 54.9177H63.3333ZM34.8249 5.53964C42.66 10.0632 49.7955 17.8558 54.974 26.8252C60.1525 35.7947 63.3333 45.8705 63.3333 54.9177H64.8333C64.8333 45.5453 61.5483 35.2123 56.2731 26.0752C50.9978 16.9382 43.6916 8.92683 35.5749 4.2406L34.8249 5.53964ZM14.384 3.99589C19.3379 0.654927 26.5712 0.774409 34.8249 5.53964L35.5749 4.2406C27.0339 -0.690543 19.1465 -1.02526 13.5453 2.75227L14.384 3.99589ZM14.5998 2.97527L14.5964 2.96974L13.326 3.76735L13.3295 3.77288L14.5998 2.97527ZM13.5251 2.75838L7.92717 6.75942L8.79939 7.97976L14.3973 3.97872L13.5251 2.75838ZM7.72488 7.76322L8.55006 9.10149L9.82685 8.31421L9.00168 6.97595L7.72488 7.76322ZM7.06641 21.566C7.06641 16.458 8.07979 12.2609 9.84471 9.07094L8.5322 8.34476C6.61665 11.807 5.56641 16.268 5.56641 21.566H7.06641ZM35.5749 70.9441C27.7398 66.4205 20.6042 58.6279 15.4257 49.6585C10.2472 40.6891 7.06641 30.6132 7.06641 21.566H5.56641C5.56641 30.9385 8.8514 41.2715 14.1267 50.4085C19.4019 59.5455 26.7081 67.5569 34.8249 72.2431L35.5749 70.9441ZM50.2094 74.6519C46.0222 75.2075 41.0143 74.0846 35.5749 70.9441L34.8249 72.2431C40.4623 75.4979 45.803 76.7498 50.4067 76.1388L50.2094 74.6519ZM49.6697 75.789L50.5639 77.2393L51.8407 76.452L50.9465 75.0017L49.6697 75.789ZM51.6372 77.4566L57.7814 73.0831L56.9116 71.8611L50.7674 76.2346L51.6372 77.4566ZM57.9817 72.0734L57.9679 72.0514L56.6975 72.8489L56.7113 72.8709L57.9817 72.0734Z" fill="#060606"/>
</mask>
<g mask="url(#mask0_3754_37716)">
<rect width="70.5526" height="30.3363" transform="matrix(0.866025 -0.5 2.20305e-08 1 37.4805 71.7852)" fill="#141414"/>
</g>
<path d="M57.3327 72.4462L56.8648 71.8601L56.3415 72.2779L56.6975 72.845L57.3327 72.4462ZM35.1999 4.88621L35.5749 4.23669L35.5749 4.23669L35.1999 4.88621ZM13.9647 3.37017L13.3295 3.76898L13.7415 4.42527L14.384 3.99198L13.9647 3.37017ZM13.9612 3.36464L14.5964 2.96583L14.1729 2.29142L13.5251 2.75447L13.9612 3.36464ZM8.36328 7.36568L7.92717 6.75551L7.35715 7.16293L7.72488 7.75932L8.36328 7.36568ZM9.18846 8.70394L9.84471 9.06703L10.0569 8.68345L9.82685 8.31031L9.18846 8.70394ZM35.1999 71.5897L34.8249 72.2392L34.8249 72.2392L35.1999 71.5897ZM50.3081 75.3915L50.9465 74.9978L50.6913 74.584L50.2094 74.648L50.3081 75.3915ZM51.2023 76.8417L50.5639 77.2354L50.9845 77.9174L51.6372 77.4527L51.2023 76.8417ZM57.3465 72.4682L57.7814 73.0792L58.358 72.6688L57.9817 72.0694L57.3465 72.4682ZM63.3333 54.9138C63.3333 62.9317 60.8415 68.6856 56.8648 71.8601L57.8006 73.0324C62.2505 69.4802 64.8333 63.2143 64.8333 54.9138H63.3333ZM34.8249 5.53573C42.66 10.0593 49.7955 17.8519 54.974 26.8213C60.1525 35.7908 63.3333 45.8666 63.3333 54.9138H64.8333C64.8333 45.5414 61.5483 35.2084 56.2731 26.0713C50.9978 16.9343 43.6916 8.92292 35.5749 4.23669L34.8249 5.53573ZM14.384 3.99198C19.3379 0.651021 26.5712 0.770503 34.8249 5.53573L35.5749 4.23669C27.0339 -0.694449 19.1465 -1.02917 13.5453 2.74837L14.384 3.99198ZM14.5998 2.97137L14.5964 2.96583L13.326 3.76344L13.3295 3.76898L14.5998 2.97137ZM13.5251 2.75447L7.92717 6.75551L8.79939 7.97585L14.3973 3.97481L13.5251 2.75447ZM7.72488 7.75932L8.55006 9.09758L9.82685 8.31031L9.00168 6.97205L7.72488 7.75932ZM7.06641 21.5621C7.06641 16.4541 8.07979 12.257 9.84471 9.06703L8.5322 8.34086C6.61665 11.8031 5.56641 16.264 5.56641 21.5621H7.06641ZM35.5749 70.9402C27.7398 66.4166 20.6042 58.624 15.4257 49.6546C10.2472 40.6852 7.06641 30.6093 7.06641 21.5621H5.56641C5.56641 30.9345 8.8514 41.2676 14.1267 50.4046C19.4019 59.5416 26.7081 67.553 34.8249 72.2392L35.5749 70.9402ZM50.2094 74.648C46.0222 75.2036 41.0143 74.0807 35.5749 70.9402L34.8249 72.2392C40.4623 75.494 45.803 76.7458 50.4067 76.1349L50.2094 74.648ZM49.6697 75.7851L50.5639 77.2354L51.8407 76.4481L50.9465 74.9978L49.6697 75.7851ZM51.6372 77.4527L57.7814 73.0792L56.9116 71.8572L50.7674 76.2307L51.6372 77.4527ZM57.9817 72.0694L57.9679 72.0475L56.6975 72.845L56.7113 72.867L57.9817 72.0694Z" fill="#060606"/>
<circle r="33.3517" transform="matrix(0.866025 0.5 -2.20305e-08 1 29.8835 42.0276)" fill="#E7E7E7" stroke="#060606" stroke-width="1.5"/>
<mask id="mask1_3754_37716" style="mask-type:alpha" maskUnits="userSpaceOnUse" x="0" y="3" width="60" height="78">
<circle r="33.3517" transform="matrix(0.866025 0.5 -2.20305e-08 1 29.8854 42.0276)" fill="white" stroke="#060606" stroke-width="1.5"/>
</mask>
<g mask="url(#mask1_3754_37716)">
<rect width="70.5526" height="37.8342" transform="matrix(0.866025 0.5 2.20305e-08 -1 -0.775391 25.4551)" fill="white"/>
<circle r="33.3517" transform="matrix(0.866025 0.5 -2.20305e-08 1 29.8854 42.0276)" stroke="#060606" stroke-width="1.5"/>
<path d="M29.8841 25.0979L29.6875 25.7558L29.6875 48.1413L29.8841 48.4814L38.883 47.5348L29.8841 25.0979Z" fill="#060606"/>
<path d="M29.8837 25.0979L20.8848 37.1437L29.8837 48.4815L29.8837 37.6162L29.8837 25.0979Z" fill="#060606"/>
<path d="M29.8842 50.4511L29.7734 50.543L29.7734 58.5172L29.8842 58.9548L38.8885 49.5106L29.8842 50.4511Z" fill="#060606"/>
<path d="M29.8837 58.9516L29.8837 50.4479L20.8848 39.1133L29.8837 58.9516Z" fill="#060606"/>
<path d="M29.8828 48.4842L38.8816 47.5376L29.8828 37.6191L29.8828 48.4842Z" fill="#060606"/>
<path d="M20.8848 37.1449L29.8836 48.4824L29.8836 37.6173L20.8848 37.1449Z" fill="#060606"/>
</g>
</g>
<defs>
<clipPath id="clip0_3754_37716">
<rect width="65" height="81" fill="white"/>
</clipPath>
</defs>
</svg>
