<svg width="93" height="145" viewBox="0 0 93 145" fill="none" xmlns="http://www.w3.org/2000/svg">
<path fill-rule="evenodd" clip-rule="evenodd" d="M81.984 116.679C88.0544 111.832 91.7102 103.173 91.7102 91.4164C91.7102 64.8748 73.0766 32.6005 50.0909 19.3297C37.9915 12.3441 27.098 12.0166 19.4934 17.1445L19.491 17.1407L19.3269 17.258C19.1401 17.3867 18.9554 17.5188 18.7727 17.6541L11.4248 22.9059L12.6109 24.8295C9.95873 29.6223 8.47168 35.8607 8.47168 43.3586C8.47168 69.9002 27.1053 102.174 50.0909 115.445C58.0721 120.053 65.5285 121.764 71.8624 120.923L73.1532 123.017L82.0066 116.715L81.984 116.679Z" fill="#B0F127"/>
<path d="M81.984 116.679L81.5161 116.093L80.9928 116.51L81.3488 117.077L81.984 116.679ZM50.0909 19.3297L49.7159 19.9792L49.7159 19.9792L50.0909 19.3297ZM19.4934 17.1445L18.8582 17.5432L19.2702 18.1996L19.9127 17.7663L19.4934 17.1445ZM19.491 17.1407L20.1263 16.7419L19.7028 16.0674L19.0549 16.5305L19.491 17.1407ZM19.3269 17.258L19.7525 17.8757L19.763 17.8682L19.3269 17.258ZM18.7727 17.6541L19.2089 18.2644L19.2192 18.2567L18.7727 17.6541ZM11.4248 22.9059L10.9887 22.2958L10.4187 22.7032L10.7864 23.2996L11.4248 22.9059ZM12.6109 24.8295L13.2671 25.1926L13.4794 24.809L13.2493 24.4359L12.6109 24.8295ZM50.0909 115.445L49.7159 116.095L49.7159 116.095L50.0909 115.445ZM71.8624 120.923L72.5008 120.53L72.2456 120.116L71.7637 120.18L71.8624 120.923ZM73.1532 123.017L72.5148 123.41L72.9353 124.092L73.5881 123.628L73.1532 123.017ZM82.0066 116.715L82.4415 117.326L83.018 116.915L82.6418 116.316L82.0066 116.715ZM90.9602 91.4164C90.9602 103.031 87.35 111.435 81.5161 116.093L82.452 117.265C88.7589 112.229 92.4602 103.314 92.4602 91.4164H90.9602ZM49.7159 19.9792C61.0679 26.5333 71.3875 37.8102 78.8707 50.7715C86.3539 63.7328 90.9602 78.3082 90.9602 91.4164H92.4602C92.4602 77.983 87.7497 63.1504 80.1697 50.0215C72.5897 36.8926 62.0996 25.3969 50.4659 18.6802L49.7159 19.9792ZM19.9127 17.7663C27.1937 12.8567 37.7602 13.0766 49.7159 19.9792L50.4659 18.6802C38.2228 11.6117 27.0024 11.1765 19.0741 16.5226L19.9127 17.7663ZM20.1286 16.7457L20.1263 16.7419L18.8558 17.5394L18.8582 17.5432L20.1286 16.7457ZM19.0549 16.5305L18.8907 16.6479L19.763 17.8682L19.9272 17.7509L19.0549 16.5305ZM19.2192 18.2567C19.395 18.1265 19.5728 17.9994 19.7525 17.8756L18.9012 16.6405C18.7074 16.7741 18.5158 16.9111 18.3262 17.0515L19.2192 18.2567ZM18.3366 17.0439L10.9887 22.2958L11.8609 23.5161L19.2088 18.2643L18.3366 17.0439ZM10.7864 23.2996L11.9725 25.2231L13.2493 24.4359L12.0632 22.5123L10.7864 23.2996ZM9.22168 43.3586C9.22168 35.9557 10.6903 29.8493 13.2671 25.1926L11.9546 24.4664C9.22717 29.3954 7.72168 35.7657 7.72168 43.3586H9.22168ZM50.4659 114.796C39.1139 108.242 28.7944 96.9648 21.3112 84.0035C13.828 71.0422 9.22168 56.4668 9.22168 43.3586H7.72168C7.72168 56.792 12.4322 71.6246 20.0122 84.7535C27.5921 97.8824 38.0823 109.378 49.7159 116.095L50.4659 114.796ZM71.7637 120.18C65.6381 120.993 58.3481 119.347 50.4659 114.796L49.7159 116.095C57.796 120.76 65.4189 122.535 71.9611 121.667L71.7637 120.18ZM71.224 121.317L72.5148 123.41L73.7915 122.623L72.5008 120.53L71.224 121.317ZM73.5881 123.628L82.4415 117.326L81.5716 116.104L72.7182 122.406L73.5881 123.628ZM82.6418 116.316L82.6192 116.28L81.3488 117.077L81.3714 117.113L82.6418 116.316Z" fill="#060606"/>
<mask id="mask0_3751_42912" style="mask-type:alpha" maskUnits="userSpaceOnUse" x="7" y="12" width="86" height="113">
<path fill-rule="evenodd" clip-rule="evenodd" d="M81.984 116.671C88.0544 111.824 91.7102 103.165 91.7102 91.4086C91.7102 64.867 73.0766 32.5927 50.0909 19.3219C37.9915 12.3363 27.098 12.0088 19.4934 17.1367L19.491 17.1329L19.3269 17.2502C19.1401 17.3789 18.9554 17.511 18.7727 17.6463L11.4248 22.8981L12.6109 24.8217C9.95873 29.6145 8.47168 35.8529 8.47168 43.3508C8.47168 69.8924 27.1053 102.167 50.0909 115.437C58.0721 120.045 65.5285 121.756 71.8624 120.915L73.1532 123.009L82.0066 116.707L81.984 116.671Z" fill="#B0F127"/>
<path d="M81.984 116.671L81.5161 116.085L80.9928 116.503L81.3488 117.07L81.984 116.671ZM50.0909 19.3219L49.7159 19.9714L49.7159 19.9714L50.0909 19.3219ZM19.4934 17.1367L18.8582 17.5354L19.2702 18.1918L19.9127 17.7585L19.4934 17.1367ZM19.491 17.1329L20.1263 16.7341L19.7028 16.0596L19.0549 16.5227L19.491 17.1329ZM19.3269 17.2502L19.7525 17.8679L19.763 17.8604L19.3269 17.2502ZM18.7727 17.6463L19.2089 18.2566L19.2192 18.2489L18.7727 17.6463ZM11.4248 22.8981L10.9887 22.288L10.4187 22.6954L10.7864 23.2918L11.4248 22.8981ZM12.6109 24.8217L13.2671 25.1848L13.4794 24.8012L13.2493 24.428L12.6109 24.8217ZM50.0909 115.437L49.7159 116.087L49.7159 116.087L50.0909 115.437ZM71.8624 120.915L72.5008 120.522L72.2456 120.108L71.7637 120.172L71.8624 120.915ZM73.1532 123.009L72.5148 123.402L72.9353 124.084L73.5881 123.62L73.1532 123.009ZM82.0066 116.707L82.4415 117.318L83.018 116.907L82.6418 116.308L82.0066 116.707ZM90.9602 91.4086C90.9602 103.023 87.35 111.427 81.5161 116.085L82.452 117.257C88.7589 112.222 92.4602 103.306 92.4602 91.4086H90.9602ZM49.7159 19.9714C61.0679 26.5255 71.3875 37.8024 78.8707 50.7637C86.3539 63.725 90.9602 78.3004 90.9602 91.4086H92.4602C92.4602 77.9752 87.7497 63.1426 80.1697 50.0137C72.5897 36.8848 62.0996 25.3891 50.4659 18.6724L49.7159 19.9714ZM19.9127 17.7585C27.1937 12.8489 37.7602 13.0688 49.7159 19.9714L50.4659 18.6724C38.2228 11.6038 27.0024 11.1687 19.0741 16.5148L19.9127 17.7585ZM20.1286 16.7379L20.1263 16.7341L18.8558 17.5316L18.8582 17.5354L20.1286 16.7379ZM19.0549 16.5227L18.8907 16.6401L19.763 17.8604L19.9272 17.743L19.0549 16.5227ZM19.2192 18.2489C19.395 18.1187 19.5728 17.9916 19.7525 17.8678L18.9012 16.6327C18.7074 16.7662 18.5158 16.9032 18.3262 17.0437L19.2192 18.2489ZM18.3366 17.0361L10.9887 22.288L11.8609 23.5083L19.2088 18.2565L18.3366 17.0361ZM10.7864 23.2918L11.9725 25.2153L13.2493 24.428L12.0632 22.5045L10.7864 23.2918ZM9.22168 43.3508C9.22168 35.9479 10.6903 29.8415 13.2671 25.1848L11.9546 24.4585C9.22717 29.3875 7.72168 35.7578 7.72168 43.3508H9.22168ZM50.4659 114.788C39.1139 108.234 28.7944 96.957 21.3112 83.9957C13.828 71.0344 9.22168 56.459 9.22168 43.3508H7.72168C7.72168 56.7842 12.4322 71.6168 20.0122 84.7457C27.5921 97.8746 38.0823 109.37 49.7159 116.087L50.4659 114.788ZM71.7637 120.172C65.6381 120.985 58.3481 119.339 50.4659 114.788L49.7159 116.087C57.796 120.752 65.4189 122.527 71.9611 121.659L71.7637 120.172ZM71.224 121.309L72.5148 123.402L73.7915 122.615L72.5008 120.522L71.224 121.309ZM73.5881 123.62L82.4415 117.318L81.5716 116.096L72.7182 122.398L73.5881 123.62ZM82.6418 116.308L82.6192 116.272L81.3488 117.07L81.3714 117.106L82.6418 116.308Z" fill="#060606"/>
</mask>
<g mask="url(#mask0_3751_42912)">
<rect width="101.662" height="43.7128" transform="matrix(0.866025 -0.5 2.20305e-08 1 53.3779 115.719)" fill="#B0F127"/>
</g>
<path d="M81.984 116.679L81.5161 116.093L80.9928 116.51L81.3488 117.077L81.984 116.679ZM50.0909 19.3297L49.7159 19.9792L49.7159 19.9792L50.0909 19.3297ZM19.4934 17.1445L18.8582 17.5432L19.2702 18.1996L19.9127 17.7663L19.4934 17.1445ZM19.491 17.1407L20.1263 16.7419L19.7028 16.0674L19.0549 16.5305L19.491 17.1407ZM19.3269 17.258L19.7525 17.8757L19.763 17.8682L19.3269 17.258ZM18.7727 17.6541L19.2089 18.2644L19.2192 18.2567L18.7727 17.6541ZM11.4248 22.9059L10.9887 22.2958L10.4187 22.7032L10.7864 23.2996L11.4248 22.9059ZM12.6109 24.8295L13.2671 25.1926L13.4794 24.809L13.2493 24.4359L12.6109 24.8295ZM50.0909 115.445L49.7159 116.095L49.7159 116.095L50.0909 115.445ZM71.8624 120.923L72.5008 120.53L72.2456 120.116L71.7637 120.18L71.8624 120.923ZM73.1532 123.017L72.5148 123.41L72.9353 124.092L73.5881 123.628L73.1532 123.017ZM82.0066 116.715L82.4415 117.326L83.018 116.915L82.6418 116.316L82.0066 116.715ZM90.9602 91.4164C90.9602 103.031 87.35 111.435 81.5161 116.093L82.452 117.265C88.7589 112.229 92.4602 103.314 92.4602 91.4164H90.9602ZM49.7159 19.9792C61.0679 26.5333 71.3875 37.8102 78.8707 50.7715C86.3539 63.7328 90.9602 78.3082 90.9602 91.4164H92.4602C92.4602 77.983 87.7497 63.1504 80.1697 50.0215C72.5897 36.8926 62.0996 25.3969 50.4659 18.6802L49.7159 19.9792ZM19.9127 17.7663C27.1937 12.8567 37.7602 13.0766 49.7159 19.9792L50.4659 18.6802C38.2228 11.6117 27.0024 11.1765 19.0741 16.5226L19.9127 17.7663ZM20.1286 16.7457L20.1263 16.7419L18.8558 17.5394L18.8582 17.5432L20.1286 16.7457ZM19.0549 16.5305L18.8907 16.6479L19.763 17.8682L19.9272 17.7509L19.0549 16.5305ZM19.2192 18.2567C19.395 18.1265 19.5728 17.9994 19.7525 17.8756L18.9012 16.6405C18.7074 16.7741 18.5158 16.9111 18.3262 17.0515L19.2192 18.2567ZM18.3366 17.0439L10.9887 22.2958L11.8609 23.5161L19.2088 18.2643L18.3366 17.0439ZM10.7864 23.2996L11.9725 25.2231L13.2493 24.4359L12.0632 22.5123L10.7864 23.2996ZM9.22168 43.3586C9.22168 35.9557 10.6903 29.8493 13.2671 25.1926L11.9546 24.4664C9.22717 29.3954 7.72168 35.7657 7.72168 43.3586H9.22168ZM50.4659 114.796C39.1139 108.242 28.7944 96.9648 21.3112 84.0035C13.828 71.0422 9.22168 56.4668 9.22168 43.3586H7.72168C7.72168 56.792 12.4322 71.6246 20.0122 84.7535C27.5921 97.8824 38.0823 109.378 49.7159 116.095L50.4659 114.796ZM71.7637 120.18C65.6381 120.993 58.3481 119.347 50.4659 114.796L49.7159 116.095C57.796 120.76 65.4189 122.535 71.9611 121.667L71.7637 120.18ZM71.224 121.317L72.5148 123.41L73.7915 122.623L72.5008 120.53L71.224 121.317ZM73.5881 123.628L82.4415 117.326L81.5716 116.104L72.7182 122.406L73.5881 123.628ZM82.6418 116.316L82.6192 116.28L81.3488 117.077L81.3714 117.113L82.6418 116.316Z" fill="#060606"/>
<circle r="48.0578" transform="matrix(0.866025 0.5 -2.20305e-08 1 42.4318 72.8425)" fill="white"/>
<mask id="mask1_3751_42912" style="mask-type:alpha" maskUnits="userSpaceOnUse" x="0" y="19" width="85" height="108">
<circle r="48.0578" transform="matrix(0.866025 0.5 -2.20305e-08 1 42.4327 72.8425)" fill="#B0F127"/>
</mask>
<g mask="url(#mask1_3751_42912)">
<path d="M53.4306 91.1441L39.7895 83.2684L42.3398 74.8105L46.2542 75.7693L47.0845 72.9615L43.1701 72.0712L47.3218 58.1688L47.3218 57.9633C47.3218 57.4839 47.0252 56.9703 46.61 56.7306L41.3315 53.683C40.9163 53.4433 40.5605 53.5803 40.4419 53.9912L35.5785 70.4275L31.6641 69.5372L30.7744 72.2424L34.6888 73.1327L31.1896 84.8778L52.0072 96.8969C52.4224 97.1366 52.7782 96.9996 52.8968 96.6572L54.083 92.6166L54.083 92.4111C54.1423 91.8975 53.8458 91.3838 53.4306 91.1441V91.1441Z" fill="#060606"/>
</g>
<circle r="48.0578" transform="matrix(0.866025 0.5 -2.20305e-08 1 42.4318 72.8425)" stroke="#060606" stroke-width="1.5"/>
</svg>
