<svg width="501" height="382" viewBox="0 0 501 382" fill="none" xmlns="http://www.w3.org/2000/svg">
<mask id="mask0_3757_38631" style="mask-type:alpha" maskUnits="userSpaceOnUse" x="0" y="0" width="501" height="382">
<rect width="501" height="382" fill="#B0F127"/>
</mask>
<g mask="url(#mask0_3757_38631)">
<path d="M20.2864 243.611C3.65891 234.011 3.65891 218.446 20.2864 208.846L218.637 94.3284C230.322 87.5825 249.265 87.5825 260.95 94.3284L684.748 339.009C698.679 347.052 698.679 360.092 684.748 368.135L481.515 485.472C469.831 492.218 450.887 492.218 439.203 485.472L20.2864 243.611Z" fill="#E7E7E7"/>
<mask id="mask1_3757_38631" style="mask-type:alpha" maskUnits="userSpaceOnUse" x="7" y="89" width="689" height="402">
<path d="M20.2864 243.611C3.65891 234.011 3.65891 218.446 20.2864 208.846L218.637 94.3284C230.322 87.5825 249.265 87.5825 260.95 94.3284L684.748 339.009C698.679 347.052 698.679 360.092 684.748 368.135L481.515 485.472C469.831 492.218 450.887 492.218 439.203 485.472L20.2864 243.611Z" fill="white"/>
</mask>
<g mask="url(#mask1_3757_38631)">
<rect x="-0.623047" y="54.1484" width="241.079" height="400.119" fill="white"/>
</g>
<path d="M20.2864 243.611C3.65891 234.011 3.65891 218.446 20.2864 208.846L218.637 94.3284C230.322 87.5825 249.265 87.5825 260.95 94.3284L684.748 339.009C698.679 347.052 698.679 360.092 684.748 368.135L481.515 485.472C469.831 492.218 450.887 492.218 439.203 485.472L20.2864 243.611Z" stroke="#060606" stroke-width="1.30148"/>
<mask id="mask2_3757_38631" style="mask-type:alpha" maskUnits="userSpaceOnUse" x="86" y="137" width="611" height="354">
<rect width="287.266" height="445.875" rx="24.4289" transform="matrix(0.866025 -0.5 0.866025 0.5 74.2773 274.301)" fill="#C0C0C0"/>
</mask>
<g mask="url(#mask2_3757_38631)">
<path d="M347.949 391.344L530.671 285.849C531.57 285.33 532.298 285.751 532.298 286.789L532.298 497.205C532.298 498.243 531.57 499.505 530.671 500.024L349.577 604.579C348.678 605.097 347.949 604.677 347.949 603.639L347.949 391.344Z" fill="white"/>
<path d="M350.361 392.934L192.069 301.544C191.171 301.025 190.442 301.445 190.442 302.483L190.442 497.94C190.442 498.978 191.171 500.24 192.069 500.759L348.734 591.209C349.633 591.728 350.361 591.308 350.361 590.27L350.361 392.934Z" fill="#C0C0C0"/>
<rect width="219.264" height="193.788" rx="15.0332" transform="matrix(0.866025 -0.5 0.866025 0.5 182.961 301.396)" fill="#B0F127" stroke="#060606" stroke-width="1.30148"/>
<path d="M459.834 392.455L548.985 340.983C549.884 340.465 550.612 340.885 550.612 341.923L550.612 459.136C550.612 460.174 549.884 461.436 548.985 461.955L461.461 512.487C460.563 513.006 459.834 512.585 459.834 511.547L459.834 392.455Z" fill="white"/>
<path d="M459.834 394.238L438.623 381.992C437.724 381.473 436.995 381.894 436.995 382.931L436.995 498.859C436.995 499.897 437.724 501.159 438.623 501.678L458.207 512.985C459.105 513.504 459.834 513.083 459.834 512.045L459.834 394.238Z" fill="#C0C0C0"/>
<rect width="116.915" height="37.1656" rx="18.5828" transform="matrix(0.866025 -0.5 0.866025 0.5 427.092 382.588)" fill="#060606"/>
<path d="M468.687 380.655L463.102 377.431L460.965 378.665L459.769 377.975L465.325 374.767L466.521 375.457L464.383 376.692L469.968 379.916L468.687 380.655ZM472.393 378.516L467.308 375.58L468.438 374.927L469.681 375.645L469.399 375.623C469.289 375.483 469.216 375.34 469.182 375.193C469.147 375.047 469.163 374.9 469.229 374.753C469.276 374.639 469.351 374.528 469.455 374.421C469.556 374.313 469.678 374.211 469.822 374.117C469.964 374.021 470.121 373.934 470.293 373.856L471.489 374.546C471.304 374.603 471.125 374.69 470.952 374.807C470.78 374.922 470.654 375.043 470.576 375.172C470.494 375.299 470.46 375.425 470.472 375.552C470.482 375.677 470.538 375.801 470.642 375.922C470.742 376.042 470.89 376.158 471.084 376.27L473.684 377.771L472.393 378.516ZM477.727 375.599C477.363 375.809 476.985 375.948 476.592 376.015C476.2 376.079 475.822 376.081 475.458 376.023C475.093 375.962 474.77 375.849 474.488 375.686C474.252 375.55 474.073 375.405 473.951 375.251C473.828 375.097 473.773 374.931 473.786 374.754C473.798 374.573 473.891 374.374 474.064 374.158C474.183 374.01 474.346 373.845 474.553 373.664C474.761 373.482 475.005 373.283 475.288 373.065C475.567 372.846 475.875 372.605 476.211 372.342L476.004 372.756C475.702 372.582 475.409 372.495 475.123 372.497C474.838 372.499 474.525 372.598 474.186 372.794C473.998 372.902 473.847 373.042 473.734 373.212C473.621 373.383 473.64 373.558 473.791 373.74L472.265 374.196C471.973 373.879 471.873 373.542 471.964 373.185C472.055 372.828 472.406 372.473 473.018 372.119C473.467 371.86 473.935 371.67 474.422 371.548C474.908 371.427 475.41 371.413 475.928 371.505C476.217 371.556 476.465 371.63 476.672 371.728C476.88 371.826 477.099 371.942 477.332 372.076L480.439 373.87L479.319 374.517L478.273 373.914L478.65 373.946C478.744 374.287 478.724 374.585 478.589 374.841C478.454 375.093 478.167 375.346 477.727 375.599ZM476.993 374.86C477.228 374.724 477.385 374.586 477.463 374.447C477.542 374.303 477.575 374.174 477.562 374.058C477.553 373.94 477.529 373.85 477.492 373.789C477.42 373.671 477.297 373.557 477.124 373.446C476.952 373.332 476.804 373.239 476.682 373.169L477.153 373.006C476.836 373.261 476.581 373.47 476.39 373.631C476.195 373.79 476.043 373.922 475.933 374.025C475.823 374.128 475.734 374.224 475.665 374.311C475.589 374.412 475.542 374.503 475.523 374.582C475.505 374.659 475.511 374.727 475.542 374.789C475.577 374.849 475.636 374.903 475.721 374.952C475.837 375.019 475.966 375.061 476.107 375.077C476.249 375.09 476.395 375.078 476.545 375.042C476.696 375.006 476.845 374.945 476.993 374.86ZM483.868 372.054C483.4 372.324 482.872 372.493 482.285 372.56C481.698 372.627 481.103 372.601 480.501 372.481C479.901 372.36 479.347 372.152 478.839 371.858C478.321 371.559 477.96 371.237 477.756 370.891C477.551 370.541 477.514 370.195 477.642 369.852C477.771 369.509 478.079 369.198 478.565 368.917C479.049 368.638 479.573 368.471 480.138 368.417C480.703 368.362 481.273 368.403 481.847 368.539C482.422 368.675 482.963 368.89 483.472 369.183C483.981 369.477 484.351 369.79 484.583 370.124C484.819 370.456 484.885 370.787 484.781 371.119C484.677 371.451 484.373 371.762 483.868 372.054ZM482.935 371.277C483.221 371.112 483.384 370.943 483.425 370.771C483.469 370.597 483.412 370.421 483.255 370.244C483.098 370.066 482.866 369.888 482.559 369.711C482.251 369.533 481.943 369.399 481.636 369.308C481.328 369.218 481.027 369.183 480.731 369.205C480.44 369.225 480.16 369.312 479.893 369.466C479.608 369.631 479.443 369.808 479.399 369.996C479.355 370.181 479.407 370.367 479.554 370.553C479.699 370.738 479.912 370.912 480.195 371.075C480.48 371.24 480.783 371.366 481.103 371.453C481.421 371.538 481.736 371.57 482.05 371.548C482.364 371.527 482.659 371.436 482.935 371.277ZM485.101 371.179L481.617 369.167L481.457 369.259L478.16 367.356L479.451 366.611L486.231 370.526L485.101 371.179ZM490.055 368.482C489.534 368.783 488.962 368.984 488.341 369.085C487.719 369.183 487.099 369.184 486.481 369.088C485.863 368.988 485.299 368.792 484.79 368.498C484.235 368.177 483.861 367.835 483.67 367.47C483.478 367.106 483.463 366.747 483.623 366.394C483.78 366.039 484.109 365.716 484.612 365.426C485.145 365.118 485.724 364.929 486.349 364.858C486.974 364.787 487.603 364.832 488.237 364.991C488.871 365.151 489.469 365.423 490.031 365.809L488.765 366.541L488.294 366.269C487.776 365.97 487.321 365.803 486.928 365.769C486.536 365.731 486.153 365.819 485.779 366.035C485.343 366.287 485.155 366.55 485.214 366.823C485.274 367.094 485.563 367.378 486.081 367.677C486.555 367.951 487.024 368.104 487.489 368.137C487.953 368.166 488.385 368.065 488.784 367.835C489.035 367.69 489.195 367.534 489.264 367.367C489.333 367.2 489.311 367.03 489.198 366.856L490.846 366.329C491.119 366.707 491.177 367.091 491.02 367.479C490.866 367.865 490.545 368.199 490.055 368.482ZM486.043 368.112L485.092 367.563L488.463 365.616L489.415 366.166L486.043 368.112ZM495.165 365.368L488.384 361.454L491.096 359.888C491.58 359.609 492.068 359.439 492.561 359.379C493.051 359.318 493.511 359.331 493.941 359.42C494.371 359.509 494.735 359.639 495.033 359.812C495.413 360.031 495.642 360.263 495.721 360.508C495.802 360.75 495.736 360.982 495.523 361.204L495.287 361.068C495.799 360.874 496.312 360.804 496.827 360.858C497.345 360.911 497.792 361.046 498.169 361.263C498.574 361.497 498.855 361.746 499.012 362.011C499.172 362.274 499.188 362.544 499.059 362.821C498.927 363.097 498.631 363.368 498.169 363.634L495.165 365.368ZM495.259 363.922L496.832 363.014C497.004 362.914 497.122 362.805 497.185 362.685C497.245 362.564 497.246 362.443 497.19 362.324C497.133 362.2 497.014 362.086 496.832 361.981C496.672 361.889 496.496 361.825 496.304 361.791C496.113 361.756 495.914 361.757 495.706 361.793C495.499 361.826 495.297 361.9 495.099 362.014L493.526 362.922L495.259 363.922ZM492.33 362.231L493.724 361.426C493.868 361.343 493.972 361.254 494.035 361.16C494.098 361.066 494.11 360.97 494.072 360.872C494.032 360.772 493.928 360.674 493.762 360.578C493.554 360.459 493.316 360.395 493.046 360.388C492.776 360.381 492.519 360.448 492.274 360.589L490.88 361.394L492.33 362.231ZM495.464 358.508L494.333 357.856L495.614 357.116L496.744 357.769L495.464 358.508ZM501.255 361.852L496.17 358.916L497.451 358.177L502.536 361.113L501.255 361.852ZM506.999 358.536C506.714 358.777 506.397 358.993 506.048 359.183C505.706 359.373 505.346 359.514 504.97 359.604C504.593 359.691 504.212 359.703 503.825 359.64C503.468 359.578 503.166 359.48 502.921 359.346C502.673 359.21 502.397 359.054 502.093 358.878L497.751 356.372L499.032 355.632L503.298 358.095C503.496 358.21 503.676 358.312 503.84 358.403C504.003 358.49 504.161 358.543 504.315 358.563C504.607 358.601 504.885 358.553 505.149 358.419C505.412 358.285 505.674 358.119 505.935 357.921L506.999 358.536ZM499.286 358.259L498.297 357.688L501.914 355.6L502.903 356.171L499.286 358.259ZM510.239 356.828C509.712 357.133 509.142 357.326 508.53 357.407C507.918 357.489 507.309 357.471 506.703 357.353C506.097 357.235 505.54 357.03 505.031 356.736C504.516 356.439 504.16 356.113 503.962 355.76C503.768 355.405 503.744 355.05 503.892 354.697C504.039 354.344 504.372 354.017 504.89 353.718C505.49 353.372 506.144 353.17 506.854 353.112C507.563 353.05 508.236 353.138 508.874 353.376L507.932 354.311C507.593 354.202 507.255 354.16 506.92 354.183C506.587 354.205 506.303 354.284 506.067 354.42C505.797 354.576 505.642 354.741 505.601 354.917C505.557 355.091 505.607 355.267 505.752 355.445C505.893 355.62 506.105 355.79 506.387 355.953C506.83 356.209 507.287 356.36 507.758 356.407C508.229 356.451 508.657 356.361 509.043 356.138C509.332 355.971 509.486 355.806 509.505 355.643C509.524 355.48 509.448 355.306 509.279 355.121L510.861 354.523C511.256 354.918 511.399 355.316 511.289 355.716C511.179 356.117 510.829 356.488 510.239 356.828ZM515.639 353.711C515.127 354.006 514.564 354.199 513.948 354.29C513.333 354.381 512.716 354.372 512.098 354.265C511.479 354.155 510.908 353.948 510.384 353.646C509.853 353.339 509.497 353.007 509.315 352.648C509.13 352.287 509.117 351.93 509.277 351.577C509.437 351.223 509.769 350.902 510.271 350.612C510.783 350.316 511.346 350.123 511.961 350.033C512.58 349.94 513.2 349.948 513.821 350.057C514.44 350.164 515.011 350.369 515.535 350.671C516.063 350.976 516.419 351.309 516.604 351.669C516.789 352.026 516.802 352.383 516.642 352.74C516.482 353.094 516.148 353.417 515.639 353.711ZM514.443 353.02C514.854 352.783 515.022 352.526 514.947 352.251C514.871 351.972 514.616 351.706 514.179 351.454C513.727 351.193 513.263 351.045 512.785 351.009C512.311 350.971 511.872 351.068 511.467 351.302C511.188 351.463 511.021 351.632 510.968 351.808C510.914 351.984 510.955 352.161 511.09 352.341C511.228 352.518 511.445 352.692 511.74 352.863C512.195 353.125 512.66 353.276 513.134 353.314C513.608 353.348 514.044 353.251 514.443 353.02ZM513.416 348.143L512.286 347.491L513.567 346.751L514.697 347.404L513.416 348.143ZM519.208 351.487L514.122 348.551L515.403 347.812L520.489 350.748L519.208 351.487ZM525.366 347.932L522.964 346.545C522.848 346.478 522.694 346.397 522.503 346.301C522.308 346.203 522.087 346.12 521.839 346.053C521.591 345.986 521.331 345.961 521.057 345.977C520.787 345.992 520.516 346.078 520.243 346.235C520.133 346.299 520.032 346.377 519.941 346.469C519.85 346.562 519.8 346.669 519.791 346.79C519.778 346.91 519.832 347.046 519.951 347.198C520.073 347.348 520.293 347.515 520.61 347.698L519.527 347.921C519.125 347.689 518.83 347.424 518.642 347.127C518.453 346.83 518.414 346.525 518.524 346.211C518.637 345.896 518.943 345.594 519.442 345.306C519.841 345.075 520.233 344.927 520.619 344.86C521.006 344.793 521.371 344.779 521.717 344.819C522.065 344.857 522.382 344.924 522.668 345.02C522.95 345.114 523.19 345.211 523.388 345.311C523.586 345.411 523.727 345.485 523.812 345.534L526.666 347.182L525.366 347.932ZM521.891 349.938L516.805 347.002L517.945 346.344L519.631 347.317L519.791 347.225L523.19 349.188L521.891 349.938Z" fill="white"/>
</g>
<path d="M38.5327 221.167C39.0683 220.858 39.6732 220.653 40.3475 220.554C41.0255 220.452 41.7128 220.46 42.4095 220.576C43.1024 220.691 43.743 220.918 44.331 221.258L46.6796 222.614C47.3164 222.981 47.7434 223.371 47.9606 223.781C48.1741 224.19 48.1816 224.597 47.9831 225.001C47.7808 225.403 47.3763 225.78 46.7695 226.13C46.3762 226.357 45.9436 226.54 45.4716 226.678C44.9996 226.812 44.4771 226.887 43.904 226.902L43.904 225.643C44.1737 225.643 44.434 225.614 44.685 225.556C44.9397 225.495 45.1588 225.412 45.3424 225.306C45.6345 225.137 45.82 224.952 45.8986 224.751C45.9773 224.546 45.966 224.347 45.8649 224.154C45.7638 223.958 45.5896 223.788 45.3424 223.645L44.14 222.951L44.6794 222.964C44.6869 223.232 44.6007 223.492 44.4209 223.743C44.2374 223.991 43.9827 224.21 43.6568 224.398C43.1474 224.692 42.5837 224.885 41.9656 224.978C41.3513 225.069 40.7352 225.064 40.1171 224.962C39.5028 224.858 38.941 224.659 38.4315 224.365C37.9221 224.071 37.5925 223.732 37.4427 223.347C37.2891 222.96 37.306 222.574 37.4932 222.189C37.6768 221.802 38.0233 221.461 38.5327 221.167ZM39.9935 222.01C39.7613 222.144 39.604 222.3 39.5215 222.477C39.4429 222.653 39.441 222.829 39.5159 223.006C39.5946 223.181 39.75 223.336 39.9823 223.47C40.2145 223.604 40.4842 223.695 40.7913 223.743C41.0947 223.788 41.4 223.789 41.7072 223.746C42.0106 223.7 42.2784 223.611 42.5106 223.477C42.7429 223.342 42.8983 223.188 42.977 223.013C43.0556 222.833 43.0556 222.656 42.977 222.481C42.8983 222.301 42.7429 222.144 42.5106 222.01C42.2859 221.881 42.0218 221.793 41.7184 221.748C41.415 221.702 41.1097 221.701 40.8026 221.744C40.4954 221.788 40.2257 221.876 39.9935 222.01ZM50.6808 222.899L49.1526 222.016L50.6808 221.134L52.2091 222.016L50.6808 222.899ZM47.5007 221.05L45.9724 220.167L47.5007 219.285L49.0289 220.167L47.5007 221.05ZM57.9447 219.483L56.6862 218.757L53.169 220.787L51.7418 219.963L48.8876 215.37L50.6406 214.358L53.4948 218.951L55.2591 217.933L53.2364 216.765L54.7871 215.87L56.8098 217.037L57.529 216.622L58.9561 217.446L58.2369 217.861L59.4955 218.588L57.9447 219.483ZM62.7007 216.738L56.273 213.027L55.6887 214.441L54.0031 213.468L54.6099 212.066L56.1719 211.165L64.2626 215.836L62.7007 216.738Z" fill="#060606"/>
<path opacity="0.35" d="M228.571 111.664L239.808 105.176C240.957 104.513 242.82 104.513 243.969 105.176L247.274 107.084C248.423 107.748 248.423 108.823 247.274 109.487L236.037 115.975C234.888 116.638 233.025 116.638 231.876 115.975L228.571 114.066C227.422 113.403 227.422 112.327 228.571 111.664Z" stroke="#060606" stroke-width="1.30148"/>
<path opacity="0.4" d="M245.855 104.852L248.645 106.462C248.97 106.002 248.785 105.474 248.177 105.122C247.568 104.771 246.653 104.664 245.855 104.852" fill="#060606"/>
<path d="M229.33 113.629C228.6 113.207 228.6 112.524 229.33 112.102L240.567 105.614C241.297 105.193 242.481 105.193 243.211 105.614L246.516 107.522C247.246 107.944 247.246 108.627 246.516 109.049L235.279 115.537C234.549 115.958 233.365 115.958 232.635 115.537L229.33 113.629Z" fill="#060606"/>
<path fill-rule="evenodd" clip-rule="evenodd" d="M217.489 120.152C219.12 119.21 221.327 118.674 223.656 118.654C223.833 118.654 223.974 118.571 223.972 118.469L223.946 117.472C223.945 117.42 223.908 117.37 223.844 117.333C223.779 117.296 223.692 117.275 223.602 117.275C217.467 117.314 212.574 120.139 212.506 123.681C212.507 123.733 212.542 123.783 212.606 123.821C212.67 123.858 212.757 123.879 212.847 123.88L214.574 123.895C214.751 123.896 214.895 123.815 214.895 123.712C214.93 122.368 215.859 121.093 217.489 120.152ZM220.213 121.697C221.109 121.18 222.313 120.877 223.591 120.848C223.767 120.847 223.907 120.764 223.905 120.662L223.878 119.666C223.877 119.613 223.84 119.563 223.774 119.526C223.709 119.489 223.621 119.468 223.53 119.468C219.588 119.527 216.457 121.335 216.355 123.611C216.354 123.664 216.39 123.714 216.454 123.752C216.518 123.79 216.606 123.812 216.696 123.812L218.422 123.828C218.599 123.829 218.742 123.748 218.745 123.646C218.795 122.909 219.318 122.214 220.213 121.697ZM223.706 121.717C223.773 121.754 223.81 121.805 223.81 121.857L223.855 123.58C223.856 123.63 223.822 123.679 223.761 123.714C223.7 123.749 223.616 123.769 223.528 123.768L220.545 123.743C220.454 123.743 220.366 123.721 220.303 123.683C220.239 123.644 220.205 123.593 220.209 123.54C220.337 122.531 221.711 121.737 223.46 121.663C223.551 121.661 223.64 121.681 223.706 121.717Z" fill="#060606"/>
<path d="M201.568 129.657C201.203 129.446 201.203 129.104 201.568 128.893L202.229 128.512C202.594 128.301 203.186 128.301 203.551 128.512L208.839 131.565C209.204 131.776 209.204 132.117 208.839 132.328L208.178 132.71C207.813 132.921 207.221 132.921 206.856 132.71L201.568 129.657Z" fill="#060606"/>
<path d="M203.551 126.985C203.186 126.774 203.186 126.433 203.551 126.222L204.212 125.84C204.577 125.63 205.169 125.63 205.534 125.84L212.144 129.657C212.509 129.867 212.509 130.209 212.144 130.42L211.483 130.802C211.118 131.012 210.526 131.012 210.161 130.802L203.551 126.985Z" fill="#060606"/>
<path d="M200.576 132.901C200.211 132.69 200.211 132.348 200.576 132.137L201.237 131.756C201.602 131.545 202.194 131.545 202.559 131.756L205.534 133.473C205.899 133.684 205.899 134.026 205.534 134.236L204.873 134.618C204.508 134.829 203.916 134.829 203.551 134.618L200.576 132.901Z" fill="#060606"/>
<path d="M198.924 135.763C198.559 135.552 198.559 135.21 198.924 135L199.585 134.618C199.95 134.407 200.542 134.407 200.907 134.618L202.229 135.381C202.594 135.592 202.594 135.934 202.229 136.144L201.568 136.526C201.203 136.737 200.611 136.737 200.246 136.526L198.924 135.763Z" fill="#060606"/>
<rect width="58.9595" height="17.9448" rx="8.97242" transform="matrix(0.866025 -0.5 0.866025 0.5 110.412 176.658)" fill="#060606"/>
<circle r="4.26861" transform="matrix(0.866025 -0.5 0.866025 0.5 125.96 175.902)" fill="white"/>
<path fill-rule="evenodd" clip-rule="evenodd" d="M522.836 90.8111C528.103 86.6061 531.275 79.0925 531.275 68.8922C531.275 45.8633 515.107 17.8604 495.164 6.346C484.666 0.284914 475.214 0.000724621 468.616 4.44996L468.614 4.44666L468.471 4.54846C468.309 4.66015 468.149 4.77472 467.99 4.89216L461.615 9.4489L462.644 11.1179C460.343 15.2764 459.053 20.6891 459.053 27.1947C459.053 50.2236 475.22 78.2265 495.164 89.741C502.089 93.739 508.558 95.2235 514.054 94.4939L515.174 96.3102L522.856 90.8423L522.836 90.8111Z" fill="#B0F127"/>
<path d="M522.836 90.8111L522.43 90.3026L521.976 90.6651L522.285 91.1571L522.836 90.8111ZM495.164 6.346L495.489 5.78244L495.489 5.78244L495.164 6.346ZM468.616 4.44996L468.065 4.79592L468.422 5.36542L468.98 4.98949L468.616 4.44996ZM468.614 4.44666L469.165 4.1007L468.798 3.51544L468.235 3.91725L468.614 4.44666ZM468.471 4.54846L468.841 5.08435L468.85 5.07788L468.471 4.54846ZM467.99 4.89216L468.369 5.42165L468.378 5.41504L467.99 4.89216ZM461.615 9.4489L461.237 8.91949L460.742 9.27298L461.061 9.79044L461.615 9.4489ZM462.644 11.1179L463.213 11.4329L463.398 11.1001L463.198 10.7763L462.644 11.1179ZM495.164 89.741L495.489 89.1774L495.489 89.1774L495.164 89.741ZM514.054 94.4939L514.608 94.1523L514.386 93.7933L513.968 93.8488L514.054 94.4939ZM515.174 96.3102L514.62 96.6518L514.985 97.2435L515.551 96.8404L515.174 96.3102ZM522.856 90.8423L523.233 91.3725L523.733 91.0164L523.407 90.4963L522.856 90.8423ZM530.624 68.8922C530.624 78.9699 527.492 86.2614 522.43 90.3026L523.242 91.3197C528.714 86.9507 531.926 79.2151 531.926 68.8922H530.624ZM494.838 6.90955C504.688 12.5962 513.642 22.3806 520.135 33.6266C526.627 44.8725 530.624 57.5189 530.624 68.8922H531.926C531.926 57.2367 527.839 44.3672 521.262 32.9758C514.685 21.5845 505.583 11.6102 495.489 5.78244L494.838 6.90955ZM468.98 4.98949C475.297 0.729628 484.465 0.920446 494.838 6.90955L495.489 5.78244C484.866 -0.350618 475.131 -0.728179 468.252 3.91042L468.98 4.98949ZM469.167 4.10399L469.165 4.1007L468.063 4.79263L468.065 4.79592L469.167 4.10399ZM468.235 3.91725L468.093 4.01905L468.85 5.07788L468.992 4.97608L468.235 3.91725ZM468.378 5.41504C468.53 5.302 468.685 5.19174 468.841 5.08427L468.102 4.01265C467.934 4.12855 467.768 4.24743 467.603 4.36929L468.378 5.41504ZM467.612 4.36275L461.237 8.91949L461.993 9.97832L468.369 5.42158L467.612 4.36275ZM461.061 9.79044L462.09 11.4594L463.198 10.7763L462.169 9.10736L461.061 9.79044ZM459.703 27.1947C459.703 20.7716 460.978 15.4733 463.213 11.4329L462.075 10.8028C459.708 15.0795 458.402 20.6067 458.402 27.1947H459.703ZM495.489 89.1774C485.64 83.4907 476.686 73.7063 470.193 62.4604C463.7 51.2145 459.703 38.5681 459.703 27.1947H458.402C458.402 38.8503 462.489 51.7198 469.066 63.1111C475.643 74.5025 484.744 84.4767 494.838 90.3045L495.489 89.1774ZM513.968 93.8488C508.653 94.5544 502.328 93.1259 495.489 89.1774L494.838 90.3045C501.849 94.3522 508.463 95.8926 514.14 95.139L513.968 93.8488ZM513.5 94.8354L514.62 96.6518L515.728 95.9687L514.608 94.1523L513.5 94.8354ZM515.551 96.8404L523.233 91.3725L522.478 90.3122L514.796 95.7801L515.551 96.8404ZM523.407 90.4963L523.387 90.4651L522.285 91.1571L522.304 91.1883L523.407 90.4963Z" fill="#060606"/>
<mask id="mask3_3757_38631" style="mask-type:alpha" maskUnits="userSpaceOnUse" x="458" y="0" width="74" height="98">
<path fill-rule="evenodd" clip-rule="evenodd" d="M522.838 90.8033C528.105 86.5982 531.277 79.0847 531.277 68.8844C531.277 45.8555 515.109 17.8526 495.166 6.33818C484.668 0.277102 475.216 -0.00708788 468.618 4.44214L468.616 4.43885L468.473 4.54064C468.311 4.65233 468.151 4.76691 467.992 4.88436L461.617 9.44109L462.646 11.1101C460.345 15.2686 459.055 20.6813 459.055 27.1869C459.055 50.2158 475.222 78.2187 495.166 89.7332C502.091 93.7312 508.56 95.2157 514.056 94.4861L515.176 96.3024L522.857 90.8345L522.838 90.8033Z" fill="#B0F127"/>
<path d="M522.838 90.8033L522.432 90.2948L521.978 90.6573L522.287 91.1493L522.838 90.8033ZM495.166 6.33818L495.491 5.77463L495.491 5.77463L495.166 6.33818ZM468.618 4.44214L468.067 4.78813L468.424 5.3576L468.982 4.98168L468.618 4.44214ZM468.616 4.43885L469.167 4.09287L468.799 3.50764L468.237 3.90944L468.616 4.43885ZM468.473 4.54064L468.843 5.07654L468.852 5.07006L468.473 4.54064ZM467.992 4.88436L468.371 5.41385L468.38 5.40723L467.992 4.88436ZM461.617 9.44109L461.239 8.91168L460.744 9.26517L461.063 9.78263L461.617 9.44109ZM462.646 11.1101L463.215 11.4251L463.4 11.0923L463.2 10.7685L462.646 11.1101ZM495.166 89.7332L495.491 89.1696L495.491 89.1696L495.166 89.7332ZM514.056 94.4861L514.61 94.1445L514.388 93.7855L513.97 93.841L514.056 94.4861ZM515.176 96.3024L514.622 96.6439L514.987 97.2357L515.553 96.8326L515.176 96.3024ZM522.857 90.8345L523.235 91.3646L523.735 91.0086L523.409 90.4885L522.857 90.8345ZM530.626 68.8844C530.626 78.9621 527.494 86.2536 522.432 90.2948L523.244 91.3119C528.716 86.9429 531.928 79.2073 531.928 68.8844H530.626ZM494.84 6.90174C504.69 12.5884 513.644 22.3728 520.137 33.6188C526.629 44.8647 530.626 57.5111 530.626 68.8844H531.928C531.928 57.2289 527.841 44.3594 521.264 32.968C514.687 21.5767 505.585 11.6024 495.491 5.77463L494.84 6.90174ZM468.982 4.98168C475.299 0.721816 484.467 0.912633 494.84 6.90174L495.491 5.77463C484.868 -0.35843 475.133 -0.735991 468.254 3.90261L468.982 4.98168ZM469.169 4.09616L469.167 4.09287L468.065 4.78483L468.067 4.78813L469.169 4.09616ZM468.237 3.90944L468.095 4.01123L468.852 5.07006L468.994 4.96827L468.237 3.90944ZM468.38 5.40723C468.532 5.29419 468.687 5.18393 468.843 5.07646L468.104 4.00483C467.936 4.12073 467.769 4.23962 467.605 4.36148L468.38 5.40723ZM467.614 4.35494L461.239 8.91168L461.995 9.97051L468.371 5.41377L467.614 4.35494ZM461.063 9.78263L462.092 11.4516L463.2 10.7685L462.171 9.09955L461.063 9.78263ZM459.705 27.1869C459.705 20.7638 460.98 15.4655 463.215 11.4251L462.077 10.795C459.71 15.0717 458.404 20.5989 458.404 27.1869H459.705ZM495.491 89.1696C485.642 83.4829 476.688 73.6985 470.195 62.4526C463.702 51.2067 459.705 38.5603 459.705 27.1869H458.404C458.404 38.8425 462.491 51.712 469.068 63.1033C475.645 74.4947 484.746 84.4689 494.84 90.2967L495.491 89.1696ZM513.97 93.841C508.655 94.5466 502.33 93.1181 495.491 89.1696L494.84 90.2967C501.851 94.3444 508.465 95.8848 514.141 95.1312L513.97 93.841ZM513.502 94.8276L514.622 96.6439L515.73 95.9609L514.61 94.1445L513.502 94.8276ZM515.553 96.8326L523.235 91.3646L522.48 90.3043L514.798 95.7723L515.553 96.8326ZM523.409 90.4885L523.389 90.4573L522.287 91.1493L522.306 91.1805L523.409 90.4885Z" fill="#060606"/>
</mask>
<g mask="url(#mask3_3757_38631)">
<rect width="88.2072" height="37.9275" transform="matrix(0.866025 -0.5 2.20305e-08 1 498.018 89.9766)" fill="#547907"/>
</g>
<path d="M522.836 90.8111L522.43 90.3026L521.976 90.6651L522.285 91.1571L522.836 90.8111ZM495.164 6.346L495.489 5.78244L495.489 5.78244L495.164 6.346ZM468.616 4.44996L468.065 4.79592L468.422 5.36542L468.98 4.98949L468.616 4.44996ZM468.614 4.44666L469.165 4.1007L468.798 3.51544L468.235 3.91725L468.614 4.44666ZM468.471 4.54846L468.841 5.08435L468.85 5.07788L468.471 4.54846ZM467.99 4.89216L468.369 5.42165L468.378 5.41504L467.99 4.89216ZM461.615 9.4489L461.237 8.91949L460.742 9.27298L461.061 9.79044L461.615 9.4489ZM462.644 11.1179L463.213 11.4329L463.398 11.1001L463.198 10.7763L462.644 11.1179ZM495.164 89.741L495.489 89.1774L495.489 89.1774L495.164 89.741ZM514.054 94.4939L514.608 94.1523L514.386 93.7933L513.968 93.8488L514.054 94.4939ZM515.174 96.3102L514.62 96.6518L514.985 97.2435L515.551 96.8404L515.174 96.3102ZM522.856 90.8423L523.233 91.3725L523.733 91.0164L523.407 90.4963L522.856 90.8423ZM530.624 68.8922C530.624 78.9699 527.492 86.2614 522.43 90.3026L523.242 91.3197C528.714 86.9507 531.926 79.2151 531.926 68.8922H530.624ZM494.838 6.90955C504.688 12.5962 513.642 22.3806 520.135 33.6266C526.627 44.8725 530.624 57.5189 530.624 68.8922H531.926C531.926 57.2367 527.839 44.3672 521.262 32.9758C514.685 21.5845 505.583 11.6102 495.489 5.78244L494.838 6.90955ZM468.98 4.98949C475.297 0.729628 484.465 0.920446 494.838 6.90955L495.489 5.78244C484.866 -0.350618 475.131 -0.728179 468.252 3.91042L468.98 4.98949ZM469.167 4.10399L469.165 4.1007L468.063 4.79263L468.065 4.79592L469.167 4.10399ZM468.235 3.91725L468.093 4.01905L468.85 5.07788L468.992 4.97608L468.235 3.91725ZM468.378 5.41504C468.53 5.302 468.685 5.19174 468.841 5.08427L468.102 4.01265C467.934 4.12855 467.768 4.24743 467.603 4.36929L468.378 5.41504ZM467.612 4.36275L461.237 8.91949L461.993 9.97832L468.369 5.42158L467.612 4.36275ZM461.061 9.79044L462.09 11.4594L463.198 10.7763L462.169 9.10736L461.061 9.79044ZM459.703 27.1947C459.703 20.7716 460.978 15.4733 463.213 11.4329L462.075 10.8028C459.708 15.0795 458.402 20.6067 458.402 27.1947H459.703ZM495.489 89.1774C485.64 83.4907 476.686 73.7063 470.193 62.4604C463.7 51.2145 459.703 38.5681 459.703 27.1947H458.402C458.402 38.8503 462.489 51.7198 469.066 63.1111C475.643 74.5025 484.744 84.4767 494.838 90.3045L495.489 89.1774ZM513.968 93.8488C508.653 94.5544 502.328 93.1259 495.489 89.1774L494.838 90.3045C501.849 94.3522 508.463 95.8926 514.14 95.139L513.968 93.8488ZM513.5 94.8354L514.62 96.6518L515.728 95.9687L514.608 94.1523L513.5 94.8354ZM515.551 96.8404L523.233 91.3725L522.478 90.3122L514.796 95.7801L515.551 96.8404ZM523.407 90.4963L523.387 90.4651L522.285 91.1571L522.304 91.1883L523.407 90.4963Z" fill="#060606"/>
<circle r="41.6975" transform="matrix(0.866025 0.5 -2.20305e-08 1 488.517 52.7747)" fill="#B0F127"/>
<mask id="mask4_3757_38631" style="mask-type:alpha" maskUnits="userSpaceOnUse" x="452" y="6" width="73" height="94">
<circle r="41.6975" transform="matrix(0.866025 0.5 -2.20305e-08 1 488.519 52.7747)" fill="#B0F127"/>
</mask>
<g mask="url(#mask4_3757_38631)">
<rect width="88.2072" height="47.3016" transform="matrix(0.866025 0.5 2.20305e-08 -1 450.188 32.0547)" fill="white"/>
<path d="M498.062 68.655L486.226 61.8216L488.439 54.4831L491.835 55.315L492.556 52.8787L489.159 52.1063L492.762 40.0438L492.762 39.8656C492.762 39.4496 492.504 39.004 492.144 38.796L487.564 36.1517C487.204 35.9438 486.895 36.0626 486.792 36.4191L482.573 50.6802L479.176 49.9077L478.404 52.2548L481.801 53.0273L478.765 63.218L496.827 73.6464C497.187 73.8543 497.496 73.7355 497.599 73.4384L498.628 69.9326L498.628 69.7543C498.68 69.3086 498.422 68.863 498.062 68.655V68.655Z" fill="#060606"/>
</g>
<circle r="41.6975" transform="matrix(0.866025 0.5 -2.20305e-08 1 488.517 52.7747)" stroke="#060606" stroke-width="1.30148"/>
<rect opacity="0.4" width="226.114" height="128.969" rx="11.2749" transform="matrix(0.866025 -0.5 0.866025 0.5 186.303 273.256)" fill="#060606"/>
<rect width="240.73" height="138.57" rx="11.2749" transform="matrix(0.866025 -0.5 0.866025 0.5 177.014 255.24)" fill="#B0F127" stroke="#060606" stroke-width="1.30148"/>
<path d="M208.75 253.9L203.774 251.028L205.765 249.879C206.119 249.674 206.477 249.55 206.839 249.506C207.198 249.461 207.536 249.471 207.851 249.536C208.167 249.601 208.434 249.697 208.653 249.823C208.932 249.984 209.1 250.154 209.158 250.334C209.217 250.512 209.169 250.682 209.012 250.844L208.84 250.745C209.215 250.602 209.592 250.551 209.969 250.591C210.35 250.63 210.678 250.729 210.954 250.888C211.251 251.06 211.458 251.243 211.573 251.437C211.69 251.63 211.702 251.828 211.607 252.031C211.51 252.233 211.293 252.432 210.954 252.628L208.75 253.9ZM208.819 252.839L209.973 252.173C210.1 252.1 210.186 252.019 210.232 251.932C210.276 251.842 210.277 251.754 210.236 251.666C210.194 251.576 210.107 251.492 209.973 251.415C209.855 251.347 209.726 251.3 209.586 251.275C209.445 251.25 209.299 251.251 209.147 251.277C208.995 251.301 208.847 251.355 208.701 251.439L207.547 252.105L208.819 252.839ZM206.67 251.598L207.693 251.008C207.798 250.947 207.875 250.882 207.921 250.812C207.967 250.743 207.976 250.673 207.948 250.601C207.918 250.528 207.842 250.456 207.72 250.386C207.568 250.298 207.393 250.251 207.195 250.246C206.997 250.241 206.808 250.29 206.628 250.393L205.606 250.984L206.67 251.598ZM208.969 248.867L208.14 248.388L209.08 247.845L209.909 248.324L208.969 248.867ZM213.219 251.32L209.487 249.166L210.427 248.623L214.159 250.778L213.219 251.32ZM217.433 248.887C217.224 249.064 216.991 249.222 216.735 249.362C216.484 249.501 216.221 249.604 215.944 249.671C215.668 249.735 215.388 249.743 215.105 249.697C214.842 249.652 214.621 249.58 214.441 249.481C214.259 249.382 214.057 249.267 213.833 249.138L210.648 247.299L211.587 246.756L214.718 248.564C214.863 248.648 214.995 248.723 215.115 248.789C215.235 248.853 215.351 248.892 215.464 248.907C215.678 248.935 215.882 248.9 216.076 248.801C216.269 248.703 216.461 248.581 216.653 248.436L217.433 248.887ZM211.774 248.683L211.048 248.265L213.702 246.733L214.427 247.151L211.774 248.683ZM219.811 247.634C219.424 247.857 219.006 247.999 218.557 248.059C218.107 248.119 217.661 248.105 217.216 248.019C216.771 247.933 216.363 247.782 215.989 247.566C215.612 247.348 215.35 247.109 215.205 246.85C215.062 246.589 215.045 246.329 215.153 246.07C215.262 245.811 215.506 245.571 215.886 245.352C216.326 245.098 216.806 244.95 217.327 244.907C217.847 244.862 218.341 244.926 218.809 245.101L218.118 245.787C217.869 245.707 217.621 245.676 217.375 245.693C217.131 245.709 216.922 245.767 216.75 245.867C216.551 245.981 216.437 246.103 216.408 246.232C216.375 246.359 216.412 246.488 216.518 246.619C216.622 246.748 216.777 246.872 216.985 246.992C217.309 247.179 217.644 247.29 217.99 247.325C218.335 247.357 218.65 247.291 218.933 247.127C219.145 247.005 219.258 246.884 219.272 246.764C219.286 246.645 219.23 246.517 219.106 246.381L220.267 245.942C220.557 246.232 220.662 246.524 220.581 246.818C220.501 247.112 220.244 247.384 219.811 247.634ZM223.773 245.347C223.397 245.563 222.984 245.705 222.533 245.771C222.081 245.838 221.628 245.832 221.175 245.753C220.721 245.672 220.302 245.521 219.917 245.299C219.528 245.074 219.266 244.83 219.133 244.567C218.997 244.302 218.988 244.04 219.105 243.781C219.222 243.521 219.465 243.285 219.834 243.072C220.21 242.856 220.623 242.714 221.074 242.648C221.528 242.58 221.983 242.586 222.439 242.665C222.893 242.744 223.312 242.894 223.697 243.116C224.084 243.34 224.345 243.584 224.481 243.848C224.617 244.11 224.626 244.372 224.509 244.634C224.391 244.894 224.146 245.131 223.773 245.347ZM222.895 244.84C223.197 244.666 223.32 244.477 223.265 244.275C223.21 244.07 223.022 243.876 222.702 243.691C222.37 243.499 222.029 243.39 221.679 243.364C221.331 243.336 221.009 243.408 220.712 243.579C220.507 243.697 220.385 243.821 220.345 243.95C220.306 244.079 220.336 244.209 220.435 244.341C220.537 244.471 220.696 244.599 220.912 244.724C221.246 244.917 221.587 245.027 221.935 245.055C222.283 245.081 222.603 245.009 222.895 244.84ZM222.142 241.261L221.313 240.783L222.252 240.24L223.082 240.719L222.142 241.261ZM226.392 243.715L222.66 241.561L223.6 241.018L227.331 243.172L226.392 243.715ZM230.91 241.106L229.148 240.089C229.063 240.04 228.95 239.98 228.809 239.909C228.667 239.837 228.504 239.777 228.322 239.728C228.14 239.678 227.949 239.66 227.749 239.672C227.551 239.682 227.351 239.746 227.151 239.861C227.07 239.908 226.997 239.965 226.93 240.033C226.863 240.101 226.826 240.179 226.819 240.268C226.81 240.356 226.849 240.456 226.937 240.567C227.027 240.678 227.188 240.8 227.421 240.935L226.626 241.098C226.331 240.928 226.114 240.734 225.976 240.516C225.838 240.298 225.809 240.073 225.89 239.843C225.973 239.612 226.197 239.391 226.564 239.179C226.856 239.01 227.144 238.901 227.427 238.852C227.711 238.803 227.979 238.793 228.232 238.822C228.488 238.85 228.721 238.899 228.93 238.97C229.138 239.039 229.314 239.11 229.459 239.183C229.604 239.256 229.708 239.311 229.77 239.347L231.864 240.556L230.91 241.106ZM228.36 242.578L224.629 240.424L225.465 239.941L226.702 240.655L226.819 240.587L229.314 242.028L228.36 242.578ZM234.144 239.239L229.168 236.367L231.159 235.218C231.513 235.013 231.871 234.888 232.233 234.845C232.592 234.799 232.93 234.809 233.245 234.874C233.561 234.94 233.828 235.035 234.047 235.162C234.326 235.323 234.494 235.493 234.552 235.672C234.611 235.851 234.563 236.021 234.406 236.183L234.234 236.083C234.609 235.941 234.986 235.89 235.363 235.93C235.744 235.968 236.072 236.067 236.348 236.227C236.645 236.399 236.851 236.581 236.967 236.776C237.084 236.968 237.096 237.167 237.001 237.37C236.904 237.572 236.687 237.771 236.348 237.966L234.144 239.239ZM234.213 238.178L235.367 237.512C235.494 237.439 235.58 237.358 235.626 237.27C235.67 237.181 235.671 237.093 235.63 237.005C235.588 236.915 235.501 236.831 235.367 236.754C235.249 236.686 235.12 236.639 234.98 236.614C234.839 236.589 234.693 236.589 234.541 236.616C234.389 236.64 234.241 236.694 234.095 236.778L232.941 237.444L234.213 238.178ZM232.064 236.937L233.087 236.347C233.192 236.286 233.269 236.22 233.315 236.151C233.361 236.082 233.37 236.012 233.342 235.94C233.312 235.867 233.236 235.795 233.114 235.724C232.962 235.637 232.787 235.59 232.589 235.585C232.391 235.579 232.202 235.629 232.022 235.732L231 236.323L232.064 236.937ZM239.684 236.16C239.417 236.315 239.139 236.416 238.851 236.465C238.563 236.512 238.286 236.514 238.019 236.471C237.751 236.426 237.514 236.344 237.307 236.224C237.134 236.124 237.003 236.018 236.913 235.905C236.823 235.792 236.783 235.67 236.792 235.54C236.801 235.407 236.869 235.261 236.996 235.103C237.083 234.994 237.203 234.873 237.355 234.74C237.507 234.607 237.687 234.461 237.894 234.301C238.099 234.14 238.325 233.963 238.571 233.77L238.419 234.074C238.198 233.946 237.983 233.883 237.773 233.884C237.564 233.886 237.334 233.958 237.086 234.102C236.947 234.181 236.837 234.284 236.754 234.409C236.671 234.534 236.685 234.663 236.795 234.796L235.676 235.131C235.462 234.898 235.388 234.651 235.455 234.389C235.522 234.127 235.78 233.866 236.229 233.607C236.558 233.417 236.901 233.277 237.258 233.188C237.615 233.099 237.984 233.088 238.364 233.156C238.576 233.193 238.758 233.248 238.91 233.32C239.062 233.391 239.223 233.477 239.394 233.575L241.674 234.892L240.852 235.366L240.085 234.923L240.361 234.947C240.43 235.197 240.415 235.416 240.316 235.604C240.217 235.789 240.006 235.974 239.684 236.16ZM239.145 235.618C239.318 235.518 239.433 235.417 239.49 235.314C239.548 235.209 239.572 235.114 239.563 235.029C239.556 234.943 239.539 234.877 239.511 234.832C239.458 234.745 239.368 234.662 239.242 234.58C239.115 234.497 239.007 234.429 238.917 234.377L239.262 234.257C239.03 234.445 238.843 234.598 238.703 234.716C238.56 234.833 238.448 234.929 238.368 235.005C238.287 235.081 238.221 235.151 238.171 235.215C238.115 235.289 238.081 235.356 238.067 235.414C238.053 235.47 238.058 235.521 238.081 235.566C238.106 235.61 238.15 235.65 238.212 235.686C238.297 235.735 238.392 235.765 238.495 235.777C238.599 235.787 238.706 235.778 238.817 235.751C238.927 235.725 239.037 235.68 239.145 235.618ZM242.642 234.333L237.563 231.401L238.502 230.858L243.581 233.79L242.642 234.333ZM245.757 232.654C245.49 232.808 245.213 232.91 244.925 232.959C244.637 233.005 244.359 233.007 244.092 232.965C243.825 232.92 243.588 232.837 243.38 232.718C243.208 232.618 243.076 232.511 242.986 232.398C242.897 232.285 242.856 232.164 242.865 232.033C242.875 231.9 242.943 231.755 243.069 231.596C243.157 231.487 243.277 231.366 243.429 231.233C243.581 231.1 243.76 230.954 243.968 230.795C244.173 230.634 244.398 230.457 244.645 230.264L244.493 230.567C244.272 230.439 244.056 230.376 243.847 230.378C243.637 230.379 243.408 230.451 243.159 230.595C243.021 230.675 242.91 230.777 242.827 230.902C242.745 231.027 242.758 231.156 242.869 231.289L241.749 231.624C241.535 231.392 241.462 231.144 241.528 230.882C241.595 230.62 241.853 230.36 242.302 230.1C242.632 229.91 242.975 229.771 243.332 229.681C243.689 229.592 244.057 229.582 244.438 229.65C244.649 229.687 244.831 229.741 244.983 229.813C245.136 229.885 245.297 229.97 245.467 230.068L247.748 231.385L246.925 231.86L246.158 231.417L246.435 231.441C246.504 231.691 246.489 231.91 246.39 232.097C246.291 232.282 246.08 232.468 245.757 232.654ZM245.218 232.111C245.391 232.011 245.506 231.91 245.564 231.808C245.622 231.703 245.646 231.608 245.637 231.523C245.63 231.436 245.612 231.37 245.585 231.325C245.532 231.239 245.442 231.155 245.315 231.074C245.188 230.99 245.08 230.922 244.99 230.87L245.336 230.751C245.103 230.938 244.917 231.091 244.776 231.209C244.633 231.327 244.522 231.423 244.441 231.499C244.36 231.575 244.295 231.644 244.244 231.708C244.189 231.783 244.154 231.849 244.14 231.908C244.127 231.964 244.131 232.014 244.154 232.059C244.18 232.103 244.223 232.143 244.286 232.179C244.371 232.228 244.465 232.259 244.569 232.271C244.673 232.28 244.78 232.271 244.89 232.245C245.001 232.218 245.11 232.174 245.218 232.111ZM251.189 229.398L249.427 228.381C249.342 228.332 249.229 228.272 249.088 228.201C248.945 228.129 248.783 228.069 248.601 228.02C248.419 227.971 248.228 227.952 248.028 227.964C247.829 227.975 247.63 228.038 247.43 228.153C247.349 228.2 247.275 228.257 247.209 228.325C247.142 228.393 247.105 228.471 247.098 228.56C247.089 228.648 247.128 228.748 247.216 228.86C247.305 228.97 247.467 229.092 247.699 229.227L246.905 229.39C246.61 229.22 246.393 229.026 246.255 228.808C246.117 228.59 246.088 228.365 246.169 228.135C246.252 227.904 246.476 227.683 246.842 227.471C247.135 227.302 247.423 227.193 247.706 227.144C247.99 227.095 248.258 227.085 248.511 227.114C248.767 227.142 249 227.191 249.209 227.262C249.416 227.331 249.593 227.402 249.738 227.475C249.883 227.548 249.987 227.603 250.049 227.639L252.143 228.848L251.189 229.398ZM248.639 230.87L244.908 228.716L245.744 228.233L246.981 228.947L247.098 228.879L249.593 230.32L248.639 230.87ZM254.72 227.479C254.333 227.703 253.915 227.844 253.466 227.904C253.017 227.964 252.57 227.951 252.125 227.864C251.681 227.778 251.272 227.627 250.899 227.411C250.521 227.193 250.259 226.955 250.114 226.695C249.971 226.435 249.954 226.175 250.062 225.915C250.171 225.656 250.415 225.417 250.795 225.197C251.235 224.943 251.715 224.795 252.236 224.752C252.756 224.707 253.25 224.772 253.718 224.946L253.027 225.632C252.778 225.552 252.531 225.521 252.284 225.538C252.04 225.554 251.831 225.612 251.659 225.712C251.461 225.826 251.347 225.948 251.317 226.077C251.284 226.205 251.321 226.334 251.427 226.464C251.531 226.593 251.686 226.717 251.894 226.837C252.218 227.024 252.554 227.135 252.899 227.17C253.245 227.202 253.559 227.136 253.842 226.973C254.054 226.85 254.167 226.729 254.181 226.609C254.195 226.49 254.14 226.362 254.015 226.226L255.176 225.788C255.466 226.078 255.571 226.369 255.49 226.663C255.41 226.957 255.153 227.229 254.72 227.479ZM258.737 225.16C258.355 225.381 257.936 225.528 257.48 225.603C257.024 225.674 256.569 225.675 256.115 225.605C255.661 225.531 255.248 225.387 254.874 225.172C254.467 224.936 254.193 224.685 254.052 224.418C253.912 224.15 253.9 223.887 254.018 223.628C254.133 223.367 254.375 223.13 254.743 222.918C255.135 222.692 255.56 222.553 256.018 222.501C256.477 222.449 256.938 222.481 257.404 222.598C257.869 222.715 258.308 222.916 258.72 223.199L257.791 223.735L257.445 223.536C257.065 223.317 256.731 223.194 256.443 223.169C256.155 223.141 255.874 223.206 255.6 223.364C255.28 223.549 255.142 223.742 255.185 223.943C255.229 224.141 255.441 224.35 255.821 224.569C256.169 224.77 256.513 224.883 256.854 224.906C257.195 224.928 257.512 224.854 257.804 224.685C257.989 224.579 258.106 224.464 258.157 224.342C258.208 224.22 258.191 224.095 258.109 223.967L259.318 223.58C259.518 223.858 259.561 224.139 259.446 224.424C259.333 224.707 259.097 224.952 258.737 225.16ZM255.794 224.888L255.096 224.486L257.57 223.057L258.267 223.46L255.794 224.888Z" fill="#060606"/>
<path d="M228.501 261.996C227.6 262.517 226.623 262.863 225.57 263.035C224.517 263.207 223.465 263.207 222.412 263.035C221.359 262.863 220.382 262.517 219.481 261.996L215.832 259.89C214.931 259.37 214.332 258.806 214.033 258.198C213.735 257.59 213.735 256.982 214.033 256.374C214.332 255.766 214.931 255.202 215.832 254.682C216.733 254.162 217.71 253.816 218.763 253.643C219.816 253.471 220.869 253.471 221.922 253.643C222.975 253.816 223.952 254.162 224.852 254.682L228.501 256.789C229.402 257.309 230.002 257.873 230.3 258.481C230.599 259.089 230.599 259.696 230.3 260.304C230.002 260.912 229.402 261.476 228.501 261.996ZM226.322 260.738C226.727 260.504 226.998 260.238 227.133 259.939C227.268 259.64 227.268 259.34 227.133 259.041C226.998 258.742 226.727 258.476 226.322 258.242L222.319 255.93C221.913 255.696 221.452 255.54 220.934 255.462C220.416 255.384 219.898 255.384 219.38 255.462C218.862 255.54 218.4 255.696 217.994 255.93C217.589 256.164 217.319 256.431 217.184 256.73C217.048 257.029 217.048 257.328 217.184 257.627C217.319 257.926 217.589 258.193 217.994 258.427L221.998 260.738C222.403 260.972 222.865 261.128 223.383 261.206C223.901 261.284 224.419 261.284 224.937 261.206C225.455 261.128 225.917 260.972 226.322 260.738ZM235.491 257.668L233.194 256.342L235.491 255.015L237.789 256.342L235.491 257.668ZM240.176 254.944L238.183 253.793L238.757 248.234C238.802 247.818 238.754 247.478 238.613 247.215C238.473 246.952 238.273 246.745 238.014 246.596C237.642 246.381 237.237 246.235 236.797 246.157C236.353 246.076 235.911 246.068 235.471 246.133C235.027 246.194 234.618 246.333 234.247 246.547C233.858 246.771 233.605 247.022 233.487 247.298C233.368 247.568 233.374 247.834 233.503 248.098C233.627 248.358 233.864 248.582 234.213 248.771L231.848 250.136C231.015 249.655 230.477 249.133 230.235 248.571C229.993 248.008 230.032 247.443 230.353 246.874C230.674 246.305 231.268 245.77 232.135 245.269C232.929 244.811 233.813 244.502 234.787 244.343C235.761 244.177 236.738 244.169 237.718 244.319C238.698 244.468 239.596 244.779 240.412 245.25C241.015 245.598 241.431 245.936 241.662 246.264C241.887 246.589 242.003 246.945 242.009 247.332C242.009 247.716 241.978 248.169 241.916 248.693L241.51 252.262L240.818 252.077L246.527 248.78L248.689 250.029L240.176 254.944ZM250.37 249.058L248.377 247.907L248.951 242.348C248.996 241.932 248.949 241.593 248.808 241.329C248.667 241.066 248.467 240.86 248.208 240.71C247.836 240.495 247.431 240.349 246.992 240.271C246.547 240.19 246.105 240.182 245.666 240.247C245.221 240.309 244.813 240.447 244.441 240.661C244.053 240.886 243.799 241.136 243.681 241.412C243.563 241.682 243.568 241.949 243.698 242.212C243.822 242.472 244.058 242.696 244.407 242.885L242.043 244.25C241.209 243.769 240.672 243.247 240.429 242.685C240.187 242.123 240.227 241.557 240.548 240.988C240.869 240.419 241.463 239.884 242.33 239.384C243.124 238.925 244.008 238.616 244.982 238.457C245.956 238.291 246.933 238.283 247.912 238.433C248.892 238.582 249.79 238.893 250.607 239.364C251.209 239.712 251.626 240.05 251.857 240.378C252.082 240.704 252.197 241.06 252.203 241.446C252.203 241.83 252.172 242.283 252.11 242.807L251.705 246.376L251.012 246.191L256.722 242.895L258.884 244.143L250.37 249.058ZM263.031 241.768L253.369 236.19L252.49 238.316L249.957 236.853L250.869 234.746L253.217 233.391L265.379 240.412L263.031 241.768ZM269.198 238.207L263.286 230.074L258.083 233.078L255.921 231.829L263.59 227.402L265.752 228.65L271.681 236.774L269.198 238.207ZM282.051 230.787L280.159 229.694L274.872 232.747L272.727 231.508L268.436 224.604L271.072 223.082L275.362 229.987L278.014 228.456L274.974 226.7L277.305 225.354L280.345 227.11L281.426 226.486L283.572 227.724L282.49 228.349L284.382 229.441L282.051 230.787ZM291.988 225.342C291.182 225.807 290.27 226.116 289.251 226.269C288.238 226.418 287.21 226.407 286.168 226.235C285.121 226.059 284.155 225.716 283.271 225.206L279.741 223.168C278.784 222.615 278.145 222.031 277.824 221.417C277.497 220.799 277.486 220.188 277.79 219.584C278.088 218.976 278.694 218.408 279.606 217.882C280.197 217.54 280.847 217.266 281.557 217.058C282.266 216.85 283.052 216.737 283.913 216.721L283.913 218.613C283.508 218.613 283.117 218.657 282.739 218.745C282.362 218.833 282.033 218.958 281.751 219.12C281.312 219.374 281.033 219.655 280.915 219.964C280.797 220.266 280.814 220.565 280.966 220.861C281.118 221.15 281.38 221.402 281.751 221.617L283.559 222.661L282.748 222.641C282.742 222.235 282.875 221.846 283.145 221.476C283.415 221.098 283.795 220.769 284.285 220.486C285.051 220.044 285.895 219.754 286.819 219.618C287.748 219.478 288.674 219.486 289.597 219.642C290.527 219.795 291.374 220.092 292.14 220.534C292.905 220.977 293.404 221.489 293.635 222.07C293.86 222.649 293.835 223.229 293.559 223.811C293.277 224.39 292.753 224.9 291.988 225.342ZM289.792 224.075C290.141 223.873 290.374 223.641 290.493 223.377C290.617 223.111 290.619 222.846 290.501 222.582C290.389 222.316 290.158 222.082 289.809 221.88C289.46 221.679 289.057 221.544 288.601 221.476C288.139 221.404 287.68 221.402 287.224 221.471C286.762 221.536 286.357 221.669 286.008 221.871C285.659 222.072 285.425 222.308 285.307 222.578C285.189 222.841 285.189 223.107 285.307 223.377C285.425 223.641 285.659 223.873 286.008 224.075C286.346 224.27 286.743 224.401 287.199 224.47C287.655 224.538 288.114 224.539 288.576 224.474C289.037 224.409 289.443 224.276 289.792 224.075Z" fill="#060606"/>
<rect width="35.2908" height="13.1462" rx="6.57312" transform="matrix(0.866025 -0.5 0.866025 0.5 232.811 271.863)" fill="#060606"/>
<path d="M250.375 270.329L247.473 268.654L247.209 269.292L246.448 268.853L246.722 268.22L247.427 267.813L251.08 269.922L250.375 270.329ZM251.938 269.421L251.339 269.075L251.512 267.405C251.526 267.28 251.511 267.178 251.469 267.099C251.427 267.02 251.367 266.958 251.289 266.913C251.177 266.849 251.055 266.805 250.923 266.781C250.79 266.757 250.657 266.755 250.525 266.774C250.392 266.793 250.269 266.834 250.157 266.899C250.041 266.966 249.965 267.041 249.929 267.124C249.893 267.205 249.895 267.285 249.934 267.364C249.971 267.443 250.042 267.51 250.147 267.567L249.437 267.977C249.187 267.832 249.025 267.675 248.952 267.506C248.88 267.338 248.891 267.168 248.988 266.997C249.084 266.826 249.263 266.665 249.523 266.515C249.762 266.377 250.027 266.284 250.32 266.237C250.612 266.187 250.906 266.184 251.2 266.229C251.494 266.274 251.764 266.367 252.009 266.509C252.19 266.614 252.315 266.715 252.385 266.814C252.452 266.911 252.487 267.018 252.489 267.134C252.489 267.25 252.479 267.386 252.461 267.543L252.339 268.615L252.131 268.56L253.846 267.569L254.495 267.944L251.938 269.421ZM255.218 267.533L254.528 267.134L255.218 266.736L255.908 267.134L255.218 267.533ZM257.863 266.082C257.681 266.187 257.47 266.267 257.232 266.321C256.992 266.373 256.743 266.397 256.486 266.391C256.231 266.384 255.986 266.344 255.753 266.269L256.245 265.78C256.414 265.837 256.587 265.857 256.765 265.84C256.943 265.822 257.092 265.777 257.214 265.707C257.319 265.646 257.389 265.577 257.425 265.497C257.462 265.417 257.463 265.338 257.427 265.259C257.393 265.179 257.324 265.108 257.219 265.048C257.062 264.957 256.873 264.911 256.653 264.909C256.433 264.905 256.24 264.951 256.072 265.048C256.022 265.077 255.98 265.11 255.948 265.146C255.914 265.181 255.888 265.219 255.869 265.259L255.017 265.124L255.215 263.897L255.413 263.952L253.718 264.931L253.069 264.556L255.352 263.238L256.001 263.612L255.971 264.638L255.773 264.529C256.015 264.427 256.265 264.367 256.524 264.351C256.783 264.332 257.033 264.35 257.275 264.403C257.517 264.455 257.731 264.535 257.919 264.644C258.149 264.776 258.298 264.93 258.366 265.104C258.432 265.276 258.422 265.45 258.338 265.623C258.252 265.796 258.093 265.949 257.863 266.082ZM261.216 264.07L260.648 263.742L259.06 264.659L258.416 264.287L257.127 262.213L257.918 261.756L259.207 263.83L260.004 263.37L259.09 262.843L259.79 262.438L260.704 262.966L261.028 262.778L261.673 263.15L261.348 263.338L261.916 263.666L261.216 264.07ZM263.409 262.804H262.496L262.496 259.113L263.414 259.116L263.409 262.804ZM265.921 261.442C265.753 261.538 265.56 261.603 265.34 261.637C265.12 261.668 264.9 261.668 264.68 261.637C264.459 261.604 264.263 261.539 264.094 261.442C263.928 261.346 263.819 261.234 263.764 261.105C263.71 260.976 263.711 260.848 263.767 260.72C263.823 260.592 263.932 260.481 264.094 260.387C264.262 260.291 264.456 260.226 264.678 260.194C264.898 260.161 265.117 260.161 265.337 260.194C265.557 260.225 265.752 260.29 265.921 260.387C266.09 260.485 266.202 260.598 266.258 260.726C266.314 260.851 266.314 260.978 266.258 261.106C266.201 261.233 266.088 261.345 265.921 261.442ZM265.337 261.105C265.396 261.071 265.435 261.031 265.454 260.985C265.474 260.938 265.475 260.892 265.456 260.846C265.436 260.799 265.396 260.758 265.337 260.724C265.278 260.69 265.209 260.667 265.129 260.657C265.048 260.645 264.967 260.645 264.886 260.657C264.806 260.667 264.737 260.69 264.678 260.724C264.618 260.758 264.579 260.799 264.558 260.846C264.54 260.891 264.541 260.938 264.561 260.985C264.58 261.031 264.618 261.071 264.678 261.105C264.737 261.139 264.807 261.162 264.888 261.174C264.968 261.184 265.047 261.184 265.127 261.174C265.208 261.162 265.278 261.139 265.337 261.105ZM261.811 261.53C261.644 261.626 261.45 261.691 261.23 261.724C261.009 261.757 260.788 261.757 260.568 261.726C260.348 261.693 260.154 261.627 259.984 261.53C259.819 261.434 259.709 261.322 259.655 261.193C259.601 261.064 259.601 260.935 259.657 260.808C259.713 260.68 259.822 260.569 259.984 260.475C260.152 260.378 260.346 260.314 260.565 260.283C260.785 260.25 261.006 260.249 261.228 260.282C261.447 260.313 261.642 260.377 261.811 260.475C261.98 260.573 262.093 260.685 262.148 260.813C262.203 260.94 262.202 261.068 262.146 261.196C262.09 261.322 261.978 261.433 261.811 261.53ZM261.228 261.193C261.287 261.159 261.326 261.119 261.344 261.073C261.365 261.026 261.365 260.979 261.347 260.933C261.326 260.887 261.287 260.846 261.228 260.812C261.168 260.778 261.099 260.755 261.02 260.745C260.938 260.733 260.857 260.733 260.776 260.745C260.696 260.755 260.627 260.778 260.568 260.812C260.509 260.846 260.469 260.887 260.449 260.933C260.43 260.979 260.431 261.026 260.451 261.073C260.47 261.119 260.509 261.159 260.568 261.193C260.627 261.227 260.697 261.25 260.779 261.262C260.858 261.272 260.937 261.272 261.017 261.262C261.098 261.25 261.168 261.227 261.228 261.193Z" fill="white"/>
<g clip-path="url(#clip0_3757_38631)">
<path d="M244.49 273.233L244.482 270.54" stroke="white" stroke-width="0.732326" stroke-linecap="square"/>
<path d="M246.928 271.654L244.489 270.246L242.051 271.654" stroke="white" stroke-width="0.732326" stroke-linecap="square"/>
</g>
<path d="M110.969 250.292C114.517 248.243 114.517 244.921 110.969 242.873C107.42 240.824 101.667 240.824 98.1184 242.873C94.57 244.921 94.57 248.243 98.1184 250.292C101.667 252.34 107.42 252.34 110.969 250.292Z" stroke="#060606" stroke-width="1.30148" stroke-linecap="round" stroke-linejoin="round"/>
<path d="M113.631 246.582H120.147" stroke="#060606" stroke-width="1.30148" stroke-linecap="square" stroke-linejoin="round"/>
<path d="M161.474 214.844L150.654 208.597L155.222 205.959C155.328 205.898 155.473 205.82 155.658 205.725C155.844 205.623 156.019 205.54 156.184 205.473C156.931 205.158 157.672 204.976 158.408 204.926C159.15 204.874 159.866 204.935 160.557 205.109C161.244 205.279 161.89 205.54 162.496 205.89C163.102 206.239 163.553 206.615 163.849 207.017C164.144 207.414 164.247 207.826 164.157 208.254C164.072 208.679 163.758 209.106 163.217 209.534C163.097 209.626 162.952 209.727 162.782 209.837C162.611 209.947 162.476 210.031 162.376 210.089L159.851 211.547L163.518 213.664L161.474 214.844ZM157.943 210.445L160.377 209.039C160.482 208.978 160.593 208.909 160.708 208.831C160.823 208.753 160.918 208.675 160.993 208.597C161.194 208.394 161.281 208.199 161.256 208.011C161.226 207.82 161.131 207.647 160.971 207.49C160.81 207.328 160.633 207.191 160.437 207.078C160.242 206.965 160.006 206.864 159.731 206.775C159.455 206.679 159.155 206.624 158.829 206.61C158.499 206.592 158.158 206.642 157.807 206.757C157.672 206.801 157.537 206.856 157.402 206.922C157.266 206.989 157.146 207.052 157.041 207.113L154.606 208.519L157.943 210.445ZM174.979 207.307C174.162 207.778 173.263 208.087 172.281 208.231C171.299 208.376 170.315 208.363 169.328 208.192C168.341 208.016 167.43 207.686 166.593 207.203C165.747 206.714 165.178 206.183 164.887 205.611C164.592 205.035 164.572 204.466 164.827 203.902C165.083 203.338 165.611 202.824 166.413 202.361C167.229 201.89 168.129 201.582 169.11 201.437C170.097 201.29 171.087 201.303 172.078 201.476C173.065 201.647 173.977 201.974 174.814 202.457C175.655 202.943 176.224 203.473 176.519 204.049C176.815 204.619 176.835 205.189 176.579 205.758C176.324 206.322 175.79 206.839 174.979 207.307ZM173.07 206.205C173.727 205.826 173.995 205.417 173.874 204.977C173.754 204.532 173.346 204.108 172.65 203.706C171.928 203.29 171.187 203.053 170.425 202.995C169.669 202.934 168.968 203.09 168.321 203.463C167.876 203.721 167.61 203.99 167.525 204.27C167.44 204.551 167.505 204.834 167.72 205.121C167.941 205.404 168.286 205.682 168.757 205.954C169.484 206.373 170.225 206.613 170.981 206.674C171.738 206.729 172.434 206.572 173.07 206.205ZM180.524 203.846L172.408 199.16L174.212 198.119L176.195 199.264L175.745 199.23C175.569 199.007 175.454 198.778 175.399 198.544C175.344 198.31 175.369 198.076 175.474 197.841C175.549 197.659 175.669 197.483 175.835 197.312C175.995 197.139 176.19 196.977 176.421 196.826C176.646 196.673 176.897 196.534 177.172 196.41L179.081 197.512C178.785 197.601 178.5 197.74 178.224 197.928C177.949 198.11 177.748 198.304 177.623 198.509C177.493 198.712 177.438 198.914 177.458 199.117C177.473 199.316 177.563 199.513 177.728 199.707C177.889 199.898 178.124 200.083 178.435 200.262L182.582 202.657L180.524 203.846ZM191.586 197.459C191.13 197.843 190.624 198.187 190.068 198.491C189.522 198.795 188.949 199.019 188.347 199.164C187.746 199.302 187.138 199.321 186.521 199.22C185.95 199.122 185.47 198.965 185.079 198.751C184.683 198.535 184.242 198.286 183.756 198.005L176.828 194.005L178.872 192.825L185.68 196.756C185.995 196.938 186.284 197.101 186.544 197.246C186.805 197.385 187.057 197.47 187.303 197.502C187.769 197.563 188.212 197.486 188.633 197.272C189.054 197.058 189.472 196.793 189.888 196.478L191.586 197.459ZM179.278 197.016L177.7 196.105L183.471 192.773L185.049 193.684L179.278 197.016ZM194.071 196.024L185.986 191.356C185.78 191.238 185.552 191.1 185.302 190.944C185.051 190.788 184.828 190.613 184.633 190.419C184.443 190.222 184.337 190.005 184.317 189.768C184.287 189.462 184.367 189.196 184.558 188.97C184.748 188.739 184.979 188.542 185.249 188.38C185.515 188.215 185.745 188.076 185.94 187.964L186.947 187.382L188.6 188.337L187.669 188.875C187.348 189.06 187.193 189.245 187.203 189.43C187.208 189.612 187.323 189.768 187.548 189.898L196.115 194.844L194.071 196.024ZM186.256 192.987L184.678 192.076L189.878 189.074L191.456 189.985L186.256 192.987ZM202.775 191.259C201.959 191.73 201.059 192.038 200.078 192.183C199.096 192.328 198.111 192.315 197.125 192.144C196.138 191.967 195.226 191.638 194.389 191.155C193.543 190.666 192.974 190.135 192.684 189.563C192.388 188.987 192.368 188.417 192.624 187.853C192.879 187.289 193.408 186.776 194.209 186.313C195.026 185.842 195.925 185.534 196.907 185.389C197.894 185.242 198.883 185.255 199.875 185.428C200.862 185.599 201.773 185.926 202.61 186.409C203.451 186.895 204.02 187.425 204.316 188.001C204.611 188.571 204.631 189.14 204.376 189.71C204.12 190.274 203.587 190.79 202.775 191.259ZM200.867 190.157C201.523 189.778 201.791 189.369 201.671 188.929C201.55 188.484 201.142 188.06 200.446 187.658C199.724 187.242 198.983 187.004 198.222 186.947C197.465 186.886 196.764 187.042 196.118 187.415C195.672 187.673 195.406 187.942 195.321 188.222C195.236 188.503 195.301 188.786 195.517 189.072C195.737 189.356 196.083 189.633 196.554 189.905C197.28 190.325 198.021 190.565 198.778 190.625C199.534 190.68 200.23 190.524 200.867 190.157ZM208.47 187.711L197.424 181.333L199.468 180.153L210.514 186.531L208.47 187.711ZM203.675 179.807L201.871 178.766L203.915 177.586L205.718 178.627L203.675 179.807ZM212.917 185.143L204.802 180.458L206.846 179.278L214.961 183.963L212.917 185.143ZM221.091 180.684C220.274 181.156 219.375 181.464 218.393 181.608C217.411 181.753 216.427 181.74 215.44 181.569C214.453 181.393 213.542 181.063 212.705 180.58C211.858 180.091 211.29 179.561 210.999 178.988C210.704 178.413 210.684 177.843 210.939 177.279C211.195 176.715 211.723 176.201 212.525 175.739C213.341 175.267 214.24 174.959 215.222 174.815C216.209 174.667 217.198 174.68 218.19 174.854C219.177 175.024 220.089 175.351 220.925 175.834C221.767 176.32 222.336 176.851 222.631 177.426C222.927 177.996 222.947 178.566 222.691 179.136C222.436 179.7 221.902 180.216 221.091 180.684ZM219.182 179.582C219.838 179.204 220.106 178.794 219.986 178.355C219.866 177.909 219.458 177.486 218.761 177.084C218.04 176.667 217.299 176.43 216.537 176.372C215.781 176.311 215.08 176.468 214.433 176.841C213.987 177.098 213.722 177.367 213.637 177.648C213.552 177.928 213.617 178.212 213.832 178.498C214.053 178.781 214.398 179.059 214.869 179.331C215.595 179.75 216.337 179.99 217.093 180.051C217.85 180.106 218.546 179.95 219.182 179.582Z" fill="#060606"/>
<path d="M254.268 143.289L273.239 132.336" stroke="#060606" stroke-width="1.30148"/>
<path d="M260.887 147.111L279.858 136.158" stroke="#060606" stroke-width="1.30148"/>
<path d="M275.576 146.273L286.476 139.98" stroke="#060606" stroke-width="1.30148"/>
<path d="M434.282 106.859C434.282 159.128 397.587 222.687 352.321 248.821C307.055 274.955 270.359 253.769 270.359 201.5C270.359 149.232 307.055 85.6733 352.321 59.5388C397.587 33.4044 434.282 54.5906 434.282 106.859ZM290.85 189.67C290.85 228.872 318.371 244.761 352.321 225.161C386.271 205.56 413.792 157.891 413.792 118.69C413.792 79.4879 386.271 63.5983 352.321 83.1991C318.371 102.8 290.85 150.469 290.85 189.67Z" fill="#060606"/>
<mask id="path-48-inside-1_3757_38631" fill="white">
<path d="M443.236 113.57C443.236 165.839 406.54 229.397 361.274 255.532C316.008 281.666 279.313 260.48 279.313 208.211C279.313 155.943 316.008 92.3842 361.274 66.2498C406.54 40.1154 443.236 61.3015 443.236 113.57ZM299.803 196.381C299.803 235.583 327.324 251.472 361.274 231.872C395.224 212.271 422.745 164.602 422.745 125.4C422.745 86.1988 395.224 70.3092 361.274 89.91C327.324 109.511 299.803 157.18 299.803 196.381Z"/>
</mask>
<path d="M443.236 113.57C443.236 165.839 406.54 229.397 361.274 255.532C316.008 281.666 279.313 260.48 279.313 208.211C279.313 155.943 316.008 92.3842 361.274 66.2498C406.54 40.1154 443.236 61.3015 443.236 113.57ZM299.803 196.381C299.803 235.583 327.324 251.472 361.274 231.872C395.224 212.271 422.745 164.602 422.745 125.4C422.745 86.1988 395.224 70.3092 361.274 89.91C327.324 109.511 299.803 157.18 299.803 196.381Z" fill="#141414" stroke="#060606" stroke-width="2.60296" mask="url(#path-48-inside-1_3757_38631)"/>
<path d="M440.083 141.385C444.78 119.688 444.217 99.8069 438.472 84.5262C432.728 69.2454 422.089 59.3303 408.048 56.1693C394.006 53.0083 377.264 56.7598 360.166 66.8983C343.068 77.0368 326.47 93.0547 312.697 112.709C298.925 132.363 288.667 154.669 283.36 176.502C278.053 198.336 277.963 218.605 283.102 234.469C288.242 250.334 298.354 261 312.022 264.974C325.689 268.948 342.229 266.031 359.324 256.631L359.811 232.696C346.99 239.746 334.586 241.934 324.335 238.953C314.084 235.973 306.5 227.973 302.645 216.075C298.791 204.176 298.858 188.975 302.838 172.6C306.818 156.224 314.512 139.495 324.842 124.754C335.171 110.014 347.619 98.0003 360.443 90.3964C373.266 82.7925 385.823 79.9789 396.354 82.3497C406.886 84.7204 414.864 92.1568 419.173 103.617C423.481 115.078 423.904 129.989 420.381 146.262L440.083 141.385Z" fill="white" stroke="#060606" stroke-width="1.30148"/>
<path d="M292.685 148.68C283.324 170.608 278.673 192.784 279.383 212.101C280.093 231.419 286.129 246.912 296.646 256.409C307.162 265.907 321.633 268.934 338.03 265.066C354.428 261.199 371.931 250.63 388.09 234.841C404.248 219.052 418.252 198.833 428.141 177.015C438.029 155.198 443.307 132.874 443.235 113.171C443.163 93.468 437.744 77.3721 427.738 67.1376C417.732 56.9031 403.64 53.0424 387.435 56.0963L380.894 82.2949C393.048 80.0045 403.618 82.9 411.122 90.5759C418.627 98.2518 422.691 110.324 422.745 125.101C422.799 139.878 418.841 156.621 411.424 172.984C404.008 189.347 393.505 204.512 381.386 216.354C369.267 228.195 356.139 236.122 343.841 239.022C331.543 241.923 320.69 239.653 312.803 232.53C304.916 225.406 300.389 213.787 299.856 199.299C299.323 184.81 302.812 168.179 309.832 151.733L292.685 148.68Z" fill="#547907"/>
<path d="M292.685 148.68C283.414 170.398 278.76 192.364 279.365 211.558C279.969 230.753 285.801 246.233 296.06 255.87C306.319 265.507 320.5 268.828 336.653 265.376C352.807 261.924 370.14 251.869 386.269 236.593L380.02 217.667C367.923 229.124 354.924 236.666 342.809 239.254C330.693 241.843 320.058 239.353 312.364 232.125C304.67 224.897 300.295 213.287 299.842 198.892C299.389 184.496 302.879 168.021 309.832 151.733L292.685 148.68Z" fill="#B0F127"/>
<path d="M443.236 113.57C443.236 165.839 406.54 229.397 361.274 255.532C316.008 281.666 279.313 260.48 279.313 208.211C279.313 155.943 316.008 92.3842 361.274 66.2498C406.54 40.1154 443.236 61.3015 443.236 113.57ZM299.803 196.381C299.803 235.583 327.324 251.472 361.274 231.872C395.224 212.271 422.745 164.602 422.745 125.4C422.745 86.1988 395.224 70.3092 361.274 89.91C327.324 109.511 299.803 157.18 299.803 196.381Z" stroke="#060606" stroke-width="1.30148"/>
<rect width="156.498" height="25.5342" rx="12.7671" transform="matrix(0.866025 -0.5 0.866025 0.5 333.967 350.891)" fill="white" stroke="#060606" stroke-width="1.30148"/>
<rect width="142.129" height="14.5476" rx="7.27379" transform="matrix(0.866025 -0.5 0.866025 0.5 345.055 349.48)" fill="#060606" stroke="#060606" stroke-width="1.30148"/>
<mask id="mask5_3757_38631" style="mask-type:alpha" maskUnits="userSpaceOnUse" x="356" y="164" width="113" height="194">
<rect width="128.302" height="128.302" transform="matrix(0.866025 -0.5 2.20305e-08 1 356.895 228.771)" fill="#D9D9D9"/>
</mask>
<g mask="url(#mask5_3757_38631)">
<path fill-rule="evenodd" clip-rule="evenodd" d="M371.517 350.841C364.488 345.229 360.255 335.201 360.255 321.588C360.255 290.854 381.831 253.482 408.448 238.115C422.458 230.026 435.073 229.647 443.878 235.585L443.881 235.582L444.019 235.681C444.27 235.853 444.518 236.03 444.763 236.212L453.221 242.258L451.848 244.484C454.919 250.034 456.641 257.258 456.641 265.94C456.641 296.673 435.064 334.045 408.448 349.412C399.206 354.748 390.572 356.729 383.238 355.756L381.743 358.181L371.491 350.883L371.517 350.841Z" fill="#060606"/>
<mask id="mask6_3757_38631" style="mask-type:alpha" maskUnits="userSpaceOnUse" x="360" y="231" width="97" height="128">
<path fill-rule="evenodd" clip-rule="evenodd" d="M371.515 350.839C364.486 345.227 360.253 335.199 360.253 321.586C360.253 290.852 381.829 253.48 408.446 238.113C422.456 230.024 435.071 229.645 443.876 235.583L443.879 235.58L444.017 235.679C444.268 235.851 444.516 236.028 444.761 236.211L453.219 242.256L451.846 244.482C454.917 250.032 456.639 257.256 456.639 265.938C456.639 296.671 435.062 334.043 408.446 349.41C399.204 354.746 390.57 356.727 383.236 355.754L381.741 358.179L371.489 350.881L371.515 350.839Z" fill="#B0F127"/>
</mask>
<g mask="url(#mask6_3757_38631)">
<rect width="117.719" height="50.6172" transform="matrix(-0.866025 -0.5 -2.20305e-08 1 404.639 349.736)" fill="#060606"/>
</g>
<path d="M371.517 350.841L371.923 350.332L372.377 350.695L372.069 351.187L371.517 350.841ZM408.448 238.115L408.122 237.552L408.122 237.552L408.448 238.115ZM443.878 235.585L444.43 235.931L444.072 236.501L443.515 236.125L443.878 235.585ZM443.881 235.582L443.329 235.236L443.697 234.65L444.259 235.052L443.881 235.582ZM444.019 235.681L443.651 236.218L443.641 236.21L444.019 235.681ZM444.763 236.212L444.385 236.742L444.374 236.734L444.763 236.212ZM453.221 242.258L453.599 241.728L454.094 242.082L453.775 242.599L453.221 242.258ZM451.848 244.484L451.279 244.799L451.094 244.466L451.294 244.143L451.848 244.484ZM408.448 349.412L408.122 348.849L408.122 348.849L408.448 349.412ZM383.238 355.756L382.684 355.414L382.905 355.055L383.324 355.11L383.238 355.756ZM381.743 358.181L382.296 358.522L381.932 359.114L381.365 358.711L381.743 358.181ZM371.491 350.883L371.113 351.414L370.613 351.057L370.94 350.537L371.491 350.883ZM360.905 321.588C360.905 335.079 365.099 344.884 371.923 350.332L371.111 351.349C363.877 345.574 359.604 335.324 359.604 321.588H360.905ZM408.773 238.679C395.587 246.292 383.613 259.382 374.934 274.414C366.254 289.447 360.905 306.362 360.905 321.588H359.604C359.604 306.08 365.043 288.942 373.806 273.764C382.57 258.585 394.692 245.306 408.122 237.552L408.773 238.679ZM443.515 236.125C434.99 230.376 422.659 230.662 408.773 238.679L408.122 237.552C422.258 229.391 435.156 228.918 444.242 235.046L443.515 236.125ZM443.327 235.239L443.329 235.236L444.432 235.928L444.43 235.931L443.327 235.239ZM444.259 235.052L444.398 235.151L443.641 236.21L443.502 236.111L444.259 235.052ZM444.374 236.734C444.136 236.557 443.895 236.385 443.651 236.218L444.387 235.144C444.645 235.321 444.9 235.503 445.152 235.691L444.374 236.734ZM445.141 235.683L453.599 241.728L452.842 242.787L444.385 236.742L445.141 235.683ZM453.775 242.599L452.402 244.826L451.294 244.143L452.667 241.916L453.775 242.599ZM455.99 265.94C455.99 257.34 454.284 250.231 451.279 244.799L452.417 244.169C455.554 249.837 457.291 257.175 457.291 265.94H455.99ZM408.122 348.849C421.308 341.236 433.282 328.146 441.962 313.113C450.641 298.08 455.99 281.165 455.99 265.94H457.291C457.291 281.448 451.852 298.586 443.089 313.764C434.326 328.942 422.203 342.222 408.773 349.976L408.122 348.849ZM383.324 355.11C390.477 356.06 398.967 354.135 408.122 348.849L408.773 349.976C399.446 355.361 390.667 357.398 383.152 356.401L383.324 355.11ZM383.792 356.097L382.296 358.522L381.189 357.839L382.684 355.414L383.792 356.097ZM381.365 358.711L371.113 351.414L371.868 350.353L382.12 357.651L381.365 358.711ZM370.94 350.537L370.966 350.495L372.069 351.187L372.042 351.229L370.94 350.537Z" fill="#060606"/>
<circle r="55.6485" transform="matrix(-0.866025 0.5 2.20305e-08 1 417.319 300.086)" fill="white"/>
<mask id="mask7_3757_38631" style="mask-type:alpha" maskUnits="userSpaceOnUse" x="369" y="237" width="97" height="126">
<circle r="55.6485" transform="matrix(-0.866025 0.5 2.20305e-08 1 417.319 300.086)" fill="#B0F127"/>
</mask>
<g mask="url(#mask7_3757_38631)">
<rect width="117.719" height="63.1277" transform="matrix(-0.866025 0.5 -2.20305e-08 -1 468.477 272.436)" fill="white"/>
<path d="M436.515 283.669C437.235 277.695 433.57 276.823 428.559 277.723L430.185 269.256L426.216 270.405L424.634 278.649C423.59 278.951 422.519 279.287 421.454 279.621L423.048 271.322L419.081 272.47L417.455 280.935C416.591 281.207 415.743 281.472 414.92 281.711L414.925 281.685L409.451 283.267L408.396 288.771C408.396 288.771 411.34 287.85 411.278 287.934C412.886 287.47 413.176 288.53 413.127 289.532L411.276 299.178C411.387 299.146 411.53 299.11 411.688 299.092C411.556 299.131 411.415 299.17 411.269 299.214L408.674 312.727C408.477 313.405 407.979 314.538 406.855 314.866C406.895 314.91 403.97 315.7 403.97 315.7L402 322.083L407.165 320.588C408.126 320.312 409.067 320.059 409.994 319.798L408.352 328.361L412.316 327.214L413.942 318.741C415.025 318.456 416.077 318.162 417.105 317.863L415.484 326.297L419.453 325.148L421.096 316.599C427.863 314.171 432.952 310.636 435.094 302.332C436.82 295.644 435.008 293.408 431.448 293.323C434.041 291.135 435.994 288.038 436.515 283.669V283.669ZM427.447 303.587C426.221 309.986 417.923 311.7 415.232 312.482L417.412 301.135C420.102 300.358 428.729 296.912 427.447 303.587V303.587ZM428.675 288.113C427.556 293.936 420.649 295.293 418.409 295.942L420.384 285.651C422.625 285.003 429.84 282.04 428.675 288.113V288.113Z" fill="#060606"/>
</g>
<circle r="55.6485" transform="matrix(-0.866025 0.5 2.20305e-08 1 417.319 300.086)" stroke="#060606" stroke-width="1.30148"/>
</g>
</g>
<defs>
<clipPath id="clip0_3757_38631">
<rect width="4.47978" height="4.47978" fill="white" transform="matrix(0.866025 -0.5 0.866025 0.5 240.611 271.74)"/>
</clipPath>
</defs>
</svg>
