<svg width="127" height="199" viewBox="0 0 127 199" fill="none" xmlns="http://www.w3.org/2000/svg">
<path fill-rule="evenodd" clip-rule="evenodd" d="M112.759 159.6C121.117 152.928 126.151 141.005 126.151 124.818C126.151 88.2753 100.496 43.8397 68.8488 25.5683C52.1896 15.9501 37.1908 15.4994 26.7207 22.5603L26.7165 22.5536L26.3938 22.7842C26.203 22.9169 26.0138 23.0522 25.8262 23.1899L15.6108 30.4913L17.2451 33.1417C13.594 39.7404 11.5469 48.329 11.5469 58.6515C11.5469 95.1943 37.2018 139.63 68.8488 157.901C79.8367 164.245 90.1023 166.601 98.8225 165.444L100.599 168.325L112.789 159.648L112.759 159.6Z" fill="#B0F127"/>
<path d="M112.759 159.6L112.291 159.014L111.767 159.432L112.123 159.999L112.759 159.6ZM68.8488 25.5683L68.4738 26.2178L68.4738 26.2178L68.8488 25.5683ZM26.7207 22.5603L26.0855 22.9591L26.4975 23.6154L27.14 23.1821L26.7207 22.5603ZM26.7165 22.5536L27.3517 22.1548L26.9283 21.4804L26.2804 21.9434L26.7165 22.5536ZM26.3938 22.7842L26.8221 23.4L26.8299 23.3944L26.3938 22.7842ZM25.8262 23.1899L26.2623 23.8002L26.27 23.7945L25.8262 23.1899ZM15.6108 30.4913L15.1747 29.8811L14.6047 30.2885L14.9724 30.8849L15.6108 30.4913ZM17.2451 33.1417L17.9013 33.5048L18.1135 33.1212L17.8834 32.7481L17.2451 33.1417ZM68.8488 157.901L69.2238 157.252L69.2238 157.252L68.8488 157.901ZM98.8225 165.444L99.4609 165.05L99.2058 164.636L98.7239 164.7L98.8225 165.444ZM100.599 168.325L99.9607 168.718L100.381 169.4L101.034 168.936L100.599 168.325ZM112.789 159.648L113.224 160.259L113.8 159.849L113.424 159.249L112.789 159.648ZM125.401 124.818C125.401 140.863 120.412 152.53 112.291 159.014L113.226 160.186C121.821 153.325 126.901 141.146 126.901 124.818H125.401ZM68.4738 26.2178C84.1564 35.2722 98.3966 50.8395 108.718 68.7164C119.039 86.5933 125.401 106.709 125.401 124.818H126.901C126.901 106.384 120.435 86.0109 110.017 67.9664C99.5988 49.9219 85.1881 34.1358 69.2238 24.9188L68.4738 26.2178ZM27.14 23.1821C37.2865 16.3395 51.9583 16.6826 68.4738 26.2178L69.2238 24.9188C52.4209 15.2176 37.0951 14.6593 26.3014 21.9385L27.14 23.1821ZM27.3559 22.1615L27.3517 22.1548L26.0813 22.9524L26.0855 22.9591L27.3559 22.1615ZM26.2804 21.9434L25.9577 22.1741L26.8299 23.3944L27.1526 23.1638L26.2804 21.9434ZM26.27 23.7945C26.4525 23.6605 26.6366 23.529 26.8221 23.3999L25.9655 22.1686C25.7695 22.3049 25.5751 22.4439 25.3823 22.5854L26.27 23.7945ZM25.39 22.5798L15.1747 29.8811L16.0469 31.1014L26.2623 23.8001L25.39 22.5798ZM14.9724 30.8849L16.6067 33.5353L17.8834 32.7481L16.2492 30.0976L14.9724 30.8849ZM12.2969 58.6515C12.2969 48.424 14.3256 39.9673 17.9013 33.5048L16.5888 32.7786C12.8624 39.5134 10.7969 48.2339 10.7969 58.6515H12.2969ZM69.2238 157.252C53.5411 148.197 39.3009 132.63 28.9797 114.753C18.6585 96.8763 12.2969 76.7603 12.2969 58.6515H10.7969C10.7969 77.0856 17.2627 97.4587 27.6807 115.503C38.0987 133.548 52.5094 149.334 68.4738 158.551L69.2238 157.252ZM98.7239 164.7C90.2119 165.83 80.1127 163.539 69.2238 157.252L68.4738 158.551C79.5607 164.952 89.9927 167.372 98.9212 166.187L98.7239 164.7ZM98.1841 165.837L99.9607 168.718L101.238 167.931L99.4609 165.05L98.1841 165.837ZM101.034 168.936L113.224 160.259L112.354 159.037L100.164 167.714L101.034 168.936ZM113.424 159.249L113.394 159.201L112.123 159.999L112.153 160.047L113.424 159.249Z" fill="#060606"/>
<mask id="mask0_3754_36730" style="mask-type:alpha" maskUnits="userSpaceOnUse" x="10" y="16" width="117" height="154">
<path fill-rule="evenodd" clip-rule="evenodd" d="M112.759 159.598C121.117 152.926 126.151 141.003 126.151 124.816C126.151 88.2733 100.496 43.8377 68.8488 25.5663C52.1896 15.9482 37.1908 15.4975 26.7207 22.5584L26.7165 22.5517L26.3937 22.7823C26.203 22.915 26.0138 23.0502 25.8262 23.188L15.6108 30.4893L17.2451 33.1398C13.594 39.7384 11.5469 48.327 11.5469 58.6496C11.5469 95.1924 37.2018 139.628 68.8488 157.899C79.8367 164.243 90.1023 166.599 98.8225 165.442L100.599 168.323L112.789 159.646L112.759 159.598Z" fill="#B0F127"/>
<path d="M112.759 159.598L112.291 159.012L111.767 159.43L112.123 159.997L112.759 159.598ZM68.8488 25.5663L68.4738 26.2159L68.4738 26.2159L68.8488 25.5663ZM26.7207 22.5584L26.0855 22.9572L26.4976 23.6135L27.14 23.1802L26.7207 22.5584ZM26.7165 22.5517L27.3517 22.1529L26.9282 21.4784L26.2804 21.9415L26.7165 22.5517ZM26.3937 22.7823L26.8221 23.398L26.8299 23.3925L26.3937 22.7823ZM25.8262 23.188L26.2624 23.7982L26.27 23.7925L25.8262 23.188ZM15.6108 30.4893L15.1747 29.8791L14.6047 30.2866L14.9724 30.883L15.6108 30.4893ZM17.2451 33.1398L17.9013 33.5029L18.1135 33.1193L17.8834 32.7461L17.2451 33.1398ZM68.8488 157.899L69.2238 157.25L69.2238 157.25L68.8488 157.899ZM98.8225 165.442L99.4609 165.048L99.2058 164.634L98.7239 164.698L98.8225 165.442ZM100.599 168.323L99.9607 168.716L100.381 169.398L101.034 168.934L100.599 168.323ZM112.789 159.646L113.224 160.257L113.8 159.847L113.424 159.247L112.789 159.646ZM125.401 124.816C125.401 140.861 120.412 152.528 112.291 159.012L113.226 160.184C121.821 153.323 126.901 141.144 126.901 124.816H125.401ZM68.4738 26.2159C84.1564 35.2702 98.3966 50.8376 108.718 68.7145C119.039 86.5913 125.401 106.707 125.401 124.816H126.901C126.901 106.382 120.435 86.0089 110.017 67.9645C99.5988 49.92 85.1881 34.1338 69.2238 24.9168L68.4738 26.2159ZM27.14 23.1802C37.2865 16.3376 51.9583 16.6806 68.4738 26.2159L69.2238 24.9168C52.4209 15.2157 37.0951 14.6574 26.3014 21.9366L27.14 23.1802ZM27.3559 22.1596L27.3517 22.1529L26.0813 22.9505L26.0855 22.9572L27.3559 22.1596ZM26.2804 21.9415L25.9576 22.1722L26.8299 23.3925L27.1526 23.1618L26.2804 21.9415ZM26.27 23.7925C26.4525 23.6586 26.6366 23.527 26.8221 23.398L25.9654 22.1667C25.7695 22.303 25.5751 22.4419 25.3824 22.5834L26.27 23.7925ZM25.3901 22.5778L15.1747 29.8791L16.0469 31.0995L26.2623 23.7981L25.3901 22.5778ZM14.9724 30.883L16.6067 33.5334L17.8834 32.7461L16.2492 30.0957L14.9724 30.883ZM12.2969 58.6496C12.2969 48.422 14.3256 39.9654 17.9013 33.5029L16.5888 32.7767C12.8624 39.5115 10.7969 48.232 10.7969 58.6496H12.2969ZM69.2238 157.25C53.5411 148.195 39.3009 132.628 28.9797 114.751C18.6585 96.8744 12.2969 76.7583 12.2969 58.6496H10.7969C10.7969 77.0836 17.2627 97.4568 27.6807 115.501C38.0987 133.546 52.5094 149.332 68.4738 158.549L69.2238 157.25ZM98.7239 164.698C90.2119 165.828 80.1127 163.537 69.2238 157.25L68.4738 158.549C79.5607 164.95 89.9927 167.37 98.9212 166.185L98.7239 164.698ZM98.1841 165.835L99.9607 168.716L101.238 167.929L99.4609 165.048L98.1841 165.835ZM101.034 168.934L113.224 160.257L112.354 159.035L100.164 167.712L101.034 168.934ZM113.424 159.247L113.394 159.199L112.123 159.997L112.153 160.045L113.424 159.247Z" fill="#060606"/>
</mask>
<g mask="url(#mask0_3754_36730)">
<rect width="139.969" height="60.1842" transform="matrix(0.866025 -0.5 2.20305e-08 1 73.375 158.281)" fill="#B0F127"/>
</g>
<path d="M112.759 159.6L112.291 159.014L111.767 159.432L112.123 159.999L112.759 159.6ZM68.8488 25.5683L68.4738 26.2178L68.4738 26.2178L68.8488 25.5683ZM26.7207 22.5603L26.0855 22.9591L26.4975 23.6154L27.14 23.1821L26.7207 22.5603ZM26.7165 22.5536L27.3517 22.1548L26.9283 21.4804L26.2804 21.9434L26.7165 22.5536ZM26.3938 22.7842L26.8221 23.4L26.8299 23.3944L26.3938 22.7842ZM25.8262 23.1899L26.2623 23.8002L26.27 23.7945L25.8262 23.1899ZM15.6108 30.4913L15.1747 29.8811L14.6047 30.2885L14.9724 30.8849L15.6108 30.4913ZM17.2451 33.1417L17.9013 33.5048L18.1135 33.1212L17.8834 32.7481L17.2451 33.1417ZM68.8488 157.901L69.2238 157.252L69.2238 157.252L68.8488 157.901ZM98.8225 165.444L99.4609 165.05L99.2058 164.636L98.7239 164.7L98.8225 165.444ZM100.599 168.325L99.9607 168.718L100.381 169.4L101.034 168.936L100.599 168.325ZM112.789 159.648L113.224 160.259L113.8 159.849L113.424 159.249L112.789 159.648ZM125.401 124.818C125.401 140.863 120.412 152.53 112.291 159.014L113.226 160.186C121.821 153.325 126.901 141.146 126.901 124.818H125.401ZM68.4738 26.2178C84.1564 35.2722 98.3966 50.8395 108.718 68.7164C119.039 86.5933 125.401 106.709 125.401 124.818H126.901C126.901 106.384 120.435 86.0109 110.017 67.9664C99.5988 49.9219 85.1881 34.1358 69.2238 24.9188L68.4738 26.2178ZM27.14 23.1821C37.2865 16.3395 51.9583 16.6826 68.4738 26.2178L69.2238 24.9188C52.4209 15.2176 37.0951 14.6593 26.3014 21.9385L27.14 23.1821ZM27.3559 22.1615L27.3517 22.1548L26.0813 22.9524L26.0855 22.9591L27.3559 22.1615ZM26.2804 21.9434L25.9577 22.1741L26.8299 23.3944L27.1526 23.1638L26.2804 21.9434ZM26.27 23.7945C26.4525 23.6605 26.6366 23.529 26.8221 23.3999L25.9655 22.1686C25.7695 22.3049 25.5751 22.4439 25.3823 22.5854L26.27 23.7945ZM25.39 22.5798L15.1747 29.8811L16.0469 31.1014L26.2623 23.8001L25.39 22.5798ZM14.9724 30.8849L16.6067 33.5353L17.8834 32.7481L16.2492 30.0976L14.9724 30.8849ZM12.2969 58.6515C12.2969 48.424 14.3256 39.9673 17.9013 33.5048L16.5888 32.7786C12.8624 39.5134 10.7969 48.2339 10.7969 58.6515H12.2969ZM69.2238 157.252C53.5411 148.197 39.3009 132.63 28.9797 114.753C18.6585 96.8763 12.2969 76.7603 12.2969 58.6515H10.7969C10.7969 77.0856 17.2627 97.4587 27.6807 115.503C38.0987 133.548 52.5094 149.334 68.4738 158.551L69.2238 157.252ZM98.7239 164.7C90.2119 165.83 80.1127 163.539 69.2238 157.252L68.4738 158.551C79.5607 164.952 89.9927 167.372 98.9212 166.187L98.7239 164.7ZM98.1841 165.837L99.9607 168.718L101.238 167.931L99.4609 165.05L98.1841 165.837ZM101.034 168.936L113.224 160.259L112.354 159.037L100.164 167.714L101.034 168.936ZM113.424 159.249L113.394 159.201L112.123 159.999L112.153 160.047L113.424 159.249Z" fill="#060606"/>
<circle r="66.1665" transform="matrix(0.866025 0.5 -2.20305e-08 1 58.3019 99.2498)" fill="white" stroke="#060606" stroke-width="1.5"/>
<mask id="mask1_3754_36730" style="mask-type:alpha" maskUnits="userSpaceOnUse" x="0" y="24" width="117" height="151">
<circle r="66.1665" transform="matrix(0.866025 0.5 -2.20305e-08 1 58.3038 99.2498)" fill="#B0F127" stroke="#060606" stroke-width="1.5"/>
</mask>
<g mask="url(#mask1_3754_36730)">
<rect width="139.969" height="75.0593" transform="matrix(0.866025 0.5 2.20305e-08 -1 -2.52344 66.3711)" fill="white"/>
<circle r="66.1665" transform="matrix(0.866025 0.5 -2.20305e-08 1 58.3038 99.2498)" stroke="#060606" stroke-width="1.5"/>
<path d="M58.2982 65.6607L57.9082 66.966L57.9082 111.377L58.2982 112.051L76.1512 110.173L58.2982 65.6607Z" fill="#060606"/>
<path d="M58.2983 65.661L40.4453 89.5586L58.2983 112.052L58.2983 90.4961L58.2983 65.661Z" fill="#060606"/>
<path d="M58.2979 115.959L58.0781 116.141L58.0781 131.961L58.2979 132.829L76.1615 114.093L58.2979 115.959Z" fill="#060606"/>
<path d="M58.2983 132.824L58.2983 115.954L40.4453 93.4668L58.2983 132.824Z" fill="#060606"/>
<path d="M58.2988 112.053L76.1516 110.175L58.2988 90.498L58.2988 112.053Z" fill="#060606"/>
<path d="M40.4453 89.5594L58.2981 112.052L58.2981 90.4967L40.4453 89.5594Z" fill="#060606"/>
</g>
</svg>
