<svg width="93" height="145" viewBox="0 0 93 145" fill="none" xmlns="http://www.w3.org/2000/svg">
<path fill-rule="evenodd" clip-rule="evenodd" d="M82.1725 115.922C88.2429 111.075 91.8987 102.416 91.8987 90.6596C91.8987 64.118 73.2651 31.8437 50.2794 18.5729C38.18 11.5873 27.2865 11.2598 19.6819 16.3876L19.6795 16.3838L19.5153 16.5012C19.3286 16.6299 19.1439 16.7619 18.9612 16.8973L11.6133 22.1491L12.7993 24.0727C10.1472 28.8655 8.66016 35.1038 8.66016 42.6018C8.66016 69.1434 27.2937 101.418 50.2794 114.688C58.2605 119.296 65.717 121.007 72.0508 120.166L73.3416 122.26L82.195 115.958L82.1725 115.922Z" fill="#B0F127"/>
<path d="M82.1725 115.922L81.7045 115.336L81.1813 115.754L81.5373 116.321L82.1725 115.922ZM50.2794 18.5729L49.9044 19.2224L49.9044 19.2224L50.2794 18.5729ZM19.6819 16.3876L19.0467 16.7864L19.4587 17.4427L20.1012 17.0095L19.6819 16.3876ZM19.6795 16.3838L20.3147 15.9851L19.8913 15.3106L19.2434 15.7737L19.6795 16.3838ZM19.5153 16.5012L19.941 17.1188L19.9514 17.1114L19.5153 16.5012ZM18.9612 16.8973L19.3974 17.5075L19.4076 17.4999L18.9612 16.8973ZM11.6133 22.1491L11.1772 21.5389L10.6071 21.9463L10.9749 22.5427L11.6133 22.1491ZM12.7993 24.0727L13.4556 24.4358L13.6678 24.0522L13.4377 23.679L12.7993 24.0727ZM50.2794 114.688L49.9044 115.338L49.9044 115.338L50.2794 114.688ZM72.0508 120.166L72.6892 119.773L72.4341 119.359L71.9521 119.423L72.0508 120.166ZM73.3416 122.26L72.7032 122.653L73.1238 123.335L73.7766 122.871L73.3416 122.26ZM82.195 115.958L82.63 116.569L83.2065 116.158L82.8302 115.559L82.195 115.958ZM91.1487 90.6596C91.1487 102.274 87.5384 110.678 81.7045 115.336L82.6404 116.508C88.9474 111.473 92.6487 102.557 92.6487 90.6596H91.1487ZM49.9044 19.2224C61.2564 25.7765 71.5759 37.0534 79.0591 50.0147C86.5424 62.976 91.1487 77.5514 91.1487 90.6596H92.6487C92.6487 77.2261 87.9382 62.3936 80.3582 49.2647C72.7782 36.1358 62.2881 24.6401 50.6544 17.9234L49.9044 19.2224ZM20.1012 17.0095C27.3821 12.0998 37.9487 12.3198 49.9044 19.2224L50.6544 17.9234C38.4113 10.8548 27.1908 10.4197 19.2626 15.7658L20.1012 17.0095ZM20.3171 15.9889L20.3147 15.9851L19.0443 16.7826L19.0467 16.7864L20.3171 15.9889ZM19.2434 15.7737L19.0792 15.891L19.9514 17.1114L20.1156 16.994L19.2434 15.7737ZM19.4076 17.4999C19.5835 17.3696 19.7612 17.2426 19.9409 17.1187L19.0897 15.8837C18.8959 16.0172 18.7042 16.1542 18.5147 16.2946L19.4076 17.4999ZM18.5251 16.2871L11.1772 21.5389L12.0494 22.7593L19.3973 17.5074L18.5251 16.2871ZM10.9749 22.5427L12.161 24.4663L13.4377 23.679L12.2517 21.7555L10.9749 22.5427ZM9.41016 42.6018C9.41016 35.1989 10.8788 29.0925 13.4556 24.4358L12.1431 23.7095C9.41564 28.6385 7.91016 35.0088 7.91016 42.6018H9.41016ZM50.6544 114.039C39.3024 107.485 28.9829 96.208 21.4997 83.2467C14.0165 70.2853 9.41016 55.7099 9.41016 42.6018H7.91016C7.91016 56.0352 12.6206 70.8677 20.2006 83.9967C27.7806 97.1256 38.2707 108.621 49.9044 115.338L50.6544 114.039ZM71.9521 119.423C65.8265 120.236 58.5366 118.59 50.6544 114.039L49.9044 115.338C57.9845 120.003 65.6074 121.778 72.1496 120.91L71.9521 119.423ZM71.4125 120.56L72.7032 122.653L73.98 121.866L72.6892 119.773L71.4125 120.56ZM73.7766 122.871L82.63 116.569L81.7601 115.347L72.9067 121.649L73.7766 122.871ZM82.8302 115.559L82.8077 115.523L81.5373 116.321L81.5598 116.357L82.8302 115.559Z" fill="#060606"/>
<mask id="mask0_3754_36648" style="mask-type:alpha" maskUnits="userSpaceOnUse" x="7" y="12" width="86" height="112">
<path fill-rule="evenodd" clip-rule="evenodd" d="M82.1725 115.914C88.2429 111.068 91.8987 102.408 91.8987 90.6517C91.8987 64.1102 73.2651 31.8359 50.2794 18.5651C38.18 11.5795 27.2865 11.2519 19.6819 16.3798L19.6795 16.376L19.5153 16.4934C19.3286 16.6221 19.1439 16.7541 18.9612 16.8895L11.6133 22.1413L12.7993 24.0648C10.1472 28.8577 8.66016 35.096 8.66016 42.594C8.66016 69.1355 27.2937 101.41 50.2794 114.681C58.2605 119.289 65.717 120.999 72.0508 120.159L73.3416 122.252L82.195 115.95L82.1725 115.914Z" fill="#B0F127"/>
<path d="M82.1725 115.914L81.7045 115.328L81.1813 115.746L81.5373 116.313L82.1725 115.914ZM50.2794 18.5651L49.9044 19.2146L49.9044 19.2146L50.2794 18.5651ZM19.6819 16.3798L19.0467 16.7786L19.4587 17.4349L20.1012 17.0017L19.6819 16.3798ZM19.6795 16.376L20.3147 15.9773L19.8913 15.3028L19.2434 15.7659L19.6795 16.376ZM19.5153 16.4934L19.941 17.111L19.9514 17.1036L19.5153 16.4934ZM18.9612 16.8895L19.3974 17.4997L19.4076 17.4921L18.9612 16.8895ZM11.6133 22.1413L11.1772 21.5311L10.6071 21.9385L10.9749 22.5349L11.6133 22.1413ZM12.7993 24.0648L13.4556 24.428L13.6678 24.0444L13.4377 23.6712L12.7993 24.0648ZM50.2794 114.681L49.9044 115.33L49.9044 115.33L50.2794 114.681ZM72.0508 120.159L72.6892 119.765L72.4341 119.351L71.9521 119.415L72.0508 120.159ZM73.3416 122.252L72.7032 122.646L73.1238 123.328L73.7766 122.863L73.3416 122.252ZM82.195 115.95L82.63 116.561L83.2065 116.151L82.8302 115.551L82.195 115.95ZM91.1487 90.6517C91.1487 102.267 87.5384 110.67 81.7045 115.328L82.6404 116.5C88.9474 111.465 92.6487 102.549 92.6487 90.6517H91.1487ZM49.9044 19.2146C61.2564 25.7687 71.5759 37.0455 79.0591 50.0069C86.5424 62.9682 91.1487 77.5436 91.1487 90.6517H92.6487C92.6487 77.2183 87.9382 62.3858 80.3582 49.2569C72.7782 36.1279 62.2881 24.6323 50.6544 17.9156L49.9044 19.2146ZM20.1012 17.0017C27.3821 12.092 37.9487 12.3119 49.9044 19.2146L50.6544 17.9156C38.4113 10.847 27.1908 10.4119 19.2626 15.758L20.1012 17.0017ZM20.3171 15.9811L20.3147 15.9773L19.0443 16.7748L19.0467 16.7786L20.3171 15.9811ZM19.2434 15.7659L19.0792 15.8832L19.9514 17.1036L20.1156 16.9862L19.2434 15.7659ZM19.4076 17.4921C19.5835 17.3618 19.7612 17.2348 19.9409 17.1109L19.0897 15.8758C18.8959 16.0094 18.7042 16.1464 18.5147 16.2868L19.4076 17.4921ZM18.5251 16.2793L11.1772 21.5311L12.0494 22.7515L19.3973 17.4996L18.5251 16.2793ZM10.9749 22.5349L12.161 24.4585L13.4377 23.6712L12.2517 21.7477L10.9749 22.5349ZM9.41016 42.594C9.41016 35.191 10.8788 29.0847 13.4556 24.428L12.1431 23.7017C9.41564 28.6307 7.91016 35.001 7.91016 42.594H9.41016ZM50.6544 114.031C39.3024 107.477 28.9829 96.2002 21.4997 83.2388C14.0165 70.2775 9.41016 55.7021 9.41016 42.594H7.91016C7.91016 56.0274 12.6206 70.8599 20.2006 83.9888C27.7806 97.1178 38.2707 108.613 49.9044 115.33L50.6544 114.031ZM71.9521 119.415C65.8265 120.228 58.5366 118.582 50.6544 114.031L49.9044 115.33C57.9845 119.995 65.6074 121.771 72.1496 120.902L71.9521 119.415ZM71.4125 120.552L72.7032 122.646L73.98 121.858L72.6892 119.765L71.4125 120.552ZM73.7766 122.863L82.63 116.561L81.7601 115.339L72.9067 121.641L73.7766 122.863ZM82.8302 115.551L82.8077 115.515L81.5373 116.313L81.5598 116.349L82.8302 115.551Z" fill="#060606"/>
</mask>
<g mask="url(#mask0_3754_36648)">
<rect width="101.662" height="43.7128" transform="matrix(0.866025 -0.5 2.20305e-08 1 53.5664 114.963)" fill="#B0F127"/>
</g>
<path d="M82.1725 115.922L81.7045 115.336L81.1813 115.754L81.5373 116.321L82.1725 115.922ZM50.2794 18.5729L49.9044 19.2224L49.9044 19.2224L50.2794 18.5729ZM19.6819 16.3876L19.0467 16.7864L19.4587 17.4427L20.1012 17.0095L19.6819 16.3876ZM19.6795 16.3838L20.3147 15.9851L19.8913 15.3106L19.2434 15.7737L19.6795 16.3838ZM19.5153 16.5012L19.941 17.1188L19.9514 17.1114L19.5153 16.5012ZM18.9612 16.8973L19.3974 17.5075L19.4076 17.4999L18.9612 16.8973ZM11.6133 22.1491L11.1772 21.5389L10.6071 21.9463L10.9749 22.5427L11.6133 22.1491ZM12.7993 24.0727L13.4556 24.4358L13.6678 24.0522L13.4377 23.679L12.7993 24.0727ZM50.2794 114.688L49.9044 115.338L49.9044 115.338L50.2794 114.688ZM72.0508 120.166L72.6892 119.773L72.4341 119.359L71.9521 119.423L72.0508 120.166ZM73.3416 122.26L72.7032 122.653L73.1238 123.335L73.7766 122.871L73.3416 122.26ZM82.195 115.958L82.63 116.569L83.2065 116.158L82.8302 115.559L82.195 115.958ZM91.1487 90.6596C91.1487 102.274 87.5384 110.678 81.7045 115.336L82.6404 116.508C88.9474 111.473 92.6487 102.557 92.6487 90.6596H91.1487ZM49.9044 19.2224C61.2564 25.7765 71.5759 37.0534 79.0591 50.0147C86.5424 62.976 91.1487 77.5514 91.1487 90.6596H92.6487C92.6487 77.2261 87.9382 62.3936 80.3582 49.2647C72.7782 36.1358 62.2881 24.6401 50.6544 17.9234L49.9044 19.2224ZM20.1012 17.0095C27.3821 12.0998 37.9487 12.3198 49.9044 19.2224L50.6544 17.9234C38.4113 10.8548 27.1908 10.4197 19.2626 15.7658L20.1012 17.0095ZM20.3171 15.9889L20.3147 15.9851L19.0443 16.7826L19.0467 16.7864L20.3171 15.9889ZM19.2434 15.7737L19.0792 15.891L19.9514 17.1114L20.1156 16.994L19.2434 15.7737ZM19.4076 17.4999C19.5835 17.3696 19.7612 17.2426 19.9409 17.1187L19.0897 15.8837C18.8959 16.0172 18.7042 16.1542 18.5147 16.2946L19.4076 17.4999ZM18.5251 16.2871L11.1772 21.5389L12.0494 22.7593L19.3973 17.5074L18.5251 16.2871ZM10.9749 22.5427L12.161 24.4663L13.4377 23.679L12.2517 21.7555L10.9749 22.5427ZM9.41016 42.6018C9.41016 35.1989 10.8788 29.0925 13.4556 24.4358L12.1431 23.7095C9.41564 28.6385 7.91016 35.0088 7.91016 42.6018H9.41016ZM50.6544 114.039C39.3024 107.485 28.9829 96.208 21.4997 83.2467C14.0165 70.2853 9.41016 55.7099 9.41016 42.6018H7.91016C7.91016 56.0352 12.6206 70.8677 20.2006 83.9967C27.7806 97.1256 38.2707 108.621 49.9044 115.338L50.6544 114.039ZM71.9521 119.423C65.8265 120.236 58.5366 118.59 50.6544 114.039L49.9044 115.338C57.9845 120.003 65.6074 121.778 72.1496 120.91L71.9521 119.423ZM71.4125 120.56L72.7032 122.653L73.98 121.866L72.6892 119.773L71.4125 120.56ZM73.7766 122.871L82.63 116.569L81.7601 115.347L72.9067 121.649L73.7766 122.871ZM82.8302 115.559L82.8077 115.523L81.5373 116.321L81.5598 116.357L82.8302 115.559Z" fill="#060606"/>
<circle r="48.0578" transform="matrix(0.866025 0.5 -2.20305e-08 1 42.6193 72.0867)" fill="white" stroke="#060606" stroke-width="1.5"/>
<mask id="mask1_3754_36648" style="mask-type:alpha" maskUnits="userSpaceOnUse" x="0" y="17" width="85" height="110">
<circle r="48.0578" transform="matrix(0.866025 0.5 -2.20305e-08 1 42.6212 72.0867)" fill="#B0F127" stroke="#060606" stroke-width="1.5"/>
</mask>
<g mask="url(#mask1_3754_36648)">
<rect width="101.662" height="54.5167" transform="matrix(0.866025 0.5 2.20305e-08 -1 -1.55859 48.207)" fill="white"/>
<circle r="48.0578" transform="matrix(0.866025 0.5 -2.20305e-08 1 42.6212 72.0867)" stroke="#060606" stroke-width="1.5"/>
<path d="M53.6191 90.3883L39.9779 82.5125L42.5282 74.0547L46.4427 75.0135L47.273 72.2056L43.3586 71.3153L47.5102 57.4129L47.5102 57.2075C47.5102 56.7281 47.2137 56.2144 46.7985 55.9747L41.52 52.9272C41.1048 52.6875 40.749 52.8244 40.6303 53.2353L35.767 69.6717L31.8525 68.7814L30.9629 71.4865L34.8773 72.3768L31.3781 84.1219L52.1957 96.141C52.6108 96.3807 52.9667 96.2437 53.0853 95.9013L54.2715 91.8607L54.2715 91.6552C54.3308 91.1416 54.0343 90.628 53.6191 90.3883V90.3883Z" fill="#060606"/>
</g>
</svg>
