<svg width="100" height="100" viewBox="0 0 100 100" fill="none" xmlns="http://www.w3.org/2000/svg">
<circle cx="50" cy="50" r="50" fill="#141414"/>
<circle cx="50" cy="50" r="50" fill="#141414"/>
<path fill-rule="evenodd" clip-rule="evenodd" d="M32.3472 10.533C30.8209 9.65177 28.3463 9.65177 26.82 10.533L17.5241 15.9C15.9978 16.7812 15.9978 18.2099 17.5241 19.0911L33.2479 28.1692V48.1694C33.2479 50.6297 35.0496 53.6175 37.1757 54.6827L64.327 68.2861V86.9474C64.327 88.6402 65.4717 89.3775 66.9354 88.6275L81.7951 81.0133C83.588 80.0946 84.9994 77.4218 84.6658 75.577L79.6568 47.8783L78.4616 40.5513C78.1062 38.3723 76.5999 36.0878 74.854 35.0798L70.7042 32.6839C70.6531 32.6508 70.6 32.6182 70.5449 32.5864L32.3472 10.533Z" fill="white"/>
<path d="M26.82 10.533L26.445 9.88345L26.82 10.533ZM32.3472 10.533L32.7222 9.88345L32.7222 9.88345L32.3472 10.533ZM17.5241 15.9L17.8991 16.5495L17.8991 16.5495L17.5241 15.9ZM17.5241 19.0911L17.8991 18.4415L17.8991 18.4415L17.5241 19.0911ZM33.2479 28.1692H33.9979V27.7362L33.6229 27.5197L33.2479 28.1692ZM37.1757 54.6827L37.5116 54.0121L37.5116 54.0121L37.1757 54.6827ZM64.327 68.2861H65.077V67.823L64.663 67.6156L64.327 68.2861ZM66.9354 88.6275L67.2774 89.295L67.2774 89.295L66.9354 88.6275ZM81.7951 81.0133L82.1371 81.6808L82.1371 81.6808L81.7951 81.0133ZM84.6658 75.577L83.9277 75.7105L83.9277 75.7105L84.6658 75.577ZM79.6568 47.8783L78.9165 47.999L78.9188 48.0117L79.6568 47.8783ZM78.4616 40.5513L77.7214 40.672L77.7214 40.672L78.4616 40.5513ZM74.854 35.0798L75.229 34.4303L75.229 34.4303L74.854 35.0798ZM70.7042 32.6839L70.2958 33.313L70.3122 33.3237L70.3292 33.3335L70.7042 32.6839ZM70.5449 32.5864L70.1699 33.236L70.1699 33.236L70.5449 32.5864ZM27.195 11.1825C27.8173 10.8232 28.6801 10.6221 29.5836 10.6221C30.487 10.6221 31.3499 10.8232 31.9722 11.1825L32.7222 9.88345C31.8182 9.36154 30.6806 9.12207 29.5836 9.12207C28.4866 9.12207 27.349 9.36153 26.445 9.88345L27.195 11.1825ZM17.8991 16.5495L27.195 11.1825L26.445 9.88345L17.1491 15.2505L17.8991 16.5495ZM17.8991 18.4415C17.2726 18.0798 17.1294 17.7106 17.1294 17.4955C17.1294 17.2804 17.2726 16.9112 17.8991 16.5495L17.1491 15.2505C16.2493 15.7699 15.6294 16.5557 15.6294 17.4955C15.6294 18.4354 16.2493 19.2211 17.1491 19.7406L17.8991 18.4415ZM33.6229 27.5197L17.8991 18.4415L17.1491 19.7406L32.8729 28.8187L33.6229 27.5197ZM32.4979 28.1692V48.1694H33.9979V28.1692H32.4979ZM32.4979 48.1694C32.4979 49.5686 33.0045 51.0634 33.7723 52.3365C34.539 53.6079 35.6156 54.7399 36.8397 55.3532L37.5116 54.0121C36.6098 53.5603 35.7224 52.6657 35.0568 51.5619C34.3921 50.4597 33.9979 49.2305 33.9979 48.1694H32.4979ZM36.8397 55.3532L63.9911 68.9567L64.663 67.6156L37.5116 54.0121L36.8397 55.3532ZM63.577 68.2861V86.9474H65.077V68.2861H63.577ZM63.577 86.9474C63.577 87.9455 63.9184 88.8459 64.6762 89.334C65.4432 89.828 66.3963 89.7464 67.2774 89.295L66.5934 87.96C66.0108 88.2585 65.6597 88.1833 65.4885 88.0729C65.308 87.9567 65.077 87.6421 65.077 86.9474H63.577ZM67.2774 89.295L82.1371 81.6808L81.4531 80.3458L66.5934 87.96L67.2774 89.295ZM82.1371 81.6808C83.2084 81.1319 84.1066 80.0995 84.6911 78.9927C85.2727 77.8912 85.6107 76.5876 85.4038 75.4436L83.9277 75.7105C84.0544 76.4112 83.8535 77.3665 83.3646 78.2922C82.8786 79.2127 82.1747 79.9761 81.4531 80.3458L82.1371 81.6808ZM85.4038 75.4436L80.3948 47.7448L78.9188 48.0117L83.9277 75.7105L85.4038 75.4436ZM80.397 47.7575L79.2018 40.4305L77.7214 40.672L78.9166 47.999L80.397 47.7575ZM79.2018 40.4305C78.8141 38.0535 77.19 35.5625 75.229 34.4303L74.479 35.7294C76.0099 36.6132 77.3983 38.6911 77.7214 40.672L79.2018 40.4305ZM75.229 34.4303L71.0792 32.0344L70.3292 33.3335L74.479 35.7294L75.229 34.4303ZM70.1699 33.236C70.214 33.2614 70.256 33.2871 70.2958 33.313L71.1126 32.0549C71.0502 32.0144 70.986 31.9751 70.9199 31.9369L70.1699 33.236ZM31.9722 11.1825L70.1699 33.236L70.9199 31.9369L32.7222 9.88345L31.9722 11.1825Z" fill="#060606"/>
<mask id="mask0_3786_37516" style="mask-type:alpha" maskUnits="userSpaceOnUse" x="14" y="9" width="72" height="81">
<path fill-rule="evenodd" clip-rule="evenodd" d="M32.297 10.5066C30.7707 9.6254 28.2961 9.6254 26.7698 10.5066L16.695 16.3233C15.1687 17.2045 15.1687 18.6332 16.695 19.5144L33.2478 29.0712V48.1683C33.2478 50.6286 35.0496 53.6164 37.1756 54.6816L64.3265 68.2848V86.9463C64.3265 88.6391 65.4712 89.3764 66.9349 88.6264L81.7946 81.0122C83.5875 80.0936 84.9989 77.4207 84.6653 75.576L79.6609 47.9026L78.4616 40.5502C78.1061 38.3712 76.5999 36.0868 74.854 35.0788L70.6386 32.645C70.6079 32.6261 70.5766 32.6073 70.5445 32.5888L32.297 10.5066Z" fill="#C0C0C0"/>
<path d="M26.7698 10.5066L27.1448 11.1561L26.7698 10.5066ZM32.297 10.5066L32.672 9.85708L32.672 9.85708L32.297 10.5066ZM16.695 16.3233L16.32 15.6738L16.32 15.6738L16.695 16.3233ZM16.695 19.5144L17.07 18.8649L17.07 18.8649L16.695 19.5144ZM33.2478 29.0712H33.9978V28.6382L33.6228 28.4217L33.2478 29.0712ZM37.1756 54.6816L36.8397 55.3521L36.8397 55.3521L37.1756 54.6816ZM64.3265 68.2848H65.0765V67.8217L64.6625 67.6143L64.3265 68.2848ZM66.9349 88.6264L67.2769 89.2939L67.2769 89.2939L66.9349 88.6264ZM81.7946 81.0122L82.1366 81.6797L82.1366 81.6797L81.7946 81.0122ZM84.6653 75.576L83.9272 75.7094L83.9272 75.7094L84.6653 75.576ZM79.6609 47.9026L78.9206 48.0233L78.9229 48.036L79.6609 47.9026ZM78.4616 40.5502L77.7214 40.6709L77.7214 40.6709L78.4616 40.5502ZM74.854 35.0788L75.229 34.4293L75.229 34.4293L74.854 35.0788ZM70.6386 32.645L70.2443 33.283L70.2539 33.2889L70.2636 33.2945L70.6386 32.645ZM70.5445 32.5888L70.1695 33.2384L70.1695 33.2384L70.5445 32.5888ZM27.1448 11.1561C27.7671 10.7968 28.63 10.5957 29.5334 10.5957C30.4369 10.5957 31.2997 10.7968 31.922 11.1561L32.672 9.85708C31.768 9.33517 30.6304 9.0957 29.5334 9.0957C28.4364 9.0957 27.2988 9.33517 26.3948 9.85708L27.1448 11.1561ZM17.07 16.9728L27.1448 11.1561L26.3948 9.85708L16.32 15.6738L17.07 16.9728ZM17.07 18.8649C16.4435 18.5032 16.3003 18.1339 16.3003 17.9189C16.3003 17.7038 16.4435 17.3345 17.07 16.9728L16.32 15.6738C15.4202 16.1933 14.8003 16.979 14.8003 17.9189C14.8003 18.8587 15.4202 19.6444 16.32 20.1639L17.07 18.8649ZM33.6228 28.4217L17.07 18.8649L16.32 20.1639L32.8728 29.7207L33.6228 28.4217ZM32.4978 29.0712V48.1683H33.9978V29.0712H32.4978ZM32.4978 48.1683C32.4978 49.5676 33.0045 51.0624 33.7722 52.3354C34.5389 53.6069 35.6155 54.7388 36.8397 55.3521L37.5116 54.011C36.6097 53.5592 35.7224 52.6646 35.0567 51.5608C34.3921 50.4587 33.9978 49.2294 33.9978 48.1683H32.4978ZM36.8397 55.3521L63.9906 68.9554L64.6625 67.6143L37.5116 54.011L36.8397 55.3521ZM63.5765 68.2848V86.9463H65.0765V68.2848H63.5765ZM63.5765 86.9463C63.5765 87.9444 63.9179 88.8448 64.6757 89.3329C65.4427 89.827 66.3958 89.7454 67.2769 89.2939L66.5929 87.9589C66.0103 88.2575 65.6592 88.1822 65.488 88.0719C65.3075 87.9556 65.0765 87.641 65.0765 86.9463H63.5765ZM67.2769 89.2939L82.1366 81.6797L81.4526 80.3448L66.5929 87.9589L67.2769 89.2939ZM82.1366 81.6797C83.2079 81.1308 84.1061 80.0985 84.6906 78.9916C85.2722 77.8901 85.6102 76.5866 85.4033 75.4425L83.9272 75.7094C84.0539 76.4101 83.853 77.3654 83.3641 78.2912C82.8781 79.2116 82.1742 79.975 81.4526 80.3448L82.1366 81.6797ZM85.4033 75.4425L80.3989 47.7691L78.9229 48.036L83.9272 75.7094L85.4033 75.4425ZM80.4011 47.7818L79.2018 40.4295L77.7214 40.6709L78.9207 48.0233L80.4011 47.7818ZM79.2018 40.4295C78.814 38.0524 77.1899 35.5614 75.229 34.4293L74.479 35.7283C76.0098 36.6121 77.3982 38.69 77.7214 40.6709L79.2018 40.4295ZM75.229 34.4293L71.0136 31.9955L70.2636 33.2945L74.479 35.7283L75.229 34.4293ZM70.1695 33.2384C70.1952 33.2532 70.2201 33.2681 70.2443 33.283L71.0329 32.0071C70.9957 31.9841 70.9579 31.9615 70.9195 31.9393L70.1695 33.2384ZM31.922 11.1561L70.1695 33.2384L70.9195 31.9393L32.672 9.85708L31.922 11.1561Z" fill="#060606"/>
</mask>
<g mask="url(#mask0_3786_37516)">
<path d="M61.7202 49.9059C61.7202 48.0713 63.0568 45.8428 64.643 45.0327L78.2315 38.0928C79.5338 37.4276 80.6063 37.935 80.8039 39.3099L87.6148 86.6824C87.8831 88.5488 86.4586 91.1583 84.6918 92.0369L64.2925 102.18C62.844 102.901 61.7202 102.159 61.7202 100.482L61.7202 49.9059Z" fill="#71A407"/>
</g>
<path d="M26.834 10.5437L26.459 9.89419L26.834 10.5437ZM32.3612 10.5437L31.9862 11.1932L31.9862 11.1932L32.3612 10.5437ZM17.2558 16.0737L16.8808 15.4242L16.8808 15.4242L17.2558 16.0737ZM17.2558 19.2648L16.8808 19.9143L16.8808 19.9143L17.2558 19.2648ZM33.2481 28.498H33.9981V28.065L33.6231 27.8485L33.2481 28.498ZM37.1759 54.6826L36.84 55.3531L36.84 55.3531L37.1759 54.6826ZM64.3266 68.2857H65.0766V67.8226L64.6625 67.6151L64.3266 68.2857ZM66.935 88.6274L67.277 89.2949L67.277 89.2949L66.935 88.6274ZM81.7947 81.0132L82.1367 81.6807L82.1367 81.6807L81.7947 81.0132ZM84.6653 75.5769L83.9273 75.7104L83.9273 75.7104L84.6653 75.5769ZM79.6633 47.9165L78.923 48.0373L78.9253 48.05L79.6633 47.9165ZM78.4618 40.5512L77.7216 40.6719L77.7216 40.6719L78.4618 40.5512ZM74.8543 35.0797L75.2293 34.4302L75.2293 34.4302L74.8543 35.0797ZM70.6562 32.656L70.2583 33.2917L70.2696 33.2988L70.2812 33.3055L70.6562 32.656ZM70.545 32.5891L70.92 31.9396L70.92 31.9396L70.545 32.5891ZM27.209 11.1932C27.8313 10.8339 28.6941 10.6328 29.5976 10.6328C30.5011 10.6328 31.3639 10.8339 31.9862 11.1932L32.7362 9.89419C31.8322 9.37228 30.6946 9.13281 29.5976 9.13281C28.5006 9.13281 27.363 9.37228 26.459 9.89419L27.209 11.1932ZM17.6308 16.7232L27.209 11.1932L26.459 9.89419L16.8808 15.4242L17.6308 16.7232ZM17.6308 18.6153C17.0043 18.2536 16.8611 17.8843 16.8611 17.6693C16.8611 17.4542 17.0043 17.0849 17.6308 16.7232L16.8808 15.4242C15.981 15.9437 15.3611 16.7294 15.3611 17.6693C15.3611 18.6091 15.981 19.3948 16.8808 19.9143L17.6308 18.6153ZM33.6231 27.8485L17.6308 18.6153L16.8808 19.9143L32.8731 29.1475L33.6231 27.8485ZM32.4981 28.498V48.1693H33.9981V28.498H32.4981ZM32.4981 48.1693C32.4981 49.5685 33.0048 51.0633 33.7725 52.3364C34.5392 53.6078 35.6158 54.7398 36.84 55.3531L37.5119 54.012C36.61 53.5602 35.7227 52.6656 35.057 51.5618C34.3923 50.4596 33.9981 49.2304 33.9981 48.1693H32.4981ZM36.84 55.3531L63.9906 68.9562L64.6625 67.6151L37.5119 54.012L36.84 55.3531ZM63.5766 68.2857V86.9473H65.0766V68.2857H63.5766ZM63.5766 86.9473C63.5766 87.9454 63.9179 88.8458 64.6758 89.3339C65.4428 89.8279 66.3959 89.7463 67.277 89.2949L66.5929 87.9599C66.0103 88.2584 65.6593 88.1832 65.488 88.0728C65.3076 87.9566 65.0766 87.642 65.0766 86.9473H63.5766ZM67.277 89.2949L82.1367 81.6807L81.4526 80.3457L66.5929 87.9599L67.277 89.2949ZM82.1367 81.6807C83.2079 81.1318 84.1061 80.0994 84.6906 78.9926C85.2723 77.8911 85.6102 76.5875 85.4033 75.4435L83.9273 75.7104C84.054 76.4111 83.8531 77.3664 83.3642 78.2921C82.8782 79.2126 82.1742 79.976 81.4526 80.3457L82.1367 81.6807ZM85.4033 75.4435L80.4013 47.783L78.9253 48.05L83.9273 75.7104L85.4033 75.4435ZM80.4035 47.7957L79.2021 40.4304L77.7216 40.6719L78.9231 48.0372L80.4035 47.7957ZM79.2021 40.4304C78.8143 38.0534 77.1902 35.5624 75.2293 34.4302L74.4793 35.7293C76.0101 36.6131 77.3985 38.691 77.7216 40.6719L79.2021 40.4304ZM75.2293 34.4302L71.0312 32.0065L70.2812 33.3055L74.4793 35.7293L75.2293 34.4302ZM70.1699 33.2386C70.2004 33.2562 70.2299 33.2739 70.2583 33.2917L71.0541 32.0203C71.0103 31.9928 70.9656 31.9659 70.92 31.9396L70.1699 33.2386ZM31.9862 11.1932L70.17 33.2386L70.92 31.9396L32.7362 9.89419L31.9862 11.1932Z" fill="#060606"/>
<rect width="59.1938" height="45.3451" rx="3.1911" transform="matrix(0.866025 0.5 -2.20305e-08 1 15.8765 15.0586)" fill="#060606" stroke="#060606" stroke-width="1.5"/>
<rect width="49.6098" height="35.6505" rx="3" transform="matrix(0.866025 0.5 -2.20305e-08 1 18.9907 21.7236)" fill="#B0F127"/>
</svg>
