<svg width="130" height="168" viewBox="0 0 130 168" fill="none" xmlns="http://www.w3.org/2000/svg">
<path d="M13.2681 99.9844L71.2174 126.052L76.5311 159.399L13.2681 99.9844Z" fill="#060606" stroke="#060606" stroke-width="2" stroke-linecap="round" stroke-linejoin="round"/>
<path d="M118.202 83.2641L71.219 126.053L76.5327 159.399L118.202 83.2641Z" fill="white" stroke="#060606" stroke-width="2" stroke-linecap="round" stroke-linejoin="round"/>
<path d="M118.202 83.2641L71.219 126.053L76.5327 159.399L118.202 83.2641Z" fill="#B0F127" stroke="#060606" stroke-width="2" stroke-linecap="round" stroke-linejoin="round"/>
<path d="M13.2681 99.9812L61.3124 63.89L118.2 83.2604L71.2174 126.049L13.2681 99.9812Z" fill="white" stroke="#060606" stroke-width="2" stroke-linecap="round" stroke-linejoin="round"/>
<path d="M13.2681 99.9812L61.3124 63.89L118.2 83.2604L71.2174 126.049L13.2681 99.9812Z" fill="#060606" stroke="#060606" stroke-width="2" stroke-linecap="round" stroke-linejoin="round"/>
<path d="M52.4644 8.36133L68.9891 112.063L115.916 68.9193L52.4644 8.36133Z" fill="white" stroke="#060606" stroke-width="2" stroke-linecap="round" stroke-linejoin="round"/>
<path d="M52.4644 8.36133L68.9891 112.063L115.916 68.9193L52.4644 8.36133Z" fill="#B0F127" stroke="#060606" stroke-width="2" stroke-linecap="round" stroke-linejoin="round"/>
<path d="M52.4638 8.36073L68.9885 112.062L10.9826 85.6396L52.4638 8.36073Z" fill="#547907" stroke="#060606" stroke-width="2" stroke-linecap="round" stroke-linejoin="round"/>
</svg>
