<svg width="100" height="101" viewBox="0 0 100 101" fill="none" xmlns="http://www.w3.org/2000/svg">
<circle cx="49.9998" cy="50.002" r="50" fill="#141414"/>
<mask id="path-2-inside-1_3786_37611" fill="white">
<path d="M87.7374 37.6237C86.6767 33.6652 84.6258 30.0135 81.7018 26.8773C78.7778 23.741 75.0379 21.1815 70.6957 19.3449C66.3535 17.5083 61.4941 16.4306 56.3948 16.1734C51.2955 15.9161 46.0562 16.4843 40.9761 17.8455C35.896 19.2067 31.0745 21.3343 26.7871 24.1067C22.4996 26.8792 18.83 30.2422 15.9878 34.0038C13.1457 37.7655 11.1866 41.852 10.2225 46.0301C9.25833 50.2082 9.30803 54.3961 10.3687 58.3546L49.053 47.9891L87.7374 37.6237Z"/>
</mask>
<path d="M87.7374 37.6237C86.6767 33.6652 84.6258 30.0135 81.7018 26.8773C78.7778 23.741 75.0379 21.1815 70.6957 19.3449C66.3535 17.5083 61.4941 16.4306 56.3948 16.1734C51.2955 15.9161 46.0562 16.4843 40.9761 17.8455C35.896 19.2067 31.0745 21.3343 26.7871 24.1067C22.4996 26.8792 18.83 30.2422 15.9878 34.0038C13.1457 37.7655 11.1866 41.852 10.2225 46.0301C9.25833 50.2082 9.30803 54.3961 10.3687 58.3546L49.053 47.9891L87.7374 37.6237Z" fill="white" stroke="#060606" stroke-width="3" mask="url(#path-2-inside-1_3786_37611)"/>
<mask id="mask0_3786_37611" style="mask-type:alpha" maskUnits="userSpaceOnUse" x="9" y="16" width="79" height="43">
<mask id="path-3-inside-2_3786_37611" fill="white">
<path d="M87.7379 37.6237C86.6772 33.6652 84.6263 30.0135 81.7023 26.8773C78.7783 23.741 75.0384 21.1815 70.6962 19.3449C66.354 17.5083 61.4946 16.4306 56.3952 16.1734C51.2959 15.9161 46.0567 16.4843 40.9766 17.8455C35.8965 19.2067 31.075 21.3343 26.7875 24.1067C22.5 26.8792 18.8305 30.2422 15.9883 34.0038C13.1461 37.7655 11.1871 41.852 10.2229 46.0301C9.25882 50.2082 9.30852 54.3961 10.3692 58.3546L49.0535 47.9891L87.7379 37.6237Z"/>
</mask>
<path d="M87.7379 37.6237C86.6772 33.6652 84.6263 30.0135 81.7023 26.8773C78.7783 23.741 75.0384 21.1815 70.6962 19.3449C66.354 17.5083 61.4946 16.4306 56.3952 16.1734C51.2959 15.9161 46.0567 16.4843 40.9766 17.8455C35.8965 19.2067 31.075 21.3343 26.7875 24.1067C22.5 26.8792 18.8305 30.2422 15.9883 34.0038C13.1461 37.7655 11.1871 41.852 10.2229 46.0301C9.25882 50.2082 9.30852 54.3961 10.3692 58.3546L49.0535 47.9891L87.7379 37.6237Z" fill="white" stroke="#060606" stroke-width="3" mask="url(#path-3-inside-2_3786_37611)"/>
</mask>
<g mask="url(#mask0_3786_37611)">
<rect x="6.20435" y="13.1816" width="41.5" height="54.875" fill="#E7E7E7"/>
</g>
<mask id="path-5-inside-3_3786_37611" fill="white">
<path d="M70.0448 42.3631C68.9841 38.4046 67.3909 34.6304 65.356 31.2558C63.3212 27.8813 60.8846 24.9726 58.1853 22.6958C55.4861 20.419 52.5771 18.8187 49.6244 17.9862C46.6717 17.1538 43.7331 17.1055 40.9765 17.8441C38.2199 18.5828 35.6991 20.0939 33.5583 22.2911C31.4174 24.4884 29.6982 27.3288 28.499 30.6502C27.2998 33.9716 26.644 37.7089 26.569 41.6488C26.4941 45.5886 27.0014 49.6539 28.0621 53.6124L49.0534 47.9878L70.0448 42.3631Z"/>
</mask>
<path d="M70.0448 42.3631C68.9841 38.4046 67.3909 34.6304 65.356 31.2558C63.3212 27.8813 60.8846 24.9726 58.1853 22.6958C55.4861 20.419 52.5771 18.8187 49.6244 17.9862C46.6717 17.1538 43.7331 17.1055 40.9765 17.8441C38.2199 18.5828 35.6991 20.0939 33.5583 22.2911C31.4174 24.4884 29.6982 27.3288 28.499 30.6502C27.2998 33.9716 26.644 37.7089 26.569 41.6488C26.4941 45.5886 27.0014 49.6539 28.0621 53.6124L49.0534 47.9878L70.0448 42.3631Z" fill="#B0F127" stroke="#060606" stroke-width="3" mask="url(#path-5-inside-3_3786_37611)"/>
<mask id="path-6-inside-4_3786_37611" fill="white">
<path d="M87.7379 37.6217C86.6772 33.6632 84.6263 30.0116 81.7023 26.8753C78.7783 23.739 75.0384 21.1795 70.6962 19.3429C66.354 17.5064 61.4946 16.4287 56.3952 16.1714C51.2959 15.9141 46.0567 16.4823 40.9766 17.8435C35.8965 19.2048 31.075 21.3323 26.7875 24.1048C22.5 26.8772 18.8305 30.2403 15.9883 34.0019C13.1461 37.7635 11.1871 41.85 10.2229 46.0281C9.25882 50.2062 9.30852 54.3941 10.3692 58.3526L49.0535 47.9872L87.7379 37.6217Z"/>
</mask>
<path d="M87.7379 37.6217C86.6772 33.6632 84.6263 30.0116 81.7023 26.8753C78.7783 23.739 75.0384 21.1795 70.6962 19.3429C66.354 17.5064 61.4946 16.4287 56.3952 16.1714C51.2959 15.9141 46.0567 16.4823 40.9766 17.8435C35.8965 19.2048 31.075 21.3323 26.7875 24.1048C22.5 26.8772 18.8305 30.2403 15.9883 34.0019C13.1461 37.7635 11.1871 41.85 10.2229 46.0281C9.25882 50.2062 9.30852 54.3941 10.3692 58.3526L49.0535 47.9872L87.7379 37.6217Z" stroke="#060606" stroke-width="3" mask="url(#path-6-inside-4_3786_37611)"/>
<path d="M86.466 37.5557C86.851 37.6732 86.9733 37.7827 87.0066 37.8193C86.996 37.8676 86.9449 38.0236 86.6702 38.3178C86.3077 38.7061 85.6959 39.1789 84.8176 39.7235C83.0708 40.8066 80.4255 42.0794 77.0589 43.4586C70.3355 46.213 60.8445 49.3478 50.1828 52.2046C39.5212 55.0614 29.7343 57.092 22.5345 58.0684C18.9293 58.5572 16.002 58.7776 13.9477 58.713C12.9148 58.6806 12.1485 58.577 11.6405 58.422C11.2554 58.3045 11.1332 58.195 11.0999 58.1584C11.1104 58.1101 11.1616 57.9541 11.4363 57.6599C11.7988 57.2716 12.4106 56.7987 13.2889 56.2542C15.0356 55.1711 17.6809 53.8983 21.0476 52.5191C27.7709 49.7647 37.262 46.6298 47.9236 43.7731C58.5853 40.9163 68.3722 38.8856 75.5719 37.9093C79.1772 37.4204 82.1045 37.2001 84.1587 37.2646C85.1916 37.2971 85.9579 37.4007 86.466 37.5557Z" fill="#71A407" stroke="#060606" stroke-width="1.5"/>
<mask id="mask1_3786_37611" style="mask-type:alpha" maskUnits="userSpaceOnUse" x="10" y="36" width="78" height="24">
<path d="M86.466 37.5557C86.851 37.6732 86.9733 37.7827 87.0066 37.8193C86.996 37.8676 86.9449 38.0236 86.6702 38.3178C86.3077 38.7061 85.6959 39.1789 84.8176 39.7235C83.0708 40.8066 80.4255 42.0794 77.0589 43.4586C70.3355 46.213 60.8445 49.3478 50.1828 52.2046C39.5212 55.0614 29.7343 57.092 22.5345 58.0684C18.9293 58.5572 16.002 58.7776 13.9477 58.713C12.9148 58.6806 12.1485 58.577 11.6405 58.422C11.2554 58.3045 11.1332 58.195 11.0999 58.1584C11.1104 58.1101 11.1616 57.9541 11.4363 57.6599C11.7988 57.2716 12.4106 56.7987 13.2889 56.2542C15.0356 55.1711 17.6809 53.8983 21.0476 52.5191C27.7709 49.7647 37.262 46.6298 47.9236 43.7731C58.5853 40.9163 68.3722 38.8856 75.5719 37.9093C79.1772 37.4204 82.1045 37.2001 84.1587 37.2646C85.1916 37.2971 85.9579 37.4007 86.466 37.5557Z" fill="#71A407" stroke="#060606" stroke-width="1.5"/>
</mask>
<g mask="url(#mask1_3786_37611)">
<rect x="2.95581" y="31.7207" width="88.6987" height="27.75" transform="rotate(-15 2.95581 31.7207)" fill="#141414"/>
</g>
<path d="M86.4662 37.5557C86.8513 37.6732 86.9735 37.7827 87.0068 37.8193C86.9963 37.8676 86.9451 38.0236 86.6704 38.3178C86.3079 38.7061 85.6961 39.1789 84.8178 39.7235C83.0711 40.8066 80.4258 42.0794 77.0591 43.4586C70.3358 46.213 60.8447 49.3478 50.1831 52.2046C39.5214 55.0614 29.7345 57.092 22.5347 58.0684C18.9295 58.5572 16.0022 58.7776 13.948 58.713C12.9151 58.6806 12.1488 58.577 11.6407 58.422C11.2557 58.3045 11.1334 58.195 11.1001 58.1584C11.1107 58.1101 11.1618 57.9541 11.4365 57.6599C11.799 57.2716 12.4108 56.7987 13.2891 56.2542C15.0359 55.1711 17.6812 53.8983 21.0478 52.5191C27.7712 49.7647 37.2622 46.6298 47.9239 43.7731C58.5855 40.9163 68.3724 38.8856 75.5722 37.9093C79.1774 37.4204 82.1047 37.2001 84.159 37.2646C85.1919 37.2971 85.9582 37.4007 86.4662 37.5557Z" stroke="#060606" stroke-width="1.5"/>
<path d="M46.5289 45.1297C46.286 44.2232 46.824 43.2914 47.7306 43.0485V43.0485C48.6371 42.8055 49.569 43.3435 49.8119 44.2501L59.4141 80.0859C59.657 80.9925 59.119 81.9243 58.2124 82.1672V82.1672C57.3059 82.4101 56.374 81.8722 56.1311 80.9656L46.5289 45.1297Z" fill="#060606"/>
</svg>
