<svg width="107" height="151" viewBox="0 0 107 151" fill="none" xmlns="http://www.w3.org/2000/svg">
<path d="M3.33472 90.7871L59.7896 116.183L64.9663 148.669L3.33472 90.7871Z" fill="#141414" stroke="#939393" stroke-width="1.5" stroke-linecap="round" stroke-linejoin="round"/>
<path d="M105.563 74.4973L59.7916 116.183L64.9683 148.669L105.563 74.4973Z" fill="white" stroke="#939393" stroke-width="1.5" stroke-linecap="round" stroke-linejoin="round"/>
<path d="M105.563 74.4973L59.7916 116.183L64.9683 148.669L105.563 74.4973Z" fill="#141414" stroke="#939393" stroke-width="1.5" stroke-linecap="round" stroke-linejoin="round"/>
<path d="M3.33526 90.7837L50.1406 55.6232L105.561 74.494L59.7902 116.179L3.33526 90.7837Z" fill="white" stroke="#939393" stroke-width="1.5" stroke-linecap="round" stroke-linejoin="round"/>
<path d="M3.33526 90.7837L50.1406 55.6232L105.561 74.494L59.7902 116.179L3.33526 90.7837Z" fill="#141414" stroke="#939393" stroke-width="1.5" stroke-linecap="round" stroke-linejoin="round"/>
<path d="M41.522 1.52734L57.6206 102.555L103.337 60.5236L41.522 1.52734Z" fill="white" stroke="#939393" stroke-width="1.5" stroke-linecap="round" stroke-linejoin="round"/>
<path d="M41.5183 1.52539L57.6169 102.553L103.333 60.5217L41.5183 1.52539Z" fill="#141414" stroke="#939393" stroke-width="1.5" stroke-linecap="round" stroke-linejoin="round"/>
<path d="M41.519 1.52554L57.6176 102.553L1.10763 76.8115L41.519 1.52554Z" fill="#141414" stroke="#939393" stroke-width="1.5" stroke-linecap="round" stroke-linejoin="round"/>
</svg>
