<svg width="100" height="101" viewBox="0 0 100 101" fill="none" xmlns="http://www.w3.org/2000/svg">
<circle cx="50" cy="50.666" r="50" fill="#141414"/>
<path d="M23.4651 29.7969H76.5349C79.3577 29.7969 81.646 32.0852 81.646 34.908V44.1354C81.646 64.3136 69.927 82.6547 51.6167 91.1336C50.5912 91.6085 49.4088 91.6085 48.3833 91.1336C30.073 82.6547 18.354 64.3136 18.354 44.1354V34.908C18.354 32.0852 20.6423 29.7969 23.4651 29.7969Z" fill="#060606" stroke="#060606" stroke-width="1.5"/>
<path d="M23.4651 22.707H76.5349C79.3577 22.707 81.646 24.9954 81.646 27.8182V37.0456C81.646 57.2237 69.927 75.5649 51.6167 84.0438C50.5912 84.5187 49.4088 84.5187 48.3833 84.0438C30.073 75.5649 18.354 57.2237 18.354 37.0456V27.8182C18.354 24.9954 20.6423 22.707 23.4651 22.707Z" fill="white" stroke="#060606" stroke-width="1.5"/>
<mask id="mask0_3786_37506" style="mask-type:alpha" maskUnits="userSpaceOnUse" x="17" y="21" width="66" height="65">
<path d="M23.4651 22.707H76.5349C79.3577 22.707 81.646 24.9954 81.646 27.8182V37.0456C81.646 57.2237 69.927 75.5649 51.6167 84.0438C50.5912 84.5187 49.4088 84.5187 48.3833 84.0438C30.073 75.5649 18.354 57.2237 18.354 37.0456V27.8182C18.354 24.9954 20.6423 22.707 23.4651 22.707Z" fill="white" stroke="#060606" stroke-width="1.5"/>
</mask>
<g mask="url(#mask0_3786_37506)">
<rect x="11.0239" y="76.6738" width="101.5" height="73" transform="rotate(-37.0001 11.0239 76.6738)" fill="#71A407"/>
</g>
<path d="M23.4651 22.707H76.5349C79.3577 22.707 81.646 24.9954 81.646 27.8182V37.0456C81.646 57.2237 69.927 75.5649 51.6167 84.0438C50.5912 84.5187 49.4088 84.5187 48.3833 84.0438C30.073 75.5649 18.354 57.2237 18.354 37.0456V27.8182C18.354 24.9954 20.6423 22.707 23.4651 22.707Z" stroke="#060606" stroke-width="1.5"/>
<path d="M31.5179 30.957H68.4819C70.3223 30.957 71.8143 32.449 71.8143 34.2894V40.7164C71.8143 54.6822 63.7033 67.3765 51.0303 73.245C50.3767 73.5476 49.6231 73.5476 48.9695 73.245C36.2965 67.3765 28.1855 54.6822 28.1855 40.7164V34.2894C28.1855 32.449 29.6775 30.957 31.5179 30.957Z" fill="#B0F127" stroke="#141414" stroke-width="1.5"/>
</svg>
