<svg width="85" height="85" viewBox="0 0 85 85" fill="none" xmlns="http://www.w3.org/2000/svg">
<path d="M47.3779 8.85168L40.3537 76.2929L76.8324 57.2263L47.3779 8.85168Z" fill="#B0F127"/>
<path d="M47.3777 8.85059L40.3535 76.2919L8.59058 50.1176L47.3777 8.85059Z" fill="#547907"/>
<path fill-rule="evenodd" clip-rule="evenodd" d="M48.2459 8.35444C48.1445 8.17697 47.9888 8.03052 47.7938 7.94128C47.4035 7.76275 46.9429 7.85307 46.649 8.16575L7.86192 49.4328C7.67253 49.6343 7.57503 49.9052 7.5926 50.1812C7.61016 50.4572 7.74122 50.7136 7.95463 50.8894L39.6889 77.0401C39.7212 77.0688 39.7556 77.0956 39.792 77.1203C40.0967 77.3272 40.4905 77.3498 40.8169 77.1792L77.2956 58.1126C77.5407 57.9845 77.7218 57.7606 77.7958 57.4942C77.8699 57.2277 77.8303 56.9425 77.6865 56.7063L48.2459 8.35444ZM41.5413 74.5439L75.423 56.8346L48.0655 11.9037L41.5413 74.5439ZM46.076 11.6957L10.0503 50.0248L39.5518 74.3355L46.076 11.6957Z" fill="#060606"/>
</svg>
