<svg width="101" height="100" viewBox="0 0 101 100" fill="none" xmlns="http://www.w3.org/2000/svg">
<circle cx="50.3357" cy="50" r="50" fill="#141414"/>
<path d="M15.1318 50.3405C15.1318 57.3231 17.1965 64.1488 21.0647 69.9546C24.933 75.7604 30.4311 80.2854 36.8637 82.9576C43.2964 85.6297 50.3747 86.3288 57.2036 84.9666C64.0325 83.6044 70.3052 80.2419 75.2285 75.3045C80.1519 70.3671 83.5047 64.0765 84.863 57.2281C86.2214 50.3797 85.5242 43.2812 82.8598 36.8301C80.1953 30.3791 75.6831 24.8653 69.8939 20.986C64.1046 17.1067 57.2983 15.0361 50.3357 15.0361V15.0361C30.877 15.0917 15.1318 30.8818 15.1318 50.3405V50.3405Z" fill="#060606"/>
<path d="M14.3818 50.3405C14.3818 57.4709 16.4902 64.4414 20.4406 70.3705L21.6889 69.5388C17.9028 63.8563 15.8818 57.1752 15.8818 50.3405L14.3818 50.3405ZM20.4406 70.3705C24.391 76.2996 30.0061 80.921 36.576 83.6502L37.1514 82.2649C30.8561 79.6499 25.475 75.2212 21.6889 69.5388L20.4406 70.3705ZM36.576 83.6502C43.146 86.3793 50.3755 87.0934 57.3503 85.7021L57.0569 84.2311C50.3739 85.5642 43.4468 84.88 37.1514 82.2649L36.576 83.6502ZM57.3503 85.7021C64.3251 84.3108 70.7315 80.8766 75.7596 75.8341L74.6974 74.775C69.8788 79.6073 63.7398 82.8979 57.0569 84.2311L57.3503 85.7021ZM75.7596 75.8341C80.7877 70.7917 84.2116 64.3675 85.5987 57.374L84.1274 57.0822C82.7978 63.7855 79.516 69.9426 74.6974 74.775L75.7596 75.8341ZM85.5987 57.374C86.9858 50.3806 86.2739 43.1316 83.5529 36.5438L82.1666 37.1164C84.7746 43.4307 85.457 50.3789 84.1274 57.0822L85.5987 57.374ZM83.5529 36.5438C80.832 29.956 76.224 24.3249 70.3114 20.3629L69.4764 21.6091C75.1422 25.4057 79.5586 30.8022 82.1666 37.1164L83.5529 36.5438ZM70.3114 20.3629C64.3987 16.401 57.4471 14.2861 50.3357 14.2861L50.3357 15.7861C57.1495 15.7861 63.8105 17.8124 69.4764 21.6091L70.3114 20.3629ZM50.3335 14.2861C30.4614 14.3429 14.3818 30.4684 14.3818 50.3405L15.8818 50.3405C15.8818 31.2951 31.2925 15.8405 50.3378 15.7861L50.3335 14.2861Z" fill="#060606"/>
<circle cx="50.3353" cy="48.0809" r="32.9757" transform="rotate(-180 50.3353 48.0809)" fill="#2F2F2F" stroke="#060606" stroke-width="1.5"/>
<path d="M23.6164 48.0838C23.6164 53.3683 25.1834 58.5341 28.1193 62.928C31.0552 67.3219 35.2281 70.7466 40.1104 72.7689C44.9926 74.7912 50.3649 75.3203 55.5479 74.2893C60.7308 73.2584 65.4917 70.7136 69.2284 66.9769C72.9651 63.2402 75.5098 58.4794 76.5408 53.2964C77.5717 48.1134 77.0426 42.7412 75.0203 37.8589C72.998 32.9767 69.5734 28.8037 65.1795 25.8678C60.7856 22.9319 55.6198 21.3649 50.3353 21.3649V21.3649C35.5788 21.3649 23.6164 33.3274 23.6164 48.0838V48.0838Z" fill="white" stroke="#060606" stroke-width="1.5"/>
<mask id="mask0_3786_37580" style="mask-type:alpha" maskUnits="userSpaceOnUse" x="22" y="20" width="56" height="56">
<path d="M23.6161 48.0818C23.6161 53.3664 25.1832 58.5322 28.1191 62.9261C31.055 67.32 35.2279 70.7446 40.1101 72.7669C44.9924 74.7892 50.3647 75.3183 55.5476 74.2874C60.7306 73.2564 65.4914 70.7117 69.2282 66.975C72.9649 63.2383 75.5096 58.4774 76.5405 53.2945C77.5715 48.1115 77.0424 42.7392 75.0201 37.857C72.9978 32.9747 69.5732 28.8018 65.1793 25.8659C60.7854 22.93 55.6195 21.3629 50.335 21.3629V21.3629C35.5786 21.3629 23.6161 33.3254 23.6161 48.0818V48.0818Z" fill="white" stroke="#060606" stroke-width="1.5"/>
</mask>
<g mask="url(#mask0_3786_37580)">
<rect x="18.6023" y="49.1465" width="64.2796" height="37.1574" fill="#B0F127"/>
</g>
<path d="M23.6164 48.0838C23.6164 53.3683 25.1834 58.5341 28.1193 62.928C31.0552 67.3219 35.2281 70.7466 40.1104 72.7689C44.9926 74.7912 50.3649 75.3203 55.5479 74.2893C60.7308 73.2584 65.4917 70.7136 69.2284 66.9769C72.9651 63.2402 75.5098 58.4794 76.5408 53.2964C77.5717 48.1134 77.0426 42.7412 75.0203 37.8589C72.998 32.9767 69.5734 28.8037 65.1795 25.8678C60.7856 22.9319 55.6198 21.3649 50.3353 21.3649V21.3649C35.5788 21.3649 23.6164 33.3274 23.6164 48.0838V48.0838Z" stroke="#060606" stroke-width="1.5"/>
<path d="M51.5537 48.7727C51.5537 49.691 50.8092 50.4355 49.8908 50.4355V50.4355C48.9724 50.4355 48.2279 49.691 48.2279 48.7727L48.2279 33.2156C48.2279 32.2972 48.9724 31.5527 49.8908 31.5527V31.5527C50.8092 31.5527 51.5537 32.2972 51.5537 33.2156L51.5537 48.7727Z" fill="#060606"/>
<rect x="48.2283" y="50.8105" width="3.32579" height="22.5513" rx="1.66289" transform="rotate(-90 48.2283 50.8105)" fill="#71A407"/>
</svg>
