<svg width="101" height="101" viewBox="0 0 101 101" fill="none" xmlns="http://www.w3.org/2000/svg">
<circle cx="50.0022" cy="50.666" r="50" fill="#141414"/>
<path fill-rule="evenodd" clip-rule="evenodd" d="M56.2215 53.1567C54.1067 51.9269 50.6779 51.9269 48.5631 53.1567L31.188 63.2608C30.9795 63.0239 30.7459 62.8233 30.4992 62.6799L17.1152 54.8968C16.2341 54.3844 15.5198 54.7953 15.5198 55.8146V69.1989C15.5198 70.2183 16.2341 71.46 17.1152 71.9724L20.1064 73.7119C20.2202 73.7926 20.3419 73.8709 20.4715 73.9463L46.6868 89.1911C48.8016 90.4209 52.2303 90.4209 54.3451 89.1911L82.4368 72.8551C82.9123 72.5786 83.2809 72.2635 83.5425 71.9271C84.0791 71.3196 84.4495 70.4723 84.4495 69.739V55.3245C84.4495 54.3051 83.7338 53.892 82.8511 54.4016L70.5626 61.4964L56.2215 53.1567Z" fill="#E7E7E7"/>
<path d="M48.5631 53.1567L48.1861 52.5084L48.1861 52.5084L48.5631 53.1567ZM56.2215 53.1567L55.8445 53.8051L55.8445 53.8051L56.2215 53.1567ZM31.188 63.2608L31.565 63.9092L31.0322 64.219L30.625 63.7564L31.188 63.2608ZM30.4992 62.6799L30.8762 62.0316L30.8762 62.0316L30.4992 62.6799ZM17.1152 54.8968L17.4923 54.2485L17.4923 54.2485L17.1152 54.8968ZM17.1152 71.9724L17.4923 71.3241L17.4923 71.3241L17.1152 71.9724ZM20.1064 73.7119L20.4835 73.0635L20.5129 73.0806L20.5407 73.1004L20.1064 73.7119ZM20.4715 73.9463L20.0945 74.5946L20.0944 74.5946L20.4715 73.9463ZM46.6868 89.1911L47.0638 88.5428L47.0638 88.5428L46.6868 89.1911ZM54.3451 89.1911L53.9681 88.5428L53.9681 88.5428L54.3451 89.1911ZM82.4368 72.8551L82.8138 73.5034L82.8138 73.5035L82.4368 72.8551ZM83.5425 71.9271L82.9505 71.4666L82.9649 71.4481L82.9804 71.4306L83.5425 71.9271ZM82.8511 54.4016L82.4761 53.7521L82.8511 54.4016ZM70.5626 61.4964L70.9376 62.1459L70.5612 62.3632L70.1855 62.1447L70.5626 61.4964ZM48.1861 52.5084C49.3848 51.8113 50.9088 51.4844 52.3923 51.4844C53.8758 51.4844 55.3999 51.8113 56.5986 52.5084L55.8445 53.8051C54.9284 53.2723 53.6806 52.9844 52.3923 52.9844C51.104 52.9844 49.8563 53.2723 48.9402 53.8051L48.1861 52.5084ZM30.811 62.6125L48.1861 52.5084L48.9402 53.8051L31.565 63.9092L30.811 62.6125ZM30.625 63.7564C30.4593 63.5681 30.2865 63.4238 30.1222 63.3282L30.8762 62.0316C31.2053 62.2229 31.4996 62.4798 31.7509 62.7653L30.625 63.7564ZM30.1222 63.3282L16.7382 55.5451L17.4923 54.2485L30.8762 62.0316L30.1222 63.3282ZM16.7382 55.5451C16.5911 55.4596 16.4856 55.4331 16.4253 55.4275C16.396 55.4248 16.3784 55.4271 16.3703 55.4287C16.3661 55.4295 16.3637 55.4303 16.3626 55.4307C16.3615 55.4311 16.3611 55.4314 16.361 55.4314C16.361 55.4314 16.3606 55.4317 16.3597 55.4324C16.3588 55.4331 16.3569 55.4348 16.3541 55.438C16.3486 55.4442 16.3378 55.4583 16.3254 55.485C16.2999 55.5399 16.2698 55.6445 16.2698 55.8146H14.7698C14.7698 55.148 15.009 54.4787 15.6131 54.1312C16.2171 53.7837 16.916 53.9134 17.4923 54.2485L16.7382 55.5451ZM16.2698 55.8146V69.1989H14.7698V55.8146H16.2698ZM16.2698 69.1989C16.2698 69.5464 16.3965 69.9834 16.6372 70.4018C16.8779 70.8202 17.1919 71.1494 17.4923 71.3241L16.7382 72.6208C16.1574 72.283 15.6737 71.7352 15.337 71.1497C15.0002 70.5643 14.7698 69.8708 14.7698 69.1989H16.2698ZM17.4923 71.3241L20.4835 73.0635L19.7294 74.3602L16.7382 72.6208L17.4923 71.3241ZM20.0944 74.5946C19.9462 74.5084 19.8053 74.4179 19.6722 74.3233L20.5407 73.1004C20.635 73.1673 20.7375 73.2334 20.8485 73.2979L20.0944 74.5946ZM46.3097 89.8394L20.0945 74.5946L20.8485 73.2979L47.0638 88.5428L46.3097 89.8394ZM54.7222 89.8394C53.5235 90.5365 51.9994 90.8635 50.5159 90.8635C49.0324 90.8635 47.5084 90.5365 46.3097 89.8394L47.0638 88.5428C47.9799 89.0755 49.2277 89.3635 50.5159 89.3635C51.8042 89.3635 53.052 89.0755 53.9681 88.5428L54.7222 89.8394ZM82.8138 73.5035L54.7222 89.8394L53.9681 88.5428L82.0598 72.2068L82.8138 73.5035ZM84.1345 72.3876C83.8033 72.8133 83.3561 73.1881 82.8138 73.5034L82.0598 72.2068C82.4685 71.9691 82.7584 71.7136 82.9505 71.4666L84.1345 72.3876ZM85.1995 69.739C85.1995 70.6924 84.7351 71.7097 84.1047 72.4236L82.9804 71.4306C83.423 70.9294 83.6995 70.2522 83.6995 69.739H85.1995ZM85.1995 55.3245V69.739H83.6995V55.3245H85.1995ZM82.4761 53.7521C83.0541 53.4184 83.7532 53.2919 84.3563 53.6401C84.9594 53.9883 85.1995 54.657 85.1995 55.3245H83.6995C83.6995 55.1545 83.6693 55.0498 83.6437 54.9945C83.6312 54.9677 83.6202 54.9533 83.6144 54.9467C83.6115 54.9434 83.6094 54.9415 83.6083 54.9406C83.6072 54.9397 83.6066 54.9393 83.6063 54.9392C83.606 54.939 83.6054 54.9387 83.6041 54.9382C83.6028 54.9377 83.6001 54.9368 83.5957 54.9359C83.5872 54.9342 83.5692 54.9319 83.5397 54.9345C83.479 54.9399 83.3732 54.9662 83.2261 55.0511L82.4761 53.7521ZM70.1876 60.8469L82.4761 53.7521L83.2261 55.0511L70.9376 62.1459L70.1876 60.8469ZM56.5986 52.5084L70.9396 60.8481L70.1855 62.1447L55.8445 53.8051L56.5986 52.5084Z" fill="#060606"/>
<mask id="mask0_3786_37541" style="mask-type:alpha" maskUnits="userSpaceOnUse" x="14" y="51" width="72" height="40">
<path fill-rule="evenodd" clip-rule="evenodd" d="M56.2215 53.1567C54.1067 51.9269 50.6779 51.9269 48.5631 53.1567L31.188 63.2608C30.9795 63.0239 30.7459 62.8233 30.4992 62.6799L17.1152 54.8968C16.2341 54.3844 15.5198 54.7953 15.5198 55.8146V69.1989C15.5198 70.2183 16.2341 71.46 17.1152 71.9724L20.1064 73.7119C20.2202 73.7926 20.3419 73.8709 20.4715 73.9463L46.6868 89.1911C48.8016 90.4209 52.2303 90.4209 54.3451 89.1911L82.4368 72.8551C82.9123 72.5786 83.2809 72.2635 83.5425 71.9271C84.0791 71.3196 84.4495 70.4723 84.4495 69.739V55.3245C84.4495 54.3051 83.7338 53.892 82.8511 54.4016L70.5626 61.4964L56.2215 53.1567Z" fill="#E7E7E7"/>
<path d="M48.5631 53.1567L48.1861 52.5084L48.1861 52.5084L48.5631 53.1567ZM56.2215 53.1567L55.8445 53.8051L55.8445 53.8051L56.2215 53.1567ZM31.188 63.2608L31.565 63.9092L31.0322 64.219L30.625 63.7564L31.188 63.2608ZM30.4992 62.6799L30.8762 62.0316L30.8762 62.0316L30.4992 62.6799ZM17.1152 54.8968L17.4923 54.2485L17.4923 54.2485L17.1152 54.8968ZM17.1152 71.9724L17.4923 71.3241L17.4923 71.3241L17.1152 71.9724ZM20.1064 73.7119L20.4835 73.0635L20.5129 73.0806L20.5407 73.1004L20.1064 73.7119ZM20.4715 73.9463L20.0945 74.5946L20.0944 74.5946L20.4715 73.9463ZM46.6868 89.1911L47.0638 88.5428L47.0638 88.5428L46.6868 89.1911ZM54.3451 89.1911L53.9681 88.5428L53.9681 88.5428L54.3451 89.1911ZM82.4368 72.8551L82.8138 73.5034L82.8138 73.5035L82.4368 72.8551ZM83.5425 71.9271L82.9505 71.4666L82.9649 71.4481L82.9804 71.4306L83.5425 71.9271ZM82.8511 54.4016L82.4761 53.7521L82.8511 54.4016ZM70.5626 61.4964L70.9376 62.1459L70.5612 62.3632L70.1855 62.1447L70.5626 61.4964ZM48.1861 52.5084C49.3848 51.8113 50.9088 51.4844 52.3923 51.4844C53.8758 51.4844 55.3999 51.8113 56.5986 52.5084L55.8445 53.8051C54.9284 53.2723 53.6806 52.9844 52.3923 52.9844C51.104 52.9844 49.8563 53.2723 48.9402 53.8051L48.1861 52.5084ZM30.811 62.6125L48.1861 52.5084L48.9402 53.8051L31.565 63.9092L30.811 62.6125ZM30.625 63.7564C30.4593 63.5681 30.2865 63.4238 30.1222 63.3282L30.8762 62.0316C31.2053 62.2229 31.4996 62.4798 31.7509 62.7653L30.625 63.7564ZM30.1222 63.3282L16.7382 55.5451L17.4923 54.2485L30.8762 62.0316L30.1222 63.3282ZM16.7382 55.5451C16.5911 55.4596 16.4856 55.4331 16.4253 55.4275C16.396 55.4248 16.3784 55.4271 16.3703 55.4287C16.3661 55.4295 16.3637 55.4303 16.3626 55.4307C16.3615 55.4311 16.3611 55.4314 16.361 55.4314C16.361 55.4314 16.3606 55.4317 16.3597 55.4324C16.3588 55.4331 16.3569 55.4348 16.3541 55.438C16.3486 55.4442 16.3378 55.4583 16.3254 55.485C16.2999 55.5399 16.2698 55.6445 16.2698 55.8146H14.7698C14.7698 55.148 15.009 54.4787 15.6131 54.1312C16.2171 53.7837 16.916 53.9134 17.4923 54.2485L16.7382 55.5451ZM16.2698 55.8146V69.1989H14.7698V55.8146H16.2698ZM16.2698 69.1989C16.2698 69.5464 16.3965 69.9834 16.6372 70.4018C16.8779 70.8202 17.1919 71.1494 17.4923 71.3241L16.7382 72.6208C16.1574 72.283 15.6737 71.7352 15.337 71.1497C15.0002 70.5643 14.7698 69.8708 14.7698 69.1989H16.2698ZM17.4923 71.3241L20.4835 73.0635L19.7294 74.3602L16.7382 72.6208L17.4923 71.3241ZM20.0944 74.5946C19.9462 74.5084 19.8053 74.4179 19.6722 74.3233L20.5407 73.1004C20.635 73.1673 20.7375 73.2334 20.8485 73.2979L20.0944 74.5946ZM46.3097 89.8394L20.0945 74.5946L20.8485 73.2979L47.0638 88.5428L46.3097 89.8394ZM54.7222 89.8394C53.5235 90.5365 51.9994 90.8635 50.5159 90.8635C49.0324 90.8635 47.5084 90.5365 46.3097 89.8394L47.0638 88.5428C47.9799 89.0755 49.2277 89.3635 50.5159 89.3635C51.8042 89.3635 53.052 89.0755 53.9681 88.5428L54.7222 89.8394ZM82.8138 73.5035L54.7222 89.8394L53.9681 88.5428L82.0598 72.2068L82.8138 73.5035ZM84.1345 72.3876C83.8033 72.8133 83.3561 73.1881 82.8138 73.5034L82.0598 72.2068C82.4685 71.9691 82.7584 71.7136 82.9505 71.4666L84.1345 72.3876ZM85.1995 69.739C85.1995 70.6924 84.7351 71.7097 84.1047 72.4236L82.9804 71.4306C83.423 70.9294 83.6995 70.2522 83.6995 69.739H85.1995ZM85.1995 55.3245V69.739H83.6995V55.3245H85.1995ZM82.4761 53.7521C83.0541 53.4184 83.7532 53.2919 84.3563 53.6401C84.9594 53.9883 85.1995 54.657 85.1995 55.3245H83.6995C83.6995 55.1545 83.6693 55.0498 83.6437 54.9945C83.6312 54.9677 83.6202 54.9533 83.6144 54.9467C83.6115 54.9434 83.6094 54.9415 83.6083 54.9406C83.6072 54.9397 83.6066 54.9393 83.6063 54.9392C83.606 54.939 83.6054 54.9387 83.6041 54.9382C83.6028 54.9377 83.6001 54.9368 83.5957 54.9359C83.5872 54.9342 83.5692 54.9319 83.5397 54.9345C83.479 54.9399 83.3732 54.9662 83.2261 55.0511L82.4761 53.7521ZM70.1876 60.8469L82.4761 53.7521L83.2261 55.0511L70.9376 62.1459L70.1876 60.8469ZM56.5986 52.5084L70.9396 60.8481L70.1855 62.1447L55.8445 53.8051L56.5986 52.5084Z" fill="#060606"/>
</mask>
<g mask="url(#mask0_3786_37541)">
<path d="M49.9783 73.2109C49.9783 72.1916 50.6926 70.9498 51.5738 70.4374L85.7661 50.5537C86.6473 50.0413 87.3616 50.4522 87.3616 51.4716L87.3616 75.6775C87.3616 76.6968 86.6473 77.9385 85.7661 78.451L51.5738 98.3346C50.6926 98.8471 49.9783 98.4361 49.9783 97.4168L49.9783 73.2109Z" fill="#71A407"/>
</g>
<path d="M48.5631 53.1567L48.1861 52.5084L48.1861 52.5084L48.5631 53.1567ZM56.2215 53.1567L55.8445 53.8051L55.8445 53.8051L56.2215 53.1567ZM31.188 63.2608L31.565 63.9092L31.0322 64.219L30.625 63.7564L31.188 63.2608ZM30.4992 62.6799L30.8762 62.0316L30.8762 62.0316L30.4992 62.6799ZM17.1152 54.8968L17.4923 54.2485L17.4923 54.2485L17.1152 54.8968ZM17.1152 71.9724L17.4923 71.3241L17.4923 71.3241L17.1152 71.9724ZM20.1064 73.7119L20.4835 73.0635L20.5129 73.0806L20.5407 73.1004L20.1064 73.7119ZM20.4715 73.9463L20.0945 74.5946L20.0944 74.5946L20.4715 73.9463ZM46.6868 89.1911L47.0638 88.5428L47.0638 88.5428L46.6868 89.1911ZM54.3451 89.1911L53.9681 88.5428L53.9681 88.5428L54.3451 89.1911ZM82.4368 72.8551L82.8138 73.5034L82.8138 73.5035L82.4368 72.8551ZM83.5425 71.9271L82.9505 71.4666L82.9649 71.4481L82.9804 71.4306L83.5425 71.9271ZM82.8511 54.4016L82.4761 53.7521L82.8511 54.4016ZM70.5626 61.4964L70.9376 62.1459L70.5612 62.3632L70.1855 62.1447L70.5626 61.4964ZM48.1861 52.5084C49.3848 51.8113 50.9088 51.4844 52.3923 51.4844C53.8758 51.4844 55.3999 51.8113 56.5986 52.5084L55.8445 53.8051C54.9284 53.2723 53.6806 52.9844 52.3923 52.9844C51.104 52.9844 49.8563 53.2723 48.9402 53.8051L48.1861 52.5084ZM30.811 62.6125L48.1861 52.5084L48.9402 53.8051L31.565 63.9092L30.811 62.6125ZM30.625 63.7564C30.4593 63.5681 30.2865 63.4238 30.1222 63.3282L30.8762 62.0316C31.2053 62.2229 31.4996 62.4798 31.7509 62.7653L30.625 63.7564ZM30.1222 63.3282L16.7382 55.5451L17.4923 54.2485L30.8762 62.0316L30.1222 63.3282ZM16.7382 55.5451C16.5911 55.4596 16.4856 55.4331 16.4253 55.4275C16.396 55.4248 16.3784 55.4271 16.3703 55.4287C16.3661 55.4295 16.3637 55.4303 16.3626 55.4307C16.3615 55.4311 16.3611 55.4314 16.361 55.4314C16.361 55.4314 16.3606 55.4317 16.3597 55.4324C16.3588 55.4331 16.3569 55.4348 16.3541 55.438C16.3486 55.4442 16.3378 55.4583 16.3254 55.485C16.2999 55.5399 16.2698 55.6445 16.2698 55.8146H14.7698C14.7698 55.148 15.009 54.4787 15.6131 54.1312C16.2171 53.7837 16.916 53.9134 17.4923 54.2485L16.7382 55.5451ZM16.2698 55.8146V69.1989H14.7698V55.8146H16.2698ZM16.2698 69.1989C16.2698 69.5464 16.3965 69.9834 16.6372 70.4018C16.8779 70.8202 17.1919 71.1494 17.4923 71.3241L16.7382 72.6208C16.1574 72.283 15.6737 71.7352 15.337 71.1497C15.0002 70.5643 14.7698 69.8708 14.7698 69.1989H16.2698ZM17.4923 71.3241L20.4835 73.0635L19.7294 74.3602L16.7382 72.6208L17.4923 71.3241ZM20.0944 74.5946C19.9462 74.5084 19.8053 74.4179 19.6722 74.3233L20.5407 73.1004C20.635 73.1673 20.7375 73.2334 20.8485 73.2979L20.0944 74.5946ZM46.3097 89.8394L20.0945 74.5946L20.8485 73.2979L47.0638 88.5428L46.3097 89.8394ZM54.7222 89.8394C53.5235 90.5365 51.9994 90.8635 50.5159 90.8635C49.0324 90.8635 47.5084 90.5365 46.3097 89.8394L47.0638 88.5428C47.9799 89.0755 49.2277 89.3635 50.5159 89.3635C51.8042 89.3635 53.052 89.0755 53.9681 88.5428L54.7222 89.8394ZM82.8138 73.5035L54.7222 89.8394L53.9681 88.5428L82.0598 72.2068L82.8138 73.5035ZM84.1345 72.3876C83.8033 72.8133 83.3561 73.1881 82.8138 73.5034L82.0598 72.2068C82.4685 71.9691 82.7584 71.7136 82.9505 71.4666L84.1345 72.3876ZM85.1995 69.739C85.1995 70.6924 84.7351 71.7097 84.1047 72.4236L82.9804 71.4306C83.423 70.9294 83.6995 70.2522 83.6995 69.739H85.1995ZM85.1995 55.3245V69.739H83.6995V55.3245H85.1995ZM82.4761 53.7521C83.0541 53.4184 83.7532 53.2919 84.3563 53.6401C84.9594 53.9883 85.1995 54.657 85.1995 55.3245H83.6995C83.6995 55.1545 83.6693 55.0498 83.6437 54.9945C83.6312 54.9677 83.6202 54.9533 83.6144 54.9467C83.6115 54.9434 83.6094 54.9415 83.6083 54.9406C83.6072 54.9397 83.6066 54.9393 83.6063 54.9392C83.606 54.939 83.6054 54.9387 83.6041 54.9382C83.6028 54.9377 83.6001 54.9368 83.5957 54.9359C83.5872 54.9342 83.5692 54.9319 83.5397 54.9345C83.479 54.9399 83.3732 54.9662 83.2261 55.0511L82.4761 53.7521ZM70.1876 60.8469L82.4761 53.7521L83.2261 55.0511L70.9376 62.1459L70.1876 60.8469ZM56.5986 52.5084L70.9396 60.8481L70.1855 62.1447L55.8445 53.8051L56.5986 52.5084Z" fill="#060606"/>
<rect x="4.47035e-08" y="0.75" width="41.3421" height="41.3421" rx="3.67958" transform="matrix(-0.866025 0.5 0.866025 0.5 49.3495 34.0352)" fill="white" stroke="#060606" stroke-width="1.5"/>
<rect x="4.47035e-08" y="0.75" width="24.93" height="24.93" rx="12.465" transform="matrix(-0.866025 0.5 0.866025 0.5 49.3493 42.2422)" fill="#060606" stroke="#060606" stroke-width="1.5"/>
<path fill-rule="evenodd" clip-rule="evenodd" d="M46.5141 30.3848C45.0767 30.3848 43.9114 31.55 43.9114 32.9875V59.1795C43.9114 59.3535 43.9285 59.5235 43.961 59.6879C43.7309 60.7271 44.3071 61.8145 45.6895 62.6126C48.0598 63.9811 51.9028 63.9811 54.273 62.6126C55.6515 61.8168 56.2283 60.7333 56.0034 59.6968C56.0372 59.5296 56.0549 59.3566 56.0549 59.1795V32.9875C56.0549 31.55 54.8896 30.3848 53.4521 30.3848H46.5141Z" fill="#717172"/>
<path d="M43.961 59.6879L44.6933 59.8501L44.7273 59.6965L44.6967 59.5422L43.961 59.6879ZM45.6895 62.6126L45.3145 63.2621L45.3145 63.2621L45.6895 62.6126ZM54.273 62.6126L53.898 61.9631L53.898 61.9631L54.273 62.6126ZM56.0034 59.6968L55.2682 59.5485L55.2372 59.7024L55.2705 59.8558L56.0034 59.6968ZM44.6614 32.9875C44.6614 31.9643 45.4909 31.1348 46.5141 31.1348V29.6348C44.6624 29.6348 43.1614 31.1358 43.1614 32.9875H44.6614ZM44.6614 59.1795V32.9875H43.1614V59.1795H44.6614ZM44.6967 59.5422C44.6736 59.4255 44.6614 59.3043 44.6614 59.1795H43.1614C43.1614 59.4026 43.1833 59.6215 43.2253 59.8336L44.6967 59.5422ZM46.0645 61.9631C44.8427 61.2577 44.5604 60.4502 44.6933 59.8501L43.2288 59.5258C42.9014 61.0041 43.7714 62.3713 45.3145 63.2621L46.0645 61.9631ZM53.898 61.9631C52.8537 62.566 51.4378 62.889 49.9813 62.889C48.5247 62.889 47.1088 62.566 46.0645 61.9631L45.3145 63.2621C46.6405 64.0277 48.3312 64.389 49.9813 64.389C51.6313 64.389 53.3221 64.0277 54.648 63.2621L53.898 61.9631ZM55.2705 59.8558C55.4004 60.4545 55.1164 61.2597 53.898 61.9631L54.648 63.2621C56.1867 62.3738 57.0563 61.0122 56.7364 59.5378L55.2705 59.8558ZM55.3049 59.1795C55.3049 59.3065 55.2922 59.4299 55.2682 59.5485L56.7386 59.8451C56.7821 59.6293 56.8049 59.4067 56.8049 59.1795H55.3049ZM55.3049 32.9875V59.1795H56.8049V32.9875H55.3049ZM53.4521 31.1348C54.4754 31.1348 55.3049 31.9643 55.3049 32.9875H56.8049C56.8049 31.1358 55.3038 29.6348 53.4521 29.6348V31.1348ZM46.5141 31.1348H53.4521V29.6348H46.5141V31.1348Z" fill="#060606"/>
<mask id="mask1_3786_37541" style="mask-type:alpha" maskUnits="userSpaceOnUse" x="43" y="29" width="14" height="35">
<path fill-rule="evenodd" clip-rule="evenodd" d="M46.5141 30.3887C45.0767 30.3887 43.9114 31.5539 43.9114 32.9914V59.0003C43.9114 59.1134 43.9186 59.2248 43.9326 59.3341C43.7905 60.3252 44.3761 61.3446 45.6895 62.1029C48.0598 63.4713 51.9028 63.4713 54.273 62.1029C55.5804 61.3481 56.1667 60.3346 56.0319 59.3478C56.047 59.2341 56.0549 59.1181 56.0549 59.0003V32.9914C56.0549 31.5539 54.8896 30.3887 53.4521 30.3887H46.5141Z" fill="#E7E7E7"/>
<path d="M43.9326 59.3341L44.675 59.4406L44.6894 59.3399L44.6765 59.2389L43.9326 59.3341ZM45.6895 62.1029L46.0645 61.4533L46.0645 61.4533L45.6895 62.1029ZM54.273 62.1029L54.648 62.7524L54.648 62.7524L54.273 62.1029ZM56.0319 59.3478L55.2884 59.2486L55.2751 59.349L55.2888 59.4493L56.0319 59.3478ZM44.6614 32.9914C44.6614 31.9682 45.4909 31.1387 46.5141 31.1387V29.6387C44.6624 29.6387 43.1614 31.1397 43.1614 32.9914H44.6614ZM44.6614 59.0003V32.9914H43.1614V59.0003H44.6614ZM44.6765 59.2389C44.6666 59.1611 44.6614 59.0815 44.6614 59.0003H43.1614C43.1614 59.1454 43.1706 59.2886 43.1887 59.4294L44.6765 59.2389ZM46.0645 61.4533C44.9027 60.7826 44.5924 60.0163 44.675 59.4406L43.1902 59.2277C42.9885 60.6341 43.8495 61.9066 45.3145 62.7524L46.0645 61.4533ZM53.898 61.4533C52.8537 62.0563 51.4378 62.3792 49.9813 62.3792C48.5247 62.3792 47.1088 62.0563 46.0645 61.4533L45.3145 62.7524C46.6405 63.5179 48.3312 63.8792 49.9813 63.8792C51.6313 63.8792 53.3221 63.5179 54.648 62.7524L53.898 61.4533ZM55.2888 59.4493C55.3671 60.023 55.0545 60.7856 53.898 61.4533L54.648 62.7524C56.1062 61.9105 56.9662 60.6462 56.775 59.2463L55.2888 59.4493ZM55.3049 59.0003C55.3049 59.0849 55.2992 59.1677 55.2884 59.2486L56.7753 59.447C56.7948 59.3005 56.8049 59.1514 56.8049 59.0003H55.3049ZM55.3049 32.9914V59.0003H56.8049V32.9914H55.3049ZM53.4521 31.1387C54.4754 31.1387 55.3049 31.9682 55.3049 32.9914H56.8049C56.8049 31.1397 55.3038 29.6387 53.4521 29.6387V31.1387ZM46.5141 31.1387H53.4521V29.6387H46.5141V31.1387Z" fill="#060606"/>
</mask>
<g mask="url(#mask1_3786_37541)">
<rect x="49.8865" y="29.4902" width="8.67799" height="43.5491" fill="#2F2F2F"/>
</g>
<path d="M43.961 59.6879L44.6933 59.8501L44.7273 59.6965L44.6967 59.5422L43.961 59.6879ZM45.6895 62.6126L45.3145 63.2621L45.3145 63.2621L45.6895 62.6126ZM54.273 62.6126L53.898 61.9631L53.898 61.9631L54.273 62.6126ZM56.0034 59.6968L55.2682 59.5485L55.2372 59.7024L55.2705 59.8558L56.0034 59.6968ZM44.6614 32.9875C44.6614 31.9643 45.4909 31.1348 46.5141 31.1348V29.6348C44.6624 29.6348 43.1614 31.1358 43.1614 32.9875H44.6614ZM44.6614 59.1795V32.9875H43.1614V59.1795H44.6614ZM44.6967 59.5422C44.6736 59.4255 44.6614 59.3043 44.6614 59.1795H43.1614C43.1614 59.4026 43.1833 59.6215 43.2253 59.8336L44.6967 59.5422ZM46.0645 61.9631C44.8427 61.2577 44.5604 60.4502 44.6933 59.8501L43.2288 59.5258C42.9014 61.0041 43.7714 62.3713 45.3145 63.2621L46.0645 61.9631ZM53.898 61.9631C52.8537 62.566 51.4378 62.889 49.9813 62.889C48.5247 62.889 47.1088 62.566 46.0645 61.9631L45.3145 63.2621C46.6405 64.0277 48.3312 64.389 49.9813 64.389C51.6313 64.389 53.3221 64.0277 54.648 63.2621L53.898 61.9631ZM55.2705 59.8558C55.4004 60.4545 55.1164 61.2597 53.898 61.9631L54.648 63.2621C56.1867 62.3738 57.0563 61.0122 56.7364 59.5378L55.2705 59.8558ZM55.3049 59.1795C55.3049 59.3065 55.2922 59.4299 55.2682 59.5485L56.7386 59.8451C56.7821 59.6293 56.8049 59.4067 56.8049 59.1795H55.3049ZM55.3049 32.9875V59.1795H56.8049V32.9875H55.3049ZM53.4521 31.1348C54.4754 31.1348 55.3049 31.9643 55.3049 32.9875H56.8049C56.8049 31.1358 55.3038 29.6348 53.4521 29.6348V31.1348ZM46.5141 31.1348H53.4521V29.6348H46.5141V31.1348Z" fill="#060606"/>
<circle r="4.95572" transform="matrix(0.866025 -0.5 0.866025 0.5 49.9813 30.3887)" fill="white" stroke="#060606" stroke-width="1.5"/>
<circle cx="49.9812" cy="26.104" r="14.1372" fill="#2F2F2F" stroke="#060606" stroke-width="1.5"/>
<g filter="url(#filter0_d_3786_37541)">
<mask id="mask2_3786_37541" style="mask-type:alpha" maskUnits="userSpaceOnUse" x="35" y="11" width="30" height="30">
<circle cx="49.9812" cy="26.104" r="14.1372" fill="#B0F127" stroke="#060606" stroke-width="1.5"/>
</mask>
<g mask="url(#mask2_3786_37541)">
<circle cx="52.2545" cy="24.1595" r="10.8568" fill="#B0F127"/>
</g>
</g>
<circle cx="49.9812" cy="26.104" r="14.1372" stroke="#060606" stroke-width="1.5"/>
<defs>
<filter id="filter0_d_3786_37541" x="37.3977" y="13.3027" width="29.7136" height="29.7139" filterUnits="userSpaceOnUse" color-interpolation-filters="sRGB">
<feFlood flood-opacity="0" result="BackgroundImageFix"/>
<feColorMatrix in="SourceAlpha" type="matrix" values="0 0 0 0 0 0 0 0 0 0 0 0 0 0 0 0 0 0 127 0" result="hardAlpha"/>
<feOffset dy="4"/>
<feGaussianBlur stdDeviation="2"/>
<feComposite in2="hardAlpha" operator="out"/>
<feColorMatrix type="matrix" values="0 0 0 0 0 0 0 0 0 0 0 0 0 0 0 0 0 0 0.25 0"/>
<feBlend mode="normal" in2="BackgroundImageFix" result="effect1_dropShadow_3786_37541"/>
<feBlend mode="normal" in="SourceGraphic" in2="effect1_dropShadow_3786_37541" result="shape"/>
</filter>
</defs>
</svg>
