<svg width="595" height="1150" viewBox="0 0 595 1150" fill="none" xmlns="http://www.w3.org/2000/svg">
<rect width="101.268" height="135.024" rx="1.29455" transform="matrix(-0.866025 0.5 2.20305e-08 1 384.857 191.134)" fill="#060606" stroke="#060606" stroke-width="1.5" stroke-linejoin="round"/>
<rect width="101.268" height="135.024" rx="1.29455" transform="matrix(-0.866025 -0.5 -2.20305e-08 1 297.161 241.768)" fill="white" stroke="#060606" stroke-width="1.5" stroke-linejoin="round"/>
<rect width="101.268" height="101.268" rx="1.29455" transform="matrix(-0.866025 -0.5 -0.866025 0.5 384.857 191.134)" fill="#B0F127" stroke="#060606" stroke-width="1.5" stroke-linejoin="round"/>
<path fill-rule="evenodd" clip-rule="evenodd" d="M285.167 182.688C282.958 182.688 281.167 184.478 281.167 186.688V192.562C281.167 192.909 281.211 193.245 281.294 193.566C281.505 195.739 283.048 197.876 285.922 199.536C292.127 203.118 302.186 203.118 308.391 199.536C311.065 197.992 312.587 196.034 312.956 194.02C313.132 193.568 313.229 193.077 313.229 192.562V186.688C313.229 184.478 311.439 182.688 309.229 182.688H285.167Z" fill="#2F2F2F"/>
<path d="M281.294 193.566L282.02 193.378L282.035 193.435L282.04 193.494L281.294 193.566ZM285.922 199.536L286.297 198.886L286.297 198.886L285.922 199.536ZM308.391 199.536L308.016 198.886L308.016 198.886L308.391 199.536ZM312.956 194.02L312.218 193.885L312.231 193.814L312.257 193.746L312.956 194.02ZM280.417 186.688C280.417 184.064 282.544 181.938 285.167 181.938V183.438C283.372 183.438 281.917 184.893 281.917 186.688H280.417ZM280.417 192.562V186.688H281.917V192.562H280.417ZM280.568 193.754C280.469 193.372 280.417 192.973 280.417 192.562H281.917C281.917 192.845 281.953 193.119 282.02 193.378L280.568 193.754ZM285.547 200.185C282.545 198.452 280.79 196.133 280.547 193.639L282.04 193.494C282.22 195.344 283.55 197.3 286.297 198.886L285.547 200.185ZM308.766 200.185C305.523 202.058 301.319 202.973 297.157 202.973C292.994 202.973 288.79 202.058 285.547 200.185L286.297 198.886C289.259 200.596 293.187 201.473 297.157 201.473C301.126 201.473 305.054 200.596 308.016 198.886L308.766 200.185ZM313.694 194.155C313.272 196.455 311.56 198.572 308.766 200.185L308.016 198.886C310.571 197.411 311.902 195.613 312.218 193.885L313.694 194.155ZM313.979 192.562C313.979 193.172 313.864 193.756 313.654 194.293L312.257 193.746C312.401 193.38 312.479 192.982 312.479 192.562H313.979ZM313.979 186.688V192.562H312.479V186.688H313.979ZM309.229 181.938C311.853 181.938 313.979 184.064 313.979 186.688H312.479C312.479 184.893 311.024 183.438 309.229 183.438V181.938ZM285.167 181.938H309.229V183.438H285.167V181.938Z" fill="#060606"/>
<circle r="12.9723" transform="matrix(0.866025 -0.5 0.866025 0.5 297.157 185.799)" fill="#060606" stroke="#060606" stroke-width="1.5"/>
<rect width="101.268" height="135.024" rx="1.29455" transform="matrix(-0.866025 0.5 2.20305e-08 1 490.222 321.112)" fill="#060606" stroke="#060606" stroke-width="1.5" stroke-linejoin="round"/>
<rect width="101.268" height="135.024" rx="1.29455" transform="matrix(-0.866025 -0.5 -2.20305e-08 1 402.526 371.742)" fill="white" stroke="#060606" stroke-width="1.5" stroke-linejoin="round"/>
<rect width="101.268" height="101.268" rx="1.29455" transform="matrix(-0.866025 -0.5 -0.866025 0.5 490.222 322.004)" fill="#71A407" stroke="#060606" stroke-width="1.5" stroke-linejoin="round"/>
<rect width="101.268" height="135.024" rx="1.29455" transform="matrix(-0.866025 0.5 2.20305e-08 1 283.173 321.109)" fill="#060606" stroke="#060606" stroke-width="1.5" stroke-linejoin="round"/>
<rect width="101.268" height="135.024" rx="1.29455" transform="matrix(-0.866025 -0.5 -2.20305e-08 1 195.476 371.743)" fill="white" stroke="#060606" stroke-width="1.5" stroke-linejoin="round"/>
<rect width="101.268" height="101.268" rx="1.29455" transform="matrix(-0.866025 -0.5 -0.866025 0.5 283.173 321.109)" fill="#71A407" stroke="#060606" stroke-width="1.5" stroke-linejoin="round"/>
<rect width="101.268" height="135.024" rx="1.29455" transform="matrix(-0.866025 0.5 2.20305e-08 1 385.471 398.026)" fill="#060606" stroke="#060606" stroke-width="1.5" stroke-linejoin="round"/>
<rect width="101.268" height="135.024" rx="1.29455" transform="matrix(-0.866025 -0.5 -2.20305e-08 1 297.774 448.658)" fill="white" stroke="#060606" stroke-width="1.5" stroke-linejoin="round"/>
<rect width="101.268" height="101.268" rx="1.29455" transform="matrix(-0.866025 -0.5 -0.866025 0.5 385.471 398.026)" fill="#B0F127" stroke="#060606" stroke-width="1.5" stroke-linejoin="round"/>
<rect width="101.268" height="674.742" rx="1.29455" transform="matrix(-0.866025 0.5 2.20305e-08 1 176.401 423.807)" fill="#060606" stroke="#060606" stroke-width="1.5" stroke-linejoin="round"/>
<rect width="101.268" height="674.994" rx="1.29455" transform="matrix(-0.866025 -0.5 -2.20305e-08 1 88.7043 474.438)" fill="white" stroke="#060606" stroke-width="1.5" stroke-linejoin="round"/>
<rect width="101.268" height="101.268" rx="1.29455" transform="matrix(-0.866025 -0.5 -0.866025 0.5 176.401 423.807)" fill="#71A407" stroke="#060606" stroke-width="1.5" stroke-linejoin="round"/>
<rect width="101.268" height="545.207" rx="1.29455" transform="matrix(-0.866025 0.5 2.20305e-08 1 282.559 507.85)" fill="#060606" stroke="#060606" stroke-width="1.5" stroke-linejoin="round"/>
<rect width="101.268" height="545.246" rx="1.29455" transform="matrix(-0.866025 -0.5 -2.20305e-08 1 194.863 558.483)" fill="white" stroke="#060606" stroke-width="1.5" stroke-linejoin="round"/>
<rect width="101.268" height="101.268" rx="1.29455" transform="matrix(-0.866025 -0.5 -0.866025 0.5 282.559 507.85)" fill="#71A407" stroke="#060606" stroke-width="1.5" stroke-linejoin="round"/>
<rect width="101.268" height="601.75" rx="1.29455" transform="matrix(-0.866025 0.5 2.20305e-08 1 593.931 406.979)" fill="#060606" stroke="#060606" stroke-width="1.5" stroke-linejoin="round"/>
<rect width="101.268" height="601.818" rx="1.29455" transform="matrix(-0.866025 -0.5 -2.20305e-08 1 506.23 457.612)" fill="white" stroke="#060606" stroke-width="1.5" stroke-linejoin="round"/>
<rect width="101.268" height="101.268" rx="1.29455" transform="matrix(-0.866025 -0.5 -0.866025 0.5 593.927 406.576)" fill="#71A407" stroke="#060606" stroke-width="1.5" stroke-linejoin="round"/>
<rect width="101.268" height="489.549" rx="1.29455" transform="matrix(-0.866025 0.5 2.20305e-08 1 488.383 507.85)" fill="#060606" stroke="#060606" stroke-width="1.5" stroke-linejoin="round"/>
<rect width="101.268" height="489.554" rx="1.29455" transform="matrix(-0.866025 -0.5 -2.20305e-08 1 400.686 558.483)" fill="white" stroke="#060606" stroke-width="1.5" stroke-linejoin="round"/>
<rect width="101.268" height="101.268" rx="1.29455" transform="matrix(-0.866025 -0.5 -0.866025 0.5 488.383 507.85)" fill="#71A407" stroke="#060606" stroke-width="1.5" stroke-linejoin="round"/>
<rect width="101.268" height="444.951" rx="1.29455" transform="matrix(-0.866025 0.5 2.20305e-08 1 384.452 595.491)" fill="#060606" stroke="#060606" stroke-width="1.5" stroke-linejoin="round"/>
<rect width="101.268" height="445.192" rx="1.29455" transform="matrix(-0.866025 -0.5 -2.20305e-08 1 296.755 646.123)" fill="white" stroke="#060606" stroke-width="1.5" stroke-linejoin="round"/>
<rect width="101.268" height="101.268" rx="1.29455" transform="matrix(-0.866025 -0.5 -0.866025 0.5 384.452 595.491)" fill="#B0F127" stroke="#060606" stroke-width="1.5" stroke-linejoin="round"/>
<path d="M419.896 67.5732C403.098 70.8967 386.299 79.9344 369.623 88.9061C366.199 90.7481 362.78 92.5874 359.368 94.3739C339.466 104.793 319.769 113.426 300.139 110.929V24.4233C320.509 39.5939 340.879 43.1072 361.125 45.1391C364.081 45.4357 367.032 45.7009 369.979 45.9657C387.644 47.553 405.16 49.1271 422.692 57.386C424.797 58.3777 425.399 60.5595 424.775 62.795C424.146 65.0443 422.319 67.0938 419.896 67.5732Z" fill="white" stroke="#060606" stroke-width="1.5"/>
<mask id="mask0_3786_37116" style="mask-type:alpha" maskUnits="userSpaceOnUse" x="299" y="22" width="127" height="91">
<path d="M419.896 67.5732C403.098 70.8967 386.299 79.9344 369.623 88.9061C366.199 90.7481 362.78 92.5874 359.368 94.3739C339.466 104.793 319.769 113.426 300.139 110.929V24.4233C320.509 39.5939 340.879 43.1072 361.125 45.1391C364.081 45.4357 367.032 45.7009 369.979 45.9657C387.644 47.553 405.16 49.1271 422.692 57.386C424.797 58.3777 425.399 60.5595 424.775 62.795C424.146 65.0443 422.319 67.0938 419.896 67.5732Z" fill="white" stroke="#060606" stroke-width="1.5"/>
</mask>
<g mask="url(#mask0_3786_37116)">
<rect x="280.124" y="-8.4668" width="76.8786" height="139.25" transform="rotate(7.71218 280.124 -8.4668)" fill="#B0F127"/>
</g>
<path d="M419.896 67.5732C403.098 70.8967 386.299 79.9344 369.623 88.9061C366.199 90.7481 362.78 92.5874 359.368 94.3739C339.466 104.793 319.769 113.426 300.139 110.929V24.4233C320.509 39.5939 340.879 43.1072 361.125 45.1391C364.081 45.4357 367.032 45.7009 369.979 45.9657C387.644 47.553 405.16 49.1271 422.692 57.386C424.797 58.3777 425.399 60.5595 424.775 62.795C424.146 65.0443 422.319 67.0938 419.896 67.5732Z" stroke="#060606" stroke-width="1.5"/>
<rect x="293.998" y="3.92969" width="6.48123" height="184.82" rx="3.24062" fill="#717172" stroke="#060606" stroke-width="1.5"/>
<circle cx="297.234" cy="12.4375" r="11.6875" fill="#71A407" stroke="#060606" stroke-width="1.5"/>
</svg>
