<svg width="147" height="230" viewBox="0 0 147 230" fill="none" xmlns="http://www.w3.org/2000/svg">
<path fill-rule="evenodd" clip-rule="evenodd" d="M130.657 184.553C140.323 176.838 146.143 163.051 146.143 144.333C146.143 102.078 116.478 50.6965 79.8842 29.569C60.6204 18.447 43.2766 17.9262 31.1697 26.0915L31.1661 26.0857L30.9164 26.2642C30.6126 26.4734 30.3122 26.6881 30.0152 26.9083L18.3244 35.2642L20.2132 38.3275C15.9919 45.9575 13.625 55.8882 13.625 67.8238C13.625 110.079 43.2903 161.461 79.8842 182.588C92.5892 189.923 104.459 192.647 114.542 191.309L116.598 194.644L130.693 184.611L130.657 184.553Z" fill="#B0F127"/>
<path d="M130.657 184.553L130.189 183.967L129.666 184.385L130.022 184.952L130.657 184.553ZM79.8842 29.569L80.2592 28.9195L79.8842 29.569ZM31.1697 26.0915L30.5346 26.4904L30.9466 27.1466L31.5891 26.7133L31.1697 26.0915ZM31.1661 26.0857L31.8012 25.6869L31.3778 25.0125L30.73 25.4756L31.1661 26.0857ZM30.9164 26.2642L31.3418 26.882L31.3525 26.8743L30.9164 26.2642ZM30.0152 26.9083L30.4514 27.5186L30.4619 27.5108L30.0152 26.9083ZM18.3244 35.2642L17.8883 34.654L17.3182 35.0614L17.686 35.6578L18.3244 35.2642ZM20.2132 38.3275L20.8695 38.6906L21.0817 38.307L20.8516 37.9339L20.2132 38.3275ZM79.8842 182.588L79.5092 183.238L79.5092 183.238L79.8842 182.588ZM114.542 191.309L115.181 190.916L114.925 190.502L114.443 190.566L114.542 191.309ZM116.598 194.644L115.959 195.037L116.38 195.719L117.033 195.255L116.598 194.644ZM130.693 184.611L131.128 185.222L131.704 184.811L131.328 184.212L130.693 184.611ZM145.393 144.333C145.393 162.91 139.618 176.441 130.189 183.967L131.125 185.14C141.027 177.235 146.893 163.192 146.893 144.333H145.393ZM79.5092 30.2185C97.6654 40.701 114.145 58.7189 126.087 79.4033C138.029 100.088 145.393 123.368 145.393 144.333H146.893C146.893 123.043 139.425 99.5054 127.386 78.6533C115.347 57.8013 98.697 39.5646 80.2592 28.9195L79.5092 30.2185ZM31.5891 26.7133C43.3723 18.7663 60.389 19.1795 79.5092 30.2185L80.2592 28.9195C60.8517 17.7145 43.1809 17.0861 30.7504 25.4697L31.5891 26.7133ZM31.8049 25.6927L31.8012 25.6869L30.5309 26.4845L30.5346 26.4904L31.8049 25.6927ZM30.73 25.4756L30.4803 25.654L31.3525 26.8743L31.6022 26.6959L30.73 25.4756ZM30.4619 27.5108C30.7519 27.2958 31.0452 27.0861 31.3418 26.8819L30.491 25.6465C30.18 25.8606 29.8725 26.0804 29.5685 26.3058L30.4619 27.5108ZM29.5791 26.2981L17.8883 34.654L18.7605 35.8744L30.4513 27.5185L29.5791 26.2981ZM17.686 35.6578L19.5748 38.7211L20.8516 37.9339L18.9628 34.8705L17.686 35.6578ZM14.375 67.8238C14.375 55.9832 16.7235 46.1845 20.8695 38.6906L19.557 37.9644C15.2603 45.7306 12.875 55.7932 12.875 67.8238H14.375ZM80.2592 181.939C62.1031 171.456 45.6236 153.438 33.6814 132.754C21.7392 112.069 14.375 88.7887 14.375 67.8238H12.875C12.875 89.1139 20.3434 112.652 32.3824 133.504C44.4213 154.356 61.0714 172.593 79.5092 183.238L80.2592 181.939ZM114.443 190.566C104.569 191.876 92.8652 189.217 80.2592 181.939L79.5092 183.238C92.3132 190.63 104.349 193.418 114.641 192.053L114.443 190.566ZM113.904 191.703L115.959 195.037L117.236 194.25L115.181 190.916L113.904 191.703ZM117.033 195.255L131.128 185.222L130.258 184L116.163 194.032L117.033 195.255ZM131.328 184.212L131.292 184.155L130.022 184.952L130.058 185.009L131.328 184.212Z" fill="#060606"/>
<mask id="mask0_3768_36758" style="mask-type:alpha" maskUnits="userSpaceOnUse" x="12" y="19" width="135" height="177">
<path fill-rule="evenodd" clip-rule="evenodd" d="M130.658 184.552C140.323 176.836 146.144 163.049 146.144 144.331C146.144 102.076 116.479 50.6946 79.8852 29.567C60.6212 18.445 43.2773 17.9242 31.1705 26.0897L31.1668 26.0838L30.9098 26.2674C30.6111 26.4733 30.3157 26.6844 30.0236 26.9009L18.325 35.2622L20.2141 38.3258C15.9928 45.9558 13.626 55.8864 13.626 67.8218C13.626 110.077 43.2912 161.459 79.8852 182.586C92.5901 189.921 104.46 192.645 114.543 191.308L116.599 194.642L130.693 184.609L130.658 184.552Z" fill="#B0F127"/>
<path d="M146.144 144.331L145.394 144.331V144.331H146.144ZM130.658 184.552L130.19 183.965L129.666 184.383L130.022 184.95L130.658 184.552ZM79.8852 29.567L80.2602 28.9175L80.2602 28.9175L79.8852 29.567ZM31.1705 26.0897L30.5352 26.4885L30.9473 27.1449L31.5898 26.7115L31.1705 26.0897ZM31.1668 26.0838L31.802 25.6851L31.3786 25.0105L30.7306 25.4736L31.1668 26.0838ZM30.9098 26.2674L31.3354 26.8851L31.3459 26.8776L30.9098 26.2674ZM30.0236 26.9009L30.4598 27.5111L30.4701 27.5035L30.0236 26.9009ZM18.325 35.2622L17.8889 34.6521L17.3189 35.0595L17.6866 35.6559L18.325 35.2622ZM20.2141 38.3258L20.8703 38.6889L21.0825 38.3053L20.8524 37.9322L20.2141 38.3258ZM13.626 67.8218L14.376 67.8218L13.626 67.8218ZM79.8852 182.586L80.2602 181.937L80.2602 181.937L79.8852 182.586ZM114.543 191.308L115.181 190.914L114.926 190.5L114.444 190.564L114.543 191.308ZM116.599 194.642L115.96 195.035L116.381 195.717L117.033 195.253L116.599 194.642ZM130.693 184.609L131.128 185.22L131.705 184.809L131.329 184.21L130.693 184.609ZM145.394 144.331C145.394 162.908 139.619 176.439 130.19 183.965L131.126 185.138C141.028 177.234 146.894 163.19 146.894 144.331H145.394ZM79.5102 30.2166C97.6663 40.699 114.146 58.7169 126.088 79.4014C138.03 100.086 145.394 123.366 145.394 144.331L146.894 144.331C146.894 123.041 139.426 99.5034 127.387 78.6514C115.348 57.7993 98.698 39.5626 80.2602 28.9175L79.5102 30.2166ZM31.5898 26.7115C43.373 18.7643 60.3899 19.1775 79.5102 30.2166L80.2602 28.9175C60.8525 17.7125 43.1816 17.0841 30.7511 25.4679L31.5898 26.7115ZM31.8057 25.691L31.802 25.6851L30.5315 26.4825L30.5352 26.4885L31.8057 25.691ZM30.7306 25.4736L30.4737 25.6573L31.3459 26.8776L31.6029 26.694L30.7306 25.4736ZM30.4701 27.5035C30.7553 27.2921 31.0438 27.0859 31.3353 26.885L30.4842 25.6499C30.1785 25.8606 29.8761 26.0767 29.5771 26.2983L30.4701 27.5035ZM29.5875 26.2907L17.8889 34.6521L18.7612 35.8724L30.4597 27.511L29.5875 26.2907ZM17.6866 35.6559L19.5757 38.7195L20.8524 37.9322L18.9634 34.8686L17.6866 35.6559ZM14.376 67.8218C14.376 55.9814 16.7244 46.1827 20.8703 38.6889L19.5578 37.9628C15.2612 45.7289 12.876 55.7914 12.876 67.8218L14.376 67.8218ZM80.2602 181.937C62.1041 171.454 45.6245 153.436 33.6824 132.752C21.7402 112.067 14.376 88.7867 14.376 67.8218L12.876 67.8218C12.876 89.112 20.3444 112.65 32.3833 133.502C44.4223 154.354 61.0724 172.591 79.5102 183.236L80.2602 181.937ZM114.444 190.564C104.569 191.874 92.8661 189.215 80.2602 181.937L79.5102 183.236C92.314 190.628 104.35 193.416 114.641 192.051L114.444 190.564ZM113.904 191.701L115.96 195.035L117.237 194.248L115.181 190.914L113.904 191.701ZM117.033 195.253L131.128 185.22L130.259 183.998L116.164 194.031L117.033 195.253ZM131.329 184.21L131.293 184.153L130.022 184.95L130.058 185.007L131.329 184.21Z" fill="#060606"/>
</mask>
<g mask="url(#mask0_3768_36758)">
<rect width="161.849" height="69.5921" transform="matrix(0.866025 -0.5 2.70279e-08 1 85.1201 183.031)" fill="#B0F127"/>
</g>
<path d="M130.657 184.553L130.189 183.967L129.666 184.385L130.022 184.952L130.657 184.553ZM79.8842 29.569L80.2592 28.9195L79.8842 29.569ZM31.1697 26.0915L30.5346 26.4904L30.9466 27.1466L31.5891 26.7133L31.1697 26.0915ZM31.1661 26.0857L31.8012 25.6869L31.3778 25.0125L30.73 25.4756L31.1661 26.0857ZM30.9164 26.2642L31.3418 26.882L31.3525 26.8743L30.9164 26.2642ZM30.0152 26.9083L30.4514 27.5186L30.4619 27.5108L30.0152 26.9083ZM18.3244 35.2642L17.8883 34.654L17.3182 35.0614L17.686 35.6578L18.3244 35.2642ZM20.2132 38.3275L20.8695 38.6906L21.0817 38.307L20.8516 37.9339L20.2132 38.3275ZM79.8842 182.588L79.5092 183.238L79.5092 183.238L79.8842 182.588ZM114.542 191.309L115.181 190.916L114.925 190.502L114.443 190.566L114.542 191.309ZM116.598 194.644L115.959 195.037L116.38 195.719L117.033 195.255L116.598 194.644ZM130.693 184.611L131.128 185.222L131.704 184.811L131.328 184.212L130.693 184.611ZM145.393 144.333C145.393 162.91 139.618 176.441 130.189 183.967L131.125 185.14C141.027 177.235 146.893 163.192 146.893 144.333H145.393ZM79.5092 30.2185C97.6654 40.701 114.145 58.7189 126.087 79.4033C138.029 100.088 145.393 123.368 145.393 144.333H146.893C146.893 123.043 139.425 99.5054 127.386 78.6533C115.347 57.8013 98.697 39.5646 80.2592 28.9195L79.5092 30.2185ZM31.5891 26.7133C43.3723 18.7663 60.389 19.1795 79.5092 30.2185L80.2592 28.9195C60.8517 17.7145 43.1809 17.0861 30.7504 25.4697L31.5891 26.7133ZM31.8049 25.6927L31.8012 25.6869L30.5309 26.4845L30.5346 26.4904L31.8049 25.6927ZM30.73 25.4756L30.4803 25.654L31.3525 26.8743L31.6022 26.6959L30.73 25.4756ZM30.4619 27.5108C30.7519 27.2958 31.0452 27.0861 31.3418 26.8819L30.491 25.6465C30.18 25.8606 29.8725 26.0804 29.5685 26.3058L30.4619 27.5108ZM29.5791 26.2981L17.8883 34.654L18.7605 35.8744L30.4513 27.5185L29.5791 26.2981ZM17.686 35.6578L19.5748 38.7211L20.8516 37.9339L18.9628 34.8705L17.686 35.6578ZM14.375 67.8238C14.375 55.9832 16.7235 46.1845 20.8695 38.6906L19.557 37.9644C15.2603 45.7306 12.875 55.7932 12.875 67.8238H14.375ZM80.2592 181.939C62.1031 171.456 45.6236 153.438 33.6814 132.754C21.7392 112.069 14.375 88.7887 14.375 67.8238H12.875C12.875 89.1139 20.3434 112.652 32.3824 133.504C44.4213 154.356 61.0714 172.593 79.5092 183.238L80.2592 181.939ZM114.443 190.566C104.569 191.876 92.8652 189.217 80.2592 181.939L79.5092 183.238C92.3132 190.63 104.349 193.418 114.641 192.053L114.443 190.566ZM113.904 191.703L115.959 195.037L117.236 194.25L115.181 190.916L113.904 191.703ZM117.033 195.255L131.128 185.222L130.258 184L116.163 194.032L117.033 195.255ZM131.328 184.212L131.292 184.155L130.022 184.952L130.058 185.009L131.328 184.212Z" fill="#060606"/>
<circle r="76.5096" transform="matrix(0.866025 0.5 -2.70279e-08 1 67.6869 114.764)" fill="white" stroke="#060606" stroke-width="1.5"/>
<mask id="mask1_3768_36758" style="mask-type:alpha" maskUnits="userSpaceOnUse" x="0" y="28" width="135" height="174">
<circle r="76.5096" transform="matrix(0.866025 0.5 -2.70279e-08 1 67.6869 114.764)" fill="#B0F127" stroke="#060606" stroke-width="1.5"/>
</mask>
<g mask="url(#mask1_3768_36758)">
<path d="M89.1197 121.719C90.1729 114.198 84.813 106.734 77.4842 99.5878L79.8616 89.9492L74.057 84.9276L71.7425 94.3123C70.2166 92.9922 68.6493 91.6731 67.0919 90.3635L69.423 80.9178L63.6218 75.8981L61.2428 85.5318C59.9797 84.4704 58.7398 83.4262 57.5362 82.3858L57.5428 82.3552L49.5378 75.4256L47.9937 81.6928C47.9937 81.6928 52.3004 85.319 52.2095 85.3371C54.5604 87.3721 54.9852 89.4138 54.9142 90.7968L52.2061 101.777C52.3682 101.919 52.5781 102.109 52.8096 102.349C52.6162 102.182 52.4095 102.002 52.1962 101.819L48.4004 117.2C48.1127 117.859 47.3836 118.675 45.7403 117.257C45.7982 117.387 41.5212 113.605 41.5212 113.605L38.6396 119.613L46.1933 126.149C47.5986 127.367 48.9757 128.587 50.3314 129.771L47.9292 139.521L53.7271 144.539L56.1061 134.894C57.6899 136.305 59.2275 137.65 60.7319 138.95L58.3612 148.549L64.1657 153.57L66.5679 143.841C76.4658 151.719 83.9087 155.144 87.0416 146.615C89.5661 139.749 86.916 133.418 81.7083 127.281C85.5008 128.46 88.3576 127.229 89.1197 121.719V121.719ZM75.8574 135.536C74.0637 142.824 61.9272 131.317 57.9925 127.917L61.1799 115.003C65.1147 118.409 77.7322 127.938 75.8574 135.536V135.536ZM77.6529 114.978C76.0161 121.604 65.9148 111.926 62.6381 109.091L65.528 97.3772C68.8047 100.212 79.3573 108.065 77.6529 114.978V114.978Z" fill="#060606"/>
<circle r="76.5096" transform="matrix(0.866025 0.5 -2.70279e-08 1 67.6869 114.764)" stroke="#060606" stroke-width="1.5"/>
</g>
</svg>
