<svg width="162" height="255" viewBox="0 0 162 255" fill="none" xmlns="http://www.w3.org/2000/svg">
<path fill-rule="evenodd" clip-rule="evenodd" d="M18.1464 204.346C7.44464 195.803 0.999756 180.538 0.999756 159.813C0.999756 113.026 33.8465 56.1341 74.3651 32.7407C95.6946 20.4261 114.898 19.8492 128.303 28.8897L128.307 28.8832L128.59 29.085C128.923 29.3143 129.252 29.5496 129.577 29.7909L142.526 39.046L140.435 42.4376C145.11 50.886 147.73 61.8821 147.73 75.0982C147.73 121.885 114.884 178.777 74.3651 202.171C60.2971 210.293 47.1539 213.309 35.9892 211.827L33.7132 215.518L18.1067 204.409L18.1464 204.346Z" fill="#B0F127"/>
<path d="M18.1464 204.346L18.6143 203.76L19.1376 204.178L18.7816 204.745L18.1464 204.346ZM74.3651 32.7407L74.7401 33.3902L74.7401 33.3902L74.3651 32.7407ZM128.303 28.8897L128.938 29.2886L128.526 29.9448L127.884 29.5115L128.303 28.8897ZM128.307 28.8832L127.672 28.4844L128.096 27.81L128.744 28.273L128.307 28.8832ZM128.59 29.085L128.164 29.7027L128.154 29.6952L128.59 29.085ZM129.577 29.7909L129.141 30.4012L129.131 30.3935L129.577 29.7909ZM142.526 39.046L142.962 38.4359L143.532 38.8433L143.165 39.4397L142.526 39.046ZM140.435 42.4376L139.779 42.8007L139.567 42.4171L139.797 42.0439L140.435 42.4376ZM74.3651 202.171L73.9901 201.521L74.3651 202.171ZM35.9892 211.827L35.3508 211.434L35.6059 211.02L36.0878 211.084L35.9892 211.827ZM33.7132 215.518L34.3516 215.912L33.9311 216.594L33.2783 216.129L33.7132 215.518ZM18.1067 204.409L17.6718 205.021L17.0952 204.61L17.4715 204.011L18.1067 204.409ZM1.74976 159.813C1.74976 180.396 8.14912 195.406 18.6143 203.76L17.6785 204.932C6.74016 196.2 0.249756 180.679 0.249756 159.813H1.74976ZM74.7401 33.3902C54.6217 45.0056 36.3656 64.9676 23.1375 87.8794C9.90935 110.791 1.74976 136.582 1.74976 159.813H0.249756C0.249756 136.257 8.51355 110.209 21.8385 87.1294C35.1634 64.05 53.59 43.8692 73.9901 32.0912L74.7401 33.3902ZM127.884 29.5115C114.802 20.6893 95.9259 21.1586 74.7401 33.3902L73.9901 32.0912C95.4632 19.6937 114.994 19.0091 128.723 28.2679L127.884 29.5115ZM127.668 28.4909L127.672 28.4844L128.943 29.282L128.938 29.2886L127.668 28.4909ZM128.744 28.273L129.026 28.4748L128.154 29.6952L127.871 29.4934L128.744 28.273ZM129.131 30.3935C128.812 30.1573 128.49 29.927 128.164 29.7026L129.015 28.4674C129.355 28.7016 129.692 28.942 130.024 29.1884L129.131 30.3935ZM130.014 29.1807L142.962 38.4359L142.09 39.6562L129.141 30.4011L130.014 29.1807ZM143.165 39.4397L141.074 42.8312L139.797 42.0439L141.888 38.6524L143.165 39.4397ZM146.98 75.0982C146.98 61.9771 144.378 51.113 139.779 42.8007L141.091 42.0745C145.841 50.6591 148.48 61.7871 148.48 75.0982H146.98ZM73.9901 201.521C94.1086 189.906 112.365 169.944 125.593 147.032C138.821 124.12 146.98 98.329 146.98 75.0982H148.48C148.48 98.6542 140.217 124.703 126.892 147.782C113.567 170.861 95.1402 191.042 74.7401 202.82L73.9901 201.521ZM36.0878 211.084C47.0443 212.538 60.0211 209.586 73.9901 201.521L74.7401 202.82C60.5731 211 47.2635 214.08 35.8905 212.571L36.0878 211.084ZM36.6276 212.221L34.3516 215.912L33.0749 215.125L35.3508 211.434L36.6276 212.221ZM33.2783 216.129L17.6718 205.021L18.5416 203.798L34.1482 214.907L33.2783 216.129ZM17.4715 204.011L17.5112 203.947L18.7816 204.745L18.7419 204.808L17.4715 204.011Z" fill="#060606"/>
<mask id="mask0_3768_36792" style="mask-type:alpha" maskUnits="userSpaceOnUse" x="0" y="21" width="149" height="196">
<path fill-rule="evenodd" clip-rule="evenodd" d="M18.1464 204.342C7.44464 195.799 0.999756 180.534 0.999756 159.809C0.999756 113.023 33.8465 56.1302 74.3651 32.7368C95.6946 20.4222 114.898 19.8453 128.303 28.8858L128.307 28.8793L128.59 29.0811C128.923 29.3104 129.252 29.5457 129.577 29.787L142.526 39.0421L140.435 42.4337C145.11 50.8821 147.73 61.8782 147.73 75.0943C147.73 121.881 114.884 178.773 74.3651 202.167C60.2971 210.289 47.1539 213.305 35.9892 211.823L33.7132 215.515L18.1067 204.406L18.1464 204.342Z" fill="#B0F127"/>
<path d="M18.1464 204.342L18.6143 203.756L19.1376 204.174L18.7816 204.741L18.1464 204.342ZM74.3651 32.7368L74.7401 33.3863L74.7401 33.3863L74.3651 32.7368ZM128.303 28.8858L128.938 29.2847L128.526 29.9409L127.884 29.5076L128.303 28.8858ZM128.307 28.8793L127.672 28.4805L128.096 27.8061L128.744 28.2691L128.307 28.8793ZM128.59 29.0811L128.164 29.6988L128.154 29.6913L128.59 29.0811ZM129.577 29.787L129.141 30.3973L129.131 30.3896L129.577 29.787ZM142.526 39.0421L142.962 38.4319L143.532 38.8394L143.165 39.4358L142.526 39.0421ZM140.435 42.4337L139.779 42.7968L139.567 42.4132L139.797 42.04L140.435 42.4337ZM74.3651 202.167L73.9901 201.517L74.3651 202.167ZM35.9892 211.823L35.3508 211.43L35.6059 211.016L36.0878 211.08L35.9892 211.823ZM33.7132 215.515L34.3516 215.908L33.9311 216.59L33.2783 216.126L33.7132 215.515ZM18.1067 204.406L17.6718 205.017L17.0952 204.606L17.4715 204.007L18.1067 204.406ZM1.74976 159.809C1.74976 180.393 8.14912 195.402 18.6143 203.756L17.6785 204.928C6.74016 196.197 0.249756 180.675 0.249756 159.809H1.74976ZM74.7401 33.3863C54.6217 45.0017 36.3656 64.9637 23.1375 87.8755C9.90935 110.787 1.74976 136.579 1.74976 159.809H0.249756C0.249756 136.253 8.51355 110.205 21.8385 87.1255C35.1634 64.0461 53.59 43.8653 73.9901 32.0873L74.7401 33.3863ZM127.884 29.5076C114.802 20.6854 95.9259 21.1547 74.7401 33.3863L73.9901 32.0873C95.4632 19.6898 114.994 19.0052 128.723 28.264L127.884 29.5076ZM127.668 28.487L127.672 28.4805L128.943 29.2781L128.938 29.2847L127.668 28.487ZM128.744 28.2691L129.026 28.4709L128.154 29.6913L127.871 29.4895L128.744 28.2691ZM129.131 30.3896C128.812 30.1534 128.49 29.9231 128.164 29.6987L129.015 28.4635C129.355 28.6977 129.692 28.938 130.024 29.1845L129.131 30.3896ZM130.014 29.1768L142.962 38.4319L142.09 39.6523L129.141 30.3972L130.014 29.1768ZM143.165 39.4358L141.074 42.8273L139.797 42.04L141.888 38.6485L143.165 39.4358ZM146.98 75.0943C146.98 61.9732 144.378 51.1091 139.779 42.7968L141.091 42.0706C145.841 50.6551 148.48 61.7832 148.48 75.0943H146.98ZM73.9901 201.517C94.1086 189.902 112.365 169.94 125.593 147.028C138.821 124.116 146.98 98.3251 146.98 75.0943H148.48C148.48 98.6503 140.217 124.699 126.892 147.778C113.567 170.857 95.1402 191.038 74.7401 202.816L73.9901 201.517ZM36.0878 211.08C47.0443 212.534 60.0211 209.582 73.9901 201.517L74.7401 202.816C60.5731 210.996 47.2635 214.076 35.8905 212.567L36.0878 211.08ZM36.6276 212.217L34.3516 215.908L33.0749 215.121L35.3508 211.43L36.6276 212.217ZM33.2783 216.126L17.6718 205.017L18.5416 203.795L34.1482 214.903L33.2783 216.126ZM17.4715 204.007L17.5112 203.944L18.7816 204.741L18.7419 204.804L17.4715 204.007Z" fill="#060606"/>
</mask>
<g mask="url(#mask0_3768_36792)">
<rect width="179.207" height="77.0557" transform="matrix(-0.866025 -0.5 0 1 68.5684 202.658)" fill="#B0F127"/>
</g>
<path d="M18.1464 204.346L18.6143 203.76L19.1376 204.178L18.7816 204.745L18.1464 204.346ZM74.3651 32.7407L74.7401 33.3902L74.7401 33.3902L74.3651 32.7407ZM128.303 28.8897L128.938 29.2886L128.526 29.9448L127.884 29.5115L128.303 28.8897ZM128.307 28.8832L127.672 28.4844L128.096 27.81L128.744 28.273L128.307 28.8832ZM128.59 29.085L128.164 29.7027L128.154 29.6952L128.59 29.085ZM129.577 29.7909L129.141 30.4012L129.131 30.3935L129.577 29.7909ZM142.526 39.046L142.962 38.4359L143.532 38.8433L143.165 39.4397L142.526 39.046ZM140.435 42.4376L139.779 42.8007L139.567 42.4171L139.797 42.0439L140.435 42.4376ZM74.3651 202.171L73.9901 201.521L74.3651 202.171ZM35.9892 211.827L35.3508 211.434L35.6059 211.02L36.0878 211.084L35.9892 211.827ZM33.7132 215.518L34.3516 215.912L33.9311 216.594L33.2783 216.129L33.7132 215.518ZM18.1067 204.409L17.6718 205.021L17.0952 204.61L17.4715 204.011L18.1067 204.409ZM1.74976 159.813C1.74976 180.396 8.14912 195.406 18.6143 203.76L17.6785 204.932C6.74016 196.2 0.249756 180.679 0.249756 159.813H1.74976ZM74.7401 33.3902C54.6217 45.0056 36.3656 64.9676 23.1375 87.8794C9.90935 110.791 1.74976 136.582 1.74976 159.813H0.249756C0.249756 136.257 8.51355 110.209 21.8385 87.1294C35.1634 64.05 53.59 43.8692 73.9901 32.0912L74.7401 33.3902ZM127.884 29.5115C114.802 20.6893 95.9259 21.1586 74.7401 33.3902L73.9901 32.0912C95.4632 19.6937 114.994 19.0091 128.723 28.2679L127.884 29.5115ZM127.668 28.4909L127.672 28.4844L128.943 29.282L128.938 29.2886L127.668 28.4909ZM128.744 28.273L129.026 28.4748L128.154 29.6952L127.871 29.4934L128.744 28.273ZM129.131 30.3935C128.812 30.1573 128.49 29.927 128.164 29.7026L129.015 28.4674C129.355 28.7016 129.692 28.942 130.024 29.1884L129.131 30.3935ZM130.014 29.1807L142.962 38.4359L142.09 39.6562L129.141 30.4011L130.014 29.1807ZM143.165 39.4397L141.074 42.8312L139.797 42.0439L141.888 38.6524L143.165 39.4397ZM146.98 75.0982C146.98 61.9771 144.378 51.113 139.779 42.8007L141.091 42.0745C145.841 50.6591 148.48 61.7871 148.48 75.0982H146.98ZM73.9901 201.521C94.1086 189.906 112.365 169.944 125.593 147.032C138.821 124.12 146.98 98.329 146.98 75.0982H148.48C148.48 98.6542 140.217 124.703 126.892 147.782C113.567 170.861 95.1402 191.042 74.7401 202.82L73.9901 201.521ZM36.0878 211.084C47.0443 212.538 60.0211 209.586 73.9901 201.521L74.7401 202.82C60.5731 211 47.2635 214.08 35.8905 212.571L36.0878 211.084ZM36.6276 212.221L34.3516 215.912L33.0749 215.125L35.3508 211.434L36.6276 212.221ZM33.2783 216.129L17.6718 205.021L18.5416 203.798L34.1482 214.907L33.2783 216.129ZM17.4715 204.011L17.5112 203.947L18.7816 204.745L18.7419 204.808L17.4715 204.011Z" fill="#060606"/>
<circle r="84.715" transform="matrix(-0.866025 0.5 0 1 87.869 127.073)" fill="white" stroke="#060606" stroke-width="1.5"/>
<mask id="mask1_3768_36792" style="mask-type:alpha" maskUnits="userSpaceOnUse" x="13" y="31" width="149" height="192">
<circle r="84.715" transform="matrix(-0.866025 0.5 0 1 87.869 127.073)" fill="#B0F127" stroke="#060606" stroke-width="1.5"/>
</mask>
<g mask="url(#mask1_3768_36792)">
<circle r="84.715" transform="matrix(-0.866025 0.5 0 1 87.869 127.073)" stroke="#060606" stroke-width="1.5"/>
<path d="M73.6966 142.438L86.9806 150.107L100.271 127.087L108.001 131.55L86.9806 167.959L65.9673 155.826L73.6966 142.438ZM52.7793 148.213L60.5092 152.676L68.2385 139.288L60.5087 134.826L52.7793 148.213ZM73.6966 129.833L86.9806 106.825L100.271 114.498L108.005 101.112L108.001 101.109L86.9806 88.9729L65.9666 125.37L65.9557 125.389L73.6966 129.833ZM105.724 117.641L113.454 122.104L121.183 108.716L113.453 104.253L105.724 117.641Z" fill="#060606"/>
<path d="M95.0222 123.828L95.0258 123.826L86.9821 137.758L81.0376 134.326L81.0373 134.327L80.3544 133.932L78.9458 133.118L78.9346 133.112L78.9458 133.092L86.9821 119.173L95.0258 123.817L95.0296 123.82L95.0222 123.828" fill="#060606"/>
</g>
</svg>
