<svg width="78" height="121" viewBox="0 0 78 121" fill="none" xmlns="http://www.w3.org/2000/svg">
<path fill-rule="evenodd" clip-rule="evenodd" d="M69.0111 97.1839C74.087 93.1319 77.1438 85.8914 77.1438 76.0617C77.1438 53.8705 61.5645 26.8862 42.3463 15.7906C32.2297 9.94977 23.1214 9.67614 16.7632 13.9641L16.7613 13.961L16.6274 14.0567C16.4695 14.1655 16.3133 14.2771 16.1589 14.3915L10.0172 18.7813L11.009 20.3899C8.79194 24.397 7.54883 29.6125 7.54883 35.881C7.54883 58.0721 23.1282 85.0564 42.3463 96.152C49.0188 100.004 55.2527 101.435 60.5482 100.732L61.6277 102.483L69.0299 97.2139L69.0111 97.1839Z" fill="#B0F127"/>
<path d="M69.0111 97.1839L68.5432 96.5977L68.0198 97.0155L68.3759 97.5827L69.0111 97.1839ZM42.3463 15.7906L41.9713 16.4401L41.9713 16.4401L42.3463 15.7906ZM16.7632 13.9641L16.128 14.3629L16.5401 15.0192L17.1826 14.5859L16.7632 13.9641ZM16.7613 13.961L17.3964 13.5622L16.973 12.8878L16.3252 13.3508L16.7613 13.961ZM16.6274 14.0567L17.0529 14.6744L17.0635 14.6669L16.6274 14.0567ZM16.1589 14.3915L16.595 15.0018L16.6054 14.9941L16.1589 14.3915ZM10.0172 18.7813L9.58104 18.1711L9.01102 18.5785L9.37876 19.1749L10.0172 18.7813ZM11.009 20.3899L11.6653 20.753L11.8775 20.3694L11.6474 19.9962L11.009 20.3899ZM42.3463 96.152L41.9713 96.8015L41.9713 96.8015L42.3463 96.152ZM60.5482 100.732L61.1866 100.339L60.9314 99.9247L60.4495 99.9887L60.5482 100.732ZM61.6277 102.483L60.9893 102.877L61.4098 103.559L62.0626 103.094L61.6277 102.483ZM69.0299 97.2139L69.4649 97.8249L70.0415 97.4144L69.6651 96.815L69.0299 97.2139ZM76.3938 76.0617C76.3938 85.7501 73.3825 92.7346 68.5432 96.5977L69.479 97.77C74.7915 93.5291 77.8938 86.0327 77.8938 76.0617H76.3938ZM41.9713 16.4401C51.4396 21.9066 60.0536 31.3172 66.3024 42.1403C72.5511 52.9634 76.3938 65.1287 76.3938 76.0617H77.8938C77.8938 64.8034 73.9469 52.381 67.6014 41.3903C61.2559 30.3996 52.4712 20.7702 42.7213 15.1411L41.9713 16.4401ZM17.1826 14.5859C23.2171 10.5162 31.9984 10.6822 41.9713 16.4401L42.7213 15.1411C32.461 9.21729 23.0257 8.83604 16.3439 13.3423L17.1826 14.5859ZM17.3984 13.5653L17.3964 13.5622L16.1261 14.3598L16.128 14.3629L17.3984 13.5653ZM16.3252 13.3508L16.1913 13.4465L17.0635 14.6669L17.1974 14.5712L16.3252 13.3508ZM16.6054 14.9941C16.7529 14.8848 16.9021 14.7782 17.0529 14.6743L16.2019 13.4391C16.0368 13.5528 15.8736 13.6694 15.7123 13.789L16.6054 14.9941ZM15.7228 13.7814L9.58104 18.1711L10.4533 19.3914L16.595 15.0017L15.7228 13.7814ZM9.37876 19.1749L10.3706 20.7835L11.6474 19.9962L10.6556 18.3876L9.37876 19.1749ZM8.29883 35.881C8.29883 29.7075 9.52351 24.624 11.6653 20.753L10.3528 20.0268C8.06037 24.1701 6.79883 29.5175 6.79883 35.881H8.29883ZM42.7213 95.5025C33.2531 90.036 24.639 80.6254 18.3903 69.8023C12.1416 58.9792 8.29883 46.8139 8.29883 35.881H6.79883C6.79883 47.1392 10.7458 59.5616 17.0913 70.5523C23.4368 81.543 32.2214 91.1724 41.9713 96.8015L42.7213 95.5025ZM60.4495 99.9887C55.3623 100.664 49.2949 99.2977 42.7213 95.5025L41.9713 96.8015C48.7428 100.711 55.1432 102.206 60.6469 101.476L60.4495 99.9887ZM59.9098 101.126L60.9893 102.877L62.2661 102.089L61.1866 100.339L59.9098 101.126ZM62.0626 103.094L69.4649 97.8249L68.595 96.6028L61.1928 101.872L62.0626 103.094ZM69.6651 96.815L69.6463 96.785L68.3759 97.5827L68.3948 97.6127L69.6651 96.815Z" fill="#060606"/>
<mask id="mask0_3768_36811" style="mask-type:alpha" maskUnits="userSpaceOnUse" x="6" y="10" width="72" height="94">
<path fill-rule="evenodd" clip-rule="evenodd" d="M69.0111 97.1819C74.087 93.1299 77.1438 85.8894 77.1438 76.0597C77.1438 53.8685 61.5645 26.8843 42.3463 15.7887C32.2297 9.94781 23.1214 9.67418 16.7632 13.9621L16.7613 13.959L16.6274 14.0547C16.4695 14.1635 16.3133 14.2751 16.1589 14.3896L10.0172 18.7793L11.009 20.3879C8.79194 24.3951 7.54883 29.6105 7.54883 35.879C7.54883 58.0702 23.1282 85.0545 42.3463 96.15C49.0188 100.002 55.2527 101.433 60.5482 100.73L61.6277 102.481L69.0299 97.2119L69.0111 97.1819Z" fill="#B0F127"/>
<path d="M69.0111 97.1819L68.5432 96.5958L68.0198 97.0136L68.3759 97.5807L69.0111 97.1819ZM42.3463 15.7887L41.9713 16.4382L41.9713 16.4382L42.3463 15.7887ZM16.7632 13.9621L16.1281 14.361L16.5401 15.0172L17.1826 14.5839L16.7632 13.9621ZM16.7613 13.959L17.3964 13.5602L16.973 12.8858L16.3252 13.3489L16.7613 13.959ZM16.6274 14.0547L17.0529 14.6724L17.0635 14.6649L16.6274 14.0547ZM16.1589 14.3896L16.595 14.9999L16.6054 14.9921L16.1589 14.3896ZM10.0172 18.7793L9.58104 18.1691L9.01102 18.5765L9.37876 19.1729L10.0172 18.7793ZM11.009 20.3879L11.6653 20.751L11.8775 20.3674L11.6474 19.9943L11.009 20.3879ZM42.3463 96.15L41.9713 96.7996L41.9713 96.7996L42.3463 96.15ZM60.5482 100.73L61.1866 100.337L60.9314 99.9228L60.4495 99.9867L60.5482 100.73ZM61.6277 102.481L60.9893 102.875L61.4098 103.557L62.0626 103.092L61.6277 102.481ZM69.0299 97.2119L69.4649 97.8229L70.0415 97.4125L69.6651 96.8131L69.0299 97.2119ZM76.3938 76.0597C76.3938 85.7481 73.3825 92.7326 68.5432 96.5958L69.479 97.768C74.7915 93.5272 77.8938 86.0308 77.8938 76.0597H76.3938ZM41.9713 16.4382C51.4396 21.9047 60.0536 31.3152 66.3024 42.1383C72.5511 52.9614 76.3938 65.1267 76.3938 76.0597H77.8938C77.8938 64.8015 73.9469 52.379 67.6014 41.3883C61.2559 30.3976 52.4712 20.7683 42.7213 15.1391L41.9713 16.4382ZM17.1826 14.5839C23.2171 10.5143 31.9984 10.6803 41.9713 16.4382L42.7213 15.1391C32.461 9.21534 23.0257 8.83409 16.3439 13.3403L17.1826 14.5839ZM17.3984 13.5633L17.3964 13.5602L16.1261 14.3579L16.1281 14.361L17.3984 13.5633ZM16.3252 13.3489L16.1913 13.4446L17.0635 14.6649L17.1974 14.5692L16.3252 13.3489ZM16.6054 14.9921C16.7529 14.8828 16.9021 14.7762 17.0529 14.6723L16.2019 13.4371C16.0368 13.5508 15.8736 13.6675 15.7123 13.787L16.6054 14.9921ZM15.7227 13.7794L9.58104 18.1691L10.4533 19.3895L16.595 14.9998L15.7227 13.7794ZM9.37876 19.1729L10.3706 20.7816L11.6474 19.9943L10.6556 18.3857L9.37876 19.1729ZM8.29883 35.879C8.29883 29.7056 9.52351 24.622 11.6653 20.751L10.3528 20.0248C8.06037 24.1681 6.79883 29.5155 6.79883 35.879H8.29883ZM42.7213 95.5005C33.2531 90.034 24.639 80.6235 18.3903 69.8004C12.1416 58.9773 8.29883 46.812 8.29883 35.879H6.79883C6.79883 47.1372 10.7458 59.5597 17.0913 70.5504C23.4368 81.5411 32.2214 91.1705 41.9713 96.7996L42.7213 95.5005ZM60.4495 99.9867C55.3623 100.662 49.2949 99.2958 42.7213 95.5005L41.9713 96.7996C48.7428 100.709 55.1432 102.204 60.6469 101.474L60.4495 99.9867ZM59.9098 101.124L60.9893 102.875L62.2661 102.087L61.1866 100.337L59.9098 101.124ZM62.0626 103.092L69.4649 97.8229L68.595 96.6009L61.1928 101.87L62.0626 103.092ZM69.6651 96.8131L69.6463 96.7831L68.3759 97.5807L68.3948 97.6107L69.6651 96.8131Z" fill="#060606"/>
</mask>
<g mask="url(#mask0_3768_36811)">
<rect width="84.9986" height="36.5479" transform="matrix(0.866025 -0.5 0 1 45.0957 96.3828)" fill="#B0F127"/>
</g>
<path d="M69.0111 97.1839L68.5432 96.5977L68.0198 97.0155L68.3759 97.5827L69.0111 97.1839ZM42.3463 15.7906L41.9713 16.4401L41.9713 16.4401L42.3463 15.7906ZM16.7632 13.9641L16.128 14.3629L16.5401 15.0192L17.1826 14.5859L16.7632 13.9641ZM16.7613 13.961L17.3964 13.5622L16.973 12.8878L16.3252 13.3508L16.7613 13.961ZM16.6274 14.0567L17.0529 14.6744L17.0635 14.6669L16.6274 14.0567ZM16.1589 14.3915L16.595 15.0018L16.6054 14.9941L16.1589 14.3915ZM10.0172 18.7813L9.58104 18.1711L9.01102 18.5785L9.37876 19.1749L10.0172 18.7813ZM11.009 20.3899L11.6653 20.753L11.8775 20.3694L11.6474 19.9962L11.009 20.3899ZM42.3463 96.152L41.9713 96.8015L41.9713 96.8015L42.3463 96.152ZM60.5482 100.732L61.1866 100.339L60.9314 99.9247L60.4495 99.9887L60.5482 100.732ZM61.6277 102.483L60.9893 102.877L61.4098 103.559L62.0626 103.094L61.6277 102.483ZM69.0299 97.2139L69.4649 97.8249L70.0415 97.4144L69.6651 96.815L69.0299 97.2139ZM76.3938 76.0617C76.3938 85.7501 73.3825 92.7346 68.5432 96.5977L69.479 97.77C74.7915 93.5291 77.8938 86.0327 77.8938 76.0617H76.3938ZM41.9713 16.4401C51.4396 21.9066 60.0536 31.3172 66.3024 42.1403C72.5511 52.9634 76.3938 65.1287 76.3938 76.0617H77.8938C77.8938 64.8034 73.9469 52.381 67.6014 41.3903C61.2559 30.3996 52.4712 20.7702 42.7213 15.1411L41.9713 16.4401ZM17.1826 14.5859C23.2171 10.5162 31.9984 10.6822 41.9713 16.4401L42.7213 15.1411C32.461 9.21729 23.0257 8.83604 16.3439 13.3423L17.1826 14.5859ZM17.3984 13.5653L17.3964 13.5622L16.1261 14.3598L16.128 14.3629L17.3984 13.5653ZM16.3252 13.3508L16.1913 13.4465L17.0635 14.6669L17.1974 14.5712L16.3252 13.3508ZM16.6054 14.9941C16.7529 14.8848 16.9021 14.7782 17.0529 14.6743L16.2019 13.4391C16.0368 13.5528 15.8736 13.6694 15.7123 13.789L16.6054 14.9941ZM15.7228 13.7814L9.58104 18.1711L10.4533 19.3914L16.595 15.0017L15.7228 13.7814ZM9.37876 19.1749L10.3706 20.7835L11.6474 19.9962L10.6556 18.3876L9.37876 19.1749ZM8.29883 35.881C8.29883 29.7075 9.52351 24.624 11.6653 20.753L10.3528 20.0268C8.06037 24.1701 6.79883 29.5175 6.79883 35.881H8.29883ZM42.7213 95.5025C33.2531 90.036 24.639 80.6254 18.3903 69.8023C12.1416 58.9792 8.29883 46.8139 8.29883 35.881H6.79883C6.79883 47.1392 10.7458 59.5616 17.0913 70.5523C23.4368 81.543 32.2214 91.1724 41.9713 96.8015L42.7213 95.5025ZM60.4495 99.9887C55.3623 100.664 49.2949 99.2977 42.7213 95.5025L41.9713 96.8015C48.7428 100.711 55.1432 102.206 60.6469 101.476L60.4495 99.9887ZM59.9098 101.126L60.9893 102.877L62.2661 102.089L61.1866 100.339L59.9098 101.126ZM62.0626 103.094L69.4649 97.8249L68.595 96.6028L61.1928 101.872L62.0626 103.094ZM69.6651 96.815L69.6463 96.785L68.3759 97.5827L68.3948 97.6127L69.6651 96.815Z" fill="#060606"/>
<circle r="40.1807" transform="matrix(0.866025 0.5 0 1 35.942 60.5328)" fill="white" stroke="#060606" stroke-width="1.5"/>
<mask id="mask1_3768_36811" style="mask-type:alpha" maskUnits="userSpaceOnUse" x="0" y="14" width="72" height="93">
<circle r="40.1807" transform="matrix(0.866025 0.5 0 1 35.942 60.5337)" fill="#B0F127" stroke="#060606" stroke-width="1.5"/>
</mask>
<g mask="url(#mask1_3768_36811)">
<path d="M25.94 63.6498C26.127 63.5445 26.3841 63.5685 26.6568 63.7259L51.3865 78.0036C51.8384 78.2645 52.0644 79.0171 51.7449 79.197L46.8598 81.9486C46.6728 82.0539 46.4157 82.0299 46.143 81.8725L21.4133 67.5948C20.9614 67.3339 20.7354 66.5814 21.0549 66.4014L25.94 63.6498Z" fill="#060606"/>
<path d="M25.94 42.8764C26.1348 42.7755 26.3919 42.7996 26.6568 42.9525L51.3865 57.2302C51.8384 57.4911 52.0644 58.2436 51.7449 58.4236L46.8598 61.1752C46.6728 61.2805 46.4157 61.2565 46.143 61.099L21.4133 46.8214C20.9614 46.5605 20.7354 45.8079 21.0549 45.628L25.94 42.8764Z" fill="#060606"/>
<path d="M46.8598 65.2903C46.6728 64.9691 46.4157 64.6962 46.143 64.5388L21.4133 50.2611C20.9614 50.0002 20.7354 50.4918 21.0549 51.0406L25.94 59.4331C26.127 59.7544 26.3841 60.0272 26.6568 60.1847L51.3865 74.4624C51.8384 74.7233 52.0644 74.2316 51.7449 73.6828L46.8598 65.2903Z" fill="#060606"/>
<circle r="40.1807" transform="matrix(0.866025 0.5 0 1 35.942 60.5337)" stroke="#060606" stroke-width="1.5"/>
</g>
</svg>
