<svg width="80" height="125" viewBox="0 0 80 125" fill="none" xmlns="http://www.w3.org/2000/svg">
<path fill-rule="evenodd" clip-rule="evenodd" d="M9.77968 100.05C4.57817 95.8982 1.44565 88.4789 1.44565 78.4063C1.44565 55.6675 17.4094 28.0175 37.1017 16.6481C47.4683 10.6629 56.8017 10.3827 63.3167 14.777L63.318 14.775L63.3975 14.8318C63.5983 14.9689 63.7963 15.1104 63.9916 15.2564L70.2285 19.7142L69.2127 21.3617C71.4842 25.4676 72.7578 30.8114 72.7578 37.2342C72.7578 59.9729 56.794 87.6229 37.1017 98.9923C30.2649 102.94 23.8776 104.405 18.4516 103.686L17.3446 105.481L9.75968 100.082L9.77968 100.05Z" fill="#B0F127"/>
<path d="M9.77968 100.05L10.2476 99.464L10.771 99.8818L10.4149 100.449L9.77968 100.05ZM37.1017 16.6481L37.4767 17.2976L37.4767 17.2976L37.1017 16.6481ZM63.3167 14.777L63.9519 15.1758L63.5398 15.8321L62.8974 15.3988L63.3167 14.777ZM63.318 14.775L62.6829 14.3761L63.1063 13.7018L63.7541 14.1648L63.318 14.775ZM63.3975 14.8318L62.9746 15.4512L62.968 15.4466L62.9614 15.442L63.3975 14.8318ZM63.9916 15.2564L63.5555 15.8666L63.549 15.8619L63.5426 15.8571L63.9916 15.2564ZM70.2285 19.7142L70.6646 19.104L71.2346 19.5114L70.8669 20.1078L70.2285 19.7142ZM69.2127 21.3617L68.5564 21.7247L68.3442 21.3411L68.5743 20.968L69.2127 21.3617ZM37.1017 98.9923L36.7267 98.3428L36.7267 98.3428L37.1017 98.9923ZM18.4516 103.686L17.8132 103.292L18.0684 102.878L18.5503 102.942L18.4516 103.686ZM17.3446 105.481L17.983 105.875L17.5624 106.557L16.9096 106.092L17.3446 105.481ZM9.75968 100.082L9.32475 100.693L8.74815 100.283L9.1245 99.6832L9.75968 100.082ZM2.19565 78.4063C2.19565 88.3376 5.28265 95.5009 10.2476 99.464L9.3118 100.636C3.8737 96.2956 0.695652 88.6203 0.695652 78.4063L2.19565 78.4063ZM37.4767 17.2976C27.7714 22.901 18.9427 32.5464 12.5386 43.6387C6.1345 54.7309 2.19565 67.1995 2.19565 78.4063L0.695652 78.4063C0.695652 66.8743 4.73869 54.1485 11.2396 42.8887C17.7404 31.6288 26.7397 21.7646 36.7267 15.9986L37.4767 17.2976ZM62.8974 15.3988C56.706 11.2228 47.6997 11.3954 37.4767 17.2976L36.7267 15.9986C47.237 9.93047 56.8974 9.54265 63.7361 14.1552L62.8974 15.3988ZM62.6816 14.3781L62.6829 14.3761L63.9532 15.1738L63.9519 15.1758L62.6816 14.3781ZM63.7541 14.1648L63.8336 14.2216L62.9614 15.442L62.8819 15.3851L63.7541 14.1648ZM63.5426 15.8571C63.3558 15.7175 63.1665 15.5822 62.9746 15.4512L63.8205 14.2124C64.0301 14.3556 64.2368 14.5033 64.4407 14.6557L63.5426 15.8571ZM64.4278 14.6463L70.6646 19.104L69.7924 20.3243L63.5555 15.8666L64.4278 14.6463ZM70.8669 20.1078L69.8511 21.7553L68.5743 20.968L69.5901 19.3205L70.8669 20.1078ZM72.0078 37.2342C72.0078 30.9065 70.7526 25.6945 68.5564 21.7247L69.8689 20.9986C72.2158 25.2406 73.5078 30.7164 73.5078 37.2342H72.0078ZM36.7267 98.3428C46.432 92.7394 55.2608 83.094 61.6649 72.0017C68.069 60.9095 72.0078 48.4409 72.0078 37.2342H73.5078C73.5078 48.7662 69.4648 61.4919 62.9639 72.7517C56.463 84.0116 47.4637 93.8758 37.4767 99.6418L36.7267 98.3428ZM18.5503 102.942C23.768 103.634 29.9889 102.233 36.7267 98.3428L37.4767 99.6418C30.541 103.646 23.9872 105.177 18.353 104.429L18.5503 102.942ZM19.09 104.079L17.983 105.875L16.7062 105.087L17.8132 103.292L19.09 104.079ZM16.9096 106.092L9.32475 100.693L10.1946 99.471L17.7795 104.87L16.9096 106.092ZM9.1245 99.6832L9.14451 99.6513L10.4149 100.449L10.3949 100.481L9.1245 99.6832Z" fill="#060606"/>
<mask id="mask0_3768_36831" style="mask-type:alpha" maskUnits="userSpaceOnUse" x="0" y="11" width="74" height="96">
<path fill-rule="evenodd" clip-rule="evenodd" d="M9.77578 100.046C4.57427 95.8943 1.44175 88.475 1.44175 78.4024C1.44175 55.6636 17.4055 28.0136 37.0978 16.6442C47.4644 10.659 56.7978 10.3788 63.3128 14.7731L63.3141 14.771L63.3936 14.8279C63.5944 14.965 63.7924 15.1065 63.9877 15.2525L70.2246 19.7103L69.2088 21.3577C71.4803 25.4636 72.7539 30.8075 72.7539 37.2303C72.7539 59.969 56.7901 87.619 37.0978 98.9884C30.261 102.936 23.8737 104.402 18.4477 103.682L17.3407 105.477L9.75577 100.078L9.77578 100.046Z" fill="#B0F127"/>
<path d="M9.77578 100.046L10.2437 99.4601L10.7671 99.8779L10.411 100.445L9.77578 100.046ZM37.0978 16.6442L37.4728 17.2937L37.4728 17.2937L37.0978 16.6442ZM63.3128 14.7731L63.948 15.1719L63.5359 15.8282L62.8935 15.3948L63.3128 14.7731ZM63.3141 14.771L62.6789 14.3722L63.1024 13.6979L63.7502 14.1609L63.3141 14.771ZM63.3936 14.8279L62.9707 15.4473L62.9641 15.4427L62.9575 15.4381L63.3936 14.8279ZM63.9877 15.2525L63.5516 15.8627L63.5451 15.858L63.5387 15.8532L63.9877 15.2525ZM70.2246 19.7103L70.6607 19.1001L71.2307 19.5075L70.863 20.1039L70.2246 19.7103ZM69.2088 21.3577L68.5525 21.7208L68.3403 21.3372L68.5704 20.9641L69.2088 21.3577ZM37.0978 98.9884L36.7228 98.3389L36.7228 98.3389L37.0978 98.9884ZM18.4477 103.682L17.8093 103.288L18.0645 102.874L18.5463 102.938L18.4477 103.682ZM17.3407 105.477L17.9791 105.871L17.5585 106.553L16.9057 106.088L17.3407 105.477ZM9.75577 100.078L9.32084 100.689L8.74425 100.279L9.12059 99.6793L9.75577 100.078ZM2.19175 78.4024C2.19175 88.3337 5.27874 95.497 10.2437 99.4601L9.3079 100.632C3.86979 96.2916 0.691746 88.6164 0.691746 78.4024L2.19175 78.4024ZM37.4728 17.2937C27.7675 22.8971 18.9388 32.5425 12.5347 43.6348C6.13059 54.727 2.19175 67.1956 2.19175 78.4024L0.691746 78.4024C0.691746 66.8704 4.73479 54.1446 11.2356 42.8848C17.7365 31.6249 26.7358 21.7607 36.7228 15.9947L37.4728 17.2937ZM62.8935 15.3948C56.7021 11.2189 47.6957 11.3915 37.4728 17.2937L36.7228 15.9947C47.2331 9.92656 56.8935 9.53874 63.7322 14.1513L62.8935 15.3948ZM62.6777 14.3742L62.6789 14.3722L63.9493 15.1699L63.948 15.1719L62.6777 14.3742ZM63.7502 14.1609L63.8297 14.2177L62.9575 15.4381L62.878 15.3812L63.7502 14.1609ZM63.5387 15.8532C63.3519 15.7136 63.1626 15.5783 62.9707 15.4473L63.8166 14.2085C64.0262 14.3517 64.2329 14.4994 64.4368 14.6518L63.5387 15.8532ZM64.4238 14.6423L70.6607 19.1001L69.7885 20.3204L63.5516 15.8627L64.4238 14.6423ZM70.863 20.1039L69.8472 21.7514L68.5704 20.9641L69.5862 19.3166L70.863 20.1039ZM72.0039 37.2303C72.0039 30.9025 70.7487 25.6906 68.5525 21.7208L69.865 20.9947C72.2119 25.2367 73.5039 30.7125 73.5039 37.2303H72.0039ZM36.7228 98.3389C46.4281 92.7355 55.2569 83.0901 61.661 71.9978C68.0651 60.9056 72.0039 48.437 72.0039 37.2303H73.5039C73.5039 48.7622 69.4609 61.488 62.96 72.7478C56.4591 84.0077 47.4598 93.8719 37.4728 99.6379L36.7228 98.3389ZM18.5463 102.938C23.7641 103.63 29.985 102.229 36.7228 98.3389L37.4728 99.6379C30.5371 103.642 23.9832 105.173 18.3491 104.425L18.5463 102.938ZM19.0861 104.075L17.9791 105.871L16.7023 105.083L17.8093 103.288L19.0861 104.075ZM16.9057 106.088L9.32084 100.689L10.1907 99.4671L17.7756 104.866L16.9057 106.088ZM9.12059 99.6793L9.1406 99.6474L10.411 100.445L10.3909 100.477L9.12059 99.6793Z" fill="#060606"/>
</mask>
<g mask="url(#mask0_3768_36831)">
<rect width="87.0958" height="37.4496" transform="matrix(-0.866025 -0.5 -2.84138e-08 1 34.2822 99.2285)" fill="#B0F127"/>
</g>
<path d="M9.77968 100.05L10.2476 99.464L10.771 99.8818L10.4149 100.449L9.77968 100.05ZM37.1017 16.6481L37.4767 17.2976L37.4767 17.2976L37.1017 16.6481ZM63.3167 14.777L63.9519 15.1758L63.5398 15.8321L62.8974 15.3988L63.3167 14.777ZM63.318 14.775L62.6829 14.3761L63.1063 13.7018L63.7541 14.1648L63.318 14.775ZM63.3975 14.8318L62.9746 15.4512L62.968 15.4466L62.9614 15.442L63.3975 14.8318ZM63.9916 15.2564L63.5555 15.8666L63.549 15.8619L63.5426 15.8571L63.9916 15.2564ZM70.2285 19.7142L70.6646 19.104L71.2346 19.5114L70.8669 20.1078L70.2285 19.7142ZM69.2127 21.3617L68.5564 21.7247L68.3442 21.3411L68.5743 20.968L69.2127 21.3617ZM37.1017 98.9923L36.7267 98.3428L36.7267 98.3428L37.1017 98.9923ZM18.4516 103.686L17.8132 103.292L18.0684 102.878L18.5503 102.942L18.4516 103.686ZM17.3446 105.481L17.983 105.875L17.5624 106.557L16.9096 106.092L17.3446 105.481ZM9.75968 100.082L9.32475 100.693L8.74815 100.283L9.1245 99.6832L9.75968 100.082ZM2.19565 78.4063C2.19565 88.3376 5.28265 95.5009 10.2476 99.464L9.3118 100.636C3.8737 96.2956 0.695652 88.6203 0.695652 78.4063L2.19565 78.4063ZM37.4767 17.2976C27.7714 22.901 18.9427 32.5464 12.5386 43.6387C6.1345 54.7309 2.19565 67.1995 2.19565 78.4063L0.695652 78.4063C0.695652 66.8743 4.73869 54.1485 11.2396 42.8887C17.7404 31.6288 26.7397 21.7646 36.7267 15.9986L37.4767 17.2976ZM62.8974 15.3988C56.706 11.2228 47.6997 11.3954 37.4767 17.2976L36.7267 15.9986C47.237 9.93047 56.8974 9.54265 63.7361 14.1552L62.8974 15.3988ZM62.6816 14.3781L62.6829 14.3761L63.9532 15.1738L63.9519 15.1758L62.6816 14.3781ZM63.7541 14.1648L63.8336 14.2216L62.9614 15.442L62.8819 15.3851L63.7541 14.1648ZM63.5426 15.8571C63.3558 15.7175 63.1665 15.5822 62.9746 15.4512L63.8205 14.2124C64.0301 14.3556 64.2368 14.5033 64.4407 14.6557L63.5426 15.8571ZM64.4278 14.6463L70.6646 19.104L69.7924 20.3243L63.5555 15.8666L64.4278 14.6463ZM70.8669 20.1078L69.8511 21.7553L68.5743 20.968L69.5901 19.3205L70.8669 20.1078ZM72.0078 37.2342C72.0078 30.9065 70.7526 25.6945 68.5564 21.7247L69.8689 20.9986C72.2158 25.2406 73.5078 30.7164 73.5078 37.2342H72.0078ZM36.7267 98.3428C46.432 92.7394 55.2608 83.094 61.6649 72.0017C68.069 60.9095 72.0078 48.4409 72.0078 37.2342H73.5078C73.5078 48.7662 69.4648 61.4919 62.9639 72.7517C56.463 84.0116 47.4637 93.8758 37.4767 99.6418L36.7267 98.3428ZM18.5503 102.942C23.768 103.634 29.9889 102.233 36.7267 98.3428L37.4767 99.6418C30.541 103.646 23.9872 105.177 18.353 104.429L18.5503 102.942ZM19.09 104.079L17.983 105.875L16.7062 105.087L17.8132 103.292L19.09 104.079ZM16.9096 106.092L9.32475 100.693L10.1946 99.471L17.7795 104.87L16.9096 106.092ZM9.1245 99.6832L9.14451 99.6513L10.4149 100.449L10.3949 100.481L9.1245 99.6832Z" fill="#060606"/>
<circle r="41.1721" transform="matrix(-0.866025 0.5 2.84138e-08 1 43.6642 62.4945)" fill="white" stroke="#060606" stroke-width="1.5"/>
<mask id="mask1_3768_36831" style="mask-type:alpha" maskUnits="userSpaceOnUse" x="7" y="15" width="73" height="95">
<circle r="41.1721" transform="matrix(-0.866025 0.5 2.84138e-08 1 43.6642 62.4945)" fill="#B0F127" stroke="#060606" stroke-width="1.5"/>
</mask>
<g mask="url(#mask1_3768_36831)">
<circle r="41.1721" transform="matrix(-0.866025 0.5 2.84138e-08 1 43.6642 62.4945)" stroke="#060606" stroke-width="1.5"/>
<path d="M43.6686 41.601L43.9111 42.413L43.9111 70.0388L43.6686 70.4585L32.563 69.2903L43.6686 41.601Z" fill="#060606"/>
<path d="M43.6669 41.6013L54.7725 56.467L43.6669 70.4589L43.6669 57.0501L43.6669 41.6013Z" fill="#060606"/>
<path d="M43.668 72.8895L43.8047 73.003L43.8047 82.8439L43.668 83.3839L32.5558 71.7289L43.668 72.8895Z" fill="#060606"/>
<path d="M43.6679 83.3789L43.6679 72.8845L54.7734 58.8965L43.6679 83.3789Z" fill="#060606"/>
<path d="M43.668 70.4613L32.5626 69.2931L43.668 57.0527L43.668 70.4613Z" fill="#060606"/>
<path d="M54.7725 56.4673L43.6671 70.459L43.6671 57.0504L54.7725 56.4673Z" fill="#060606"/>
</g>
</svg>
