<svg width="88" height="136" viewBox="0 0 88 136" fill="none" xmlns="http://www.w3.org/2000/svg">
<path fill-rule="evenodd" clip-rule="evenodd" d="M77.1684 109.022C82.8645 104.475 86.2948 96.3489 86.2948 85.3176C86.2948 60.4125 68.8101 30.1281 47.2417 17.6756C35.8883 11.1207 25.6665 10.8133 18.5308 15.625L18.5279 15.6204L18.3078 15.7777C18.1773 15.8684 18.048 15.9609 17.9197 16.0551L10.959 21.0302L12.0725 22.8361C9.58387 27.3335 8.18848 33.1872 8.18848 40.2229C8.18848 65.128 25.6732 95.4124 47.2417 107.865C54.7308 112.189 61.7275 113.794 67.6709 113.005L68.8814 114.968L77.1889 109.055L77.1684 109.022Z" fill="#B0F127"/>
<path d="M77.1684 109.022L76.7005 108.436L76.1771 108.854L76.5333 109.421L77.1684 109.022ZM47.2417 17.6756L46.8667 18.3251L47.2417 17.6756ZM18.5308 15.625L17.8956 16.0237L18.3076 16.68L18.9501 16.2468L18.5308 15.625ZM18.5279 15.6204L19.1631 15.2216L18.7397 14.5471L18.0918 15.0102L18.5279 15.6204ZM18.3078 15.7777L18.7361 16.3934L18.7439 16.3879L18.3078 15.7777ZM17.9197 16.0551L18.3559 16.6653L18.3636 16.6596L17.9197 16.0551ZM10.959 21.0302L10.5229 20.42L9.95285 20.8274L10.3206 21.4238L10.959 21.0302ZM12.0725 22.8361L12.7288 23.1992L12.941 22.8156L12.7109 22.4425L12.0725 22.8361ZM47.2417 107.865L46.8667 108.515L47.2417 107.865ZM67.6709 113.005L68.3093 112.612L68.0541 112.198L67.5722 112.262L67.6709 113.005ZM68.8814 114.968L68.243 115.362L68.6635 116.044L69.3163 115.579L68.8814 114.968ZM77.1889 109.055L77.6239 109.666L78.2005 109.256L77.8241 108.656L77.1889 109.055ZM85.5448 85.3176C85.5448 96.2076 82.16 104.077 76.7005 108.436L77.6364 109.608C83.569 104.872 87.0448 96.4902 87.0448 85.3176H85.5448ZM46.8667 18.3251C57.5101 24.47 67.1881 35.0449 74.2069 47.2019C81.2258 59.3589 85.5448 73.0277 85.5448 85.3176H87.0448C87.0448 72.7025 82.6216 58.7765 75.5059 46.4519C68.3903 34.1273 58.5417 23.3336 47.6167 17.026L46.8667 18.3251ZM18.9501 16.2468C25.7621 11.6534 35.657 11.8532 46.8667 18.3251L47.6167 17.026C36.1196 10.3882 25.5708 9.97323 18.1115 15.0031L18.9501 16.2468ZM19.166 15.2262L19.1631 15.2216L17.8927 16.0191L17.8956 16.0237L19.166 15.2262ZM18.0918 15.0102L17.8716 15.1675L18.7439 16.3879L18.964 16.2305L18.0918 15.0102ZM18.3636 16.6596C18.4867 16.5692 18.6109 16.4805 18.736 16.3934L17.8795 15.162C17.7438 15.2564 17.6093 15.3526 17.4759 15.4505L18.3636 16.6596ZM17.4836 15.4449L10.5229 20.42L11.3951 21.6403L18.3558 16.6652L17.4836 15.4449ZM10.3206 21.4238L11.4341 23.2297L12.7109 22.4425L11.5974 20.6365L10.3206 21.4238ZM8.93848 40.2229C8.93848 33.2822 10.3154 27.5604 12.7288 23.1992L11.4163 22.473C8.8523 27.1065 7.43848 33.0922 7.43848 40.2229H8.93848ZM47.6167 107.215C36.9733 101.071 27.2953 90.4957 20.2764 78.3387C13.2576 66.1817 8.93848 52.5129 8.93848 40.2229H7.43848C7.43848 52.8381 11.8618 66.7641 18.9774 79.0887C26.093 91.4133 35.9416 102.207 46.8667 108.515L47.6167 107.215ZM67.5722 112.262C61.8371 113.023 55.0068 111.482 47.6167 107.215L46.8667 108.515C54.4547 112.896 61.618 114.565 67.7696 113.749L67.5722 112.262ZM67.0325 113.399L68.243 115.362L69.5198 114.575L68.3093 112.612L67.0325 113.399ZM69.3163 115.579L77.6239 109.666L76.754 108.444L68.4465 114.357L69.3163 115.579ZM77.8241 108.656L77.8036 108.623L76.5333 109.421L76.5538 109.454L77.8241 108.656Z" fill="#060606"/>
<mask id="mask0_3768_36775" style="mask-type:alpha" maskUnits="userSpaceOnUse" x="7" y="11" width="81" height="106">
<path fill-rule="evenodd" clip-rule="evenodd" d="M77.1694 109.022C82.8655 104.475 86.2958 96.3489 86.2958 85.3176C86.2958 60.4125 68.8111 30.1281 47.2426 17.6756C35.8893 11.1207 25.6675 10.8133 18.5317 15.625L18.5289 15.6204L18.3087 15.7777C18.1783 15.8684 18.049 15.9609 17.9207 16.0551L10.96 21.0302L12.0735 22.8361C9.58485 27.3335 8.18945 33.1872 8.18945 40.2229C8.18945 65.128 25.6742 95.4124 47.2426 107.865C54.7317 112.189 61.7285 113.794 67.6719 113.005L68.8824 114.968L77.1899 109.055L77.1694 109.022Z" fill="#B0F127"/>
<path d="M77.1694 109.022L76.7015 108.436L76.1781 108.854L76.5343 109.421L77.1694 109.022ZM47.2426 17.6756L46.8676 18.3251L47.2426 17.6756ZM18.5317 15.625L17.8965 16.0237L18.3085 16.68L18.9511 16.2468L18.5317 15.625ZM18.5289 15.6204L19.1641 15.2216L18.7407 14.5471L18.0928 15.0102L18.5289 15.6204ZM18.3087 15.7777L18.7371 16.3934L18.7448 16.3879L18.3087 15.7777ZM17.9207 16.0551L18.3568 16.6653L18.3645 16.6596L17.9207 16.0551ZM10.96 21.0302L10.5238 20.42L9.95383 20.8274L10.3216 21.4238L10.96 21.0302ZM12.0735 22.8361L12.7297 23.1992L12.942 22.8156L12.7119 22.4425L12.0735 22.8361ZM47.2426 107.865L46.8676 108.515L47.2426 107.865ZM67.6719 113.005L68.3103 112.612L68.0551 112.198L67.5732 112.262L67.6719 113.005ZM68.8824 114.968L68.244 115.362L68.6645 116.044L69.3173 115.579L68.8824 114.968ZM77.1899 109.055L77.6248 109.666L78.2015 109.256L77.8251 108.656L77.1899 109.055ZM85.5458 85.3176C85.5458 96.2076 82.161 104.077 76.7015 108.436L77.6374 109.608C83.57 104.872 87.0458 96.4902 87.0458 85.3176H85.5458ZM46.8676 18.3251C57.511 24.47 67.189 35.0449 74.2079 47.2019C81.2267 59.3589 85.5458 73.0277 85.5458 85.3176H87.0458C87.0458 72.7025 82.6225 58.7765 75.5069 46.4519C68.3913 34.1273 58.5427 23.3336 47.6176 17.026L46.8676 18.3251ZM18.9511 16.2468C25.7631 11.6534 35.6579 11.8532 46.8676 18.3251L47.6176 17.026C36.1206 10.3882 25.5718 9.97323 18.1124 15.0031L18.9511 16.2468ZM19.167 15.2262L19.1641 15.2216L17.8937 16.0191L17.8965 16.0237L19.167 15.2262ZM18.0928 15.0102L17.8726 15.1675L18.7448 16.3879L18.965 16.2305L18.0928 15.0102ZM18.3645 16.6596C18.4877 16.5692 18.6119 16.4805 18.737 16.3934L17.8804 15.162C17.7448 15.2564 17.6102 15.3526 17.4768 15.4505L18.3645 16.6596ZM17.4846 15.4449L10.5238 20.42L11.3961 21.6403L18.3568 16.6652L17.4846 15.4449ZM10.3216 21.4238L11.4351 23.2297L12.7119 22.4425L11.5984 20.6365L10.3216 21.4238ZM8.93945 40.2229C8.93945 33.2822 10.3164 27.5604 12.7297 23.1992L11.4173 22.473C8.85328 27.1065 7.43945 33.0922 7.43945 40.2229H8.93945ZM47.6176 107.215C36.9742 101.071 27.2962 90.4957 20.2774 78.3387C13.2585 66.1817 8.93945 52.5129 8.93945 40.2229H7.43945C7.43945 52.8381 11.8627 66.7641 18.9783 79.0887C26.094 91.4133 35.9426 102.207 46.8676 108.515L47.6176 107.215ZM67.5732 112.262C61.838 113.023 55.0078 111.482 47.6176 107.215L46.8676 108.515C54.4557 112.896 61.6189 114.565 67.7706 113.749L67.5732 112.262ZM67.0335 113.399L68.244 115.362L69.5208 114.575L68.3103 112.612L67.0335 113.399ZM69.3173 115.579L77.6248 109.666L76.755 108.444L68.4474 114.357L69.3173 115.579ZM77.8251 108.656L77.8046 108.623L76.5343 109.421L76.5548 109.454L77.8251 108.656Z" fill="#060606"/>
</mask>
<g mask="url(#mask0_3768_36775)">
<rect width="95.3938" height="41.0176" transform="matrix(0.866025 -0.5 2.65795e-08 1 50.3281 108.128)" fill="#B0F127"/>
</g>
<path d="M77.1684 109.022L76.7005 108.436L76.1771 108.854L76.5333 109.421L77.1684 109.022ZM47.2417 17.6756L46.8667 18.3251L47.2417 17.6756ZM18.5308 15.625L17.8956 16.0237L18.3076 16.68L18.9501 16.2468L18.5308 15.625ZM18.5279 15.6204L19.1631 15.2216L18.7397 14.5471L18.0918 15.0102L18.5279 15.6204ZM18.3078 15.7777L18.7361 16.3934L18.7439 16.3879L18.3078 15.7777ZM17.9197 16.0551L18.3559 16.6653L18.3636 16.6596L17.9197 16.0551ZM10.959 21.0302L10.5229 20.42L9.95285 20.8274L10.3206 21.4238L10.959 21.0302ZM12.0725 22.8361L12.7288 23.1992L12.941 22.8156L12.7109 22.4425L12.0725 22.8361ZM47.2417 107.865L46.8667 108.515L47.2417 107.865ZM67.6709 113.005L68.3093 112.612L68.0541 112.198L67.5722 112.262L67.6709 113.005ZM68.8814 114.968L68.243 115.362L68.6635 116.044L69.3163 115.579L68.8814 114.968ZM77.1889 109.055L77.6239 109.666L78.2005 109.256L77.8241 108.656L77.1889 109.055ZM85.5448 85.3176C85.5448 96.2076 82.16 104.077 76.7005 108.436L77.6364 109.608C83.569 104.872 87.0448 96.4902 87.0448 85.3176H85.5448ZM46.8667 18.3251C57.5101 24.47 67.1881 35.0449 74.2069 47.2019C81.2258 59.3589 85.5448 73.0277 85.5448 85.3176H87.0448C87.0448 72.7025 82.6216 58.7765 75.5059 46.4519C68.3903 34.1273 58.5417 23.3336 47.6167 17.026L46.8667 18.3251ZM18.9501 16.2468C25.7621 11.6534 35.657 11.8532 46.8667 18.3251L47.6167 17.026C36.1196 10.3882 25.5708 9.97323 18.1115 15.0031L18.9501 16.2468ZM19.166 15.2262L19.1631 15.2216L17.8927 16.0191L17.8956 16.0237L19.166 15.2262ZM18.0918 15.0102L17.8716 15.1675L18.7439 16.3879L18.964 16.2305L18.0918 15.0102ZM18.3636 16.6596C18.4867 16.5692 18.6109 16.4805 18.736 16.3934L17.8795 15.162C17.7438 15.2564 17.6093 15.3526 17.4759 15.4505L18.3636 16.6596ZM17.4836 15.4449L10.5229 20.42L11.3951 21.6403L18.3558 16.6652L17.4836 15.4449ZM10.3206 21.4238L11.4341 23.2297L12.7109 22.4425L11.5974 20.6365L10.3206 21.4238ZM8.93848 40.2229C8.93848 33.2822 10.3154 27.5604 12.7288 23.1992L11.4163 22.473C8.8523 27.1065 7.43848 33.0922 7.43848 40.2229H8.93848ZM47.6167 107.215C36.9733 101.071 27.2953 90.4957 20.2764 78.3387C13.2576 66.1817 8.93848 52.5129 8.93848 40.2229H7.43848C7.43848 52.8381 11.8618 66.7641 18.9774 79.0887C26.093 91.4133 35.9416 102.207 46.8667 108.515L47.6167 107.215ZM67.5722 112.262C61.8371 113.023 55.0068 111.482 47.6167 107.215L46.8667 108.515C54.4547 112.896 61.618 114.565 67.7696 113.749L67.5722 112.262ZM67.0325 113.399L68.243 115.362L69.5198 114.575L68.3093 112.612L67.0325 113.399ZM69.3163 115.579L77.6239 109.666L76.754 108.444L68.4465 114.357L69.3163 115.579ZM77.8241 108.656L77.8036 108.623L76.5333 109.421L76.5538 109.454L77.8241 108.656Z" fill="#060606"/>
<circle r="45.0947" transform="matrix(0.866025 0.5 -2.65795e-08 1 40.0532 67.8911)" fill="white" stroke="#060606" stroke-width="1.5"/>
<mask id="mask1_3768_36775" style="mask-type:alpha" maskUnits="userSpaceOnUse" x="0" y="16" width="80" height="104">
<circle r="45.0947" transform="matrix(0.866025 0.5 -2.65795e-08 1 40.0532 67.8911)" fill="#B0F127" stroke="#060606" stroke-width="1.5"/>
</mask>
<g mask="url(#mask1_3768_36775)">
<circle r="45.0947" transform="matrix(0.866025 0.5 -2.65795e-08 1 40.0532 67.8911)" stroke="#060606" stroke-width="1.5"/>
<path fill-rule="evenodd" clip-rule="evenodd" d="M55.0331 76.5387C55.0331 86.0912 48.3269 89.963 40.0541 85.1868C31.7815 80.4106 25.0752 68.795 25.0752 59.2425C25.0752 49.6901 31.7815 45.8182 40.0541 50.5944C48.3269 55.3706 55.0331 66.9862 55.0331 76.5387ZM35.8095 72.323L32.9025 70.6446C32.2917 70.2919 31.99 70.1177 31.806 69.8756C31.6073 69.6121 31.4858 69.2956 31.4711 69.0151C31.4601 68.7581 31.611 68.5392 31.9127 68.1016L39.0904 57.6367C39.3958 57.1927 39.5504 56.9717 39.7454 56.9696C39.9551 56.9675 40.2054 57.1119 40.4151 57.3562C40.6102 57.5836 40.7647 57.983 41.0701 58.7797L42.5457 62.6059L42.5532 62.6254C42.8831 63.4814 43.0504 63.9155 43.1234 64.3118C43.2044 64.7452 43.2044 65.1531 43.1234 65.4931C43.0498 65.8075 42.8842 66.0518 42.5494 66.5341L38.7791 72.0531L38.7693 72.0672C38.4373 72.5465 38.269 72.7895 38.0358 72.9114C37.7819 73.0453 37.4765 73.0728 37.1416 72.9944C36.8362 72.9157 36.494 72.7181 35.8095 72.323ZM43.1506 76.5614L47.316 78.9662C47.9305 79.321 48.2397 79.4995 48.4238 79.4658C48.6225 79.4317 48.7475 79.2531 48.7587 78.9878C48.7692 78.7514 48.6217 78.372 48.3324 77.6288C48.3225 77.6034 48.3125 77.5777 48.3023 77.5515L46.2158 72.2253L46.1921 72.1652C45.8989 71.4234 45.7509 71.0489 45.5608 70.8274C45.3512 70.5831 45.1045 70.4407 44.8948 70.4429C44.7035 70.4471 44.549 70.6596 44.2435 71.0909L42.1645 74.012L42.1574 74.0221C41.853 74.453 41.7009 74.6684 41.7119 74.9234C41.7266 75.2039 41.848 75.5246 42.0467 75.7881C42.227 76.0281 42.5361 76.2066 43.1506 76.5614Z" fill="#060606"/>
</g>
</svg>
