<svg width="100" height="100" viewBox="0 0 100 100" fill="none" xmlns="http://www.w3.org/2000/svg">
<circle cx="50" cy="50" r="50" fill="#141414"/>
<path d="M25.9258 9.06641C25.9258 7.40955 27.089 6.73798 28.5239 7.56641L80.6035 37.6346C82.0384 38.463 83.2016 40.4777 83.2016 42.1346L83.2016 79.8967C83.2016 82.6581 81.2629 83.7774 78.8714 82.3967L28.5239 53.3285C27.089 52.5001 25.9258 50.4854 25.9258 48.8285L25.9258 9.06641Z" fill="white" stroke="#060606" stroke-width="1.5"/>
<path d="M25.9258 30.8965L83.2016 63.9647L83.2016 44.1317C83.2016 41.3703 81.2629 38.0124 78.8714 36.6317L28.5239 7.56352C27.089 6.73509 25.9258 7.40667 25.9258 9.06352L25.9258 30.8965Z" fill="#71A407"/>
<path d="M25.9258 30.8965L83.2016 63.9647L25.9258 30.8965ZM83.8511 44.5067C83.8511 41.3311 81.6216 37.4695 78.8714 35.8817L28.5239 6.81352C26.7303 5.77799 25.2763 6.61745 25.2763 8.68852L26.5753 9.43852C26.5753 8.19588 27.4477 7.6922 28.5239 8.31352L78.8714 37.3817C80.9042 38.5553 82.5521 41.4095 82.5521 43.7567L83.8511 44.5067ZM28.5239 6.81352C26.7303 5.77799 25.2763 6.61745 25.2763 8.68852L25.2763 30.5215L26.5753 31.2715L26.5753 9.43852C26.5753 8.19588 27.4477 7.6922 28.5239 8.31352L28.5239 6.81352ZM83.8511 64.3397L83.8511 44.5067C83.8511 41.3311 81.6216 37.4695 78.8714 35.8817L78.8714 37.3817C80.9042 38.5553 82.5521 41.4095 82.5521 43.7567L82.5521 63.5897L83.8511 64.3397Z" fill="#060606"/>
<path d="M16.7979 15.4141C16.7979 13.7572 17.961 13.0856 19.3959 13.9141L71.4756 43.9823C72.9105 44.8107 74.0736 46.8254 74.0736 48.4823L74.0736 86.2444C74.0736 89.0058 72.135 90.1251 69.7435 88.7444L19.3959 59.6762C17.961 58.8478 16.7979 56.833 16.7979 55.1762L16.7979 15.4141Z" fill="#B0F127" stroke="#060606" stroke-width="1.5"/>
<path d="M36.8336 45.5647L31.2344 47.7199L36.8336 56.3405" stroke="black" stroke-width="2" stroke-linecap="square"/>
<path d="M51.7637 54.1836L57.3629 62.8042L51.7637 64.9593" stroke="black" stroke-width="2" stroke-linecap="square"/>
<path d="M48.032 45.5642L40.5664 64.9605" stroke="black" stroke-width="2" stroke-linecap="square"/>
<path d="M16.7979 21.4434L74.0736 54.5116L74.0736 50.7512C74.0736 47.9898 72.135 44.6319 69.7435 43.2512L19.3959 14.183C17.961 13.3546 16.7979 14.0261 16.7979 15.683L16.7979 21.4434Z" fill="#060606"/>
<path d="M16.7979 21.4434L74.0736 54.5116L16.7979 21.4434ZM74.7232 51.1262C74.7232 47.9506 72.4937 44.089 69.7435 42.5012L19.3959 13.433C17.6023 12.3975 16.1483 13.2369 16.1483 15.308L17.4474 16.058C17.4474 14.8154 18.3198 14.3117 19.3959 14.933L69.7435 44.0012C71.7763 45.1748 73.4241 48.029 73.4241 50.3762L74.7232 51.1262ZM19.3959 13.433C17.6023 12.3975 16.1483 13.2369 16.1483 15.308L16.1483 21.0684L17.4474 21.8184L17.4474 16.058C17.4474 14.8154 18.3198 14.3117 19.3959 14.933L19.3959 13.433ZM74.7232 54.8866L74.7232 51.1262C74.7232 47.9506 72.4937 44.089 69.7435 42.5012L69.7435 44.0012C71.7763 45.1748 73.4241 48.029 73.4241 50.3762L73.4241 54.1366L74.7232 54.8866Z" fill="#060606"/>
</svg>
