<svg width="100" height="100" viewBox="0 0 100 100" fill="none" xmlns="http://www.w3.org/2000/svg">
<circle cx="50" cy="50" r="50" fill="#141414"/>
<path fill-rule="evenodd" clip-rule="evenodd" d="M28.0378 16.4612C29.4727 15.6327 31.7991 15.6327 33.234 16.4612L55.3935 29.255C55.6068 29.3781 55.7884 29.5127 55.9383 29.6552L75.0907 40.7128C76.5255 41.5413 77.6887 43.556 77.6887 45.2128V71.3663C77.6887 71.3766 77.6887 71.3868 77.6886 71.397V77.4357C77.6886 79.0925 76.5254 81.1073 75.0905 81.9357L71.5131 84.0011C70.0782 84.8295 68.915 84.158 68.915 82.5011V69.3008L37.5844 51.2121C36.1495 50.3836 34.9863 48.3689 34.9863 46.7121L34.9863 29.51L22.8096 22.4797C21.3747 21.6513 21.3747 20.3081 22.8096 19.4797L28.0378 16.4612Z" fill="white"/>
<path d="M33.234 16.4612L32.859 17.1107L32.859 17.1107L33.234 16.4612ZM28.0378 16.4612L27.6628 15.8116L27.6628 15.8116L28.0378 16.4612ZM55.3935 29.255L55.7685 28.6054L55.7685 28.6054L55.3935 29.255ZM55.9383 29.6552L55.4215 30.1987L55.4861 30.2602L55.5633 30.3048L55.9383 29.6552ZM75.0907 40.7128L75.4657 40.0633L75.4657 40.0633L75.0907 40.7128ZM77.6886 71.397L76.9386 71.3905V71.397H77.6886ZM75.0905 81.9357L74.7155 81.2862L74.7155 81.2862L75.0905 81.9357ZM71.5131 84.0011L71.1381 83.3516L71.1381 83.3516L71.5131 84.0011ZM68.915 69.3008H69.665V68.8678L69.29 68.6513L68.915 69.3008ZM37.5844 51.2121L37.9594 50.5625L37.9594 50.5625L37.5844 51.2121ZM34.9863 46.7121L34.2363 46.7121V46.7121H34.9863ZM34.9863 29.51L35.7363 29.51L35.7363 29.0769L35.3613 28.8604L34.9863 29.51ZM22.8096 22.4797L22.4346 23.1292L22.4346 23.1292L22.8096 22.4797ZM22.8096 19.4797L22.4346 18.8302L22.8096 19.4797ZM33.609 15.8116C32.7507 15.3161 31.673 15.0898 30.6359 15.0898C29.5988 15.0898 28.5211 15.3161 27.6628 15.8116L28.4128 17.1107C28.9894 16.7778 29.7923 16.5898 30.6359 16.5898C31.4794 16.5898 32.2824 16.7778 32.859 17.1107L33.609 15.8116ZM55.7685 28.6054L33.609 15.8116L32.859 17.1107L55.0185 29.9045L55.7685 28.6054ZM56.4552 29.1118C56.2572 28.9235 56.0265 28.7544 55.7685 28.6054L55.0185 29.9045C55.1871 30.0018 55.3197 30.1019 55.4215 30.1987L56.4552 29.1118ZM75.4657 40.0633L56.3133 29.0057L55.5633 30.3048L74.7157 41.3624L75.4657 40.0633ZM78.4387 45.2128C78.4387 44.2218 78.0958 43.1753 77.5773 42.2772C77.0588 41.379 76.3239 40.5589 75.4657 40.0633L74.7157 41.3624C75.2923 41.6953 75.8565 42.2966 76.2783 43.0272C76.7 43.7577 76.9387 44.547 76.9387 45.2128H78.4387ZM78.4387 71.3663V45.2128H76.9387V71.3663H78.4387ZM78.4386 71.4034C78.4387 71.3912 78.4387 71.3788 78.4387 71.3663H76.9387C76.9387 71.3743 76.9387 71.3824 76.9386 71.3905L78.4386 71.4034ZM76.9386 71.397V77.4357H78.4386V71.397H76.9386ZM76.9386 77.4357C76.9386 78.1015 76.6999 78.8908 76.2781 79.6213C75.8564 80.3519 75.2921 80.9533 74.7155 81.2862L75.4655 82.5852C76.3238 82.0897 77.0586 81.2695 77.5772 80.3713C78.0957 79.4732 78.4386 78.4267 78.4386 77.4357H76.9386ZM74.7155 81.2862L71.1381 83.3516L71.8881 84.6506L75.4655 82.5852L74.7155 81.2862ZM71.1381 83.3516C70.5573 83.6869 70.2073 83.6238 70.051 83.5336C69.8947 83.4433 69.665 83.1718 69.665 82.5011H68.165C68.165 83.4873 68.517 84.38 69.301 84.8326C70.085 85.2853 71.034 85.1437 71.8881 84.6506L71.1381 83.3516ZM69.665 82.5011V69.3008H68.165V82.5011H69.665ZM37.2094 51.8616L68.54 69.9503L69.29 68.6513L37.9594 50.5625L37.2094 51.8616ZM34.2363 46.7121C34.2363 47.7031 34.5792 48.7496 35.0978 49.6477C35.6163 50.5459 36.3511 51.366 37.2094 51.8616L37.9594 50.5625C37.3828 50.2296 36.8186 49.6283 36.3968 48.8977C35.975 48.1672 35.7363 47.3779 35.7363 46.7121H34.2363ZM34.2363 29.51L34.2363 46.7121L35.7363 46.7121L35.7363 29.51L34.2363 29.51ZM22.4346 23.1292L34.6113 30.1595L35.3613 28.8604L23.1846 21.8302L22.4346 23.1292ZM22.4346 18.8302C21.5805 19.3233 20.9834 20.0744 20.9834 20.9797C20.9834 21.885 21.5805 22.6361 22.4346 23.1292L23.1846 21.8302C22.6038 21.4948 22.4834 21.1602 22.4834 20.9797C22.4834 20.7992 22.6038 20.4645 23.1846 20.1292L22.4346 18.8302ZM27.6628 15.8116L22.4346 18.8302L23.1846 20.1292L28.4128 17.1107L27.6628 15.8116Z" fill="#060606"/>
<mask id="mask0_3774_36809" style="mask-type:alpha" maskUnits="userSpaceOnUse" x="20" y="15" width="59" height="71">
<path fill-rule="evenodd" clip-rule="evenodd" d="M28.0378 16.4612C29.4727 15.6327 31.7991 15.6327 33.234 16.4612L55.3935 29.255C55.6068 29.3781 55.7884 29.5127 55.9383 29.6552L75.0907 40.7128C76.5255 41.5413 77.6887 43.556 77.6887 45.2128V71.3663C77.6887 71.3766 77.6887 71.3868 77.6886 71.397V77.4357C77.6886 79.0925 76.5254 81.1073 75.0905 81.9357L71.5131 84.0011C70.0782 84.8295 68.915 84.158 68.915 82.5011V69.3008L37.5844 51.2121C36.1495 50.3836 34.9863 48.3689 34.9863 46.7121L34.9863 29.51L22.8096 22.4797C21.3747 21.6513 21.3747 20.3081 22.8096 19.4797L28.0378 16.4612Z" fill="#71A407"/>
<path d="M33.234 16.4612L32.859 17.1107L32.859 17.1107L33.234 16.4612ZM28.0378 16.4612L27.6628 15.8116L27.6628 15.8116L28.0378 16.4612ZM55.3935 29.255L55.7685 28.6054L55.7685 28.6054L55.3935 29.255ZM55.9383 29.6552L55.4215 30.1987L55.4861 30.2602L55.5633 30.3048L55.9383 29.6552ZM75.0907 40.7128L75.4657 40.0633L75.4657 40.0633L75.0907 40.7128ZM77.6886 71.397L76.9386 71.3905V71.397H77.6886ZM75.0905 81.9357L74.7155 81.2862L74.7155 81.2862L75.0905 81.9357ZM71.5131 84.0011L71.1381 83.3516L71.1381 83.3516L71.5131 84.0011ZM68.915 69.3008H69.665V68.8678L69.29 68.6513L68.915 69.3008ZM37.5844 51.2121L37.9594 50.5625L37.9594 50.5625L37.5844 51.2121ZM34.9863 46.7121L34.2363 46.7121V46.7121H34.9863ZM34.9863 29.51L35.7363 29.51L35.7363 29.0769L35.3613 28.8604L34.9863 29.51ZM22.8096 22.4797L22.4346 23.1292L22.4346 23.1292L22.8096 22.4797ZM22.8096 19.4797L22.4346 18.8302L22.8096 19.4797ZM33.609 15.8116C32.7507 15.3161 31.673 15.0898 30.6359 15.0898C29.5988 15.0898 28.5211 15.3161 27.6628 15.8116L28.4128 17.1107C28.9894 16.7778 29.7923 16.5898 30.6359 16.5898C31.4794 16.5898 32.2824 16.7778 32.859 17.1107L33.609 15.8116ZM55.7685 28.6054L33.609 15.8116L32.859 17.1107L55.0185 29.9045L55.7685 28.6054ZM56.4552 29.1118C56.2572 28.9235 56.0265 28.7544 55.7685 28.6054L55.0185 29.9045C55.1871 30.0018 55.3197 30.1019 55.4215 30.1987L56.4552 29.1118ZM75.4657 40.0633L56.3133 29.0057L55.5633 30.3048L74.7157 41.3624L75.4657 40.0633ZM78.4387 45.2128C78.4387 44.2218 78.0958 43.1753 77.5773 42.2772C77.0588 41.379 76.3239 40.5589 75.4657 40.0633L74.7157 41.3624C75.2923 41.6953 75.8565 42.2966 76.2783 43.0272C76.7 43.7577 76.9387 44.547 76.9387 45.2128H78.4387ZM78.4387 71.3663V45.2128H76.9387V71.3663H78.4387ZM78.4386 71.4034C78.4387 71.3912 78.4387 71.3788 78.4387 71.3663H76.9387C76.9387 71.3743 76.9387 71.3824 76.9386 71.3905L78.4386 71.4034ZM76.9386 71.397V77.4357H78.4386V71.397H76.9386ZM76.9386 77.4357C76.9386 78.1015 76.6999 78.8908 76.2781 79.6213C75.8564 80.3519 75.2921 80.9533 74.7155 81.2862L75.4655 82.5852C76.3238 82.0897 77.0586 81.2695 77.5772 80.3713C78.0957 79.4732 78.4386 78.4267 78.4386 77.4357H76.9386ZM74.7155 81.2862L71.1381 83.3516L71.8881 84.6506L75.4655 82.5852L74.7155 81.2862ZM71.1381 83.3516C70.5573 83.6869 70.2073 83.6238 70.051 83.5336C69.8947 83.4433 69.665 83.1718 69.665 82.5011H68.165C68.165 83.4873 68.517 84.38 69.301 84.8326C70.085 85.2853 71.034 85.1437 71.8881 84.6506L71.1381 83.3516ZM69.665 82.5011V69.3008H68.165V82.5011H69.665ZM37.2094 51.8616L68.54 69.9503L69.29 68.6513L37.9594 50.5625L37.2094 51.8616ZM34.2363 46.7121C34.2363 47.7031 34.5792 48.7496 35.0978 49.6477C35.6163 50.5459 36.3511 51.366 37.2094 51.8616L37.9594 50.5625C37.3828 50.2296 36.8186 49.6283 36.3968 48.8977C35.975 48.1672 35.7363 47.3779 35.7363 46.7121H34.2363ZM34.2363 29.51L34.2363 46.7121L35.7363 46.7121L35.7363 29.51L34.2363 29.51ZM22.4346 23.1292L34.6113 30.1595L35.3613 28.8604L23.1846 21.8302L22.4346 23.1292ZM22.4346 18.8302C21.5805 19.3233 20.9834 20.0744 20.9834 20.9797C20.9834 21.885 21.5805 22.6361 22.4346 23.1292L23.1846 21.8302C22.6038 21.4948 22.4834 21.1602 22.4834 20.9797C22.4834 20.7992 22.6038 20.4645 23.1846 20.1292L22.4346 18.8302ZM27.6628 15.8116L22.4346 18.8302L23.1846 20.1292L28.4128 17.1107L27.6628 15.8116Z" fill="#060606"/>
</mask>
<g mask="url(#mask0_3774_36809)">
<path d="M67.0635 51.5645C67.0635 49.9076 68.2267 47.8929 69.6616 47.0645L79.915 41.1446L79.915 79.3442C79.915 81.0011 78.7518 83.0158 77.3169 83.8442L69.6616 88.264C68.2267 89.0925 67.0635 88.4209 67.0635 86.764L67.0635 51.5645Z" fill="#71A407"/>
</g>
<path d="M33.234 16.4612L32.859 17.1107L32.859 17.1107L33.234 16.4612ZM28.0378 16.4612L27.6628 15.8116L27.6628 15.8116L28.0378 16.4612ZM55.3935 29.255L55.7685 28.6054L55.7685 28.6054L55.3935 29.255ZM55.9383 29.6552L55.4215 30.1987L55.4861 30.2602L55.5633 30.3048L55.9383 29.6552ZM75.0907 40.7128L75.4657 40.0633L75.4657 40.0633L75.0907 40.7128ZM77.6886 71.397L76.9386 71.3905V71.397H77.6886ZM75.0905 81.9357L74.7155 81.2862L74.7155 81.2862L75.0905 81.9357ZM71.5131 84.0011L71.1381 83.3516L71.1381 83.3516L71.5131 84.0011ZM68.915 69.3008H69.665V68.8678L69.29 68.6513L68.915 69.3008ZM37.5844 51.2121L37.9594 50.5625L37.9594 50.5625L37.5844 51.2121ZM34.9863 46.7121L34.2363 46.7121V46.7121H34.9863ZM34.9863 29.51L35.7363 29.51L35.7363 29.0769L35.3613 28.8604L34.9863 29.51ZM22.8096 22.4797L22.4346 23.1292L22.4346 23.1292L22.8096 22.4797ZM22.8096 19.4797L22.4346 18.8302L22.8096 19.4797ZM33.609 15.8116C32.7507 15.3161 31.673 15.0898 30.6359 15.0898C29.5988 15.0898 28.5211 15.3161 27.6628 15.8116L28.4128 17.1107C28.9894 16.7778 29.7923 16.5898 30.6359 16.5898C31.4794 16.5898 32.2824 16.7778 32.859 17.1107L33.609 15.8116ZM55.7685 28.6054L33.609 15.8116L32.859 17.1107L55.0185 29.9045L55.7685 28.6054ZM56.4552 29.1118C56.2572 28.9235 56.0265 28.7544 55.7685 28.6054L55.0185 29.9045C55.1871 30.0018 55.3197 30.1019 55.4215 30.1987L56.4552 29.1118ZM75.4657 40.0633L56.3133 29.0057L55.5633 30.3048L74.7157 41.3624L75.4657 40.0633ZM78.4387 45.2128C78.4387 44.2218 78.0958 43.1753 77.5773 42.2772C77.0588 41.379 76.3239 40.5589 75.4657 40.0633L74.7157 41.3624C75.2923 41.6953 75.8565 42.2966 76.2783 43.0272C76.7 43.7577 76.9387 44.547 76.9387 45.2128H78.4387ZM78.4387 71.3663V45.2128H76.9387V71.3663H78.4387ZM78.4386 71.4034C78.4387 71.3912 78.4387 71.3788 78.4387 71.3663H76.9387C76.9387 71.3743 76.9387 71.3824 76.9386 71.3905L78.4386 71.4034ZM76.9386 71.397V77.4357H78.4386V71.397H76.9386ZM76.9386 77.4357C76.9386 78.1015 76.6999 78.8908 76.2781 79.6213C75.8564 80.3519 75.2921 80.9533 74.7155 81.2862L75.4655 82.5852C76.3238 82.0897 77.0586 81.2695 77.5772 80.3713C78.0957 79.4732 78.4386 78.4267 78.4386 77.4357H76.9386ZM74.7155 81.2862L71.1381 83.3516L71.8881 84.6506L75.4655 82.5852L74.7155 81.2862ZM71.1381 83.3516C70.5573 83.6869 70.2073 83.6238 70.051 83.5336C69.8947 83.4433 69.665 83.1718 69.665 82.5011H68.165C68.165 83.4873 68.517 84.38 69.301 84.8326C70.085 85.2853 71.034 85.1437 71.8881 84.6506L71.1381 83.3516ZM69.665 82.5011V69.3008H68.165V82.5011H69.665ZM37.2094 51.8616L68.54 69.9503L69.29 68.6513L37.9594 50.5625L37.2094 51.8616ZM34.2363 46.7121C34.2363 47.7031 34.5792 48.7496 35.0978 49.6477C35.6163 50.5459 36.3511 51.366 37.2094 51.8616L37.9594 50.5625C37.3828 50.2296 36.8186 49.6283 36.3968 48.8977C35.975 48.1672 35.7363 47.3779 35.7363 46.7121H34.2363ZM34.2363 29.51L34.2363 46.7121L35.7363 46.7121L35.7363 29.51L34.2363 29.51ZM22.4346 23.1292L34.6113 30.1595L35.3613 28.8604L23.1846 21.8302L22.4346 23.1292ZM22.4346 18.8302C21.5805 19.3233 20.9834 20.0744 20.9834 20.9797C20.9834 21.885 21.5805 22.6361 22.4346 23.1292L23.1846 21.8302C22.6038 21.4948 22.4834 21.1602 22.4834 20.9797C22.4834 20.7992 22.6038 20.4645 23.1846 20.1292L22.4346 18.8302ZM27.6628 15.8116L22.4346 18.8302L23.1846 20.1292L28.4128 17.1107L27.6628 15.8116Z" fill="#060606"/>
<path fill-rule="evenodd" clip-rule="evenodd" d="M24.7305 20.6543C22.3391 19.2736 20.4004 20.3929 20.4004 23.1543L20.4004 52.0394C20.4004 54.8008 22.3391 58.1587 24.7305 59.5394L40.4402 68.6094C40.7496 68.788 41.0355 69.1437 41.1902 69.5424L43.665 75.9209C44.665 78.4982 47.165 79.9416 48.165 78.5189L50.6398 74.9981C50.7945 74.7781 51.0804 74.7525 51.3898 74.9312L67.1001 84.0015C69.4916 85.3822 71.4302 84.2629 71.4302 81.5015L71.4302 52.6164C71.4302 49.855 69.4916 46.4971 67.1001 45.1164L24.7305 20.6543Z" fill="#B0F127"/>
<path d="M24.7305 59.5394L24.7305 58.7894L24.7305 59.5394ZM43.665 75.9209L43.1025 75.9711L43.1025 75.9711L43.665 75.9209ZM48.165 78.5189L48.7275 79.2187L48.7275 79.2187L48.165 78.5189ZM67.1001 84.0015L67.1001 83.2515L67.1001 84.0015ZM50.6398 74.9981L50.0773 74.2984L50.6398 74.9981ZM51.3898 74.9312L51.3898 74.1812L51.3898 74.9312ZM40.4402 68.6094L40.4402 67.8594L40.4402 68.6094ZM41.1902 69.5424L41.7527 69.4921L41.1902 69.5424ZM21.0499 23.5293C21.0499 21.1821 22.6978 20.2307 24.7305 21.4043L24.7305 19.9043C21.9803 18.3165 19.7509 19.6037 19.7509 22.7793L21.0499 23.5293ZM21.0499 52.4144L21.0499 23.5293L19.7509 22.7793L19.7509 51.6644L21.0499 52.4144ZM24.7305 58.7894C22.6978 57.6158 21.0499 54.7616 21.0499 52.4144L19.7509 51.6644C19.7509 54.84 21.9803 58.7016 24.7305 60.2894L24.7305 58.7894ZM40.4402 67.8594L24.7305 58.7894L24.7305 60.2894L40.4402 69.3594L40.4402 67.8594ZM44.2275 75.8706L41.7527 69.4921L40.6277 69.5926L43.1025 75.9711L44.2275 75.8706ZM47.6025 77.8192C46.8525 78.8862 44.9775 77.8036 44.2275 75.8706L43.1025 75.9711C44.3525 79.1928 47.4775 80.997 48.7275 79.2187L47.6025 77.8192ZM50.0773 74.2984L47.6025 77.8192L48.7275 79.2187L51.2023 75.6979L50.0773 74.2984ZM67.1001 83.2515L51.3898 74.1812L51.3898 75.6812L67.1001 84.7515L67.1001 83.2515ZM70.7807 81.1265C70.7807 83.4737 69.1328 84.4251 67.1001 83.2515L67.1001 84.7515C69.8503 86.3393 72.0797 85.0521 72.0797 81.8765L70.7807 81.1265ZM70.7807 52.2414L70.7807 81.1265L72.0797 81.8765L72.0797 52.9914L70.7807 52.2414ZM67.1001 45.8664C69.1328 47.04 70.7807 49.8942 70.7807 52.2414L72.0797 52.9914C72.0797 49.8157 69.8503 45.9542 67.1001 44.3664L67.1001 45.8664ZM24.7305 21.4043L67.1001 45.8664L67.1001 44.3664L24.7305 19.9043L24.7305 21.4043ZM51.2023 75.6979C51.241 75.6429 51.3125 75.6365 51.3898 75.6812L51.3898 74.1812C50.8484 73.8685 50.348 73.9132 50.0773 74.2984L51.2023 75.6979ZM40.4402 69.3594C40.5175 69.404 40.589 69.493 40.6277 69.5926L41.7527 69.4921C41.482 68.7944 40.9816 68.172 40.4402 67.8594L40.4402 69.3594Z" fill="#060606"/>
<path d="M54.3274 64.6762C54.7002 65.9184 54.9253 67.1352 54.9955 68.2808L36.8349 57.7957C36.9051 56.7312 37.1302 55.7743 37.503 54.9627C37.9599 53.9679 38.6298 53.2106 39.4748 52.7343C40.3199 52.258 41.3235 52.0722 42.4287 52.1879C43.5338 52.3037 44.7186 52.7188 45.9152 53.4096C47.1118 54.1005 48.2966 55.0535 49.4017 56.2138C50.5069 57.3741 51.5105 58.7189 52.3556 60.171C53.2006 61.623 53.8705 63.1539 54.3274 64.6762Z" fill="#060606" stroke="#060606" stroke-width="1.5"/>
<path d="M49.9195 48.7903C49.9195 51.2995 48.1346 52.3183 45.9163 51.0376C43.6981 49.7569 41.9132 46.6771 41.9132 44.1679C41.9132 41.6587 43.6981 40.6399 45.9163 41.9206C48.1346 43.2013 49.9195 46.2812 49.9195 48.7903Z" fill="#060606" stroke="#060606" stroke-width="1.5"/>
</svg>
