<svg width="100" height="100" viewBox="0 0 100 100" fill="none" xmlns="http://www.w3.org/2000/svg">
<circle cx="50" cy="50" r="50" fill="#141414"/>
<path fill-rule="evenodd" clip-rule="evenodd" d="M68.7268 34.848C71.3833 36.3817 73.5108 38.1053 75.1091 39.943C75.1282 39.9649 75.1557 39.9774 75.1847 39.9774H76.7218C77.8264 39.9774 78.7218 40.8728 78.7218 41.9774V48.3411C78.913 53.1978 76.0145 58.0875 70.0264 61.9434C69.9633 61.9841 69.9644 62.0779 70.0294 62.1154L81.1075 68.5114C81.1663 68.5453 81.2411 68.512 81.2599 68.4468C81.5008 67.6128 82.27 67.0028 83.1816 67.0028H86.736C87.8406 67.0028 88.736 67.8982 88.736 69.0028V74.2373C88.736 74.4131 88.7133 74.5836 88.6707 74.7461C88.5508 75.6009 87.9245 76.4365 86.7918 77.0904C84.2582 78.5532 80.1504 78.5532 77.6168 77.0904L59.4248 66.5873C59.4015 66.5739 59.374 66.5703 59.3481 66.5775C46.6441 70.0949 30.9523 68.8143 20.4239 62.7357C13.7737 58.8962 10.4391 53.8672 10.4201 48.8349C10.4123 48.7628 10.4082 48.6895 10.4082 48.6152V41.9774C10.4082 40.8728 11.3036 39.9774 12.4082 39.9774H13.966C13.9951 39.9774 14.0226 39.9649 14.0416 39.943C15.64 38.1053 17.7674 36.3817 20.4239 34.848C33.7624 27.147 55.3883 27.147 68.7268 34.848Z" fill="#B0F127"/>
<path d="M68.7268 34.848L68.3518 35.4975L68.3518 35.4975L68.7268 34.848ZM78.7218 48.3411H77.9718V48.3558L77.9724 48.3705L78.7218 48.3411ZM88.6707 74.7461L87.9453 74.5558L87.9341 74.5983L87.928 74.6419L88.6707 74.7461ZM86.7918 77.0904L86.4168 76.4409L86.4168 76.4409L86.7918 77.0904ZM77.6168 77.0904L77.2418 77.74L77.2418 77.74L77.6168 77.0904ZM20.4239 62.7357L20.7989 62.0862L20.7989 62.0862L20.4239 62.7357ZM10.4201 48.8349L11.1701 48.8321L11.17 48.7927L11.1657 48.7535L10.4201 48.8349ZM20.4239 34.848L20.0489 34.1985L20.0489 34.1985L20.4239 34.848ZM59.4248 66.5873L59.0498 67.2368L59.4248 66.5873ZM59.3481 66.5775L59.5483 67.3003L59.3481 66.5775ZM81.1075 68.5114L80.7325 69.1609L81.1075 68.5114ZM81.2599 68.4468L80.5394 68.2388L81.2599 68.4468ZM14.0416 39.943L14.6075 40.4352L14.0416 39.943ZM70.0264 61.9434L70.4325 62.574L70.0264 61.9434ZM70.0294 62.1154L69.6544 62.7649L70.0294 62.1154ZM75.1091 39.943L75.675 39.4508L75.1091 39.943ZM75.675 39.4508C74.0134 37.5403 71.8177 35.7665 69.1018 34.1985L68.3518 35.4975C70.949 36.997 73.0081 38.6702 74.5432 40.4352L75.675 39.4508ZM76.7218 39.2274H75.1847V40.7274H76.7218V39.2274ZM79.4718 41.9774C79.4718 40.4586 78.2406 39.2274 76.7218 39.2274V40.7274C77.4122 40.7274 77.9718 41.287 77.9718 41.9774H79.4718ZM79.4718 48.3411V41.9774H77.9718V48.3411H79.4718ZM70.4325 62.574C76.5606 58.6279 79.6762 53.5194 79.4712 48.3116L77.9724 48.3705C78.1497 52.8761 75.4684 57.5471 69.6204 61.3129L70.4325 62.574ZM81.4825 67.8619L70.4044 61.4659L69.6544 62.7649L80.7325 69.1609L81.4825 67.8619ZM83.1816 66.2528C81.927 66.2528 80.8704 67.0923 80.5394 68.2388L81.9805 68.6549C82.1311 68.1332 82.6129 67.7528 83.1816 67.7528V66.2528ZM86.736 66.2528H83.1816V67.7528H86.736V66.2528ZM89.486 69.0028C89.486 67.484 88.2548 66.2528 86.736 66.2528V67.7528C87.4264 67.7528 87.986 68.3124 87.986 69.0028H89.486ZM89.486 74.2373V69.0028H87.986V74.2373H89.486ZM89.3962 74.9363C89.455 74.7123 89.486 74.4779 89.486 74.2373H87.986C87.986 74.3484 87.9717 74.4549 87.9453 74.5558L89.3962 74.9363ZM87.1668 77.74C88.4229 77.0148 89.2509 76.009 89.4135 74.8502L87.928 74.6419C87.8507 75.1927 87.4261 75.8582 86.4168 76.4409L87.1668 77.74ZM77.2418 77.74C78.6494 78.5527 80.4472 78.9375 82.2043 78.9375C83.9614 78.9375 85.7592 78.5527 87.1668 77.74L86.4168 76.4409C85.2909 77.091 83.7679 77.4375 82.2043 77.4375C80.6407 77.4375 79.1177 77.091 77.9918 76.4409L77.2418 77.74ZM59.0498 67.2368L77.2418 77.74L77.9918 76.4409L59.7998 65.9378L59.0498 67.2368ZM20.0489 63.3852C30.7814 69.5816 46.6866 70.8613 59.5483 67.3003L59.148 65.8547C46.6017 69.3284 31.1232 68.0469 20.7989 62.0862L20.0489 63.3852ZM9.67014 48.8378C9.69043 54.2309 13.2624 59.467 20.0489 63.3852L20.7989 62.0862C14.2849 58.3253 11.1877 53.5035 11.1701 48.8321L9.67014 48.8378ZM9.6582 48.6152C9.6582 48.7167 9.66374 48.8172 9.67458 48.9164L11.1657 48.7535C11.1608 48.7083 11.1582 48.6622 11.1582 48.6152H9.6582ZM9.6582 41.9774V48.6152H11.1582V41.9774H9.6582ZM12.4082 39.2274C10.8894 39.2274 9.6582 40.4586 9.6582 41.9774H11.1582C11.1582 41.287 11.7178 40.7274 12.4082 40.7274V39.2274ZM13.966 39.2274H12.4082V40.7274H13.966V39.2274ZM20.0489 34.1985C17.3331 35.7665 15.1373 37.5403 13.4757 39.4508L14.6075 40.4352C16.1426 38.6702 18.2017 36.997 20.7989 35.4975L20.0489 34.1985ZM69.1018 34.1985C62.2917 30.2667 53.4132 28.3223 44.5754 28.3223C35.7375 28.3223 26.859 30.2667 20.0489 34.1985L20.7989 35.4975C27.3273 31.7283 35.931 29.8223 44.5754 29.8223C53.2197 29.8223 61.8234 31.7283 68.3518 35.4975L69.1018 34.1985ZM59.7998 65.9378C59.6031 65.8242 59.3685 65.7936 59.148 65.8547L59.5483 67.3003C59.3796 67.347 59.1999 67.3235 59.0498 67.2368L59.7998 65.9378ZM80.7325 69.1609C81.2457 69.4572 81.8371 69.1513 81.9805 68.6549L80.5394 68.2388C80.6451 67.8727 81.0868 67.6334 81.4825 67.8619L80.7325 69.1609ZM13.966 40.7274C14.2121 40.7274 14.446 40.6208 14.6075 40.4352L13.4757 39.4508C13.5991 39.3089 13.778 39.2274 13.966 39.2274V40.7274ZM69.6204 61.3129C69.0999 61.648 69.0883 62.4381 69.6544 62.7649L70.4044 61.4659C70.8404 61.7176 70.8266 62.3202 70.4325 62.574L69.6204 61.3129ZM74.5432 40.4352C74.7047 40.6208 74.9386 40.7274 75.1847 40.7274V39.2274C75.3727 39.2274 75.5516 39.3089 75.675 39.4508L74.5432 40.4352Z" fill="#060606"/>
<mask id="mask0_3774_36844" style="mask-type:alpha" maskUnits="userSpaceOnUse" x="9" y="28" width="81" height="51">
<path fill-rule="evenodd" clip-rule="evenodd" d="M68.7268 34.846C71.3833 36.3798 73.5108 38.1033 75.1091 39.941C75.1282 39.9629 75.1557 39.9754 75.1847 39.9754H76.7218C77.8264 39.9754 78.7218 40.8709 78.7218 41.9754V48.3391C78.913 53.1958 76.0145 58.0856 70.0264 61.9415C69.9633 61.9821 69.9644 62.0759 70.0294 62.1134L81.1075 68.5094C81.1663 68.5433 81.2411 68.5101 81.2599 68.4449C81.5008 67.6108 82.27 67.0008 83.1816 67.0008H86.736C87.8406 67.0008 88.736 67.8963 88.736 69.0008V74.2354C88.736 74.4112 88.7133 74.5817 88.6707 74.7441C88.5508 75.5989 87.9245 76.4345 86.7918 77.0885C84.2582 78.5513 80.1504 78.5513 77.6168 77.0885L59.4248 66.5853C59.4015 66.5719 59.374 66.5684 59.3481 66.5755C46.6441 70.0929 30.9523 68.8123 20.4239 62.7337C13.7737 58.8942 10.4391 53.8653 10.4201 48.833C10.4123 48.7608 10.4082 48.6875 10.4082 48.6132V41.9754C10.4082 40.8709 11.3036 39.9754 12.4082 39.9754H13.966C13.9951 39.9754 14.0226 39.9629 14.0416 39.941C15.64 38.1033 17.7674 36.3798 20.4239 34.846C33.7624 27.1451 55.3883 27.1451 68.7268 34.846Z" fill="#D9D9D9"/>
<path d="M68.7268 34.846L68.3518 35.4956L68.3518 35.4956L68.7268 34.846ZM78.7218 48.3391H77.9718V48.3539L77.9724 48.3686L78.7218 48.3391ZM88.6707 74.7441L87.9453 74.5539L87.9341 74.5964L87.928 74.6399L88.6707 74.7441ZM86.7918 77.0885L86.4168 76.439L86.4168 76.439L86.7918 77.0885ZM77.6168 77.0885L77.2418 77.738L77.2418 77.738L77.6168 77.0885ZM20.4239 62.7337L20.7989 62.0842L20.7989 62.0842L20.4239 62.7337ZM10.4201 48.833L11.1701 48.8302L11.17 48.7907L11.1657 48.7515L10.4201 48.833ZM20.4239 34.846L20.0489 34.1965L20.0489 34.1965L20.4239 34.846ZM59.4248 66.5853L59.0498 67.2349L59.4248 66.5853ZM59.3481 66.5755L59.5483 67.2983L59.3481 66.5755ZM81.1075 68.5094L80.7325 69.1589L81.1075 68.5094ZM81.2599 68.4449L80.5394 68.2368L81.2599 68.4449ZM14.0416 39.941L14.6075 40.4332L14.0416 39.941ZM70.0264 61.9415L70.4325 62.5721L70.0264 61.9415ZM70.0294 62.1134L69.6544 62.763L70.0294 62.1134ZM75.1091 39.941L75.675 39.4488L75.1091 39.941ZM75.675 39.4488C74.0134 37.5384 71.8177 35.7645 69.1018 34.1965L68.3518 35.4956C70.949 36.995 73.0081 38.6682 74.5432 40.4332L75.675 39.4488ZM76.7218 39.2254H75.1847V40.7254H76.7218V39.2254ZM79.4718 41.9754C79.4718 40.4567 78.2406 39.2254 76.7218 39.2254V40.7254C77.4122 40.7254 77.9718 41.2851 77.9718 41.9754H79.4718ZM79.4718 48.3391V41.9754H77.9718V48.3391H79.4718ZM70.4325 62.5721C76.5606 58.626 79.6762 53.5175 79.4712 48.3096L77.9724 48.3686C78.1497 52.8742 75.4684 57.5452 69.6204 61.3109L70.4325 62.5721ZM81.4825 67.8599L70.4044 61.4639L69.6544 62.763L80.7325 69.1589L81.4825 67.8599ZM83.1816 66.2508C81.927 66.2508 80.8704 67.0904 80.5394 68.2368L81.9805 68.653C82.1311 68.1312 82.6129 67.7508 83.1816 67.7508V66.2508ZM86.736 66.2508H83.1816V67.7508H86.736V66.2508ZM89.486 69.0008C89.486 67.482 88.2548 66.2508 86.736 66.2508V67.7508C87.4264 67.7508 87.986 68.3105 87.986 69.0008H89.486ZM89.486 74.2354V69.0008H87.986V74.2354H89.486ZM89.3962 74.9343C89.455 74.7104 89.486 74.4759 89.486 74.2354H87.986C87.986 74.3464 87.9717 74.453 87.9453 74.5539L89.3962 74.9343ZM87.1668 77.738C88.4229 77.0128 89.2509 76.0071 89.4135 74.8483L87.928 74.6399C87.8507 75.1908 87.4261 75.8562 86.4168 76.439L87.1668 77.738ZM77.2418 77.738C78.6494 78.5507 80.4472 78.9356 82.2043 78.9356C83.9614 78.9356 85.7592 78.5507 87.1668 77.738L86.4168 76.439C85.2909 77.089 83.7679 77.4356 82.2043 77.4356C80.6407 77.4356 79.1177 77.089 77.9918 76.439L77.2418 77.738ZM59.0498 67.2349L77.2418 77.738L77.9918 76.439L59.7998 65.9358L59.0498 67.2349ZM20.0489 63.3833C30.7814 69.5797 46.6866 70.8594 59.5483 67.2983L59.148 65.8527C46.6017 69.3265 31.1232 68.045 20.7989 62.0842L20.0489 63.3833ZM9.67014 48.8358C9.69043 54.229 13.2624 59.4651 20.0489 63.3833L20.7989 62.0842C14.2849 58.3234 11.1877 53.5016 11.1701 48.8302L9.67014 48.8358ZM9.6582 48.6132C9.6582 48.7148 9.66374 48.8153 9.67458 48.9145L11.1657 48.7515C11.1608 48.7064 11.1582 48.6602 11.1582 48.6132H9.6582ZM9.6582 41.9754V48.6132H11.1582V41.9754H9.6582ZM12.4082 39.2254C10.8894 39.2254 9.6582 40.4567 9.6582 41.9754H11.1582C11.1582 41.2851 11.7178 40.7254 12.4082 40.7254V39.2254ZM13.966 39.2254H12.4082V40.7254H13.966V39.2254ZM20.0489 34.1965C17.3331 35.7645 15.1373 37.5384 13.4757 39.4488L14.6075 40.4332C16.1426 38.6682 18.2017 36.995 20.7989 35.4956L20.0489 34.1965ZM69.1018 34.1965C62.2917 30.2647 53.4132 28.3203 44.5754 28.3203C35.7375 28.3203 26.859 30.2647 20.0489 34.1965L20.7989 35.4956C27.3273 31.7264 35.931 29.8203 44.5754 29.8203C53.2197 29.8203 61.8234 31.7264 68.3518 35.4956L69.1018 34.1965ZM59.7998 65.9358C59.6031 65.8223 59.3685 65.7917 59.148 65.8527L59.5483 67.2983C59.3796 67.345 59.1999 67.3215 59.0498 67.2349L59.7998 65.9358ZM80.7325 69.1589C81.2457 69.4552 81.8371 69.1494 81.9805 68.653L80.5394 68.2368C80.6451 67.8707 81.0868 67.6314 81.4825 67.8599L80.7325 69.1589ZM13.966 40.7254C14.2121 40.7254 14.446 40.6189 14.6075 40.4332L13.4757 39.4488C13.5991 39.3069 13.778 39.2254 13.966 39.2254V40.7254ZM69.6204 61.3109C69.0999 61.646 69.0883 62.4361 69.6544 62.763L70.4044 61.4639C70.8404 61.7157 70.8266 62.3182 70.4325 62.5721L69.6204 61.3109ZM74.5432 40.4332C74.7047 40.6189 74.9386 40.7254 75.1847 40.7254V39.2254C75.3727 39.2254 75.5516 39.3069 75.675 39.4488L74.5432 40.4332Z" fill="#060606"/>
</mask>
<g mask="url(#mask0_3774_36844)">
<rect x="59.4131" y="37.8223" width="32.251" height="41.25" rx="2" fill="#71A407"/>
</g>
<path d="M68.7268 34.846L68.3518 35.4956L68.3518 35.4956L68.7268 34.846ZM78.7218 48.3391H77.9718V48.3539L77.9724 48.3686L78.7218 48.3391ZM88.6707 74.7441L87.9453 74.5539L87.9341 74.5964L87.928 74.6399L88.6707 74.7441ZM86.7918 77.0885L86.4168 76.439L86.4168 76.439L86.7918 77.0885ZM77.6168 77.0885L77.2418 77.738L77.2418 77.738L77.6168 77.0885ZM20.4239 62.7337L20.7989 62.0842L20.7989 62.0842L20.4239 62.7337ZM10.4201 48.833L11.1701 48.8302L11.17 48.7907L11.1657 48.7515L10.4201 48.833ZM20.4239 34.846L20.0489 34.1965L20.0489 34.1965L20.4239 34.846ZM59.4248 66.5853L59.0498 67.2349L59.4248 66.5853ZM59.3481 66.5755L59.5483 67.2983L59.3481 66.5755ZM81.1075 68.5094L80.7325 69.1589L81.1075 68.5094ZM81.2599 68.4449L80.5394 68.2368L81.2599 68.4449ZM14.0416 39.941L14.6075 40.4332L14.0416 39.941ZM70.0264 61.9415L70.4325 62.5721L70.0264 61.9415ZM70.0294 62.1134L69.6544 62.763L70.0294 62.1134ZM75.1091 39.941L75.675 39.4488L75.1091 39.941ZM75.675 39.4488C74.0134 37.5384 71.8177 35.7645 69.1018 34.1965L68.3518 35.4956C70.949 36.995 73.0081 38.6682 74.5432 40.4332L75.675 39.4488ZM76.7218 39.2254H75.1847V40.7254H76.7218V39.2254ZM79.4718 41.9754C79.4718 40.4567 78.2406 39.2254 76.7218 39.2254V40.7254C77.4122 40.7254 77.9718 41.2851 77.9718 41.9754H79.4718ZM79.4718 48.3391V41.9754H77.9718V48.3391H79.4718ZM70.4325 62.5721C76.5606 58.626 79.6762 53.5175 79.4712 48.3096L77.9724 48.3686C78.1497 52.8742 75.4684 57.5452 69.6204 61.3109L70.4325 62.5721ZM81.4825 67.8599L70.4044 61.4639L69.6544 62.763L80.7325 69.1589L81.4825 67.8599ZM83.1816 66.2508C81.927 66.2508 80.8704 67.0904 80.5394 68.2368L81.9805 68.653C82.1311 68.1312 82.6129 67.7508 83.1816 67.7508V66.2508ZM86.736 66.2508H83.1816V67.7508H86.736V66.2508ZM89.486 69.0008C89.486 67.482 88.2548 66.2508 86.736 66.2508V67.7508C87.4264 67.7508 87.986 68.3105 87.986 69.0008H89.486ZM89.486 74.2354V69.0008H87.986V74.2354H89.486ZM89.3962 74.9343C89.455 74.7104 89.486 74.4759 89.486 74.2354H87.986C87.986 74.3464 87.9717 74.453 87.9453 74.5539L89.3962 74.9343ZM87.1668 77.738C88.4229 77.0128 89.2509 76.0071 89.4135 74.8483L87.928 74.6399C87.8507 75.1908 87.4261 75.8562 86.4168 76.439L87.1668 77.738ZM77.2418 77.738C78.6494 78.5507 80.4472 78.9356 82.2043 78.9356C83.9614 78.9356 85.7592 78.5507 87.1668 77.738L86.4168 76.439C85.2909 77.089 83.7679 77.4356 82.2043 77.4356C80.6407 77.4356 79.1177 77.089 77.9918 76.439L77.2418 77.738ZM59.0498 67.2349L77.2418 77.738L77.9918 76.439L59.7998 65.9358L59.0498 67.2349ZM20.0489 63.3833C30.7814 69.5797 46.6866 70.8594 59.5483 67.2983L59.148 65.8527C46.6017 69.3265 31.1232 68.045 20.7989 62.0842L20.0489 63.3833ZM9.67014 48.8358C9.69043 54.229 13.2624 59.4651 20.0489 63.3833L20.7989 62.0842C14.2849 58.3234 11.1877 53.5016 11.1701 48.8302L9.67014 48.8358ZM9.6582 48.6132C9.6582 48.7148 9.66374 48.8153 9.67458 48.9145L11.1657 48.7515C11.1608 48.7064 11.1582 48.6602 11.1582 48.6132H9.6582ZM9.6582 41.9754V48.6132H11.1582V41.9754H9.6582ZM12.4082 39.2254C10.8894 39.2254 9.6582 40.4567 9.6582 41.9754H11.1582C11.1582 41.2851 11.7178 40.7254 12.4082 40.7254V39.2254ZM13.966 39.2254H12.4082V40.7254H13.966V39.2254ZM20.0489 34.1965C17.3331 35.7645 15.1373 37.5384 13.4757 39.4488L14.6075 40.4332C16.1426 38.6682 18.2017 36.995 20.7989 35.4956L20.0489 34.1965ZM69.1018 34.1965C62.2917 30.2647 53.4132 28.3203 44.5754 28.3203C35.7375 28.3203 26.859 30.2647 20.0489 34.1965L20.7989 35.4956C27.3273 31.7264 35.931 29.8203 44.5754 29.8203C53.2197 29.8203 61.8234 31.7264 68.3518 35.4956L69.1018 34.1965ZM59.7998 65.9358C59.6031 65.8223 59.3685 65.7917 59.148 65.8527L59.5483 67.2983C59.3796 67.345 59.1999 67.3215 59.0498 67.2349L59.7998 65.9358ZM80.7325 69.1589C81.2457 69.4552 81.8371 69.1494 81.9805 68.653L80.5394 68.2368C80.6451 67.8707 81.0868 67.6314 81.4825 67.8599L80.7325 69.1589ZM13.966 40.7254C14.2121 40.7254 14.446 40.6189 14.6075 40.4332L13.4757 39.4488C13.5991 39.3069 13.778 39.2254 13.966 39.2254V40.7254ZM69.6204 61.3109C69.0999 61.646 69.0883 62.4361 69.6544 62.763L70.4044 61.4639C70.8404 61.7157 70.8266 62.3182 70.4325 62.5721L69.6204 61.3109ZM74.5432 40.4332C74.7047 40.6189 74.9386 40.7254 75.1847 40.7254V39.2254C75.3727 39.2254 75.5516 39.3069 75.675 39.4488L74.5432 40.4332Z" fill="#060606"/>
<path fill-rule="evenodd" clip-rule="evenodd" d="M69.3524 55.7894C69.2864 55.7513 69.2879 55.6548 69.353 55.6152C82.0628 47.8894 81.8543 35.6767 68.7277 28.098C55.3892 20.397 33.7632 20.397 20.4248 28.098C7.08628 35.799 7.08628 48.2847 20.4248 55.9857C30.9285 62.05 46.5713 63.3388 59.2595 59.8522C59.2853 59.8451 59.3127 59.8486 59.3359 59.862L78.5845 70.9752C80.9414 72.336 84.7628 72.336 87.1197 70.9752C89.4767 69.6144 89.4767 67.4082 87.1197 66.0474L69.3524 55.7894Z" fill="white"/>
<path d="M68.7277 28.098L68.3527 28.7475L68.3527 28.7475L68.7277 28.098ZM20.4248 28.098L20.7998 28.7475L20.7998 28.7475L20.4248 28.098ZM20.4248 55.9857L20.7998 55.3362L20.7998 55.3362L20.4248 55.9857ZM78.5845 70.9752L78.2095 71.6247L78.2095 71.6247L78.5845 70.9752ZM87.1197 70.9752L87.4947 71.6247L87.4947 71.6247L87.1197 70.9752ZM87.1197 66.0474L87.4947 65.3979L87.4947 65.3979L87.1197 66.0474ZM59.2595 59.8522L59.4582 60.5754L59.2595 59.8522ZM59.3359 59.862L59.7109 59.2125L59.3359 59.862ZM69.353 55.6152L69.7426 56.2561L69.353 55.6152ZM69.3524 55.7894L69.7274 55.1399L69.3524 55.7894ZM68.3527 28.7475C74.7814 32.4592 77.8824 37.2048 77.9792 41.8172C78.0759 46.4252 75.1797 51.1957 68.9635 54.9744L69.7426 56.2561C76.2361 52.3089 79.5906 47.1102 79.4788 41.7857C79.3672 36.4655 75.8006 31.3155 69.1027 27.4485L68.3527 28.7475ZM20.7998 28.7475C27.3282 24.9783 35.9319 23.0723 44.5762 23.0723C53.2206 23.0723 61.8243 24.9783 68.3527 28.7475L69.1027 27.4485C62.2926 23.5167 53.4141 21.5723 44.5762 21.5723C35.7383 21.5723 26.8598 23.5167 20.0498 27.4485L20.7998 28.7475ZM20.7998 55.3362C14.2672 51.5646 11.1709 46.7261 11.1709 42.0418C11.1709 37.3576 14.2672 32.5191 20.7998 28.7475L20.0498 27.4485C13.2439 31.3779 9.6709 36.6328 9.6709 42.0418C9.6709 47.4509 13.2439 52.7058 20.0498 56.6352L20.7998 55.3362ZM59.0607 59.129C46.5298 62.5725 31.0997 61.2828 20.7998 55.3362L20.0498 56.6352C30.7572 62.8172 46.6129 64.1052 59.4582 60.5754L59.0607 59.129ZM78.9595 70.3257L59.7109 59.2125L58.9609 60.5116L78.2095 71.6247L78.9595 70.3257ZM86.7447 70.3257C85.7071 70.9248 84.2999 71.2458 82.8521 71.2458C81.4043 71.2458 79.9971 70.9248 78.9595 70.3257L78.2095 71.6247C79.5288 72.3864 81.2108 72.7458 82.8521 72.7458C84.4934 72.7458 86.1754 72.3864 87.4947 71.6247L86.7447 70.3257ZM86.7447 66.6969C87.7866 67.2984 88.1374 67.9819 88.1374 68.5113C88.1374 69.0407 87.7866 69.7242 86.7447 70.3257L87.4947 71.6247C88.8098 70.8655 89.6374 69.7655 89.6374 68.5113C89.6374 67.2571 88.8098 66.1571 87.4947 65.3979L86.7447 66.6969ZM68.9774 56.4389L86.7447 66.6969L87.4947 65.3979L69.7274 55.1399L68.9774 56.4389ZM59.4582 60.5754C59.2898 60.6216 59.1107 60.598 58.9609 60.5116L59.7109 59.2125C59.5147 59.0993 59.2807 59.0685 59.0607 59.129L59.4582 60.5754ZM68.9635 54.9744C68.444 55.2901 68.3852 56.097 68.9774 56.4389L69.7274 55.1399C70.1875 55.4056 70.1318 56.0195 69.7426 56.2561L68.9635 54.9744Z" fill="#060606"/>
<circle r="20.4689" transform="matrix(0.866025 -0.5 0.866025 0.5 44.5762 42.041)" fill="#060606" stroke="#060606" stroke-width="1.5"/>
<ellipse rx="17.7652" ry="17.7653" transform="matrix(0.866025 -0.5 0.866025 0.5 43.6912 44.1466)" fill="#141414" stroke="#060606" stroke-width="1.5"/>
</svg>
