<svg width="695" height="841" viewBox="0 0 695 841" fill="none" xmlns="http://www.w3.org/2000/svg">
<path fill-rule="evenodd" clip-rule="evenodd" d="M423.976 43.544V603.785C423.976 619.226 413.135 638.003 399.762 645.724L171.876 777.294C158.503 785.015 147.662 778.756 147.662 763.314L147.662 189.671C147.662 174.229 158.503 155.452 171.876 147.731L238.666 109.17C239.053 108.869 239.483 108.581 239.956 108.309L402.196 14.6395C407.457 11.6019 415.987 11.6019 421.248 14.6395L438.118 24.3791C443.379 27.4167 443.379 32.3415 438.118 35.3791L423.976 43.544Z" fill="#141414"/>
<mask id="mask0_3774_36808" style="mask-type:alpha" maskUnits="userSpaceOnUse" x="147" y="10" width="281" height="773">
<rect x="0.649519" y="0.375" width="321.904" height="630.341" rx="27.2096" transform="matrix(0.866025 -0.5 2.20305e-08 1 147.749 162.026)" fill="#B0F127" stroke="#060606" stroke-width="1.5"/>
</mask>
<g mask="url(#mask0_3774_36808)">
<rect width="131.855" height="596.526" transform="matrix(0.866025 0.5 -2.20305e-08 1 90.8975 139.658)" fill="#060606"/>
</g>
<rect width="10.7559" height="45.3368" rx="5.37794" transform="matrix(0.866025 0.5 -2.20305e-08 1 153.375 251.832)" fill="#2F2F2F" stroke="#060606" stroke-width="1.5"/>
<rect width="10.7559" height="77.184" rx="5.37794" transform="matrix(0.866025 0.5 -2.20305e-08 1 153.375 314.393)" fill="#2F2F2F" stroke="#060606" stroke-width="1.5"/>
<path d="M153.375 352.029L162.69 357.407L162.69 391.576C162.69 394.547 160.605 395.75 158.032 394.265V394.265C155.46 392.78 153.375 389.169 153.375 386.198L153.375 352.029Z" fill="#2F2F2F" stroke="#060606" stroke-width="1.5"/>
<rect x="0.649519" y="0.375" width="321.904" height="621.133" rx="27.2096" transform="matrix(0.866025 -0.5 2.20305e-08 1 167.321 175.315)" fill="white" stroke="#060606" stroke-width="1.5"/>
<path d="M271.437 209.851L275.166 193.606L278.607 191.62L282.336 203.558L279.963 204.928L276.641 194.418L277.082 194.164L273.81 208.481L271.437 209.851ZM273.675 205.623L273.675 203.138L280.116 199.419L280.116 201.905L273.675 205.623ZM287.938 200.617C287.029 201.143 286.269 201.337 285.659 201.2C285.049 201.063 284.588 200.663 284.277 200.001C283.972 199.335 283.82 198.474 283.82 197.417C283.82 196.36 283.972 195.323 284.277 194.305C284.582 193.288 285.032 192.363 285.625 191.531C286.218 190.699 286.95 190.032 287.82 189.53C288.696 189.024 289.458 188.825 290.108 188.933C290.758 189.041 291.261 189.413 291.616 190.049C291.978 190.675 292.159 191.526 292.159 192.603C292.159 193.66 291.981 194.712 291.625 195.759C291.275 196.802 290.783 197.752 290.15 198.606C289.518 199.461 288.78 200.131 287.938 200.617ZM283.43 202.927L283.43 188.835L285.752 187.495L285.752 194.345L285.464 194.511L285.464 201.752L283.43 202.927ZM287.566 198.464C288.063 198.177 288.47 197.799 288.786 197.329C289.102 196.86 289.337 196.339 289.489 195.768C289.642 195.191 289.718 194.606 289.718 194.012C289.718 193.425 289.639 192.935 289.481 192.544C289.323 192.146 289.077 191.9 288.744 191.805C288.416 191.701 287.995 191.797 287.481 192.094C287.001 192.371 286.611 192.73 286.311 193.17C286.017 193.607 285.803 194.106 285.667 194.668C285.532 195.229 285.464 195.829 285.464 196.468C285.464 197.107 285.532 197.629 285.667 198.034C285.803 198.438 286.023 198.686 286.328 198.778C286.639 198.866 287.051 198.761 287.566 198.464ZM297.734 194.962C296.813 195.493 296.006 195.722 295.311 195.647C294.616 195.572 294.073 195.229 293.683 194.619C293.299 193.999 293.107 193.145 293.107 192.055C293.107 190.953 293.305 189.87 293.7 188.806C294.096 187.736 294.641 186.766 295.336 185.895C296.031 185.024 296.83 184.328 297.734 183.806C298.655 183.274 299.463 183.046 300.158 183.121C300.859 183.193 301.404 183.537 301.794 184.153C302.184 184.763 302.379 185.613 302.379 186.702C302.379 187.798 302.181 188.881 301.785 189.951C301.396 191.011 300.85 191.982 300.15 192.863C299.455 193.734 298.65 194.433 297.734 194.962ZM297.734 192.476C298.475 192.049 299.025 191.444 299.387 190.661C299.754 189.868 299.938 189.018 299.938 188.112C299.938 187.172 299.751 186.529 299.379 186.184C299.011 185.835 298.463 185.871 297.734 186.291C297.232 186.582 296.819 186.95 296.497 187.397C296.175 187.844 295.935 188.345 295.777 188.899C295.624 189.451 295.548 190.033 295.548 190.646C295.548 191.592 295.732 192.24 296.099 192.589C296.472 192.928 297.017 192.89 297.734 192.476ZM307.241 189.493C306.523 189.907 305.939 190.104 305.487 190.085C305.035 190.065 304.682 189.913 304.427 189.63C304.179 189.343 304.001 188.998 303.893 188.597C303.786 188.189 303.721 187.8 303.699 187.428C303.676 187.056 303.665 186.782 303.665 186.606L303.665 180.676L306.004 179.325L306.004 184.316C306.004 184.557 306.015 184.861 306.038 185.226C306.06 185.585 306.131 185.919 306.249 186.229C306.368 186.539 306.56 186.744 306.826 186.845C307.097 186.943 307.478 186.85 307.97 186.567C308.168 186.452 308.379 186.294 308.605 186.092C308.831 185.89 309.043 185.63 309.241 185.314C309.439 184.991 309.6 184.595 309.724 184.125C309.854 183.646 309.919 183.08 309.919 182.427L311.241 182.388C311.241 183.223 311.094 184.091 310.8 184.991C310.507 185.891 310.063 186.738 309.47 187.53C308.882 188.32 308.139 188.974 307.241 189.493ZM310.207 187.467L310.207 183.964L309.919 184.13L309.919 177.065L312.241 175.724L312.241 186.293L310.207 187.467ZM319.693 181.99C319.061 182.492 318.439 182.91 317.829 183.243C317.224 183.579 316.682 183.771 316.202 183.82C315.727 183.859 315.366 183.693 315.117 183.321C314.891 182.969 314.772 182.548 314.761 182.059C314.75 181.563 314.744 180.998 314.744 180.366L314.744 171.343L317.049 170.012L317.049 178.878C317.049 179.289 317.052 179.659 317.058 179.989C317.069 180.309 317.128 180.535 317.236 180.669C317.439 180.923 317.764 180.938 318.21 180.713C318.657 180.488 319.151 180.176 319.693 179.778L319.693 181.99ZM313.185 177.234L313.185 175.179L319.693 171.421L319.693 173.476L313.185 177.234ZM327.717 177.671C326.999 178.085 326.415 178.282 325.963 178.263C325.511 178.243 325.157 178.092 324.903 177.808C324.655 177.521 324.477 177.177 324.369 176.775C324.262 176.368 324.197 175.978 324.174 175.606C324.152 175.234 324.14 174.96 324.14 174.784L324.14 168.854L326.48 167.503L326.48 172.494C326.48 172.735 326.491 173.039 326.513 173.404C326.536 173.763 326.607 174.097 326.725 174.407C326.844 174.717 327.036 174.923 327.302 175.024C327.573 175.122 327.954 175.029 328.446 174.745C328.643 174.631 328.855 174.472 329.081 174.27C329.307 174.068 329.519 173.809 329.717 173.492C329.915 173.169 330.076 172.773 330.2 172.303C330.33 171.824 330.395 171.258 330.395 170.605L331.717 170.566C331.717 171.401 331.57 172.269 331.276 173.169C330.982 174.07 330.539 174.916 329.946 175.709C329.358 176.498 328.615 177.152 327.717 177.671ZM330.683 175.645L330.683 172.142L330.395 172.308L330.395 165.243L332.717 163.902L332.717 174.471L330.683 175.645ZM338.254 171.568C337.101 172.233 336.169 172.471 335.457 172.282C334.751 172.083 334.322 171.476 334.169 170.462L336.525 168.691C336.621 169.131 336.833 169.397 337.161 169.488C337.494 169.576 337.915 169.474 338.423 169.18C338.841 168.939 339.163 168.661 339.389 168.348C339.615 168.029 339.728 167.702 339.728 167.37C339.728 167.161 339.683 167.021 339.593 166.949C339.502 166.871 339.299 166.861 338.983 166.919C338.672 166.975 338.186 167.092 337.525 167.272C336.779 167.481 336.183 167.577 335.737 167.56C335.29 167.544 334.968 167.404 334.771 167.14C334.573 166.869 334.474 166.463 334.474 165.921C334.474 165.243 334.624 164.569 334.923 163.901C335.223 163.225 335.644 162.597 336.186 162.017C336.734 161.426 337.378 160.917 338.118 160.49C338.836 160.076 339.471 159.836 340.025 159.771C340.579 159.706 341.025 159.81 341.364 160.084C341.709 160.355 341.921 160.787 342 161.381L339.644 163.23C339.604 162.862 339.457 162.637 339.203 162.555C338.949 162.473 338.604 162.539 338.169 162.751C337.745 162.963 337.404 163.225 337.144 163.538C336.889 163.848 336.762 164.157 336.762 164.463C336.762 164.646 336.816 164.768 336.923 164.83C337.036 164.889 337.265 164.884 337.61 164.815C337.96 164.744 338.491 164.607 339.203 164.404C339.898 164.212 340.454 164.135 340.873 164.175C341.296 164.204 341.604 164.359 341.796 164.639C341.988 164.913 342.084 165.324 342.084 165.872C342.084 166.955 341.745 168.002 341.067 169.014C340.389 170.025 339.452 170.876 338.254 171.568Z" fill="#060606"/>
<path d="M199.021 328.563C198.023 329.139 197.162 329.386 196.437 329.303C195.716 329.218 195.16 328.838 194.767 328.163C194.379 327.486 194.185 326.55 194.185 325.355C194.185 324.161 194.379 323.001 194.767 321.875C195.16 320.747 195.716 319.725 196.437 318.807C197.162 317.887 198.023 317.139 199.021 316.563C200.019 315.987 200.878 315.742 201.598 315.827C202.324 315.91 202.88 316.29 203.268 316.967C203.661 317.642 203.857 318.577 203.857 319.771C203.857 320.966 203.661 322.127 203.268 323.255C202.88 324.381 202.324 325.403 201.598 326.323C200.878 327.241 200.019 327.987 199.021 328.563ZM199.021 326.515C199.654 326.161 200.18 325.699 200.601 325.131C201.021 324.563 201.335 323.921 201.543 323.203C201.755 322.483 201.862 321.723 201.862 320.923C201.862 320.123 201.755 319.491 201.543 319.027C201.335 318.561 201.021 318.286 200.601 318.203C200.18 318.121 199.654 318.257 199.021 318.611C198.388 318.966 197.862 319.427 197.441 319.995C197.021 320.563 196.705 321.207 196.492 321.927C196.284 322.645 196.181 323.403 196.181 324.203C196.181 325.003 196.284 325.637 196.492 326.103C196.705 326.567 197.021 326.841 197.441 326.923C197.862 327.006 198.388 326.87 199.021 326.515ZM207.617 323.617C207.03 323.955 206.552 324.117 206.183 324.101C205.813 324.085 205.525 323.961 205.317 323.729C205.114 323.494 204.968 323.213 204.88 322.885C204.793 322.551 204.74 322.233 204.721 321.929C204.703 321.625 204.693 321.401 204.693 321.257L204.693 316.409L206.606 315.305L206.606 319.385C206.606 319.582 206.615 319.83 206.633 320.129C206.652 320.422 206.709 320.695 206.806 320.949C206.903 321.202 207.061 321.37 207.278 321.453C207.499 321.533 207.811 321.457 208.213 321.225C208.375 321.131 208.548 321.002 208.733 320.837C208.917 320.671 209.09 320.459 209.252 320.201C209.414 319.937 209.545 319.613 209.647 319.229C209.753 318.837 209.806 318.374 209.806 317.841L210.887 317.809C210.887 318.491 210.767 319.201 210.527 319.937C210.287 320.673 209.924 321.365 209.439 322.013C208.959 322.658 208.351 323.193 207.617 323.617ZM210.042 321.961L210.042 319.097L209.806 319.233L209.806 313.457L211.705 312.361L211.705 321.001L210.042 321.961ZM213.233 320.118L213.233 311.478L214.896 310.518L214.896 312.63L214.716 312.462C214.813 312.108 214.942 311.761 215.104 311.422C215.265 311.084 215.464 310.766 215.699 310.47C215.88 310.238 216.076 310.026 216.288 309.834C216.501 309.637 216.72 309.465 216.946 309.318C217.173 309.166 217.399 309.041 217.625 308.942L217.625 310.974C217.418 311.02 217.175 311.136 216.898 311.322C216.625 311.501 216.378 311.716 216.157 311.966C215.935 312.212 215.748 312.477 215.595 312.762C215.443 313.042 215.328 313.338 215.249 313.65C215.171 313.957 215.131 314.276 215.131 314.606L215.131 319.022L213.233 320.118ZM223.825 314.243C222.883 314.787 222.12 314.982 221.538 314.827C220.961 314.664 220.61 314.168 220.485 313.339L222.411 311.891C222.49 312.251 222.663 312.468 222.931 312.543C223.204 312.615 223.548 312.531 223.963 312.291C224.305 312.094 224.568 311.867 224.753 311.611C224.938 311.35 225.03 311.083 225.03 310.811C225.03 310.64 224.993 310.526 224.919 310.467C224.846 310.403 224.679 310.395 224.421 310.443C224.167 310.488 223.769 310.584 223.229 310.731C222.619 310.902 222.132 310.98 221.767 310.967C221.402 310.954 221.139 310.839 220.977 310.623C220.816 310.402 220.735 310.07 220.735 309.627C220.735 309.072 220.857 308.522 221.102 307.975C221.347 307.423 221.691 306.91 222.134 306.435C222.582 305.952 223.109 305.536 223.714 305.187C224.301 304.848 224.82 304.652 225.273 304.599C225.725 304.546 226.09 304.631 226.367 304.855C226.649 305.076 226.822 305.43 226.887 305.915L224.961 307.427C224.929 307.126 224.809 306.942 224.601 306.875C224.393 306.808 224.111 306.862 223.756 307.035C223.409 307.208 223.13 307.423 222.917 307.679C222.709 307.932 222.605 308.184 222.605 308.435C222.605 308.584 222.649 308.684 222.737 308.735C222.829 308.783 223.017 308.779 223.298 308.723C223.585 308.664 224.019 308.552 224.601 308.387C225.169 308.23 225.624 308.167 225.966 308.199C226.312 308.223 226.564 308.35 226.721 308.579C226.878 308.803 226.956 309.139 226.956 309.587C226.956 310.472 226.679 311.328 226.125 312.155C225.571 312.982 224.804 313.678 223.825 314.243ZM232.56 308.96C232.043 309.37 231.535 309.712 231.036 309.984C230.542 310.258 230.098 310.416 229.706 310.456C229.318 310.488 229.022 310.352 228.819 310.048C228.634 309.76 228.537 309.416 228.528 309.016C228.519 308.61 228.514 308.149 228.514 307.632L228.514 300.256L230.399 299.168L230.399 306.416C230.399 306.752 230.401 307.054 230.406 307.324C230.415 307.585 230.463 307.77 230.551 307.88C230.717 308.088 230.983 308.1 231.348 307.916C231.713 307.732 232.117 307.477 232.56 307.152L232.56 308.96ZM227.239 305.072L227.239 303.392L232.56 300.32L232.56 302L227.239 305.072ZM236.781 306.763C236.028 307.198 235.367 307.384 234.799 307.323C234.231 307.262 233.788 306.982 233.469 306.483C233.155 305.976 232.998 305.278 232.998 304.387C232.998 303.486 233.16 302.6 233.483 301.731C233.806 300.856 234.252 300.063 234.82 299.351C235.388 298.639 236.042 298.07 236.781 297.643C237.534 297.208 238.194 297.022 238.762 297.083C239.335 297.142 239.781 297.423 240.099 297.927C240.418 298.426 240.577 299.12 240.577 300.011C240.577 300.907 240.416 301.792 240.092 302.667C239.774 303.534 239.328 304.327 238.755 305.047C238.187 305.759 237.529 306.331 236.781 306.763ZM236.781 304.731C237.386 304.382 237.836 303.887 238.132 303.247C238.432 302.599 238.582 301.904 238.582 301.163C238.582 300.395 238.43 299.87 238.125 299.587C237.825 299.302 237.376 299.331 236.781 299.675C236.37 299.912 236.032 300.214 235.769 300.579C235.506 300.944 235.31 301.354 235.18 301.807C235.056 302.258 234.993 302.734 234.993 303.235C234.993 304.008 235.143 304.538 235.444 304.823C235.748 305.1 236.194 305.07 236.781 304.731ZM241.693 303.687L241.693 295.047L243.356 294.087L243.356 296.199L243.175 296.031C243.272 295.676 243.402 295.33 243.563 294.991C243.725 294.652 243.924 294.335 244.159 294.039C244.339 293.807 244.536 293.595 244.748 293.403C244.961 293.206 245.18 293.034 245.406 292.887C245.633 292.735 245.859 292.61 246.085 292.511L246.085 294.543C245.877 294.588 245.635 294.704 245.358 294.891C245.085 295.07 244.838 295.284 244.616 295.535C244.395 295.78 244.208 296.046 244.055 296.331C243.903 296.611 243.787 296.907 243.709 297.219C243.63 297.526 243.591 297.844 243.591 298.175L243.591 302.591L241.693 303.687ZM247.681 304.07L249.122 298.662L249.149 299.99L245.893 292.622L247.847 291.494L250.036 296.774L249.593 297.03L251.768 289.23L253.653 288.142L249.426 303.062L247.681 304.07Z" fill="#060606"/>
<path d="M200.123 250.245C203.633 248.219 206.479 243.29 206.479 239.236C206.479 235.183 203.633 233.54 200.123 235.567C196.612 237.593 193.767 242.522 193.767 246.576C193.767 250.629 196.612 252.272 200.123 250.245Z" stroke="#060606" stroke-width="1.5" stroke-linecap="round" stroke-linejoin="round"/>
<path d="M204.617 245.502L208.295 247.625" stroke="#060606" stroke-width="1.5" stroke-linejoin="round"/>
<path d="M401.254 119.445L420.769 108.178" stroke="#060606" stroke-width="1.5"/>
<path d="M401.254 127.309L420.769 116.041" stroke="#060606" stroke-width="1.5"/>
<path d="M409.556 130.379L420.769 123.905" stroke="#060606" stroke-width="1.5"/>
<rect x="0.649519" y="0.375" width="70.4838" height="21.9122" rx="10.9561" transform="matrix(0.866025 -0.5 2.20305e-08 1 276.189 140.004)" fill="#060606" stroke="#060606" stroke-width="1.5"/>
<circle r="7.06162" transform="matrix(0.866025 -0.5 2.20305e-08 1 327.474 121.031)" fill="white"/>
<path d="M194.23 189.14C195.03 188.679 195.749 188.482 196.39 188.551C197.03 188.613 197.535 188.924 197.903 189.484C198.277 190.034 198.464 190.809 198.464 191.81L198.464 196.12C198.464 197.187 198.277 198.228 197.903 199.242C197.535 200.247 197.016 201.158 196.347 201.976C195.679 202.794 194.896 203.462 194.001 203.979C193.383 204.336 192.799 204.552 192.249 204.627C191.7 204.696 191.207 204.601 190.77 204.342L192.241 201.834C192.462 202.001 192.726 202.081 193.032 202.074C193.343 202.058 193.666 201.953 194.001 201.76C194.477 201.485 194.894 201.117 195.251 200.656C195.608 200.188 195.885 199.69 196.084 199.164C196.282 198.63 196.381 198.125 196.381 197.647L196.381 195.301L196.747 195.561C196.401 196.232 195.982 196.843 195.489 197.397C194.996 197.943 194.477 198.373 193.933 198.687C193.168 199.129 192.487 199.319 191.892 199.257C191.303 199.191 190.838 198.91 190.498 198.413C190.164 197.905 189.996 197.21 189.996 196.326C189.996 195.443 190.189 194.533 190.575 193.597C190.96 192.655 191.473 191.789 192.113 191.001C192.76 190.202 193.465 189.582 194.23 189.14ZM194.23 191.398C193.834 191.627 193.471 191.948 193.142 192.36C192.813 192.773 192.553 193.224 192.36 193.715C192.167 194.199 192.071 194.671 192.071 195.129C192.071 195.587 192.164 195.952 192.351 196.223C192.544 196.492 192.802 196.644 193.125 196.68C193.454 196.713 193.817 196.614 194.213 196.385C194.61 196.156 194.973 195.836 195.302 195.423C195.63 195.011 195.891 194.559 196.084 194.068C196.282 193.574 196.381 193.098 196.381 192.64C196.381 192.195 196.285 191.842 196.092 191.58C195.9 191.311 195.639 191.158 195.31 191.118C194.987 191.076 194.627 191.169 194.23 191.398ZM201.11 198.304L201.11 195.879L203.21 194.666L203.21 197.091L201.11 198.304ZM201.127 192.669L201.127 190.244L203.227 189.031L203.227 191.456L201.127 192.669ZM210.935 193.908L210.935 191.571L205.51 194.703L205.51 192.494L209.43 180.64L211.768 179.29L207.848 191.144L210.935 189.362L210.935 185.681L213.009 184.483L213.009 188.165L214.157 187.502L214.157 189.711L213.009 190.374L213.009 192.71L210.935 193.908ZM217.913 189.879L217.913 178.324L215.618 181.269L215.618 178.658L217.913 175.742L220.005 174.534L220.005 188.671L217.913 189.879Z" fill="#060606"/>
<path opacity="0.35" d="M412.682 62.7994L422.764 56.9784C424.615 55.9098 426.115 56.7761 426.115 58.9134L426.115 64.6883C426.115 66.8256 424.615 69.4245 422.764 70.4932L412.682 76.3141C410.831 77.3828 409.33 76.5165 409.33 74.3792L409.33 68.6043C409.33 66.467 410.831 63.8681 412.682 62.7994Z" stroke="#060606" stroke-width="1.5"/>
<path opacity="0.4" d="M427.489 59.2754L427.489 64.1498C428.103 63.3824 428.503 62.1914 428.503 61.1274C428.503 60.0634 428.103 59.3336 427.489 59.2754" fill="#060606"/>
<path d="M410.128 68.1439C410.128 66.8682 411.024 65.3169 412.128 64.679L423.318 58.2186C424.423 57.5807 425.319 58.0978 425.319 59.3736L425.319 65.1485C425.319 66.4242 424.423 67.9755 423.318 68.6134L412.128 75.0738C411.024 75.7117 410.128 75.1946 410.128 73.9188L410.128 68.1439Z" fill="#060606"/>
<path fill-rule="evenodd" clip-rule="evenodd" d="M397.467 74.9755C399.252 73.9456 400.968 74.0722 402.261 75.3292C402.358 75.4277 402.514 75.3359 402.61 75.1234L403.54 73.055C403.589 72.9473 403.616 72.8237 403.616 72.7116C403.615 72.5995 403.587 72.5082 403.538 72.4578C400.144 69.1162 394.79 72.2076 391.396 79.4682C391.347 79.5753 391.319 79.6987 391.318 79.8113C391.318 79.9239 391.345 80.0163 391.393 80.068L392.325 81.0614C392.42 81.1635 392.576 81.0755 392.673 80.8644C393.967 78.114 395.683 76.0058 397.467 74.9755ZM397.494 79.6766C398.474 79.1105 399.419 79.1586 400.146 79.8115C400.244 79.9069 400.399 79.8142 400.495 79.6026L401.424 77.5348C401.473 77.4262 401.501 77.3016 401.5 77.1888C401.499 77.076 401.471 76.9844 401.421 76.9346C399.208 74.8575 395.781 76.836 393.568 81.4683C393.518 81.5758 393.49 81.7003 393.489 81.814C393.488 81.9276 393.516 82.0208 393.565 82.0726L394.494 83.067C394.59 83.1681 394.745 83.082 394.843 82.873C395.569 81.382 396.514 80.2429 397.494 79.6766ZM399.383 81.6713C399.385 81.784 399.357 81.9092 399.308 82.0175L397.699 85.5912C397.652 85.6961 397.588 85.777 397.521 85.8157C397.454 85.8544 397.39 85.8478 397.342 85.7973L395.734 84.0808C395.684 84.0299 395.657 83.9362 395.658 83.8218C395.66 83.7074 395.69 83.5825 395.742 83.4766C396.769 81.4678 398.273 80.5993 399.3 81.4221C399.352 81.4684 399.382 81.5586 399.383 81.6713Z" fill="#060606"/>
<path d="M379.744 85.687C379.744 85.0491 380.068 84.3451 380.468 84.1144L381.191 83.6968C381.591 83.4661 381.915 83.7962 381.915 84.4341L381.915 93.6739C381.915 94.3118 381.591 95.0159 381.191 95.2466L380.468 95.6642C380.068 95.8948 379.744 95.5647 379.744 94.9268L379.744 85.687Z" fill="#060606"/>
<path d="M383.361 81.2889C383.361 80.651 383.685 79.9469 384.085 79.7163L384.808 79.2986C385.207 79.068 385.531 79.3981 385.531 80.036L385.531 91.5858C385.531 92.2236 385.207 92.9277 384.808 93.1584L384.085 93.576C383.685 93.8067 383.361 93.4765 383.361 92.8387L383.361 81.2889Z" fill="#060606"/>
<path d="M376.128 91.8176C376.128 91.1797 376.451 90.4757 376.851 90.245L377.574 89.8274C377.974 89.5967 378.298 89.9268 378.298 90.5647L378.298 95.7621C378.298 96.4 377.974 97.1041 377.574 97.3347L376.851 97.7524C376.451 97.983 376.128 97.6529 376.128 97.015L376.128 91.8176Z" fill="#060606"/>
<path d="M372.511 96.7932C372.511 96.1554 372.835 95.4513 373.234 95.2206L373.957 94.803C374.357 94.5723 374.681 94.9025 374.681 95.5403L374.681 97.8503C374.681 98.4882 374.357 99.1923 373.957 99.4229L373.234 99.8405C372.835 100.071 372.511 99.7411 372.511 99.1032L372.511 96.7932Z" fill="#060606"/>
<rect width="248.378" height="27.0445" rx="13.5222" transform="matrix(0.866025 -0.5 2.20305e-08 1 201.88 456.158)" fill="white" stroke="#060606" stroke-width="1.5"/>
<rect width="231.736" height="12.5946" rx="6.29731" transform="matrix(0.866025 -0.5 2.20305e-08 1 209.051 459.73)" fill="#060606" stroke="#060606" stroke-width="1.5"/>
<path fill-rule="evenodd" clip-rule="evenodd" d="M653.965 445.107H457.656V617.741C457.639 618.345 457.639 618.949 457.656 619.552V619.689H457.66C458.108 633.844 467.686 647.92 486.394 658.721C524.729 680.854 586.882 680.854 625.216 658.721C643.924 647.92 653.503 633.844 653.951 619.689H653.965V619.05C653.968 618.781 653.968 618.512 653.965 618.243V445.107Z" fill="#C0C0C0"/>
<mask id="mask1_3774_36808" style="mask-type:alpha" maskUnits="userSpaceOnUse" x="457" y="445" width="197" height="231">
<path fill-rule="evenodd" clip-rule="evenodd" d="M653.964 445.109H457.655V617.743C457.638 618.347 457.638 618.951 457.655 619.554V619.691H457.659C458.107 633.846 467.685 647.922 486.394 658.723C524.728 680.856 586.881 680.856 625.215 658.723C643.923 647.922 653.502 633.846 653.95 619.691H653.964V619.052C653.967 618.783 653.967 618.514 653.964 618.245V445.109Z" fill="#5148E5"/>
</mask>
<g mask="url(#mask1_3774_36808)">
<rect x="550.297" y="81.6328" width="103.672" height="593.693" fill="#E7E7E7"/>
</g>
<circle r="79.3988" transform="matrix(0.866025 -0.5 0.866025 0.5 555.803 445.109)" fill="#B0F127" stroke="#060606" stroke-width="1.5"/>
<ellipse opacity="0.4" rx="54.8749" ry="33.3237" transform="matrix(0.866025 0.5 -0.866025 0.5 559.932 434.338)" fill="#060606"/>
<path fill-rule="evenodd" clip-rule="evenodd" d="M595.749 446.502C605.22 438.941 610.924 425.431 610.924 407.09C610.924 365.684 581.855 315.334 545.996 294.631C527.119 283.733 510.124 283.222 498.261 291.224L498.256 291.217L497.962 291.428C497.698 291.61 497.437 291.797 497.179 291.987L485.673 300.211L487.524 303.214C483.388 310.691 481.068 320.422 481.068 332.117C481.068 373.524 510.138 423.873 545.996 444.576C558.446 451.764 570.077 454.433 579.958 453.122L581.972 456.388L595.783 446.557L595.749 446.502Z" fill="#B0F127"/>
<path d="M595.749 446.502L595.281 445.916L594.758 446.333L595.114 446.901L595.749 446.502ZM545.996 294.631L546.371 293.982L546.371 293.982L545.996 294.631ZM498.261 291.224L497.625 291.623L498.037 292.279L498.68 291.846L498.261 291.224ZM498.256 291.217L498.892 290.818L498.468 290.144L497.82 290.607L498.256 291.217ZM497.962 291.428L498.388 292.045L498.398 292.038L497.962 291.428ZM497.179 291.987L497.615 292.598L497.624 292.591L497.179 291.987ZM485.673 300.211L485.237 299.601L484.667 300.008L485.034 300.605L485.673 300.211ZM487.524 303.214L488.18 303.577L488.393 303.193L488.163 302.82L487.524 303.214ZM545.996 444.576L546.371 443.926L546.371 443.926L545.996 444.576ZM579.958 453.122L580.596 452.728L580.341 452.315L579.859 452.379L579.958 453.122ZM581.972 456.388L581.333 456.782L581.754 457.464L582.407 456.999L581.972 456.388ZM595.783 446.557L596.218 447.168L596.795 446.758L596.419 446.158L595.783 446.557ZM610.174 407.09C610.174 425.29 604.516 438.544 595.281 445.916L596.217 447.088C605.925 439.339 611.674 425.573 611.674 407.09H610.174ZM545.621 295.281C563.41 305.551 579.556 323.205 591.258 343.472C602.959 363.739 610.174 386.549 610.174 407.09H611.674C611.674 386.224 604.355 363.157 592.557 342.722C580.759 322.287 564.441 304.415 546.371 293.982L545.621 295.281ZM498.68 291.846C510.22 284.063 526.888 284.465 545.621 295.281L546.371 293.982C527.351 283 510.028 282.382 497.841 290.602L498.68 291.846ZM498.896 290.825L498.892 290.818L497.621 291.616L497.625 291.623L498.896 290.825ZM497.82 290.607L497.526 290.818L498.398 292.038L498.693 291.827L497.82 290.607ZM497.624 292.591C497.876 292.405 498.131 292.223 498.388 292.045L497.535 290.811C497.265 290.998 496.998 291.189 496.733 291.384L497.624 292.591ZM496.743 291.377L485.237 299.601L486.109 300.821L497.615 292.598L496.743 291.377ZM485.034 300.605L486.886 303.608L488.163 302.82L486.311 299.818L485.034 300.605ZM481.818 332.117C481.818 320.517 484.119 310.918 488.18 303.577L486.868 302.851C482.656 310.464 480.318 320.327 480.318 332.117H481.818ZM546.371 443.926C528.583 433.656 512.436 416.003 500.735 395.735C489.034 375.468 481.818 352.658 481.818 332.117H480.318C480.318 352.983 487.638 376.051 499.436 396.485C511.234 416.92 527.551 434.793 545.621 445.225L546.371 443.926ZM579.859 452.379C570.187 453.662 558.722 451.057 546.371 443.926L545.621 445.225C558.17 452.47 569.968 455.204 580.056 453.866L579.859 452.379ZM579.319 453.516L581.333 456.782L582.61 455.995L580.596 452.728L579.319 453.516ZM582.407 456.999L596.218 447.168L595.348 445.946L581.537 455.777L582.407 456.999ZM596.419 446.158L596.384 446.103L595.114 446.901L595.148 446.956L596.419 446.158Z" fill="#060606"/>
<mask id="mask2_3774_36808" style="mask-type:alpha" maskUnits="userSpaceOnUse" x="480" y="285" width="132" height="173">
<path fill-rule="evenodd" clip-rule="evenodd" d="M595.749 446.498C605.22 438.937 610.924 425.427 610.924 407.086C610.924 365.68 581.855 315.33 545.996 294.627C527.119 283.729 510.124 283.219 498.261 291.22L498.256 291.213L497.962 291.424C497.698 291.606 497.437 291.793 497.179 291.983L485.673 300.207L487.524 303.21C483.388 310.687 481.068 320.418 481.068 332.114C481.068 373.52 510.138 423.869 545.996 444.572C558.446 451.76 570.077 454.429 579.958 453.118L581.972 456.384L595.783 446.553L595.749 446.498Z" fill="#B0F127"/>
<path d="M595.749 446.498L595.281 445.912L594.758 446.329L595.114 446.897L595.749 446.498ZM545.996 294.627L546.371 293.978L546.371 293.978L545.996 294.627ZM498.261 291.22L497.625 291.619L498.037 292.275L498.68 291.842L498.261 291.22ZM498.256 291.213L498.892 290.814L498.468 290.14L497.82 290.603L498.256 291.213ZM497.962 291.424L498.388 292.041L498.398 292.034L497.962 291.424ZM497.179 291.983L497.615 292.594L497.624 292.587L497.179 291.983ZM485.673 300.207L485.237 299.597L484.667 300.005L485.034 300.601L485.673 300.207ZM487.524 303.21L488.18 303.573L488.393 303.189L488.163 302.816L487.524 303.21ZM545.996 444.572L546.371 443.922L546.371 443.922L545.996 444.572ZM579.958 453.118L580.596 452.725L580.341 452.311L579.859 452.375L579.958 453.118ZM581.972 456.384L581.333 456.778L581.754 457.46L582.407 456.995L581.972 456.384ZM595.783 446.553L596.218 447.164L596.795 446.754L596.419 446.154L595.783 446.553ZM610.174 407.086C610.174 425.286 604.516 438.54 595.281 445.912L596.217 447.084C605.925 439.335 611.674 425.569 611.674 407.086H610.174ZM545.621 295.277C563.41 305.547 579.556 323.201 591.258 343.468C602.959 363.735 610.174 386.545 610.174 407.086H611.674C611.674 386.22 604.355 363.153 592.557 342.718C580.759 322.283 564.441 304.411 546.371 293.978L545.621 295.277ZM498.68 291.842C510.22 284.059 526.888 284.461 545.621 295.277L546.371 293.978C527.351 282.996 510.028 282.378 497.841 290.598L498.68 291.842ZM498.896 290.821L498.892 290.814L497.621 291.612L497.625 291.619L498.896 290.821ZM497.82 290.603L497.526 290.814L498.398 292.034L498.693 291.823L497.82 290.603ZM497.624 292.587C497.876 292.401 498.131 292.219 498.388 292.041L497.535 290.807C497.265 290.994 496.998 291.185 496.733 291.38L497.624 292.587ZM496.743 291.373L485.237 299.597L486.109 300.817L497.615 292.594L496.743 291.373ZM485.034 300.601L486.886 303.604L488.163 302.816L486.311 299.814L485.034 300.601ZM481.818 332.114C481.818 320.513 484.119 310.914 488.18 303.573L486.868 302.847C482.656 310.46 480.318 320.323 480.318 332.114H481.818ZM546.371 443.922C528.583 433.652 512.436 415.999 500.735 395.731C489.034 375.464 481.818 352.654 481.818 332.114H480.318C480.318 352.979 487.638 376.047 499.436 396.481C511.234 416.916 527.551 434.789 545.621 445.222L546.371 443.922ZM579.859 452.375C570.187 453.658 558.722 451.053 546.371 443.922L545.621 445.222C558.17 452.467 569.968 455.2 580.056 453.862L579.859 452.375ZM579.319 453.512L581.333 456.778L582.61 455.991L580.596 452.725L579.319 453.512ZM582.407 456.995L596.218 447.164L595.348 445.942L581.537 455.773L582.407 456.995ZM596.419 446.154L596.384 446.099L595.114 446.897L595.148 446.952L596.419 446.154Z" fill="#060606"/>
</mask>
<g mask="url(#mask2_3774_36808)">
<rect width="158.597" height="68.1939" transform="matrix(0.866025 -0.5 2.70279e-08 1 551.126 445.006)" fill="#B0F127"/>
</g>
<path d="M595.749 446.502L595.281 445.916L594.758 446.333L595.114 446.901L595.749 446.502ZM545.996 294.631L546.371 293.982L546.371 293.982L545.996 294.631ZM498.261 291.224L497.625 291.623L498.037 292.279L498.68 291.846L498.261 291.224ZM498.256 291.217L498.892 290.818L498.468 290.144L497.82 290.607L498.256 291.217ZM497.962 291.428L498.388 292.045L498.398 292.038L497.962 291.428ZM497.179 291.987L497.615 292.598L497.624 292.591L497.179 291.987ZM485.673 300.211L485.237 299.601L484.667 300.008L485.034 300.605L485.673 300.211ZM487.524 303.214L488.18 303.577L488.393 303.193L488.163 302.82L487.524 303.214ZM545.996 444.576L546.371 443.926L546.371 443.926L545.996 444.576ZM579.958 453.122L580.596 452.728L580.341 452.315L579.859 452.379L579.958 453.122ZM581.972 456.388L581.333 456.782L581.754 457.464L582.407 456.999L581.972 456.388ZM595.783 446.557L596.218 447.168L596.795 446.758L596.419 446.158L595.783 446.557ZM610.174 407.09C610.174 425.29 604.516 438.544 595.281 445.916L596.217 447.088C605.925 439.339 611.674 425.573 611.674 407.09H610.174ZM545.621 295.281C563.41 305.551 579.556 323.205 591.258 343.472C602.959 363.739 610.174 386.549 610.174 407.09H611.674C611.674 386.224 604.355 363.157 592.557 342.722C580.759 322.287 564.441 304.415 546.371 293.982L545.621 295.281ZM498.68 291.846C510.22 284.063 526.888 284.465 545.621 295.281L546.371 293.982C527.351 283 510.028 282.382 497.841 290.602L498.68 291.846ZM498.896 290.825L498.892 290.818L497.621 291.616L497.625 291.623L498.896 290.825ZM497.82 290.607L497.526 290.818L498.398 292.038L498.693 291.827L497.82 290.607ZM497.624 292.591C497.876 292.405 498.131 292.223 498.388 292.045L497.535 290.811C497.265 290.998 496.998 291.189 496.733 291.384L497.624 292.591ZM496.743 291.377L485.237 299.601L486.109 300.821L497.615 292.598L496.743 291.377ZM485.034 300.605L486.886 303.608L488.163 302.82L486.311 299.818L485.034 300.605ZM481.818 332.117C481.818 320.517 484.119 310.918 488.18 303.577L486.868 302.851C482.656 310.464 480.318 320.327 480.318 332.117H481.818ZM546.371 443.926C528.583 433.656 512.436 416.003 500.735 395.735C489.034 375.468 481.818 352.658 481.818 332.117H480.318C480.318 352.983 487.638 376.051 499.436 396.485C511.234 416.92 527.551 434.793 545.621 445.225L546.371 443.926ZM579.859 452.379C570.187 453.662 558.722 451.057 546.371 443.926L545.621 445.225C558.17 452.47 569.968 455.204 580.056 453.866L579.859 452.379ZM579.319 453.516L581.333 456.782L582.61 455.995L580.596 452.728L579.319 453.516ZM582.407 456.999L596.218 447.168L595.348 445.946L581.537 455.777L582.407 456.999ZM596.419 446.158L596.384 446.103L595.114 446.901L595.148 446.956L596.419 446.158Z" fill="#060606"/>
<circle r="74.9723" transform="matrix(0.866025 0.5 -2.70279e-08 1 534.043 378.113)" fill="white" stroke="#060606" stroke-width="1.5"/>
<mask id="mask3_3774_36808" style="mask-type:alpha" maskUnits="userSpaceOnUse" x="468" y="293" width="132" height="170">
<circle r="74.9723" transform="matrix(0.866025 0.5 -2.70279e-08 1 534.043 378.113)" fill="white" stroke="#060606" stroke-width="1.5"/>
</mask>
<g mask="url(#mask3_3774_36808)">
<rect width="158.597" height="85.0486" transform="matrix(0.866025 0.5 2.70279e-08 -1 465.122 340.859)" fill="white"/>
<circle r="74.9723" transform="matrix(0.866025 0.5 -2.70279e-08 1 534.043 378.113)" stroke="#060606" stroke-width="1.5"/>
<path d="M549.083 403.187L528.335 391.209L532.214 378.344L538.167 379.803L539.43 375.532L533.477 374.178L539.791 353.033L539.791 352.72C539.791 351.991 539.34 351.21 538.709 350.845L530.68 346.21C530.049 345.845 529.507 346.054 529.327 346.679L521.93 371.678L515.976 370.324L514.623 374.438L520.577 375.792L515.255 393.656L546.918 411.937C547.549 412.302 548.09 412.093 548.271 411.573L550.075 405.427L550.075 405.114C550.165 404.333 549.714 403.552 549.083 403.187V403.187Z" fill="#060606"/>
</g>
<path d="M384.282 363.535L209.058 464.701C231.413 451.794 249.536 462.257 249.536 488.071L249.536 631.559C249.536 664.696 272.8 678.128 301.497 661.559L435.378 584.263L435.378 393.035C435.378 360.45 412.502 347.243 384.282 363.535Z" fill="white" stroke="#060606" stroke-width="1.5" stroke-linejoin="round"/>
<path d="M421.12 405.457L267.408 494.203" stroke="#060606" stroke-width="1.5" stroke-miterlimit="10" stroke-linecap="round" stroke-linejoin="round"/>
<path d="M421.12 470.488L267.408 559.234" stroke="#060606" stroke-width="1.5" stroke-miterlimit="10" stroke-linecap="round" stroke-linejoin="round"/>
<path d="M285.046 498.008L268.898 507.331" stroke="#060606" stroke-width="1.5" stroke-miterlimit="10" stroke-linecap="round" stroke-linejoin="round"/>
<path d="M285.046 563.039L268.898 572.362" stroke="#060606" stroke-width="1.5" stroke-miterlimit="10" stroke-linecap="round" stroke-linejoin="round"/>
<path d="M332.706 470.488L290.164 495.05" stroke="#060606" stroke-width="1.5" stroke-miterlimit="10" stroke-linecap="round" stroke-linejoin="round"/>
<path d="M332.706 535.52L290.164 560.081" stroke="#060606" stroke-width="1.5" stroke-miterlimit="10" stroke-linecap="round" stroke-linejoin="round"/>
<path d="M373.676 446.836L337.828 467.532" stroke="#060606" stroke-width="1.5" stroke-miterlimit="10" stroke-linecap="round" stroke-linejoin="round"/>
<path d="M373.676 511.867L337.828 532.564" stroke="#060606" stroke-width="1.5" stroke-miterlimit="10" stroke-linecap="round" stroke-linejoin="round"/>
<path d="M395.729 434.102L376.821 445.018" stroke="#060606" stroke-width="1.5" stroke-miterlimit="10" stroke-linecap="round" stroke-linejoin="round"/>
<path d="M395.729 499.133L376.821 510.049" stroke="#060606" stroke-width="1.5" stroke-miterlimit="10" stroke-linecap="round" stroke-linejoin="round"/>
<path d="M419.363 420.457L399.274 432.056" stroke="#060606" stroke-width="1.5" stroke-miterlimit="10" stroke-linecap="round" stroke-linejoin="round"/>
<path d="M419.363 485.488L399.274 497.087" stroke="#060606" stroke-width="1.5" stroke-miterlimit="10" stroke-linecap="round" stroke-linejoin="round"/>
<path d="M292.136 504.371L268.897 517.788" stroke="#060606" stroke-width="1.5" stroke-miterlimit="10" stroke-linecap="round" stroke-linejoin="round"/>
<path d="M292.136 569.402L268.897 582.819" stroke="#060606" stroke-width="1.5" stroke-miterlimit="10" stroke-linecap="round" stroke-linejoin="round"/>
<path d="M350.823 470.484L296.074 502.094" stroke="#060606" stroke-width="1.5" stroke-miterlimit="10" stroke-linecap="round" stroke-linejoin="round"/>
<path d="M350.823 535.516L296.074 567.125" stroke="#060606" stroke-width="1.5" stroke-miterlimit="10" stroke-linecap="round" stroke-linejoin="round"/>
<path d="M313.839 578.066L313.839 638.723C313.839 647.424 307.73 658.004 300.195 662.354L367.851 623.293C383.635 614.18 396.43 592.019 396.43 573.793L396.43 530.382L313.839 578.066Z" fill="#060606" stroke="#060606" stroke-width="1.5" stroke-linejoin="round"/>
<path d="M330.45 562.538L330.45 609.951C330.45 629.245 316.905 652.707 300.195 662.354L485.022 555.644C500.806 546.531 513.601 524.369 513.601 506.144L513.601 456.796L330.45 562.538Z" fill="#B0F127" stroke="#060606" stroke-width="1.5" stroke-linejoin="round"/>
<path d="M427.489 224.246L193.77 359.184" stroke="#060606" stroke-width="1.5" stroke-miterlimit="10" stroke-linecap="round" stroke-linejoin="round"/>
<path d="M220.585 364.971L196.032 379.147" stroke="#060606" stroke-width="1.5" stroke-miterlimit="10" stroke-linecap="round" stroke-linejoin="round"/>
<path d="M293.055 323.127L228.37 360.473" stroke="#060606" stroke-width="1.5" stroke-miterlimit="10" stroke-linecap="round" stroke-linejoin="round"/>
<path d="M355.347 287.164L300.841 318.633" stroke="#060606" stroke-width="1.5" stroke-miterlimit="10" stroke-linecap="round" stroke-linejoin="round"/>
<path d="M388.882 267.803L360.133 284.401" stroke="#060606" stroke-width="1.5" stroke-miterlimit="10" stroke-linecap="round" stroke-linejoin="round"/>
<path d="M424.815 247.057L394.27 264.692" stroke="#060606" stroke-width="1.5" stroke-miterlimit="10" stroke-linecap="round" stroke-linejoin="round"/>
<path d="M231.365 374.646L196.031 395.047" stroke="#060606" stroke-width="1.5" stroke-miterlimit="10" stroke-linecap="round" stroke-linejoin="round"/>
<path d="M320.603 323.123L237.356 371.185" stroke="#060606" stroke-width="1.5" stroke-miterlimit="10" stroke-linecap="round" stroke-linejoin="round"/>
<path d="M389.482 283.355L328.391 318.627" stroke="#060606" stroke-width="1.5" stroke-miterlimit="10" stroke-linecap="round" stroke-linejoin="round"/>
<path d="M424.815 262.959L394.27 280.595" stroke="#060606" stroke-width="1.5" stroke-miterlimit="10" stroke-linecap="round" stroke-linejoin="round"/>
<path d="M219.979 397.123L196.028 410.951" stroke="#060606" stroke-width="1.5" stroke-miterlimit="10" stroke-linecap="round" stroke-linejoin="round"/>
<path d="M291.26 355.969L225.973 393.662" stroke="#060606" stroke-width="1.5" stroke-miterlimit="10" stroke-linecap="round" stroke-linejoin="round"/>
<path d="M339.171 328.309L299.039 351.479" stroke="#060606" stroke-width="1.5" stroke-miterlimit="10" stroke-linecap="round" stroke-linejoin="round"/>
<path d="M391.881 297.877L345.757 324.507" stroke="#060606" stroke-width="1.5" stroke-miterlimit="10" stroke-linecap="round" stroke-linejoin="round"/>
<path d="M424.815 278.861L397.27 294.764" stroke="#060606" stroke-width="1.5" stroke-miterlimit="10" stroke-linecap="round" stroke-linejoin="round"/>
<path d="M203.81 432.748L196.029 437.24" stroke="#060606" stroke-width="1.5" stroke-miterlimit="10" stroke-linecap="round" stroke-linejoin="round"/>
<path d="M259.511 400.588L210.997 428.597" stroke="#060606" stroke-width="1.5" stroke-miterlimit="10" stroke-linecap="round" stroke-linejoin="round"/>
<path d="M331.385 359.092L266.107 396.78" stroke="#060606" stroke-width="1.5" stroke-miterlimit="10" stroke-linecap="round" stroke-linejoin="round"/>
<path d="M351.753 347.332L336.777 355.979" stroke="#060606" stroke-width="1.5" stroke-miterlimit="10" stroke-linecap="round" stroke-linejoin="round"/>
<path d="M408.051 314.826L357.74 343.873" stroke="#060606" stroke-width="1.5" stroke-miterlimit="10" stroke-linecap="round" stroke-linejoin="round"/>
<path d="M424.815 305.148L413.442 311.715" stroke="#060606" stroke-width="1.5" stroke-miterlimit="10" stroke-linecap="round" stroke-linejoin="round"/>
<path fill-rule="evenodd" clip-rule="evenodd" d="M556.089 687.493C552.383 680.742 545.894 674.39 536.622 669.037C505.73 651.201 455.645 651.201 424.753 669.037C415.481 674.39 408.991 680.742 405.285 687.493H401.577V700.711H401.592C401.314 712.604 409.035 724.549 424.753 733.624C455.645 751.459 505.73 751.459 536.622 733.624C552.34 724.549 560.061 712.604 559.783 700.711H559.841V687.493H556.089Z" fill="#B0F127"/>
<path d="M536.622 669.037L536.247 669.686L536.247 669.686L536.622 669.037ZM556.089 687.493L555.432 687.854L555.646 688.243H556.089V687.493ZM424.753 669.037L425.128 669.686L425.128 669.686L424.753 669.037ZM405.285 687.493V688.243H405.729L405.943 687.854L405.285 687.493ZM401.577 687.493V686.743H400.827V687.493H401.577ZM401.577 700.711H400.827V701.461H401.577V700.711ZM401.592 700.711L402.342 700.728L402.36 699.961H401.592V700.711ZM424.753 733.624L425.128 732.974L425.128 732.974L424.753 733.624ZM536.622 733.624L536.247 732.974L536.247 732.974L536.622 733.624ZM559.783 700.711V699.961H559.015L559.033 700.728L559.783 700.711ZM559.841 700.711V701.461H560.591V700.711H559.841ZM559.841 687.493H560.591V686.743H559.841V687.493ZM536.247 669.686C545.432 674.989 551.808 681.252 555.432 687.854L556.747 687.132C552.959 680.232 546.356 673.791 536.997 668.387L536.247 669.686ZM425.128 669.686C440.433 660.85 460.54 656.41 480.687 656.41C500.835 656.41 520.942 660.85 536.247 669.686L536.997 668.387C521.41 659.388 501.028 654.91 480.687 654.91C460.346 654.91 439.965 659.388 424.378 668.387L425.128 669.686ZM405.943 687.854C409.567 681.252 415.943 674.989 425.128 669.686L424.378 668.387C415.019 673.791 408.416 680.232 404.628 687.132L405.943 687.854ZM401.577 688.243H405.285V686.743H401.577V688.243ZM402.327 700.711V687.493H400.827V700.711H402.327ZM401.592 699.961H401.577V701.461H401.592V699.961ZM425.128 732.974C409.548 723.979 402.073 712.25 402.342 700.728L400.842 700.693C400.556 712.958 408.521 725.118 424.378 734.273L425.128 732.974ZM536.247 732.974C520.942 741.811 500.835 746.25 480.687 746.25C460.54 746.25 440.433 741.811 425.128 732.974L424.378 734.273C439.965 743.272 460.346 747.75 480.687 747.75C501.028 747.75 521.41 743.272 536.997 734.273L536.247 732.974ZM559.033 700.728C559.302 712.25 551.826 723.979 536.247 732.974L536.997 734.273C552.854 725.118 560.819 712.958 560.533 700.693L559.033 700.728ZM559.841 699.961H559.783V701.461H559.841V699.961ZM559.091 687.493V700.711H560.591V687.493H559.091ZM556.089 688.243H559.841V686.743H556.089V688.243Z" fill="#060606"/>
<mask id="mask4_3774_36808" style="mask-type:alpha" maskUnits="userSpaceOnUse" x="400" y="652" width="161" height="94">
<path fill-rule="evenodd" clip-rule="evenodd" d="M556.089 684.897C552.383 678.146 545.894 671.794 536.622 666.441C505.73 648.606 455.645 648.606 424.753 666.441C415.481 671.794 408.991 678.146 405.285 684.897H401.577V698.115H401.592C401.314 710.009 409.035 721.953 424.753 731.028C455.645 748.863 505.73 748.863 536.622 731.028C552.34 721.953 560.061 710.009 559.783 698.115H559.841V684.897H556.089Z" fill="#71A407"/>
<path d="M536.622 666.441L536.247 667.09L536.247 667.09L536.622 666.441ZM556.089 684.897L555.432 685.258L555.646 685.647H556.089V684.897ZM424.753 666.441L425.128 667.09L425.128 667.09L424.753 666.441ZM405.285 684.897V685.647H405.729L405.943 685.258L405.285 684.897ZM401.577 684.897V684.147H400.827V684.897H401.577ZM401.577 698.115H400.827V698.865H401.577V698.115ZM401.592 698.115L402.342 698.132L402.36 697.365H401.592V698.115ZM424.753 731.028L425.128 730.379L425.128 730.379L424.753 731.028ZM536.622 731.028L536.247 730.379L536.247 730.379L536.622 731.028ZM559.783 698.115V697.365H559.015L559.033 698.132L559.783 698.115ZM559.841 698.115V698.865H560.591V698.115H559.841ZM559.841 684.897H560.591V684.147H559.841V684.897ZM536.247 667.09C545.432 672.394 551.808 678.656 555.432 685.258L556.747 684.536C552.959 677.637 546.356 671.195 536.997 665.791L536.247 667.09ZM425.128 667.09C440.433 658.254 460.54 653.814 480.687 653.814C500.835 653.814 520.942 658.254 536.247 667.09L536.997 665.791C521.41 656.792 501.028 652.314 480.687 652.314C460.346 652.314 439.965 656.792 424.378 665.791L425.128 667.09ZM405.943 685.258C409.567 678.656 415.943 672.394 425.128 667.09L424.378 665.791C415.019 671.195 408.416 677.637 404.628 684.536L405.943 685.258ZM401.577 685.647H405.285V684.147H401.577V685.647ZM402.327 698.115V684.897H400.827V698.115H402.327ZM401.592 697.365H401.577V698.865H401.592V697.365ZM425.128 730.379C409.548 721.384 402.073 709.654 402.342 698.132L400.842 698.097C400.556 710.363 408.521 722.522 424.378 731.678L425.128 730.379ZM536.247 730.379C520.942 739.215 500.835 743.655 480.687 743.655C460.54 743.655 440.433 739.215 425.128 730.379L424.378 731.678C439.965 740.677 460.346 745.155 480.687 745.155C501.028 745.155 521.41 740.677 536.997 731.678L536.247 730.379ZM559.033 698.132C559.302 709.654 551.826 721.384 536.247 730.379L536.997 731.678C552.854 722.522 560.819 710.363 560.533 698.097L559.033 698.132ZM559.841 697.365H559.783V698.865H559.841V697.365ZM559.091 684.897V698.115H560.591V684.897H559.091ZM556.089 685.647H559.841V684.147H556.089V685.647Z" fill="#060606"/>
</mask>
<g mask="url(#mask4_3774_36808)">
<rect width="79.1336" height="64.5863" transform="matrix(-1 0 0 1 480.719 684.904)" fill="#B0F127"/>
</g>
<path d="M536.622 669.037L536.247 669.686L536.247 669.686L536.622 669.037ZM556.089 687.493L555.432 687.854L555.646 688.243H556.089V687.493ZM424.753 669.037L425.128 669.686L425.128 669.686L424.753 669.037ZM405.285 687.493V688.243H405.729L405.943 687.854L405.285 687.493ZM401.577 687.493V686.743H400.827V687.493H401.577ZM401.577 700.711H400.827V701.461H401.577V700.711ZM401.592 700.711L402.342 700.728L402.36 699.961H401.592V700.711ZM424.753 733.624L425.128 732.974L425.128 732.974L424.753 733.624ZM536.622 733.624L536.247 732.974L536.247 732.974L536.622 733.624ZM559.783 700.711V699.961H559.015L559.033 700.728L559.783 700.711ZM559.841 700.711V701.461H560.591V700.711H559.841ZM559.841 687.493H560.591V686.743H559.841V687.493ZM536.247 669.686C545.432 674.989 551.808 681.252 555.432 687.854L556.747 687.132C552.959 680.232 546.356 673.791 536.997 668.387L536.247 669.686ZM425.128 669.686C440.433 660.85 460.54 656.41 480.687 656.41C500.835 656.41 520.942 660.85 536.247 669.686L536.997 668.387C521.41 659.388 501.028 654.91 480.687 654.91C460.346 654.91 439.965 659.388 424.378 668.387L425.128 669.686ZM405.943 687.854C409.567 681.252 415.943 674.989 425.128 669.686L424.378 668.387C415.019 673.791 408.416 680.232 404.628 687.132L405.943 687.854ZM401.577 688.243H405.285V686.743H401.577V688.243ZM402.327 700.711V687.493H400.827V700.711H402.327ZM401.592 699.961H401.577V701.461H401.592V699.961ZM425.128 732.974C409.548 723.979 402.073 712.25 402.342 700.728L400.842 700.693C400.556 712.958 408.521 725.118 424.378 734.273L425.128 732.974ZM536.247 732.974C520.942 741.811 500.835 746.25 480.687 746.25C460.54 746.25 440.433 741.811 425.128 732.974L424.378 734.273C439.965 743.272 460.346 747.75 480.687 747.75C501.028 747.75 521.41 743.272 536.997 734.273L536.247 732.974ZM559.033 700.728C559.302 712.25 551.826 723.979 536.247 732.974L536.997 734.273C552.854 725.118 560.819 712.958 560.533 700.693L559.033 700.728ZM559.841 699.961H559.783V701.461H559.841V699.961ZM559.091 687.493V700.711H560.591V687.493H559.091ZM556.089 688.243H559.841V686.743H556.089V688.243Z" fill="#060606"/>
<circle r="64.5872" transform="matrix(0.866025 -0.5 0.866025 0.5 480.687 682.424)" fill="#B0F127" stroke="#060606" stroke-width="1.5"/>
<path d="M497.721 663.424C492.242 659.148 483.873 659.98 474.855 662.519L468.303 656.224L461.666 658.527L468.045 664.656C466.301 665.261 464.538 665.9 462.787 666.535L456.367 660.365L449.733 662.666L456.281 668.96C454.861 669.476 453.466 669.981 452.091 670.459L452.07 670.439L442.914 673.613L447.175 677.705C447.175 677.705 452.02 675.951 451.992 676.031C454.681 675.099 456.494 675.697 457.558 676.386L465.022 683.558C465.208 683.494 465.455 683.414 465.752 683.341C465.531 683.418 465.293 683.499 465.051 683.585L475.505 693.632C475.896 694.162 476.209 695.113 474.333 695.766C474.463 695.78 469.507 697.439 469.507 697.439L472.951 702.473L481.588 699.477C483.197 698.92 484.795 698.387 486.353 697.854L492.982 704.22L499.613 701.921L493.056 695.621C494.899 695.012 496.67 694.409 498.389 693.811L504.912 700.083L511.548 697.78L504.936 691.424C515.71 687.183 521.83 682.851 516.504 676.465C512.217 671.322 505.986 670.525 498.738 671.844C501.409 669.378 501.74 666.55 497.721 663.424V663.424ZM502.604 680.26C507.56 685.017 492.885 689.371 488.39 690.934L479.612 682.497C484.112 680.937 497.44 675.297 502.604 680.26V680.26ZM487.131 669.429C491.634 673.758 479.34 677.336 475.593 678.636L467.631 670.985C471.377 669.685 482.431 664.914 487.131 669.429V669.429Z" fill="#060606"/>
<path fill-rule="evenodd" clip-rule="evenodd" d="M556.088 668.128C552.382 661.377 545.893 655.025 536.621 649.671C505.729 631.836 455.644 631.836 424.752 649.671C415.48 655.025 408.99 661.377 405.285 668.128H401.576V681.345H401.591C401.313 693.239 409.034 705.183 424.752 714.259C455.644 732.094 505.729 732.094 536.621 714.259C552.339 705.183 560.06 693.239 559.782 681.345H559.84V668.128H556.088Z" fill="#B0F127"/>
<path d="M536.621 649.671L536.246 650.321L536.246 650.321L536.621 649.671ZM556.088 668.128L555.431 668.489L555.645 668.878H556.088V668.128ZM424.752 649.671L425.127 650.321L425.127 650.321L424.752 649.671ZM405.285 668.128V668.878H405.728L405.942 668.489L405.285 668.128ZM401.576 668.128V667.378H400.826V668.128H401.576ZM401.576 681.345H400.826V682.095H401.576V681.345ZM401.591 681.345L402.341 681.363L402.359 680.595H401.591V681.345ZM424.752 714.259L425.127 713.609L425.127 713.609L424.752 714.259ZM536.621 714.259L536.246 713.609L536.246 713.609L536.621 714.259ZM559.782 681.345V680.595H559.014L559.032 681.363L559.782 681.345ZM559.84 681.345V682.095H560.59V681.345H559.84ZM559.84 668.128H560.59V667.378H559.84V668.128ZM536.246 650.321C545.431 655.624 551.807 661.887 555.431 668.489L556.746 667.767C552.958 660.867 546.355 654.426 536.996 649.022L536.246 650.321ZM425.127 650.321C440.432 641.485 460.539 637.045 480.686 637.045C500.834 637.045 520.941 641.485 536.246 650.321L536.996 649.022C521.409 640.023 501.027 635.545 480.686 635.545C460.346 635.545 439.964 640.023 424.377 649.022L425.127 650.321ZM405.942 668.489C409.566 661.887 415.942 655.624 425.127 650.321L424.377 649.022C415.018 654.426 408.415 660.867 404.627 667.767L405.942 668.489ZM401.576 668.878H405.285V667.378H401.576V668.878ZM402.326 681.345V668.128H400.826V681.345H402.326ZM401.591 680.595H401.576V682.095H401.591V680.595ZM425.127 713.609C409.548 704.614 402.072 692.885 402.341 681.363L400.841 681.328C400.555 693.593 408.52 705.753 424.377 714.908L425.127 713.609ZM536.246 713.609C520.941 722.445 500.834 726.885 480.686 726.885C460.539 726.885 440.432 722.445 425.127 713.609L424.377 714.908C439.964 723.907 460.346 728.385 480.686 728.385C501.027 728.385 521.409 723.907 536.996 714.908L536.246 713.609ZM559.032 681.363C559.301 692.885 551.825 704.614 536.246 713.609L536.996 714.908C552.853 705.753 560.818 693.593 560.532 681.328L559.032 681.363ZM559.84 680.595H559.782V682.095H559.84V680.595ZM559.09 668.128V681.345H560.59V668.128H559.09ZM556.088 668.878H559.84V667.378H556.088V668.878Z" fill="#060606"/>
<mask id="mask5_3774_36808" style="mask-type:alpha" maskUnits="userSpaceOnUse" x="400" y="632" width="161" height="94">
<path fill-rule="evenodd" clip-rule="evenodd" d="M556.087 665.546C552.381 658.795 545.892 652.443 536.62 647.089C505.728 629.254 455.643 629.254 424.751 647.089C415.479 652.443 408.989 658.795 405.284 665.546H401.576V678.763H401.59C401.312 690.657 409.033 702.601 424.751 711.677C455.643 729.512 505.728 729.512 536.62 711.677C552.338 702.601 560.059 690.657 559.781 678.763H559.84V665.546H556.087Z" fill="#71A407"/>
<path d="M536.62 647.089L536.245 647.739L536.245 647.739L536.62 647.089ZM556.087 665.546L555.43 665.907L555.644 666.296H556.087V665.546ZM424.751 647.089L425.126 647.739L425.126 647.739L424.751 647.089ZM405.284 665.546V666.296H405.727L405.941 665.907L405.284 665.546ZM401.576 665.546V664.796H400.826V665.546H401.576ZM401.576 678.763H400.826V679.513H401.576V678.763ZM401.59 678.763L402.34 678.781L402.358 678.013H401.59V678.763ZM424.751 711.677L425.126 711.027L425.126 711.027L424.751 711.677ZM536.62 711.677L536.245 711.027L536.245 711.027L536.62 711.677ZM559.781 678.763V678.013H559.013L559.031 678.781L559.781 678.763ZM559.84 678.763V679.513H560.59V678.763H559.84ZM559.84 665.546H560.59V664.796H559.84V665.546ZM536.245 647.739C545.43 653.042 551.806 659.304 555.43 665.907L556.745 665.185C552.957 658.285 546.354 651.844 536.995 646.44L536.245 647.739ZM425.126 647.739C440.431 638.903 460.538 634.463 480.685 634.463C500.833 634.463 520.94 638.903 536.245 647.739L536.995 646.44C521.408 637.441 501.026 632.963 480.685 632.963C460.345 632.963 439.963 637.441 424.376 646.44L425.126 647.739ZM405.941 665.907C409.565 659.304 415.941 653.042 425.126 647.739L424.376 646.44C415.017 651.844 408.414 658.285 404.626 665.185L405.941 665.907ZM401.576 666.296H405.284V664.796H401.576V666.296ZM402.326 678.763V665.546H400.826V678.763H402.326ZM401.59 678.013H401.576V679.513H401.59V678.013ZM425.126 711.027C409.546 702.032 402.071 690.303 402.34 678.781L400.84 678.746C400.554 691.011 408.519 703.171 424.376 712.326L425.126 711.027ZM536.245 711.027C520.94 719.863 500.833 724.303 480.685 724.303C460.538 724.303 440.431 719.863 425.126 711.027L424.376 712.326C439.963 721.325 460.344 725.803 480.685 725.803C501.026 725.803 521.408 721.325 536.995 712.326L536.245 711.027ZM559.031 678.781C559.3 690.303 551.824 702.032 536.245 711.027L536.995 712.326C552.852 703.171 560.817 691.011 560.531 678.746L559.031 678.781ZM559.84 678.013H559.781V679.513H559.84V678.013ZM559.09 665.546V678.763H560.59V665.546H559.09ZM556.087 666.296H559.84V664.796H556.087V666.296Z" fill="#060606"/>
</mask>
<g mask="url(#mask5_3774_36808)">
<rect width="79.1336" height="64.5863" transform="matrix(-1 0 0 1 480.719 665.541)" fill="#B0F127"/>
</g>
<path d="M536.621 649.671L536.246 650.321L536.246 650.321L536.621 649.671ZM556.088 668.128L555.431 668.489L555.645 668.878H556.088V668.128ZM424.752 649.671L425.127 650.321L425.127 650.321L424.752 649.671ZM405.285 668.128V668.878H405.728L405.942 668.489L405.285 668.128ZM401.576 668.128V667.378H400.826V668.128H401.576ZM401.576 681.345H400.826V682.095H401.576V681.345ZM401.591 681.345L402.341 681.363L402.359 680.595H401.591V681.345ZM424.752 714.259L425.127 713.609L425.127 713.609L424.752 714.259ZM536.621 714.259L536.246 713.609L536.246 713.609L536.621 714.259ZM559.782 681.345V680.595H559.014L559.032 681.363L559.782 681.345ZM559.84 681.345V682.095H560.59V681.345H559.84ZM559.84 668.128H560.59V667.378H559.84V668.128ZM536.246 650.321C545.431 655.624 551.807 661.887 555.431 668.489L556.746 667.767C552.958 660.867 546.355 654.426 536.996 649.022L536.246 650.321ZM425.127 650.321C440.432 641.485 460.539 637.045 480.686 637.045C500.834 637.045 520.941 641.485 536.246 650.321L536.996 649.022C521.409 640.023 501.027 635.545 480.686 635.545C460.346 635.545 439.964 640.023 424.377 649.022L425.127 650.321ZM405.942 668.489C409.566 661.887 415.942 655.624 425.127 650.321L424.377 649.022C415.018 654.426 408.415 660.867 404.627 667.767L405.942 668.489ZM401.576 668.878H405.285V667.378H401.576V668.878ZM402.326 681.345V668.128H400.826V681.345H402.326ZM401.591 680.595H401.576V682.095H401.591V680.595ZM425.127 713.609C409.548 704.614 402.072 692.885 402.341 681.363L400.841 681.328C400.555 693.593 408.52 705.753 424.377 714.908L425.127 713.609ZM536.246 713.609C520.941 722.445 500.834 726.885 480.686 726.885C460.539 726.885 440.432 722.445 425.127 713.609L424.377 714.908C439.964 723.907 460.346 728.385 480.686 728.385C501.027 728.385 521.409 723.907 536.996 714.908L536.246 713.609ZM559.032 681.363C559.301 692.885 551.825 704.614 536.246 713.609L536.996 714.908C552.853 705.753 560.818 693.593 560.532 681.328L559.032 681.363ZM559.84 680.595H559.782V682.095H559.84V680.595ZM559.09 668.128V681.345H560.59V668.128H559.09ZM556.088 668.878H559.84V667.378H556.088V668.878Z" fill="#060606"/>
<circle r="64.5872" transform="matrix(0.866025 -0.5 0.866025 0.5 480.687 663.059)" fill="#B0F127" stroke="#060606" stroke-width="1.5"/>
<path d="M497.72 644.059C492.241 639.783 483.872 640.615 474.854 643.154L468.302 636.859L461.665 639.162L468.045 645.291C466.3 645.896 464.537 646.535 462.786 647.17L456.366 641L449.732 643.301L456.28 649.595C454.86 650.111 453.465 650.616 452.09 651.093L452.069 651.074L442.913 654.248L447.174 658.34C447.174 658.34 452.019 656.586 451.992 656.666C454.68 655.734 456.493 656.332 457.557 657.021L465.021 664.192C465.207 664.129 465.454 664.049 465.751 663.976C465.53 664.053 465.292 664.134 465.05 664.219L475.504 674.267C475.895 674.796 476.208 675.748 474.332 676.401C474.462 676.415 469.506 678.074 469.506 678.074L472.95 683.108L481.587 680.111C483.196 679.555 484.794 679.022 486.352 678.489L492.981 684.855L499.612 682.556L493.055 676.256C494.898 675.646 496.669 675.044 498.388 674.446L504.911 680.718L511.548 678.415L504.935 672.058C515.709 667.818 521.829 663.486 516.503 657.1C512.216 651.957 505.985 651.16 498.737 652.479C501.408 650.013 501.739 647.185 497.72 644.059V644.059ZM502.603 660.895C507.559 665.651 492.884 670.005 488.389 671.568L479.611 663.132C484.111 661.572 497.439 655.931 502.603 660.895V660.895ZM487.13 650.063C491.633 654.393 479.339 657.971 475.592 659.27L467.63 651.619C471.376 650.319 482.43 645.549 487.13 650.063V650.063Z" fill="#060606"/>
<path fill-rule="evenodd" clip-rule="evenodd" d="M556.087 649.663C552.381 642.912 545.892 636.56 536.62 631.207C505.728 613.371 455.643 613.371 424.751 631.207C415.479 636.56 408.99 642.912 405.284 649.663H401.575V662.881H401.59C401.312 674.774 409.033 686.719 424.751 695.794C455.643 713.629 505.728 713.629 536.62 695.794C552.338 686.719 560.059 674.774 559.781 662.881H559.84V649.663H556.087Z" fill="#B0F127"/>
<path d="M536.62 631.207L536.245 631.856L536.245 631.856L536.62 631.207ZM556.087 649.663L555.43 650.024L555.644 650.413H556.087V649.663ZM424.751 631.207L425.126 631.856L425.126 631.856L424.751 631.207ZM405.284 649.663V650.413H405.727L405.941 650.024L405.284 649.663ZM401.575 649.663V648.913H400.825V649.663H401.575ZM401.575 662.881H400.825V663.631H401.575V662.881ZM401.59 662.881L402.34 662.898L402.358 662.131H401.59V662.881ZM424.751 695.794L425.126 695.144L425.126 695.144L424.751 695.794ZM536.62 695.794L536.245 695.144L536.245 695.144L536.62 695.794ZM559.781 662.881V662.131H559.013L559.031 662.898L559.781 662.881ZM559.84 662.881V663.631H560.59V662.881H559.84ZM559.84 649.663H560.59V648.913H559.84V649.663ZM536.245 631.856C545.43 637.159 551.806 643.422 555.43 650.024L556.745 649.302C552.957 642.402 546.354 635.961 536.995 630.557L536.245 631.856ZM425.126 631.856C440.431 623.02 460.538 618.58 480.685 618.58C500.833 618.58 520.94 623.02 536.245 631.856L536.995 630.557C521.408 621.558 501.026 617.08 480.685 617.08C460.345 617.08 439.963 621.558 424.376 630.557L425.126 631.856ZM405.941 650.024C409.565 643.422 415.941 637.159 425.126 631.856L424.376 630.557C415.017 635.961 408.414 642.402 404.626 649.302L405.941 650.024ZM401.575 650.413H405.284V648.913H401.575V650.413ZM402.325 662.881V649.663H400.825V662.881H402.325ZM401.59 662.131H401.575V663.631H401.59V662.131ZM425.126 695.144C409.547 686.149 402.071 674.42 402.34 662.898L400.84 662.863C400.554 675.128 408.519 687.288 424.376 696.443L425.126 695.144ZM536.245 695.144C520.94 703.981 500.833 708.42 480.685 708.42C460.538 708.42 440.431 703.981 425.126 695.144L424.376 696.443C439.963 705.442 460.345 709.92 480.685 709.92C501.026 709.92 521.408 705.442 536.995 696.443L536.245 695.144ZM559.031 662.898C559.3 674.42 551.824 686.149 536.245 695.144L536.995 696.443C552.852 687.288 560.817 675.128 560.531 662.863L559.031 662.898ZM559.84 662.131H559.781V663.631H559.84V662.131ZM559.09 649.663V662.881H560.59V649.663H559.09ZM556.087 650.413H559.84V648.913H556.087V650.413Z" fill="#060606"/>
<mask id="mask6_3774_36808" style="mask-type:alpha" maskUnits="userSpaceOnUse" x="400" y="614" width="161" height="94">
<path fill-rule="evenodd" clip-rule="evenodd" d="M556.086 647.085C552.38 640.334 545.891 633.982 536.619 628.628C505.727 610.793 455.642 610.793 424.75 628.628C415.478 633.982 408.989 640.334 405.283 647.085H401.575V660.302H401.589C401.311 672.196 409.032 684.14 424.75 693.216C455.642 711.051 505.727 711.051 536.619 693.216C552.337 684.14 560.058 672.196 559.78 660.302H559.84V647.085H556.086Z" fill="#71A407"/>
<path d="M536.619 628.628L536.244 629.278L536.244 629.278L536.619 628.628ZM556.086 647.085L555.429 647.446L555.643 647.835H556.086V647.085ZM424.75 628.628L425.125 629.278L425.125 629.278L424.75 628.628ZM405.283 647.085V647.835H405.726L405.94 647.446L405.283 647.085ZM401.575 647.085V646.335H400.825V647.085H401.575ZM401.575 660.302H400.825V661.052H401.575V660.302ZM401.589 660.302L402.339 660.32L402.357 659.552H401.589V660.302ZM424.75 693.216L424.375 693.865L424.375 693.865L424.75 693.216ZM536.619 693.216L536.994 693.865L536.994 693.865L536.619 693.216ZM559.78 660.302V659.552H559.012L559.03 660.32L559.78 660.302ZM559.84 660.302V661.052H560.59V660.302H559.84ZM559.84 647.085H560.59V646.335H559.84V647.085ZM536.244 629.278C545.429 634.581 551.805 640.844 555.429 647.446L556.744 646.724C552.956 639.824 546.353 633.383 536.994 627.979L536.244 629.278ZM425.125 629.278C440.43 620.442 460.537 616.002 480.684 616.002C500.832 616.002 520.939 620.442 536.244 629.278L536.994 627.979C521.407 618.98 501.025 614.502 480.684 614.502C460.344 614.502 439.962 618.98 424.375 627.979L425.125 629.278ZM405.94 647.446C409.564 640.844 415.94 634.581 425.125 629.278L424.375 627.979C415.016 633.383 408.413 639.824 404.625 646.724L405.94 647.446ZM401.575 647.835H405.283V646.335H401.575V647.835ZM402.325 660.302V647.085H400.825V660.302H402.325ZM401.589 659.552H401.575V661.052H401.589V659.552ZM425.125 692.566C409.546 683.571 402.07 671.842 402.339 660.32L400.839 660.285C400.553 672.55 408.518 684.71 424.375 693.865L425.125 692.566ZM536.244 692.566C520.939 701.402 500.832 705.842 480.684 705.842C460.537 705.842 440.43 701.402 425.125 692.566L424.375 693.865C439.962 702.864 460.344 707.342 480.684 707.342C501.025 707.342 521.407 702.864 536.994 693.865L536.244 692.566ZM559.03 660.32C559.299 671.842 551.823 683.571 536.244 692.566L536.994 693.865C552.851 684.71 560.816 672.55 560.53 660.285L559.03 660.32ZM559.84 659.552H559.78V661.052H559.84V659.552ZM559.09 647.085V660.302H560.59V647.085H559.09ZM556.086 647.835H559.84V646.335H556.086V647.835Z" fill="#060606"/>
</mask>
<g mask="url(#mask6_3774_36808)">
<rect width="79.1336" height="64.5863" transform="matrix(-1 0 0 1 480.718 647.08)" fill="#B0F127"/>
</g>
<path d="M536.62 631.207L536.245 631.856L536.245 631.856L536.62 631.207ZM556.087 649.663L555.43 650.024L555.644 650.413H556.087V649.663ZM424.751 631.207L425.126 631.856L425.126 631.856L424.751 631.207ZM405.284 649.663V650.413H405.727L405.941 650.024L405.284 649.663ZM401.575 649.663V648.913H400.825V649.663H401.575ZM401.575 662.881H400.825V663.631H401.575V662.881ZM401.59 662.881L402.34 662.898L402.358 662.131H401.59V662.881ZM424.751 695.794L425.126 695.144L425.126 695.144L424.751 695.794ZM536.62 695.794L536.245 695.144L536.245 695.144L536.62 695.794ZM559.781 662.881V662.131H559.013L559.031 662.898L559.781 662.881ZM559.84 662.881V663.631H560.59V662.881H559.84ZM559.84 649.663H560.59V648.913H559.84V649.663ZM536.245 631.856C545.43 637.159 551.806 643.422 555.43 650.024L556.745 649.302C552.957 642.402 546.354 635.961 536.995 630.557L536.245 631.856ZM425.126 631.856C440.431 623.02 460.538 618.58 480.685 618.58C500.833 618.58 520.94 623.02 536.245 631.856L536.995 630.557C521.408 621.558 501.026 617.08 480.685 617.08C460.345 617.08 439.963 621.558 424.376 630.557L425.126 631.856ZM405.941 650.024C409.565 643.422 415.941 637.159 425.126 631.856L424.376 630.557C415.017 635.961 408.414 642.402 404.626 649.302L405.941 650.024ZM401.575 650.413H405.284V648.913H401.575V650.413ZM402.325 662.881V649.663H400.825V662.881H402.325ZM401.59 662.131H401.575V663.631H401.59V662.131ZM425.126 695.144C409.547 686.149 402.071 674.42 402.34 662.898L400.84 662.863C400.554 675.128 408.519 687.288 424.376 696.443L425.126 695.144ZM536.245 695.144C520.94 703.981 500.833 708.42 480.685 708.42C460.538 708.42 440.431 703.981 425.126 695.144L424.376 696.443C439.963 705.442 460.345 709.92 480.685 709.92C501.026 709.92 521.408 705.442 536.995 696.443L536.245 695.144ZM559.031 662.898C559.3 674.42 551.824 686.149 536.245 695.144L536.995 696.443C552.852 687.288 560.817 675.128 560.531 662.863L559.031 662.898ZM559.84 662.131H559.781V663.631H559.84V662.131ZM559.09 649.663V662.881H560.59V649.663H559.09ZM556.087 650.413H559.84V648.913H556.087V650.413Z" fill="#060606"/>
<circle r="64.5872" transform="matrix(0.866025 -0.5 0.866025 0.5 480.687 644.594)" fill="white" stroke="#060606" stroke-width="1.5"/>
<path d="M497.721 625.594C492.242 621.318 483.873 622.15 474.855 624.689L468.303 618.394L461.666 620.697L468.045 626.826C466.301 627.431 464.538 628.07 462.787 628.705L456.367 622.535L449.733 624.836L456.281 631.13C454.861 631.646 453.466 632.151 452.091 632.629L452.07 632.609L442.914 635.783L447.175 639.875C447.175 639.875 452.02 638.121 451.992 638.201C454.681 637.269 456.494 637.867 457.558 638.556L465.022 645.728C465.208 645.664 465.455 645.584 465.752 645.511C465.531 645.588 465.293 645.669 465.051 645.755L475.505 655.802C475.896 656.332 476.209 657.283 474.333 657.936C474.463 657.95 469.507 659.609 469.507 659.609L472.951 664.643L481.588 661.647C483.197 661.09 484.795 660.557 486.353 660.024L492.982 666.39L499.613 664.091L493.056 657.791C494.899 657.182 496.67 656.579 498.389 655.981L504.912 662.253L511.548 659.95L504.936 653.594C515.71 649.353 521.83 645.021 516.504 638.635C512.217 633.492 505.986 632.695 498.738 634.014C501.409 631.548 501.74 628.72 497.721 625.594V625.594ZM502.604 642.43C507.56 647.187 492.885 651.541 488.39 653.104L479.612 644.667C484.112 643.107 497.44 637.467 502.604 642.43V642.43ZM487.131 631.599C491.634 635.928 479.34 639.506 475.593 640.806L467.631 633.154C471.377 631.855 482.431 627.084 487.131 631.599V631.599Z" fill="#060606"/>
<rect x="0.649519" y="1.125" width="222.246" height="342.353" rx="15.25" transform="matrix(0.866025 0.5 -2.20305e-08 1 0.0870191 384.523)" fill="#B0F127" stroke="#060606" stroke-width="1.5"/>
<rect x="0.649519" y="1.125" width="51.9151" height="342.353" transform="matrix(0.866025 0.5 -2.20305e-08 1 32.1183 401.566)" fill="#141414" stroke="#060606" stroke-width="1.5"/>
<rect x="0.649519" y="1.125" width="10.3458" height="74.756" rx="3.25" transform="matrix(0.866025 0.5 -2.20305e-08 1 155.49 721.042)" fill="#060606" stroke="#060606" stroke-width="1.5"/>
<rect width="41.5692" height="55.5268" rx="7" transform="matrix(0.866025 0.5 -2.20305e-08 1 129.662 490.814)" fill="#060606"/>
<path d="M129.662 508.414L165.662 529.199" stroke="#B0F127" stroke-width="2"/>
<path d="M129.662 518.578L165.662 539.363" stroke="#B0F127" stroke-width="2"/>
<path d="M129.662 528.742L165.662 549.527" stroke="#B0F127" stroke-width="2"/>
<rect width="18.9796" height="32.4665" rx="5" transform="matrix(0.866025 0.5 -2.20305e-08 1 139.444 507.992)" fill="#060606" stroke="#B0F127" stroke-width="2"/>
</svg>
