<svg width="860" height="257" viewBox="0 0 860 257" fill="none" xmlns="http://www.w3.org/2000/svg">
<path d="M83.1206 142.308L133.717 165.068L138.356 194.183L83.1206 142.308Z" fill="#060606" stroke="#939393" stroke-linecap="round" stroke-linejoin="round"/>
<path d="M174.739 127.709L133.718 165.068L138.358 194.183L174.739 127.709Z" fill="white" stroke="#939393" stroke-linecap="round" stroke-linejoin="round"/>
<path d="M174.739 127.709L133.718 165.068L138.358 194.183L174.739 127.709Z" fill="#060606" stroke="#939393" stroke-linecap="round" stroke-linejoin="round"/>
<path d="M83.1214 142.303L125.069 110.792L174.739 127.704L133.717 165.063L83.1214 142.303Z" fill="white" stroke="#939393" stroke-linecap="round" stroke-linejoin="round"/>
<path d="M83.1214 142.303L125.069 110.792L174.739 127.704L133.717 165.063L83.1214 142.303Z" fill="#060606" stroke="#939393" stroke-linecap="round" stroke-linejoin="round"/>
<path d="M117.345 62.3105L131.773 152.853L172.745 115.184L117.345 62.3105Z" fill="white" stroke="#939393" stroke-linecap="round" stroke-linejoin="round"/>
<path d="M117.342 62.3096L131.77 152.852L172.742 115.183L117.342 62.3096Z" fill="#060606" stroke="#939393" stroke-linecap="round" stroke-linejoin="round"/>
<path d="M117.343 62.3092L131.771 152.852L81.1252 129.782L117.343 62.3092Z" fill="#060606" stroke="#939393" stroke-linecap="round" stroke-linejoin="round"/>
<path d="M821.44 88.7891L778.376 164.104L830.927 160.631L821.44 88.7891Z" fill="white" stroke="#939393" stroke-linecap="round" stroke-linejoin="round"/>
<path d="M821.44 88.7891L778.376 164.104L830.927 160.631L821.44 88.7891Z" fill="#060606" stroke="#939393" stroke-linecap="round" stroke-linejoin="round"/>
<path d="M821.44 88.7884L778.376 164.103L754.718 117.055L821.44 88.7884Z" fill="#060606" stroke="#939393" stroke-linecap="round" stroke-linejoin="round"/>
</svg>
