<svg width="62" height="62" viewBox="0 0 62 62" fill="none" xmlns="http://www.w3.org/2000/svg">
<rect opacity="0.1" y="0.0175781" width="61.2848" height="61.2848" rx="30.6424" fill="white"/>
<path d="M31.3065 32.3572H40.3813C40.5748 32.3572 40.6661 32.3572 40.6801 32.1036C40.7543 31.1804 40.7543 30.2519 40.6801 29.3276C40.6801 29.1481 40.5909 29.074 40.3964 29.074H22.3359C22.1124 29.074 22.0522 29.1481 22.0522 29.3577V32.0144C22.0522 32.3572 22.0522 32.3572 22.4101 32.3572H31.3065V32.3572ZM39.6666 25.9691C39.6924 25.9014 39.6924 25.8273 39.6666 25.7606C39.5151 25.4307 39.3356 25.1158 39.1271 24.8203C38.8133 24.3152 38.4436 23.8498 38.0223 23.4318C37.8235 23.1792 37.5935 22.9524 37.3356 22.7601C36.0438 21.6606 34.508 20.8825 32.8573 20.4914C32.0244 20.3044 31.1732 20.2152 30.3199 20.2227H22.3047C22.0812 20.2227 22.0511 20.3119 22.0511 20.5064V25.8047C22.0511 26.0282 22.0511 26.0884 22.3348 26.0884H39.5592C39.5592 26.0884 39.7086 26.0583 39.7387 25.9691H39.6656H39.6666ZM39.6666 35.462C39.413 35.4341 39.1572 35.4341 38.9036 35.462H22.351C22.1274 35.462 22.0522 35.462 22.0522 35.7608V40.9409C22.0522 41.1795 22.0522 41.2397 22.351 41.2397H29.9932C30.3586 41.2676 30.724 41.2418 31.0819 41.1655C32.191 41.086 33.2818 40.8452 34.3221 40.4487C34.7004 40.3176 35.0658 40.1467 35.4108 39.9414H35.515C37.3066 39.0096 38.7617 37.5459 39.6795 35.749C39.6795 35.749 39.7838 35.5233 39.6666 35.4642V35.462ZM19.0527 43.9254V43.8362V40.3584V39.1794V35.6716C19.0527 35.4771 19.0527 35.4481 18.8141 35.4481H15.5749C15.3954 35.4481 15.3213 35.4481 15.3213 35.2095V32.3733H18.784C18.9774 32.3733 19.0527 32.3733 19.0527 32.1197V29.3136C19.0527 29.1342 19.0527 29.0901 18.8141 29.0901H15.5749C15.3954 29.0901 15.3213 29.0901 15.3213 28.8515V26.2249C15.3213 26.0605 15.3213 26.0164 15.5599 26.0164H18.769C18.9925 26.0164 19.0527 26.0164 19.0527 25.7327V17.6874C19.0527 17.4489 19.0527 17.3887 19.3514 17.3887H30.5456C31.3581 17.4209 32.1652 17.5101 32.9637 17.6573C34.6091 17.9615 36.19 18.5494 37.6354 19.3887C38.5941 19.9529 39.4764 20.6343 40.262 21.4188C40.8531 22.0325 41.3862 22.6967 41.859 23.4038C42.3287 24.1206 42.7188 24.8869 43.0251 25.6876C43.0627 25.8961 43.2626 26.0368 43.4711 26.0014H46.1428C46.4857 26.0014 46.4857 26.0014 46.5007 26.3302V28.7784C46.5007 29.017 46.4115 29.0772 46.1719 29.0772H44.1116C43.9031 29.0772 43.843 29.0772 43.858 29.3459C43.9397 30.2551 43.9397 31.1675 43.858 32.0767C43.858 32.3303 43.858 32.3604 44.1428 32.3604H46.4996C46.6039 32.4948 46.4996 32.6291 46.4996 32.7645C46.5147 32.9375 46.5147 33.1127 46.4996 33.2858V35.0923C46.4996 35.346 46.4255 35.4212 46.2009 35.4212H43.3798C43.1831 35.3836 42.9918 35.5093 42.9467 35.7049C42.275 37.4513 41.2003 39.0172 39.8117 40.2724C39.3045 40.7292 38.7714 41.1591 38.2147 41.5556C37.6172 41.8995 37.0358 42.2574 36.4232 42.5411C35.2958 43.0484 34.1136 43.4224 32.9003 43.6599C31.7482 43.8662 30.58 43.9597 29.4075 43.9436H19.0484V43.9286L19.0527 43.9254Z" fill="white"/>
</svg>
