<svg width="62" height="62" viewBox="0 0 62 62" fill="none" xmlns="http://www.w3.org/2000/svg">
<rect opacity="0.1" x="0.000976562" width="61.2848" height="61.2848" rx="30.6424" fill="white"/>
<path d="M42.4962 27.6411C42.9779 24.4213 40.5264 22.6904 37.1743 21.5357L38.2616 17.1741L35.6067 16.5125L34.5481 20.7591C33.8501 20.5852 33.1333 20.4211 32.421 20.2586L33.4872 15.9839L30.8337 15.3223L29.7456 19.6824C29.1679 19.5508 28.6008 19.4207 28.0503 19.2839L28.0533 19.2702L24.3919 18.356L23.6856 21.1917C23.6856 21.1917 25.6555 21.6431 25.6139 21.6711C26.6892 21.9395 26.8835 22.6511 26.851 23.2152L25.6124 28.184C25.6865 28.2029 25.7825 28.2301 25.8884 28.2725C25.7999 28.2506 25.7054 28.2264 25.6078 28.2029L23.8717 35.1635C23.7401 35.4901 23.4066 35.9801 22.655 35.7941C22.6815 35.8327 20.7252 35.3124 20.7252 35.3124L19.4072 38.3515L22.8622 39.2128C23.5049 39.3738 24.1348 39.5425 24.7549 39.7013L23.6562 44.1128L26.3081 44.7744L27.3962 40.4098C28.1206 40.6064 28.8238 40.7879 29.512 40.9588L28.4276 45.303L31.0825 45.9647L32.1812 41.5615C36.7085 42.4182 40.1127 42.0726 41.5457 37.978C42.7004 34.681 41.4882 32.7793 39.1063 31.5391C40.8409 31.1391 42.1476 29.9981 42.4962 27.6411V27.6411ZM36.4302 36.1473C35.6097 39.4442 30.0587 37.6619 28.259 37.215L29.7169 31.3705C31.5166 31.8197 37.2877 32.7089 36.4302 36.1473V36.1473ZM37.2514 27.5934C36.5028 30.5924 31.8826 29.0687 30.3838 28.6952L31.7056 23.3944C33.2044 23.768 38.031 24.4652 37.2514 27.5934V27.5934Z" fill="white"/>
</svg>
