<svg width="626" height="443" viewBox="0 0 626 443" fill="none" xmlns="http://www.w3.org/2000/svg">
<path d="M0 0H626V443H0V0Z" fill="#141414"/>
<mask id="mask0_3760_41725" style="mask-type:alpha" maskUnits="userSpaceOnUse" x="0" y="0" width="626" height="443">
<path d="M0 0H626V443H0V0Z" fill="#141414"/>
</mask>
<g mask="url(#mask0_3760_41725)">
<g opacity="0.1">
<path d="M-407.685 248.27L444.484 740.27" stroke="white" stroke-linejoin="round"/>
<path d="M-282.977 176.27L569.192 668.27" stroke="white" stroke-linejoin="round"/>
<path d="M-158.27 104.27L693.899 596.27" stroke="white" stroke-linejoin="round"/>
<path d="M-33.5615 32.2695L818.607 524.27" stroke="white" stroke-linejoin="round"/>
<path d="M91.1465 -39.7305L943.315 452.27" stroke="white" stroke-linejoin="round"/>
<path d="M215.854 -111.73L1068.02 380.27" stroke="white" stroke-linejoin="round"/>
<path d="M444.484 -111.73L-407.685 380.27" stroke="white" stroke-linejoin="round"/>
<path d="M569.192 -39.7305L-282.977 452.27" stroke="white" stroke-linejoin="round"/>
<path d="M693.899 32.2695L-158.27 524.27" stroke="white" stroke-linejoin="round"/>
<path d="M818.607 104.27L-33.5617 596.27" stroke="white" stroke-linejoin="round"/>
<path d="M943.315 176.27L91.1463 668.27" stroke="white" stroke-linejoin="round"/>
<path d="M1068.02 248.27L215.853 740.27" stroke="white" stroke-linejoin="round"/>
</g>
<rect width="82.6582" height="110.211" rx="0.649734" transform="matrix(-0.866025 0.5 2.20305e-08 1 387.832 260.457)" fill="#060606" stroke="#060606" stroke-width="1.5" stroke-linejoin="round"/>
<rect width="82.6582" height="110.211" rx="0.649734" transform="matrix(-0.866025 -0.5 -2.20305e-08 1 316.251 301.785)" fill="white" stroke="#060606" stroke-width="1.5" stroke-linejoin="round"/>
<rect width="82.6582" height="82.6582" rx="0.649734" transform="matrix(-0.866025 -0.5 -0.866025 0.5 387.832 260.457)" fill="#B0F127" stroke="#060606" stroke-width="1.5" stroke-linejoin="round"/>
<rect width="82.6582" height="110.211" rx="0.649734" transform="matrix(-0.866025 0.5 2.20305e-08 1 457.332 279.957)" fill="#060606" stroke="#060606" stroke-width="1.5" stroke-linejoin="round"/>
<rect width="82.6582" height="110.211" rx="0.649734" transform="matrix(-0.866025 -0.5 -2.20305e-08 1 385.751 321.285)" fill="white" stroke="#060606" stroke-width="1.5" stroke-linejoin="round"/>
<rect width="82.6582" height="82.6582" rx="0.649734" transform="matrix(-0.866025 -0.5 -0.866025 0.5 457.332 279.957)" fill="#B0F127" stroke="#060606" stroke-width="1.5" stroke-linejoin="round"/>
<rect width="82.6582" height="110.211" rx="0.649734" transform="matrix(-0.866025 0.5 2.20305e-08 1 304.832 291.457)" fill="#060606" stroke="#060606" stroke-width="1.5" stroke-linejoin="round"/>
<rect width="82.6582" height="110.211" rx="0.649734" transform="matrix(-0.866025 -0.5 -2.20305e-08 1 233.251 332.785)" fill="white" stroke="#060606" stroke-width="1.5" stroke-linejoin="round"/>
<rect width="82.6582" height="82.6582" rx="0.649734" transform="matrix(-0.866025 -0.5 -0.866025 0.5 304.832 291.457)" fill="#B0F127" stroke="#060606" stroke-width="1.5" stroke-linejoin="round"/>
<rect width="82.6582" height="110.211" rx="0.649734" transform="matrix(-0.866025 0.5 2.20305e-08 1 388.332 344.258)" fill="#060606" stroke="#060606" stroke-width="1.5" stroke-linejoin="round"/>
<rect width="82.6582" height="110.211" rx="0.649734" transform="matrix(-0.866025 -0.5 -2.20305e-08 1 316.751 385.586)" fill="white" stroke="#060606" stroke-width="1.5" stroke-linejoin="round"/>
<rect width="82.6582" height="82.6582" rx="0.649734" transform="matrix(-0.866025 -0.5 -0.866025 0.5 388.332 344.258)" fill="#B0F127" stroke="#060606" stroke-width="1.5" stroke-linejoin="round"/>
<rect width="82.6582" height="128" rx="0.649734" transform="matrix(-0.866025 0.5 2.20305e-08 1 224.832 319.391)" fill="#060606" stroke="#060606" stroke-width="1.5" stroke-linejoin="round"/>
<rect width="82.6582" height="128" rx="0.649734" transform="matrix(-0.866025 -0.5 -2.20305e-08 1 153.251 360.719)" fill="white" stroke="#060606" stroke-width="1.5" stroke-linejoin="round"/>
<rect width="82.6582" height="82.6582" rx="0.649734" transform="matrix(-0.866025 -0.5 -0.866025 0.5 224.832 319.391)" fill="#B0F127" stroke="#060606" stroke-width="1.5" stroke-linejoin="round"/>
<rect width="82.6582" height="110.211" rx="0.649734" transform="matrix(-0.866025 0.5 2.20305e-08 1 304.332 387.891)" fill="#060606" stroke="#060606" stroke-width="1.5" stroke-linejoin="round"/>
<rect width="82.6582" height="110.211" rx="0.649734" transform="matrix(-0.866025 -0.5 -2.20305e-08 1 232.751 429.219)" fill="white" stroke="#060606" stroke-width="1.5" stroke-linejoin="round"/>
<rect width="82.6582" height="82.6582" rx="0.649734" transform="matrix(-0.866025 -0.5 -0.866025 0.5 304.332 387.891)" fill="#B0F127" stroke="#060606" stroke-width="1.5" stroke-linejoin="round"/>
<rect width="82.6582" height="140" rx="0.649734" transform="matrix(-0.866025 0.5 2.20305e-08 1 544.335 305.654)" fill="white" stroke="#060606" stroke-width="1.5" stroke-linejoin="round"/>
<rect width="82.6582" height="140" rx="0.649734" transform="matrix(-0.866025 -0.5 -2.20305e-08 1 472.751 346.984)" fill="white" stroke="#060606" stroke-width="1.5" stroke-linejoin="round"/>
<rect width="82.6582" height="82.6582" rx="0.649734" transform="matrix(-0.866025 -0.5 -0.866025 0.5 544.332 305.326)" fill="#B0F127" stroke="#060606" stroke-width="1.5" stroke-linejoin="round"/>
<rect width="82.6582" height="110.211" rx="0.649734" transform="matrix(-0.866025 0.5 2.20305e-08 1 472.332 373.326)" fill="white" stroke="#060606" stroke-width="1.5" stroke-linejoin="round"/>
<rect width="82.6582" height="110.211" rx="0.649734" transform="matrix(-0.866025 -0.5 -2.20305e-08 1 400.751 414.656)" fill="white" stroke="#060606" stroke-width="1.5" stroke-linejoin="round"/>
<rect width="82.6582" height="82.6582" rx="0.649734" transform="matrix(-0.866025 -0.5 -0.866025 0.5 472.332 373.326)" fill="#B0F127" stroke="#060606" stroke-width="1.5" stroke-linejoin="round"/>
<rect width="82.6582" height="110.211" rx="0.649734" transform="matrix(-0.866025 0.5 2.20305e-08 1 387.5 440.691)" fill="#060606" stroke="#060606" stroke-width="1.5" stroke-linejoin="round"/>
<rect width="82.6582" height="110.211" rx="0.649734" transform="matrix(-0.866025 -0.5 -2.20305e-08 1 315.919 482.02)" fill="white" stroke="#060606" stroke-width="1.5" stroke-linejoin="round"/>
<rect width="82.6582" height="82.6582" rx="0.649734" transform="matrix(-0.866025 -0.5 -0.866025 0.5 387.5 440.691)" fill="#B0F127" stroke="#060606" stroke-width="1.5" stroke-linejoin="round"/>
<path d="M72.5 138.131L119.726 169.122V199.139L72.5 138.131Z" fill="#060606" stroke="#060606" stroke-width="1.5" stroke-linecap="round" stroke-linejoin="round"/>
<path d="M166.958 138.131L119.727 169.122V199.139L166.958 138.131Z" fill="white" stroke="#060606" stroke-width="1.5" stroke-linecap="round" stroke-linejoin="round"/>
<path d="M166.958 138.131L119.727 169.122V199.139L166.958 138.131Z" fill="#B0F127" stroke="#060606" stroke-width="1.5" stroke-linecap="round" stroke-linejoin="round"/>
<path d="M72.5 138.129L119.726 113.166L166.957 138.129L119.726 169.12L72.5 138.129Z" fill="white" stroke="#060606" stroke-width="1.5" stroke-linecap="round" stroke-linejoin="round"/>
<path d="M72.5 138.129L119.726 113.166L166.957 138.129L119.726 169.12L72.5 138.129Z" fill="#060606" stroke="#060606" stroke-width="1.5" stroke-linecap="round" stroke-linejoin="round"/>
<path d="M119.727 63.1797V156.529L166.958 125.218L119.727 63.1797Z" fill="white" stroke="#060606" stroke-width="1.5" stroke-linecap="round" stroke-linejoin="round"/>
<path d="M119.727 63.1797V156.529L166.958 125.218L119.727 63.1797Z" fill="#B0F127" stroke="#060606" stroke-width="1.5" stroke-linecap="round" stroke-linejoin="round"/>
<path d="M119.726 63.1797V156.529L72.5 125.218L119.726 63.1797Z" fill="#547907" stroke="#060606" stroke-width="1.5" stroke-linecap="round" stroke-linejoin="round"/>
<path d="M531.746 179.885L516.145 238.107L550.836 226.472L531.746 179.885Z" fill="#B0F127" stroke="#060606" stroke-width="1.5" stroke-linecap="round" stroke-linejoin="round"/>
<path d="M531.746 179.885L516.145 238.107L491.923 210.686L531.746 179.885Z" fill="#547907" stroke="#060606" stroke-width="1.5" stroke-linecap="round" stroke-linejoin="round"/>
<mask id="path-52-inside-1_3760_41725" fill="white">
<path fill-rule="evenodd" clip-rule="evenodd" d="M219.245 135.194C216.853 133.813 216.853 131.574 219.245 130.194L254.294 109.958C256.685 108.578 260.562 108.578 262.954 109.958L263.509 110.279C263.812 110.407 264.121 110.561 264.435 110.743L402.7 190.57C406.526 192.779 409.628 198.152 409.628 202.57V262.928C409.637 263.091 409.642 263.258 409.642 263.429V318.07C409.642 329.668 401.5 343.771 391.456 349.57L362.97 366.016C352.926 371.815 344.784 367.114 344.784 355.516V300.875C344.784 296.694 347.562 291.659 351.103 289.258L264.435 239.22C260.608 237.011 257.506 231.638 257.506 227.22L257.506 157.284L219.245 135.194Z"/>
</mask>
<path fill-rule="evenodd" clip-rule="evenodd" d="M219.245 135.194C216.853 133.813 216.853 131.574 219.245 130.194L254.294 109.958C256.685 108.578 260.562 108.578 262.954 109.958L263.509 110.279C263.812 110.407 264.121 110.561 264.435 110.743L402.7 190.57C406.526 192.779 409.628 198.152 409.628 202.57V262.928C409.637 263.091 409.642 263.258 409.642 263.429V318.07C409.642 329.668 401.5 343.771 391.456 349.57L362.97 366.016C352.926 371.815 344.784 367.114 344.784 355.516V300.875C344.784 296.694 347.562 291.659 351.103 289.258L264.435 239.22C260.608 237.011 257.506 231.638 257.506 227.22L257.506 157.284L219.245 135.194Z" fill="#71A407"/>
<path d="M219.245 130.194L218.495 128.895L218.495 128.895L219.245 130.194ZM219.245 135.194L218.495 136.493L218.495 136.493L219.245 135.194ZM254.294 109.958L255.044 111.257L255.044 111.257L254.294 109.958ZM262.954 109.958L262.204 111.257L262.204 111.257L262.954 109.958ZM263.509 110.279L262.759 111.578L262.839 111.624L262.924 111.66L263.509 110.279ZM264.435 110.743L265.185 109.444L264.435 110.743ZM402.7 190.57L401.95 191.869L401.95 191.869L402.7 190.57ZM409.628 262.928H408.128V262.97L408.131 263.012L409.628 262.928ZM391.456 349.57L392.206 350.869L392.206 350.869L391.456 349.57ZM362.97 366.016L363.72 367.315L363.72 367.315L362.97 366.016ZM351.103 289.258L351.944 290.499L353.926 289.156L351.853 287.959L351.103 289.258ZM264.435 239.22L265.185 237.921L265.185 237.921L264.435 239.22ZM257.506 227.22L256.006 227.22V227.22H257.506ZM257.506 157.284L259.006 157.284L259.006 156.418L258.256 155.985L257.506 157.284ZM218.495 128.895C217.026 129.743 215.951 131.064 215.951 132.694C215.951 134.323 217.026 135.645 218.495 136.493L219.995 133.895C219.072 133.362 218.951 132.874 218.951 132.694C218.951 132.514 219.072 132.025 219.995 131.493L218.495 128.895ZM253.544 108.659L218.495 128.895L219.995 131.493L255.044 111.257L253.544 108.659ZM263.704 108.659C262.226 107.806 260.384 107.423 258.624 107.423C256.863 107.423 255.021 107.806 253.544 108.659L255.044 111.257C255.958 110.73 257.25 110.423 258.624 110.423C259.997 110.423 261.29 110.73 262.204 111.257L263.704 108.659ZM264.259 108.98L263.704 108.659L262.204 111.257L262.759 111.578L264.259 108.98ZM265.185 109.444C264.821 109.234 264.457 109.051 264.094 108.898L262.924 111.66C263.167 111.763 263.421 111.889 263.685 112.042L265.185 109.444ZM403.45 189.271L265.185 109.444L263.685 112.042L401.95 191.869L403.45 189.271ZM411.128 202.57C411.128 200.036 410.249 197.331 408.898 194.992C407.548 192.653 405.645 190.538 403.45 189.271L401.95 191.869C403.582 192.811 405.143 194.488 406.3 196.492C407.457 198.496 408.128 200.686 408.128 202.57H411.128ZM411.128 262.928V202.57H408.128V262.928H411.128ZM408.131 263.012C408.138 263.147 408.142 263.286 408.142 263.429H411.142C411.142 263.231 411.137 263.036 411.126 262.844L408.131 263.012ZM408.142 263.429V318.07H411.142V263.429H408.142ZM408.142 318.07C408.142 323.544 406.211 329.712 403.016 335.245C399.822 340.778 395.446 345.534 390.706 348.271L392.206 350.869C397.509 347.807 402.227 342.613 405.614 336.745C409.002 330.877 411.142 324.195 411.142 318.07H408.142ZM390.706 348.271L362.22 364.717L363.72 367.315L392.206 350.869L390.706 348.271ZM362.22 364.717C357.472 367.459 353.524 367.529 350.86 365.991C348.197 364.453 346.284 361 346.284 355.516H343.284C343.284 361.631 345.442 366.327 349.361 368.589C353.279 370.852 358.425 370.373 363.72 367.315L362.22 364.717ZM346.284 355.516V300.875H343.284V355.516H346.284ZM346.284 300.875C346.284 299.095 346.884 297.037 347.932 295.118C348.979 293.202 350.409 291.54 351.944 290.499L350.261 288.016C348.255 289.376 346.526 291.433 345.299 293.68C344.073 295.924 343.284 298.475 343.284 300.875H346.284ZM263.685 240.519L350.353 290.557L351.853 287.959L265.185 237.921L263.685 240.519ZM256.006 227.22C256.006 229.755 256.886 232.459 258.237 234.799C259.587 237.138 261.49 239.252 263.685 240.519L265.185 237.921C263.553 236.979 261.992 235.303 260.835 233.299C259.678 231.295 259.006 229.104 259.006 227.22H256.006ZM256.006 157.284L256.006 227.22L259.006 227.22L259.006 157.284L256.006 157.284ZM218.495 136.493L256.756 158.583L258.256 155.985L219.995 133.895L218.495 136.493Z" fill="#060606" mask="url(#path-52-inside-1_3760_41725)"/>
<mask id="mask1_3760_41725" style="mask-type:alpha" maskUnits="userSpaceOnUse" x="217" y="109" width="193" height="259">
<mask id="path-54-inside-2_3760_41725" fill="white">
<path fill-rule="evenodd" clip-rule="evenodd" d="M219.143 138.615L257.506 160.764L257.506 227.222C257.506 231.64 260.608 237.012 264.435 239.222L351.104 289.26C347.563 291.661 344.786 296.696 344.786 300.877V354.568C344.786 366.166 352.928 370.867 362.972 365.068L391.458 348.622C401.502 342.824 409.644 328.721 409.644 317.123V263.431C409.644 263.248 409.639 263.07 409.628 262.896V202.572C409.628 198.153 406.526 192.781 402.7 190.572L264.435 110.744C262.002 109.34 259.862 109.552 258.626 111.028C258.116 111.187 257.636 111.391 257.205 111.64L219.143 133.615C216.752 134.996 216.752 137.234 219.143 138.615Z"/>
</mask>
<path fill-rule="evenodd" clip-rule="evenodd" d="M219.143 138.615L257.506 160.764L257.506 227.222C257.506 231.64 260.608 237.012 264.435 239.222L351.104 289.26C347.563 291.661 344.786 296.696 344.786 300.877V354.568C344.786 366.166 352.928 370.867 362.972 365.068L391.458 348.622C401.502 342.824 409.644 328.721 409.644 317.123V263.431C409.644 263.248 409.639 263.07 409.628 262.896V202.572C409.628 198.153 406.526 192.781 402.7 190.572L264.435 110.744C262.002 109.34 259.862 109.552 258.626 111.028C258.116 111.187 257.636 111.391 257.205 111.64L219.143 133.615C216.752 134.996 216.752 137.234 219.143 138.615Z" fill="#141414"/>
<path d="M257.506 160.764L259.006 160.764L259.006 159.898L258.256 159.465L257.506 160.764ZM219.143 138.615L218.393 139.914L218.393 139.914L219.143 138.615ZM257.506 227.222L256.006 227.222V227.222H257.506ZM264.435 239.222L263.685 240.521L263.685 240.521L264.435 239.222ZM351.104 289.26L351.945 290.501L353.927 289.158L351.854 287.961L351.104 289.26ZM362.972 365.068L362.222 363.769L362.222 363.769L362.972 365.068ZM391.458 348.622L390.708 347.323L390.708 347.323L391.458 348.622ZM409.628 262.896H408.128V262.941L408.131 262.986L409.628 262.896ZM402.7 190.572L401.95 191.871L401.95 191.871L402.7 190.572ZM264.435 110.744L263.685 112.043L263.685 112.043L264.435 110.744ZM258.626 111.028L259.073 112.46L259.493 112.329L259.776 111.991L258.626 111.028ZM257.205 111.64L257.955 112.939L257.955 112.939L257.205 111.64ZM219.143 133.615L218.393 132.316L218.393 132.316L219.143 133.615ZM258.256 159.465L219.893 137.316L218.393 139.914L256.756 162.063L258.256 159.465ZM259.006 227.222L259.006 160.764L256.006 160.764L256.006 227.222L259.006 227.222ZM265.185 237.923C263.553 236.981 261.992 235.304 260.835 233.3C259.678 231.296 259.006 229.105 259.006 227.222H256.006C256.006 229.756 256.886 232.461 258.237 234.8C259.587 237.139 261.49 239.253 263.685 240.521L265.185 237.923ZM351.854 287.961L265.185 237.923L263.685 240.521L350.354 290.559L351.854 287.961ZM346.286 300.877C346.286 299.096 346.885 297.039 347.933 295.12C348.98 293.204 350.411 291.542 351.945 290.501L350.262 288.018C348.256 289.379 346.528 291.435 345.301 293.682C344.075 295.926 343.286 298.477 343.286 300.877H346.286ZM346.286 354.568V300.877H343.286V354.568H346.286ZM362.222 363.769C357.473 366.511 353.526 366.581 350.862 365.043C348.199 363.506 346.286 360.052 346.286 354.568H343.286C343.286 360.683 345.444 365.379 349.362 367.641C353.281 369.904 358.427 369.425 363.722 366.368L362.222 363.769ZM390.708 347.323L362.222 363.769L363.722 366.368L392.208 349.922L390.708 347.323ZM408.144 317.123C408.144 322.596 406.213 328.764 403.018 334.297C399.824 339.83 395.448 344.587 390.708 347.323L392.208 349.922C397.511 346.859 402.228 341.665 405.616 335.797C409.004 329.929 411.144 323.247 411.144 317.123H408.144ZM408.144 263.431V317.123H411.144V263.431H408.144ZM408.131 262.986C408.14 263.129 408.144 263.277 408.144 263.431H411.144C411.144 263.219 411.138 263.011 411.126 262.806L408.131 262.986ZM408.128 202.572V262.896H411.128V202.572H408.128ZM401.95 191.871C403.582 192.813 405.143 194.489 406.3 196.493C407.457 198.497 408.128 200.688 408.128 202.572H411.128C411.128 200.037 410.249 197.332 408.898 194.993C407.548 192.654 405.645 190.54 403.45 189.273L401.95 191.871ZM263.685 112.043L401.95 191.871L403.45 189.273L265.185 109.445L263.685 112.043ZM259.776 111.991C260.369 111.284 261.612 110.846 263.685 112.043L265.185 109.445C262.393 107.833 259.356 107.82 257.476 110.065L259.776 111.991ZM257.955 112.939C258.278 112.753 258.654 112.591 259.073 112.46L258.18 109.596C257.578 109.784 256.994 110.03 256.455 110.341L257.955 112.939ZM219.893 134.914L257.955 112.939L256.455 110.341L218.393 132.316L219.893 134.914ZM219.893 137.316C218.971 136.784 218.85 136.295 218.85 136.115C218.85 135.935 218.971 135.447 219.893 134.914L218.393 132.316C216.924 133.164 215.85 134.486 215.85 136.115C215.85 137.745 216.924 139.066 218.393 139.914L219.893 137.316Z" fill="#060606" mask="url(#path-54-inside-2_3760_41725)"/>
</mask>
<g mask="url(#mask1_3760_41725)">
<path d="M344.788 239.533C344.788 235.115 347.89 229.742 351.716 227.533L416.401 190.187C420.227 187.978 423.329 189.769 423.329 194.187L423.329 318.206C423.329 329.804 415.187 343.907 405.143 349.706L362.975 374.052C352.93 379.851 344.788 375.15 344.788 363.552L344.788 239.533Z" fill="#141414"/>
</g>
<mask id="path-57-inside-3_3760_41725" fill="white">
<path fill-rule="evenodd" clip-rule="evenodd" d="M219.245 135.194C216.853 133.813 216.853 131.574 219.245 130.194L254.294 109.958C256.685 108.578 260.562 108.578 262.954 109.958L263.509 110.279C263.812 110.407 264.121 110.561 264.435 110.743L402.7 190.57C406.526 192.779 409.628 198.152 409.628 202.57V262.928C409.637 263.091 409.642 263.258 409.642 263.429V318.07C409.642 329.668 401.5 343.771 391.456 349.57L362.97 366.016C352.926 371.815 344.784 367.114 344.784 355.516V300.875C344.784 296.694 347.562 291.659 351.103 289.258L264.435 239.22C260.608 237.011 257.506 231.638 257.506 227.22L257.506 157.284L219.245 135.194Z"/>
</mask>
<path d="M219.245 130.194L218.495 128.895L218.495 128.895L219.245 130.194ZM219.245 135.194L218.495 136.493L218.495 136.493L219.245 135.194ZM254.294 109.958L255.044 111.257L255.044 111.257L254.294 109.958ZM262.954 109.958L262.204 111.257L262.204 111.257L262.954 109.958ZM263.509 110.279L262.759 111.578L262.839 111.624L262.924 111.66L263.509 110.279ZM264.435 110.743L265.185 109.444L264.435 110.743ZM402.7 190.57L401.95 191.869L401.95 191.869L402.7 190.57ZM409.628 262.928H408.128V262.97L408.131 263.012L409.628 262.928ZM391.456 349.57L392.206 350.869L392.206 350.869L391.456 349.57ZM362.97 366.016L363.72 367.315L363.72 367.315L362.97 366.016ZM351.103 289.258L351.944 290.499L353.926 289.156L351.853 287.959L351.103 289.258ZM264.435 239.22L265.185 237.921L265.185 237.921L264.435 239.22ZM257.506 227.22L256.006 227.22V227.22H257.506ZM257.506 157.284L259.006 157.284L259.006 156.418L258.256 155.985L257.506 157.284ZM218.495 128.895C217.026 129.743 215.951 131.064 215.951 132.694C215.951 134.323 217.026 135.645 218.495 136.493L219.995 133.895C219.072 133.362 218.951 132.874 218.951 132.694C218.951 132.514 219.072 132.025 219.995 131.493L218.495 128.895ZM253.544 108.659L218.495 128.895L219.995 131.493L255.044 111.257L253.544 108.659ZM263.704 108.659C262.226 107.806 260.384 107.423 258.624 107.423C256.863 107.423 255.021 107.806 253.544 108.659L255.044 111.257C255.958 110.73 257.25 110.423 258.624 110.423C259.997 110.423 261.29 110.73 262.204 111.257L263.704 108.659ZM264.259 108.98L263.704 108.659L262.204 111.257L262.759 111.578L264.259 108.98ZM265.185 109.444C264.821 109.234 264.457 109.051 264.094 108.898L262.924 111.66C263.167 111.763 263.421 111.889 263.685 112.042L265.185 109.444ZM403.45 189.271L265.185 109.444L263.685 112.042L401.95 191.869L403.45 189.271ZM411.128 202.57C411.128 200.036 410.249 197.331 408.898 194.992C407.548 192.653 405.645 190.538 403.45 189.271L401.95 191.869C403.582 192.811 405.143 194.488 406.3 196.492C407.457 198.496 408.128 200.686 408.128 202.57H411.128ZM411.128 262.928V202.57H408.128V262.928H411.128ZM408.131 263.012C408.138 263.147 408.142 263.286 408.142 263.429H411.142C411.142 263.231 411.137 263.036 411.126 262.844L408.131 263.012ZM408.142 263.429V318.07H411.142V263.429H408.142ZM408.142 318.07C408.142 323.544 406.211 329.712 403.016 335.245C399.822 340.778 395.446 345.534 390.706 348.271L392.206 350.869C397.509 347.807 402.227 342.613 405.614 336.745C409.002 330.877 411.142 324.195 411.142 318.07H408.142ZM390.706 348.271L362.22 364.717L363.72 367.315L392.206 350.869L390.706 348.271ZM362.22 364.717C357.472 367.459 353.524 367.529 350.86 365.991C348.197 364.453 346.284 361 346.284 355.516H343.284C343.284 361.631 345.442 366.327 349.361 368.589C353.279 370.852 358.425 370.373 363.72 367.315L362.22 364.717ZM346.284 355.516V300.875H343.284V355.516H346.284ZM346.284 300.875C346.284 299.095 346.884 297.037 347.932 295.118C348.979 293.202 350.409 291.54 351.944 290.499L350.261 288.016C348.255 289.376 346.526 291.433 345.299 293.68C344.073 295.924 343.284 298.475 343.284 300.875H346.284ZM263.685 240.519L350.353 290.557L351.853 287.959L265.185 237.921L263.685 240.519ZM256.006 227.22C256.006 229.755 256.886 232.459 258.237 234.799C259.587 237.138 261.49 239.252 263.685 240.519L265.185 237.921C263.553 236.979 261.992 235.303 260.835 233.299C259.678 231.295 259.006 229.104 259.006 227.22H256.006ZM256.006 157.284L256.006 227.22L259.006 227.22L259.006 157.284L256.006 157.284ZM218.495 136.493L256.756 158.583L258.256 155.985L219.995 133.895L218.495 136.493Z" fill="#060606" mask="url(#path-57-inside-3_3760_41725)"/>
<path d="M223.285 132.002L365.443 214.077C368.91 216.079 371.721 220.948 371.721 224.952L371.721 342.769C371.721 364.446 356.503 373.232 337.73 362.394L237.141 304.319C226.021 297.899 217.006 282.284 217.006 269.444L217.006 135.627C217.006 131.623 219.817 130 223.285 132.002Z" fill="#F4F4F4" stroke="#060606" stroke-width="1.5"/>
<mask id="mask2_3760_41725" style="mask-type:alpha" maskUnits="userSpaceOnUse" x="216" y="130" width="157" height="238">
<path d="M223.285 131.998L365.443 214.073C368.91 216.075 371.721 220.944 371.721 224.948L371.721 342.765C371.721 364.442 356.503 373.229 337.73 362.39L237.141 304.315C226.021 297.895 217.006 282.281 217.006 269.44L217.006 135.623C217.006 131.619 219.817 129.996 223.285 131.998Z" fill="#B0F127" stroke="#060606" stroke-width="1.5"/>
</mask>
<g mask="url(#mask2_3760_41725)">
<rect width="247.334" height="64.6322" transform="matrix(0.866025 0.5 -2.20305e-08 1 195.448 115.178)" fill="white"/>
</g>
<path d="M223.285 132.002L365.443 214.077C368.91 216.079 371.721 220.948 371.721 224.952L371.721 342.769C371.721 364.446 356.503 373.232 337.73 362.394L237.141 304.319C226.021 297.899 217.006 282.284 217.006 269.444L217.006 135.627C217.006 131.623 219.817 130 223.285 132.002Z" stroke="#060606" stroke-width="1.5"/>
<circle r="45.4678" transform="matrix(0.866025 0.5 -2.20305e-08 1 288.717 255.196)" fill="#939393" stroke="#060606" stroke-width="1.5"/>
<mask id="mask3_3760_41725" style="mask-type:alpha" maskUnits="userSpaceOnUse" x="248" y="203" width="81" height="104">
<circle r="45.4678" transform="matrix(0.866025 0.5 -2.20305e-08 1 288.717 255.196)" fill="#939393" stroke="#060606" stroke-width="1.5"/>
</mask>
<g mask="url(#mask3_3760_41725)">
<rect width="247.334" height="64.7852" transform="matrix(0.866025 0.5 -2.20305e-08 1 198.489 117.029)" fill="#E7E7E7"/>
</g>
<circle r="45.4678" transform="matrix(0.866025 0.5 -2.20305e-08 1 288.717 255.196)" stroke="#060606" stroke-width="1.5"/>
<circle r="35.462" transform="matrix(0.866025 0.5 -2.20305e-08 1 288.719 255.199)" fill="#060606" stroke="#060606" stroke-width="1.5"/>
<circle r="32.8414" transform="matrix(0.866025 0.5 -2.20305e-08 1 290.988 256.51)" fill="white" stroke="#060606" stroke-width="1.5"/>
<rect x="0.649519" y="1.125" width="9.42625" height="30.4868" rx="4.71313" transform="matrix(0.866025 0.5 -2.20305e-08 1 284.072 237.458)" fill="#060606" stroke="#060606" stroke-width="1.5"/>
<path d="M249.362 81.7904L249.563 133.548C249.563 135.344 250.748 137.14 253.118 138.502C255.766 139.836 258.695 140.522 261.662 140.503C264.629 140.483 267.548 139.759 270.179 138.39C272.549 137.006 273.711 135.188 273.7 133.392L273.51 81.6566C273.51 72.6305 276.014 65.9698 280.475 63.3814C284.936 60.7929 292.002 61.864 299.85 66.3491L313.199 73.9694C334.105 85.9185 351.837 116.31 351.926 140.342L352.116 192.1C352.116 193.896 353.312 195.692 355.683 197.053C359.12 198.833 363.033 199.481 366.862 198.906C368.946 198.666 370.96 198.013 372.788 196.987C373.378 196.651 373.929 196.25 374.431 195.793C374.997 195.328 375.457 194.748 375.781 194.092C376.105 193.436 376.285 192.719 376.309 191.988L376.119 140.253C376.052 124.533 370.775 106.86 361.228 90.5152C351.68 74.1702 338.868 60.8599 325.217 53.05L311.88 45.4186C305.058 41.3518 297.425 38.8268 289.52 38.0215C282.142 37.3116 274.724 38.8895 268.278 42.5401C261.923 46.3289 256.894 51.9823 253.878 58.7289C250.695 65.992 249.153 73.8656 249.362 81.7904Z" fill="#060606" stroke="#060606" stroke-width="1.5" stroke-linecap="round" stroke-linejoin="round"/>
</g>
</svg>
