<svg width="626" height="443" viewBox="0 0 626 443" fill="none" xmlns="http://www.w3.org/2000/svg">
<path d="M0 0H626V443H0V0Z" fill="#141414"/>
<mask id="mask0_3760_42337" style="mask-type:alpha" maskUnits="userSpaceOnUse" x="0" y="0" width="626" height="443">
<path d="M0 0H626V443H0V0Z" fill="#060606"/>
</mask>
<g mask="url(#mask0_3760_42337)">
<g opacity="0.1">
<path d="M-407.685 247.945L444.484 739.945" stroke="white" stroke-linejoin="round"/>
<path d="M-282.977 175.945L569.192 667.945" stroke="white" stroke-linejoin="round"/>
<path d="M-158.27 103.945L693.899 595.945" stroke="white" stroke-linejoin="round"/>
<path d="M-33.5615 31.9453L818.607 523.945" stroke="white" stroke-linejoin="round"/>
<path d="M91.1465 -40.0547L943.315 451.945" stroke="white" stroke-linejoin="round"/>
<path d="M215.854 -112.055L1068.02 379.945" stroke="white" stroke-linejoin="round"/>
<path d="M444.484 -112.055L-407.685 379.945" stroke="white" stroke-linejoin="round"/>
<path d="M569.192 -40.0547L-282.977 451.945" stroke="white" stroke-linejoin="round"/>
<path d="M693.9 31.9453L-158.269 523.945" stroke="white" stroke-linejoin="round"/>
<path d="M818.607 103.945L-33.5617 595.945" stroke="white" stroke-linejoin="round"/>
<path d="M943.315 175.945L91.1458 667.945" stroke="white" stroke-linejoin="round"/>
<path d="M1068.02 247.945L215.853 739.945" stroke="white" stroke-linejoin="round"/>
</g>
<path d="M204.637 190.309V103.062L453.348 241.959L500.113 278.952L470.332 336.186L204.637 190.309Z" fill="#060606" stroke="#060606" stroke-width="1.5"/>
<path d="M154.369 399.746L154.746 131.259L393.788 264.296L468.238 292.215L508.721 273.137V489.615C508.721 514.053 495.781 536.663 474.711 549.042L468.888 552.463C447.492 565.033 420.991 565.131 399.503 552.72L164.213 416.826C158.113 413.303 154.36 406.79 154.369 399.746Z" fill="white"/>
<mask id="mask1_3760_42337" style="mask-type:alpha" maskUnits="userSpaceOnUse" x="153" y="129" width="357" height="434">
<path d="M154.369 399.746L154.746 131.259L393.788 264.296L468.238 292.215L508.721 273.137V489.615C508.721 514.053 495.781 536.663 474.711 549.042L468.888 552.463C447.492 565.033 420.991 565.131 399.503 552.72L164.213 416.826C158.113 413.303 154.36 406.79 154.369 399.746Z" fill="white" stroke="#060606" stroke-width="1.5"/>
</mask>
<g mask="url(#mask1_3760_42337)">
<rect x="420.313" y="230.801" width="88.8457" height="400.751" fill="#B0F127"/>
</g>
<path d="M154.369 399.746L154.746 131.259L393.788 264.296L468.238 292.215L508.721 273.137V489.615C508.721 514.053 495.781 536.663 474.711 549.042L468.888 552.463C447.492 565.033 420.991 565.131 399.503 552.72L164.213 416.826C158.113 413.303 154.36 406.79 154.369 399.746Z" stroke="#060606" stroke-width="1.5"/>
<path fill-rule="evenodd" clip-rule="evenodd" d="M208.686 96.5131C214.027 93.4292 222.687 93.4292 228.029 96.5131L494.804 250.536C513.944 261.586 513.944 279.503 494.804 290.553C475.664 301.604 444.632 301.604 425.492 290.553L158.717 136.53C153.376 133.446 153.376 128.447 158.717 125.363C164.058 122.279 172.718 122.279 178.06 125.363L444.835 279.386C453.292 284.268 467.004 284.268 475.461 279.386C483.919 274.503 483.919 266.586 475.461 261.704L208.686 107.681C203.345 104.597 203.345 99.5969 208.686 96.5131Z" fill="white" stroke="#060606" stroke-width="1.5"/>
<path fill-rule="evenodd" clip-rule="evenodd" d="M150.754 236.702L141.672 241.945L163.214 254.382C155.967 259.707 151.572 269.647 151.572 283.309C151.572 289.271 155.758 296.522 160.923 299.504L246.189 348.733C248.095 349.833 249.939 350.597 251.69 351.045V364.207L259.832 359.506C263.6 357.33 266.654 352.04 266.654 347.69V337.038L266.654 336.917V307.582C266.654 301.056 262.073 293.122 256.422 289.859L224.756 271.576L224.779 271.563L164.397 236.702C160.63 234.527 154.521 234.527 150.754 236.702Z" fill="#C0C0C0"/>
<path d="M141.672 241.945L141.297 241.296L140.172 241.945L141.297 242.595L141.672 241.945ZM150.754 236.702L151.129 237.351L150.754 236.702ZM163.214 254.382L163.658 254.987L164.583 254.307L163.589 253.733L163.214 254.382ZM160.923 299.504L160.548 300.153L160.923 299.504ZM246.189 348.733L246.564 348.083L246.564 348.083L246.189 348.733ZM251.69 351.045H252.44V350.463L251.876 350.318L251.69 351.045ZM251.69 364.207H250.94V365.506L252.065 364.856L251.69 364.207ZM259.832 359.506L260.207 360.155L260.207 360.155L259.832 359.506ZM266.654 337.038L265.904 337.036V337.038H266.654ZM266.654 336.917L267.404 336.919V336.917H266.654ZM256.422 289.859L256.797 289.209L256.797 289.209L256.422 289.859ZM224.756 271.576L224.381 270.927L223.256 271.576L224.381 272.226L224.756 271.576ZM224.779 271.563L225.154 272.213L226.279 271.563L225.154 270.914L224.779 271.563ZM164.397 236.702L164.022 237.351L164.022 237.351L164.397 236.702ZM142.047 242.595L151.129 237.351L150.379 236.052L141.297 241.296L142.047 242.595ZM163.589 253.733L142.047 241.296L141.297 242.595L162.839 255.032L163.589 253.733ZM162.769 253.778C155.266 259.292 150.822 269.501 150.822 283.309H152.322C152.322 269.792 156.668 260.123 163.658 254.987L162.769 253.778ZM150.822 283.309C150.822 286.453 151.921 289.885 153.661 292.899C155.402 295.914 157.825 298.581 160.548 300.153L161.298 298.854C158.856 297.445 156.604 294.996 154.96 292.149C153.317 289.302 152.322 286.127 152.322 283.309H150.822ZM160.548 300.153L245.814 349.382L246.564 348.083L161.298 298.854L160.548 300.153ZM245.814 349.382C247.77 350.511 249.678 351.304 251.504 351.772L251.876 350.318C250.201 349.89 248.419 349.154 246.564 348.083L245.814 349.382ZM250.94 351.045V364.207H252.44V351.045H250.94ZM252.065 364.856L260.207 360.155L259.457 358.856L251.315 363.557L252.065 364.856ZM260.207 360.155C262.232 358.986 264.023 357.01 265.305 354.788C266.588 352.567 267.404 350.028 267.404 347.69H265.904C265.904 349.703 265.192 351.984 264.006 354.038C262.82 356.093 261.2 357.85 259.457 358.856L260.207 360.155ZM267.404 347.69V337.038H265.904V347.69H267.404ZM267.404 337.039L267.404 336.919L265.904 336.916L265.904 337.036L267.404 337.039ZM267.404 336.917V307.582H265.904V336.917H267.404ZM267.404 307.582C267.404 304.157 266.207 300.413 264.307 297.122C262.407 293.831 259.763 290.922 256.797 289.209L256.047 290.508C258.731 292.058 261.204 294.748 263.008 297.872C264.811 300.995 265.904 304.482 265.904 307.582H267.404ZM256.797 289.209L225.131 270.927L224.381 272.226L256.047 290.508L256.797 289.209ZM224.404 270.913L224.381 270.927L225.131 272.226L225.154 272.213L224.404 270.913ZM164.022 237.351L224.404 272.213L225.154 270.914L164.772 236.052L164.022 237.351ZM151.129 237.351C152.872 236.345 155.203 235.82 157.575 235.82C159.948 235.82 162.279 236.345 164.022 237.351L164.772 236.052C162.748 234.883 160.141 234.32 157.575 234.32C155.01 234.32 152.403 234.883 150.379 236.052L151.129 237.351Z" fill="#060606"/>
<path d="M139 248.374C139 242.392 143.199 239.968 148.38 242.958L243.85 298.078C249.501 301.341 254.082 309.276 254.082 315.801L254.082 357.936C254.082 363.918 249.883 366.343 244.702 363.352L149.232 308.232C143.581 304.97 139 297.035 139 290.509L139 248.374Z" fill="white" stroke="#060606" stroke-width="1.5"/>
<mask id="mask2_3760_42337" style="mask-type:alpha" maskUnits="userSpaceOnUse" x="287" y="87" width="212" height="196">
<path d="M444.831 278.46C453.288 283.343 467 283.343 475.457 278.46L498.128 158.331L347.616 87.7559L287.123 187.497L444.831 278.46Z" fill="white"/>
</mask>
<g mask="url(#mask2_3760_42337)">
<path fill-rule="evenodd" clip-rule="evenodd" d="M454.292 293.322C464.257 285.368 470.258 271.154 470.258 251.858C470.258 208.296 439.676 155.326 401.95 133.545C382.091 122.079 364.21 121.542 351.729 129.961L351.727 129.957L351.609 130.042C351.201 130.32 350.799 130.607 350.403 130.904L338.488 139.42L340.434 142.575C336.082 150.441 333.643 160.678 333.643 172.983C333.643 216.544 364.225 269.514 401.95 291.295C415.048 298.857 427.284 301.665 437.679 300.286L439.8 303.727L454.331 293.383L454.292 293.322Z" fill="#B0F127"/>
<path d="M454.292 293.322L453.824 292.735L453.301 293.153L453.657 293.72L454.292 293.322ZM401.95 133.545L402.325 132.896L402.325 132.896L401.95 133.545ZM351.729 129.961L351.094 130.359L351.506 131.016L352.148 130.582L351.729 129.961ZM351.727 129.957L352.362 129.559L351.939 128.884L351.291 129.347L351.727 129.957ZM351.609 130.042L352.031 130.662L352.038 130.657L352.045 130.652L351.609 130.042ZM350.403 130.904L350.839 131.514L350.846 131.509L350.853 131.504L350.403 130.904ZM338.488 139.42L338.052 138.81L337.482 139.217L337.85 139.813L338.488 139.42ZM340.434 142.575L341.09 142.938L341.303 142.555L341.072 142.182L340.434 142.575ZM401.95 291.295L402.325 290.645L402.325 290.645L401.95 291.295ZM437.679 300.286L438.317 299.892L438.062 299.479L437.58 299.543L437.679 300.286ZM439.8 303.727L439.162 304.12L439.582 304.802L440.235 304.338L439.8 303.727ZM454.331 293.383L454.766 293.994L455.342 293.584L454.966 292.985L454.331 293.383ZM469.508 251.858C469.508 271.013 463.552 284.97 453.824 292.735L454.76 293.908C464.961 285.765 471.008 271.296 471.008 251.858H469.508ZM401.575 134.195C420.297 145.004 437.289 163.582 449.602 184.909C461.915 206.235 469.508 230.239 469.508 251.858H471.008C471.008 229.914 463.31 205.653 450.901 184.159C438.491 162.664 421.329 143.867 402.325 132.896L401.575 134.195ZM352.148 130.582C364.306 122.382 381.859 122.811 401.575 134.195L402.325 132.896C382.322 121.347 364.115 120.702 351.31 129.339L352.148 130.582ZM352.364 129.562L352.362 129.559L351.092 130.356L351.094 130.359L352.364 129.562ZM351.291 129.347L351.173 129.432L352.045 130.652L352.163 130.568L351.291 129.347ZM350.853 131.504C351.24 131.214 351.633 130.933 352.031 130.662L351.187 129.422C350.769 129.706 350.358 130 349.953 130.304L350.853 131.504ZM349.967 130.294L338.052 138.81L338.925 140.03L350.839 131.514L349.967 130.294ZM337.85 139.813L339.796 142.969L341.072 142.182L339.127 139.026L337.85 139.813ZM334.393 172.983C334.393 160.773 336.814 150.668 341.09 142.938L339.778 142.212C335.351 150.214 332.893 160.583 332.893 172.983H334.393ZM402.325 290.645C383.603 279.836 366.612 261.258 354.299 239.932C341.986 218.605 334.393 194.601 334.393 172.983H332.893C332.893 194.926 340.59 219.187 353 240.682C365.41 262.176 382.572 280.973 401.575 291.945L402.325 290.645ZM437.58 299.543C427.394 300.894 415.324 298.15 402.325 290.645L401.575 291.945C414.772 299.563 427.175 302.436 437.777 301.03L437.58 299.543ZM437.04 300.68L439.162 304.12L440.439 303.333L438.317 299.892L437.04 300.68ZM440.235 304.338L454.766 293.994L453.896 292.772L439.365 303.116L440.235 304.338ZM454.966 292.985L454.927 292.923L453.657 293.72L453.696 293.782L454.966 292.985Z" fill="#060606"/>
<mask id="mask3_3760_42337" style="mask-type:alpha" maskUnits="userSpaceOnUse" x="332" y="123" width="140" height="182">
<path fill-rule="evenodd" clip-rule="evenodd" d="M454.292 293.307C464.257 285.353 470.258 271.14 470.258 251.843C470.258 208.281 439.676 155.311 401.95 133.53C382.091 122.064 364.21 121.528 351.729 129.946L351.727 129.943L351.609 130.027C351.201 130.305 350.799 130.592 350.403 130.889L338.488 139.405L340.434 142.56C336.082 150.426 333.643 160.664 333.643 172.968C333.643 216.529 364.225 269.5 401.95 291.28C415.048 298.842 427.284 301.65 437.679 300.271L439.8 303.712L454.331 293.369L454.292 293.307Z" fill="#B0F127"/>
<path d="M454.292 293.307L453.824 292.721L453.301 293.139L453.657 293.706L454.292 293.307ZM401.95 133.53L402.325 132.881L402.325 132.881L401.95 133.53ZM351.729 129.946L351.094 130.345L351.506 131.001L352.148 130.568L351.729 129.946ZM351.727 129.943L352.362 129.544L351.939 128.87L351.291 129.333L351.727 129.943ZM351.609 130.027L352.031 130.647L352.038 130.643L352.045 130.638L351.609 130.027ZM350.403 130.889L350.839 131.499L350.846 131.495L350.853 131.489L350.403 130.889ZM338.488 139.405L338.052 138.795L337.482 139.202L337.85 139.799L338.488 139.405ZM340.434 142.56L341.09 142.924L341.303 142.54L341.072 142.167L340.434 142.56ZM333.643 172.968L332.893 172.968L333.643 172.968ZM401.95 291.28L401.575 291.93L401.575 291.93L401.95 291.28ZM437.679 300.271L438.317 299.878L438.062 299.464L437.58 299.528L437.679 300.271ZM439.8 303.712L439.162 304.106L439.582 304.788L440.235 304.323L439.8 303.712ZM454.331 293.369L454.766 293.98L455.342 293.569L454.966 292.97L454.331 293.369ZM469.508 251.843C469.508 270.998 463.552 284.956 453.824 292.721L454.76 293.893C464.961 285.75 471.008 271.281 471.008 251.843H469.508ZM401.575 134.18C420.297 144.989 437.289 163.567 449.602 184.894C461.915 206.22 469.508 230.225 469.508 251.843H471.008C471.008 229.9 463.31 205.638 450.901 184.144C438.491 162.65 421.329 143.853 402.325 132.881L401.575 134.18ZM352.148 130.568C364.306 122.368 381.859 122.797 401.575 134.18L402.325 132.881C382.322 121.332 364.115 120.688 351.31 129.324L352.148 130.568ZM352.364 129.547L352.362 129.544L351.092 130.342L351.094 130.345L352.364 129.547ZM351.291 129.333L351.173 129.417L352.045 130.638L352.163 130.553L351.291 129.333ZM350.853 131.489C351.24 131.199 351.633 130.919 352.031 130.647L351.187 129.408C350.769 129.692 350.358 129.986 349.953 130.289L350.853 131.489ZM349.967 130.279L338.052 138.795L338.925 140.015L350.839 131.499L349.967 130.279ZM337.85 139.799L339.796 142.954L341.072 142.167L339.127 139.011L337.85 139.799ZM334.393 172.968C334.393 160.759 336.814 150.653 341.09 142.924L339.778 142.197C335.351 150.199 332.893 160.569 332.893 172.968L334.393 172.968ZM402.325 290.631C383.603 279.822 366.612 261.243 354.299 239.917C341.986 218.59 334.393 194.586 334.393 172.968L332.893 172.968C332.893 194.911 340.59 219.173 353 240.667C365.41 262.161 382.572 280.958 401.575 291.93L402.325 290.631ZM437.58 299.528C427.394 300.879 415.324 298.135 402.325 290.631L401.575 291.93C414.772 299.549 427.175 302.422 437.777 301.015L437.58 299.528ZM437.04 300.665L439.162 304.106L440.439 303.318L438.317 299.878L437.04 300.665ZM440.235 304.323L454.766 293.98L453.896 292.758L439.365 303.101L440.235 304.323ZM454.966 292.97L454.927 292.908L453.657 293.706L453.696 293.768L454.966 292.97Z" fill="#060606"/>
</mask>
<g mask="url(#mask3_3760_42337)">
<rect width="166.853" height="71.7437" transform="matrix(0.866025 -0.5 2.20305e-08 1 407.345 291.745)" fill="#B0F127"/>
</g>
<path d="M454.292 293.322L453.824 292.735L453.301 293.153L453.657 293.72L454.292 293.322ZM401.95 133.545L402.325 132.896L402.325 132.896L401.95 133.545ZM351.729 129.961L351.094 130.359L351.506 131.016L352.148 130.582L351.729 129.961ZM351.727 129.957L352.362 129.559L351.939 128.884L351.291 129.347L351.727 129.957ZM351.609 130.042L352.031 130.662L352.038 130.657L352.045 130.652L351.609 130.042ZM350.403 130.904L350.839 131.514L350.846 131.509L350.853 131.504L350.403 130.904ZM338.488 139.42L338.052 138.81L337.482 139.217L337.85 139.813L338.488 139.42ZM340.434 142.575L341.09 142.938L341.303 142.555L341.072 142.182L340.434 142.575ZM401.95 291.295L402.325 290.645L402.325 290.645L401.95 291.295ZM437.679 300.286L438.317 299.892L438.062 299.479L437.58 299.543L437.679 300.286ZM439.8 303.727L439.162 304.12L439.582 304.802L440.235 304.338L439.8 303.727ZM454.331 293.383L454.766 293.994L455.342 293.584L454.966 292.985L454.331 293.383ZM469.508 251.858C469.508 271.013 463.552 284.97 453.824 292.735L454.76 293.908C464.961 285.765 471.008 271.296 471.008 251.858H469.508ZM401.575 134.195C420.297 145.004 437.289 163.582 449.602 184.909C461.915 206.235 469.508 230.239 469.508 251.858H471.008C471.008 229.914 463.31 205.653 450.901 184.159C438.491 162.664 421.329 143.867 402.325 132.896L401.575 134.195ZM352.148 130.582C364.306 122.382 381.859 122.811 401.575 134.195L402.325 132.896C382.322 121.347 364.115 120.702 351.31 129.339L352.148 130.582ZM352.364 129.562L352.362 129.559L351.092 130.356L351.094 130.359L352.364 129.562ZM351.291 129.347L351.173 129.432L352.045 130.652L352.163 130.568L351.291 129.347ZM350.853 131.504C351.24 131.214 351.633 130.933 352.031 130.662L351.187 129.422C350.769 129.706 350.358 130 349.953 130.304L350.853 131.504ZM349.967 130.294L338.052 138.81L338.925 140.03L350.839 131.514L349.967 130.294ZM337.85 139.813L339.796 142.969L341.072 142.182L339.127 139.026L337.85 139.813ZM334.393 172.983C334.393 160.773 336.814 150.668 341.09 142.938L339.778 142.212C335.351 150.214 332.893 160.583 332.893 172.983H334.393ZM402.325 290.645C383.603 279.836 366.612 261.258 354.299 239.932C341.986 218.605 334.393 194.601 334.393 172.983H332.893C332.893 194.926 340.59 219.187 353 240.682C365.41 262.176 382.572 280.973 401.575 291.945L402.325 290.645ZM437.58 299.543C427.394 300.894 415.324 298.15 402.325 290.645L401.575 291.945C414.772 299.563 427.175 302.436 437.777 301.03L437.58 299.543ZM437.04 300.68L439.162 304.12L440.439 303.333L438.317 299.892L437.04 300.68ZM440.235 304.338L454.766 293.994L453.896 292.772L439.365 303.116L440.235 304.338ZM454.966 292.985L454.927 292.923L453.657 293.72L453.696 293.782L454.966 292.985Z" fill="#060606"/>
<circle r="78.875" transform="matrix(0.866025 0.5 -2.20305e-08 1 389.378 221.374)" fill="white" stroke="#060606" stroke-width="1.5"/>
<mask id="mask4_3760_42337" style="mask-type:alpha" maskUnits="userSpaceOnUse" x="320" y="132" width="139" height="179">
<circle r="78.875" transform="matrix(0.866025 0.5 -2.20305e-08 1 389.378 221.374)" fill="#B0F127" stroke="#060606" stroke-width="1.5"/>
</mask>
<g mask="url(#mask4_3760_42337)">
<rect width="166.853" height="89.4758" transform="matrix(0.866025 0.5 2.20305e-08 -1 316.869 182.183)" fill="white"/>
<circle r="78.875" transform="matrix(0.866025 0.5 -2.20305e-08 1 389.378 221.374)" stroke="#060606" stroke-width="1.5"/>
<path d="M407.428 251.412L385.039 238.486L389.225 224.604L395.649 226.178L397.012 221.569L390.588 220.108L397.402 197.291L397.402 196.954C397.402 196.167 396.915 195.324 396.233 194.93L387.57 189.928C386.889 189.535 386.305 189.76 386.11 190.434L378.128 217.41L371.703 215.949L370.243 220.389L376.668 221.85L370.925 241.127L405.092 260.853C405.773 261.247 406.357 261.022 406.552 260.46L408.499 253.828L408.499 253.491C408.596 252.648 408.109 251.805 407.428 251.412V251.412Z" fill="#060606"/>
</g>
</g>
<path d="M448.007 132.592L495.233 163.583V193.6L448.007 132.592Z" fill="#060606" stroke="#060606" stroke-width="1.5" stroke-linecap="round" stroke-linejoin="round"/>
<path d="M542.464 132.592L495.233 163.583V193.6L542.464 132.592Z" fill="white" stroke="#060606" stroke-width="1.5" stroke-linecap="round" stroke-linejoin="round"/>
<path d="M542.464 132.592L495.233 163.583V193.6L542.464 132.592Z" fill="#B0F127" stroke="#060606" stroke-width="1.5" stroke-linecap="round" stroke-linejoin="round"/>
<path d="M448.007 132.59L495.233 107.627L542.464 132.59L495.233 163.581L448.007 132.59Z" fill="white" stroke="#060606" stroke-width="1.5" stroke-linecap="round" stroke-linejoin="round"/>
<path d="M448.007 132.59L495.233 107.627L542.464 132.59L495.233 163.581L448.007 132.59Z" fill="#060606" stroke="#060606" stroke-width="1.5" stroke-linecap="round" stroke-linejoin="round"/>
<path d="M495.233 57.6406V150.99L542.464 119.679L495.233 57.6406Z" fill="white" stroke="#060606" stroke-width="1.5" stroke-linecap="round" stroke-linejoin="round"/>
<path d="M495.233 57.6406V150.99L542.464 119.679L495.233 57.6406Z" fill="#B0F127" stroke="#060606" stroke-width="1.5" stroke-linecap="round" stroke-linejoin="round"/>
<path d="M495.233 57.6406V150.99L448.007 119.679L495.233 57.6406Z" fill="#547907" stroke="#060606" stroke-width="1.5" stroke-linecap="round" stroke-linejoin="round"/>
<path d="M128.591 192.389L112.99 250.611L147.681 238.976L128.591 192.389Z" fill="#B0F127" stroke="#060606" stroke-width="1.5" stroke-linecap="round" stroke-linejoin="round"/>
<path d="M128.591 192.389L112.99 250.611L88.7677 223.19L128.591 192.389Z" fill="#547907" stroke="#060606" stroke-width="1.5" stroke-linecap="round" stroke-linejoin="round"/>
<path fill-rule="evenodd" clip-rule="evenodd" d="M320.917 143.098C328.78 136.82 333.516 125.603 333.516 110.375C333.516 75.9947 309.379 34.1888 279.605 16.9987C263.932 7.94994 249.821 7.52574 239.971 14.1683L239.967 14.1625L239.706 14.3494C239.497 14.4939 239.291 14.6415 239.086 14.7923L229.519 21.6304L231.056 24.123C227.62 30.3313 225.694 38.4119 225.694 48.1241C225.694 82.5042 249.831 124.31 279.605 141.5C289.943 147.469 299.602 149.685 307.806 148.596L309.477 151.307L320.946 143.144L320.917 143.098Z" fill="#B0F127"/>
<mask id="mask5_3760_42337" style="mask-type:alpha" maskUnits="userSpaceOnUse" x="225" y="9" width="109" height="143">
<path fill-rule="evenodd" clip-rule="evenodd" d="M320.919 143.095C328.782 136.817 333.518 125.6 333.518 110.372C333.518 75.9917 309.381 34.1858 279.607 16.9958C263.934 7.94701 249.823 7.52281 239.973 14.1653L239.969 14.1596L239.708 14.3465C239.499 14.4909 239.293 14.6385 239.088 14.7893L229.521 21.6275L231.058 24.1201C227.622 30.3284 225.696 38.409 225.696 48.1211C225.696 82.5013 249.833 124.307 279.607 141.497C289.945 147.466 299.603 149.682 307.808 148.593L309.479 151.304L320.948 143.141L320.919 143.095Z" fill="#B0F127"/>
</mask>
<g mask="url(#mask5_3760_42337)">
<rect width="131.686" height="56.6225" transform="matrix(0.866025 -0.5 2.20305e-08 1 283.866 141.858)" fill="#B0F127"/>
</g>
<circle r="62.2507" transform="matrix(0.866025 0.5 -2.20305e-08 1 269.683 86.3214)" fill="white"/>
<mask id="mask6_3760_42337" style="mask-type:alpha" maskUnits="userSpaceOnUse" x="215" y="16" width="109" height="140">
<circle r="62.2507" transform="matrix(0.866025 0.5 -2.20305e-08 1 269.685 86.3214)" fill="#B0F127"/>
</mask>
<g mask="url(#mask6_3760_42337)">
<rect width="131.686" height="70.6172" transform="matrix(0.866025 0.5 2.20305e-08 -1 212.458 55.3877)" fill="white"/>
<path d="M269.68 54.7245L269.313 55.9526L269.313 97.7349L269.68 98.3696L286.477 96.6028L269.68 54.7245Z" fill="#060606"/>
<path d="M269.682 54.7248L252.886 77.2082L269.682 98.37L269.682 78.0901L269.682 54.7248Z" fill="#060606"/>
<path d="M269.681 102.045L269.475 102.216L269.475 117.1L269.681 117.917L286.488 100.289L269.681 102.045Z" fill="#060606"/>
<path d="M269.682 117.912L269.682 102.04L252.886 80.8838L269.682 117.912Z" fill="#060606"/>
<path d="M269.683 98.3733L286.479 96.6065L269.683 78.0938L269.683 98.3733Z" fill="#060606"/>
<path d="M252.886 77.21L269.682 98.3714L269.682 78.0918L252.886 77.21Z" fill="#060606"/>
</g>
<circle r="62.2507" transform="matrix(0.866025 0.5 -2.20305e-08 1 269.683 86.3214)" stroke="#060606" stroke-width="1.5"/>
</g>
</svg>
