<svg width="626" height="443" viewBox="0 0 626 443" fill="none" xmlns="http://www.w3.org/2000/svg">
<path d="M0 0H626V443H0V0Z" fill="#141414"/>
<mask id="mask0_3760_42048" style="mask-type:alpha" maskUnits="userSpaceOnUse" x="0" y="0" width="626" height="443">
<path d="M0 0H626V443H0V0Z" fill="#141414"/>
</mask>
<g mask="url(#mask0_3760_42048)">
<g opacity="0.1">
<path d="M-407.935 248L444.234 740" stroke="white" stroke-linejoin="round"/>
<path d="M-283.227 176L568.942 668" stroke="white" stroke-linejoin="round"/>
<path d="M-158.52 104L693.649 596" stroke="white" stroke-linejoin="round"/>
<path d="M-33.8115 32L818.357 524" stroke="white" stroke-linejoin="round"/>
<path d="M90.8965 -40L943.065 452" stroke="white" stroke-linejoin="round"/>
<path d="M215.604 -112L1067.77 380" stroke="white" stroke-linejoin="round"/>
<path d="M444.234 -112L-407.935 380" stroke="white" stroke-linejoin="round"/>
<path d="M568.942 -40L-283.227 452" stroke="white" stroke-linejoin="round"/>
<path d="M693.649 32L-158.52 524" stroke="white" stroke-linejoin="round"/>
<path d="M818.357 104L-33.8117 596" stroke="white" stroke-linejoin="round"/>
<path d="M943.065 176L90.8963 668" stroke="white" stroke-linejoin="round"/>
<path d="M1067.77 248L215.603 740" stroke="white" stroke-linejoin="round"/>
</g>
<path d="M38.9575 302.939C18.4083 291.075 18.4084 271.839 38.9575 259.975L284.091 118.447C298.531 110.111 321.943 110.111 336.383 118.447L860.137 420.837C877.354 430.777 877.353 446.893 860.137 456.833L608.97 601.845C594.53 610.182 571.118 610.182 556.678 601.845L38.9575 302.939Z" fill="#E7E7E7" stroke="#060606" stroke-width="1.5"/>
<mask id="mask1_3760_42048" style="mask-type:alpha" maskUnits="userSpaceOnUse" x="23" y="112" width="851" height="497">
<path d="M38.9575 302.939C18.4083 291.075 18.4084 271.839 38.9575 259.975L284.091 118.447C298.531 110.111 321.943 110.111 336.383 118.447L860.137 420.837C877.354 430.777 877.353 446.893 860.137 456.833L608.97 601.845C594.53 610.182 571.118 610.182 556.678 601.845L38.9575 302.939Z" fill="white"/>
</mask>
<g mask="url(#mask1_3760_42048)">
<rect x="13.1162" y="68.791" width="297.938" height="494.489" fill="white"/>
<path fill-rule="evenodd" clip-rule="evenodd" d="M304.023 292.461C304.023 289.34 301.832 288.075 299.128 289.635L241.222 323.068C240.283 323.61 239.406 324.421 238.662 325.38C238.088 324.777 237.461 324.264 236.802 323.884L178.752 290.369C176.048 288.808 173.857 290.073 173.857 293.195L173.857 507.783C173.857 510.905 176.048 514.701 178.752 516.262L236.802 549.777C239.171 551.144 241.146 550.343 241.599 548.025L299.129 514.81C301.832 513.25 304.023 509.454 304.023 506.332L304.023 292.461Z" fill="#E7E7E7"/>
<path d="M299.128 289.635L299.503 290.285L299.128 289.635ZM304.023 292.461L303.273 292.461L304.023 292.461ZM241.222 323.068L240.847 322.418L240.847 322.418L241.222 323.068ZM238.662 325.38L239.254 325.84L238.719 326.528L238.118 325.896L238.662 325.38ZM236.802 323.884L237.177 323.235L237.177 323.235L236.802 323.884ZM178.752 290.369L179.127 289.719L179.127 289.719L178.752 290.369ZM173.857 293.195L174.607 293.195V293.195L173.857 293.195ZM173.857 507.783L173.107 507.783V507.783L173.857 507.783ZM178.752 516.262L178.377 516.911L178.377 516.911L178.752 516.262ZM236.802 549.777L236.427 550.427L236.427 550.427L236.802 549.777ZM241.599 548.025L240.863 547.881L240.929 547.546L241.224 547.375L241.599 548.025ZM299.129 514.81L298.754 514.161L298.754 514.161L299.129 514.81ZM304.023 506.332L304.773 506.332V506.332H304.023ZM298.753 288.986C300.242 288.127 301.765 287.95 302.965 288.643C304.164 289.336 304.773 290.743 304.773 292.461L303.273 292.461C303.273 291.058 302.787 290.272 302.215 289.942C301.643 289.612 300.719 289.583 299.503 290.285L298.753 288.986ZM240.847 322.418L298.753 288.986L299.503 290.285L241.597 323.717L240.847 322.418ZM238.069 324.919C238.86 323.902 239.807 323.019 240.847 322.418L241.597 323.717C240.759 324.201 239.953 324.94 239.254 325.84L238.069 324.919ZM238.118 325.896C237.586 325.336 237.013 324.872 236.427 324.534L237.177 323.235C237.908 323.656 238.591 324.217 239.205 324.863L238.118 325.896ZM236.427 324.534L178.377 291.018L179.127 289.719L237.177 323.235L236.427 324.534ZM178.377 291.018C177.162 290.317 176.237 290.345 175.665 290.675C175.093 291.005 174.607 291.792 174.607 293.195H173.107C173.107 291.476 173.716 290.069 174.915 289.376C176.115 288.684 177.638 288.86 179.127 289.719L178.377 291.018ZM174.607 293.195L174.607 507.783L173.107 507.783L173.107 293.195L174.607 293.195ZM174.607 507.783C174.607 509.181 175.102 510.782 175.94 512.233C176.777 513.683 177.916 514.913 179.127 515.612L178.377 516.911C176.884 516.049 175.575 514.601 174.641 512.983C173.707 511.365 173.107 509.507 173.107 507.783H174.607ZM179.127 515.612L237.177 549.128L236.427 550.427L178.377 516.911L179.127 515.612ZM237.177 549.128C238.24 549.741 239.086 549.795 239.654 549.581C240.201 549.375 240.674 548.851 240.863 547.881L242.336 548.169C242.072 549.517 241.331 550.552 240.184 550.985C239.059 551.409 237.733 551.18 236.427 550.427L237.177 549.128ZM299.504 515.46L241.974 548.674L241.224 547.375L298.754 514.161L299.504 515.46ZM304.773 506.332C304.773 508.056 304.173 509.914 303.239 511.532C302.305 513.15 300.996 514.598 299.504 515.46L298.754 514.161C299.964 513.462 301.103 512.232 301.94 510.782C302.778 509.331 303.273 507.73 303.273 506.332H304.773ZM304.773 292.461L304.773 506.332L303.273 506.332L303.273 292.461L304.773 292.461Z" fill="#060606"/>
<mask id="mask2_3760_42048" style="mask-type:alpha" maskUnits="userSpaceOnUse" x="173" y="288" width="132" height="264">
<path fill-rule="evenodd" clip-rule="evenodd" d="M304.023 292.46C304.023 289.339 301.832 288.074 299.128 289.634L241.222 323.067C240.283 323.609 239.406 324.42 238.662 325.379C238.088 324.776 237.461 324.263 236.802 323.883L178.752 290.368C176.048 288.807 173.857 290.072 173.857 293.194L173.857 507.782C173.857 510.904 176.048 514.7 178.752 516.261L236.802 549.776C239.171 551.143 241.146 550.342 241.599 548.024L299.129 514.809C301.832 513.249 304.023 509.453 304.023 506.331L304.023 292.46Z" fill="#E7E7E7"/>
<path d="M299.128 289.634L299.503 290.284L299.128 289.634ZM304.023 292.46L303.273 292.46L304.023 292.46ZM241.222 323.067L240.847 322.417L240.847 322.417L241.222 323.067ZM238.662 325.379L239.254 325.839L238.719 326.527L238.118 325.895L238.662 325.379ZM236.802 323.883L237.177 323.234L237.177 323.234L236.802 323.883ZM178.752 290.368L179.127 289.718L179.127 289.718L178.752 290.368ZM173.857 293.194L174.607 293.194V293.194L173.857 293.194ZM173.857 507.782L173.107 507.782V507.782L173.857 507.782ZM178.752 516.261L178.377 516.91L178.377 516.91L178.752 516.261ZM236.802 549.776L236.427 550.426L236.427 550.426L236.802 549.776ZM241.599 548.024L240.863 547.88L240.929 547.545L241.224 547.374L241.599 548.024ZM299.129 514.809L298.754 514.16L298.754 514.16L299.129 514.809ZM304.023 506.331L304.773 506.331V506.331H304.023ZM298.753 288.985C300.242 288.126 301.765 287.949 302.965 288.642C304.164 289.335 304.773 290.742 304.773 292.46L303.273 292.46C303.273 291.057 302.787 290.271 302.215 289.941C301.643 289.611 300.719 289.582 299.503 290.284L298.753 288.985ZM240.847 322.417L298.753 288.985L299.503 290.284L241.597 323.716L240.847 322.417ZM238.069 324.918C238.86 323.901 239.807 323.018 240.847 322.417L241.597 323.716C240.759 324.2 239.953 324.939 239.254 325.839L238.069 324.918ZM238.118 325.895C237.586 325.335 237.013 324.871 236.427 324.533L237.177 323.234C237.908 323.655 238.591 324.216 239.205 324.862L238.118 325.895ZM236.427 324.533L178.377 291.017L179.127 289.718L237.177 323.234L236.427 324.533ZM178.377 291.017C177.162 290.316 176.237 290.344 175.665 290.674C175.093 291.004 174.607 291.791 174.607 293.194H173.107C173.107 291.475 173.716 290.068 174.915 289.375C176.115 288.683 177.638 288.859 179.127 289.718L178.377 291.017ZM174.607 293.194L174.607 507.782L173.107 507.782L173.107 293.194L174.607 293.194ZM174.607 507.782C174.607 509.18 175.102 510.781 175.94 512.232C176.777 513.682 177.916 514.912 179.127 515.611L178.377 516.91C176.884 516.048 175.575 514.6 174.641 512.982C173.707 511.364 173.107 509.506 173.107 507.782H174.607ZM179.127 515.611L237.177 549.127L236.427 550.426L178.377 516.91L179.127 515.611ZM237.177 549.127C238.24 549.74 239.086 549.795 239.654 549.58C240.201 549.374 240.674 548.85 240.863 547.88L242.336 548.168C242.072 549.516 241.331 550.551 240.184 550.984C239.059 551.408 237.733 551.179 236.427 550.426L237.177 549.127ZM299.504 515.459L241.974 548.673L241.224 547.374L298.754 514.16L299.504 515.459ZM304.773 506.331C304.773 508.055 304.173 509.913 303.239 511.531C302.305 513.149 300.996 514.597 299.504 515.459L298.754 514.16C299.964 513.461 301.103 512.231 301.94 510.781C302.778 509.33 303.273 507.729 303.273 506.331H304.773ZM304.773 292.46L304.773 506.331L303.273 506.331L303.273 292.46L304.773 292.46Z" fill="#060606"/>
</mask>
<g mask="url(#mask2_3760_42048)">
<path d="M241.697 328.078C241.697 324.956 239.506 321.16 236.802 319.6L178.752 286.084C176.048 284.523 173.857 285.789 173.857 288.91L173.857 507.783C173.857 510.905 176.048 514.7 178.752 516.261L236.802 549.777C239.506 551.338 241.697 550.072 241.697 546.951L241.697 328.078Z" fill="#939393"/>
</g>
<path d="M299.128 289.635L299.503 290.285L299.128 289.635ZM304.023 292.461L303.273 292.461L304.023 292.461ZM241.222 323.068L240.847 322.418L240.847 322.418L241.222 323.068ZM238.662 325.38L239.254 325.84L238.719 326.528L238.118 325.896L238.662 325.38ZM236.802 323.884L237.177 323.235L237.177 323.235L236.802 323.884ZM178.752 290.369L179.127 289.719L179.127 289.719L178.752 290.369ZM173.857 293.195L174.607 293.195V293.195L173.857 293.195ZM173.857 507.783L173.107 507.783V507.783L173.857 507.783ZM178.752 516.262L178.377 516.911L178.377 516.911L178.752 516.262ZM236.802 549.777L236.427 550.427L236.427 550.427L236.802 549.777ZM241.599 548.025L240.863 547.881L240.929 547.546L241.224 547.375L241.599 548.025ZM299.129 514.81L298.754 514.161L298.754 514.161L299.129 514.81ZM304.023 506.332L304.773 506.332V506.332H304.023ZM298.753 288.986C300.242 288.127 301.765 287.95 302.965 288.643C304.164 289.336 304.773 290.743 304.773 292.461L303.273 292.461C303.273 291.058 302.787 290.272 302.215 289.942C301.643 289.612 300.719 289.583 299.503 290.285L298.753 288.986ZM240.847 322.418L298.753 288.986L299.503 290.285L241.597 323.717L240.847 322.418ZM238.069 324.919C238.86 323.902 239.807 323.019 240.847 322.418L241.597 323.717C240.759 324.201 239.953 324.94 239.254 325.84L238.069 324.919ZM238.118 325.896C237.586 325.336 237.013 324.872 236.427 324.534L237.177 323.235C237.908 323.656 238.591 324.217 239.205 324.863L238.118 325.896ZM236.427 324.534L178.377 291.018L179.127 289.719L237.177 323.235L236.427 324.534ZM178.377 291.018C177.162 290.317 176.237 290.345 175.665 290.675C175.093 291.005 174.607 291.792 174.607 293.195H173.107C173.107 291.476 173.716 290.069 174.915 289.376C176.115 288.684 177.638 288.86 179.127 289.719L178.377 291.018ZM174.607 293.195L174.607 507.783L173.107 507.783L173.107 293.195L174.607 293.195ZM174.607 507.783C174.607 509.181 175.102 510.782 175.94 512.233C176.777 513.683 177.916 514.913 179.127 515.612L178.377 516.911C176.884 516.049 175.575 514.601 174.641 512.983C173.707 511.365 173.107 509.507 173.107 507.783H174.607ZM179.127 515.612L237.177 549.128L236.427 550.427L178.377 516.911L179.127 515.612ZM237.177 549.128C238.24 549.741 239.086 549.795 239.654 549.581C240.201 549.375 240.674 548.851 240.863 547.881L242.336 548.169C242.072 549.517 241.331 550.552 240.184 550.985C239.059 551.409 237.733 551.18 236.427 550.427L237.177 549.128ZM299.504 515.46L241.974 548.674L241.224 547.375L298.754 514.161L299.504 515.46ZM304.773 506.332C304.773 508.056 304.173 509.914 303.239 511.532C302.305 513.15 300.996 514.598 299.504 515.46L298.754 514.161C299.964 513.462 301.103 512.232 301.94 510.782C302.778 509.331 303.273 507.73 303.273 506.332H304.773ZM304.773 292.461L304.773 506.332L303.273 506.332L303.273 292.461L304.773 292.461Z" fill="#060606"/>
<rect x="4.47035e-08" y="0.75" width="82.1523" height="82.5547" rx="12.8152" transform="matrix(-0.866025 0.5 0.866025 0.5 238.052 250.58)" fill="#060606" stroke="#060606" stroke-width="1.5"/>
<path d="M248.515 280.814C244.288 277.691 238.689 277.932 232.847 279.31L227.655 274.771L223.407 276.081L228.462 280.5C227.345 280.844 226.22 281.21 225.102 281.575L220.014 277.126L215.768 278.435L220.957 282.973C220.051 283.268 219.16 283.558 218.28 283.83L218.263 283.816L212.401 285.62L215.778 288.57C215.778 288.57 218.871 287.565 218.862 287.618C220.583 287.088 221.886 287.565 222.691 288.076L228.606 293.246C228.725 293.21 228.884 293.165 229.077 293.127C228.935 293.171 228.783 293.217 228.628 293.266L236.913 300.509C237.241 300.885 237.565 301.544 236.364 301.916C236.454 301.931 233.275 302.868 233.275 302.868L236.205 306.427L241.734 304.723C242.764 304.407 243.789 304.106 244.788 303.804L250.04 308.394L254.285 307.086L249.089 302.544C250.273 302.201 251.407 301.86 252.508 301.52L257.677 306.041L261.926 304.731L256.685 300.149C263.524 297.681 267.185 294.97 262.816 290.418C259.3 286.751 254.966 285.967 250.187 286.583C251.718 285.009 251.614 283.097 248.515 280.814ZM253.798 292.461C257.725 295.89 248.245 298.284 245.368 299.173L238.411 293.091C241.292 292.204 249.706 288.883 253.798 292.461ZM242.006 284.489C245.575 287.61 237.625 289.568 235.227 290.307L228.917 284.791C231.315 284.051 238.282 281.234 242.006 284.489Z" fill="white"/>
<path fill-rule="evenodd" clip-rule="evenodd" d="M434.225 197.677C434.225 194.556 432.033 193.29 429.33 194.851L371.423 228.284C370.484 228.826 369.608 229.637 368.863 230.595C368.29 229.992 367.662 229.48 367.004 229.1L308.953 195.584C306.249 194.024 304.058 195.289 304.058 198.41L304.058 412.999C304.058 416.121 306.249 419.917 308.953 421.477L367.004 454.993C369.372 456.36 371.347 455.559 371.801 453.241L429.33 420.026C432.033 418.465 434.225 414.67 434.225 411.548L434.225 197.677Z" fill="#E7E7E7"/>
<path d="M429.33 194.851L429.705 195.501L429.33 194.851ZM434.225 197.677L433.475 197.677L434.225 197.677ZM371.423 228.284L371.798 228.933L371.798 228.933L371.423 228.284ZM368.863 230.595L369.455 231.056L368.92 231.744L368.319 231.112L368.863 230.595ZM367.004 229.1L367.379 228.451L367.379 228.451L367.004 229.1ZM308.953 195.584L309.328 194.935L309.328 194.935L308.953 195.584ZM304.058 198.41L304.808 198.41V198.41L304.058 198.41ZM304.058 412.999L303.308 412.999V412.999L304.058 412.999ZM308.953 421.477L308.578 422.127L308.578 422.127L308.953 421.477ZM367.004 454.993L366.629 455.643L366.629 455.643L367.004 454.993ZM371.801 453.241L371.065 453.097L371.13 452.762L371.426 452.591L371.801 453.241ZM429.33 420.026L428.955 419.377L428.955 419.377L429.33 420.026ZM434.225 411.548L434.975 411.548V411.548H434.225ZM428.955 194.202C430.443 193.342 431.966 193.166 433.166 193.859C434.366 194.551 434.975 195.959 434.975 197.677L433.475 197.677C433.475 196.274 432.988 195.488 432.416 195.158C431.844 194.828 430.92 194.799 429.705 195.501L428.955 194.202ZM371.048 227.634L428.955 194.202L429.705 195.501L371.798 228.933L371.048 227.634ZM368.27 230.135C369.061 229.117 370.008 228.234 371.048 227.634L371.798 228.933C370.96 229.417 370.154 230.156 369.455 231.056L368.27 230.135ZM368.319 231.112C367.787 230.552 367.214 230.088 366.629 229.75L367.379 228.451C368.109 228.872 368.792 229.433 369.406 230.079L368.319 231.112ZM366.629 229.75L308.578 196.234L309.328 194.935L367.379 228.451L366.629 229.75ZM308.578 196.234C307.363 195.532 306.439 195.561 305.867 195.891C305.295 196.221 304.808 197.007 304.808 198.41H303.308C303.308 196.692 303.917 195.285 305.117 194.592C306.316 193.899 307.839 194.076 309.328 194.935L308.578 196.234ZM304.808 198.41L304.808 412.999L303.308 412.999L303.308 198.41L304.808 198.41ZM304.808 412.999C304.808 414.397 305.304 415.998 306.141 417.449C306.978 418.899 308.117 420.129 309.328 420.828L308.578 422.127C307.085 421.265 305.776 419.817 304.842 418.199C303.908 416.58 303.308 414.723 303.308 412.999H304.808ZM309.328 420.828L367.379 454.343L366.629 455.643L308.578 422.127L309.328 420.828ZM367.379 454.343C368.442 454.957 369.287 455.011 369.856 454.797C370.402 454.591 370.875 454.067 371.065 453.097L372.537 453.385C372.273 454.732 371.532 455.768 370.385 456.201C369.26 456.625 367.934 456.396 366.629 455.643L367.379 454.343ZM429.705 420.676L372.176 453.89L371.426 452.591L428.955 419.377L429.705 420.676ZM434.975 411.548C434.975 413.271 434.375 415.129 433.44 416.747C432.506 418.365 431.197 419.814 429.705 420.676L428.955 419.377C430.166 418.678 431.304 417.448 432.141 415.997C432.979 414.547 433.475 412.946 433.475 411.548H434.975ZM434.975 197.677L434.975 411.548L433.475 411.548L433.475 197.677L434.975 197.677Z" fill="#060606"/>
<mask id="mask3_3760_42048" style="mask-type:alpha" maskUnits="userSpaceOnUse" x="303" y="193" width="132" height="264">
<path fill-rule="evenodd" clip-rule="evenodd" d="M434.225 197.676C434.225 194.555 432.033 193.289 429.33 194.85L371.423 228.283C370.484 228.825 369.608 229.636 368.863 230.594C368.29 229.991 367.662 229.479 367.004 229.099L308.953 195.583C306.249 194.023 304.058 195.288 304.058 198.41L304.058 412.998C304.058 416.12 306.249 419.916 308.953 421.476L367.004 454.992C369.372 456.359 371.347 455.558 371.801 453.24L429.33 420.025C432.033 418.464 434.225 414.669 434.225 411.547L434.225 197.676Z" fill="#E7E7E7"/>
<path d="M429.33 194.85L429.705 195.5L429.33 194.85ZM434.225 197.676L433.475 197.676L434.225 197.676ZM371.423 228.283L371.798 228.932L371.798 228.932L371.423 228.283ZM368.863 230.594L369.455 231.055L368.92 231.743L368.319 231.111L368.863 230.594ZM367.004 229.099L367.379 228.45L367.379 228.45L367.004 229.099ZM308.953 195.583L309.328 194.934L309.328 194.934L308.953 195.583ZM304.058 198.41L304.808 198.41V198.41L304.058 198.41ZM304.058 412.998L303.308 412.998V412.998L304.058 412.998ZM308.953 421.476L308.578 422.126L308.578 422.126L308.953 421.476ZM367.004 454.992L366.629 455.642L366.629 455.642L367.004 454.992ZM371.801 453.24L371.065 453.096L371.13 452.761L371.426 452.59L371.801 453.24ZM429.33 420.025L428.955 419.376L428.955 419.376L429.33 420.025ZM434.225 411.547L434.975 411.547V411.547H434.225ZM428.955 194.201C430.443 193.341 431.966 193.165 433.166 193.858C434.366 194.55 434.975 195.958 434.975 197.676L433.475 197.676C433.475 196.273 432.988 195.487 432.416 195.157C431.844 194.827 430.92 194.798 429.705 195.5L428.955 194.201ZM371.048 227.633L428.955 194.201L429.705 195.5L371.798 228.932L371.048 227.633ZM368.27 230.134C369.061 229.116 370.008 228.233 371.048 227.633L371.798 228.932C370.96 229.416 370.154 230.155 369.455 231.055L368.27 230.134ZM368.319 231.111C367.787 230.551 367.214 230.087 366.629 229.749L367.379 228.45C368.109 228.871 368.792 229.432 369.406 230.078L368.319 231.111ZM366.629 229.749L308.578 196.233L309.328 194.934L367.379 228.45L366.629 229.749ZM308.578 196.233C307.363 195.531 306.439 195.56 305.867 195.89C305.295 196.22 304.808 197.006 304.808 198.41H303.308C303.308 196.691 303.917 195.284 305.117 194.591C306.316 193.898 307.839 194.075 309.328 194.934L308.578 196.233ZM304.808 198.41L304.808 412.998L303.308 412.998L303.308 198.41L304.808 198.41ZM304.808 412.998C304.808 414.396 305.304 415.997 306.141 417.448C306.978 418.898 308.117 420.128 309.328 420.827L308.578 422.126C307.085 421.264 305.776 419.816 304.842 418.198C303.908 416.579 303.308 414.722 303.308 412.998H304.808ZM309.328 420.827L367.379 454.343L366.629 455.642L308.578 422.126L309.328 420.827ZM367.379 454.343C368.442 454.956 369.287 455.01 369.856 454.796C370.402 454.59 370.875 454.066 371.065 453.096L372.537 453.384C372.273 454.731 371.532 455.767 370.385 456.2C369.26 456.624 367.934 456.395 366.629 455.642L367.379 454.343ZM429.705 420.675L372.176 453.889L371.426 452.59L428.955 419.376L429.705 420.675ZM434.975 411.547C434.975 413.27 434.375 415.128 433.44 416.746C432.506 418.364 431.197 419.813 429.705 420.675L428.955 419.376C430.166 418.677 431.304 417.447 432.141 415.996C432.979 414.546 433.475 412.945 433.475 411.547H434.975ZM434.975 197.676L434.975 411.547L433.475 411.547L433.475 197.676L434.975 197.676Z" fill="#060606"/>
</mask>
<g mask="url(#mask3_3760_42048)">
<path d="M371.898 221.688C371.898 218.567 369.707 214.771 367.004 213.21L308.953 179.694C306.249 178.134 304.058 179.399 304.058 182.52L304.058 412.998C304.058 416.12 306.249 419.916 308.953 421.477L367.003 454.992C369.707 456.553 371.898 455.288 371.898 452.166L371.898 221.688Z" fill="#939393"/>
</g>
<path d="M429.33 194.85L429.705 195.5L429.33 194.85ZM434.225 197.676L433.475 197.676L434.225 197.676ZM371.423 228.283L371.798 228.932L371.798 228.932L371.423 228.283ZM368.863 230.594L369.455 231.055L368.92 231.743L368.319 231.111L368.863 230.594ZM367.004 229.099L367.379 228.45L367.379 228.45L367.004 229.099ZM308.953 195.583L309.328 194.934L309.328 194.934L308.953 195.583ZM304.058 198.41L304.808 198.41V198.41L304.058 198.41ZM304.058 412.998L303.308 412.998V412.998L304.058 412.998ZM308.953 421.476L308.578 422.126L308.578 422.126L308.953 421.476ZM367.004 454.992L366.629 455.642L366.629 455.642L367.004 454.992ZM371.801 453.24L371.065 453.096L371.13 452.761L371.426 452.59L371.801 453.24ZM429.33 420.025L428.955 419.376L428.955 419.376L429.33 420.025ZM434.225 411.547L434.975 411.547V411.547H434.225ZM428.955 194.201C430.443 193.341 431.966 193.165 433.166 193.858C434.366 194.55 434.975 195.958 434.975 197.676L433.475 197.676C433.475 196.273 432.988 195.487 432.416 195.157C431.844 194.827 430.92 194.798 429.705 195.5L428.955 194.201ZM371.048 227.633L428.955 194.201L429.705 195.5L371.798 228.932L371.048 227.633ZM368.27 230.134C369.061 229.116 370.008 228.233 371.048 227.633L371.798 228.932C370.96 229.416 370.154 230.155 369.455 231.055L368.27 230.134ZM368.319 231.111C367.787 230.551 367.214 230.087 366.629 229.749L367.379 228.45C368.109 228.871 368.792 229.432 369.406 230.078L368.319 231.111ZM366.629 229.749L308.578 196.233L309.328 194.934L367.379 228.45L366.629 229.749ZM308.578 196.233C307.363 195.531 306.439 195.56 305.867 195.89C305.295 196.22 304.808 197.006 304.808 198.41H303.308C303.308 196.691 303.917 195.284 305.117 194.591C306.316 193.898 307.839 194.075 309.328 194.934L308.578 196.233ZM304.808 198.41L304.808 412.998L303.308 412.998L303.308 198.41L304.808 198.41ZM304.808 412.998C304.808 414.396 305.304 415.997 306.141 417.448C306.978 418.898 308.117 420.128 309.328 420.827L308.578 422.126C307.085 421.264 305.776 419.816 304.842 418.198C303.908 416.579 303.308 414.722 303.308 412.998H304.808ZM309.328 420.827L367.379 454.343L366.629 455.642L308.578 422.126L309.328 420.827ZM367.379 454.343C368.442 454.956 369.287 455.01 369.856 454.796C370.402 454.59 370.875 454.066 371.065 453.096L372.537 453.384C372.273 454.731 371.532 455.767 370.385 456.2C369.26 456.624 367.934 456.395 366.629 455.642L367.379 454.343ZM429.705 420.675L372.176 453.889L371.426 452.59L428.955 419.376L429.705 420.675ZM434.975 411.547C434.975 413.27 434.375 415.128 433.44 416.746C432.506 418.364 431.197 419.813 429.705 420.675L428.955 419.376C430.166 418.677 431.304 417.447 432.141 415.996C432.979 414.546 433.475 412.945 433.475 411.547H434.975ZM434.975 197.676L434.975 411.547L433.475 411.547L433.475 197.676L434.975 197.676Z" fill="#060606"/>
<rect x="4.47035e-08" y="0.75" width="82.1523" height="82.5547" rx="12.8152" transform="matrix(-0.866025 0.5 0.866025 0.5 368.252 155.795)" fill="#060606" stroke="#060606" stroke-width="1.5"/>
<path d="M349.886 185.96L350.503 186.613L375.874 201.261L376.388 201.261L381.203 190.442L349.886 185.96Z" fill="white"/>
<path d="M349.888 185.959L357.652 204.039L376.39 201.259L364.076 194.15L349.888 185.959Z" fill="white"/>
<path d="M378.619 202.55L378.651 202.735L387.689 207.953L388.257 208.114L383.445 191.729L378.619 202.55Z" fill="white"/>
<path d="M388.255 208.108L378.617 202.544L359.883 205.326L388.255 208.108Z" fill="white"/>
<path d="M376.392 201.26L381.207 190.442L364.078 194.15L376.392 201.26Z" fill="white"/>
<path d="M357.652 204.04L376.389 201.259L364.075 194.15L357.652 204.04Z" fill="white"/>
<path fill-rule="evenodd" clip-rule="evenodd" d="M434.229 292.222C434.229 289.101 432.037 287.835 429.334 289.396L371.427 322.829C370.488 323.37 369.611 324.182 368.867 325.14C368.293 324.537 367.666 324.025 367.007 323.645L308.957 290.129C306.253 288.569 304.062 289.834 304.062 292.955L304.062 507.544C304.062 510.666 306.253 514.461 308.957 516.022L367.007 549.538C369.376 550.905 371.351 550.104 371.805 547.786L429.334 514.571C432.037 513.01 434.229 509.214 434.229 506.093L434.229 292.222Z" fill="#E7E7E7"/>
<path d="M429.334 289.396L429.709 290.046L429.334 289.396ZM434.229 292.222L433.479 292.222L434.229 292.222ZM371.427 322.829L371.052 322.179L371.052 322.179L371.427 322.829ZM368.867 325.14L369.459 325.6L368.924 326.289L368.323 325.657L368.867 325.14ZM367.007 323.645L367.382 322.995L367.383 322.995L367.007 323.645ZM308.957 290.129L309.332 289.48L309.332 289.48L308.957 290.129ZM304.062 292.955L304.812 292.955V292.955L304.062 292.955ZM304.062 507.544L303.312 507.544V507.544L304.062 507.544ZM308.957 516.022L308.582 516.672L308.582 516.672L308.957 516.022ZM367.007 549.538L366.632 550.187L366.632 550.187L367.007 549.538ZM371.805 547.786L371.068 547.642L371.134 547.307L371.43 547.136L371.805 547.786ZM429.334 514.571L428.959 513.922L428.959 513.922L429.334 514.571ZM434.229 506.093L434.979 506.093V506.093H434.229ZM428.959 288.747C430.447 287.887 431.97 287.711 433.17 288.404C434.369 289.096 434.979 290.504 434.979 292.222L433.479 292.222C433.479 290.819 432.992 290.033 432.42 289.703C431.848 289.373 430.924 289.344 429.709 290.046L428.959 288.747ZM371.052 322.179L428.959 288.747L429.709 290.046L371.802 323.478L371.052 322.179ZM368.274 324.68C369.065 323.662 370.012 322.779 371.052 322.179L371.802 323.478C370.964 323.962 370.158 324.701 369.459 325.6L368.274 324.68ZM368.323 325.657C367.791 325.097 367.218 324.633 366.632 324.295L367.383 322.995C368.113 323.417 368.796 323.978 369.41 324.624L368.323 325.657ZM366.632 324.295L308.582 290.779L309.332 289.48L367.382 322.995L366.632 324.295ZM308.582 290.779C307.367 290.077 306.442 290.106 305.87 290.436C305.298 290.766 304.812 291.552 304.812 292.955H303.312C303.312 291.237 303.921 289.83 305.12 289.137C306.32 288.444 307.843 288.621 309.332 289.48L308.582 290.779ZM304.812 292.955L304.812 507.544L303.312 507.544L303.312 292.955L304.812 292.955ZM304.812 507.544C304.812 508.942 305.308 510.543 306.145 511.993C306.982 513.444 308.121 514.674 309.332 515.373L308.582 516.672C307.089 515.81 305.78 514.361 304.846 512.743C303.912 511.125 303.312 509.267 303.312 507.544H304.812ZM309.332 515.373L367.382 548.888L366.632 550.187L308.582 516.672L309.332 515.373ZM367.382 548.888C368.445 549.502 369.291 549.556 369.859 549.342C370.406 549.136 370.879 548.612 371.068 547.642L372.541 547.93C372.277 549.277 371.536 550.313 370.389 550.746C369.264 551.17 367.938 550.941 366.632 550.187L367.382 548.888ZM429.709 515.221L372.18 548.435L371.43 547.136L428.959 513.922L429.709 515.221ZM434.979 506.093C434.979 507.816 434.379 509.674 433.444 511.292C432.51 512.91 431.201 514.359 429.709 515.221L428.959 513.922C430.169 513.223 431.308 511.993 432.145 510.542C432.983 509.092 433.479 507.491 433.479 506.093H434.979ZM434.979 292.222L434.979 506.093L433.479 506.093L433.479 292.222L434.979 292.222Z" fill="#060606"/>
<mask id="mask4_3760_42048" style="mask-type:alpha" maskUnits="userSpaceOnUse" x="303" y="287" width="132" height="264">
<path fill-rule="evenodd" clip-rule="evenodd" d="M434.229 292.222C434.229 289.101 432.037 287.835 429.334 289.396L371.427 322.829C370.488 323.37 369.611 324.182 368.867 325.14C368.293 324.537 367.666 324.025 367.007 323.645L308.957 290.129C306.253 288.569 304.062 289.834 304.062 292.955L304.062 507.544C304.062 510.666 306.253 514.461 308.957 516.022L367.007 549.538C369.376 550.905 371.351 550.104 371.805 547.786L429.334 514.571C432.037 513.01 434.229 509.214 434.229 506.093L434.229 292.222Z" fill="#E7E7E7"/>
<path d="M429.334 289.396L429.709 290.046L429.334 289.396ZM434.229 292.222L433.479 292.222L434.229 292.222ZM371.427 322.829L371.052 322.179L371.052 322.179L371.427 322.829ZM368.867 325.14L369.459 325.6L368.924 326.289L368.323 325.657L368.867 325.14ZM367.007 323.645L367.382 322.995L367.383 322.995L367.007 323.645ZM308.957 290.129L309.332 289.48L309.332 289.48L308.957 290.129ZM304.062 292.955L304.812 292.955V292.955L304.062 292.955ZM304.062 507.544L303.312 507.544V507.544L304.062 507.544ZM308.957 516.022L308.582 516.672L308.582 516.672L308.957 516.022ZM367.007 549.538L366.632 550.187L366.632 550.187L367.007 549.538ZM371.805 547.786L371.068 547.642L371.134 547.307L371.43 547.136L371.805 547.786ZM429.334 514.571L428.959 513.922L428.959 513.922L429.334 514.571ZM434.229 506.093L434.979 506.093V506.093H434.229ZM428.959 288.747C430.447 287.887 431.97 287.711 433.17 288.404C434.369 289.096 434.979 290.504 434.979 292.222L433.479 292.222C433.479 290.819 432.992 290.033 432.42 289.703C431.848 289.373 430.924 289.344 429.709 290.046L428.959 288.747ZM371.052 322.179L428.959 288.747L429.709 290.046L371.802 323.478L371.052 322.179ZM368.274 324.68C369.065 323.662 370.012 322.779 371.052 322.179L371.802 323.478C370.964 323.962 370.158 324.701 369.459 325.6L368.274 324.68ZM368.323 325.657C367.791 325.097 367.218 324.633 366.632 324.295L367.383 322.995C368.113 323.417 368.796 323.978 369.41 324.624L368.323 325.657ZM366.632 324.295L308.582 290.779L309.332 289.48L367.382 322.995L366.632 324.295ZM308.582 290.779C307.367 290.077 306.442 290.106 305.87 290.436C305.298 290.766 304.812 291.552 304.812 292.955H303.312C303.312 291.237 303.921 289.83 305.12 289.137C306.32 288.444 307.843 288.621 309.332 289.48L308.582 290.779ZM304.812 292.955L304.812 507.544L303.312 507.544L303.312 292.955L304.812 292.955ZM304.812 507.544C304.812 508.942 305.308 510.543 306.145 511.993C306.982 513.444 308.121 514.674 309.332 515.373L308.582 516.672C307.089 515.81 305.78 514.361 304.846 512.743C303.912 511.125 303.312 509.267 303.312 507.544H304.812ZM309.332 515.373L367.382 548.888L366.632 550.187L308.582 516.672L309.332 515.373ZM367.382 548.888C368.445 549.502 369.291 549.556 369.859 549.342C370.406 549.136 370.879 548.612 371.068 547.642L372.541 547.93C372.277 549.277 371.536 550.313 370.389 550.746C369.264 551.17 367.938 550.941 366.632 550.187L367.382 548.888ZM429.709 515.221L372.18 548.435L371.43 547.136L428.959 513.922L429.709 515.221ZM434.979 506.093C434.979 507.816 434.379 509.674 433.444 511.292C432.51 512.91 431.201 514.359 429.709 515.221L428.959 513.922C430.169 513.223 431.308 511.993 432.145 510.542C432.983 509.092 433.479 507.491 433.479 506.093H434.979ZM434.979 292.222L434.979 506.093L433.479 506.093L433.479 292.222L434.979 292.222Z" fill="#060606"/>
</mask>
<g mask="url(#mask4_3760_42048)">
<path d="M371.902 320.936C371.902 317.815 369.711 314.019 367.007 312.458L308.957 278.942C306.253 277.382 304.062 278.647 304.062 281.769L304.062 507.545C304.062 510.666 306.253 514.462 308.957 516.023L367.007 549.539C369.711 551.1 371.902 549.834 371.902 546.713L371.902 320.936Z" fill="#939393"/>
</g>
<path d="M429.334 289.396L429.709 290.046L429.334 289.396ZM434.229 292.222L433.479 292.222L434.229 292.222ZM371.427 322.829L371.052 322.179L371.052 322.179L371.427 322.829ZM368.867 325.14L369.459 325.6L368.924 326.289L368.323 325.657L368.867 325.14ZM367.007 323.645L367.382 322.995L367.383 322.995L367.007 323.645ZM308.957 290.129L309.332 289.48L309.332 289.48L308.957 290.129ZM304.062 292.955L304.812 292.955V292.955L304.062 292.955ZM304.062 507.544L303.312 507.544V507.544L304.062 507.544ZM308.957 516.022L308.582 516.672L308.582 516.672L308.957 516.022ZM367.007 549.538L366.632 550.187L366.632 550.187L367.007 549.538ZM371.805 547.786L371.068 547.642L371.134 547.307L371.43 547.136L371.805 547.786ZM429.334 514.571L428.959 513.922L428.959 513.922L429.334 514.571ZM434.229 506.093L434.979 506.093V506.093H434.229ZM428.959 288.747C430.447 287.887 431.97 287.711 433.17 288.404C434.369 289.096 434.979 290.504 434.979 292.222L433.479 292.222C433.479 290.819 432.992 290.033 432.42 289.703C431.848 289.373 430.924 289.344 429.709 290.046L428.959 288.747ZM371.052 322.179L428.959 288.747L429.709 290.046L371.802 323.478L371.052 322.179ZM368.274 324.68C369.065 323.662 370.012 322.779 371.052 322.179L371.802 323.478C370.964 323.962 370.158 324.701 369.459 325.6L368.274 324.68ZM368.323 325.657C367.791 325.097 367.218 324.633 366.632 324.295L367.383 322.995C368.113 323.417 368.796 323.978 369.41 324.624L368.323 325.657ZM366.632 324.295L308.582 290.779L309.332 289.48L367.382 322.995L366.632 324.295ZM308.582 290.779C307.367 290.077 306.442 290.106 305.87 290.436C305.298 290.766 304.812 291.552 304.812 292.955H303.312C303.312 291.237 303.921 289.83 305.12 289.137C306.32 288.444 307.843 288.621 309.332 289.48L308.582 290.779ZM304.812 292.955L304.812 507.544L303.312 507.544L303.312 292.955L304.812 292.955ZM304.812 507.544C304.812 508.942 305.308 510.543 306.145 511.993C306.982 513.444 308.121 514.674 309.332 515.373L308.582 516.672C307.089 515.81 305.78 514.361 304.846 512.743C303.912 511.125 303.312 509.267 303.312 507.544H304.812ZM309.332 515.373L367.382 548.888L366.632 550.187L308.582 516.672L309.332 515.373ZM367.382 548.888C368.445 549.502 369.291 549.556 369.859 549.342C370.406 549.136 370.879 548.612 371.068 547.642L372.541 547.93C372.277 549.277 371.536 550.313 370.389 550.746C369.264 551.17 367.938 550.941 366.632 550.187L367.382 548.888ZM429.709 515.221L372.18 548.435L371.43 547.136L428.959 513.922L429.709 515.221ZM434.979 506.093C434.979 507.816 434.379 509.674 433.444 511.292C432.51 512.91 431.201 514.359 429.709 515.221L428.959 513.922C430.169 513.223 431.308 511.993 432.145 510.542C432.983 509.092 433.479 507.491 433.479 506.093H434.979ZM434.979 292.222L434.979 506.093L433.479 506.093L433.479 292.222L434.979 292.222Z" fill="#060606"/>
<rect x="4.47035e-08" y="0.75" width="82.1523" height="82.5547" rx="12.8152" transform="matrix(-0.866025 0.5 0.866025 0.5 368.257 250.341)" fill="#B0F127" stroke="#060606" stroke-width="1.5"/>
<path d="M391.994 288.031L377.367 296.476L370.88 289.573L373.869 286.452L371.707 284.176L368.781 287.333L358.097 276.024L357.906 275.914C357.461 275.657 356.825 275.657 356.38 275.914L350.72 279.182C350.275 279.439 350.211 279.843 350.529 280.173L363.185 293.502L360.259 296.66L362.294 298.936L365.22 295.778L374.251 305.325L396.573 292.437C397.018 292.18 397.082 291.776 396.828 291.482L393.711 288.215L393.521 288.104C393.075 287.774 392.439 287.774 391.994 288.031V288.031Z" fill="white"/>
<path fill-rule="evenodd" clip-rule="evenodd" d="M434.225 386.773C434.225 383.651 432.033 382.386 429.33 383.947L371.423 417.379C370.484 417.921 369.608 418.732 368.863 419.691C368.29 419.088 367.662 418.576 367.004 418.196L308.953 384.68C306.249 383.119 304.058 384.385 304.058 387.506L304.058 602.095C304.058 605.216 306.249 609.012 308.953 610.573L367.004 644.089C369.372 645.456 371.347 644.655 371.801 642.336L429.33 609.122C432.033 607.561 434.225 603.765 434.225 600.644L434.225 386.773Z" fill="#E7E7E7"/>
<path d="M429.33 383.947L429.705 384.596L429.33 383.947ZM434.225 386.773L433.475 386.773L434.225 386.773ZM371.423 417.379L371.798 418.029L371.798 418.029L371.423 417.379ZM368.863 419.691L369.455 420.151L368.92 420.84L368.319 420.208L368.863 419.691ZM367.004 418.196L367.379 417.546L367.379 417.546L367.004 418.196ZM308.953 384.68L309.328 384.031L309.328 384.031L308.953 384.68ZM304.058 387.506L304.808 387.506V387.506L304.058 387.506ZM304.058 602.095L303.308 602.095V602.095L304.058 602.095ZM308.953 610.573L308.578 611.223L308.578 611.223L308.953 610.573ZM367.004 644.089L366.629 644.738L366.629 644.738L367.004 644.089ZM371.801 642.336L371.065 642.192L371.13 641.857L371.426 641.687L371.801 642.336ZM429.33 609.122L428.955 608.472L428.955 608.472L429.33 609.122ZM434.225 600.644L434.975 600.644V600.644H434.225ZM428.955 383.297C430.443 382.438 431.966 382.262 433.166 382.954C434.366 383.647 434.975 385.054 434.975 386.773L433.475 386.773C433.475 385.37 432.988 384.584 432.416 384.254C431.844 383.923 430.92 383.895 429.705 384.596L428.955 383.297ZM371.048 416.73L428.955 383.297L429.705 384.596L371.798 418.029L371.048 416.73ZM368.27 419.231C369.061 418.213 370.008 417.33 371.048 416.73L371.798 418.029C370.96 418.512 370.154 419.252 369.455 420.151L368.27 419.231ZM368.319 420.208C367.787 419.648 367.214 419.183 366.629 418.845L367.379 417.546C368.109 417.968 368.792 418.529 369.406 419.174L368.319 420.208ZM366.629 418.845L308.578 385.33L309.328 384.031L367.379 417.546L366.629 418.845ZM308.578 385.33C307.363 384.628 306.439 384.657 305.867 384.987C305.295 385.317 304.808 386.103 304.808 387.506H303.308C303.308 385.788 303.917 384.38 305.117 383.688C306.316 382.995 307.839 383.171 309.328 384.031L308.578 385.33ZM304.808 387.506L304.808 602.095L303.308 602.095L303.308 387.506L304.808 387.506ZM304.808 602.095C304.808 603.493 305.304 605.094 306.141 606.544C306.978 607.995 308.117 609.224 309.328 609.924L308.578 611.223C307.085 610.361 305.776 608.912 304.842 607.294C303.908 605.676 303.308 603.818 303.308 602.095H304.808ZM309.328 609.924L367.379 643.439L366.629 644.738L308.578 611.223L309.328 609.924ZM367.379 643.439C368.442 644.053 369.287 644.107 369.856 643.893C370.402 643.687 370.875 643.163 371.065 642.192L372.537 642.48C372.273 643.828 371.532 644.864 370.385 645.296C369.26 645.721 367.934 645.492 366.629 644.738L367.379 643.439ZM429.705 609.771L372.176 642.986L371.426 641.687L428.955 608.472L429.705 609.771ZM434.975 600.644C434.975 602.367 434.375 604.225 433.44 605.843C432.506 607.461 431.197 608.91 429.705 609.771L428.955 608.472C430.166 607.773 431.304 606.544 432.141 605.093C432.979 603.643 433.475 602.042 433.475 600.644H434.975ZM434.975 386.773L434.975 600.644L433.475 600.644L433.475 386.773L434.975 386.773Z" fill="#060606"/>
<mask id="mask5_3760_42048" style="mask-type:alpha" maskUnits="userSpaceOnUse" x="303" y="382" width="132" height="264">
<path fill-rule="evenodd" clip-rule="evenodd" d="M434.225 386.773C434.225 383.651 432.033 382.386 429.33 383.947L371.423 417.379C370.484 417.921 369.608 418.732 368.863 419.691C368.29 419.088 367.662 418.576 367.004 418.196L308.953 384.68C306.249 383.119 304.058 384.385 304.058 387.506L304.058 602.095C304.058 605.216 306.249 609.012 308.953 610.573L367.004 644.089C369.372 645.456 371.347 644.655 371.801 642.336L429.33 609.122C432.033 607.561 434.225 603.765 434.225 600.644L434.225 386.773Z" fill="#E7E7E7"/>
<path d="M429.33 383.947L429.705 384.596L429.33 383.947ZM434.225 386.773L433.475 386.773L434.225 386.773ZM371.423 417.379L371.798 418.029L371.798 418.029L371.423 417.379ZM368.863 419.691L369.455 420.151L368.92 420.84L368.319 420.208L368.863 419.691ZM367.004 418.196L367.379 417.546L367.379 417.546L367.004 418.196ZM308.953 384.68L309.328 384.031L309.328 384.031L308.953 384.68ZM304.058 387.506L304.808 387.506V387.506L304.058 387.506ZM304.058 602.095L303.308 602.095V602.095L304.058 602.095ZM308.953 610.573L308.578 611.223L308.578 611.223L308.953 610.573ZM367.004 644.089L366.629 644.738L366.629 644.738L367.004 644.089ZM371.801 642.336L371.065 642.192L371.13 641.857L371.426 641.687L371.801 642.336ZM429.33 609.122L428.955 608.472L428.955 608.472L429.33 609.122ZM434.225 600.644L434.975 600.644V600.644H434.225ZM428.955 383.297C430.443 382.438 431.966 382.262 433.166 382.954C434.366 383.647 434.975 385.054 434.975 386.773L433.475 386.773C433.475 385.37 432.988 384.584 432.416 384.254C431.844 383.923 430.92 383.895 429.705 384.596L428.955 383.297ZM371.048 416.73L428.955 383.297L429.705 384.596L371.798 418.029L371.048 416.73ZM368.27 419.231C369.061 418.213 370.008 417.33 371.048 416.73L371.798 418.029C370.96 418.512 370.154 419.252 369.455 420.151L368.27 419.231ZM368.319 420.208C367.787 419.648 367.214 419.183 366.629 418.845L367.379 417.546C368.109 417.968 368.792 418.529 369.406 419.174L368.319 420.208ZM366.629 418.845L308.578 385.33L309.328 384.031L367.379 417.546L366.629 418.845ZM308.578 385.33C307.363 384.628 306.439 384.657 305.867 384.987C305.295 385.317 304.808 386.103 304.808 387.506H303.308C303.308 385.788 303.917 384.38 305.117 383.688C306.316 382.995 307.839 383.171 309.328 384.031L308.578 385.33ZM304.808 387.506L304.808 602.095L303.308 602.095L303.308 387.506L304.808 387.506ZM304.808 602.095C304.808 603.493 305.304 605.094 306.141 606.544C306.978 607.995 308.117 609.224 309.328 609.924L308.578 611.223C307.085 610.361 305.776 608.912 304.842 607.294C303.908 605.676 303.308 603.818 303.308 602.095H304.808ZM309.328 609.924L367.379 643.439L366.629 644.738L308.578 611.223L309.328 609.924ZM367.379 643.439C368.442 644.053 369.287 644.107 369.856 643.893C370.402 643.687 370.875 643.163 371.065 642.192L372.537 642.48C372.273 643.828 371.532 644.864 370.385 645.296C369.26 645.721 367.934 645.492 366.629 644.738L367.379 643.439ZM429.705 609.771L372.176 642.986L371.426 641.687L428.955 608.472L429.705 609.771ZM434.975 600.644C434.975 602.367 434.375 604.225 433.44 605.843C432.506 607.461 431.197 608.91 429.705 609.771L428.955 608.472C430.166 607.773 431.304 606.544 432.141 605.093C432.979 603.643 433.475 602.042 433.475 600.644H434.975ZM434.975 386.773L434.975 600.644L433.475 600.644L433.475 386.773L434.975 386.773Z" fill="#060606"/>
</mask>
<g mask="url(#mask5_3760_42048)">
<path d="M371.898 416.244C371.898 413.122 369.707 409.327 367.004 407.766L308.953 374.25C306.249 372.689 304.058 373.955 304.058 377.076L304.058 602.095C304.058 605.217 306.249 609.012 308.953 610.573L367.003 644.089C369.707 645.65 371.898 644.384 371.898 641.263L371.898 416.244Z" fill="#939393"/>
</g>
<path d="M429.33 383.947L429.705 384.596L429.33 383.947ZM434.225 386.773L433.475 386.773L434.225 386.773ZM371.423 417.379L371.798 418.029L371.798 418.029L371.423 417.379ZM368.863 419.691L369.455 420.151L368.92 420.84L368.319 420.208L368.863 419.691ZM367.004 418.196L367.379 417.546L367.379 417.546L367.004 418.196ZM308.953 384.68L309.328 384.031L309.328 384.031L308.953 384.68ZM304.058 387.506L304.808 387.506V387.506L304.058 387.506ZM304.058 602.095L303.308 602.095V602.095L304.058 602.095ZM308.953 610.573L308.578 611.223L308.578 611.223L308.953 610.573ZM367.004 644.089L366.629 644.738L366.629 644.738L367.004 644.089ZM371.801 642.336L371.065 642.192L371.13 641.857L371.426 641.687L371.801 642.336ZM429.33 609.122L428.955 608.472L428.955 608.472L429.33 609.122ZM434.225 600.644L434.975 600.644V600.644H434.225ZM428.955 383.297C430.443 382.438 431.966 382.262 433.166 382.954C434.366 383.647 434.975 385.054 434.975 386.773L433.475 386.773C433.475 385.37 432.988 384.584 432.416 384.254C431.844 383.923 430.92 383.895 429.705 384.596L428.955 383.297ZM371.048 416.73L428.955 383.297L429.705 384.596L371.798 418.029L371.048 416.73ZM368.27 419.231C369.061 418.213 370.008 417.33 371.048 416.73L371.798 418.029C370.96 418.512 370.154 419.252 369.455 420.151L368.27 419.231ZM368.319 420.208C367.787 419.648 367.214 419.183 366.629 418.845L367.379 417.546C368.109 417.968 368.792 418.529 369.406 419.174L368.319 420.208ZM366.629 418.845L308.578 385.33L309.328 384.031L367.379 417.546L366.629 418.845ZM308.578 385.33C307.363 384.628 306.439 384.657 305.867 384.987C305.295 385.317 304.808 386.103 304.808 387.506H303.308C303.308 385.788 303.917 384.38 305.117 383.688C306.316 382.995 307.839 383.171 309.328 384.031L308.578 385.33ZM304.808 387.506L304.808 602.095L303.308 602.095L303.308 387.506L304.808 387.506ZM304.808 602.095C304.808 603.493 305.304 605.094 306.141 606.544C306.978 607.995 308.117 609.224 309.328 609.924L308.578 611.223C307.085 610.361 305.776 608.912 304.842 607.294C303.908 605.676 303.308 603.818 303.308 602.095H304.808ZM309.328 609.924L367.379 643.439L366.629 644.738L308.578 611.223L309.328 609.924ZM367.379 643.439C368.442 644.053 369.287 644.107 369.856 643.893C370.402 643.687 370.875 643.163 371.065 642.192L372.537 642.48C372.273 643.828 371.532 644.864 370.385 645.296C369.26 645.721 367.934 645.492 366.629 644.738L367.379 643.439ZM429.705 609.771L372.176 642.986L371.426 641.687L428.955 608.472L429.705 609.771ZM434.975 600.644C434.975 602.367 434.375 604.225 433.44 605.843C432.506 607.461 431.197 608.91 429.705 609.771L428.955 608.472C430.166 607.773 431.304 606.544 432.141 605.093C432.979 603.643 433.475 602.042 433.475 600.644H434.975ZM434.975 386.773L434.975 600.644L433.475 600.644L433.475 386.773L434.975 386.773Z" fill="#060606"/>
<rect x="4.47035e-08" y="0.75" width="82.1523" height="82.5547" rx="12.8152" transform="matrix(-0.866025 0.5 0.866025 0.5 368.252 344.892)" fill="#060606" stroke="#060606" stroke-width="1.5"/>
<path fill-rule="evenodd" clip-rule="evenodd" d="M388.302 374.033C398.349 379.833 398.349 389.237 388.302 395.038C378.255 400.838 361.967 400.838 351.92 395.038C341.874 389.237 341.874 379.833 351.92 374.033C361.967 368.232 378.255 368.232 388.302 374.033ZM372.195 391.691L368.665 393.729C367.923 394.157 367.557 394.369 367.191 394.415C366.793 394.464 366.386 394.4 366.082 394.245C365.805 394.101 365.667 393.809 365.389 393.226L358.742 379.322C358.46 378.732 358.322 378.435 358.438 378.228C358.563 378.007 358.867 377.831 359.251 377.759C359.609 377.692 360.123 377.772 361.146 377.934L366.066 378.706L366.091 378.71C367.192 378.883 367.75 378.97 368.211 379.134C368.716 379.312 369.145 379.56 369.453 379.851C369.739 380.12 369.896 380.442 370.2 381.087L373.715 388.404L373.724 388.423C374.026 389.063 374.18 389.387 374.166 389.707C374.153 390.055 373.996 390.393 373.71 390.697C373.442 390.971 373.027 391.211 372.195 391.691ZM381.111 386.543L386.169 383.623C386.916 383.192 387.291 382.975 387.367 382.761C387.452 382.532 387.34 382.292 387.068 382.119C386.826 381.964 386.337 381.889 385.38 381.742C385.347 381.737 385.314 381.732 385.28 381.727L378.412 380.687L378.334 380.675C377.376 380.533 376.892 380.461 376.544 380.527C376.159 380.599 375.86 380.772 375.735 380.994C375.623 381.198 375.753 381.489 376.021 382.072L377.831 386.033L377.837 386.046C378.105 386.628 378.24 386.919 378.514 387.062C378.818 387.217 379.229 387.284 379.627 387.235C379.989 387.191 380.364 386.974 381.111 386.543Z" fill="white"/>
<path fill-rule="evenodd" clip-rule="evenodd" d="M564.421 292.212C564.421 289.091 562.229 287.826 559.526 289.386L501.619 322.819C500.681 323.361 499.804 324.172 499.059 325.131C498.486 324.528 497.858 324.015 497.2 323.635L439.149 290.12C436.446 288.559 434.254 289.824 434.254 292.946L434.254 507.534C434.254 510.656 436.446 514.452 439.149 516.012L497.2 549.528C499.568 550.895 501.543 550.094 501.997 547.776L559.526 514.561C562.229 513.001 564.421 509.205 564.421 506.083L564.421 292.212Z" fill="#E7E7E7"/>
<path d="M559.526 289.386L559.901 290.036L559.526 289.386ZM564.421 292.212L563.671 292.212L564.421 292.212ZM501.619 322.819L501.244 322.169L501.244 322.169L501.619 322.819ZM499.059 325.131L499.651 325.591L499.116 326.279L498.515 325.647L499.059 325.131ZM497.2 323.635L497.575 322.986L497.575 322.986L497.2 323.635ZM439.149 290.12L439.524 289.47L439.524 289.47L439.149 290.12ZM434.254 292.946L435.004 292.946V292.946L434.254 292.946ZM434.254 507.534L433.504 507.534V507.534L434.254 507.534ZM439.149 516.012L438.774 516.662L438.774 516.662L439.149 516.012ZM497.2 549.528L496.825 550.178L496.825 550.178L497.2 549.528ZM501.997 547.776L501.261 547.632L501.326 547.297L501.622 547.126L501.997 547.776ZM559.526 514.561L559.151 513.912L559.151 513.912L559.526 514.561ZM564.421 506.083L565.171 506.083V506.083H564.421ZM559.151 288.737C560.639 287.878 562.163 287.701 563.362 288.394C564.562 289.087 565.171 290.494 565.171 292.212L563.671 292.212C563.671 290.809 563.184 290.023 562.612 289.693C562.04 289.363 561.116 289.334 559.901 290.036L559.151 288.737ZM501.244 322.169L559.151 288.737L559.901 290.036L501.994 323.468L501.244 322.169ZM498.467 324.67C499.257 323.653 500.204 322.77 501.244 322.169L501.994 323.468C501.157 323.952 500.35 324.691 499.651 325.591L498.467 324.67ZM498.515 325.647C497.983 325.087 497.411 324.623 496.825 324.285L497.575 322.986C498.305 323.407 498.989 323.968 499.603 324.614L498.515 325.647ZM496.825 324.285L438.774 290.769L439.524 289.47L497.575 322.986L496.825 324.285ZM438.774 290.769C437.559 290.068 436.635 290.096 436.063 290.426C435.491 290.756 435.004 291.543 435.004 292.946H433.504C433.504 291.227 434.113 289.82 435.313 289.127C436.512 288.435 438.036 288.611 439.524 289.47L438.774 290.769ZM435.004 292.946L435.004 507.534L433.504 507.534L433.504 292.946L435.004 292.946ZM435.004 507.534C435.004 508.932 435.5 510.533 436.337 511.984C437.175 513.434 438.313 514.664 439.524 515.363L438.774 516.662C437.282 515.8 435.972 514.352 435.038 512.734C434.104 511.116 433.504 509.258 433.504 507.534H435.004ZM439.524 515.363L497.575 548.879L496.825 550.178L438.774 516.662L439.524 515.363ZM497.575 548.879C498.638 549.492 499.484 549.546 500.052 549.332C500.598 549.126 501.071 548.602 501.261 547.632L502.733 547.92C502.469 549.268 501.728 550.303 500.581 550.736C499.456 551.16 498.13 550.931 496.825 550.178L497.575 548.879ZM559.901 515.211L502.372 548.425L501.622 547.126L559.151 513.912L559.901 515.211ZM565.171 506.083C565.171 507.807 564.571 509.664 563.637 511.283C562.703 512.901 561.394 514.349 559.901 515.211L559.151 513.912C560.362 513.213 561.5 511.983 562.338 510.533C563.175 509.082 563.671 507.481 563.671 506.083H565.171ZM565.171 292.212L565.171 506.083L563.671 506.083L563.671 292.212L565.171 292.212Z" fill="#060606"/>
<mask id="mask6_3760_42048" style="mask-type:alpha" maskUnits="userSpaceOnUse" x="433" y="287" width="133" height="264">
<path fill-rule="evenodd" clip-rule="evenodd" d="M564.421 292.212C564.421 289.091 562.229 287.826 559.526 289.386L501.619 322.819C500.681 323.361 499.804 324.172 499.059 325.131C498.486 324.528 497.858 324.015 497.2 323.635L439.149 290.12C436.446 288.559 434.254 289.824 434.254 292.946L434.254 507.534C434.254 510.656 436.446 514.452 439.149 516.012L497.2 549.528C499.568 550.895 501.543 550.094 501.997 547.776L559.526 514.561C562.229 513.001 564.421 509.205 564.421 506.083L564.421 292.212Z" fill="#E7E7E7"/>
<path d="M559.526 289.386L559.901 290.036L559.526 289.386ZM564.421 292.212L563.671 292.212L564.421 292.212ZM501.619 322.819L501.244 322.169L501.244 322.169L501.619 322.819ZM499.059 325.131L499.651 325.591L499.116 326.279L498.515 325.647L499.059 325.131ZM497.2 323.635L497.575 322.986L497.575 322.986L497.2 323.635ZM439.149 290.12L439.524 289.47L439.524 289.47L439.149 290.12ZM434.254 292.946L435.004 292.946V292.946L434.254 292.946ZM434.254 507.534L433.504 507.534V507.534L434.254 507.534ZM439.149 516.012L438.774 516.662L438.774 516.662L439.149 516.012ZM497.2 549.528L496.825 550.178L496.825 550.178L497.2 549.528ZM501.997 547.776L501.261 547.632L501.326 547.297L501.622 547.126L501.997 547.776ZM559.526 514.561L559.151 513.912L559.151 513.912L559.526 514.561ZM564.421 506.083L565.171 506.083V506.083H564.421ZM559.151 288.737C560.639 287.878 562.163 287.701 563.362 288.394C564.562 289.087 565.171 290.494 565.171 292.212L563.671 292.212C563.671 290.809 563.184 290.023 562.612 289.693C562.04 289.363 561.116 289.334 559.901 290.036L559.151 288.737ZM501.244 322.169L559.151 288.737L559.901 290.036L501.994 323.468L501.244 322.169ZM498.467 324.67C499.257 323.653 500.204 322.77 501.244 322.169L501.994 323.468C501.157 323.952 500.35 324.691 499.651 325.591L498.467 324.67ZM498.515 325.647C497.983 325.087 497.411 324.623 496.825 324.285L497.575 322.986C498.305 323.407 498.989 323.968 499.603 324.614L498.515 325.647ZM496.825 324.285L438.774 290.769L439.524 289.47L497.575 322.986L496.825 324.285ZM438.774 290.769C437.559 290.068 436.635 290.096 436.063 290.426C435.491 290.756 435.004 291.543 435.004 292.946H433.504C433.504 291.227 434.113 289.82 435.313 289.127C436.512 288.435 438.036 288.611 439.524 289.47L438.774 290.769ZM435.004 292.946L435.004 507.534L433.504 507.534L433.504 292.946L435.004 292.946ZM435.004 507.534C435.004 508.932 435.5 510.533 436.337 511.984C437.175 513.434 438.313 514.664 439.524 515.363L438.774 516.662C437.282 515.8 435.972 514.352 435.038 512.734C434.104 511.116 433.504 509.258 433.504 507.534H435.004ZM439.524 515.363L497.575 548.879L496.825 550.178L438.774 516.662L439.524 515.363ZM497.575 548.879C498.638 549.492 499.484 549.546 500.052 549.332C500.598 549.126 501.071 548.602 501.261 547.632L502.733 547.92C502.469 549.268 501.728 550.303 500.581 550.736C499.456 551.16 498.13 550.931 496.825 550.178L497.575 548.879ZM559.901 515.211L502.372 548.425L501.622 547.126L559.151 513.912L559.901 515.211ZM565.171 506.083C565.171 507.807 564.571 509.664 563.637 511.283C562.703 512.901 561.394 514.349 559.901 515.211L559.151 513.912C560.362 513.213 561.5 511.983 562.338 510.533C563.175 509.082 563.671 507.481 563.671 506.083H565.171ZM565.171 292.212L565.171 506.083L563.671 506.083L563.671 292.212L565.171 292.212Z" fill="#060606"/>
</mask>
<g mask="url(#mask6_3760_42048)">
<path d="M502.095 326.127C502.095 323.005 499.903 319.209 497.2 317.649L439.149 284.133C436.446 282.572 434.254 283.837 434.254 286.959L434.254 507.535C434.254 510.657 436.446 514.453 439.149 516.013L497.2 549.529C499.903 551.09 502.095 549.825 502.095 546.703L502.095 326.127Z" fill="#939393"/>
</g>
<path d="M559.526 289.386L559.901 290.036L559.526 289.386ZM564.421 292.212L563.671 292.212L564.421 292.212ZM501.619 322.819L501.244 322.169L501.244 322.169L501.619 322.819ZM499.059 325.131L499.651 325.591L499.116 326.279L498.515 325.647L499.059 325.131ZM497.2 323.635L497.575 322.986L497.575 322.986L497.2 323.635ZM439.149 290.12L439.524 289.47L439.524 289.47L439.149 290.12ZM434.254 292.946L435.004 292.946V292.946L434.254 292.946ZM434.254 507.534L433.504 507.534V507.534L434.254 507.534ZM439.149 516.012L438.774 516.662L438.774 516.662L439.149 516.012ZM497.2 549.528L496.825 550.178L496.825 550.178L497.2 549.528ZM501.997 547.776L501.261 547.632L501.326 547.297L501.622 547.126L501.997 547.776ZM559.526 514.561L559.151 513.912L559.151 513.912L559.526 514.561ZM564.421 506.083L565.171 506.083V506.083H564.421ZM559.151 288.737C560.639 287.878 562.163 287.701 563.362 288.394C564.562 289.087 565.171 290.494 565.171 292.212L563.671 292.212C563.671 290.809 563.184 290.023 562.612 289.693C562.04 289.363 561.116 289.334 559.901 290.036L559.151 288.737ZM501.244 322.169L559.151 288.737L559.901 290.036L501.994 323.468L501.244 322.169ZM498.467 324.67C499.257 323.653 500.204 322.77 501.244 322.169L501.994 323.468C501.157 323.952 500.35 324.691 499.651 325.591L498.467 324.67ZM498.515 325.647C497.983 325.087 497.411 324.623 496.825 324.285L497.575 322.986C498.305 323.407 498.989 323.968 499.603 324.614L498.515 325.647ZM496.825 324.285L438.774 290.769L439.524 289.47L497.575 322.986L496.825 324.285ZM438.774 290.769C437.559 290.068 436.635 290.096 436.063 290.426C435.491 290.756 435.004 291.543 435.004 292.946H433.504C433.504 291.227 434.113 289.82 435.313 289.127C436.512 288.435 438.036 288.611 439.524 289.47L438.774 290.769ZM435.004 292.946L435.004 507.534L433.504 507.534L433.504 292.946L435.004 292.946ZM435.004 507.534C435.004 508.932 435.5 510.533 436.337 511.984C437.175 513.434 438.313 514.664 439.524 515.363L438.774 516.662C437.282 515.8 435.972 514.352 435.038 512.734C434.104 511.116 433.504 509.258 433.504 507.534H435.004ZM439.524 515.363L497.575 548.879L496.825 550.178L438.774 516.662L439.524 515.363ZM497.575 548.879C498.638 549.492 499.484 549.546 500.052 549.332C500.598 549.126 501.071 548.602 501.261 547.632L502.733 547.92C502.469 549.268 501.728 550.303 500.581 550.736C499.456 551.16 498.13 550.931 496.825 550.178L497.575 548.879ZM559.901 515.211L502.372 548.425L501.622 547.126L559.151 513.912L559.901 515.211ZM565.171 506.083C565.171 507.807 564.571 509.664 563.637 511.283C562.703 512.901 561.394 514.349 559.901 515.211L559.151 513.912C560.362 513.213 561.5 511.983 562.338 510.533C563.175 509.082 563.671 507.481 563.671 506.083H565.171ZM565.171 292.212L565.171 506.083L563.671 506.083L563.671 292.212L565.171 292.212Z" fill="#060606"/>
<rect x="4.47035e-08" y="0.75" width="82.1523" height="82.5547" rx="12.8152" transform="matrix(-0.866025 0.5 0.866025 0.5 498.449 250.331)" fill="#060606" stroke="#060606" stroke-width="1.5"/>
<path d="M493.649 302.441C493.652 302.178 493.835 301.92 494.169 301.727L524.461 284.239C525.014 283.919 525.951 284.14 525.946 284.589L525.873 291.457C525.87 291.72 525.687 291.978 525.353 292.17L495.062 309.659C494.508 309.979 493.572 309.758 493.576 309.309L493.649 302.441Z" fill="white"/>
<path d="M471.613 289.719C471.626 289.45 471.809 289.192 472.133 289.005L502.424 271.516C502.978 271.196 503.915 271.418 503.91 271.867L503.837 278.734C503.834 278.997 503.651 279.255 503.317 279.448L473.026 296.937C472.472 297.256 471.535 297.035 471.54 296.586L471.613 289.719Z" fill="white"/>
<path d="M508.202 281.253C507.746 281.255 507.299 281.361 506.965 281.553L476.674 299.042C476.12 299.362 476.504 299.902 477.281 299.9L489.176 299.858C489.631 299.856 490.078 299.75 490.412 299.557L520.704 282.069C521.257 281.749 520.874 281.208 520.096 281.211L508.202 281.253Z" fill="white"/>
</g>
<path d="M38.9575 302.939C18.4083 291.075 18.4084 271.839 38.9575 259.975L284.091 118.447C298.531 110.111 321.943 110.111 336.383 118.447L860.137 420.837C877.354 430.777 877.353 446.893 860.137 456.833L608.97 601.845C594.53 610.182 571.118 610.182 556.678 601.845L38.9575 302.939Z" stroke="#060606" stroke-width="1.5"/>
<path d="M62.3146 275.669C62.9765 275.287 63.7241 275.034 64.5574 274.911C65.3953 274.786 66.2447 274.795 67.1057 274.939C67.9621 275.081 68.7537 275.362 69.4805 275.781L72.383 277.457C73.1699 277.911 73.6977 278.392 73.9661 278.9C74.23 279.405 74.2393 279.908 73.9939 280.408C73.7439 280.905 73.244 281.37 72.4941 281.803C72.008 282.083 71.4733 282.309 70.8901 282.48C70.3068 282.646 69.661 282.738 68.9528 282.757L68.9528 281.201C69.2861 281.201 69.6078 281.165 69.9179 281.093C70.2327 281.018 70.5035 280.915 70.7304 280.784C71.0914 280.576 71.3206 280.347 71.4178 280.099C71.515 279.845 71.5011 279.599 71.3761 279.361C71.2511 279.118 71.0359 278.908 70.7304 278.732L69.2444 277.874L69.911 277.89C69.9203 278.221 69.8138 278.542 69.5916 278.852C69.3648 279.159 69.05 279.429 68.6472 279.662C68.0177 280.025 67.321 280.265 66.5572 280.379C65.798 280.492 65.0365 280.485 64.2727 280.359C63.5135 280.231 62.8191 279.985 62.1896 279.622C61.56 279.258 61.1526 278.839 60.9675 278.363C60.7777 277.885 60.7985 277.407 61.03 276.932C61.2568 276.453 61.685 276.032 62.3146 275.669ZM64.1199 276.711C63.8329 276.877 63.6385 277.069 63.5367 277.289C63.4394 277.505 63.4371 277.723 63.5297 277.942C63.6269 278.159 63.819 278.35 64.106 278.515C64.393 278.681 64.7263 278.793 65.1059 278.852C65.4809 278.908 65.8582 278.91 66.2378 278.856C66.6127 278.8 66.9437 278.689 67.2307 278.523C67.5177 278.358 67.7098 278.167 67.8071 277.95C67.9043 277.728 67.9043 277.509 67.8071 277.293C67.7098 277.071 67.5177 276.877 67.2307 276.711C66.953 276.551 66.6266 276.443 66.2517 276.387C65.8767 276.33 65.4994 276.329 65.1198 276.383C64.7402 276.436 64.4069 276.546 64.1199 276.711ZM77.3279 277.809L75.4392 276.719L77.3279 275.628L79.2166 276.719L77.3279 277.809ZM73.3977 275.524L71.509 274.434L73.3977 273.343L75.2864 274.434L73.3977 275.524ZM86.3051 273.588L84.7497 272.69L80.4029 275.2L78.6392 274.182L75.1118 268.505L77.2782 267.254L80.8056 272.931L82.986 271.672L80.4862 270.229L82.4027 269.122L84.9024 270.566L85.7912 270.052L87.5549 271.071L86.6661 271.584L88.2215 272.482L86.3051 273.588ZM92.1827 270.195L84.2391 265.609L83.5169 267.357L81.4338 266.154L82.1837 264.422L84.1141 263.307L94.1131 269.08L92.1827 270.195Z" fill="#060606"/>
<path opacity="0.35" d="M296.321 139.847L310.209 131.829C311.655 130.994 313.999 130.994 315.445 131.829L319.53 134.187C320.976 135.022 320.976 136.375 319.53 137.21L305.642 145.228C304.196 146.063 301.852 146.063 300.406 145.228L296.321 142.87C294.876 142.035 294.876 140.682 296.321 139.847Z" stroke="#060606" stroke-width="1.5"/>
<path opacity="0.4" d="M317.728 131.454L321.175 133.445C321.577 132.876 321.349 132.223 320.596 131.788C319.843 131.354 318.713 131.222 317.728 131.454" fill="#060606"/>
<path d="M297.307 142.302C296.404 141.781 296.404 140.936 297.307 140.415L311.194 132.397C312.096 131.876 313.559 131.876 314.462 132.397L318.546 134.755C319.449 135.276 319.449 136.121 318.546 136.642L304.659 144.66C303.757 145.181 302.294 145.181 301.391 144.66L297.307 142.302Z" fill="#060606"/>
<path fill-rule="evenodd" clip-rule="evenodd" d="M282.672 150.364C284.687 149.2 287.415 148.538 290.293 148.513C290.512 148.512 290.687 148.41 290.684 148.283L290.652 147.051C290.651 146.987 290.605 146.925 290.525 146.88C290.445 146.834 290.338 146.809 290.226 146.808C282.644 146.857 276.597 150.348 276.514 154.725C276.514 154.79 276.558 154.852 276.637 154.898C276.716 154.944 276.823 154.97 276.934 154.971L279.069 154.989C279.288 154.991 279.466 154.89 279.466 154.764C279.509 153.102 280.657 151.527 282.672 150.364ZM286.039 152.274C287.146 151.634 288.633 151.261 290.212 151.225C290.431 151.223 290.604 151.12 290.601 150.994L290.568 149.763C290.567 149.698 290.52 149.636 290.439 149.59C290.359 149.544 290.25 149.519 290.138 149.519C285.266 149.592 281.396 151.826 281.27 154.639C281.269 154.704 281.313 154.767 281.393 154.813C281.472 154.86 281.58 154.887 281.692 154.887L283.825 154.907C284.043 154.908 284.221 154.808 284.224 154.682C284.286 153.771 284.933 152.913 286.039 152.274ZM290.355 152.298C290.436 152.344 290.483 152.406 290.483 152.471L290.538 154.6C290.539 154.663 290.498 154.722 290.422 154.766C290.346 154.81 290.243 154.834 290.135 154.833L286.447 154.801C286.335 154.801 286.226 154.774 286.148 154.727C286.069 154.68 286.027 154.616 286.032 154.551C286.19 153.304 287.889 152.323 290.05 152.231C290.163 152.229 290.273 152.253 290.355 152.298Z" fill="#060606"/>
<path d="M262.997 162.111C262.546 161.85 262.546 161.428 262.997 161.167L263.814 160.696C264.265 160.435 264.996 160.435 265.448 160.696L271.983 164.469C272.434 164.729 272.434 165.152 271.983 165.412L271.166 165.884C270.715 166.144 269.983 166.144 269.532 165.884L262.997 162.111Z" fill="#060606"/>
<path d="M265.448 158.809C264.996 158.549 264.996 158.126 265.448 157.866L266.264 157.394C266.716 157.134 267.447 157.134 267.898 157.394L276.067 162.111C276.519 162.371 276.519 162.793 276.067 163.054L275.25 163.526C274.799 163.786 274.068 163.786 273.617 163.526L265.448 158.809Z" fill="#060606"/>
<path d="M261.771 166.12C261.32 165.859 261.32 165.437 261.771 165.176L262.588 164.705C263.039 164.444 263.771 164.444 264.222 164.705L267.898 166.827C268.349 167.088 268.349 167.51 267.898 167.77L267.081 168.242C266.63 168.502 265.899 168.502 265.448 168.242L261.771 166.12Z" fill="#060606"/>
<path d="M259.729 169.657C259.278 169.396 259.278 168.974 259.729 168.714L260.546 168.242C260.997 167.981 261.729 167.981 262.18 168.242L263.814 169.185C264.265 169.446 264.265 169.868 263.814 170.129L262.997 170.6C262.546 170.861 261.814 170.861 261.363 170.6L259.729 169.657Z" fill="#060606"/>
<rect width="72.8655" height="22.1772" rx="11.0886" transform="matrix(0.866025 -0.5 0.866025 0.5 150.34 220.196)" fill="#060606"/>
<circle r="5.27538" transform="matrix(0.866025 -0.5 0.866025 0.5 169.555 219.262)" fill="white"/>
<rect x="4.47035e-08" y="0.75" width="100.061" height="100.549" rx="12.8152" transform="matrix(-0.866025 0.5 0.866025 0.5 368.216 209.695)" fill="#71A407" stroke="#060606" stroke-width="1.5"/>
<rect opacity="0.4" width="101.561" height="102.049" rx="13.5652" transform="matrix(-0.866025 0.5 0.866025 0.5 368.865 221.5)" fill="#060606"/>
<rect x="4.47035e-08" y="0.75" width="100.061" height="100.549" rx="12.8152" transform="matrix(-0.866025 0.5 0.866025 0.5 368.216 209.695)" fill="#B0F127" stroke="#060606" stroke-width="1.5"/>
<ellipse opacity="0.4" rx="44.2038" ry="26.8435" transform="matrix(0.866025 0.5 -0.866025 0.5 363.279 252.871)" fill="#060606"/>
<path fill-rule="evenodd" clip-rule="evenodd" d="M401.286 259.319C410.52 251.948 416.081 238.776 416.081 220.894C416.081 180.525 387.74 131.437 352.779 111.252C334.375 100.626 317.806 100.129 306.239 107.93L306.237 107.927L306.129 108.004C305.75 108.263 305.376 108.53 305.008 108.806L293.969 116.696L295.772 119.62C291.739 126.909 289.478 136.397 289.478 147.799C289.478 188.168 317.819 237.257 352.779 257.441C364.917 264.449 376.257 267.052 385.89 265.773L387.856 268.961L401.322 259.376L401.286 259.319Z" fill="#B0F127"/>
<path d="M401.286 259.319L400.818 258.733L400.295 259.151L400.651 259.718L401.286 259.319ZM352.779 111.252L352.404 111.902L352.404 111.902L352.779 111.252ZM306.239 107.93L305.604 108.328L306.016 108.985L306.658 108.552L306.239 107.93ZM306.237 107.927L306.873 107.528L306.449 106.854L305.801 107.317L306.237 107.927ZM306.129 108.004L306.551 108.624L306.558 108.62L306.565 108.615L306.129 108.004ZM305.008 108.806L305.444 109.416L305.451 109.411L305.458 109.406L305.008 108.806ZM293.969 116.696L293.533 116.086L292.963 116.493L293.33 117.089L293.969 116.696ZM295.772 119.62L296.428 119.983L296.64 119.599L296.41 119.226L295.772 119.62ZM352.779 257.441L353.154 256.792L353.154 256.792L352.779 257.441ZM385.89 265.773L386.529 265.38L386.274 264.966L385.792 265.03L385.89 265.773ZM387.856 268.961L387.218 269.355L387.638 270.037L388.291 269.573L387.856 268.961ZM401.322 259.376L401.757 259.987L402.333 259.577L401.957 258.978L401.322 259.376ZM415.331 220.894C415.331 238.635 409.816 251.551 400.818 258.733L401.754 259.905C411.225 252.345 416.831 238.918 416.831 220.894H415.331ZM352.404 111.902C369.744 121.912 385.484 139.121 396.891 158.879C408.298 178.636 415.331 200.872 415.331 220.894H416.831C416.831 200.547 409.694 178.054 398.19 158.129C386.686 138.204 370.776 120.776 353.154 110.602L352.404 111.902ZM306.658 108.552C317.901 100.969 334.144 101.359 352.404 111.902L353.154 110.602C334.607 99.8939 317.71 99.2887 305.82 107.308L306.658 108.552ZM306.874 107.531L306.873 107.528L305.602 108.326L305.604 108.328L306.874 107.531ZM305.801 107.317L305.693 107.394L306.565 108.615L306.673 108.537L305.801 107.317ZM305.458 109.406C305.817 109.137 306.181 108.876 306.551 108.624L305.707 107.384C305.318 107.649 304.935 107.923 304.558 108.206L305.458 109.406ZM304.572 108.196L293.533 116.086L294.405 117.306L305.444 109.416L304.572 108.196ZM293.33 117.089L295.133 120.013L296.41 119.226L294.607 116.302L293.33 117.089ZM290.228 147.799C290.228 136.492 292.47 127.136 296.428 119.983L295.115 119.257C291.007 126.682 288.728 136.302 288.728 147.799H290.228ZM353.154 256.792C335.815 246.781 320.075 229.572 308.668 209.815C297.261 190.057 290.228 167.821 290.228 147.799H288.728C288.728 168.146 295.865 190.639 307.369 210.565C318.872 230.49 334.783 247.917 352.404 258.091L353.154 256.792ZM385.792 265.03C376.367 266.28 365.193 263.742 353.154 256.792L352.404 258.091C364.641 265.156 376.148 267.823 385.989 266.517L385.792 265.03ZM385.252 266.167L387.218 269.355L388.494 268.568L386.529 265.38L385.252 266.167ZM388.291 269.573L401.757 259.987L400.887 258.765L387.421 268.35L388.291 269.573ZM401.957 258.978L401.921 258.92L400.651 259.718L400.687 259.775L401.957 258.978Z" fill="#060606"/>
<mask id="mask7_3760_42048" style="mask-type:alpha" maskUnits="userSpaceOnUse" x="288" y="101" width="129" height="170">
<path fill-rule="evenodd" clip-rule="evenodd" d="M401.286 259.302C410.52 251.931 416.081 238.76 416.081 220.877C416.081 180.508 387.74 131.42 352.779 111.235C334.375 100.61 317.806 100.112 306.239 107.913L306.237 107.91L306.129 107.988C305.75 108.246 305.376 108.513 305.008 108.789L293.969 116.679L295.772 119.603C291.739 126.892 289.478 136.38 289.478 147.783C289.478 188.152 317.819 237.24 352.779 257.425C364.917 264.433 376.257 267.035 385.89 265.757L387.856 268.945L401.322 259.36L401.286 259.302Z" fill="#B0F127"/>
<path d="M401.286 259.302L400.818 258.716L400.295 259.134L400.651 259.701L401.286 259.302ZM352.779 111.235L352.404 111.885L352.404 111.885L352.779 111.235ZM306.239 107.913L305.604 108.312L306.016 108.968L306.658 108.535L306.239 107.913ZM306.237 107.91L306.873 107.512L306.449 106.837L305.801 107.3L306.237 107.91ZM306.129 107.988L306.551 108.608L306.558 108.603L306.565 108.598L306.129 107.988ZM305.008 108.789L305.444 109.399L305.451 109.394L305.458 109.389L305.008 108.789ZM293.969 116.679L293.533 116.069L292.963 116.476L293.33 117.073L293.969 116.679ZM295.772 119.603L296.428 119.966L296.64 119.583L296.41 119.209L295.772 119.603ZM352.779 257.425L353.154 256.775L353.154 256.775L352.779 257.425ZM385.89 265.757L386.529 265.363L386.274 264.949L385.792 265.013L385.89 265.757ZM387.856 268.945L387.218 269.339L387.638 270.021L388.291 269.556L387.856 268.945ZM401.322 259.36L401.757 259.971L402.333 259.56L401.957 258.961L401.322 259.36ZM415.331 220.877C415.331 238.618 409.816 251.534 400.818 258.716L401.754 259.889C411.225 252.329 416.831 238.901 416.831 220.877H415.331ZM352.404 111.885C369.744 121.896 385.484 139.105 396.891 158.862C408.298 178.62 415.331 200.855 415.331 220.877H416.831C416.831 200.53 409.694 178.037 398.19 158.112C386.686 138.187 370.776 120.759 353.154 110.586L352.404 111.885ZM306.658 108.535C317.901 100.952 334.144 101.342 352.404 111.885L353.154 110.586C334.607 99.8773 317.71 99.2721 305.82 107.291L306.658 108.535ZM306.874 107.514L306.873 107.512L305.602 108.309L305.604 108.312L306.874 107.514ZM305.801 107.3L305.693 107.378L306.565 108.598L306.673 108.521L305.801 107.3ZM305.458 109.389C305.817 109.12 306.181 108.86 306.551 108.608L305.707 107.368C305.318 107.632 304.935 107.906 304.558 108.189L305.458 109.389ZM304.572 108.179L293.533 116.069L294.405 117.289L305.444 109.399L304.572 108.179ZM293.33 117.073L295.133 119.997L296.41 119.209L294.607 116.286L293.33 117.073ZM290.228 147.783C290.228 136.475 292.47 127.119 296.428 119.966L295.115 119.24C291.007 126.666 288.728 136.285 288.728 147.783H290.228ZM353.154 256.775C335.815 246.764 320.075 229.555 308.668 209.798C297.261 190.04 290.228 167.805 290.228 147.783H288.728C288.728 168.13 295.865 190.623 307.369 210.548C318.872 230.473 334.783 247.901 352.404 258.074L353.154 256.775ZM385.792 265.013C376.367 266.264 365.193 263.726 353.154 256.775L352.404 258.074C364.641 265.139 376.148 267.806 385.989 266.5L385.792 265.013ZM385.252 266.15L387.218 269.339L388.494 268.551L386.529 265.363L385.252 266.15ZM388.291 269.556L401.757 259.971L400.887 258.749L387.421 268.334L388.291 269.556ZM401.957 258.961L401.921 258.904L400.651 259.701L400.687 259.759L401.957 258.961Z" fill="#060606"/>
</mask>
<g mask="url(#mask7_3760_42048)">
<rect width="154.625" height="66.486" transform="matrix(0.866025 -0.5 2.20305e-08 1 357.778 257.856)" fill="#B0F127"/>
</g>
<path d="M401.286 259.319L400.818 258.733L400.295 259.151L400.651 259.718L401.286 259.319ZM352.779 111.252L352.404 111.902L352.404 111.902L352.779 111.252ZM306.239 107.93L305.604 108.328L306.016 108.985L306.658 108.552L306.239 107.93ZM306.237 107.927L306.873 107.528L306.449 106.854L305.801 107.317L306.237 107.927ZM306.129 108.004L306.551 108.624L306.558 108.62L306.565 108.615L306.129 108.004ZM305.008 108.806L305.444 109.416L305.451 109.411L305.458 109.406L305.008 108.806ZM293.969 116.696L293.533 116.086L292.963 116.493L293.33 117.089L293.969 116.696ZM295.772 119.62L296.428 119.983L296.64 119.599L296.41 119.226L295.772 119.62ZM352.779 257.441L353.154 256.792L353.154 256.792L352.779 257.441ZM385.89 265.773L386.529 265.38L386.274 264.966L385.792 265.03L385.89 265.773ZM387.856 268.961L387.218 269.355L387.638 270.037L388.291 269.573L387.856 268.961ZM401.322 259.376L401.757 259.987L402.333 259.577L401.957 258.978L401.322 259.376ZM415.331 220.894C415.331 238.635 409.816 251.551 400.818 258.733L401.754 259.905C411.225 252.345 416.831 238.918 416.831 220.894H415.331ZM352.404 111.902C369.744 121.912 385.484 139.121 396.891 158.879C408.298 178.636 415.331 200.872 415.331 220.894H416.831C416.831 200.547 409.694 178.054 398.19 158.129C386.686 138.204 370.776 120.776 353.154 110.602L352.404 111.902ZM306.658 108.552C317.901 100.969 334.144 101.359 352.404 111.902L353.154 110.602C334.607 99.8939 317.71 99.2887 305.82 107.308L306.658 108.552ZM306.874 107.531L306.873 107.528L305.602 108.326L305.604 108.328L306.874 107.531ZM305.801 107.317L305.693 107.394L306.565 108.615L306.673 108.537L305.801 107.317ZM305.458 109.406C305.817 109.137 306.181 108.876 306.551 108.624L305.707 107.384C305.318 107.649 304.935 107.923 304.558 108.206L305.458 109.406ZM304.572 108.196L293.533 116.086L294.405 117.306L305.444 109.416L304.572 108.196ZM293.33 117.089L295.133 120.013L296.41 119.226L294.607 116.302L293.33 117.089ZM290.228 147.799C290.228 136.492 292.47 127.136 296.428 119.983L295.115 119.257C291.007 126.682 288.728 136.302 288.728 147.799H290.228ZM353.154 256.792C335.815 246.781 320.075 229.572 308.668 209.815C297.261 190.057 290.228 167.821 290.228 147.799H288.728C288.728 168.146 295.865 190.639 307.369 210.565C318.872 230.49 334.783 247.917 352.404 258.091L353.154 256.792ZM385.792 265.03C376.367 266.28 365.193 263.742 353.154 256.792L352.404 258.091C364.641 265.156 376.148 267.823 385.989 266.517L385.792 265.03ZM385.252 266.167L387.218 269.355L388.494 268.568L386.529 265.38L385.252 266.167ZM388.291 269.573L401.757 259.987L400.887 258.765L387.421 268.35L388.291 269.573ZM401.957 258.978L401.921 258.92L400.651 259.718L400.687 259.775L401.957 258.978Z" fill="#060606"/>
<circle r="73.0947" transform="matrix(0.866025 0.5 -2.20305e-08 1 341.129 192.644)" fill="white" stroke="#060606" stroke-width="1.5"/>
<mask id="mask8_3760_42048" style="mask-type:alpha" maskUnits="userSpaceOnUse" x="277" y="110" width="129" height="166">
<circle r="73.0947" transform="matrix(0.866025 0.5 -2.20305e-08 1 341.13 192.645)" fill="#B0F127" stroke="#060606" stroke-width="1.5"/>
</mask>
<g mask="url(#mask8_3760_42048)">
<rect width="154.625" height="82.9186" transform="matrix(0.866025 0.5 2.20305e-08 -1 273.935 156.325)" fill="white"/>
<circle r="73.0947" transform="matrix(0.866025 0.5 -2.20305e-08 1 341.13 192.646)" stroke="#060606" stroke-width="1.5"/>
<path d="M357.857 220.482L337.109 208.504L340.988 195.639L346.942 197.098L348.205 192.827L342.251 191.473L348.566 170.328L348.566 170.015C348.566 169.286 348.115 168.505 347.483 168.14L339.455 163.505C338.823 163.14 338.282 163.349 338.101 163.974L330.704 188.973L324.751 187.619L323.397 191.733L329.351 193.087L324.029 210.951L355.692 229.232C356.323 229.597 356.865 229.388 357.045 228.867L358.849 222.722L358.849 222.409C358.939 221.628 358.488 220.847 357.857 220.482V220.482Z" fill="#060606"/>
</g>
</g>
</svg>
