<svg width="626" height="443" viewBox="0 0 626 443" fill="none" xmlns="http://www.w3.org/2000/svg">
<path d="M0 0H626V443H0V0Z" fill="#141414"/>
<mask id="mask0_3760_41726" style="mask-type:alpha" maskUnits="userSpaceOnUse" x="0" y="0" width="626" height="443">
<path d="M0 0H626V443H0V0Z" fill="#060606"/>
</mask>
<g mask="url(#mask0_3760_41726)">
<g opacity="0.1">
<path d="M-407.685 248.215L444.484 740.215" stroke="white" stroke-linejoin="round"/>
<path d="M-282.977 176.215L569.192 668.215" stroke="white" stroke-linejoin="round"/>
<path d="M-158.27 104.215L693.899 596.215" stroke="white" stroke-linejoin="round"/>
<path d="M-33.5615 32.2148L818.607 524.215" stroke="white" stroke-linejoin="round"/>
<path d="M91.1465 -39.7852L943.315 452.215" stroke="white" stroke-linejoin="round"/>
<path d="M215.854 -111.785L1068.02 380.215" stroke="white" stroke-linejoin="round"/>
<path d="M444.484 -111.785L-407.685 380.215" stroke="white" stroke-linejoin="round"/>
<path d="M569.192 -39.7852L-282.977 452.215" stroke="white" stroke-linejoin="round"/>
<path d="M693.899 32.2148L-158.27 524.215" stroke="white" stroke-linejoin="round"/>
<path d="M818.607 104.215L-33.5617 596.215" stroke="white" stroke-linejoin="round"/>
<path d="M943.315 176.215L91.1463 668.215" stroke="white" stroke-linejoin="round"/>
<path d="M1068.02 248.215L215.853 740.215" stroke="white" stroke-linejoin="round"/>
</g>
<path fill-rule="evenodd" clip-rule="evenodd" d="M252.268 75.2493V381.147C252.268 393.719 243.442 409.007 232.554 415.293L49.2308 521.135C38.3429 527.421 29.5166 522.325 29.5166 509.753L29.5166 193.171C29.5166 180.599 38.3429 165.312 49.2307 159.025L232.554 53.1835C233.187 52.8181 233.813 52.4912 234.431 52.2019L239.469 49.2934C242.09 47.7798 246.34 47.7798 248.962 49.2934L268.347 60.4853C270.969 61.9989 270.969 64.4528 268.347 65.9663L252.268 75.2493Z" fill="#141414"/>
<path d="M252.268 75.2493L251.881 74.5782L251.493 74.8019V75.2493H252.268ZM232.554 415.293L232.167 414.622L232.167 414.622L232.554 415.293ZM49.2308 521.135L49.6183 521.806L49.6183 521.806L49.2308 521.135ZM29.5166 509.753L28.7416 509.753L29.5166 509.753ZM29.5166 193.171L28.7416 193.171V193.171L29.5166 193.171ZM49.2307 159.025L48.8432 158.354L48.8432 158.354L49.2307 159.025ZM232.554 53.1835L232.942 53.8547L232.942 53.8547L232.554 53.1835ZM234.431 52.2019L234.76 52.9038L234.79 52.8897L234.818 52.8731L234.431 52.2019ZM239.469 49.2934L239.081 48.6222L239.081 48.6222L239.469 49.2934ZM248.962 49.2934L249.35 48.6222L249.35 48.6222L248.962 49.2934ZM268.347 60.4853L267.96 61.1565L267.96 61.1565L268.347 60.4853ZM268.347 65.9663L267.96 65.2952L267.96 65.2952L268.347 65.9663ZM251.493 75.2493V381.147H253.043V75.2493H251.493ZM251.493 381.147C251.493 387.265 249.341 394.097 245.823 400.19C242.306 406.282 237.465 411.563 232.167 414.622L232.942 415.964C238.531 412.737 243.548 407.231 247.166 400.965C250.783 394.699 253.043 387.601 253.043 381.147H251.493ZM232.167 414.622L48.8433 520.464L49.6183 521.806L232.942 415.964L232.167 414.622ZM48.8433 520.464C43.5405 523.525 38.9215 523.717 35.6782 521.845C32.435 519.972 30.2916 515.876 30.2916 509.753L28.7416 509.753C28.7416 516.202 31.0114 520.94 34.9033 523.187C38.7951 525.434 44.0332 525.031 49.6183 521.806L48.8433 520.464ZM30.2916 509.753L30.2916 193.171L28.7416 193.171L28.7416 509.753L30.2916 509.753ZM30.2916 193.171C30.2916 187.053 32.4443 180.221 35.9619 174.129C39.4795 168.036 44.3199 162.756 49.6182 159.697L48.8432 158.354C43.2538 161.581 38.2371 167.088 34.6196 173.354C31.002 179.619 28.7416 186.717 28.7416 193.171H30.2916ZM49.6182 159.697L232.942 53.8547L232.167 52.5123L48.8432 158.354L49.6182 159.697ZM232.942 53.8547C233.557 53.4998 234.163 53.1832 234.76 52.9038L234.102 51.5001C233.464 51.7991 232.818 52.1364 232.167 52.5124L232.942 53.8547ZM234.818 52.8731L239.856 49.9645L239.081 48.6222L234.043 51.5307L234.818 52.8731ZM239.856 49.9645C241.021 49.2918 242.597 48.9332 244.215 48.9332C245.833 48.9332 247.409 49.2918 248.575 49.9645L249.35 48.6222C247.893 47.7814 246.033 47.3832 244.215 47.3832C242.397 47.3832 240.537 47.7814 239.081 48.6222L239.856 49.9645ZM248.575 49.9645L267.96 61.1565L268.735 59.8142L249.35 48.6222L248.575 49.9645ZM267.96 61.1565C269.129 61.8318 269.538 62.6084 269.538 63.2258C269.538 63.8432 269.129 64.6199 267.96 65.2952L268.735 66.6375C270.187 65.7992 271.088 64.5922 271.088 63.2258C271.088 61.8595 270.187 60.6525 268.735 59.8142L267.96 61.1565ZM267.96 65.2952L251.881 74.5782L252.656 75.9205L268.735 66.6375L267.96 65.2952Z" fill="#060606"/>
<mask id="mask1_3760_41726" style="mask-type:alpha" maskUnits="userSpaceOnUse" x="29" y="47" width="229" height="477">
<rect x="0.67117" y="0.3875" width="261.756" height="360.525" rx="21.9889" transform="matrix(0.866025 -0.5 2.20305e-08 1 29.6065 170.778)" fill="white" stroke="#060606" stroke-width="1.55"/>
</mask>
<g mask="url(#mask1_3760_41726)">
<rect width="107.353" height="314.125" transform="matrix(0.866025 0.5 -2.20305e-08 1 -16.6992 152.489)" fill="#060606"/>
</g>
<path d="M252.268 75.2493L251.881 74.5782L251.493 74.8019V75.2493H252.268ZM232.554 415.293L232.167 414.622L232.167 414.622L232.554 415.293ZM49.2308 521.135L49.6183 521.806L49.6183 521.806L49.2308 521.135ZM29.5166 509.753L28.7416 509.753L29.5166 509.753ZM29.5166 193.171L28.7416 193.171V193.171L29.5166 193.171ZM49.2307 159.025L48.8432 158.354L48.8432 158.354L49.2307 159.025ZM232.554 53.1835L232.942 53.8547L232.942 53.8547L232.554 53.1835ZM234.431 52.2019L234.76 52.9038L234.79 52.8897L234.818 52.8731L234.431 52.2019ZM239.469 49.2934L239.081 48.6222L239.081 48.6222L239.469 49.2934ZM248.962 49.2934L249.35 48.6222L249.35 48.6222L248.962 49.2934ZM268.347 60.4853L267.96 61.1565L267.96 61.1565L268.347 60.4853ZM268.347 65.9663L267.96 65.2952L267.96 65.2952L268.347 65.9663ZM251.493 75.2493V381.147H253.043V75.2493H251.493ZM251.493 381.147C251.493 387.265 249.341 394.097 245.823 400.19C242.306 406.282 237.465 411.563 232.167 414.622L232.942 415.964C238.531 412.737 243.548 407.231 247.166 400.965C250.783 394.699 253.043 387.601 253.043 381.147H251.493ZM232.167 414.622L48.8433 520.464L49.6183 521.806L232.942 415.964L232.167 414.622ZM48.8433 520.464C43.5405 523.525 38.9215 523.717 35.6782 521.845C32.435 519.972 30.2916 515.876 30.2916 509.753L28.7416 509.753C28.7416 516.202 31.0114 520.94 34.9033 523.187C38.7951 525.434 44.0332 525.031 49.6183 521.806L48.8433 520.464ZM30.2916 509.753L30.2916 193.171L28.7416 193.171L28.7416 509.753L30.2916 509.753ZM30.2916 193.171C30.2916 187.053 32.4443 180.221 35.9619 174.129C39.4795 168.036 44.3199 162.756 49.6182 159.697L48.8432 158.354C43.2538 161.581 38.2371 167.088 34.6196 173.354C31.002 179.619 28.7416 186.717 28.7416 193.171H30.2916ZM49.6182 159.697L232.942 53.8547L232.167 52.5123L48.8432 158.354L49.6182 159.697ZM232.942 53.8547C233.557 53.4998 234.163 53.1832 234.76 52.9038L234.102 51.5001C233.464 51.7991 232.818 52.1364 232.167 52.5124L232.942 53.8547ZM234.818 52.8731L239.856 49.9645L239.081 48.6222L234.043 51.5307L234.818 52.8731ZM239.856 49.9645C241.021 49.2918 242.597 48.9332 244.215 48.9332C245.833 48.9332 247.409 49.2918 248.575 49.9645L249.35 48.6222C247.893 47.7814 246.033 47.3832 244.215 47.3832C242.397 47.3832 240.537 47.7814 239.081 48.6222L239.856 49.9645ZM248.575 49.9645L267.96 61.1565L268.735 59.8142L249.35 48.6222L248.575 49.9645ZM267.96 61.1565C269.129 61.8318 269.538 62.6084 269.538 63.2258C269.538 63.8432 269.129 64.6199 267.96 65.2952L268.735 66.6375C270.187 65.7992 271.088 64.5922 271.088 63.2258C271.088 61.8595 270.187 60.6525 268.735 59.8142L267.96 61.1565ZM267.96 65.2952L251.881 74.5782L252.656 75.9205L268.735 66.6375L267.96 65.2952Z" fill="#060606"/>
<rect width="8.75713" height="36.912" rx="4.37857" transform="matrix(0.866025 0.5 -2.20305e-08 1 34.1709 243.819)" fill="#2F2F2F" stroke="#060606" stroke-width="1.55"/>
<rect width="8.75713" height="62.8411" rx="4.37857" transform="matrix(0.866025 0.5 -2.20305e-08 1 34.1709 294.754)" fill="#2F2F2F" stroke="#060606" stroke-width="1.55"/>
<path d="M34.1709 325.397L41.7548 329.776L41.7548 357.596C41.7548 360.014 40.0571 360.994 37.9628 359.785V359.785C35.8686 358.576 34.1709 355.635 34.1709 353.217L34.1709 325.397Z" fill="#2F2F2F" stroke="#060606" stroke-width="1.55"/>
<rect x="0.67117" y="0.3875" width="261.756" height="433.996" rx="21.9889" transform="matrix(0.866025 -0.5 2.20305e-08 1 45.543 181.589)" fill="white" stroke="#060606" stroke-width="1.55"/>
<rect x="0.67117" y="0.3875" width="57.0572" height="17.5116" rx="8.75579" transform="matrix(0.866025 -0.5 2.20305e-08 1 134.178 152.836)" fill="#060606" stroke="#060606" stroke-width="1.55"/>
<circle r="5.74938" transform="matrix(0.866025 -0.5 2.20305e-08 1 175.914 137.317)" fill="white"/>
<path d="M67.4348 192.488C68.0855 192.112 68.6715 191.953 69.193 192.009C69.7145 192.059 70.1252 192.312 70.4252 192.768C70.7297 193.215 70.882 193.847 70.882 194.662L70.882 198.171C70.882 199.04 70.7297 199.887 70.4252 200.713C70.1252 201.531 69.7029 202.273 69.1584 202.939C68.6139 203.605 67.977 204.149 67.2479 204.57C66.7449 204.86 66.2696 205.036 65.8219 205.097C65.3743 205.153 64.9728 205.076 64.6175 204.865L65.815 202.823C65.995 202.959 66.2096 203.024 66.4588 203.019C66.7126 203.006 66.9756 202.92 67.2479 202.763C67.6355 202.539 67.9747 202.24 68.2655 201.864C68.5562 201.483 68.7823 201.078 68.9438 200.649C69.1053 200.215 69.1861 199.803 69.1861 199.414L69.1861 197.504L69.4837 197.716C69.2022 198.262 68.8608 198.76 68.4593 199.21C68.0578 199.655 67.6355 200.006 67.1925 200.261C66.5695 200.621 66.0158 200.776 65.5312 200.725C65.0513 200.672 64.6729 200.442 64.396 200.037C64.1237 199.625 63.9876 199.058 63.9876 198.339C63.9876 197.62 64.1445 196.879 64.4583 196.117C64.7721 195.35 65.1897 194.645 65.7112 194.003C66.2373 193.353 66.8118 192.848 67.4348 192.488ZM67.4348 194.327C67.1118 194.513 66.8164 194.774 66.5488 195.11C66.2811 195.446 66.0688 195.813 65.9119 196.213C65.755 196.607 65.6766 196.991 65.6766 197.364C65.6766 197.737 65.7527 198.034 65.905 198.255C66.0619 198.474 66.2719 198.597 66.5349 198.627C66.8026 198.653 67.0979 198.573 67.421 198.387C67.744 198.2 68.0393 197.939 68.307 197.604C68.5746 197.268 68.7869 196.9 68.9438 196.501C69.1053 196.098 69.1861 195.711 69.1861 195.338C69.1861 194.975 69.1076 194.688 68.9507 194.474C68.7938 194.256 68.5816 194.131 68.3139 194.099C68.0509 194.064 67.7578 194.14 67.4348 194.327ZM73.0361 199.949L73.0361 197.975L74.7459 196.987L74.7459 198.962L73.0361 199.949ZM73.0499 195.361L73.0499 193.387L74.7597 192.399L74.7597 194.374L73.0499 195.361ZM81.0349 196.37L81.0349 194.467L76.6186 197.017L76.6186 195.219L79.8097 185.567L81.7133 184.468L78.5222 194.12L81.0349 192.669L81.0349 189.672L82.7239 188.697L82.7239 191.694L83.6584 191.154L83.6584 192.953L82.7239 193.492L82.7239 195.395L81.0349 196.37ZM86.7166 193.089L86.7166 183.682L84.8476 186.08L84.8476 183.953L86.7166 181.58L88.4194 180.596L88.4194 192.106L86.7166 193.089Z" fill="#060606"/>
<path opacity="0.35" d="M245.29 90.0759L253.498 85.3367C254.927 84.512 256.085 85.1805 256.085 86.8299L256.085 91.5316C256.085 93.181 254.927 95.1866 253.498 96.0112L245.29 100.751C243.861 101.575 242.703 100.907 242.703 99.2573L242.703 94.5555C242.703 92.9062 243.861 90.9006 245.29 90.0759Z" stroke="#060606" stroke-width="1.55"/>
<path opacity="0.4" d="M257.346 87.042L257.346 91.0106C257.846 90.3858 258.171 89.4161 258.171 88.5499C258.171 87.6836 257.846 87.0894 257.346 87.042" fill="#060606"/>
<path d="M243.21 94.2635C243.21 93.2248 243.939 91.9618 244.839 91.4425L253.949 86.1826C254.849 85.6632 255.578 86.0843 255.578 87.1229L255.578 91.8247C255.578 92.8634 254.849 94.1264 253.949 94.6458L244.839 99.9056C243.939 100.425 243.21 100.004 243.21 98.9653L243.21 94.2635Z" fill="#060606"/>
<path fill-rule="evenodd" clip-rule="evenodd" d="M232.902 99.824C234.354 98.9855 235.752 99.0885 236.804 100.112C236.884 100.192 237.01 100.117 237.088 99.9444L237.846 98.2604C237.886 98.1727 237.908 98.0721 237.908 97.9808C237.907 97.8896 237.885 97.8152 237.845 97.7742C235.081 95.0535 230.722 97.5704 227.959 103.482C227.919 103.569 227.896 103.67 227.896 103.761C227.895 103.853 227.917 103.928 227.957 103.97L228.715 104.779C228.793 104.862 228.92 104.79 228.999 104.619C230.052 102.379 231.449 100.663 232.902 99.824ZM232.922 103.651C233.72 103.19 234.49 103.229 235.082 103.761C235.162 103.839 235.288 103.763 235.366 103.591L236.123 101.907C236.163 101.819 236.185 101.717 236.184 101.626C236.184 101.534 236.16 101.459 236.12 101.419C234.318 99.7274 231.528 101.338 229.726 105.11C229.686 105.197 229.662 105.299 229.662 105.391C229.661 105.484 229.684 105.56 229.723 105.602L230.48 106.411C230.558 106.494 230.684 106.424 230.764 106.253C231.356 105.04 232.125 104.112 232.922 103.651ZM234.463 105.275C234.464 105.367 234.442 105.469 234.401 105.557L233.092 108.466C233.053 108.552 233.001 108.618 232.946 108.649C232.892 108.681 232.84 108.675 232.801 108.634L231.492 107.237C231.451 107.195 231.429 107.119 231.43 107.026C231.431 106.933 231.456 106.831 231.498 106.745C232.334 105.109 233.559 104.402 234.395 105.072C234.437 105.11 234.462 105.183 234.463 105.275Z" fill="#060606"/>
<path d="M218.472 108.545C218.472 108.025 218.736 107.452 219.061 107.264L219.65 106.924C219.976 106.737 220.239 107.005 220.239 107.525L220.239 115.048C220.239 115.567 219.976 116.14 219.65 116.328L219.061 116.668C218.736 116.856 218.472 116.587 218.472 116.068L218.472 108.545Z" fill="#060606"/>
<path d="M221.417 104.964C221.417 104.445 221.681 103.871 222.006 103.684L222.595 103.344C222.92 103.156 223.184 103.425 223.184 103.944L223.184 113.347C223.184 113.867 222.92 114.44 222.595 114.628L222.006 114.968C221.681 115.156 221.417 114.887 221.417 114.367L221.417 104.964Z" fill="#060606"/>
<path d="M215.528 113.536C215.528 113.017 215.791 112.444 216.117 112.256L216.706 111.916C217.031 111.728 217.295 111.997 217.295 112.516L217.295 116.748C217.295 117.267 217.031 117.84 216.706 118.028L216.117 118.368C215.791 118.556 215.528 118.287 215.528 117.768L215.528 113.536Z" fill="#060606"/>
<path d="M212.583 117.587C212.583 117.068 212.847 116.495 213.172 116.307L213.761 115.967C214.086 115.779 214.35 116.048 214.35 116.567L214.35 118.448C214.35 118.967 214.086 119.54 213.761 119.728L213.172 120.068C212.847 120.256 212.583 119.987 212.583 119.468L212.583 117.587Z" fill="#060606"/>
<path d="M114.173 227.293L114.173 222.285L110.532 217.089L112.885 215.731L115.194 219.029L117.503 213.064L119.856 211.706L116.215 221.106L116.215 226.113L114.173 227.293ZM122.946 222.484C122.142 222.948 121.436 223.148 120.829 223.082C120.222 223.017 119.749 222.718 119.408 222.185C119.073 221.644 118.905 220.897 118.905 219.946C118.905 218.983 119.078 218.037 119.423 217.109C119.769 216.174 120.245 215.327 120.851 214.566C121.458 213.806 122.156 213.198 122.946 212.742C123.75 212.278 124.456 212.078 125.062 212.144C125.674 212.206 126.15 212.507 126.491 213.045C126.831 213.578 127.001 214.32 127.001 215.271C127.001 216.229 126.829 217.174 126.483 218.109C126.143 219.034 125.667 219.882 125.055 220.651C124.448 221.411 123.745 222.022 122.946 222.484ZM122.946 220.313C123.592 219.94 124.073 219.412 124.389 218.728C124.71 218.036 124.87 217.294 124.87 216.502C124.87 215.682 124.707 215.12 124.382 214.819C124.061 214.514 123.582 214.545 122.946 214.913C122.507 215.166 122.147 215.488 121.865 215.878C121.584 216.268 121.374 216.706 121.236 217.19C121.103 217.671 121.036 218.18 121.036 218.715C121.036 219.541 121.197 220.107 121.518 220.412C121.843 220.708 122.319 220.675 122.946 220.313ZM131.248 217.708C130.621 218.07 130.11 218.242 129.716 218.225C129.321 218.208 129.013 218.075 128.791 217.828C128.574 217.577 128.418 217.276 128.324 216.926C128.231 216.57 128.174 216.23 128.154 215.905C128.134 215.58 128.125 215.341 128.125 215.187L128.125 210.008L130.167 208.829L130.167 213.187C130.167 213.398 130.177 213.663 130.197 213.982C130.216 214.295 130.278 214.587 130.382 214.858C130.485 215.129 130.653 215.308 130.885 215.396C131.122 215.482 131.455 215.401 131.884 215.153C132.057 215.053 132.242 214.915 132.439 214.738C132.637 214.562 132.822 214.335 132.994 214.059C133.167 213.777 133.308 213.431 133.416 213.021C133.53 212.602 133.586 212.108 133.586 211.538L134.741 211.504C134.741 212.233 134.612 212.991 134.356 213.777C134.099 214.563 133.712 215.302 133.194 215.995C132.681 216.684 132.032 217.255 131.248 217.708ZM133.838 215.939L133.838 212.88L133.586 213.025L133.586 206.855L135.614 205.684L135.614 214.914L133.838 215.939ZM137.326 213.925L137.326 204.696L139.102 203.67L139.102 205.926L138.91 205.747C139.013 205.368 139.152 204.998 139.324 204.636C139.497 204.274 139.709 203.935 139.961 203.619C140.153 203.371 140.363 203.145 140.59 202.94C140.817 202.729 141.051 202.545 141.293 202.389C141.535 202.226 141.776 202.092 142.018 201.987L142.018 204.158C141.796 204.206 141.537 204.33 141.241 204.529C140.95 204.72 140.686 204.949 140.449 205.217C140.212 205.479 140.013 205.763 139.85 206.067C139.687 206.367 139.564 206.683 139.48 207.016C139.396 207.344 139.354 207.684 139.354 208.037L139.354 212.754L137.326 213.925ZM149.599 207.096C148.804 207.555 148.141 207.724 147.608 207.604C147.075 207.485 146.673 207.136 146.402 206.558C146.135 205.976 146.002 205.224 146.002 204.302C146.002 203.379 146.135 202.473 146.402 201.584C146.668 200.695 147.06 199.888 147.578 199.161C148.096 198.435 148.735 197.852 149.495 197.414C150.26 196.972 150.926 196.798 151.493 196.892C152.061 196.986 152.5 197.311 152.811 197.867C153.126 198.414 153.284 199.157 153.284 200.097C153.284 201.02 153.129 201.939 152.818 202.853C152.512 203.765 152.083 204.593 151.53 205.34C150.978 206.086 150.334 206.672 149.599 207.096ZM145.661 213.215L145.661 199.883L147.438 198.858L147.438 205.182L147.689 205.036L147.689 212.044L145.661 213.215ZM149.273 205.216C149.707 204.965 150.062 204.635 150.339 204.225C150.615 203.814 150.82 203.36 150.953 202.862C151.086 202.357 151.153 201.846 151.153 201.328C151.153 200.815 151.084 200.388 150.946 200.046C150.807 199.698 150.593 199.483 150.302 199.401C150.016 199.309 149.648 199.393 149.199 199.653C148.78 199.895 148.439 200.208 148.178 200.593C147.921 200.974 147.734 201.41 147.615 201.9C147.497 202.39 147.438 202.914 147.438 203.473C147.438 204.031 147.497 204.487 147.615 204.84C147.734 205.193 147.926 205.41 148.193 205.489C148.464 205.566 148.824 205.475 149.273 205.216ZM158.153 202.157C157.349 202.621 156.643 202.821 156.036 202.755C155.43 202.69 154.956 202.391 154.616 201.858C154.28 201.317 154.112 200.57 154.112 199.619C154.112 198.656 154.285 197.71 154.63 196.782C154.976 195.848 155.452 195 156.059 194.24C156.666 193.479 157.364 192.871 158.153 192.415C158.957 191.951 159.663 191.751 160.27 191.817C160.881 191.88 161.358 192.18 161.698 192.718C162.038 193.251 162.209 193.993 162.209 194.945C162.209 195.902 162.036 196.847 161.691 197.782C161.35 198.707 160.874 199.555 160.262 200.324C159.655 201.085 158.952 201.696 158.153 202.157ZM158.153 199.986C158.799 199.613 159.28 199.085 159.596 198.401C159.917 197.709 160.077 196.967 160.077 196.175C160.077 195.355 159.914 194.794 159.589 194.492C159.268 194.187 158.79 194.218 158.153 194.586C157.714 194.839 157.354 195.161 157.073 195.551C156.791 195.942 156.582 196.379 156.444 196.863C156.31 197.344 156.244 197.853 156.244 198.388C156.244 199.214 156.404 199.78 156.725 200.085C157.05 200.381 157.527 200.348 158.153 199.986ZM163.48 198.825L163.48 189.596L165.256 188.571L165.256 190.827L165.064 190.647C165.167 190.268 165.305 189.898 165.478 189.536C165.651 189.174 165.863 188.835 166.114 188.519C166.307 188.271 166.517 188.045 166.743 187.84C166.97 187.629 167.205 187.445 167.447 187.289C167.688 187.126 167.93 186.992 168.172 186.887L168.172 189.058C167.95 189.106 167.691 189.23 167.395 189.429C167.104 189.62 166.84 189.85 166.603 190.117C166.366 190.379 166.166 190.663 166.003 190.968C165.841 191.267 165.717 191.583 165.633 191.916C165.55 192.244 165.508 192.584 165.508 192.937L165.508 197.655L163.48 198.825ZM174.019 192.741C173.466 193.179 172.924 193.544 172.391 193.834C171.863 194.128 171.389 194.296 170.97 194.339C170.555 194.373 170.24 194.227 170.022 193.903C169.825 193.595 169.722 193.228 169.712 192.8C169.702 192.367 169.697 191.875 169.697 191.322L169.697 183.443L171.71 182.281L171.71 190.023C171.71 190.382 171.712 190.705 171.717 190.993C171.727 191.272 171.779 191.47 171.873 191.587C172.05 191.809 172.334 191.822 172.724 191.625C173.114 191.429 173.545 191.157 174.019 190.809L174.019 192.741ZM168.335 188.587L168.335 186.793L174.019 183.511L174.019 185.306L168.335 188.587ZM176.11 191.533L176.11 182.338C176.11 182.105 176.115 181.837 176.125 181.535C176.134 181.233 176.174 180.911 176.243 180.569C176.317 180.225 176.45 179.874 176.643 179.518C176.889 179.057 177.156 178.687 177.442 178.407C177.733 178.12 178.014 177.895 178.286 177.732C178.557 177.564 178.789 177.425 178.981 177.314L179.973 176.741L179.973 178.621L179.055 179.151C178.739 179.333 178.505 179.562 178.352 179.839C178.199 180.109 178.123 180.373 178.123 180.629L178.123 190.371L176.11 191.533ZM174.852 184.825L174.852 183.031L179.973 180.074L179.973 181.868L174.852 184.825ZM184.104 187.174C183.3 187.638 182.595 187.838 181.988 187.772C181.381 187.707 180.907 187.408 180.567 186.875C180.231 186.334 180.064 185.587 180.064 184.636C180.064 183.673 180.236 182.727 180.582 181.799C180.927 180.865 181.403 180.017 182.01 179.257C182.617 178.496 183.315 177.888 184.104 177.432C184.909 176.968 185.614 176.768 186.221 176.834C186.833 176.896 187.309 177.197 187.649 177.735C187.99 178.268 188.16 179.01 188.16 179.962C188.16 180.919 187.987 181.864 187.642 182.799C187.302 183.724 186.825 184.572 186.214 185.341C185.607 186.102 184.904 186.713 184.104 187.174ZM184.104 185.003C184.751 184.63 185.232 184.102 185.548 183.418C185.868 182.726 186.029 181.984 186.029 181.192C186.029 180.372 185.866 179.811 185.54 179.509C185.219 179.204 184.741 179.235 184.104 179.603C183.665 179.856 183.305 180.178 183.024 180.568C182.743 180.959 182.533 181.396 182.395 181.88C182.262 182.361 182.195 182.87 182.195 183.405C182.195 184.231 182.355 184.797 182.676 185.102C183.002 185.398 183.478 185.365 184.104 185.003ZM189.579 183.757L189.579 171.195L191.592 170.033L191.592 182.595L189.579 183.757ZM193.602 170.923L193.602 168.872L195.615 167.71L195.615 169.761L193.602 170.923ZM193.602 181.434L193.602 172.205L195.615 171.042L195.615 180.272L193.602 181.434ZM201.075 177.376C200.27 177.841 199.565 178.04 198.958 177.975C198.351 177.909 197.877 177.61 197.537 177.077C197.202 176.536 197.034 175.79 197.034 174.838C197.034 173.875 197.206 172.93 197.552 172.001C197.897 171.067 198.373 170.219 198.98 169.459C199.587 168.698 200.285 168.09 201.075 167.634C201.879 167.17 202.584 166.971 203.191 167.036C203.803 167.099 204.279 167.399 204.62 167.938C204.96 168.47 205.13 169.212 205.13 170.164C205.13 171.121 204.957 172.067 204.612 173.001C204.272 173.927 203.796 174.774 203.184 175.543C202.577 176.304 201.874 176.915 201.075 177.376ZM201.075 175.206C201.721 174.833 202.202 174.304 202.518 173.621C202.838 172.928 202.999 172.186 202.999 171.394C202.999 170.574 202.836 170.013 202.51 169.711C202.19 169.406 201.711 169.437 201.075 169.805C200.635 170.058 200.275 170.38 199.994 170.771C199.713 171.161 199.503 171.598 199.365 172.082C199.232 172.564 199.165 173.072 199.165 173.608C199.165 174.434 199.326 174.999 199.646 175.304C199.972 175.6 200.448 175.567 201.075 175.206Z" fill="#060606"/>
<path d="M65.698 254.066C68.7635 252.296 71.2485 247.992 71.2485 244.452C71.2485 240.912 68.7635 239.478 65.698 241.248C62.6325 243.017 60.1475 247.322 60.1475 250.861C60.1475 254.401 62.6325 255.836 65.698 254.066Z" stroke="#060606" stroke-width="1.55" stroke-linecap="round" stroke-linejoin="round"/>
<path d="M69.623 249.923L72.8344 251.777" stroke="#060606" stroke-width="1.55" stroke-linejoin="round"/>
<path d="M241.335 139.844L258.377 130.004" stroke="#060606" stroke-width="1.55"/>
<path d="M241.335 146.711L258.377 136.872" stroke="#060606" stroke-width="1.55"/>
<path d="M248.584 149.391L258.376 143.737" stroke="#060606" stroke-width="1.55"/>
<path d="M91.9544 293.348L91.9544 289.621L95.6125 287.509L95.6125 291.236L91.9544 293.348ZM91.9544 268.532L91.9544 264.804L95.6125 262.692L95.6125 266.42L91.9544 268.532ZM93.8103 289.636C92.4206 290.439 91.1788 290.86 90.085 290.902C88.9911 290.933 88.099 290.604 87.4086 289.916C86.7182 289.217 86.2789 288.176 86.0906 286.794L89.7218 284.046C89.9639 285.127 90.4705 285.808 91.2416 286.088C92.0216 286.362 92.9496 286.189 94.0255 285.567C95.0387 284.983 95.877 284.224 96.5405 283.292C97.2129 282.355 97.5492 281.483 97.5492 280.676C97.5492 280.127 97.4012 279.762 97.1053 279.581C96.8184 279.384 96.3656 279.35 95.747 279.48L90.9592 280.536C88.1976 281.147 86.8169 279.998 86.8169 277.088C86.8169 275.722 87.0948 274.376 87.6507 273.051C88.2156 271.72 89.009 270.491 90.0312 269.362C91.0623 268.218 92.2772 267.248 93.6758 266.451C94.958 265.731 96.0967 265.343 97.0919 265.286C98.0871 265.219 98.9165 265.48 99.5799 266.07C100.252 266.645 100.741 267.538 101.046 268.749L97.2802 271.7C97.1546 271.109 96.9215 270.664 96.5808 270.364C96.2401 270.053 95.8142 269.906 95.3032 269.921C94.8011 269.921 94.2407 270.09 93.622 270.426C93.0303 270.747 92.4923 271.156 92.0082 271.653C91.533 272.145 91.1519 272.67 90.865 273.229C90.5871 273.773 90.4481 274.288 90.4481 274.774C90.4481 275.313 90.6453 275.665 91.0398 275.83C91.4343 275.986 92.062 275.955 92.9227 275.737L96.3387 274.883C98.0512 274.464 99.2841 274.523 100.037 275.062C100.799 275.595 101.18 276.664 101.18 278.269C101.18 279.677 100.871 281.092 100.252 282.516C99.6337 283.939 98.7685 285.272 97.6567 286.515C96.5539 287.752 95.2718 288.792 93.8103 289.636ZM112.01 278.663L112.01 275.184L103.591 280.045L103.591 276.1L109.697 257.636L113.893 255.213L107.787 273.678L112.01 271.24L112.01 265.649L115.722 263.506L115.722 269.096L117.444 268.103L117.444 272.047L115.722 273.041L115.722 276.52L112.01 278.663ZM127.16 270.382C125.851 271.138 124.685 271.505 123.663 271.484C122.65 271.448 121.852 271.06 121.269 270.32C120.696 269.564 120.409 268.492 120.409 267.105C120.409 265.925 120.637 264.68 121.095 263.37C121.561 262.055 122.229 260.816 123.098 259.651L123.018 261.002C122.363 260.645 121.848 260.166 121.471 259.565C121.103 258.96 120.92 258.144 120.92 257.12C120.92 255.825 121.184 254.544 121.713 253.276C122.251 252.003 122.986 250.833 123.919 249.766C124.86 248.684 125.941 247.791 127.16 247.087C128.379 246.383 129.455 246.031 130.388 246.031C131.329 246.016 132.064 246.337 132.593 246.994C133.131 247.646 133.4 248.62 133.4 249.914C133.4 250.939 133.226 251.961 132.876 252.981C132.526 253.99 131.993 255.085 131.275 256.265L131.275 254.961C132.127 255.09 132.782 255.551 133.239 256.343C133.705 257.13 133.938 258.113 133.938 259.294C133.938 260.681 133.647 262.086 133.064 263.51C132.481 264.923 131.679 266.235 130.657 267.447C129.635 268.648 128.469 269.626 127.16 270.382ZM127.16 266.406C128.021 265.909 128.72 265.236 129.258 264.387C129.796 263.538 130.065 262.586 130.065 261.53C130.065 260.484 129.796 259.842 129.258 259.604C128.72 259.356 128.021 259.48 127.16 259.977C126.299 260.474 125.604 261.155 125.075 262.019C124.546 262.873 124.282 263.823 124.282 264.869C124.282 265.925 124.546 266.569 125.075 266.802C125.604 267.035 126.299 266.903 127.16 266.406ZM127.16 255.97C127.859 255.567 128.429 255.041 128.868 254.394C129.307 253.737 129.527 252.989 129.527 252.15C129.527 251.311 129.307 250.817 128.868 250.667C128.429 250.507 127.859 250.628 127.16 251.032C126.461 251.436 125.891 251.971 125.452 252.639C125.013 253.297 124.793 254.045 124.793 254.883C124.793 255.722 125.013 256.216 125.452 256.366C125.891 256.506 126.461 256.374 127.16 255.97ZM137.167 268.331L137.383 266.437C137.813 266.229 138.163 265.945 138.432 265.582C138.701 265.23 138.884 264.834 138.983 264.394C139.091 263.96 139.113 263.512 139.05 263.051L137.167 264.138L137.167 259.914L140.825 257.802L140.825 262.026C140.825 263.517 140.525 264.819 139.924 265.932C139.324 267.045 138.405 267.845 137.167 268.331ZM146.915 258.51L153.425 236.365L145.14 241.148L145.14 237.173L157.352 230.122L157.352 234.098L150.869 256.227L146.915 258.51ZM166.791 224.237C168.074 223.497 169.221 223.181 170.234 223.29C171.256 223.394 172.063 223.896 172.655 224.796C173.247 225.687 173.543 226.945 173.543 228.57L173.543 235.061C173.543 236.821 173.247 238.514 172.655 240.14C172.063 241.755 171.23 243.22 170.154 244.534C169.078 245.839 167.814 246.91 166.361 247.749C165.42 248.293 164.523 248.65 163.671 248.821C162.828 248.976 162.048 248.883 161.331 248.541L163.94 244.022C164.263 244.208 164.635 244.283 165.057 244.247C165.487 244.206 165.922 244.058 166.361 243.805C167.06 243.401 167.666 242.865 168.177 242.197C168.697 241.514 169.096 240.792 169.374 240.031C169.661 239.254 169.804 238.524 169.804 237.841L169.804 234.518L170.423 234.937C169.876 235.905 169.235 236.777 168.499 237.554C167.764 238.32 167.007 238.928 166.227 239.379C165.007 240.083 163.931 240.388 162.999 240.295C162.075 240.196 161.349 239.751 160.82 238.959C160.3 238.162 160.04 237.06 160.04 235.651C160.04 234.243 160.349 232.797 160.968 231.311C161.587 229.815 162.407 228.441 163.429 227.188C164.451 225.925 165.572 224.941 166.791 224.237ZM166.791 228.275C166.236 228.596 165.724 229.046 165.258 229.626C164.801 230.201 164.433 230.832 164.155 231.521C163.886 232.204 163.752 232.867 163.752 233.508C163.752 234.15 163.886 234.663 164.155 235.046C164.424 235.419 164.788 235.633 165.245 235.69C165.702 235.737 166.209 235.6 166.765 235.279C167.32 234.958 167.827 234.51 168.284 233.935C168.75 233.345 169.118 232.709 169.387 232.025C169.665 231.327 169.804 230.656 169.804 230.014C169.804 229.393 169.67 228.896 169.401 228.523C169.132 228.151 168.768 227.936 168.311 227.879C167.854 227.822 167.347 227.954 166.791 228.275ZM183.793 237.685C182.484 238.441 181.318 238.808 180.296 238.787C179.283 238.751 178.485 238.363 177.902 237.623C177.328 236.867 177.041 235.795 177.041 234.408C177.041 233.228 177.27 231.983 177.727 230.673C178.194 229.358 178.862 228.119 179.731 226.954L179.651 228.305C178.996 227.948 178.48 227.469 178.104 226.868C177.736 226.263 177.553 225.447 177.553 224.423C177.553 223.128 177.817 221.847 178.346 220.579C178.884 219.306 179.619 218.136 180.552 217.069C181.493 215.987 182.573 215.094 183.793 214.39C185.012 213.686 186.088 213.334 187.021 213.334C187.962 213.319 188.697 213.64 189.226 214.297C189.764 214.95 190.033 215.923 190.033 217.217C190.033 218.242 189.858 219.264 189.509 220.284C189.159 221.293 188.625 222.388 187.908 223.568L187.908 222.264C188.76 222.393 189.415 222.854 189.872 223.646C190.338 224.433 190.571 225.416 190.571 226.597C190.571 227.984 190.28 229.389 189.697 230.813C189.114 232.226 188.312 233.538 187.29 234.75C186.267 235.951 185.102 236.929 183.793 237.685ZM183.793 233.709C184.654 233.212 185.353 232.539 185.891 231.69C186.429 230.841 186.698 229.889 186.698 228.833C186.698 227.787 186.429 227.145 185.891 226.907C185.353 226.659 184.654 226.783 183.793 227.28C182.932 227.777 182.237 228.458 181.708 229.322C181.179 230.176 180.915 231.126 180.915 232.172C180.915 233.228 181.179 233.872 181.708 234.105C182.237 234.338 182.932 234.206 183.793 233.709ZM183.793 223.273C184.492 222.87 185.062 222.344 185.501 221.697C185.94 221.04 186.16 220.292 186.16 219.453C186.16 218.614 185.94 218.12 185.501 217.97C185.062 217.81 184.492 217.931 183.793 218.335C183.093 218.739 182.524 219.274 182.085 219.942C181.645 220.6 181.426 221.348 181.426 222.186C181.426 223.025 181.645 223.519 182.085 223.669C182.524 223.809 183.093 223.677 183.793 223.273ZM194.661 230.944L194.661 226.72L198.319 224.608L198.319 228.832L194.661 230.944ZM202.147 226.591L202.147 222.926L210.27 209.912C210.88 208.939 211.31 208.106 211.561 207.412C211.812 206.718 211.938 206.134 211.938 205.657C211.938 204.974 211.817 204.438 211.575 204.05C211.333 203.651 210.992 203.429 210.553 203.382C210.113 203.325 209.598 203.468 209.006 203.809C208.387 204.166 207.84 204.648 207.365 205.254C206.899 205.844 206.536 206.483 206.276 207.171C206.016 207.85 205.895 208.494 205.913 209.105L202.147 211.279C202.147 209.747 202.438 208.253 203.021 206.799C203.604 205.344 204.415 204.011 205.455 202.8C206.495 201.589 207.706 200.584 209.087 199.787C210.351 199.057 211.48 198.726 212.476 198.793C213.48 198.845 214.269 199.275 214.843 200.082C215.417 200.89 215.703 202.044 215.703 203.545C215.703 204.653 215.569 205.652 215.3 206.542C215.031 207.422 214.632 208.326 214.103 209.252C213.574 210.169 212.924 211.238 212.153 212.459L206.908 220.799L206.612 220.038L215.703 214.789L215.703 218.764L202.147 226.591ZM224.567 214.082C223.598 214.641 222.675 214.951 221.796 215.014C220.918 215.065 220.151 214.871 219.497 214.431C218.851 213.986 218.389 213.29 218.111 212.343L221.662 209.206C221.85 209.915 222.218 210.339 222.765 210.479C223.32 210.603 223.921 210.479 224.567 210.106C225.123 209.785 225.629 209.338 226.087 208.763C226.553 208.183 226.92 207.552 227.189 206.868C227.467 206.18 227.606 205.515 227.606 204.873C227.606 203.91 227.319 203.253 226.746 202.901C226.181 202.533 225.454 202.605 224.567 203.118C224.298 203.273 224.038 203.47 223.787 203.708C223.536 203.936 223.294 204.195 223.06 204.485L221.42 202.109L227.579 192.651L227.848 193.396L218.864 198.583L218.864 194.608L230.968 187.619L230.968 191.595L226.181 199.701L226.154 198.537C227.266 198.092 228.202 198.001 228.965 198.265C229.736 198.513 230.318 199.036 230.713 199.833C231.116 200.615 231.318 201.581 231.318 202.73C231.318 204.138 231.009 205.585 230.39 207.07C229.772 208.546 228.951 209.91 227.929 211.162C226.907 212.405 225.786 213.378 224.567 214.082Z" fill="#060606"/>
<rect width="75.1311" height="23.3322" rx="11.6661" transform="matrix(0.866025 -0.5 2.20305e-08 1 127.266 287.794)" fill="#060606"/>
<path d="M141.588 293.191L141.588 289.1L140.232 289.883L140.232 289.007L143.757 286.972L143.757 287.848L142.401 288.631L142.401 292.722L141.588 293.191ZM145.211 291.203C144.886 291.391 144.601 291.471 144.356 291.445C144.111 291.418 143.92 291.298 143.783 291.083C143.647 290.864 143.58 290.563 143.58 290.179C143.58 289.79 143.649 289.408 143.789 289.034C143.928 288.656 144.12 288.314 144.365 288.007C144.61 287.7 144.892 287.455 145.211 287.271C145.536 287.083 145.82 287.003 146.065 287.029C146.312 287.055 146.504 287.176 146.642 287.393C146.779 287.608 146.848 287.908 146.848 288.292C146.848 288.678 146.778 289.06 146.639 289.437C146.501 289.811 146.309 290.153 146.062 290.463C145.817 290.77 145.534 291.017 145.211 291.203ZM145.211 290.327C145.472 290.177 145.666 289.963 145.793 289.687C145.923 289.408 145.988 289.108 145.988 288.789C145.988 288.457 145.922 288.231 145.79 288.109C145.661 287.986 145.468 287.999 145.211 288.147C145.034 288.249 144.888 288.379 144.775 288.537C144.661 288.694 144.576 288.871 144.521 289.066C144.467 289.261 144.44 289.466 144.44 289.682C144.44 290.016 144.505 290.244 144.634 290.367C144.766 290.486 144.958 290.473 145.211 290.327ZM149.441 288.658C149.218 288.835 148.999 288.982 148.784 289.099C148.571 289.218 148.379 289.285 148.21 289.303C148.043 289.317 147.915 289.258 147.828 289.127C147.748 289.003 147.706 288.854 147.702 288.682C147.698 288.507 147.696 288.308 147.696 288.085L147.696 284.904L148.509 284.435L148.509 287.561C148.509 287.706 148.51 287.836 148.512 287.952C148.516 288.065 148.537 288.145 148.575 288.192C148.646 288.282 148.761 288.287 148.918 288.207C149.075 288.128 149.25 288.018 149.441 287.878L149.441 288.658ZM147.147 286.981L147.147 286.257L149.441 284.932L149.441 285.656L147.147 286.981ZM151.056 287.829C150.825 287.962 150.629 288.025 150.468 288.017C150.308 288.005 150.187 287.938 150.103 287.816C150.022 287.691 149.981 287.525 149.981 287.318C149.981 287.146 150.004 286.975 150.049 286.806C150.095 286.637 150.169 286.469 150.271 286.302C150.374 286.132 150.513 285.96 150.686 285.786C150.805 285.667 150.948 285.54 151.113 285.405C151.278 285.271 151.466 285.126 151.675 284.97C151.884 284.813 152.114 284.64 152.365 284.451L152.072 284.807C152.072 284.586 152.026 284.45 151.935 284.4C151.843 284.349 151.69 284.386 151.475 284.51C151.355 284.579 151.231 284.684 151.101 284.826C150.972 284.967 150.881 285.138 150.829 285.338L150.094 285.493C150.176 285.138 150.329 284.799 150.554 284.475C150.779 284.152 151.086 283.879 151.475 283.654C151.759 283.49 152.012 283.394 152.233 283.368C152.454 283.342 152.622 283.42 152.735 283.603C152.799 283.704 152.837 283.82 152.849 283.951C152.861 284.082 152.867 284.233 152.867 284.403L152.867 286.68L152.156 287.09L152.156 286.324L152.257 286.425C152.1 286.766 151.93 287.046 151.746 287.265C151.565 287.48 151.335 287.668 151.056 287.829ZM151.23 286.99C151.379 286.904 151.504 286.802 151.606 286.683C151.71 286.561 151.791 286.444 151.851 286.331C151.913 286.218 151.955 286.128 151.976 286.062C152.018 285.937 152.042 285.806 152.048 285.669C152.056 285.529 152.06 285.414 152.06 285.324L152.299 285.255C152.058 285.44 151.863 285.592 151.714 285.71C151.564 285.827 151.444 285.924 151.352 286.002C151.26 286.08 151.18 286.154 151.11 286.224C151.03 286.307 150.966 286.385 150.916 286.457C150.868 286.526 150.832 286.593 150.808 286.657C150.786 286.721 150.775 286.783 150.775 286.845C150.775 286.93 150.793 286.994 150.829 287.035C150.867 287.073 150.92 287.089 150.988 287.082C151.055 287.075 151.136 287.044 151.23 286.99ZM153.703 286.197L153.703 281.126L154.516 280.657L154.516 285.728L153.703 286.197ZM158.191 283.709C157.87 283.894 157.603 283.963 157.387 283.914C157.172 283.866 157.01 283.725 156.901 283.492C156.793 283.257 156.739 282.954 156.739 282.581C156.739 282.209 156.793 281.843 156.901 281.484C157.008 281.125 157.166 280.799 157.376 280.506C157.585 280.213 157.843 279.978 158.149 279.801C158.458 279.622 158.727 279.552 158.956 279.59C159.185 279.628 159.362 279.759 159.488 279.984C159.615 280.204 159.679 280.504 159.679 280.884C159.679 281.256 159.616 281.627 159.491 281.996C159.367 282.364 159.194 282.699 158.971 283C158.748 283.302 158.488 283.538 158.191 283.709ZM156.602 284.523L156.602 279.556L157.42 279.083L157.42 281.498L157.319 281.557L157.319 284.109L156.602 284.523ZM158.06 282.95C158.235 282.849 158.378 282.716 158.49 282.55C158.601 282.385 158.684 282.201 158.738 282C158.792 281.796 158.819 281.59 158.819 281.381C158.819 281.174 158.791 281.001 158.735 280.863C158.679 280.723 158.592 280.636 158.475 280.603C158.359 280.566 158.211 280.6 158.03 280.704C157.861 280.802 157.723 280.929 157.618 281.084C157.514 281.238 157.438 281.414 157.39 281.612C157.343 281.81 157.319 282.021 157.319 282.247C157.319 282.472 157.343 282.656 157.39 282.798C157.438 282.941 157.516 283.028 157.624 283.061C157.733 283.092 157.878 283.055 158.06 282.95ZM161.233 281.953C161.002 282.087 160.805 282.149 160.644 282.141C160.485 282.13 160.363 282.063 160.28 281.941C160.198 281.816 160.157 281.65 160.157 281.443C160.157 281.27 160.18 281.099 160.226 280.93C160.272 280.761 160.345 280.593 160.447 280.427C160.55 280.257 160.689 280.085 160.862 279.911C160.982 279.791 161.124 279.664 161.289 279.53C161.455 279.395 161.642 279.25 161.851 279.095C162.06 278.938 162.29 278.765 162.541 278.576L162.248 278.931C162.248 278.71 162.203 278.575 162.111 278.524C162.019 278.474 161.866 278.51 161.651 278.635C161.531 278.704 161.407 278.809 161.277 278.95C161.148 279.092 161.057 279.262 161.006 279.463L160.271 279.618C160.352 279.262 160.506 278.923 160.731 278.6C160.956 278.277 161.262 278.003 161.651 277.779C161.936 277.615 162.189 277.519 162.41 277.493C162.631 277.466 162.798 277.544 162.912 277.727C162.975 277.828 163.013 277.945 163.025 278.076C163.037 278.207 163.043 278.357 163.043 278.528L163.043 280.804L162.332 281.215L162.332 280.449L162.434 280.549C162.276 280.891 162.106 281.171 161.923 281.389C161.741 281.604 161.511 281.792 161.233 281.953ZM161.406 281.115C161.555 281.029 161.681 280.926 161.782 280.808C161.886 280.686 161.968 280.569 162.027 280.456C162.089 280.342 162.131 280.253 162.153 280.187C162.195 280.062 162.219 279.931 162.224 279.794C162.232 279.653 162.236 279.538 162.236 279.449L162.475 279.38C162.234 279.565 162.039 279.717 161.89 279.835C161.74 279.951 161.62 280.048 161.528 280.127C161.437 280.205 161.356 280.279 161.286 280.349C161.207 280.432 161.142 280.51 161.092 280.582C161.044 280.651 161.009 280.718 160.985 280.782C160.963 280.845 160.952 280.908 160.952 280.97C160.952 281.055 160.97 281.118 161.006 281.16C161.043 281.198 161.096 281.213 161.164 281.206C161.232 281.199 161.312 281.169 161.406 281.115ZM163.88 280.321L163.88 275.25L164.692 274.781L164.692 279.852L163.88 280.321ZM166.484 278.921C166.253 279.055 166.057 279.117 165.896 279.109C165.736 279.098 165.615 279.031 165.531 278.909C165.449 278.784 165.409 278.618 165.409 278.411C165.409 278.238 165.432 278.067 165.477 277.898C165.523 277.729 165.597 277.561 165.698 277.395C165.802 277.225 165.94 277.053 166.114 276.879C166.233 276.759 166.376 276.632 166.541 276.498C166.706 276.363 166.893 276.218 167.103 276.063C167.312 275.906 167.542 275.733 167.793 275.544L167.5 275.899C167.5 275.678 167.454 275.543 167.363 275.492C167.271 275.442 167.118 275.478 166.902 275.603C166.783 275.672 166.658 275.777 166.529 275.918C166.4 276.06 166.309 276.23 166.257 276.431L165.522 276.586C165.604 276.23 165.757 275.891 165.982 275.568C166.207 275.245 166.514 274.971 166.902 274.747C167.187 274.583 167.44 274.487 167.661 274.461C167.882 274.434 168.05 274.512 168.163 274.695C168.227 274.796 168.265 274.913 168.277 275.044C168.289 275.175 168.295 275.325 168.295 275.496L168.295 277.772L167.584 278.183L167.584 277.417L167.685 277.517C167.528 277.859 167.358 278.139 167.174 278.357C166.993 278.572 166.763 278.76 166.484 278.921ZM166.657 278.083C166.807 277.997 166.932 277.894 167.034 277.776C167.137 277.654 167.219 277.537 167.279 277.424C167.341 277.31 167.382 277.221 167.404 277.155C167.446 277.03 167.47 276.899 167.476 276.762C167.484 276.621 167.488 276.506 167.488 276.417L167.727 276.348C167.486 276.533 167.291 276.685 167.141 276.803C166.992 276.919 166.872 277.016 166.78 277.095C166.688 277.173 166.608 277.247 166.538 277.317C166.458 277.4 166.394 277.478 166.344 277.55C166.296 277.619 166.26 277.686 166.236 277.75C166.214 277.813 166.203 277.876 166.203 277.938C166.203 278.023 166.221 278.086 166.257 278.128C166.295 278.166 166.348 278.181 166.415 278.174C166.483 278.167 166.564 278.137 166.657 278.083ZM171.27 276.054L171.27 274.295C171.27 274.21 171.266 274.104 171.258 273.978C171.25 273.849 171.225 273.73 171.184 273.621C171.142 273.511 171.073 273.44 170.978 273.405C170.884 273.369 170.75 273.402 170.577 273.502C170.507 273.542 170.433 273.598 170.353 273.669C170.273 273.74 170.199 273.833 170.129 273.947C170.059 274.058 170.002 274.197 169.956 274.364C169.912 274.53 169.89 274.729 169.89 274.961L169.424 274.975C169.424 274.68 169.476 274.374 169.579 274.057C169.683 273.74 169.838 273.442 170.045 273.164C170.255 272.884 170.517 272.653 170.834 272.47C171.087 272.324 171.293 272.255 171.453 272.261C171.612 272.268 171.735 272.322 171.823 272.424C171.913 272.524 171.976 272.646 172.014 272.789C172.052 272.931 172.075 273.067 172.083 273.198C172.091 273.329 172.095 273.426 172.095 273.488L172.095 275.578L171.27 276.054ZM169.065 277.327L169.065 273.602L169.788 273.184L169.788 274.419L169.89 274.361L169.89 276.851L169.065 277.327ZM174.234 274.447C173.899 274.64 173.612 274.72 173.373 274.685C173.134 274.651 172.951 274.522 172.824 274.299C172.696 274.076 172.632 273.778 172.632 273.405C172.632 273.028 172.698 272.653 172.83 272.281C172.963 271.907 173.15 271.565 173.391 271.256C173.632 270.947 173.917 270.697 174.246 270.507C174.626 270.288 174.945 270.215 175.202 270.29C175.461 270.361 175.626 270.568 175.698 270.911L174.885 271.629C174.837 271.463 174.754 271.361 174.634 271.322C174.517 271.281 174.383 271.304 174.234 271.391C174.063 271.489 173.922 271.619 173.813 271.779C173.703 271.936 173.622 272.113 173.571 272.308C173.519 272.501 173.493 272.701 173.493 272.908C173.493 273.233 173.555 273.46 173.678 273.591C173.804 273.719 173.989 273.712 174.234 273.571C174.417 273.465 174.556 273.336 174.652 273.184C174.748 273.033 174.819 272.853 174.867 272.646L175.698 272.367C175.606 272.815 175.433 273.22 175.178 273.581C174.923 273.942 174.608 274.231 174.234 274.447ZM177.708 272.441C177.377 272.632 177.085 272.719 176.832 272.702C176.581 272.681 176.384 272.569 176.241 272.364C176.099 272.156 176.028 271.865 176.028 271.493C176.028 271.086 176.098 270.691 176.238 270.31C176.377 269.928 176.569 269.583 176.814 269.276C177.059 268.967 177.341 268.72 177.66 268.536C177.998 268.341 178.286 268.267 178.523 268.314C178.76 268.361 178.935 268.519 179.049 268.786C179.162 269.054 179.202 269.423 179.168 269.894L178.365 270.358L178.365 270.013C178.365 269.633 178.312 269.391 178.206 269.287C178.103 269.179 177.933 269.193 177.696 269.33C177.419 269.49 177.215 269.705 177.083 269.977C176.954 270.245 176.889 270.568 176.889 270.948C176.889 271.295 176.954 271.527 177.083 271.643C177.215 271.756 177.407 271.739 177.66 271.593C177.819 271.501 177.955 271.382 178.069 271.236C178.183 271.09 178.269 270.924 178.329 270.737L179.142 270.537C179.02 270.948 178.828 271.323 178.565 271.664C178.304 272.003 178.018 272.262 177.708 272.441ZM176.638 271.355L176.638 270.658L178.777 269.423L178.777 270.12L176.638 271.355Z" fill="white"/>
<rect x="0.649519" y="0.375" width="27.9575" height="144.375" rx="13.9788" transform="matrix(0.866025 -0.5 2.20305e-08 1 149.859 322.534)" fill="white" stroke="#060606" stroke-width="1.5"/>
<rect x="0.649519" y="0.375" width="14.5" height="125.421" rx="7.25" transform="matrix(0.866025 -0.5 2.20305e-08 1 155.687 328.646)" fill="#060606" stroke="#060606" stroke-width="1.5"/>
<mask id="mask2_3760_41726" style="mask-type:alpha" maskUnits="userSpaceOnUse" x="156" y="320" width="99" height="184">
<rect width="112.847" height="126.476" transform="matrix(-0.866025 -0.5 -2.20305e-08 1 254.688 377.133)" fill="#D9D9D9"/>
</mask>
<g mask="url(#mask2_3760_41726)">
<path fill-rule="evenodd" clip-rule="evenodd" d="M211.038 447.147C217.869 441.693 221.984 431.947 221.984 418.717C221.984 388.847 201.013 352.525 175.145 337.589C161.528 329.728 149.268 329.359 140.71 335.13L140.709 335.128L140.637 335.179C140.349 335.375 140.066 335.578 139.787 335.787L131.631 341.616L132.964 343.779C129.979 349.173 128.306 356.194 128.306 364.632C128.306 394.502 149.276 430.824 175.145 445.759C184.127 450.945 192.519 452.871 199.647 451.924L201.101 454.282L211.065 447.19L211.038 447.147Z" fill="#060606"/>
<mask id="mask3_3760_41726" style="mask-type:alpha" maskUnits="userSpaceOnUse" x="128" y="331" width="94" height="124">
<path fill-rule="evenodd" clip-rule="evenodd" d="M211.05 447.143C217.882 441.689 221.996 431.944 221.996 418.713C221.996 388.843 201.026 352.521 175.157 337.586C161.541 329.724 149.281 329.355 140.723 335.126L140.721 335.124L140.65 335.175C140.362 335.371 140.079 335.574 139.799 335.783L131.644 341.613L132.977 343.775C129.992 349.169 128.318 356.19 128.318 364.628C128.318 394.498 149.289 430.82 175.157 445.756C184.14 450.941 192.531 452.867 199.659 451.92L201.114 454.279L211.077 447.186L211.05 447.143Z" fill="#B0F127"/>
</mask>
<g mask="url(#mask3_3760_41726)">
<rect width="114.412" height="49.195" transform="matrix(0.866025 -0.5 2.20305e-08 1 178.855 446.071)" fill="#060606"/>
</g>
<path d="M211.038 447.147L210.57 446.561L210.046 446.979L210.403 447.546L211.038 447.147ZM175.145 337.589L174.77 338.239L174.77 338.239L175.145 337.589ZM140.71 335.13L140.075 335.529L140.487 336.185L141.129 335.752L140.71 335.13ZM140.709 335.128L141.344 334.729L140.92 334.055L140.273 334.518L140.709 335.128ZM140.637 335.179L141.059 335.8L141.066 335.795L141.073 335.79L140.637 335.179ZM139.787 335.787L140.223 336.397L140.23 336.392L140.237 336.387L139.787 335.787ZM131.631 341.616L131.195 341.006L130.625 341.414L130.992 342.01L131.631 341.616ZM132.964 343.779L133.62 344.142L133.833 343.758L133.603 343.385L132.964 343.779ZM175.145 445.759L175.52 445.11L175.52 445.11L175.145 445.759ZM199.647 451.924L200.285 451.531L200.03 451.117L199.548 451.181L199.647 451.924ZM201.101 454.282L200.462 454.676L200.883 455.358L201.536 454.894L201.101 454.282ZM211.065 447.19L211.5 447.801L212.076 447.391L211.7 446.791L211.065 447.19ZM221.234 418.717C221.234 431.806 217.165 441.296 210.57 446.561L211.506 447.733C218.574 442.09 222.734 432.089 222.734 418.717H221.234ZM174.77 338.239C187.563 345.625 199.187 358.33 207.615 372.928C216.043 387.525 221.234 403.944 221.234 418.717H222.734C222.734 403.619 217.439 386.943 208.914 372.178C200.39 357.413 188.595 344.489 175.52 336.94L174.77 338.239ZM141.129 335.752C149.364 330.199 161.297 330.46 174.77 338.239L175.52 336.94C161.759 328.995 149.173 328.519 140.291 334.508L141.129 335.752ZM141.345 334.731L141.344 334.729L140.074 335.527L140.075 335.529L141.345 334.731ZM140.273 334.518L140.201 334.569L141.073 335.79L141.145 335.738L140.273 334.518ZM140.237 336.387C140.507 336.184 140.781 335.989 141.059 335.8L140.215 334.559C139.918 334.761 139.625 334.971 139.337 335.187L140.237 336.387ZM139.351 335.177L131.195 341.006L132.067 342.227L140.223 336.397L139.351 335.177ZM130.992 342.01L132.326 344.172L133.603 343.385L132.269 341.223L130.992 342.01ZM129.056 364.632C129.056 356.289 130.711 349.4 133.62 344.142L132.308 343.416C129.248 348.946 127.556 356.099 127.556 364.632H129.056ZM175.52 445.11C162.726 437.724 151.102 425.019 142.674 410.421C134.246 395.824 129.056 379.404 129.056 364.632H127.556C127.556 379.73 132.85 396.406 141.375 411.171C149.9 425.936 161.695 438.86 174.77 446.409L175.52 445.11ZM199.548 451.181C192.628 452.1 184.403 450.239 175.52 445.11L174.77 446.409C183.851 451.652 192.409 453.642 199.746 452.668L199.548 451.181ZM199.008 452.318L200.462 454.676L201.739 453.889L200.285 451.531L199.008 452.318ZM201.536 454.894L211.5 447.801L210.63 446.579L200.666 453.671L201.536 454.894ZM211.7 446.791L211.673 446.749L210.403 447.546L210.429 447.589L211.7 446.791Z" fill="#060606"/>
<circle r="54.085" transform="matrix(0.866025 0.5 -2.20305e-08 1 166.527 397.813)" fill="white"/>
<mask id="mask4_3760_41726" style="mask-type:alpha" maskUnits="userSpaceOnUse" x="119" y="337" width="95" height="122">
<circle r="54.085" transform="matrix(0.866025 0.5 -2.20305e-08 1 166.527 397.813)" fill="white"/>
</mask>
<g mask="url(#mask4_3760_41726)">
<rect width="114.412" height="61.354" transform="matrix(0.866025 0.5 2.20305e-08 -1 116.809 370.941)" fill="white"/>
<path d="M182.661 405.744C183.381 400.602 179.716 395.498 174.705 390.612L176.33 384.022L172.362 380.588L170.779 387.005C169.736 386.102 168.664 385.2 167.599 384.305L169.193 377.847L165.227 374.415L163.6 381.002C162.736 380.276 161.889 379.562 161.066 378.85L161.07 378.83L155.597 374.092L154.541 378.377C154.541 378.377 157.486 380.856 157.424 380.868C159.031 382.26 159.322 383.656 159.273 384.601L157.421 392.109C157.532 392.206 157.676 392.336 157.834 392.5C157.702 392.386 157.56 392.263 157.415 392.138L154.819 402.654C154.623 403.105 154.124 403.663 153 402.693C153.04 402.782 150.116 400.196 150.116 400.196L148.146 404.304L153.31 408.773C154.271 409.605 155.213 410.44 156.14 411.249L154.497 417.916L158.461 421.347L160.088 414.752C161.171 415.717 162.222 416.637 163.251 417.526L161.63 424.088L165.599 427.522L167.241 420.87C174.009 426.256 179.098 428.597 181.24 422.766C182.966 418.072 181.154 413.743 177.593 409.547C180.186 410.353 182.139 409.511 182.661 405.744V405.744ZM173.593 415.191C172.366 420.174 164.068 412.307 161.378 409.982L163.557 401.152C166.247 403.481 174.874 409.996 173.593 415.191V415.191ZM174.82 401.135C173.701 405.666 166.795 399.048 164.554 397.11L166.53 389.101C168.77 391.039 175.986 396.408 174.82 401.135V401.135Z" fill="#060606"/>
</g>
<circle r="54.085" transform="matrix(0.866025 0.5 -2.20305e-08 1 166.527 397.813)" stroke="#060606" stroke-width="1.5"/>
</g>
<path fill-rule="evenodd" clip-rule="evenodd" d="M373.732 75.2493V381.147C373.732 393.719 382.558 409.007 393.446 415.293L576.769 521.135C587.657 527.421 596.483 522.325 596.483 509.753L596.483 193.171C596.483 180.599 587.657 165.312 576.769 159.025L393.446 53.1835C392.813 52.8181 392.187 52.4912 391.569 52.2019L386.531 49.2934C383.91 47.7798 379.66 47.7798 377.038 49.2934L357.653 60.4853C355.031 61.9989 355.031 64.4528 357.653 65.9663L373.732 75.2493Z" fill="#141414"/>
<path d="M373.732 75.2493L374.119 74.5782L374.507 74.8019V75.2493H373.732ZM393.446 415.293L393.833 414.622L393.833 414.622L393.446 415.293ZM576.769 521.135L576.382 521.806L576.382 521.806L576.769 521.135ZM596.483 509.753L597.258 509.753L596.483 509.753ZM596.483 193.171L597.258 193.171V193.171L596.483 193.171ZM576.769 159.025L577.157 158.354L577.157 158.354L576.769 159.025ZM393.446 53.1835L393.058 53.8547L393.058 53.8547L393.446 53.1835ZM391.569 52.2019L391.24 52.9038L391.21 52.8897L391.182 52.8731L391.569 52.2019ZM386.531 49.2934L386.919 48.6222L386.919 48.6222L386.531 49.2934ZM377.038 49.2934L376.65 48.6222L376.65 48.6222L377.038 49.2934ZM357.653 60.4853L358.04 61.1565L358.04 61.1565L357.653 60.4853ZM357.653 65.9663L358.04 65.2952L358.04 65.2952L357.653 65.9663ZM374.507 75.2493V381.147H372.957V75.2493H374.507ZM374.507 381.147C374.507 387.265 376.659 394.097 380.177 400.19C383.694 406.282 388.535 411.563 393.833 414.622L393.058 415.964C387.469 412.737 382.452 407.231 378.834 400.965C375.217 394.699 372.957 387.601 372.957 381.147H374.507ZM393.833 414.622L577.157 520.464L576.382 521.806L393.058 415.964L393.833 414.622ZM577.157 520.464C582.459 523.525 587.078 523.717 590.322 521.845C593.565 519.972 595.708 515.876 595.708 509.753L597.258 509.753C597.258 516.202 594.989 520.94 591.097 523.187C587.205 525.434 581.967 525.031 576.382 521.806L577.157 520.464ZM595.708 509.753L595.708 193.171L597.258 193.171L597.258 509.753L595.708 509.753ZM595.708 193.171C595.708 187.053 593.556 180.221 590.038 174.129C586.521 168.036 581.68 162.756 576.382 159.697L577.157 158.354C582.746 161.581 587.763 167.088 591.38 173.354C594.998 179.619 597.258 186.717 597.258 193.171H595.708ZM576.382 159.697L393.058 53.8547L393.833 52.5123L577.157 158.354L576.382 159.697ZM393.058 53.8547C392.443 53.4998 391.837 53.1832 391.24 52.9038L391.898 51.5001C392.536 51.7991 393.182 52.1364 393.833 52.5124L393.058 53.8547ZM391.182 52.8731L386.144 49.9645L386.919 48.6222L391.957 51.5307L391.182 52.8731ZM386.144 49.9645C384.979 49.2918 383.403 48.9332 381.785 48.9332C380.167 48.9332 378.591 49.2918 377.425 49.9645L376.65 48.6222C378.107 47.7814 379.967 47.3832 381.785 47.3832C383.603 47.3832 385.463 47.7814 386.919 48.6222L386.144 49.9645ZM377.425 49.9645L358.04 61.1565L357.265 59.8142L376.65 48.6222L377.425 49.9645ZM358.04 61.1565C356.871 61.8318 356.462 62.6084 356.462 63.2258C356.462 63.8432 356.871 64.6199 358.04 65.2952L357.265 66.6375C355.813 65.7992 354.912 64.5922 354.912 63.2258C354.912 61.8595 355.813 60.6525 357.265 59.8142L358.04 61.1565ZM358.04 65.2952L374.119 74.5782L373.344 75.9205L357.265 66.6375L358.04 65.2952Z" fill="#060606"/>
<mask id="mask5_3760_41726" style="mask-type:alpha" maskUnits="userSpaceOnUse" x="368" y="47" width="229" height="477">
<rect x="-0.67117" y="0.3875" width="261.756" height="360.525" rx="21.9889" transform="matrix(-0.866025 -0.5 -2.20305e-08 1 595.231 170.107)" fill="white" stroke="#060606" stroke-width="1.55"/>
</mask>
<g mask="url(#mask5_3760_41726)">
<rect width="107.353" height="314.125" transform="matrix(-0.866025 0.5 2.20305e-08 1 642.699 152.489)" fill="#060606"/>
</g>
<path d="M373.732 75.2493L374.119 74.5782L374.507 74.8019V75.2493H373.732ZM393.446 415.293L393.833 414.622L393.833 414.622L393.446 415.293ZM576.769 521.135L576.382 521.806L576.382 521.806L576.769 521.135ZM596.483 509.753L597.258 509.753L596.483 509.753ZM596.483 193.171L597.258 193.171V193.171L596.483 193.171ZM576.769 159.025L577.157 158.354L577.157 158.354L576.769 159.025ZM393.446 53.1835L393.058 53.8547L393.058 53.8547L393.446 53.1835ZM391.569 52.2019L391.24 52.9038L391.21 52.8897L391.182 52.8731L391.569 52.2019ZM386.531 49.2934L386.919 48.6222L386.919 48.6222L386.531 49.2934ZM377.038 49.2934L376.65 48.6222L376.65 48.6222L377.038 49.2934ZM357.653 60.4853L358.04 61.1565L358.04 61.1565L357.653 60.4853ZM357.653 65.9663L358.04 65.2952L358.04 65.2952L357.653 65.9663ZM374.507 75.2493V381.147H372.957V75.2493H374.507ZM374.507 381.147C374.507 387.265 376.659 394.097 380.177 400.19C383.694 406.282 388.535 411.563 393.833 414.622L393.058 415.964C387.469 412.737 382.452 407.231 378.834 400.965C375.217 394.699 372.957 387.601 372.957 381.147H374.507ZM393.833 414.622L577.157 520.464L576.382 521.806L393.058 415.964L393.833 414.622ZM577.157 520.464C582.459 523.525 587.078 523.717 590.322 521.845C593.565 519.972 595.708 515.876 595.708 509.753L597.258 509.753C597.258 516.202 594.989 520.94 591.097 523.187C587.205 525.434 581.967 525.031 576.382 521.806L577.157 520.464ZM595.708 509.753L595.708 193.171L597.258 193.171L597.258 509.753L595.708 509.753ZM595.708 193.171C595.708 187.053 593.556 180.221 590.038 174.129C586.521 168.036 581.68 162.756 576.382 159.697L577.157 158.354C582.746 161.581 587.763 167.088 591.38 173.354C594.998 179.619 597.258 186.717 597.258 193.171H595.708ZM576.382 159.697L393.058 53.8547L393.833 52.5123L577.157 158.354L576.382 159.697ZM393.058 53.8547C392.443 53.4998 391.837 53.1832 391.24 52.9038L391.898 51.5001C392.536 51.7991 393.182 52.1364 393.833 52.5124L393.058 53.8547ZM391.182 52.8731L386.144 49.9645L386.919 48.6222L391.957 51.5307L391.182 52.8731ZM386.144 49.9645C384.979 49.2918 383.403 48.9332 381.785 48.9332C380.167 48.9332 378.591 49.2918 377.425 49.9645L376.65 48.6222C378.107 47.7814 379.967 47.3832 381.785 47.3832C383.603 47.3832 385.463 47.7814 386.919 48.6222L386.144 49.9645ZM377.425 49.9645L358.04 61.1565L357.265 59.8142L376.65 48.6222L377.425 49.9645ZM358.04 61.1565C356.871 61.8318 356.462 62.6084 356.462 63.2258C356.462 63.8432 356.871 64.6199 358.04 65.2952L357.265 66.6375C355.813 65.7992 354.912 64.5922 354.912 63.2258C354.912 61.8595 355.813 60.6525 357.265 59.8142L358.04 61.1565ZM358.04 65.2952L374.119 74.5782L373.344 75.9205L357.265 66.6375L358.04 65.2952Z" fill="#060606"/>
<path d="M560.833 170.647L372.231 61.7577C361.714 55.6857 353.188 60.6081 353.188 72.7522L353.188 462.771C353.188 474.915 361.714 489.682 372.231 495.754L560.833 604.643C571.35 610.715 579.876 605.793 579.876 593.649L579.876 203.63C579.876 191.486 571.35 176.719 560.833 170.647Z" fill="#B0F127" stroke="#060606" stroke-width="1.55"/>
<rect x="-0.67117" y="0.3875" width="57.0572" height="17.5116" rx="8.75579" transform="matrix(-0.866025 -0.5 -2.20305e-08 1 490.66 152.164)" fill="#060606" stroke="#060606" stroke-width="1.55"/>
<circle r="5.74938" transform="matrix(-0.866025 -0.5 -2.20305e-08 1 450.086 137.317)" fill="#B0F127"/>
<path d="M373.402 87.688C374.052 88.0637 374.638 88.5806 375.16 89.2387C375.681 89.8914 376.092 90.6188 376.392 91.4208C376.697 92.2201 376.849 93.0273 376.849 93.8426L376.849 97.3516C376.849 98.2201 376.697 98.8915 376.392 99.3658C376.092 99.8374 375.67 100.092 375.125 100.129C374.581 100.166 373.944 99.9746 373.215 99.5536C372.712 99.2632 372.236 98.8902 371.789 98.4346C371.341 97.9737 370.94 97.4328 370.584 96.812L371.782 96.1526C371.962 96.4963 372.176 96.8094 372.426 97.0918C372.679 97.3715 372.942 97.59 373.215 97.7472C373.602 97.971 373.942 98.0629 374.232 98.023C374.523 97.9777 374.749 97.8338 374.911 97.5913C375.072 97.3436 375.153 97.0252 375.153 96.6362L375.153 94.7259L375.451 95.2814C375.169 95.5025 374.828 95.6064 374.426 95.5931C374.025 95.5744 373.602 95.4372 373.159 95.1815C372.536 94.8218 371.983 94.3369 371.498 93.7267C371.018 93.1193 370.64 92.4532 370.363 91.7285C370.091 91.0011 369.954 90.2778 369.954 89.5584C369.954 88.839 370.111 88.2795 370.425 87.8799C370.739 87.4749 371.157 87.2524 371.678 87.2124C372.204 87.1698 372.779 87.3283 373.402 87.688ZM373.402 89.5264C373.079 89.3399 372.783 89.26 372.516 89.2866C372.248 89.3133 372.036 89.4358 371.879 89.6543C371.722 89.8675 371.643 90.1605 371.643 90.5335C371.643 90.9065 371.72 91.2915 371.872 91.6885C372.029 92.0882 372.239 92.4545 372.502 92.7876C372.769 93.1233 373.065 93.3844 373.388 93.5709C373.711 93.7574 374.006 93.8373 374.274 93.8107C374.541 93.784 374.754 93.6615 374.911 93.443C375.072 93.2272 375.153 92.9328 375.153 92.5598C375.153 92.1974 375.074 91.8191 374.918 91.4248C374.761 91.0251 374.548 90.6548 374.281 90.3137C374.018 89.9754 373.725 89.7129 373.402 89.5264ZM379.003 101.617L379.003 99.6423L380.713 100.629L380.713 102.604L379.003 101.617ZM379.017 97.0446L379.017 95.0703L380.727 96.0574L380.727 98.0317L379.017 97.0446ZM387.002 107.274L387.002 105.371L382.585 102.822L382.585 101.023L385.777 95.0565L387.68 96.1555L384.489 102.122L387.002 103.573L387.002 100.576L388.691 101.551L388.691 104.548L389.625 105.088L389.625 106.886L388.691 106.347L388.691 108.249L387.002 107.274ZM392.683 110.554L392.683 101.146L390.814 101.386L390.814 99.26L392.683 99.0442L394.386 100.027L394.386 111.537L392.683 110.554Z" fill="#060606"/>
<path opacity="0.35" d="M551.256 190.646L559.465 195.385C560.894 196.21 562.051 198.215 562.051 199.865L562.051 204.567C562.051 206.216 560.894 206.884 559.465 206.06L551.256 201.321C549.828 200.496 548.67 198.49 548.67 196.841L548.67 192.139C548.67 190.49 549.828 189.821 551.256 190.646Z" stroke="#060606" stroke-width="1.55"/>
<path opacity="0.4" d="M563.312 201.533L563.312 205.502C563.813 205.454 564.138 204.86 564.138 203.994C564.138 203.128 563.813 202.158 563.312 201.533" fill="#060606"/>
<path d="M549.177 192.431C549.177 191.393 549.906 190.972 550.805 191.491L559.916 196.751C560.815 197.27 561.545 198.533 561.545 199.572L561.545 204.274C561.545 205.312 560.815 205.734 559.916 205.214L550.805 199.954C549.906 199.435 549.177 198.172 549.177 197.133L549.177 192.431Z" fill="#060606"/>
<path fill-rule="evenodd" clip-rule="evenodd" d="M538.869 186.088C540.321 186.927 541.718 188.643 542.771 190.882C542.85 191.054 542.977 191.126 543.055 191.043L543.813 190.234C543.853 190.192 543.875 190.117 543.874 190.025C543.874 189.934 543.851 189.833 543.811 189.746C541.048 183.834 536.689 181.317 533.925 184.038C533.885 184.079 533.863 184.153 533.862 184.245C533.862 184.336 533.884 184.436 533.923 184.524L534.682 186.208C534.76 186.381 534.886 186.456 534.966 186.376C536.019 185.352 537.416 185.249 538.869 186.088ZM538.889 189.939C539.687 190.399 540.457 191.327 541.048 192.542C541.128 192.712 541.255 192.782 541.333 192.7L542.089 191.891C542.129 191.848 542.151 191.772 542.151 191.68C542.15 191.587 542.127 191.486 542.086 191.398C540.285 187.627 537.495 186.016 535.693 187.707C535.652 187.748 535.629 187.822 535.629 187.914C535.628 188.006 535.65 188.108 535.69 188.196L536.447 189.879C536.525 190.052 536.651 190.127 536.731 190.049C537.322 189.518 538.091 189.479 538.889 189.939ZM540.43 193.341C540.431 193.435 540.408 193.511 540.368 193.552L539.059 194.95C539.02 194.991 538.968 194.996 538.913 194.965C538.859 194.933 538.806 194.867 538.768 194.782L537.458 191.872C537.418 191.784 537.396 191.682 537.397 191.59C537.398 191.499 537.423 191.425 537.465 191.388C538.301 190.718 539.526 191.425 540.362 193.06C540.404 193.147 540.428 193.248 540.43 193.341Z" fill="#060606"/>
<path d="M524.439 178.148C524.439 177.629 524.703 177.36 525.028 177.548L525.617 177.888C525.942 178.076 526.206 178.649 526.206 179.168L526.206 186.691C526.206 187.21 525.942 187.479 525.617 187.291L525.028 186.951C524.703 186.763 524.439 186.19 524.439 185.671L524.439 178.148Z" fill="#060606"/>
<path d="M527.384 177.968C527.384 177.448 527.648 177.179 527.973 177.367L528.562 177.707C528.887 177.895 529.151 178.468 529.151 178.988L529.151 188.391C529.151 188.91 528.887 189.179 528.562 188.991L527.973 188.651C527.648 188.464 527.384 187.89 527.384 187.371L527.384 177.968Z" fill="#060606"/>
<path d="M521.495 179.739C521.495 179.22 521.758 178.951 522.083 179.139L522.672 179.479C522.998 179.667 523.261 180.24 523.261 180.759L523.261 184.991C523.261 185.51 522.998 185.779 522.672 185.591L522.083 185.251C521.758 185.063 521.495 184.49 521.495 183.971L521.495 179.739Z" fill="#060606"/>
<path d="M518.55 180.39C518.55 179.871 518.813 179.602 519.139 179.79L519.728 180.13C520.053 180.317 520.317 180.891 520.317 181.41L520.317 183.291C520.317 183.81 520.053 184.079 519.728 183.891L519.139 183.551C518.813 183.363 518.55 182.79 518.55 182.271L518.55 180.39Z" fill="#060606"/>
<path d="M441.655 192.27L441.655 179.965L445.918 182.426C446.678 182.865 447.292 183.396 447.761 184.02C448.23 184.638 448.573 185.274 448.79 185.93C449.007 186.585 449.115 187.183 449.115 187.724C449.115 188.414 448.98 188.908 448.708 189.207C448.442 189.509 448.074 189.601 447.606 189.485L447.606 189.057C448.272 189.601 448.77 190.245 449.1 190.989C449.436 191.735 449.604 192.45 449.604 193.134C449.604 193.869 449.485 194.447 449.249 194.868C449.017 195.293 448.661 195.526 448.183 195.569C447.704 195.606 447.102 195.415 446.377 194.997L441.655 192.27ZM443.698 191.262L446.17 192.689C446.441 192.846 446.683 192.92 446.895 192.911C447.107 192.897 447.273 192.805 447.391 192.634C447.514 192.46 447.576 192.208 447.576 191.877C447.576 191.587 447.524 191.298 447.421 191.01C447.317 190.722 447.159 190.452 446.947 190.198C446.74 189.942 446.481 189.724 446.17 189.544L443.698 188.117L443.698 191.262ZM443.698 185.947L445.889 187.211C446.116 187.343 446.318 187.414 446.495 187.425C446.673 187.437 446.814 187.378 446.917 187.25C447.021 187.116 447.073 186.898 447.073 186.596C447.073 186.22 446.972 185.846 446.769 185.472C446.567 185.099 446.273 184.802 445.889 184.579L443.698 183.315L443.698 185.947ZM450.871 187.08L450.871 185.029L452.884 186.192L452.884 188.242L450.871 187.08ZM450.871 197.591L450.871 188.362L452.884 189.524L452.884 198.754L450.871 197.591ZM459.542 202.598C458.99 202.398 458.447 202.136 457.914 201.811C457.386 201.495 456.913 201.116 456.493 200.675C456.079 200.23 455.763 199.721 455.546 199.145C455.349 198.61 455.245 198.122 455.235 197.684C455.225 197.239 455.22 196.741 455.22 196.188L455.22 188.309L457.233 189.471L457.233 197.214C457.233 197.573 457.236 197.899 457.241 198.192C457.251 198.483 457.302 198.741 457.396 198.966C457.574 199.393 457.857 199.733 458.247 199.987C458.637 200.24 459.069 200.467 459.542 200.666L459.542 202.598ZM453.859 191.881L453.859 190.087L459.542 193.368L459.542 195.163L453.859 191.881ZM464.056 205.46C463.227 204.981 462.517 204.358 461.925 203.589C461.333 202.819 460.879 201.976 460.563 201.059C460.247 200.142 460.089 199.222 460.089 198.299C460.089 197.364 460.252 196.624 460.578 196.077C460.908 195.533 461.372 195.222 461.969 195.145C462.566 195.069 463.272 195.265 464.086 195.735C465.028 196.279 465.818 197.011 466.454 197.931C467.095 198.849 467.505 199.834 467.683 200.888L465.67 200.341C465.551 199.794 465.344 199.301 465.048 198.863C464.757 198.427 464.426 198.102 464.056 197.889C463.632 197.644 463.284 197.562 463.013 197.645C462.741 197.722 462.542 197.928 462.413 198.265C462.285 198.595 462.221 199.017 462.221 199.529C462.221 200.333 462.374 201.073 462.68 201.751C462.991 202.426 463.449 202.939 464.056 203.289C464.51 203.551 464.855 203.631 465.092 203.529C465.329 203.426 465.507 203.187 465.625 202.811L467.683 204.494C467.456 205.343 467.026 205.85 466.395 206.015C465.763 206.181 464.984 205.996 464.056 205.46ZM472.186 210.154C471.382 209.69 470.677 209.074 470.07 208.308C469.463 207.542 468.989 206.696 468.649 205.77C468.313 204.841 468.146 203.901 468.146 202.95C468.146 201.987 468.318 201.241 468.664 200.711C469.009 200.176 469.485 199.878 470.092 199.818C470.699 199.758 471.397 199.956 472.186 200.412C472.991 200.876 473.696 201.492 474.303 202.258C474.915 203.027 475.391 203.877 475.731 204.809C476.072 205.734 476.242 206.673 476.242 207.624C476.242 208.582 476.069 209.328 475.724 209.863C475.383 210.396 474.907 210.694 474.296 210.756C473.689 210.816 472.986 210.615 472.186 210.154ZM472.186 207.983C472.833 208.357 473.314 208.384 473.63 208.065C473.95 207.743 474.111 207.186 474.111 206.394C474.111 205.574 473.948 204.824 473.622 204.146C473.301 203.471 472.823 202.95 472.186 202.583C471.747 202.329 471.387 202.235 471.106 202.301C470.825 202.366 470.615 202.561 470.477 202.886C470.344 203.213 470.277 203.645 470.277 204.181C470.277 205.007 470.437 205.757 470.758 206.432C471.084 207.105 471.56 207.622 472.186 207.983ZM477.661 202.547L477.661 200.496L479.674 201.659L479.674 203.71L477.661 202.547ZM477.661 213.058L477.661 203.829L479.674 204.991L479.674 214.221L477.661 213.058ZM486.983 218.441L486.983 214.082C486.983 213.872 486.973 213.598 486.954 213.262C486.934 212.92 486.872 212.554 486.769 212.164C486.665 211.774 486.495 211.399 486.258 211.04C486.026 210.684 485.696 210.382 485.266 210.134C485.094 210.035 484.909 209.959 484.711 209.908C484.514 209.857 484.329 209.872 484.156 209.955C483.984 210.032 483.84 210.211 483.727 210.493C483.618 210.778 483.564 211.208 483.564 211.784L482.41 210.485C482.41 209.755 482.538 209.146 482.795 208.656C483.051 208.166 483.436 207.873 483.949 207.776C484.467 207.682 485.118 207.861 485.903 208.314C486.529 208.676 487.04 209.093 487.435 209.566C487.829 210.039 488.135 210.526 488.352 211.027C488.574 211.531 488.732 212.016 488.826 212.48C488.92 212.939 488.977 213.342 488.996 213.689C489.016 214.037 489.026 214.287 489.026 214.441L489.026 219.62L486.983 218.441ZM481.522 215.287L481.522 206.058L483.313 207.092L483.313 210.151L483.564 210.297L483.564 216.467L481.522 215.287Z" fill="#060606"/>
<path d="M395.388 217.42L395.388 213.693L399.046 215.805L399.046 219.532L395.388 217.42ZM395.388 192.603L395.388 188.876L399.046 190.988L399.046 194.715L395.388 192.603ZM397.244 215.851C395.854 215.049 394.612 214.037 393.519 212.815C392.425 211.583 391.533 210.224 390.842 208.739C390.152 207.243 389.712 205.695 389.524 204.095L393.155 205.54C393.397 206.901 393.904 208.167 394.675 209.336C395.455 210.512 396.383 211.41 397.459 212.031C398.472 212.616 399.311 212.825 399.974 212.66C400.646 212.499 400.983 212.015 400.983 211.208C400.983 210.659 400.835 210.123 400.539 209.6C400.252 209.072 399.799 208.516 399.181 207.931L394.393 203.459C391.631 200.881 390.25 198.137 390.25 195.228C390.25 193.861 390.528 192.836 391.084 192.153C391.649 191.475 392.443 191.162 393.465 191.214C394.496 191.26 395.711 191.692 397.109 192.51C398.392 193.271 399.53 194.198 400.525 195.29C401.521 196.372 402.35 197.591 403.013 198.947C403.686 200.298 404.175 201.755 404.479 203.319L400.714 201.921C400.588 201.186 400.355 200.472 400.014 199.778C399.674 199.074 399.248 198.435 398.737 197.86C398.235 197.28 397.674 196.802 397.056 196.424C396.464 196.061 395.926 195.849 395.442 195.787C394.967 195.73 394.585 195.815 394.299 196.043C394.021 196.266 393.882 196.62 393.882 197.107C393.882 197.645 394.079 198.225 394.473 198.846C394.868 199.457 395.496 200.151 396.356 200.927L399.772 204.018C401.485 205.576 402.718 207.059 403.471 208.467C404.233 209.88 404.614 211.389 404.614 212.994C404.614 214.402 404.305 215.46 403.686 216.169C403.067 216.879 402.202 217.213 401.09 217.171C399.987 217.135 398.705 216.695 397.244 215.851ZM407.025 221.001L407.025 217.336L415.148 213.702C415.758 213.433 416.188 213.097 416.439 212.693C416.69 212.289 416.815 211.849 416.815 211.373C416.815 210.69 416.694 210.014 416.452 209.346C416.21 208.668 415.87 208.052 415.43 207.498C414.991 206.934 414.475 206.481 413.884 206.139C413.265 205.782 412.718 205.632 412.243 205.689C411.777 205.741 411.413 205.961 411.153 206.349C410.893 206.727 410.772 207.232 410.79 207.863L407.025 205.689C407.025 204.157 407.316 203 407.899 202.218C408.482 201.436 409.293 201.04 410.333 201.03C411.373 201.02 412.584 201.413 413.964 202.21C415.229 202.94 416.358 203.913 417.353 205.13C418.358 206.341 419.147 207.682 419.72 209.152C420.294 210.622 420.581 212.108 420.581 213.609C420.581 214.717 420.447 215.561 420.178 216.14C419.909 216.71 419.51 217.152 418.981 217.468C418.452 217.774 417.802 218.092 417.031 218.423L411.786 220.706L411.49 219.603L420.581 224.852L420.581 228.828L407.025 221.001ZM431.152 234.962L431.152 231.483L422.733 226.623L422.733 222.678L428.838 211.264L433.035 213.686L426.929 225.101L431.152 227.539L431.152 221.948L434.864 224.091L434.864 229.682L436.585 230.676L436.585 234.62L434.864 233.626L434.864 237.105L431.152 234.962ZM439.025 243.7L439.24 242.054C439.67 242.344 440.02 242.463 440.289 242.412C440.558 242.37 440.742 242.186 440.84 241.86C440.948 241.55 440.97 241.128 440.908 240.595L439.025 239.507L439.025 235.283L442.683 237.395L442.683 241.62C442.683 243.11 442.383 244.065 441.782 244.485C441.181 244.904 440.262 244.643 439.025 243.7ZM448.773 245.135L455.282 230.507L446.998 225.724L446.998 221.748L459.209 228.798L459.209 232.774L452.727 247.418L448.773 245.135ZM468.649 233.814C469.931 234.554 471.079 235.563 472.092 236.842C473.114 238.126 473.921 239.56 474.513 241.144C475.104 242.717 475.4 244.317 475.4 245.942L475.4 252.434C475.4 254.194 475.104 255.545 474.513 256.487C473.921 257.419 473.087 257.921 472.011 257.993C470.935 258.055 469.671 257.667 468.219 256.828C467.277 256.285 466.381 255.607 465.529 254.794C464.686 253.976 463.906 252.982 463.189 251.812L465.798 250.306C466.121 250.865 466.493 251.37 466.914 251.82C467.344 252.276 467.779 252.63 468.219 252.884C468.918 253.288 469.523 253.451 470.034 253.373C470.554 253.29 470.953 253.029 471.231 252.589C471.518 252.144 471.661 251.579 471.661 250.896L471.661 247.573L472.28 248.706C471.733 249.043 471.092 249.175 470.357 249.102C469.622 249.02 468.864 248.753 468.084 248.303C466.865 247.599 465.789 246.662 464.856 245.492C463.933 244.327 463.207 243.043 462.678 241.64C462.158 240.243 461.898 238.84 461.898 237.432C461.898 236.024 462.207 234.934 462.826 234.163C463.444 233.381 464.265 232.954 465.287 232.882C466.309 232.799 467.43 233.11 468.649 233.814ZM468.649 237.851C468.093 237.53 467.582 237.391 467.116 237.432C466.658 237.479 466.291 237.686 466.013 238.053C465.744 238.426 465.609 238.933 465.609 239.575C465.609 240.217 465.744 240.885 466.013 241.578C466.282 242.262 466.645 242.896 467.102 243.481C467.56 244.055 468.066 244.503 468.622 244.824C469.178 245.145 469.684 245.282 470.142 245.236C470.608 245.184 470.976 244.972 471.245 244.599C471.523 244.221 471.661 243.711 471.661 243.069C471.661 242.448 471.527 241.796 471.258 241.112C470.989 240.429 470.626 239.795 470.169 239.21C469.711 238.625 469.205 238.172 468.649 237.851ZM485.65 266.893C484.341 266.137 483.176 265.158 482.154 263.958C481.14 262.751 480.342 261.442 479.76 260.029C479.186 258.61 478.899 257.207 478.899 255.82C478.899 254.64 479.128 253.659 479.585 252.877C480.051 252.101 480.719 251.632 481.589 251.472L481.508 252.73C480.854 251.617 480.338 250.543 479.961 249.507C479.594 248.477 479.41 247.45 479.41 246.425C479.41 245.131 479.674 244.155 480.203 243.497C480.741 242.845 481.477 242.524 482.409 242.535C483.351 242.54 484.431 242.894 485.65 243.598C486.87 244.302 487.946 245.193 488.878 246.269C489.819 247.341 490.555 248.511 491.084 249.779C491.622 251.052 491.891 252.336 491.891 253.63C491.891 254.655 491.716 255.476 491.366 256.092C491.016 256.697 490.483 257.176 489.766 257.528L489.766 256.224C490.617 257.337 491.272 258.553 491.729 259.873C492.195 261.198 492.429 262.451 492.429 263.631C492.429 265.019 492.137 266.088 491.554 266.838C490.972 267.579 490.169 267.964 489.147 267.995C488.125 268.016 486.959 267.648 485.65 266.893ZM485.65 262.917C486.511 263.414 487.21 263.549 487.748 263.321C488.286 263.093 488.555 262.451 488.555 261.395C488.555 260.35 488.286 259.397 487.748 258.538C487.21 257.668 486.511 256.985 485.65 256.488C484.79 255.991 484.095 255.869 483.566 256.123C483.037 256.366 482.772 257.011 482.772 258.056C482.772 259.112 483.037 260.062 483.566 260.906C484.095 261.75 484.79 262.42 485.65 262.917ZM485.65 252.481C486.35 252.885 486.919 253.017 487.358 252.877C487.798 252.727 488.017 252.233 488.017 251.394C488.017 250.556 487.798 249.808 487.358 249.15C486.919 248.482 486.35 247.947 485.65 247.543C484.951 247.139 484.382 247.017 483.942 247.178C483.503 247.328 483.283 247.822 483.283 248.661C483.283 249.5 483.503 250.248 483.942 250.905C484.382 251.552 484.951 252.077 485.65 252.481ZM496.518 272.701L496.518 268.477L500.176 270.589L500.176 274.813L496.518 272.701ZM504.004 276.992L504.004 273.327L512.128 269.694C512.737 269.424 513.168 269.088 513.419 268.684C513.67 268.28 513.795 267.84 513.795 267.364C513.795 266.681 513.674 266.005 513.432 265.337C513.19 264.659 512.849 264.043 512.41 263.489C511.971 262.925 511.455 262.472 510.863 262.131C510.245 261.773 509.698 261.623 509.223 261.68C508.756 261.732 508.393 261.952 508.133 262.34C507.873 262.718 507.752 263.223 507.77 263.854L504.004 261.68C504.004 260.148 504.296 258.991 504.879 258.209C505.461 257.428 506.273 257.032 507.313 257.021C508.353 257.011 509.563 257.404 510.944 258.202C512.208 258.932 513.338 259.905 514.333 261.121C515.337 262.333 516.126 263.673 516.7 265.143C517.274 266.613 517.561 268.099 517.561 269.6C517.561 270.708 517.426 271.552 517.157 272.132C516.888 272.701 516.49 273.144 515.961 273.459C515.432 273.765 514.781 274.083 514.01 274.414L508.765 276.697L508.469 275.595L517.561 280.844L517.561 284.819L504.004 276.992ZM526.424 290.371C525.456 289.812 524.532 289.057 523.654 288.104C522.775 287.141 522.009 286.062 521.354 284.866C520.708 283.676 520.247 282.446 519.969 281.178L523.519 282.141C523.708 283.067 524.075 283.916 524.622 284.688C525.178 285.454 525.779 286.023 526.424 286.396C526.98 286.717 527.487 286.854 527.944 286.807C528.41 286.766 528.778 286.559 529.047 286.186C529.325 285.819 529.464 285.314 529.464 284.672C529.464 283.709 529.177 282.72 528.603 281.706C528.038 280.686 527.312 279.92 526.424 279.407C526.155 279.252 525.895 279.149 525.644 279.097C525.393 279.035 525.151 279.014 524.918 279.035L523.277 274.764L529.437 272.419L529.706 273.475L520.722 268.288L520.722 264.313L532.826 271.301L532.826 275.277L528.038 277.855L528.011 276.659C529.123 277.497 530.06 278.489 530.822 279.633C531.593 280.772 532.176 281.967 532.57 283.22C532.974 284.468 533.176 285.666 533.176 286.815C533.176 288.223 532.866 289.313 532.248 290.084C531.629 290.845 530.809 291.262 529.787 291.334C528.764 291.396 527.644 291.075 526.424 290.371Z" fill="#060606"/>
<rect width="74.1311" height="23.3322" rx="11.6661" transform="matrix(0.866025 0.5 -2.20305e-08 1 429.999 251.42)" fill="#060606"/>
<path d="M444.236 273.306L444.236 269.215L442.88 268.431L442.88 267.555L446.405 269.591L446.405 270.467L445.048 269.684L445.048 273.775L444.236 273.306ZM446.587 274.664L446.587 270.938L447.304 271.352L447.304 272.263L447.227 272.1C447.269 271.996 447.324 271.911 447.394 271.845C447.464 271.78 447.549 271.742 447.651 271.731C447.729 271.721 447.813 271.727 447.905 271.75C447.996 271.771 448.091 271.806 448.189 271.855C448.286 271.903 448.384 271.961 448.481 272.031L448.481 272.908C448.392 272.824 448.287 272.753 448.168 272.696C448.05 272.637 447.944 272.606 447.848 272.604C447.753 272.599 447.672 272.621 447.606 272.668C447.54 272.713 447.491 272.783 447.457 272.878C447.423 272.971 447.406 273.089 447.406 273.232L447.406 275.136L446.587 274.664ZM449.882 276.669C449.651 276.536 449.455 276.372 449.293 276.178C449.134 275.982 449.012 275.775 448.929 275.557C448.847 275.337 448.806 275.124 448.806 274.917C448.806 274.744 448.829 274.6 448.875 274.484C448.921 274.368 448.995 274.285 449.096 274.235C449.2 274.185 449.338 274.173 449.511 274.199C449.631 274.218 449.773 274.255 449.939 274.311C450.104 274.368 450.291 274.439 450.5 274.525C450.709 274.609 450.939 274.702 451.19 274.803L450.898 274.82C450.898 274.599 450.852 274.411 450.76 274.254C450.669 274.098 450.515 273.958 450.3 273.833C450.181 273.764 450.056 273.726 449.927 273.718C449.797 273.71 449.707 273.776 449.655 273.916L448.92 273.223C449.002 272.962 449.155 272.8 449.38 272.736C449.605 272.673 449.912 272.754 450.3 272.978C450.585 273.142 450.838 273.339 451.059 273.568C451.28 273.797 451.447 274.068 451.561 274.382C451.625 274.557 451.662 274.717 451.674 274.861C451.686 275.006 451.692 275.164 451.692 275.334L451.692 277.611L450.981 277.2L450.981 276.435L451.083 276.652C450.925 276.812 450.755 276.895 450.572 276.902C450.391 276.908 450.161 276.83 449.882 276.669ZM450.055 276.031C450.204 276.117 450.33 276.16 450.432 276.159C450.535 276.156 450.617 276.133 450.677 276.09C450.738 276.047 450.78 276.006 450.802 275.965C450.844 275.888 450.868 275.785 450.874 275.655C450.882 275.524 450.886 275.413 450.886 275.324L451.125 275.531C450.884 275.438 450.688 275.364 450.539 275.31C450.39 275.254 450.269 275.212 450.178 275.184C450.086 275.156 450.005 275.137 449.936 275.127C449.856 275.118 449.791 275.121 449.741 275.136C449.694 275.15 449.658 275.175 449.634 275.212C449.612 275.25 449.601 275.3 449.601 275.362C449.601 275.447 449.619 275.531 449.655 275.614C449.693 275.695 449.745 275.772 449.813 275.843C449.881 275.914 449.962 275.977 450.055 276.031ZM453.778 278.918C453.481 278.747 453.221 278.511 452.998 278.209C452.775 277.908 452.601 277.573 452.475 277.204C452.352 276.836 452.29 276.466 452.29 276.093C452.29 275.714 452.353 275.413 452.478 275.191C452.606 274.968 452.784 274.837 453.013 274.799C453.242 274.761 453.511 274.832 453.819 275.01C454.126 275.187 454.384 275.422 454.593 275.715C454.802 276.009 454.961 276.335 455.068 276.693C455.176 277.052 455.23 277.418 455.23 277.79C455.23 278.163 455.175 278.466 455.065 278.699C454.958 278.934 454.796 279.075 454.581 279.124C454.366 279.172 454.098 279.104 453.778 278.918ZM453.909 278.159C454.09 278.264 454.235 278.3 454.342 278.268C454.452 278.237 454.531 278.15 454.578 278.008C454.626 277.865 454.65 277.681 454.65 277.456C454.65 277.23 454.626 277.019 454.578 276.821C454.531 276.623 454.454 276.447 454.348 276.291C454.245 276.137 454.108 276.011 453.939 275.914C453.758 275.809 453.608 275.775 453.491 275.81C453.375 275.845 453.29 275.932 453.234 276.072C453.178 276.21 453.15 276.383 453.15 276.59C453.15 276.799 453.177 277.006 453.231 277.209C453.285 277.41 453.367 277.594 453.479 277.759C453.59 277.925 453.734 278.058 453.909 278.159ZM454.65 279.319L454.65 276.766L454.548 276.707L454.548 274.292L455.367 274.765L455.367 279.733L454.65 279.319ZM457.703 281.185C457.373 280.994 457.081 280.744 456.828 280.435C456.577 280.124 456.38 279.784 456.236 279.413C456.095 279.042 456.024 278.67 456.024 278.297C456.024 277.89 456.094 277.576 456.233 277.356C456.373 277.135 456.565 277.012 456.81 276.988C457.055 276.962 457.337 277.041 457.656 277.225C457.994 277.42 458.282 277.678 458.519 277.999C458.756 278.32 458.931 278.68 459.045 279.079C459.158 279.478 459.198 279.893 459.164 280.324L458.361 279.86L458.361 279.515C458.361 279.136 458.308 278.833 458.202 278.606C458.099 278.379 457.928 278.196 457.691 278.059C457.415 277.9 457.21 277.879 457.079 277.999C456.949 278.117 456.885 278.366 456.885 278.746C456.885 279.093 456.949 279.4 457.079 279.665C457.21 279.93 457.403 280.135 457.656 280.281C457.815 280.373 457.951 280.412 458.065 280.397C458.178 280.382 458.265 280.316 458.325 280.198L459.137 280.936C459.016 281.207 458.824 281.36 458.561 281.397C458.3 281.435 458.014 281.364 457.703 281.185ZM456.634 278.863L456.634 278.166L458.773 279.401L458.773 280.098L456.634 278.863ZM461.035 283.005L461.035 278.037L462.756 279.031C463.063 279.208 463.311 279.422 463.5 279.674C463.689 279.924 463.827 280.181 463.915 280.445C464.003 280.71 464.046 280.951 464.046 281.17C464.046 281.448 463.992 281.647 463.882 281.768C463.775 281.89 463.626 281.927 463.437 281.88L463.437 281.708C463.706 281.927 463.907 282.187 464.04 282.487C464.176 282.789 464.244 283.077 464.244 283.353C464.244 283.65 464.196 283.883 464.1 284.054C464.007 284.225 463.863 284.319 463.67 284.337C463.477 284.351 463.234 284.274 462.941 284.105L461.035 283.005ZM461.86 282.598L462.857 283.174C462.967 283.237 463.065 283.267 463.15 283.264C463.236 283.258 463.303 283.221 463.35 283.152C463.4 283.081 463.425 282.98 463.425 282.846C463.425 282.729 463.404 282.612 463.362 282.496C463.32 282.38 463.257 282.271 463.171 282.168C463.087 282.065 462.983 281.977 462.857 281.904L461.86 281.328L461.86 282.598ZM461.86 280.452L462.744 280.963C462.836 281.016 462.917 281.044 462.989 281.049C463.061 281.054 463.117 281.03 463.159 280.978C463.201 280.924 463.222 280.836 463.222 280.714C463.222 280.563 463.181 280.411 463.099 280.261C463.018 280.11 462.899 279.99 462.744 279.9L461.86 279.39L461.86 280.452ZM464.899 280.993L464.899 280.165L465.712 280.634L465.712 281.462L464.899 280.993ZM464.899 285.236L464.899 281.51L465.712 281.979L465.712 285.705L464.899 285.236ZM468.543 287.34C468.32 287.259 468.101 287.154 467.886 287.023C467.673 286.895 467.482 286.742 467.313 286.564C467.145 286.384 467.018 286.179 466.93 285.946C466.85 285.73 466.809 285.533 466.805 285.356C466.801 285.177 466.799 284.976 466.799 284.753L466.799 281.572L467.611 282.041L467.611 285.167C467.611 285.311 467.612 285.443 467.614 285.562C467.618 285.679 467.639 285.783 467.677 285.874C467.749 286.046 467.863 286.184 468.021 286.286C468.178 286.388 468.352 286.48 468.543 286.56L468.543 287.34ZM466.249 283.014L466.249 282.29L468.543 283.614L468.543 284.339L466.249 283.014ZM470.509 288.579C470.175 288.385 469.888 288.133 469.649 287.823C469.41 287.513 469.227 287.172 469.099 286.802C468.972 286.432 468.908 286.06 468.908 285.688C468.908 285.31 468.974 285.011 469.105 284.791C469.239 284.571 469.426 284.446 469.667 284.415C469.908 284.384 470.193 284.463 470.521 284.653C470.902 284.872 471.221 285.168 471.477 285.539C471.736 285.91 471.902 286.307 471.973 286.733L471.161 286.512C471.113 286.291 471.029 286.092 470.91 285.915C470.792 285.739 470.659 285.608 470.509 285.522C470.338 285.423 470.198 285.39 470.088 285.424C469.979 285.455 469.898 285.538 469.846 285.674C469.794 285.807 469.769 285.977 469.769 286.184C469.769 286.509 469.83 286.808 469.954 287.081C470.079 287.354 470.265 287.561 470.509 287.702C470.693 287.808 470.832 287.84 470.928 287.799C471.023 287.757 471.095 287.661 471.143 287.509L471.973 288.189C471.882 288.531 471.708 288.736 471.454 288.803C471.199 288.869 470.884 288.795 470.509 288.579ZM473.935 290.556C473.611 290.369 473.326 290.121 473.081 289.811C472.836 289.502 472.645 289.16 472.507 288.787C472.372 288.412 472.304 288.032 472.304 287.648C472.304 287.26 472.374 286.958 472.513 286.744C472.653 286.528 472.845 286.408 473.09 286.384C473.335 286.36 473.617 286.44 473.935 286.624C474.26 286.811 474.545 287.06 474.79 287.369C475.037 287.679 475.229 288.023 475.366 288.399C475.504 288.772 475.573 289.151 475.573 289.535C475.573 289.922 475.503 290.223 475.363 290.439C475.226 290.654 475.034 290.774 474.787 290.8C474.542 290.824 474.258 290.743 473.935 290.556ZM473.935 289.68C474.196 289.831 474.39 289.842 474.518 289.713C474.647 289.583 474.712 289.358 474.712 289.039C474.712 288.707 474.646 288.405 474.515 288.131C474.385 287.859 474.192 287.648 473.935 287.5C473.758 287.398 473.613 287.36 473.499 287.386C473.386 287.413 473.301 287.491 473.245 287.622C473.191 287.755 473.165 287.929 473.165 288.145C473.165 288.479 473.229 288.782 473.359 289.054C473.49 289.325 473.682 289.534 473.935 289.68ZM476.289 287.569L476.289 286.741L477.102 287.21L477.102 288.038L476.289 287.569ZM476.289 291.812L476.289 288.086L477.102 288.555L477.102 292.281L476.289 291.812ZM480.196 294.068L480.196 292.308C480.196 292.223 480.192 292.113 480.184 291.977C480.176 291.839 480.152 291.691 480.11 291.534C480.068 291.376 479.999 291.225 479.904 291.08C479.81 290.937 479.677 290.815 479.503 290.715C479.434 290.674 479.359 290.644 479.279 290.623C479.2 290.603 479.125 290.609 479.055 290.642C478.985 290.673 478.928 290.746 478.882 290.86C478.838 290.975 478.816 291.148 478.816 291.38L478.35 290.856C478.35 290.562 478.402 290.316 478.505 290.118C478.609 289.92 478.764 289.802 478.972 289.762C479.181 289.725 479.444 289.797 479.76 289.98C480.013 290.126 480.219 290.294 480.379 290.485C480.538 290.676 480.661 290.873 480.749 291.075C480.839 291.279 480.902 291.474 480.94 291.662C480.978 291.847 481.001 292.009 481.009 292.15C481.017 292.29 481.021 292.391 481.021 292.453L481.021 294.544L480.196 294.068ZM477.992 292.795L477.992 289.069L478.715 289.487L478.715 290.722L478.816 290.78L478.816 293.271L477.992 292.795Z" fill="white"/>
<rect x="-0.649519" y="0.375" width="27.9575" height="144.375" rx="13.9788" transform="matrix(-0.866025 -0.5 -2.20305e-08 1 467.976 321.884)" fill="white" stroke="#060606" stroke-width="1.5"/>
<rect x="-0.649519" y="0.375" width="14.5" height="125.421" rx="7.25" transform="matrix(-0.866025 -0.5 -2.20305e-08 1 462.149 327.997)" fill="#060606" stroke="#060606" stroke-width="1.5"/>
<mask id="mask6_3760_41726" style="mask-type:alpha" maskUnits="userSpaceOnUse" x="364" y="320" width="99" height="184">
<rect width="112.847" height="126.476" transform="matrix(0.866025 -0.5 2.20305e-08 1 364.272 377.133)" fill="#D9D9D9"/>
</mask>
<g mask="url(#mask6_3760_41726)">
<path fill-rule="evenodd" clip-rule="evenodd" d="M407.923 447.147C401.092 441.693 396.977 431.947 396.977 418.717C396.977 388.847 417.948 352.525 443.816 337.589C457.433 329.728 469.693 329.359 478.251 335.13L478.252 335.128L478.324 335.179C478.612 335.375 478.895 335.578 479.174 335.787L487.33 341.616L485.997 343.779C488.982 349.173 490.655 356.194 490.655 364.632C490.655 394.502 469.685 430.824 443.816 445.759C434.834 450.945 426.442 452.871 419.314 451.924L417.86 454.282L407.896 447.19L407.923 447.147Z" fill="#B0F127"/>
<mask id="mask7_3760_41726" style="mask-type:alpha" maskUnits="userSpaceOnUse" x="396" y="331" width="95" height="124">
<path fill-rule="evenodd" clip-rule="evenodd" d="M407.91 447.143C401.079 441.689 396.965 431.944 396.965 418.713C396.965 388.843 417.935 352.521 443.804 337.586C457.42 329.724 469.68 329.355 478.238 335.126L478.24 335.124L478.311 335.175C478.599 335.371 478.882 335.574 479.161 335.783L487.317 341.613L485.984 343.775C488.969 349.169 490.643 356.19 490.643 364.628C490.643 394.498 469.672 430.82 443.804 445.756C434.821 450.941 426.43 452.867 419.301 451.92L417.847 454.279L407.884 447.186L407.91 447.143Z" fill="#B0F127"/>
</mask>
<g mask="url(#mask7_3760_41726)">
<rect width="114.412" height="49.195" transform="matrix(-0.866025 -0.5 -2.20305e-08 1 440.105 446.071)" fill="#B0F127"/>
</g>
<path d="M407.923 447.147L408.391 446.561L408.914 446.979L408.558 447.546L407.923 447.147ZM443.816 337.589L444.191 338.239L444.191 338.239L443.816 337.589ZM478.251 335.13L478.886 335.529L478.474 336.185L477.832 335.752L478.251 335.13ZM478.252 335.128L477.617 334.729L478.041 334.055L478.688 334.518L478.252 335.128ZM478.324 335.179L477.902 335.8L477.895 335.795L477.888 335.79L478.324 335.179ZM479.174 335.787L478.738 336.397L478.731 336.392L478.724 336.387L479.174 335.787ZM487.33 341.616L487.766 341.006L488.336 341.414L487.968 342.01L487.33 341.616ZM485.997 343.779L485.341 344.142L485.128 343.758L485.358 343.385L485.997 343.779ZM443.816 445.759L443.441 445.11L443.441 445.11L443.816 445.759ZM419.314 451.924L418.676 451.531L418.931 451.117L419.413 451.181L419.314 451.924ZM417.86 454.282L418.498 454.676L418.078 455.358L417.425 454.894L417.86 454.282ZM407.896 447.19L407.461 447.801L406.885 447.391L407.261 446.791L407.896 447.19ZM397.727 418.717C397.727 431.806 401.796 441.296 408.391 446.561L407.455 447.733C400.387 442.09 396.227 432.089 396.227 418.717H397.727ZM444.191 338.239C431.398 345.625 419.774 358.33 411.346 372.928C402.918 387.525 397.727 403.944 397.727 418.717H396.227C396.227 403.619 401.522 386.943 410.047 372.178C418.571 357.413 430.366 344.489 443.441 336.94L444.191 338.239ZM477.832 335.752C469.597 330.199 457.664 330.46 444.191 338.239L443.441 336.94C457.202 328.995 469.788 328.519 478.67 334.508L477.832 335.752ZM477.616 334.731L477.617 334.729L478.887 335.527L478.886 335.529L477.616 334.731ZM478.688 334.518L478.76 334.569L477.888 335.79L477.816 335.738L478.688 334.518ZM478.724 336.387C478.454 336.184 478.18 335.989 477.902 335.8L478.746 334.559C479.043 334.761 479.336 334.971 479.624 335.187L478.724 336.387ZM479.61 335.177L487.766 341.006L486.894 342.227L478.738 336.397L479.61 335.177ZM487.968 342.01L486.635 344.172L485.358 343.385L486.692 341.223L487.968 342.01ZM489.905 364.632C489.905 356.289 488.25 349.4 485.341 344.142L486.653 343.416C489.713 348.946 491.405 356.099 491.405 364.632H489.905ZM443.441 445.11C456.235 437.724 467.859 425.019 476.287 410.421C484.715 395.824 489.905 379.404 489.905 364.632H491.405C491.405 379.73 486.111 396.406 477.586 411.171C469.061 425.936 457.266 438.86 444.191 446.409L443.441 445.11ZM419.413 451.181C426.333 452.1 434.558 450.239 443.441 445.11L444.191 446.409C435.11 451.652 426.552 453.642 419.215 452.668L419.413 451.181ZM419.953 452.318L418.498 454.676L417.222 453.889L418.676 451.531L419.953 452.318ZM417.425 454.894L407.461 447.801L408.331 446.579L418.295 453.671L417.425 454.894ZM407.261 446.791L407.288 446.749L408.558 447.546L408.531 447.589L407.261 446.791Z" fill="#060606"/>
<circle r="54.085" transform="matrix(-0.866025 0.5 2.20305e-08 1 452.434 397.813)" fill="white"/>
<mask id="mask8_3760_41726" style="mask-type:alpha" maskUnits="userSpaceOnUse" x="405" y="337" width="95" height="122">
<circle r="54.085" transform="matrix(-0.866025 0.5 2.20305e-08 1 452.434 397.813)" fill="#B0F127"/>
</mask>
<g mask="url(#mask8_3760_41726)">
<rect width="114.412" height="61.354" transform="matrix(-0.866025 0.5 -2.20305e-08 -1 502.152 370.941)" fill="white"/>
<path d="M468.411 386.868C469.131 380.894 465.466 380.022 460.455 380.922L462.08 372.455L458.112 373.605L456.529 381.848C455.486 382.151 454.414 382.486 453.349 382.82L454.943 374.521L450.977 375.669L449.35 384.135C448.486 384.406 447.639 384.671 446.816 384.91L446.82 384.884L441.347 386.466L440.291 391.97C440.291 391.97 443.236 391.049 443.174 391.133C444.781 390.669 445.072 391.729 445.023 392.731L443.171 402.377C443.282 402.345 443.426 402.31 443.584 402.291C443.452 402.33 443.31 402.37 443.165 402.413L440.569 415.927C440.373 416.604 439.874 417.738 438.75 418.065C438.79 418.109 435.866 418.899 435.866 418.899L433.896 425.283L439.06 423.787C440.021 423.511 440.963 423.258 441.89 422.997L440.247 431.56L444.211 430.414L445.838 421.941C446.921 421.655 447.972 421.361 449.001 421.062L447.38 429.497L451.349 428.347L452.991 419.799C459.759 417.37 464.848 413.836 466.99 405.531C468.716 398.844 466.904 396.607 463.343 396.522C465.936 394.335 467.889 391.237 468.411 386.868V386.868ZM459.343 406.786C458.116 413.185 449.818 414.899 447.128 415.681L449.307 404.335C451.997 403.557 460.624 400.111 459.343 406.786V406.786ZM460.57 391.312C459.451 397.135 452.545 398.492 450.304 399.141L452.28 388.851C454.52 388.202 461.736 385.24 460.57 391.312V391.312Z" fill="#060606"/>
</g>
<circle r="54.085" transform="matrix(-0.866025 0.5 2.20305e-08 1 452.434 397.813)" stroke="#060606" stroke-width="1.5"/>
</g>
</g>
</svg>
