<svg width="626" height="443" viewBox="0 0 626 443" fill="none" xmlns="http://www.w3.org/2000/svg">
<path d="M0 0H626V443H0V0Z" fill="#141414"/>
<mask id="mask0_3760_42338" style="mask-type:alpha" maskUnits="userSpaceOnUse" x="0" y="0" width="626" height="443">
<path d="M0 0H626V443H0V0Z" fill="#141414"/>
</mask>
<g mask="url(#mask0_3760_42338)">
<g opacity="0.1">
<path d="M-407.685 247.945L444.484 739.945" stroke="white" stroke-linejoin="round"/>
<path d="M-282.977 175.945L569.192 667.945" stroke="white" stroke-linejoin="round"/>
<path d="M-158.27 103.945L693.899 595.945" stroke="white" stroke-linejoin="round"/>
<path d="M-33.5615 31.9453L818.607 523.945" stroke="white" stroke-linejoin="round"/>
<path d="M91.146 -40.0547L943.315 451.945" stroke="white" stroke-linejoin="round"/>
<path d="M215.854 -112.055L1068.02 379.945" stroke="white" stroke-linejoin="round"/>
<path d="M444.484 -112.055L-407.685 379.945" stroke="white" stroke-linejoin="round"/>
<path d="M569.192 -40.0547L-282.977 451.945" stroke="white" stroke-linejoin="round"/>
<path d="M693.9 31.9453L-158.269 523.945" stroke="white" stroke-linejoin="round"/>
<path d="M818.607 103.945L-33.5617 595.945" stroke="white" stroke-linejoin="round"/>
<path d="M943.315 175.945L91.1458 667.945" stroke="white" stroke-linejoin="round"/>
<path d="M1068.02 247.945L215.853 739.945" stroke="white" stroke-linejoin="round"/>
</g>
<path fill-rule="evenodd" clip-rule="evenodd" d="M544.849 163.552C553.414 156.714 558.571 144.496 558.571 127.909C558.571 90.4616 532.281 44.9255 499.85 26.2016C482.779 16.3455 467.409 15.8834 456.68 23.1184L456.676 23.1116L456.354 23.3416C456.152 23.4821 455.951 23.6255 455.752 23.7716L445.295 31.2459L446.969 33.9613C443.227 40.7236 441.129 49.5253 441.129 60.1042C441.129 97.5519 467.42 143.088 499.85 161.812C511.111 168.313 521.631 170.727 530.568 169.541L532.388 172.493L544.88 163.602L544.849 163.552Z" fill="#B0F127"/>
<path d="M544.849 163.552L544.381 162.966L543.857 163.384L544.213 163.951L544.849 163.552ZM499.85 26.2016L499.475 26.8511L499.85 26.2016ZM456.68 23.1184L456.045 23.5172L456.457 24.1735L457.099 23.7403L456.68 23.1184ZM456.676 23.1116L457.311 22.7128L456.888 22.0384L456.24 22.5015L456.676 23.1116ZM456.354 23.3416L456.782 23.9575L456.79 23.9517L456.354 23.3416ZM455.752 23.7716L456.189 24.3818L456.197 24.376L455.752 23.7716ZM445.295 31.2459L444.859 30.6357L444.289 31.0431L444.657 31.6395L445.295 31.2459ZM446.969 33.9613L447.626 34.3245L447.838 33.9409L447.608 33.5677L446.969 33.9613ZM441.129 60.1042L440.379 60.1042L441.129 60.1042ZM499.85 161.812L500.225 161.162L500.225 161.162L499.85 161.812ZM530.568 169.541L531.206 169.147L530.951 168.733L530.469 168.797L530.568 169.541ZM532.388 172.493L531.75 172.887L532.17 173.569L532.823 173.104L532.388 172.493ZM544.88 163.602L545.314 164.213L545.891 163.802L545.515 163.203L544.88 163.602ZM557.821 127.909C557.821 144.355 552.709 156.317 544.381 162.966L545.317 164.138C554.118 157.112 559.321 144.638 559.321 127.909H557.821ZM499.475 26.8511C515.55 36.1317 530.145 52.0873 540.723 70.409C551.301 88.7307 557.821 109.348 557.821 127.909H559.321C559.321 109.023 552.697 88.1483 542.022 69.659C531.347 51.1697 516.582 34.9953 500.225 25.552L499.475 26.8511ZM457.099 23.7403C467.505 16.7235 482.548 17.078 499.475 26.8511L500.225 25.552C483.011 15.613 467.314 15.0433 456.261 22.4966L457.099 23.7403ZM457.315 22.7196L457.311 22.7128L456.041 23.5105L456.045 23.5172L457.315 22.7196ZM456.24 22.5015L455.918 22.7314L456.79 23.9517L457.112 23.7218L456.24 22.5015ZM456.197 24.376C456.39 24.2337 456.585 24.0942 456.782 23.9574L455.926 22.7257C455.718 22.87 455.512 23.0172 455.308 23.1672L456.197 24.376ZM455.316 23.1614L444.859 30.6357L445.731 31.8561L456.189 24.3817L455.316 23.1614ZM444.657 31.6395L446.331 34.355L447.608 33.5677L445.933 30.8523L444.657 31.6395ZM441.879 60.1042C441.879 49.6203 443.959 40.9506 447.626 34.3245L446.313 33.5982C442.496 40.4966 440.379 49.4303 440.379 60.1042L441.879 60.1042ZM500.225 161.162C484.151 151.882 469.556 135.926 458.978 117.605C448.4 99.2828 441.879 78.6654 441.879 60.1042L440.379 60.1042C440.379 78.9907 447.004 99.8652 457.679 118.355C468.354 136.844 483.119 153.018 499.475 162.461L500.225 161.162ZM530.469 168.797C521.741 169.956 511.387 167.607 500.225 161.162L499.475 162.461C510.835 169.02 521.522 171.498 530.667 170.284L530.469 168.797ZM529.929 169.934L531.75 172.887L533.027 172.099L531.206 169.147L529.929 169.934ZM532.823 173.104L545.314 164.213L544.445 162.991L531.953 171.882L532.823 173.104ZM545.515 163.203L545.484 163.153L544.213 163.951L544.244 164L545.515 163.203Z" fill="#060606"/>
<mask id="mask1_3760_42338" style="mask-type:alpha" maskUnits="userSpaceOnUse" x="440" y="17" width="120" height="157">
<path fill-rule="evenodd" clip-rule="evenodd" d="M544.849 163.549C553.414 156.711 558.572 144.493 558.572 127.906C558.572 90.4587 532.282 44.9225 499.851 26.1986C482.78 16.3426 467.41 15.8804 456.681 23.1155L456.676 23.1087L456.355 23.3386C456.152 23.4792 455.952 23.6226 455.753 23.7687L445.296 31.243L446.97 33.9584C443.228 40.7207 441.13 49.5224 441.13 60.1012C441.13 97.549 467.42 143.085 499.851 161.809C511.112 168.31 521.632 170.724 530.568 169.538L532.389 172.49L544.88 163.599L544.849 163.549Z" fill="#B0F127"/>
<path d="M544.849 163.549L544.381 162.963L543.858 163.381L544.214 163.948L544.849 163.549ZM499.851 26.1986L500.226 25.5491L500.226 25.5491L499.851 26.1986ZM456.681 23.1155L456.045 23.5143L456.457 24.1706L457.1 23.7373L456.681 23.1155ZM456.676 23.1087L457.311 22.71L456.888 22.0355L456.24 22.4985L456.676 23.1087ZM456.355 23.3386L456.783 23.9545L456.791 23.9488L456.355 23.3386ZM455.753 23.7687L456.189 24.3789L456.197 24.373L455.753 23.7687ZM445.296 31.243L444.859 30.6328L444.289 31.0402L444.657 31.6366L445.296 31.243ZM446.97 33.9584L447.626 34.3215L447.838 33.9379L447.608 33.5648L446.97 33.9584ZM441.13 60.1012L440.38 60.1012L441.13 60.1012ZM499.851 161.809L500.226 161.16L500.226 161.16L499.851 161.809ZM530.568 169.538L531.207 169.144L530.952 168.73L530.47 168.794L530.568 169.538ZM532.389 172.49L531.75 172.884L532.171 173.566L532.824 173.101L532.389 172.49ZM544.88 163.599L545.315 164.21L545.892 163.799L545.515 163.2L544.88 163.599ZM557.822 127.906C557.822 144.352 552.71 156.314 544.381 162.963L545.317 164.135C554.118 157.109 559.322 144.635 559.322 127.906H557.822ZM499.476 26.8482C515.55 36.1288 530.145 52.0844 540.723 70.4061C551.301 88.7278 557.822 109.345 557.822 127.906H559.322C559.322 109.02 552.697 88.1454 542.022 69.6561C531.348 51.1668 516.582 34.9924 500.226 25.5491L499.476 26.8482ZM457.1 23.7373C467.506 16.7205 482.548 17.075 499.476 26.8482L500.226 25.5491C483.011 15.6101 467.314 15.0404 456.261 22.4937L457.1 23.7373ZM457.316 22.7167L457.311 22.71L456.041 23.5075L456.045 23.5143L457.316 22.7167ZM456.24 22.4985L455.918 22.7285L456.791 23.9488L457.112 23.7189L456.24 22.4985ZM456.197 24.373C456.391 24.2308 456.586 24.0913 456.783 23.9545L455.927 22.7228C455.719 22.8671 455.513 23.0143 455.309 23.1643L456.197 24.373ZM455.317 23.1585L444.859 30.6328L445.732 31.8531L456.189 24.3788L455.317 23.1585ZM444.657 31.6366L446.331 34.352L447.608 33.5648L445.934 30.8493L444.657 31.6366ZM441.88 60.1012C441.88 49.6174 443.96 40.9476 447.626 34.3215L446.314 33.5953C442.496 40.4937 440.38 49.4274 440.38 60.1012L441.88 60.1012ZM500.226 161.16C484.151 151.879 469.556 135.923 458.978 117.602C448.4 99.2799 441.88 78.6625 441.88 60.1012L440.38 60.1012C440.38 78.9878 447.005 99.8623 457.679 118.352C468.354 136.841 483.12 153.015 499.476 162.459L500.226 161.16ZM530.47 168.794C521.741 169.953 511.388 167.604 500.226 161.16L499.476 162.459C510.836 169.017 521.522 171.495 530.667 170.281L530.47 168.794ZM529.93 169.932L531.75 172.884L533.027 172.096L531.207 169.144L529.93 169.932ZM532.824 173.101L545.315 164.21L544.445 162.988L531.954 171.879L532.824 173.101ZM545.515 163.2L545.484 163.151L544.214 163.948L544.245 163.997L545.515 163.2Z" fill="#060606"/>
</mask>
<g mask="url(#mask1_3760_42338)">
<rect width="143.436" height="61.6748" transform="matrix(0.866025 -0.5 2.20305e-08 1 504.489 162.2)" fill="#B0F127"/>
</g>
<path d="M544.849 163.552L544.381 162.966L543.857 163.384L544.213 163.951L544.849 163.552ZM499.85 26.2016L499.475 26.8511L499.85 26.2016ZM456.68 23.1184L456.045 23.5172L456.457 24.1735L457.099 23.7403L456.68 23.1184ZM456.676 23.1116L457.311 22.7128L456.888 22.0384L456.24 22.5015L456.676 23.1116ZM456.354 23.3416L456.782 23.9575L456.79 23.9517L456.354 23.3416ZM455.752 23.7716L456.189 24.3818L456.197 24.376L455.752 23.7716ZM445.295 31.2459L444.859 30.6357L444.289 31.0431L444.657 31.6395L445.295 31.2459ZM446.969 33.9613L447.626 34.3245L447.838 33.9409L447.608 33.5677L446.969 33.9613ZM441.129 60.1042L440.379 60.1042L441.129 60.1042ZM499.85 161.812L500.225 161.162L500.225 161.162L499.85 161.812ZM530.568 169.541L531.206 169.147L530.951 168.733L530.469 168.797L530.568 169.541ZM532.388 172.493L531.75 172.887L532.17 173.569L532.823 173.104L532.388 172.493ZM544.88 163.602L545.314 164.213L545.891 163.802L545.515 163.203L544.88 163.602ZM557.821 127.909C557.821 144.355 552.709 156.317 544.381 162.966L545.317 164.138C554.118 157.112 559.321 144.638 559.321 127.909H557.821ZM499.475 26.8511C515.55 36.1317 530.145 52.0873 540.723 70.409C551.301 88.7307 557.821 109.348 557.821 127.909H559.321C559.321 109.023 552.697 88.1483 542.022 69.659C531.347 51.1697 516.582 34.9953 500.225 25.552L499.475 26.8511ZM457.099 23.7403C467.505 16.7235 482.548 17.078 499.475 26.8511L500.225 25.552C483.011 15.613 467.314 15.0433 456.261 22.4966L457.099 23.7403ZM457.315 22.7196L457.311 22.7128L456.041 23.5105L456.045 23.5172L457.315 22.7196ZM456.24 22.5015L455.918 22.7314L456.79 23.9517L457.112 23.7218L456.24 22.5015ZM456.197 24.376C456.39 24.2337 456.585 24.0942 456.782 23.9574L455.926 22.7257C455.718 22.87 455.512 23.0172 455.308 23.1672L456.197 24.376ZM455.316 23.1614L444.859 30.6357L445.731 31.8561L456.189 24.3817L455.316 23.1614ZM444.657 31.6395L446.331 34.355L447.608 33.5677L445.933 30.8523L444.657 31.6395ZM441.879 60.1042C441.879 49.6203 443.959 40.9506 447.626 34.3245L446.313 33.5982C442.496 40.4966 440.379 49.4303 440.379 60.1042L441.879 60.1042ZM500.225 161.162C484.151 151.882 469.556 135.926 458.978 117.605C448.4 99.2828 441.879 78.6654 441.879 60.1042L440.379 60.1042C440.379 78.9907 447.004 99.8652 457.679 118.355C468.354 136.844 483.119 153.018 499.475 162.461L500.225 161.162ZM530.469 168.797C521.741 169.956 511.387 167.607 500.225 161.162L499.475 162.461C510.835 169.02 521.522 171.498 530.667 170.284L530.469 168.797ZM529.929 169.934L531.75 172.887L533.027 172.099L531.206 169.147L529.929 169.934ZM532.823 173.104L545.314 164.213L544.445 162.991L531.953 171.882L532.823 173.104ZM545.515 163.203L545.484 163.153L544.213 163.951L544.244 164L545.515 163.203Z" fill="#060606"/>
<circle r="67.8052" transform="matrix(0.866025 0.5 -2.20305e-08 1 489.042 101.708)" fill="white" stroke="#060606" stroke-width="1.5"/>
<mask id="mask2_3760_42338" style="mask-type:alpha" maskUnits="userSpaceOnUse" x="429" y="25" width="120" height="154">
<circle r="67.8052" transform="matrix(0.866025 0.5 -2.20305e-08 1 489.045 101.708)" fill="#B0F127" stroke="#060606" stroke-width="1.5"/>
</mask>
<g mask="url(#mask2_3760_42338)">
<rect width="143.436" height="76.9182" transform="matrix(0.866025 0.5 2.20305e-08 -1 426.712 68.0146)" fill="white"/>
<circle r="67.8052" transform="matrix(0.866025 0.5 -2.20305e-08 1 489.045 101.708)" stroke="#060606" stroke-width="1.5"/>
<path d="M489.039 67.2893L488.639 68.627L488.639 114.137L489.039 114.829L507.334 112.904L489.039 67.2893Z" fill="#060606"/>
<path d="M489.041 67.2893L470.746 91.7788L489.041 114.829L489.041 92.7395L489.041 67.2893Z" fill="#060606"/>
<path d="M489.041 118.832L488.815 119.019L488.815 135.23L489.041 136.12L507.347 116.92L489.041 118.832Z" fill="#060606"/>
<path d="M489.041 136.116L489.041 118.828L470.746 95.7842L489.041 136.116Z" fill="#060606"/>
<path d="M489.041 114.832L507.336 112.908L489.041 92.7432L489.041 114.832Z" fill="#060606"/>
<path d="M470.746 91.7798L489.041 114.829L489.041 92.7403L470.746 91.7798Z" fill="#060606"/>
</g>
<path fill-rule="evenodd" clip-rule="evenodd" d="M544.849 163.552C553.414 156.714 558.571 144.496 558.571 127.909C558.571 90.4616 532.281 44.9255 499.85 26.2016C482.779 16.3455 467.409 15.8834 456.68 23.1184L456.676 23.1116L456.354 23.3416C456.152 23.4821 455.951 23.6255 455.752 23.7716L445.295 31.2459L446.969 33.9613C443.227 40.7236 441.129 49.5253 441.129 60.1042C441.129 97.5519 467.42 143.088 499.85 161.812C511.111 168.313 521.631 170.727 530.568 169.541L532.388 172.493L544.88 163.602L544.849 163.552Z" fill="#B0F127"/>
<path d="M544.849 163.552L544.381 162.966L543.857 163.384L544.213 163.951L544.849 163.552ZM499.85 26.2016L499.475 26.8511L499.85 26.2016ZM456.68 23.1184L456.045 23.5172L456.457 24.1735L457.099 23.7403L456.68 23.1184ZM456.676 23.1116L457.311 22.7128L456.888 22.0384L456.24 22.5015L456.676 23.1116ZM456.354 23.3416L456.782 23.9575L456.79 23.9517L456.354 23.3416ZM455.752 23.7716L456.189 24.3818L456.197 24.376L455.752 23.7716ZM445.295 31.2459L444.859 30.6357L444.289 31.0431L444.657 31.6395L445.295 31.2459ZM446.969 33.9613L447.626 34.3245L447.838 33.9409L447.608 33.5677L446.969 33.9613ZM441.129 60.1042L440.379 60.1042L441.129 60.1042ZM499.85 161.812L500.225 161.162L500.225 161.162L499.85 161.812ZM530.568 169.541L531.206 169.147L530.951 168.733L530.469 168.797L530.568 169.541ZM532.388 172.493L531.75 172.887L532.17 173.569L532.823 173.104L532.388 172.493ZM544.88 163.602L545.314 164.213L545.891 163.802L545.515 163.203L544.88 163.602ZM557.821 127.909C557.821 144.355 552.709 156.317 544.381 162.966L545.317 164.138C554.118 157.112 559.321 144.638 559.321 127.909H557.821ZM499.475 26.8511C515.55 36.1317 530.145 52.0873 540.723 70.409C551.301 88.7307 557.821 109.348 557.821 127.909H559.321C559.321 109.023 552.697 88.1483 542.022 69.659C531.347 51.1697 516.582 34.9953 500.225 25.552L499.475 26.8511ZM457.099 23.7403C467.505 16.7235 482.548 17.078 499.475 26.8511L500.225 25.552C483.011 15.613 467.314 15.0433 456.261 22.4966L457.099 23.7403ZM457.315 22.7196L457.311 22.7128L456.041 23.5105L456.045 23.5172L457.315 22.7196ZM456.24 22.5015L455.918 22.7314L456.79 23.9517L457.112 23.7218L456.24 22.5015ZM456.197 24.376C456.39 24.2337 456.585 24.0942 456.782 23.9574L455.926 22.7257C455.718 22.87 455.512 23.0172 455.308 23.1672L456.197 24.376ZM455.316 23.1614L444.859 30.6357L445.731 31.8561L456.189 24.3817L455.316 23.1614ZM444.657 31.6395L446.331 34.355L447.608 33.5677L445.933 30.8523L444.657 31.6395ZM441.879 60.1042C441.879 49.6203 443.959 40.9506 447.626 34.3245L446.313 33.5982C442.496 40.4966 440.379 49.4303 440.379 60.1042L441.879 60.1042ZM500.225 161.162C484.151 151.882 469.556 135.926 458.978 117.605C448.4 99.2828 441.879 78.6654 441.879 60.1042L440.379 60.1042C440.379 78.9907 447.004 99.8652 457.679 118.355C468.354 136.844 483.119 153.018 499.475 162.461L500.225 161.162ZM530.469 168.797C521.741 169.956 511.387 167.607 500.225 161.162L499.475 162.461C510.835 169.02 521.522 171.498 530.667 170.284L530.469 168.797ZM529.929 169.934L531.75 172.887L533.027 172.099L531.206 169.147L529.929 169.934ZM532.823 173.104L545.314 164.213L544.445 162.991L531.953 171.882L532.823 173.104ZM545.515 163.203L545.484 163.153L544.213 163.951L544.244 164L545.515 163.203Z" fill="#060606"/>
<mask id="mask3_3760_42338" style="mask-type:alpha" maskUnits="userSpaceOnUse" x="440" y="17" width="120" height="157">
<path fill-rule="evenodd" clip-rule="evenodd" d="M544.849 163.549C553.414 156.711 558.572 144.493 558.572 127.906C558.572 90.4587 532.282 44.9225 499.851 26.1986C482.78 16.3426 467.41 15.8804 456.681 23.1155L456.676 23.1087L456.355 23.3386C456.152 23.4792 455.952 23.6226 455.753 23.7687L445.296 31.243L446.97 33.9584C443.228 40.7207 441.13 49.5224 441.13 60.1012C441.13 97.549 467.42 143.085 499.851 161.809C511.112 168.31 521.632 170.724 530.568 169.538L532.389 172.49L544.88 163.599L544.849 163.549Z" fill="#B0F127"/>
<path d="M544.849 163.549L544.381 162.963L543.858 163.381L544.214 163.948L544.849 163.549ZM499.851 26.1986L500.226 25.5491L500.226 25.5491L499.851 26.1986ZM456.681 23.1155L456.045 23.5143L456.457 24.1706L457.1 23.7373L456.681 23.1155ZM456.676 23.1087L457.311 22.71L456.888 22.0355L456.24 22.4985L456.676 23.1087ZM456.355 23.3386L456.783 23.9545L456.791 23.9488L456.355 23.3386ZM455.753 23.7687L456.189 24.3789L456.197 24.373L455.753 23.7687ZM445.296 31.243L444.859 30.6328L444.289 31.0402L444.657 31.6366L445.296 31.243ZM446.97 33.9584L447.626 34.3215L447.838 33.9379L447.608 33.5648L446.97 33.9584ZM441.13 60.1012L440.38 60.1012L441.13 60.1012ZM499.851 161.809L500.226 161.16L500.226 161.16L499.851 161.809ZM530.568 169.538L531.207 169.144L530.952 168.73L530.47 168.794L530.568 169.538ZM532.389 172.49L531.75 172.884L532.171 173.566L532.824 173.101L532.389 172.49ZM544.88 163.599L545.315 164.21L545.892 163.799L545.515 163.2L544.88 163.599ZM557.822 127.906C557.822 144.352 552.71 156.314 544.381 162.963L545.317 164.135C554.118 157.109 559.322 144.635 559.322 127.906H557.822ZM499.476 26.8482C515.55 36.1288 530.145 52.0844 540.723 70.4061C551.301 88.7278 557.822 109.345 557.822 127.906H559.322C559.322 109.02 552.697 88.1454 542.022 69.6561C531.348 51.1668 516.582 34.9924 500.226 25.5491L499.476 26.8482ZM457.1 23.7373C467.506 16.7205 482.548 17.075 499.476 26.8482L500.226 25.5491C483.011 15.6101 467.314 15.0404 456.261 22.4937L457.1 23.7373ZM457.316 22.7167L457.311 22.71L456.041 23.5075L456.045 23.5143L457.316 22.7167ZM456.24 22.4985L455.918 22.7285L456.791 23.9488L457.112 23.7189L456.24 22.4985ZM456.197 24.373C456.391 24.2308 456.586 24.0913 456.783 23.9545L455.927 22.7228C455.719 22.8671 455.513 23.0143 455.309 23.1643L456.197 24.373ZM455.317 23.1585L444.859 30.6328L445.732 31.8531L456.189 24.3788L455.317 23.1585ZM444.657 31.6366L446.331 34.352L447.608 33.5648L445.934 30.8493L444.657 31.6366ZM441.88 60.1012C441.88 49.6174 443.96 40.9476 447.626 34.3215L446.314 33.5953C442.496 40.4937 440.38 49.4274 440.38 60.1012L441.88 60.1012ZM500.226 161.16C484.151 151.879 469.556 135.923 458.978 117.602C448.4 99.2799 441.88 78.6625 441.88 60.1012L440.38 60.1012C440.38 78.9878 447.005 99.8623 457.679 118.352C468.354 136.841 483.12 153.015 499.476 162.459L500.226 161.16ZM530.47 168.794C521.741 169.953 511.388 167.604 500.226 161.16L499.476 162.459C510.836 169.017 521.522 171.495 530.667 170.281L530.47 168.794ZM529.93 169.932L531.75 172.884L533.027 172.096L531.207 169.144L529.93 169.932ZM532.824 173.101L545.315 164.21L544.445 162.988L531.954 171.879L532.824 173.101ZM545.515 163.2L545.484 163.151L544.214 163.948L544.245 163.997L545.515 163.2Z" fill="#060606"/>
</mask>
<g mask="url(#mask3_3760_42338)">
<rect width="143.436" height="61.6748" transform="matrix(0.866025 -0.5 2.20305e-08 1 504.489 162.2)" fill="#B0F127"/>
</g>
<path d="M544.849 163.552L544.381 162.966L543.857 163.384L544.213 163.951L544.849 163.552ZM499.85 26.2016L499.475 26.8511L499.85 26.2016ZM456.68 23.1184L456.045 23.5172L456.457 24.1735L457.099 23.7403L456.68 23.1184ZM456.676 23.1116L457.311 22.7128L456.888 22.0384L456.24 22.5015L456.676 23.1116ZM456.354 23.3416L456.782 23.9575L456.79 23.9517L456.354 23.3416ZM455.752 23.7716L456.189 24.3818L456.197 24.376L455.752 23.7716ZM445.295 31.2459L444.859 30.6357L444.289 31.0431L444.657 31.6395L445.295 31.2459ZM446.969 33.9613L447.626 34.3245L447.838 33.9409L447.608 33.5677L446.969 33.9613ZM441.129 60.1042L440.379 60.1042L441.129 60.1042ZM499.85 161.812L500.225 161.162L500.225 161.162L499.85 161.812ZM530.568 169.541L531.206 169.147L530.951 168.733L530.469 168.797L530.568 169.541ZM532.388 172.493L531.75 172.887L532.17 173.569L532.823 173.104L532.388 172.493ZM544.88 163.602L545.314 164.213L545.891 163.802L545.515 163.203L544.88 163.602ZM557.821 127.909C557.821 144.355 552.709 156.317 544.381 162.966L545.317 164.138C554.118 157.112 559.321 144.638 559.321 127.909H557.821ZM499.475 26.8511C515.55 36.1317 530.145 52.0873 540.723 70.409C551.301 88.7307 557.821 109.348 557.821 127.909H559.321C559.321 109.023 552.697 88.1483 542.022 69.659C531.347 51.1697 516.582 34.9953 500.225 25.552L499.475 26.8511ZM457.099 23.7403C467.505 16.7235 482.548 17.078 499.475 26.8511L500.225 25.552C483.011 15.613 467.314 15.0433 456.261 22.4966L457.099 23.7403ZM457.315 22.7196L457.311 22.7128L456.041 23.5105L456.045 23.5172L457.315 22.7196ZM456.24 22.5015L455.918 22.7314L456.79 23.9517L457.112 23.7218L456.24 22.5015ZM456.197 24.376C456.39 24.2337 456.585 24.0942 456.782 23.9574L455.926 22.7257C455.718 22.87 455.512 23.0172 455.308 23.1672L456.197 24.376ZM455.316 23.1614L444.859 30.6357L445.731 31.8561L456.189 24.3817L455.316 23.1614ZM444.657 31.6395L446.331 34.355L447.608 33.5677L445.933 30.8523L444.657 31.6395ZM441.879 60.1042C441.879 49.6203 443.959 40.9506 447.626 34.3245L446.313 33.5982C442.496 40.4966 440.379 49.4303 440.379 60.1042L441.879 60.1042ZM500.225 161.162C484.151 151.882 469.556 135.926 458.978 117.605C448.4 99.2828 441.879 78.6654 441.879 60.1042L440.379 60.1042C440.379 78.9907 447.004 99.8652 457.679 118.355C468.354 136.844 483.119 153.018 499.475 162.461L500.225 161.162ZM530.469 168.797C521.741 169.956 511.387 167.607 500.225 161.162L499.475 162.461C510.835 169.02 521.522 171.498 530.667 170.284L530.469 168.797ZM529.929 169.934L531.75 172.887L533.027 172.099L531.206 169.147L529.929 169.934ZM532.823 173.104L545.314 164.213L544.445 162.991L531.953 171.882L532.823 173.104ZM545.515 163.203L545.484 163.153L544.213 163.951L544.244 164L545.515 163.203Z" fill="#060606"/>
<circle r="67.8052" transform="matrix(0.866025 0.5 -2.20305e-08 1 489.042 101.708)" fill="white" stroke="#060606" stroke-width="1.5"/>
<mask id="mask4_3760_42338" style="mask-type:alpha" maskUnits="userSpaceOnUse" x="429" y="25" width="120" height="154">
<circle r="67.8052" transform="matrix(0.866025 0.5 -2.20305e-08 1 489.045 101.708)" fill="#B0F127" stroke="#060606" stroke-width="1.5"/>
</mask>
<g mask="url(#mask4_3760_42338)">
<rect width="143.436" height="76.9182" transform="matrix(0.866025 0.5 2.20305e-08 -1 426.712 68.0146)" fill="white"/>
<circle r="67.8052" transform="matrix(0.866025 0.5 -2.20305e-08 1 489.045 101.708)" stroke="#060606" stroke-width="1.5"/>
<path d="M489.039 67.2893L488.639 68.627L488.639 114.137L489.039 114.829L507.334 112.904L489.039 67.2893Z" fill="#060606"/>
<path d="M489.041 67.2893L470.746 91.7788L489.041 114.829L489.041 92.7395L489.041 67.2893Z" fill="#060606"/>
<path d="M489.041 118.832L488.815 119.019L488.815 135.23L489.041 136.12L507.347 116.92L489.041 118.832Z" fill="#060606"/>
<path d="M489.041 136.116L489.041 118.828L470.746 95.7842L489.041 136.116Z" fill="#060606"/>
<path d="M489.041 114.832L507.336 112.908L489.041 92.7432L489.041 114.832Z" fill="#060606"/>
<path d="M470.746 91.7798L489.041 114.829L489.041 92.7403L470.746 91.7798Z" fill="#060606"/>
</g>
<path fill-rule="evenodd" clip-rule="evenodd" d="M69.9024 219.738L58.4646 213.134C56.5514 212.03 55.0005 212.925 55.0005 215.134V224.227C55.0005 226.436 56.5514 229.123 58.4646 230.227L111.043 260.583C111.38 260.778 111.705 260.91 112.012 260.984L337.215 391.005C344.867 395.423 357.275 395.423 364.927 391.005L577.154 268.476C577.676 268.175 578.162 267.861 578.613 267.535L586.136 263.192C588.528 261.811 590.466 258.453 590.466 255.692V248.017C590.466 245.256 588.528 244.136 586.136 245.517L575.619 251.59L309.032 97.676C301.38 93.2577 288.972 93.2577 281.32 97.676L69.9024 219.738Z" fill="#060606"/>
<rect width="286.492" height="352.442" rx="16" transform="matrix(0.866025 -0.5 0.866025 0.5 47.0674 216.432)" fill="white"/>
<rect width="237.972" height="176.532" rx="16" transform="matrix(0.866025 -0.5 0.866025 0.5 193.5 276.121)" fill="#E7E7E7"/>
<path d="M305.514 340.048C305.514 340.048 319.477 331.726 322.746 324.468C326.016 317.209 319.313 314.415 324.006 309.198C328.596 304.086 339.136 304.269 340.665 299.58C343.457 290.987 325.598 280.682 338.463 273.254C351.329 265.826 383.135 283.715 399.139 274.475C415.143 265.235 348.33 214.283 365.156 204.569C381.982 194.854 477.039 240.124 509.458 221.407" stroke="#060606" stroke-width="1.5" stroke-miterlimit="10" stroke-linecap="square"/>
<circle r="4.76793" transform="matrix(0.866025 -0.5 0.866025 0.5 362.572 207.758)" fill="#060606"/>
<path d="M102.293 227.102L310 107.182" stroke="#060606" stroke-width="1.5" stroke-miterlimit="10" stroke-linecap="round" stroke-linejoin="round"/>
<path d="M302.534 130.391L324.355 117.792" stroke="#060606" stroke-width="1.5" stroke-miterlimit="10" stroke-linecap="round" stroke-linejoin="round"/>
<path d="M238.13 167.574L295.616 134.385" stroke="#060606" stroke-width="1.5" stroke-miterlimit="10" stroke-linecap="round" stroke-linejoin="round"/>
<path d="M182.772 199.535L231.212 171.568" stroke="#060606" stroke-width="1.5" stroke-miterlimit="10" stroke-linecap="round" stroke-linejoin="round"/>
<path d="M152.969 216.742L178.518 201.991" stroke="#060606" stroke-width="1.5" stroke-miterlimit="10" stroke-linecap="round" stroke-linejoin="round"/>
<path d="M121.034 235.18L148.18 219.507" stroke="#060606" stroke-width="1.5" stroke-miterlimit="10" stroke-linecap="round" stroke-linejoin="round"/>
<path d="M305.193 142.988L336.595 124.859" stroke="#060606" stroke-width="1.5" stroke-miterlimit="10" stroke-linecap="round" stroke-linejoin="round"/>
<path d="M225.888 188.775L299.869 146.063" stroke="#060606" stroke-width="1.5" stroke-miterlimit="10" stroke-linecap="round" stroke-linejoin="round"/>
<path d="M164.674 224.117L218.966 192.772" stroke="#060606" stroke-width="1.5" stroke-miterlimit="10" stroke-linecap="round" stroke-linejoin="round"/>
<path d="M133.273 242.246L160.419 226.573" stroke="#060606" stroke-width="1.5" stroke-miterlimit="10" stroke-linecap="round" stroke-linejoin="round"/>
<path d="M327.553 144.214L348.838 131.925" stroke="#060606" stroke-width="1.5" stroke-miterlimit="10" stroke-linecap="round" stroke-linejoin="round"/>
<path d="M264.208 180.786L322.228 147.288" stroke="#060606" stroke-width="1.5" stroke-miterlimit="10" stroke-linecap="round" stroke-linejoin="round"/>
<path d="M221.627 205.37L257.292 184.779" stroke="#060606" stroke-width="1.5" stroke-miterlimit="10" stroke-linecap="round" stroke-linejoin="round"/>
<path d="M174.784 232.415L215.774 208.749" stroke="#060606" stroke-width="1.5" stroke-miterlimit="10" stroke-linecap="round" stroke-linejoin="round"/>
<path d="M145.515 249.313L169.994 235.18" stroke="#060606" stroke-width="1.5" stroke-miterlimit="10" stroke-linecap="round" stroke-linejoin="round"/>
<path d="M362.155 147.598L369.069 143.606" stroke="#060606" stroke-width="1.5" stroke-miterlimit="10" stroke-linecap="round" stroke-linejoin="round"/>
<path d="M312.652 176.178L355.767 151.286" stroke="#060606" stroke-width="1.5" stroke-miterlimit="10" stroke-linecap="round" stroke-linejoin="round"/>
<path d="M248.78 213.055L306.792 179.561" stroke="#060606" stroke-width="1.5" stroke-miterlimit="10" stroke-linecap="round" stroke-linejoin="round"/>
<path d="M230.678 223.506L243.987 215.822" stroke="#060606" stroke-width="1.5" stroke-miterlimit="10" stroke-linecap="round" stroke-linejoin="round"/>
<path d="M180.645 252.393L225.356 226.579" stroke="#060606" stroke-width="1.5" stroke-miterlimit="10" stroke-linecap="round" stroke-linejoin="round"/>
<path d="M165.746 260.994L175.854 255.158" stroke="#060606" stroke-width="1.5" stroke-miterlimit="10" stroke-linecap="round" stroke-linejoin="round"/>
<path fill-rule="evenodd" clip-rule="evenodd" d="M501.821 224.835C496.641 215.77 487.807 207.248 475.319 200.038C432.642 175.399 363.45 175.399 320.773 200.038C308.285 207.248 299.451 215.77 294.271 224.835H288.801V243.049C288.071 259.726 298.729 276.538 320.773 289.265C363.45 313.904 432.642 313.904 475.319 289.265C496.875 276.82 507.543 260.469 507.323 244.157H507.328V224.835H501.821Z" fill="#B0F127"/>
<path fill-rule="evenodd" clip-rule="evenodd" d="M503.108 227.25C498.174 217.286 488.911 207.886 475.319 200.038C432.642 175.399 363.45 175.399 320.773 200.038C307.181 207.886 297.918 217.286 292.984 227.25H288.801L288.801 243.046C288.754 244.116 288.754 245.187 288.801 246.257L288.801 246.814H288.829C289.74 262.233 300.388 277.496 320.773 289.265C363.45 313.904 432.642 313.904 475.319 289.265C497.698 276.344 508.342 259.213 507.25 242.288V227.25H503.108Z" fill="#B0F127"/>
<path d="M475.319 200.038L474.944 200.688L474.944 200.688L475.319 200.038ZM503.108 227.25L502.436 227.583L502.643 228H503.108V227.25ZM320.773 200.038L321.148 200.688L320.773 200.038ZM292.984 227.25V228H293.449L293.656 227.583L292.984 227.25ZM288.801 227.25V226.5H288.051L288.051 227.25L288.801 227.25ZM288.801 243.046L289.55 243.079L289.551 243.063L289.551 243.046L288.801 243.046ZM288.801 246.257L289.551 246.257L289.551 246.24L289.55 246.224L288.801 246.257ZM288.801 246.814L288.051 246.814L288.051 247.564H288.801V246.814ZM288.829 246.814L289.578 246.77L289.536 246.064H288.829V246.814ZM320.773 289.265L320.398 289.915L320.398 289.915L320.773 289.265ZM475.319 289.265L475.694 289.915L475.694 289.915L475.319 289.265ZM507.25 242.288H506.5V242.312L506.502 242.336L507.25 242.288ZM507.25 227.25H508V226.5H507.25V227.25ZM474.944 200.688C488.444 208.482 497.584 217.785 502.436 227.583L503.78 226.917C498.764 216.787 489.378 207.289 475.694 199.389L474.944 200.688ZM321.148 200.688C342.346 188.449 370.175 182.309 398.046 182.309C425.916 182.309 453.746 188.449 474.944 200.688L475.694 199.389C454.215 186.988 426.11 180.809 398.046 180.809C369.982 180.809 341.877 186.988 320.398 199.389L321.148 200.688ZM293.656 227.583C298.508 217.785 307.648 208.482 321.148 200.688L320.398 199.389C306.714 207.289 297.328 216.787 292.311 226.917L293.656 227.583ZM288.801 228H292.984V226.5H288.801V228ZM289.551 243.046L289.551 227.25L288.051 227.25L288.051 243.046L289.551 243.046ZM289.55 246.224C289.504 245.176 289.504 244.127 289.55 243.079L288.051 243.014C288.004 244.105 288.004 245.198 288.051 246.29L289.55 246.224ZM289.551 246.814L289.551 246.257L288.051 246.257L288.051 246.814L289.551 246.814ZM288.829 246.064H288.801V247.564H288.829V246.064ZM321.148 288.616C300.894 276.922 290.469 261.851 289.578 246.77L288.081 246.859C289.011 262.615 299.882 278.069 320.398 289.915L321.148 288.616ZM474.944 288.616C453.746 300.854 425.916 306.995 398.046 306.995C370.175 306.995 342.346 300.854 321.148 288.616L320.398 289.915C341.877 302.316 369.982 308.495 398.046 308.495C426.11 308.495 454.215 302.316 475.694 289.915L474.944 288.616ZM506.502 242.336C507.569 258.874 497.18 275.777 474.944 288.616L475.694 289.915C498.217 276.911 509.116 259.553 507.998 242.24L506.502 242.336ZM506.5 227.25V242.288H508V227.25H506.5ZM503.108 228H507.25V226.5H503.108V228Z" fill="#060606"/>
<circle r="89.227" transform="matrix(0.866025 -0.5 0.866025 0.5 398.047 228.072)" fill="#141414"/>
<mask id="mask5_3760_42338" style="mask-type:alpha" maskUnits="userSpaceOnUse" x="313" y="193" width="170" height="99">
<circle r="68.937" transform="matrix(0.866025 -0.5 0.866025 0.5 398.047 242.26)" fill="#060606"/>
</mask>
<g mask="url(#mask5_3760_42338)">
<circle r="71.816" transform="matrix(0.866025 -0.5 0.866025 0.5 398.046 244.734)" fill="#F4F4F4" stroke="#060606" stroke-width="1.5"/>
<path d="M356.026 338.703C356.026 338.703 369.904 330.431 373.154 323.217C376.404 316.003 369.741 313.225 374.406 308.04C378.968 302.959 389.444 303.141 390.963 298.481C393.739 289.94 375.988 279.697 388.775 272.315C401.562 264.932 433.175 282.712 449.082 273.529C464.989 264.345 398.582 213.702 415.306 204.047C432.029 194.391 526.509 239.386 558.731 220.783" stroke="#060606" stroke-width="1.5" stroke-miterlimit="10" stroke-linecap="round"/>
<circle r="5.51793" transform="matrix(0.866025 -0.5 0.866025 0.5 412.822 206.76)" fill="#B0F127" stroke="#060606" stroke-width="1.5"/>
</g>
<path d="M475.319 183.459C517.995 208.098 517.995 248.046 475.319 272.686C432.642 297.325 363.449 297.325 320.773 272.686C278.096 248.046 278.096 208.098 320.773 183.459C363.449 158.819 432.642 158.819 475.319 183.459ZM336.227 263.763C370.369 283.475 425.723 283.475 459.864 263.763C494.005 244.052 494.005 212.093 459.864 192.381C425.723 172.67 370.369 172.67 336.227 192.381C302.086 212.093 302.086 244.052 336.227 263.763Z" fill="white" stroke="#060606" stroke-width="1.5"/>
<path fill-rule="evenodd" clip-rule="evenodd" d="M469.521 294.945C466.682 293.485 464.91 290.118 464.91 285.251C464.91 275.862 471.502 264.445 479.633 259.751C483.914 257.279 487.768 257.164 490.458 258.979L490.458 258.979L498.899 264.331L493.977 272.314C492.606 279.956 487.65 288.082 481.514 292.528L477.064 299.745L469.521 294.945Z" fill="#B0F127"/>
<path d="M469.521 294.945L469.864 294.278L469.895 294.294L469.924 294.312L469.521 294.945ZM479.633 259.751L479.258 259.101L479.258 259.101L479.633 259.751ZM490.458 258.979L491.098 259.371L490.689 260.039L490.039 259.601L490.458 258.979ZM490.458 258.979L489.819 258.587L490.217 257.938L490.86 258.346L490.458 258.979ZM498.899 264.331L499.301 263.698L499.927 264.095L499.538 264.725L498.899 264.331ZM493.977 272.314L493.239 272.182L493.264 272.042L493.339 271.921L493.977 272.314ZM481.514 292.528L480.875 292.134L480.953 292.008L481.073 291.92L481.514 292.528ZM477.064 299.745L477.702 300.138L477.303 300.786L476.661 300.377L477.064 299.745ZM465.66 285.251C465.66 289.955 467.365 292.993 469.864 294.278L469.178 295.612C465.999 293.977 464.16 290.282 464.16 285.251H465.66ZM480.008 260.4C476.083 262.666 472.488 266.585 469.872 271.116C467.256 275.646 465.66 280.719 465.66 285.251H464.16C464.16 280.394 465.86 275.064 468.573 270.366C471.286 265.667 475.052 261.53 479.258 259.101L480.008 260.4ZM490.039 259.601C487.672 258.004 484.145 258.012 480.008 260.4L479.258 259.101C483.683 256.547 487.864 256.324 490.878 258.357L490.039 259.601ZM489.819 258.588L489.819 258.587L491.098 259.371L491.098 259.371L489.819 258.588ZM490.86 258.346L499.301 263.698L498.498 264.965L490.057 259.612L490.86 258.346ZM499.538 264.725L494.616 272.708L493.339 271.921L498.261 263.938L499.538 264.725ZM481.073 291.92C487.044 287.594 491.9 279.642 493.239 272.182L494.715 272.447C493.311 280.269 488.255 288.569 481.954 293.135L481.073 291.92ZM482.152 292.921L477.702 300.138L476.425 299.351L480.875 292.134L482.152 292.921ZM476.661 300.377L469.118 295.578L469.924 294.312L477.466 299.112L476.661 300.377Z" fill="#060606"/>
<circle r="17" transform="matrix(-0.866025 0.5 2.84138e-08 1 488.405 282.244)" fill="#060606" stroke="#060606" stroke-width="1.5"/>
<path fill-rule="evenodd" clip-rule="evenodd" d="M482.71 296.304C480.691 295.246 479.433 292.835 479.433 289.358C479.433 282.614 484.167 274.414 490.007 271.042C493.045 269.288 495.783 269.186 497.712 270.441L610.654 335.648L606.336 338.141L607.148 338.571L598.849 354.224L596.597 353.031V362.056L482.71 296.304Z" fill="#B0F127"/>
<path d="M482.71 296.304L483.058 295.639C483.067 295.644 483.076 295.649 483.085 295.654L482.71 296.304ZM490.007 271.042L489.632 270.392L489.632 270.392L490.007 271.042ZM497.712 270.441L497.337 271.09C497.326 271.083 497.314 271.077 497.303 271.069L497.712 270.441ZM610.654 335.648L611.029 334.998C611.261 335.132 611.404 335.38 611.404 335.648C611.404 335.916 611.261 336.163 611.029 336.297L610.654 335.648ZM606.336 338.141L605.985 338.803C605.744 338.676 605.591 338.427 605.586 338.154C605.581 337.882 605.725 337.628 605.961 337.491L606.336 338.141ZM607.148 338.571L607.499 337.909C607.865 338.103 608.004 338.557 607.81 338.923L607.148 338.571ZM598.849 354.224L599.512 354.576C599.418 354.751 599.259 354.883 599.069 354.941C598.879 355 598.673 354.98 598.498 354.887L598.849 354.224ZM596.597 353.031H595.847C595.847 352.767 595.985 352.524 596.211 352.388C596.436 352.252 596.716 352.245 596.948 352.368L596.597 353.031ZM596.597 362.056H597.347C597.347 362.324 597.204 362.572 596.972 362.706C596.74 362.84 596.454 362.84 596.222 362.706L596.597 362.056ZM480.183 289.358C480.183 292.672 481.374 294.757 483.058 295.639L482.362 296.968C480.007 295.734 478.683 292.997 478.683 289.358H480.183ZM490.382 271.691C487.603 273.296 485.045 276.08 483.179 279.311C481.314 282.541 480.183 286.149 480.183 289.358H478.683C478.683 285.824 479.918 281.959 481.88 278.561C483.842 275.162 486.571 272.16 489.632 270.392L490.382 271.691ZM497.303 271.069C495.696 270.024 493.278 270.02 490.382 271.691L489.632 270.392C492.812 268.557 495.871 268.348 498.121 269.812L497.303 271.069ZM610.279 336.297L497.337 271.09L498.087 269.791L611.029 334.998L610.279 336.297ZM605.961 337.491L610.279 334.998L611.029 336.297L606.711 338.79L605.961 337.491ZM606.796 339.234L605.985 338.803L606.687 337.478L607.499 337.909L606.796 339.234ZM598.186 353.873L606.485 338.22L607.81 338.923L599.512 354.576L598.186 353.873ZM596.948 352.368L599.2 353.562L598.498 354.887L596.246 353.693L596.948 352.368ZM595.847 362.056V353.031H597.347V362.056H595.847ZM483.085 295.654L596.972 361.407L596.222 362.706L482.335 296.953L483.085 295.654Z" fill="#060606"/>
<circle r="12.0708" transform="matrix(-0.866025 0.5 2.20305e-08 1 605.273 349.893)" fill="#060606" stroke="#060606" stroke-width="1.5" stroke-linejoin="round"/>
<path fill-rule="evenodd" clip-rule="evenodd" d="M167.545 307.467C164.546 302.004 159.295 296.864 151.791 292.531C126.791 278.098 86.2596 278.098 61.2604 292.531C53.7563 296.864 48.5047 302.004 45.5057 307.467H42.5059V318.164H42.5168C42.2922 327.789 48.5401 337.455 61.2604 344.799C86.2596 359.232 126.791 359.232 151.791 344.799C164.511 337.455 170.759 327.789 170.534 318.164H170.582V307.467H167.545Z" fill="#B0F127"/>
<path d="M151.791 292.531L151.416 293.181L151.416 293.181L151.791 292.531ZM167.545 307.467L166.888 307.828L167.101 308.217H167.545V307.467ZM61.2604 292.531L61.6354 293.181L61.6354 293.181L61.2604 292.531ZM45.5057 307.467V308.217H45.9496L46.1632 307.828L45.5057 307.467ZM42.5059 307.467V306.717H41.7559V307.467H42.5059ZM42.5059 318.164H41.7559V318.914H42.5059V318.164ZM42.5168 318.164L43.2666 318.181L43.2845 317.414H42.5168V318.164ZM61.2604 344.799L60.8854 345.448L60.8854 345.448L61.2604 344.799ZM151.791 344.799L152.166 345.448L152.166 345.448L151.791 344.799ZM170.534 318.164V317.414H169.767L169.784 318.181L170.534 318.164ZM170.582 318.164V318.914H171.332V318.164H170.582ZM170.582 307.467H171.332V306.717H170.582V307.467ZM151.416 293.181C158.833 297.463 163.97 302.514 166.888 307.828L168.203 307.107C165.122 301.494 159.757 296.264 152.166 291.882L151.416 293.181ZM61.6354 293.181C73.9942 286.045 90.2395 282.456 106.526 282.456C122.811 282.456 139.057 286.045 151.416 293.181L152.166 291.882C139.525 284.584 123.005 280.956 106.526 280.956C90.046 280.956 73.5258 284.584 60.8854 291.882L61.6354 293.181ZM46.1632 307.828C49.0805 302.514 54.2182 297.463 61.6354 293.181L60.8854 291.882C53.2944 296.264 47.929 301.494 44.8482 307.107L46.1632 307.828ZM42.5059 308.217H45.5057V306.717H42.5059V308.217ZM43.2559 318.164V307.467H41.7559V318.164H43.2559ZM42.5168 317.414H42.5059V318.914H42.5168V317.414ZM61.6354 344.149C49.054 336.885 43.0507 327.435 43.2666 318.181L41.767 318.146C41.5338 328.143 48.0261 338.024 60.8854 345.448L61.6354 344.149ZM151.416 344.149C139.057 351.285 122.811 354.874 106.526 354.874C90.2395 354.874 73.9942 351.285 61.6354 344.149L60.8854 345.448C73.5258 352.746 90.046 356.374 106.526 356.374C123.005 356.374 139.525 352.746 152.166 345.448L151.416 344.149ZM169.784 318.181C170 327.435 163.997 336.885 151.416 344.149L152.166 345.448C165.025 338.024 171.517 328.143 171.284 318.146L169.784 318.181ZM170.582 317.414H170.534V318.914H170.582V317.414ZM169.832 307.467V318.164H171.332V307.467H169.832ZM167.545 308.217H170.582V306.717H167.545V308.217Z" fill="#060606"/>
<mask id="mask6_3760_42338" style="mask-type:alpha" maskUnits="userSpaceOnUse" x="41" y="278" width="131" height="77">
<path fill-rule="evenodd" clip-rule="evenodd" d="M167.544 305.38C164.545 299.917 159.294 294.777 151.791 290.445C126.791 276.012 86.2596 276.012 61.2604 290.445C53.7572 294.777 48.5059 299.917 45.5067 305.38H42.5059V316.076H42.5168C42.2914 325.702 48.5393 335.368 61.2604 342.713C86.2596 357.146 126.791 357.146 151.791 342.713C164.512 335.368 170.76 325.702 170.534 316.076H170.582V305.38H167.544Z" fill="#71A407"/>
<path d="M151.791 290.445L151.416 291.095L151.416 291.095L151.791 290.445ZM167.544 305.38L166.887 305.741L167.1 306.13H167.544V305.38ZM61.2604 290.445L61.6354 291.095L61.6354 291.095L61.2604 290.445ZM45.5067 305.38V306.13H45.9506L46.1642 305.741L45.5067 305.38ZM42.5059 305.38V304.63H41.7559V305.38H42.5059ZM42.5059 316.076H41.7559V316.826H42.5059V316.076ZM42.5168 316.076L43.2666 316.094L43.2846 315.326H42.5168V316.076ZM61.2604 342.713L61.6354 342.063L61.6354 342.063L61.2604 342.713ZM151.791 342.713L152.166 343.362L152.166 343.362L151.791 342.713ZM170.534 316.076V315.326H169.766L169.784 316.094L170.534 316.076ZM170.582 316.076V316.826H171.332V316.076H170.582ZM170.582 305.38H171.332V304.63H170.582V305.38ZM151.416 291.095C158.832 295.376 163.969 300.427 166.887 305.741L168.202 305.019C165.121 299.407 159.756 294.178 152.166 289.796L151.416 291.095ZM61.6354 291.095C73.9942 283.959 90.2395 280.37 106.526 280.37C122.811 280.37 139.057 283.959 151.416 291.095L152.166 289.796C139.525 282.498 123.005 278.87 106.526 278.87C90.046 278.87 73.5258 282.498 60.8854 289.796L61.6354 291.095ZM46.1642 305.741C49.0817 300.427 54.2191 295.376 61.6354 291.095L60.8854 289.796C53.2952 294.178 47.9302 299.407 44.8493 305.019L46.1642 305.741ZM42.5059 306.13H45.5067V304.63H42.5059V306.13ZM43.2559 316.076V305.38H41.7559V316.076H43.2559ZM42.5168 315.326H42.5059V316.826H42.5168V315.326ZM61.6354 342.063C49.0532 334.799 43.0499 325.347 43.2666 316.094L41.767 316.059C41.5329 326.056 48.0253 335.938 60.8854 343.362L61.6354 342.063ZM151.416 342.063C139.057 349.199 122.811 352.788 106.526 352.788C90.2395 352.788 73.9942 349.199 61.6354 342.063L60.8854 343.362C73.5258 350.66 90.046 354.288 106.526 354.288C123.005 354.288 139.525 350.66 152.166 343.362L151.416 342.063ZM169.784 316.094C170.001 325.347 163.998 334.799 151.416 342.063L152.166 343.362C165.026 335.938 171.518 326.056 171.284 316.059L169.784 316.094ZM170.582 315.326H170.534V316.826H170.582V315.326ZM169.832 305.38V316.076H171.332V305.38H169.832ZM167.544 306.13H170.582V304.63H167.544V306.13Z" fill="#060606"/>
</mask>
<g mask="url(#mask6_3760_42338)">
<rect width="64.0394" height="52.2669" transform="matrix(-1 0 0 1 106.551 305.379)" fill="#B0F127"/>
</g>
<path d="M151.791 292.531L151.416 293.181L151.416 293.181L151.791 292.531ZM167.545 307.467L166.888 307.828L167.101 308.217H167.545V307.467ZM61.2604 292.531L61.6354 293.181L61.6354 293.181L61.2604 292.531ZM45.5057 307.467V308.217H45.9496L46.1632 307.828L45.5057 307.467ZM42.5059 307.467V306.717H41.7559V307.467H42.5059ZM42.5059 318.164H41.7559V318.914H42.5059V318.164ZM42.5168 318.164L43.2666 318.181L43.2845 317.414H42.5168V318.164ZM61.2604 344.799L60.8854 345.448L60.8854 345.448L61.2604 344.799ZM151.791 344.799L152.166 345.448L152.166 345.448L151.791 344.799ZM170.534 318.164V317.414H169.767L169.784 318.181L170.534 318.164ZM170.582 318.164V318.914H171.332V318.164H170.582ZM170.582 307.467H171.332V306.717H170.582V307.467ZM151.416 293.181C158.833 297.463 163.97 302.514 166.888 307.828L168.203 307.107C165.122 301.494 159.757 296.264 152.166 291.882L151.416 293.181ZM61.6354 293.181C73.9942 286.045 90.2395 282.456 106.526 282.456C122.811 282.456 139.057 286.045 151.416 293.181L152.166 291.882C139.525 284.584 123.005 280.956 106.526 280.956C90.046 280.956 73.5258 284.584 60.8854 291.882L61.6354 293.181ZM46.1632 307.828C49.0805 302.514 54.2182 297.463 61.6354 293.181L60.8854 291.882C53.2944 296.264 47.929 301.494 44.8482 307.107L46.1632 307.828ZM42.5059 308.217H45.5057V306.717H42.5059V308.217ZM43.2559 318.164V307.467H41.7559V318.164H43.2559ZM42.5168 317.414H42.5059V318.914H42.5168V317.414ZM61.6354 344.149C49.054 336.885 43.0507 327.435 43.2666 318.181L41.767 318.146C41.5338 328.143 48.0261 338.024 60.8854 345.448L61.6354 344.149ZM151.416 344.149C139.057 351.285 122.811 354.874 106.526 354.874C90.2395 354.874 73.9942 351.285 61.6354 344.149L60.8854 345.448C73.5258 352.746 90.046 356.374 106.526 356.374C123.005 356.374 139.525 352.746 152.166 345.448L151.416 344.149ZM169.784 318.181C170 327.435 163.997 336.885 151.416 344.149L152.166 345.448C165.025 338.024 171.517 328.143 171.284 318.146L169.784 318.181ZM170.582 317.414H170.534V318.914H170.582V317.414ZM169.832 307.467V318.164H171.332V307.467H169.832ZM167.545 308.217H170.582V306.717H167.545V308.217Z" fill="#060606"/>
<circle r="52.2677" transform="matrix(0.866025 -0.5 0.866025 0.5 106.53 303.363)" fill="white" stroke="#060606" stroke-width="1.5"/>
<path fill-rule="evenodd" clip-rule="evenodd" d="M231.608 349.268C228.609 343.805 223.357 338.664 215.853 334.332C190.854 319.899 150.322 319.899 125.323 334.332C117.819 338.664 112.567 343.805 109.568 349.268H106.568V359.965H106.579C106.355 369.59 112.603 379.255 125.323 386.599C150.322 401.033 190.854 401.033 215.853 386.599C228.573 379.255 234.821 369.59 234.597 359.965H234.645V349.268H231.608Z" fill="#B0F127"/>
<path d="M215.853 334.332L216.228 333.682L215.853 334.332ZM231.608 349.268L230.95 349.629L231.164 350.018H231.608V349.268ZM125.323 334.332L125.698 334.981L125.698 334.981L125.323 334.332ZM109.568 349.268V350.018H110.012L110.226 349.629L109.568 349.268ZM106.568 349.268V348.518H105.818V349.268H106.568ZM106.568 359.965H105.818V360.715H106.568V359.965ZM106.579 359.965L107.329 359.982L107.347 359.215H106.579V359.965ZM125.323 386.599L124.948 387.249L124.948 387.249L125.323 386.599ZM215.853 386.599L216.228 387.249L215.853 386.599ZM234.597 359.965V359.215H233.829L233.847 359.982L234.597 359.965ZM234.645 359.965V360.715H235.395V359.965H234.645ZM234.645 349.268H235.395V348.518H234.645V349.268ZM215.478 334.981C222.895 339.264 228.033 344.315 230.95 349.629L232.265 348.907C229.185 343.295 223.819 338.065 216.228 333.682L215.478 334.981ZM125.698 334.981C138.057 327.846 154.302 324.257 170.588 324.257C186.874 324.257 203.119 327.846 215.478 334.981L216.228 333.682C203.588 326.384 187.068 322.757 170.588 322.757C154.108 322.757 137.588 326.384 124.948 333.682L125.698 334.981ZM110.226 349.629C113.143 344.315 118.281 339.264 125.698 334.981L124.948 333.682C117.357 338.065 111.991 343.295 108.911 348.907L110.226 349.629ZM106.568 350.018H109.568V348.518H106.568V350.018ZM107.318 359.965V349.268H105.818V359.965H107.318ZM106.579 359.215H106.568V360.715H106.579V359.215ZM125.698 385.95C113.117 378.686 107.113 369.235 107.329 359.982L105.829 359.947C105.596 369.944 112.089 379.825 124.948 387.249L125.698 385.95ZM215.478 385.95C203.119 393.085 186.874 396.674 170.588 396.674C154.302 396.674 138.057 393.085 125.698 385.95L124.948 387.249C137.588 394.547 154.108 398.174 170.588 398.174C187.068 398.174 203.588 394.547 216.228 387.249L215.478 385.95ZM233.847 359.982C234.063 369.235 228.059 378.686 215.478 385.95L216.228 387.249C229.087 379.825 235.58 369.944 235.347 359.947L233.847 359.982ZM234.645 359.215H234.597V360.715H234.645V359.215ZM233.895 349.268V359.965H235.395V349.268H233.895ZM231.608 350.018H234.645V348.518H231.608V350.018Z" fill="#060606"/>
<mask id="mask7_3760_42338" style="mask-type:alpha" maskUnits="userSpaceOnUse" x="105" y="321" width="131" height="76">
<path fill-rule="evenodd" clip-rule="evenodd" d="M231.608 347.798C228.609 342.334 223.357 337.194 215.853 332.861C190.854 318.428 150.322 318.428 125.323 332.861C117.819 337.194 112.567 342.334 109.568 347.798H106.568V358.494H106.579C106.355 368.119 112.603 377.785 125.323 385.129C150.322 399.562 190.854 399.562 215.853 385.129C228.573 377.785 234.821 368.119 234.597 358.494H234.645V347.798H231.608Z" fill="#71A407"/>
<path d="M215.853 332.861L215.478 333.511L215.478 333.511L215.853 332.861ZM231.608 347.798L230.95 348.158L231.164 348.548H231.608V347.798ZM125.323 332.861L125.698 333.511L125.698 333.511L125.323 332.861ZM109.568 347.798V348.548H110.012L110.226 348.158L109.568 347.798ZM106.568 347.798V347.048H105.818V347.798H106.568ZM106.568 358.494H105.818V359.244H106.568V358.494ZM106.579 358.494L107.329 358.512L107.347 357.744H106.579V358.494ZM125.323 385.129L124.948 385.778L124.948 385.778L125.323 385.129ZM215.853 385.129L216.228 385.778L216.228 385.778L215.853 385.129ZM234.597 358.494V357.744H233.829L233.847 358.512L234.597 358.494ZM234.645 358.494V359.244H235.395V358.494H234.645ZM234.645 347.798H235.395V347.048H234.645V347.798ZM215.478 333.511C222.895 337.793 228.033 342.844 230.95 348.158L232.265 347.437C229.185 341.824 223.819 336.594 216.228 332.212L215.478 333.511ZM125.698 333.511C138.057 326.375 154.302 322.786 170.588 322.786C186.874 322.786 203.119 326.375 215.478 333.511L216.228 332.212C203.588 324.914 187.068 321.286 170.588 321.286C154.108 321.286 137.588 324.914 124.948 332.212L125.698 333.511ZM110.226 348.158C113.143 342.844 118.281 337.793 125.698 333.511L124.948 332.212C117.357 336.594 111.991 341.824 108.911 347.437L110.226 348.158ZM106.568 348.548H109.568V347.048H106.568V348.548ZM107.318 358.494V347.798H105.818V358.494H107.318ZM106.579 357.744H106.568V359.244H106.579V357.744ZM125.698 384.479C113.117 377.215 107.113 367.765 107.329 358.512L105.829 358.477C105.596 368.473 112.089 378.354 124.948 385.778L125.698 384.479ZM215.478 384.479C203.119 391.615 186.874 395.204 170.588 395.204C154.302 395.204 138.057 391.615 125.698 384.479L124.948 385.778C137.588 393.076 154.108 396.704 170.588 396.704C187.068 396.704 203.588 393.076 216.228 385.778L215.478 384.479ZM233.847 358.512C234.063 367.765 228.059 377.215 215.478 384.479L216.228 385.778C229.087 378.354 235.58 368.473 235.347 358.477L233.847 358.512ZM234.645 357.744H234.597V359.244H234.645V357.744ZM233.895 347.798V358.494H235.395V347.798H233.895ZM231.608 348.548H234.645V347.048H231.608V348.548Z" fill="#060606"/>
</mask>
<g mask="url(#mask7_3760_42338)">
<rect width="64.0394" height="52.2669" transform="matrix(-1 0 0 1 170.615 347.804)" fill="#B0F127"/>
</g>
<path d="M215.853 334.332L216.228 333.682L215.853 334.332ZM231.608 349.268L230.95 349.629L231.164 350.018H231.608V349.268ZM125.323 334.332L125.698 334.981L125.698 334.981L125.323 334.332ZM109.568 349.268V350.018H110.012L110.226 349.629L109.568 349.268ZM106.568 349.268V348.518H105.818V349.268H106.568ZM106.568 359.965H105.818V360.715H106.568V359.965ZM106.579 359.965L107.329 359.982L107.347 359.215H106.579V359.965ZM125.323 386.599L124.948 387.249L124.948 387.249L125.323 386.599ZM215.853 386.599L216.228 387.249L215.853 386.599ZM234.597 359.965V359.215H233.829L233.847 359.982L234.597 359.965ZM234.645 359.965V360.715H235.395V359.965H234.645ZM234.645 349.268H235.395V348.518H234.645V349.268ZM215.478 334.981C222.895 339.264 228.033 344.315 230.95 349.629L232.265 348.907C229.185 343.295 223.819 338.065 216.228 333.682L215.478 334.981ZM125.698 334.981C138.057 327.846 154.302 324.257 170.588 324.257C186.874 324.257 203.119 327.846 215.478 334.981L216.228 333.682C203.588 326.384 187.068 322.757 170.588 322.757C154.108 322.757 137.588 326.384 124.948 333.682L125.698 334.981ZM110.226 349.629C113.143 344.315 118.281 339.264 125.698 334.981L124.948 333.682C117.357 338.065 111.991 343.295 108.911 348.907L110.226 349.629ZM106.568 350.018H109.568V348.518H106.568V350.018ZM107.318 359.965V349.268H105.818V359.965H107.318ZM106.579 359.215H106.568V360.715H106.579V359.215ZM125.698 385.95C113.117 378.686 107.113 369.235 107.329 359.982L105.829 359.947C105.596 369.944 112.089 379.825 124.948 387.249L125.698 385.95ZM215.478 385.95C203.119 393.085 186.874 396.674 170.588 396.674C154.302 396.674 138.057 393.085 125.698 385.95L124.948 387.249C137.588 394.547 154.108 398.174 170.588 398.174C187.068 398.174 203.588 394.547 216.228 387.249L215.478 385.95ZM233.847 359.982C234.063 369.235 228.059 378.686 215.478 385.95L216.228 387.249C229.087 379.825 235.58 369.944 235.347 359.947L233.847 359.982ZM234.645 359.215H234.597V360.715H234.645V359.215ZM233.895 349.268V359.965H235.395V349.268H233.895ZM231.608 350.018H234.645V348.518H231.608V350.018Z" fill="#060606"/>
<circle r="52.2677" transform="matrix(0.866025 -0.5 0.866025 0.5 170.59 345.171)" fill="#B0F127" stroke="#060606" stroke-width="1.5"/>
<path d="M184.374 329.795C179.94 326.334 173.167 327.008 165.869 329.062L160.566 323.968L155.196 325.831L160.358 330.792C158.946 331.282 157.52 331.798 156.103 332.312L150.907 327.319L145.539 329.181L150.838 334.275C149.689 334.692 148.56 335.101 147.447 335.487L147.43 335.472L140.02 338.04L143.468 341.352C143.468 341.352 147.389 339.932 147.367 339.997C149.543 339.243 151.01 339.726 151.871 340.284L157.912 346.088C158.062 346.036 158.262 345.972 158.502 345.912C158.323 345.975 158.131 346.04 157.935 346.11L166.395 354.241C166.711 354.669 166.965 355.439 165.446 355.968C165.551 355.979 161.541 357.322 161.541 357.322L164.328 361.395L171.318 358.97C172.619 358.52 173.912 358.089 175.174 357.658L180.538 362.809L185.904 360.949L180.598 355.851C182.09 355.357 183.523 354.869 184.914 354.386L190.193 359.461L195.563 357.597L190.212 352.453C198.931 349.022 203.884 345.516 199.574 340.348C196.105 336.186 191.062 335.541 185.197 336.609C187.358 334.613 187.626 332.324 184.374 329.795V329.795ZM188.325 343.419C192.335 347.268 180.46 350.792 176.822 352.057L169.718 345.23C173.36 343.967 184.146 339.403 188.325 343.419V343.419ZM175.803 334.654C179.447 338.158 169.498 341.053 166.466 342.105L160.023 335.913C163.055 334.861 172 331 175.803 334.654V334.654Z" fill="#060606"/>
<path fill-rule="evenodd" clip-rule="evenodd" d="M231.609 333.609C228.61 328.146 223.359 323.005 215.855 318.673C190.855 304.239 150.324 304.239 125.324 318.673C117.82 323.005 112.569 328.146 109.57 333.609H106.57V344.306H106.581C106.356 353.93 112.604 363.596 125.324 370.94C150.324 385.374 190.855 385.374 215.855 370.94C228.575 363.596 234.823 353.93 234.598 344.306H234.646V333.609H231.609Z" fill="#B0F127"/>
<path d="M215.855 318.673L216.23 318.023L216.23 318.023L215.855 318.673ZM231.609 333.609L230.952 333.97L231.165 334.359H231.609V333.609ZM125.324 318.673L124.949 318.023L125.324 318.673ZM109.57 333.609V334.359H110.014L110.227 333.97L109.57 333.609ZM106.57 333.609V332.859H105.82V333.609H106.57ZM106.57 344.306H105.82V345.056H106.57V344.306ZM106.581 344.306L107.331 344.323L107.348 343.556H106.581V344.306ZM125.324 370.94L124.949 371.59L124.949 371.59L125.324 370.94ZM215.855 370.94L216.23 371.59L216.23 371.59L215.855 370.94ZM234.598 344.306V343.556H233.83L233.848 344.323L234.598 344.306ZM234.646 344.306V345.056H235.396V344.306H234.646ZM234.646 333.609H235.396V332.859H234.646V333.609ZM215.48 319.322C222.897 323.604 228.034 328.655 230.952 333.97L232.267 333.248C229.186 327.636 223.821 322.406 216.23 318.023L215.48 319.322ZM125.699 319.322C138.058 312.187 154.303 308.598 170.589 308.598C186.875 308.598 203.121 312.187 215.48 319.322L216.23 318.023C203.589 310.725 187.069 307.098 170.589 307.098C154.11 307.098 137.59 310.725 124.949 318.023L125.699 319.322ZM110.227 333.97C113.144 328.655 118.282 323.604 125.699 319.322L124.949 318.023C117.358 322.406 111.993 327.636 108.912 333.248L110.227 333.97ZM106.57 334.359H109.57V332.859H106.57V334.359ZM107.32 344.306V333.609H105.82V344.306H107.32ZM106.581 343.556H106.57V345.056H106.581V343.556ZM125.699 370.291C113.118 363.027 107.115 353.576 107.331 344.323L105.831 344.288C105.598 354.285 112.09 364.166 124.949 371.59L125.699 370.291ZM215.48 370.291C203.121 377.426 186.875 381.015 170.589 381.015C154.303 381.015 138.058 377.426 125.699 370.291L124.949 371.59C137.59 378.888 154.11 382.515 170.589 382.515C187.069 382.515 203.589 378.888 216.23 371.59L215.48 370.291ZM233.848 344.323C234.064 353.576 228.061 363.027 215.48 370.291L216.23 371.59C229.089 364.166 235.581 354.285 235.348 344.288L233.848 344.323ZM234.646 343.556H234.598V345.056H234.646V343.556ZM233.896 333.609V344.306H235.396V333.609H233.896ZM231.609 334.359H234.646V332.859H231.609V334.359Z" fill="#060606"/>
<mask id="mask8_3760_42338" style="mask-type:alpha" maskUnits="userSpaceOnUse" x="105" y="306" width="131" height="76">
<path fill-rule="evenodd" clip-rule="evenodd" d="M231.608 332.89C228.609 327.427 223.358 322.286 215.854 317.954C190.854 303.521 150.323 303.521 125.323 317.954C117.819 322.286 112.568 327.427 109.569 332.89H106.57V343.587H106.58C106.355 353.212 112.603 362.878 125.323 370.222C150.323 384.655 190.854 384.655 215.854 370.222C228.574 362.878 234.822 353.212 234.597 343.587H234.646V332.89H231.608Z" fill="#71A407"/>
<path d="M215.854 317.954L215.479 318.603L215.479 318.603L215.854 317.954ZM231.608 332.89L230.951 333.251L231.164 333.64H231.608V332.89ZM125.323 317.954L125.698 318.603L125.698 318.603L125.323 317.954ZM109.569 332.89V333.64H110.013L110.226 333.251L109.569 332.89ZM106.57 332.89V332.14H105.82V332.89H106.57ZM106.57 343.587H105.82V344.337H106.57V343.587ZM106.58 343.587L107.33 343.604L107.348 342.837H106.58V343.587ZM125.323 370.222L124.948 370.871L124.948 370.871L125.323 370.222ZM215.854 370.222L216.229 370.871L215.854 370.222ZM234.597 343.587V342.837H233.83L233.847 343.604L234.597 343.587ZM234.646 343.587V344.337H235.396V343.587H234.646ZM234.646 332.89H235.396V332.14H234.646V332.89ZM215.479 318.603C222.896 322.886 228.034 327.937 230.951 333.251L232.266 332.529C229.185 326.917 223.82 321.687 216.229 317.304L215.479 318.603ZM125.698 318.603C138.057 311.468 154.303 307.879 170.589 307.879C186.875 307.879 203.12 311.468 215.479 318.603L216.229 317.304C203.588 310.006 187.068 306.379 170.589 306.379C154.109 306.379 137.589 310.006 124.948 317.304L125.698 318.603ZM110.226 333.251C113.144 327.937 118.281 322.886 125.698 318.603L124.948 317.304C117.357 321.687 111.992 326.917 108.911 332.529L110.226 333.251ZM106.57 333.64H109.569V332.14H106.57V333.64ZM107.32 343.587V332.89H105.82V343.587H107.32ZM106.58 342.837H106.57V344.337H106.58V342.837ZM125.698 369.572C113.117 362.308 107.114 352.858 107.33 343.604L105.83 343.569C105.597 353.566 112.089 363.447 124.948 370.871L125.698 369.572ZM215.479 369.572C203.12 376.707 186.875 380.297 170.589 380.297C154.303 380.297 138.057 376.707 125.698 369.572L124.948 370.871C137.589 378.169 154.109 381.797 170.589 381.797C187.068 381.797 203.588 378.169 216.229 370.871L215.479 369.572ZM233.847 343.604C234.063 352.858 228.06 362.308 215.479 369.572L216.229 370.871C229.088 363.447 235.58 353.566 235.347 343.569L233.847 343.604ZM234.646 342.837H234.597V344.337H234.646V342.837ZM233.896 332.89V343.587H235.396V332.89H233.896ZM231.608 333.64H234.646V332.14H231.608V333.64Z" fill="#060606"/>
</mask>
<g mask="url(#mask8_3760_42338)">
<rect width="64.0394" height="52.2669" transform="matrix(-1 0 0 1 170.616 332.889)" fill="#B0F127"/>
</g>
<path d="M215.855 318.673L216.23 318.023L216.23 318.023L215.855 318.673ZM231.609 333.609L230.952 333.97L231.165 334.359H231.609V333.609ZM125.324 318.673L124.949 318.023L125.324 318.673ZM109.57 333.609V334.359H110.014L110.227 333.97L109.57 333.609ZM106.57 333.609V332.859H105.82V333.609H106.57ZM106.57 344.306H105.82V345.056H106.57V344.306ZM106.581 344.306L107.331 344.323L107.348 343.556H106.581V344.306ZM125.324 370.94L124.949 371.59L124.949 371.59L125.324 370.94ZM215.855 370.94L216.23 371.59L216.23 371.59L215.855 370.94ZM234.598 344.306V343.556H233.83L233.848 344.323L234.598 344.306ZM234.646 344.306V345.056H235.396V344.306H234.646ZM234.646 333.609H235.396V332.859H234.646V333.609ZM215.48 319.322C222.897 323.604 228.034 328.655 230.952 333.97L232.267 333.248C229.186 327.636 223.821 322.406 216.23 318.023L215.48 319.322ZM125.699 319.322C138.058 312.187 154.303 308.598 170.589 308.598C186.875 308.598 203.121 312.187 215.48 319.322L216.23 318.023C203.589 310.725 187.069 307.098 170.589 307.098C154.11 307.098 137.59 310.725 124.949 318.023L125.699 319.322ZM110.227 333.97C113.144 328.655 118.282 323.604 125.699 319.322L124.949 318.023C117.358 322.406 111.993 327.636 108.912 333.248L110.227 333.97ZM106.57 334.359H109.57V332.859H106.57V334.359ZM107.32 344.306V333.609H105.82V344.306H107.32ZM106.581 343.556H106.57V345.056H106.581V343.556ZM125.699 370.291C113.118 363.027 107.115 353.576 107.331 344.323L105.831 344.288C105.598 354.285 112.09 364.166 124.949 371.59L125.699 370.291ZM215.48 370.291C203.121 377.426 186.875 381.015 170.589 381.015C154.303 381.015 138.058 377.426 125.699 370.291L124.949 371.59C137.59 378.888 154.11 382.515 170.589 382.515C187.069 382.515 203.589 378.888 216.23 371.59L215.48 370.291ZM233.848 344.323C234.064 353.576 228.061 363.027 215.48 370.291L216.23 371.59C229.089 364.166 235.581 354.285 235.348 344.288L233.848 344.323ZM234.646 343.556H234.598V345.056H234.646V343.556ZM233.896 333.609V344.306H235.396V333.609H233.896ZM231.609 334.359H234.646V332.859H231.609V334.359Z" fill="#060606"/>
<circle r="52.2677" transform="matrix(0.866025 -0.5 0.866025 0.5 170.59 329.504)" fill="#B0F127" stroke="#060606" stroke-width="1.5"/>
<path d="M184.374 314.128C179.94 310.667 173.167 311.341 165.869 313.395L160.566 308.301L155.196 310.164L160.358 315.125C158.946 315.615 157.52 316.131 156.103 316.645L150.907 311.652L145.539 313.514L150.838 318.608C149.689 319.025 148.56 319.434 147.447 319.82L147.43 319.805L140.02 322.373L143.468 325.685C143.468 325.685 147.389 324.265 147.367 324.33C149.543 323.576 151.01 324.059 151.871 324.617L157.912 330.421C158.062 330.369 158.262 330.305 158.502 330.245C158.323 330.308 158.131 330.373 157.935 330.443L166.395 338.574C166.711 339.002 166.965 339.772 165.446 340.301C165.551 340.312 161.541 341.655 161.541 341.655L164.328 345.728L171.318 343.303C172.619 342.853 173.912 342.422 175.174 341.991L180.538 347.142L185.904 345.282L180.598 340.184C182.09 339.69 183.523 339.202 184.914 338.719L190.193 343.794L195.563 341.93L190.212 336.786C198.931 333.355 203.884 329.849 199.574 324.681C196.105 320.519 191.062 319.874 185.197 320.942C187.358 318.946 187.626 316.657 184.374 314.128V314.128ZM188.325 327.752C192.335 331.601 180.46 335.125 176.822 336.39L169.718 329.563C173.36 328.3 184.146 323.736 188.325 327.752V327.752ZM175.803 318.987C179.447 322.491 169.498 325.386 166.466 326.438L160.023 320.246C163.055 319.194 172 315.333 175.803 318.987V318.987Z" fill="#060606"/>
<path fill-rule="evenodd" clip-rule="evenodd" d="M231.609 318.661C228.61 313.197 223.359 308.057 215.855 303.724C190.855 289.291 150.324 289.291 125.324 303.724C117.82 308.057 112.569 313.197 109.57 318.661H106.57V329.357H106.581C106.356 338.982 112.604 348.648 125.324 355.992C150.324 370.425 190.855 370.425 215.855 355.992C228.575 348.648 234.823 338.982 234.598 329.357H234.646V318.661H231.609Z" fill="#B0F127"/>
<path d="M215.855 303.724L215.48 304.374L215.48 304.374L215.855 303.724ZM231.609 318.661L230.952 319.022L231.165 319.411H231.609V318.661ZM125.324 303.724L125.699 304.374L125.699 304.374L125.324 303.724ZM109.57 318.661V319.411H110.014L110.227 319.022L109.57 318.661ZM106.57 318.661V317.911H105.82V318.661H106.57ZM106.57 329.357H105.82V330.107H106.57V329.357ZM106.581 329.357L107.331 329.375L107.348 328.607H106.581V329.357ZM125.324 355.992L124.949 356.642L124.949 356.642L125.324 355.992ZM215.855 355.992L216.23 356.642L216.23 356.642L215.855 355.992ZM234.598 329.357V328.607H233.83L233.848 329.375L234.598 329.357ZM234.646 329.357V330.107H235.396V329.357H234.646ZM234.646 318.661H235.396V317.911H234.646V318.661ZM215.48 304.374C222.897 308.656 228.034 313.707 230.952 319.022L232.267 318.3C229.186 312.688 223.821 307.458 216.23 303.075L215.48 304.374ZM125.699 304.374C138.058 297.239 154.303 293.649 170.589 293.649C186.875 293.649 203.121 297.239 215.48 304.374L216.23 303.075C203.589 295.777 187.069 292.149 170.589 292.149C154.11 292.149 137.59 295.777 124.949 303.075L125.699 304.374ZM110.227 319.022C113.144 313.707 118.282 308.656 125.699 304.374L124.949 303.075C117.358 307.458 111.993 312.688 108.912 318.3L110.227 319.022ZM106.57 319.411H109.57V317.911H106.57V319.411ZM107.32 329.357V318.661H105.82V329.357H107.32ZM106.581 328.607H106.57V330.107H106.581V328.607ZM125.699 355.343C113.118 348.079 107.115 338.628 107.331 329.375L105.831 329.34C105.598 339.336 112.09 349.217 124.949 356.642L125.699 355.343ZM215.48 355.343C203.121 362.478 186.875 366.067 170.589 366.067C154.303 366.067 138.058 362.478 125.699 355.343L124.949 356.642C137.59 363.94 154.11 367.567 170.589 367.567C187.069 367.567 203.589 363.94 216.23 356.642L215.48 355.343ZM233.848 329.375C234.064 338.628 228.061 348.079 215.48 355.343L216.23 356.642C229.089 349.217 235.581 339.336 235.348 329.34L233.848 329.375ZM234.646 328.607H234.598V330.107H234.646V328.607ZM233.896 318.661V329.357H235.396V318.661H233.896ZM231.609 319.411H234.646V317.911H231.609V319.411Z" fill="#060606"/>
<mask id="mask9_3760_42338" style="mask-type:alpha" maskUnits="userSpaceOnUse" x="105" y="292" width="131" height="77">
<path fill-rule="evenodd" clip-rule="evenodd" d="M231.607 319.322C228.608 313.859 223.357 308.719 215.854 304.387C190.854 289.954 150.323 289.954 125.323 304.387C117.82 308.719 112.569 313.859 109.57 319.322H106.57V330.019H106.58C106.354 339.644 112.602 349.311 125.323 356.655C150.323 371.088 190.854 371.088 215.854 356.655C228.575 349.311 234.823 339.644 234.597 330.019H234.646V319.322H231.607Z" fill="#71A407"/>
<path d="M215.854 304.387L215.479 305.037L215.479 305.037L215.854 304.387ZM231.607 319.322L230.95 319.683L231.163 320.072H231.607V319.322ZM125.323 304.387L125.698 305.037L125.698 305.037L125.323 304.387ZM109.57 319.322V320.072H110.014L110.227 319.683L109.57 319.322ZM106.57 319.322V318.572H105.82V319.322H106.57ZM106.57 330.019H105.82V330.769H106.57V330.019ZM106.58 330.019L107.33 330.036L107.348 329.269H106.58V330.019ZM125.323 356.655L125.698 356.006L125.698 356.006L125.323 356.655ZM215.854 356.655L216.229 357.305L216.229 357.305L215.854 356.655ZM234.597 330.019V329.269H233.829L233.847 330.036L234.597 330.019ZM234.646 330.019V330.769H235.396V330.019H234.646ZM234.646 319.322H235.396V318.572H234.646V319.322ZM215.479 305.037C222.895 309.319 228.032 314.369 230.95 319.683L232.265 318.961C229.184 313.35 223.819 308.12 216.229 303.738L215.479 305.037ZM125.698 305.037C138.057 297.902 154.303 294.312 170.589 294.312C186.875 294.312 203.12 297.902 215.479 305.037L216.229 303.738C203.588 296.44 187.068 292.812 170.589 292.812C154.109 292.812 137.589 296.44 124.948 303.738L125.698 305.037ZM110.227 319.683C113.145 314.369 118.282 309.319 125.698 305.037L124.948 303.738C117.358 308.12 111.993 313.35 108.912 318.961L110.227 319.683ZM106.57 320.072H109.57V318.572H106.57V320.072ZM107.32 330.019V319.322H105.82V330.019H107.32ZM106.58 329.269H106.57V330.769H106.58V329.269ZM125.698 356.006C113.116 348.741 107.113 339.29 107.33 330.036L105.83 330.001C105.596 339.998 112.088 349.88 124.948 357.305L125.698 356.006ZM215.479 356.006C203.12 363.141 186.875 366.73 170.589 366.73C154.303 366.73 138.057 363.141 125.698 356.006L124.948 357.305C137.589 364.603 154.109 368.23 170.589 368.23C187.068 368.23 203.588 364.603 216.229 357.305L215.479 356.006ZM233.847 330.036C234.064 339.29 228.061 348.741 215.479 356.006L216.229 357.305C229.089 349.88 235.581 339.998 235.347 330.001L233.847 330.036ZM234.646 329.269H234.597V330.769H234.646V329.269ZM233.896 319.322V330.019H235.396V319.322H233.896ZM231.607 320.072H234.646V318.572H231.607V320.072Z" fill="#060606"/>
</mask>
<g mask="url(#mask9_3760_42338)">
<rect width="64.0394" height="52.2669" transform="matrix(-1 0 0 1 170.615 316.571)" fill="#B0F127"/>
</g>
<path d="M215.855 303.724L215.48 304.374L215.48 304.374L215.855 303.724ZM231.609 318.661L230.952 319.022L231.165 319.411H231.609V318.661ZM125.324 303.724L125.699 304.374L125.699 304.374L125.324 303.724ZM109.57 318.661V319.411H110.014L110.227 319.022L109.57 318.661ZM106.57 318.661V317.911H105.82V318.661H106.57ZM106.57 329.357H105.82V330.107H106.57V329.357ZM106.581 329.357L107.331 329.375L107.348 328.607H106.581V329.357ZM125.324 355.992L124.949 356.642L124.949 356.642L125.324 355.992ZM215.855 355.992L216.23 356.642L216.23 356.642L215.855 355.992ZM234.598 329.357V328.607H233.83L233.848 329.375L234.598 329.357ZM234.646 329.357V330.107H235.396V329.357H234.646ZM234.646 318.661H235.396V317.911H234.646V318.661ZM215.48 304.374C222.897 308.656 228.034 313.707 230.952 319.022L232.267 318.3C229.186 312.688 223.821 307.458 216.23 303.075L215.48 304.374ZM125.699 304.374C138.058 297.239 154.303 293.649 170.589 293.649C186.875 293.649 203.121 297.239 215.48 304.374L216.23 303.075C203.589 295.777 187.069 292.149 170.589 292.149C154.11 292.149 137.59 295.777 124.949 303.075L125.699 304.374ZM110.227 319.022C113.144 313.707 118.282 308.656 125.699 304.374L124.949 303.075C117.358 307.458 111.993 312.688 108.912 318.3L110.227 319.022ZM106.57 319.411H109.57V317.911H106.57V319.411ZM107.32 329.357V318.661H105.82V329.357H107.32ZM106.581 328.607H106.57V330.107H106.581V328.607ZM125.699 355.343C113.118 348.079 107.115 338.628 107.331 329.375L105.831 329.34C105.598 339.336 112.09 349.217 124.949 356.642L125.699 355.343ZM215.48 355.343C203.121 362.478 186.875 366.067 170.589 366.067C154.303 366.067 138.058 362.478 125.699 355.343L124.949 356.642C137.59 363.94 154.11 367.567 170.589 367.567C187.069 367.567 203.589 363.94 216.23 356.642L215.48 355.343ZM233.848 329.375C234.064 338.628 228.061 348.079 215.48 355.343L216.23 356.642C229.089 349.217 235.581 339.336 235.348 329.34L233.848 329.375ZM234.646 328.607H234.598V330.107H234.646V328.607ZM233.896 318.661V329.357H235.396V318.661H233.896ZM231.609 319.411H234.646V317.911H231.609V319.411Z" fill="#060606"/>
<circle r="52.2677" transform="matrix(0.866025 -0.5 0.866025 0.5 170.59 314.556)" fill="white" stroke="#060606" stroke-width="1.5"/>
<path d="M184.374 299.179C179.94 295.719 173.167 296.393 165.869 298.447L160.566 293.353L155.196 295.216L160.358 300.176C158.946 300.666 157.52 301.183 156.103 301.697L150.907 296.704L145.539 298.566L150.838 303.66C149.689 304.077 148.56 304.485 147.447 304.872L147.43 304.857L140.02 307.425L143.468 310.737C143.468 310.737 147.389 309.317 147.367 309.382C149.543 308.628 151.01 309.111 151.871 309.669L157.912 315.473C158.062 315.421 158.262 315.357 158.502 315.297C158.323 315.359 158.131 315.425 157.935 315.494L166.395 323.625C166.711 324.054 166.965 324.824 165.446 325.353C165.551 325.364 161.541 326.707 161.541 326.707L164.328 330.78L171.318 328.355C172.619 327.905 173.912 327.474 175.174 327.042L180.538 332.194L185.904 330.333L180.598 325.235C182.09 324.742 183.523 324.254 184.914 323.77L190.193 328.846L195.563 326.982L190.212 321.838C198.931 318.407 203.884 314.901 199.574 309.733C196.105 305.571 191.062 304.926 185.197 305.993C187.358 303.998 187.626 301.709 184.374 299.179V299.179ZM188.325 312.804C192.335 316.653 180.46 320.177 176.822 321.442L169.718 314.614C173.36 313.352 184.146 308.787 188.325 312.804V312.804ZM175.803 304.039C179.447 307.542 169.498 310.437 166.466 311.489L160.023 305.298C163.055 304.246 172 300.385 175.803 304.039V304.039Z" fill="#060606"/>
</g>
</svg>
