<svg width="718" height="515" viewBox="0 0 718 515" fill="none" xmlns="http://www.w3.org/2000/svg">
<ellipse opacity="0.4" rx="51.905" ry="33.2904" transform="matrix(0.866025 0.5 -0.866025 0.5 499.849 152.714)" fill="#060606"/>
<path fill-rule="evenodd" clip-rule="evenodd" d="M520.328 160.793C528.749 154.071 533.82 142.059 533.82 125.751C533.82 88.9359 507.974 44.169 476.091 25.7614C459.308 16.0714 444.197 15.6175 433.649 22.7313L433.646 22.7264L433.434 22.8774C433.165 23.0627 432.899 23.2529 432.636 23.4481L422.457 30.7232L424.103 33.3919C420.425 40.0397 418.362 48.6921 418.362 59.0913C418.362 95.9065 444.208 140.673 476.091 159.081C487.161 165.472 497.503 167.845 506.288 166.68L508.079 169.584L520.359 160.843L520.328 160.793Z" fill="#B0F127"/>
<path d="M520.328 160.793L519.86 160.207L519.337 160.625L519.693 161.192L520.328 160.793ZM476.091 25.7614L476.466 25.1119L476.466 25.1119L476.091 25.7614ZM433.649 22.7313L433.014 23.1301L433.426 23.7865L434.068 23.3532L433.649 22.7313ZM433.646 22.7264L434.281 22.3276L433.857 21.6531L433.21 22.1162L433.646 22.7264ZM433.434 22.8774L433.86 23.4953L433.87 23.4876L433.434 22.8774ZM432.636 23.4481L433.072 24.0584L433.083 24.0505L432.636 23.4481ZM422.457 30.7232L422.021 30.1131L421.451 30.5205L421.819 31.1169L422.457 30.7232ZM424.103 33.3919L424.759 33.755L424.971 33.3714L424.741 32.9982L424.103 33.3919ZM418.362 59.0913L417.612 59.0913L418.362 59.0913ZM476.091 159.081L475.716 159.731L475.716 159.731L476.091 159.081ZM506.288 166.68L506.926 166.286L506.671 165.872L506.189 165.936L506.288 166.68ZM508.079 169.584L507.441 169.978L507.861 170.66L508.514 170.195L508.079 169.584ZM520.359 160.843L520.794 161.454L521.371 161.044L520.995 160.444L520.359 160.843ZM533.07 125.751C533.07 141.917 528.045 153.673 519.86 160.207L520.796 161.379C529.454 154.468 534.57 142.2 534.57 125.751H533.07ZM475.716 26.4109C491.517 35.5334 505.864 51.2176 516.262 69.2284C526.661 87.2392 533.07 107.506 533.07 125.751H534.57C534.57 107.181 528.057 86.6568 517.562 68.4784C507.066 50.3 492.549 34.397 476.466 25.1119L475.716 26.4109ZM434.068 23.3532C444.293 16.4576 459.076 16.8038 475.716 26.4109L476.466 25.1119C459.539 15.3389 444.101 14.7774 433.229 22.1095L434.068 23.3532ZM434.284 22.3326L434.281 22.3276L433.01 23.1252L433.014 23.1301L434.284 22.3326ZM433.21 22.1162L432.998 22.2672L433.87 23.4876L434.082 23.3366L433.21 22.1162ZM433.083 24.0505C433.339 23.8605 433.598 23.6755 433.86 23.4952L433.009 22.2596C432.733 22.4499 432.459 22.6453 432.189 22.8458L433.083 24.0505ZM432.2 22.8379L422.021 30.1131L422.893 31.3334L433.072 24.0583L432.2 22.8379ZM421.819 31.1169L423.464 33.7855L424.741 32.9982L423.096 30.3296L421.819 31.1169ZM419.112 59.0913C419.112 48.7871 421.156 40.2666 424.759 33.755L423.446 33.0288C419.693 39.8127 417.612 48.5971 417.612 59.0913L419.112 59.0913ZM476.466 158.431C460.666 149.309 446.319 133.625 435.92 115.614C425.522 97.6032 419.112 77.3363 419.112 59.0913L417.612 59.0913C417.612 77.6615 424.126 98.1856 434.621 116.364C445.117 134.542 459.634 150.445 475.716 159.731L476.466 158.431ZM506.189 165.936C497.612 167.074 487.437 164.765 476.466 158.431L475.716 159.731C486.885 166.179 497.393 168.616 506.387 167.423L506.189 165.936ZM505.65 167.073L507.441 169.978L508.717 169.191L506.926 166.286L505.65 167.073ZM508.514 170.195L520.794 161.454L519.924 160.232L507.644 168.973L508.514 170.195ZM520.995 160.444L520.963 160.394L519.693 161.192L519.724 161.242L520.995 160.444Z" fill="#060606"/>
<mask id="mask0_3780_38832" style="mask-type:alpha" maskUnits="userSpaceOnUse" x="417" y="17" width="118" height="154">
<path fill-rule="evenodd" clip-rule="evenodd" d="M520.329 160.793C528.75 154.071 533.821 142.059 533.821 125.751C533.821 88.9359 507.975 44.169 476.092 25.7614C459.308 16.0714 444.197 15.6175 433.649 22.7313L433.646 22.7264L433.435 22.8774C433.166 23.0627 432.899 23.2529 432.636 23.4481L422.458 30.7232L424.103 33.3919C420.425 40.0397 418.363 48.6921 418.363 59.0913C418.363 95.9065 444.209 140.673 476.092 159.081C487.161 165.472 497.503 167.845 506.288 166.68L508.08 169.584L520.36 160.843L520.329 160.793Z" fill="#B0F127"/>
<path d="M520.329 160.793L519.861 160.207L519.337 160.625L519.693 161.192L520.329 160.793ZM476.092 25.7614L475.717 26.4109L476.092 25.7614ZM433.649 22.7313L433.014 23.1301L433.426 23.7865L434.069 23.3532L433.649 22.7313ZM433.646 22.7264L434.281 22.3276L433.858 21.6531L433.21 22.1162L433.646 22.7264ZM433.435 22.8774L433.86 23.4953L433.871 23.4876L433.435 22.8774ZM432.636 23.4481L433.073 24.0584L433.083 24.0505L432.636 23.4481ZM422.458 30.7232L422.022 30.1131L421.452 30.5205L421.819 31.1169L422.458 30.7232ZM424.103 33.3919L424.759 33.755L424.972 33.3714L424.742 32.9982L424.103 33.3919ZM418.363 59.0913L417.613 59.0913L418.363 59.0913ZM476.092 159.081L475.717 159.731L475.717 159.731L476.092 159.081ZM506.288 166.68L506.927 166.286L506.672 165.872L506.19 165.936L506.288 166.68ZM508.08 169.584L507.441 169.978L507.862 170.66L508.514 170.195L508.08 169.584ZM520.36 160.843L520.795 161.454L521.371 161.044L520.995 160.444L520.36 160.843ZM533.071 125.751C533.071 141.917 528.045 153.673 519.861 160.207L520.796 161.379C529.454 154.468 534.571 142.2 534.571 125.751H533.071ZM475.717 26.4109C491.517 35.5334 505.864 51.2176 516.263 69.2284C526.662 87.2392 533.071 107.506 533.071 125.751H534.571C534.571 107.181 528.057 86.6568 517.562 68.4784C507.067 50.3 492.549 34.397 476.467 25.1119L475.717 26.4109ZM434.069 23.3532C444.293 16.4576 459.077 16.8038 475.717 26.4109L476.467 25.1119C459.54 15.3389 444.102 14.7774 433.23 22.1095L434.069 23.3532ZM434.284 22.3326L434.281 22.3276L433.011 23.1252L433.014 23.1301L434.284 22.3326ZM433.21 22.1162L432.999 22.2672L433.871 23.4876L434.082 23.3366L433.21 22.1162ZM433.083 24.0505C433.339 23.8605 433.598 23.6755 433.86 23.4952L433.01 22.2596C432.733 22.4499 432.46 22.6453 432.189 22.8458L433.083 24.0505ZM432.2 22.8379L422.022 30.1131L422.894 31.3334L433.072 24.0583L432.2 22.8379ZM421.819 31.1169L423.465 33.7855L424.742 32.9982L423.096 30.3296L421.819 31.1169ZM419.113 59.0913C419.113 48.7871 421.157 40.2666 424.759 33.755L423.447 33.0288C419.693 39.8127 417.613 48.5971 417.613 59.0913L419.113 59.0913ZM476.467 158.431C460.666 149.309 446.319 133.625 435.921 115.614C425.522 97.6032 419.113 77.3363 419.113 59.0913L417.613 59.0913C417.613 77.6615 424.126 98.1856 434.622 116.364C445.117 134.542 459.635 150.445 475.717 159.731L476.467 158.431ZM506.19 165.936C497.613 167.074 487.437 164.765 476.467 158.431L475.717 159.731C486.885 166.179 497.394 168.616 506.387 167.423L506.19 165.936ZM505.65 167.073L507.441 169.978L508.718 169.191L506.927 166.286L505.65 167.073ZM508.514 170.195L520.795 161.454L519.925 160.232L507.645 168.973L508.514 170.195ZM520.995 160.444L520.964 160.394L519.693 161.192L519.725 161.242L520.995 160.444Z" fill="#060606"/>
</mask>
<g mask="url(#mask0_3780_38832)">
<rect width="141.013" height="60.6329" transform="matrix(0.866025 -0.5 2.20305e-08 1 480.653 159.47)" fill="#B0F127"/>
</g>
<path d="M520.328 160.793L519.86 160.207L519.337 160.625L519.693 161.192L520.328 160.793ZM476.091 25.7614L476.466 25.1119L476.466 25.1119L476.091 25.7614ZM433.649 22.7313L433.014 23.1301L433.426 23.7865L434.068 23.3532L433.649 22.7313ZM433.646 22.7264L434.281 22.3276L433.857 21.6531L433.21 22.1162L433.646 22.7264ZM433.434 22.8774L433.86 23.4953L433.87 23.4876L433.434 22.8774ZM432.636 23.4481L433.072 24.0584L433.083 24.0505L432.636 23.4481ZM422.457 30.7232L422.021 30.1131L421.451 30.5205L421.819 31.1169L422.457 30.7232ZM424.103 33.3919L424.759 33.755L424.971 33.3714L424.741 32.9982L424.103 33.3919ZM418.362 59.0913L417.612 59.0913L418.362 59.0913ZM476.091 159.081L475.716 159.731L475.716 159.731L476.091 159.081ZM506.288 166.68L506.926 166.286L506.671 165.872L506.189 165.936L506.288 166.68ZM508.079 169.584L507.441 169.978L507.861 170.66L508.514 170.195L508.079 169.584ZM520.359 160.843L520.794 161.454L521.371 161.044L520.995 160.444L520.359 160.843ZM533.07 125.751C533.07 141.917 528.045 153.673 519.86 160.207L520.796 161.379C529.454 154.468 534.57 142.2 534.57 125.751H533.07ZM475.716 26.4109C491.517 35.5334 505.864 51.2176 516.262 69.2284C526.661 87.2392 533.07 107.506 533.07 125.751H534.57C534.57 107.181 528.057 86.6568 517.562 68.4784C507.066 50.3 492.549 34.397 476.466 25.1119L475.716 26.4109ZM434.068 23.3532C444.293 16.4576 459.076 16.8038 475.716 26.4109L476.466 25.1119C459.539 15.3389 444.101 14.7774 433.229 22.1095L434.068 23.3532ZM434.284 22.3326L434.281 22.3276L433.01 23.1252L433.014 23.1301L434.284 22.3326ZM433.21 22.1162L432.998 22.2672L433.87 23.4876L434.082 23.3366L433.21 22.1162ZM433.083 24.0505C433.339 23.8605 433.598 23.6755 433.86 23.4952L433.009 22.2596C432.733 22.4499 432.459 22.6453 432.189 22.8458L433.083 24.0505ZM432.2 22.8379L422.021 30.1131L422.893 31.3334L433.072 24.0583L432.2 22.8379ZM421.819 31.1169L423.464 33.7855L424.741 32.9982L423.096 30.3296L421.819 31.1169ZM419.112 59.0913C419.112 48.7871 421.156 40.2666 424.759 33.755L423.446 33.0288C419.693 39.8127 417.612 48.5971 417.612 59.0913L419.112 59.0913ZM476.466 158.431C460.666 149.309 446.319 133.625 435.92 115.614C425.522 97.6032 419.112 77.3363 419.112 59.0913L417.612 59.0913C417.612 77.6615 424.126 98.1856 434.621 116.364C445.117 134.542 459.634 150.445 475.716 159.731L476.466 158.431ZM506.189 165.936C497.612 167.074 487.437 164.765 476.466 158.431L475.716 159.731C486.885 166.179 497.393 168.616 506.387 167.423L506.189 165.936ZM505.65 167.073L507.441 169.978L508.717 169.191L506.926 166.286L505.65 167.073ZM508.514 170.195L520.794 161.454L519.924 160.232L507.644 168.973L508.514 170.195ZM520.995 160.444L520.963 160.394L519.693 161.192L519.724 161.242L520.995 160.444Z" fill="#060606"/>
<circle r="66.6598" transform="matrix(0.866025 0.5 -2.20305e-08 1 465.465 99.9897)" fill="white" stroke="#060606" stroke-width="1.5"/>
<mask id="mask1_3780_38832" style="mask-type:alpha" maskUnits="userSpaceOnUse" x="407" y="24" width="117" height="152">
<circle r="66.6598" transform="matrix(0.866025 0.5 -2.20305e-08 1 465.465 99.9897)" fill="#B0F127" stroke="#060606" stroke-width="1.5"/>
</mask>
<g mask="url(#mask1_3780_38832)">
<rect width="141.013" height="75.6189" transform="matrix(0.866025 0.5 2.20305e-08 -1 404.186 66.8672)" fill="white"/>
<circle r="66.6598" transform="matrix(0.866025 0.5 -2.20305e-08 1 465.465 99.9897)" stroke="#060606" stroke-width="1.5"/>
<path d="M454.124 90.77L464.577 84.7353L475.035 102.849L481.117 99.3376L464.577 70.6881L448.042 80.2354L454.124 90.77ZM437.665 86.2254L443.747 82.7137L449.829 93.2481L443.747 96.7597L437.665 86.2254ZM454.124 100.688L464.577 118.793L475.035 112.755L481.12 123.288L481.117 123.29L464.577 132.84L448.041 104.2L448.033 104.185L454.124 100.688ZM479.325 110.282L485.408 106.77L491.49 117.305L485.407 120.816L479.325 110.282Z" fill="#060606"/>
<path d="M470.905 105.413L470.907 105.414L464.578 94.4519L459.9 97.1522L459.9 97.1521L459.363 97.4626L458.254 98.1028L458.246 98.1076L458.254 98.1232L464.578 109.076L470.907 105.422L470.91 105.42L470.905 105.413" fill="#060606"/>
</g>
<path fill-rule="evenodd" clip-rule="evenodd" d="M103.161 334.901C110.802 328.801 115.404 317.902 115.404 303.105C115.404 269.7 91.9521 229.08 63.0226 212.378C47.7937 203.585 34.0826 203.173 24.5115 209.628L24.509 209.624L24.341 209.744C24.0805 209.923 23.8232 210.107 23.5691 210.296L14.3569 216.88L15.8497 219.301C12.5124 225.333 10.6411 233.184 10.6411 242.62C10.6411 276.025 34.0931 316.645 63.0226 333.348C73.0668 339.147 82.4507 341.3 90.422 340.242L92.0474 342.878L103.19 334.947L103.161 334.901Z" fill="#B0F127"/>
<path d="M103.161 334.901L102.659 334.271L102.096 334.72L102.479 335.33L103.161 334.901ZM63.0226 212.378L62.6196 213.076L62.6196 213.076L63.0226 212.378ZM24.5115 209.628L23.8289 210.057L24.2717 210.762L24.9622 210.297L24.5115 209.628ZM24.509 209.624L25.1917 209.196L24.7366 208.471L24.0403 208.969L24.509 209.624ZM24.341 209.744L24.7972 210.409L24.8035 210.405L24.8097 210.4L24.341 209.744ZM23.5691 210.296L24.0377 210.952L24.0439 210.947L24.0501 210.943L23.5691 210.296ZM14.3569 216.88L13.8882 216.225L13.2756 216.662L13.6709 217.303L14.3569 216.88ZM15.8497 219.301L16.555 219.692L16.7831 219.279L16.5358 218.878L15.8497 219.301ZM63.0226 333.348L62.6196 334.046L62.6196 334.046L63.0226 333.348ZM90.422 340.242L91.1081 339.819L90.8339 339.374L90.316 339.443L90.422 340.242ZM92.0474 342.878L91.3613 343.301L91.8133 344.034L92.5149 343.535L92.0474 342.878ZM103.19 334.947L103.658 335.603L104.277 335.162L103.873 334.518L103.19 334.947ZM114.598 303.105C114.598 317.75 110.045 328.374 102.659 334.271L103.664 335.531C111.56 329.228 116.21 318.054 116.21 303.105H114.598ZM62.6196 213.076C76.9329 221.34 89.9366 235.553 99.3638 251.881C108.791 268.209 114.598 286.577 114.598 303.105H116.21C116.21 286.228 110.291 267.583 100.76 251.075C91.2287 234.566 78.0417 220.118 63.4256 211.68L62.6196 213.076ZM24.9622 210.297C34.1855 204.076 47.5451 204.372 62.6196 213.076L63.4256 211.68C48.0423 202.798 33.9798 202.271 24.0609 208.96L24.9622 210.297ZM25.1942 209.2L25.1917 209.196L23.8263 210.053L23.8289 210.057L25.1942 209.2ZM24.0403 208.969L23.8723 209.089L24.8097 210.4L24.9777 210.28L24.0403 208.969ZM24.0501 210.943C24.2961 210.76 24.5451 210.582 24.7972 210.409L23.8848 209.08C23.616 209.264 23.3504 209.454 23.0881 209.649L24.0501 210.943ZM23.1004 209.64L13.8882 216.225L14.8256 217.536L24.0377 210.952L23.1004 209.64ZM13.6709 217.303L15.1636 219.724L16.5358 218.878L15.043 216.457L13.6709 217.303ZM11.4471 242.62C11.4471 233.286 13.2986 225.577 16.555 219.692L15.1444 218.911C11.7261 225.089 9.83508 233.082 9.83508 242.62H11.4471ZM63.4256 332.65C49.1122 324.386 36.1085 310.173 26.6813 293.844C17.2541 277.516 11.4471 259.148 11.4471 242.62H9.83508C9.83508 259.497 15.7541 278.142 25.2852 294.65C34.8164 311.159 48.0035 325.607 62.6196 334.046L63.4256 332.65ZM90.316 339.443C82.5684 340.471 73.3634 338.387 63.4256 332.65L62.6196 334.046C72.7701 339.906 82.3329 342.129 90.5281 341.041L90.316 339.443ZM89.7359 340.665L91.3613 343.301L92.7335 342.455L91.1081 339.819L89.7359 340.665ZM92.5149 343.535L103.658 335.603L102.723 334.29L91.58 342.222L92.5149 343.535ZM103.873 334.518L103.844 334.472L102.479 335.33L102.508 335.375L103.873 334.518Z" fill="#060606"/>
<mask id="mask2_3780_38832" style="mask-type:alpha" maskUnits="userSpaceOnUse" x="9" y="204" width="108" height="141">
<path fill-rule="evenodd" clip-rule="evenodd" d="M103.164 334.897C110.805 328.798 115.407 317.898 115.407 303.101C115.407 269.696 91.955 229.076 63.0255 212.374C47.7966 203.581 34.0856 203.17 24.5145 209.624L24.5119 209.62L24.3439 209.741C24.0835 209.919 23.8262 210.103 23.572 210.292L14.3599 216.876L15.8526 219.297C12.5153 225.329 10.644 233.18 10.644 242.616C10.644 276.021 34.096 316.641 63.0255 333.344C73.0697 339.143 82.4536 341.296 90.425 340.238L92.0504 342.874L103.193 334.943L103.164 334.897Z" fill="#B0F127"/>
<path d="M103.164 334.897L102.662 334.267L102.099 334.716L102.482 335.326L103.164 334.897ZM63.0255 212.374L62.6225 213.072L62.6225 213.072L63.0255 212.374ZM24.5145 209.624L23.8319 210.053L24.2747 210.758L24.9651 210.293L24.5145 209.624ZM24.5119 209.62L25.1945 209.192L24.7395 208.467L24.0432 208.965L24.5119 209.62ZM24.3439 209.741L24.8001 210.405L24.8064 210.401L24.8126 210.396L24.3439 209.741ZM23.572 210.292L24.0407 210.948L24.0469 210.944L24.053 210.939L23.572 210.292ZM14.3599 216.876L13.8912 216.221L13.2786 216.659L13.6738 217.3L14.3599 216.876ZM15.8526 219.297L16.5579 219.688L16.786 219.275L16.5387 218.874L15.8526 219.297ZM10.644 242.616L11.4501 242.616V242.616H10.644ZM63.0255 333.344L62.6225 334.042L62.6225 334.042L63.0255 333.344ZM90.425 340.238L91.111 339.815L90.8368 339.371L90.3189 339.439L90.425 340.238ZM92.0504 342.874L91.3643 343.297L91.8162 344.03L92.5178 343.531L92.0504 342.874ZM103.193 334.943L103.661 335.6L104.28 335.158L103.876 334.514L103.193 334.943ZM114.601 303.101C114.601 317.746 110.048 328.371 102.662 334.267L103.667 335.527C111.562 329.224 116.213 318.05 116.213 303.101H114.601ZM62.6225 213.072C76.9359 221.336 89.9396 235.549 99.3668 251.877C108.794 268.205 114.601 286.574 114.601 303.101H116.213C116.213 286.224 110.294 267.58 100.763 251.071C91.2317 234.563 78.0446 220.114 63.4285 211.676L62.6225 213.072ZM24.9651 210.293C34.1884 204.072 47.548 204.369 62.6225 213.072L63.4285 211.676C48.0452 202.794 33.9827 202.267 24.0638 208.956L24.9651 210.293ZM25.1971 209.196L25.1945 209.192L23.8293 210.049L23.8319 210.053L25.1971 209.196ZM24.0432 208.965L23.8752 209.085L24.8126 210.396L24.9806 210.276L24.0432 208.965ZM24.053 210.939C24.299 210.756 24.5481 210.578 24.8001 210.405L23.8877 209.076C23.6189 209.261 23.3533 209.45 23.091 209.645L24.053 210.939ZM23.1033 209.636L13.8912 216.221L14.8286 217.532L24.0407 210.948L23.1033 209.636ZM13.6738 217.3L15.1666 219.72L16.5387 218.874L15.046 216.453L13.6738 217.3ZM11.4501 242.616C11.4501 233.282 13.3015 225.573 16.5579 219.688L15.1474 218.907C11.7291 225.086 9.83801 233.078 9.83801 242.616H11.4501ZM63.4285 332.646C49.1151 324.382 36.1114 310.169 26.6843 293.84C17.2571 277.512 11.4501 259.144 11.4501 242.616L9.83801 242.616C9.83801 259.493 15.757 278.138 25.2882 294.646C34.8194 311.155 48.0064 325.603 62.6225 334.042L63.4285 332.646ZM90.3189 339.439C82.5714 340.467 73.3664 338.383 63.4285 332.646L62.6225 334.042C72.773 339.902 82.3358 342.125 90.531 341.037L90.3189 339.439ZM89.7389 340.661L91.3643 343.297L92.7365 342.451L91.111 339.815L89.7389 340.661ZM92.5178 343.531L103.661 335.6L102.726 334.286L91.5829 342.218L92.5178 343.531ZM103.876 334.514L103.847 334.468L102.482 335.326L102.51 335.371L103.876 334.514Z" fill="#060606"/>
</mask>
<g mask="url(#mask2_3780_38832)">
<rect width="127.95" height="55.0163" transform="matrix(0.866025 -0.5 2.20305e-08 1 67.1636 333.699)" fill="#B0F127"/>
</g>
<path d="M103.161 334.901L102.659 334.271L102.096 334.72L102.479 335.33L103.161 334.901ZM63.0226 212.378L62.6196 213.076L62.6196 213.076L63.0226 212.378ZM24.5115 209.628L23.8289 210.057L24.2717 210.762L24.9622 210.297L24.5115 209.628ZM24.509 209.624L25.1917 209.196L24.7366 208.471L24.0403 208.969L24.509 209.624ZM24.341 209.744L24.7972 210.409L24.8035 210.405L24.8097 210.4L24.341 209.744ZM23.5691 210.296L24.0377 210.952L24.0439 210.947L24.0501 210.943L23.5691 210.296ZM14.3569 216.88L13.8882 216.225L13.2756 216.662L13.6709 217.303L14.3569 216.88ZM15.8497 219.301L16.555 219.692L16.7831 219.279L16.5358 218.878L15.8497 219.301ZM63.0226 333.348L62.6196 334.046L62.6196 334.046L63.0226 333.348ZM90.422 340.242L91.1081 339.819L90.8339 339.374L90.316 339.443L90.422 340.242ZM92.0474 342.878L91.3613 343.301L91.8133 344.034L92.5149 343.535L92.0474 342.878ZM103.19 334.947L103.658 335.603L104.277 335.162L103.873 334.518L103.19 334.947ZM114.598 303.105C114.598 317.75 110.045 328.374 102.659 334.271L103.664 335.531C111.56 329.228 116.21 318.054 116.21 303.105H114.598ZM62.6196 213.076C76.9329 221.34 89.9366 235.553 99.3638 251.881C108.791 268.209 114.598 286.577 114.598 303.105H116.21C116.21 286.228 110.291 267.583 100.76 251.075C91.2287 234.566 78.0417 220.118 63.4256 211.68L62.6196 213.076ZM24.9622 210.297C34.1855 204.076 47.5451 204.372 62.6196 213.076L63.4256 211.68C48.0423 202.798 33.9798 202.271 24.0609 208.96L24.9622 210.297ZM25.1942 209.2L25.1917 209.196L23.8263 210.053L23.8289 210.057L25.1942 209.2ZM24.0403 208.969L23.8723 209.089L24.8097 210.4L24.9777 210.28L24.0403 208.969ZM24.0501 210.943C24.2961 210.76 24.5451 210.582 24.7972 210.409L23.8848 209.08C23.616 209.264 23.3504 209.454 23.0881 209.649L24.0501 210.943ZM23.1004 209.64L13.8882 216.225L14.8256 217.536L24.0377 210.952L23.1004 209.64ZM13.6709 217.303L15.1636 219.724L16.5358 218.878L15.043 216.457L13.6709 217.303ZM11.4471 242.62C11.4471 233.286 13.2986 225.577 16.555 219.692L15.1444 218.911C11.7261 225.089 9.83508 233.082 9.83508 242.62H11.4471ZM63.4256 332.65C49.1122 324.386 36.1085 310.173 26.6813 293.844C17.2541 277.516 11.4471 259.148 11.4471 242.62H9.83508C9.83508 259.497 15.7541 278.142 25.2852 294.65C34.8164 311.159 48.0035 325.607 62.6196 334.046L63.4256 332.65ZM90.316 339.443C82.5684 340.471 73.3634 338.387 63.4256 332.65L62.6196 334.046C72.7701 339.906 82.3329 342.129 90.5281 341.041L90.316 339.443ZM89.7359 340.665L91.3613 343.301L92.7335 342.455L91.1081 339.819L89.7359 340.665ZM92.5149 343.535L103.658 335.603L102.723 334.29L91.58 342.222L92.5149 343.535ZM103.873 334.518L103.844 334.472L102.479 335.33L102.508 335.375L103.873 334.518Z" fill="#060606"/>
<circle r="60.4849" transform="matrix(0.866025 0.5 -2.20305e-08 1 53.3815 279.73)" fill="white" stroke="#060606" stroke-width="1.61206"/>
<mask id="mask3_3780_38832" style="mask-type:alpha" maskUnits="userSpaceOnUse" x="0" y="211" width="107" height="138">
<circle r="60.4849" transform="matrix(0.866025 0.5 -2.20305e-08 1 53.3815 279.73)" fill="#B0F127" stroke="#060606" stroke-width="1.61206"/>
</mask>
<g mask="url(#mask3_3780_38832)">
<rect width="127.95" height="68.6141" transform="matrix(0.866025 0.5 2.20305e-08 -1 -2.22217 249.674)" fill="white"/>
<circle r="60.4849" transform="matrix(0.866025 0.5 -2.20305e-08 1 53.3815 279.73)" stroke="#060606" stroke-width="1.61206"/>
<path d="M66.4066 301.402L50.2513 292.075L53.2716 282.058L57.9075 283.194L58.8909 279.868L54.255 278.814L59.1718 262.349L59.1718 262.106C59.1718 261.538 58.8206 260.93 58.3289 260.646L52.0775 257.037C51.5858 256.753 51.1644 256.915 51.0239 257.402L45.2642 276.867L40.6283 275.813L39.5747 279.017L44.2106 280.071L40.0664 293.981L64.7208 308.215C65.2125 308.499 65.6339 308.337 65.7744 307.931L67.1792 303.146L67.1792 302.903C67.2495 302.294 66.8983 301.686 66.4066 301.402V301.402Z" fill="#060606"/>
</g>
<path fill-rule="evenodd" clip-rule="evenodd" d="M587.227 471.764C596.422 464.423 601.96 451.307 601.96 433.5C601.96 393.3 573.737 344.417 538.922 324.316C520.596 313.736 504.096 313.24 492.578 321.007L492.575 321.003L492.379 321.143C492.061 321.361 491.747 321.585 491.437 321.816L480.358 329.735L482.154 332.648C478.137 339.907 475.885 349.355 475.885 360.711C475.885 400.911 504.108 449.795 538.922 469.895C551.01 476.874 562.303 479.465 571.896 478.192L573.852 481.364L587.262 471.819L587.227 471.764Z" fill="#B0F127"/>
<path d="M587.227 471.764L586.476 470.822L585.635 471.493L586.207 472.404L587.227 471.764ZM538.922 324.316L538.32 325.36L538.32 325.36L538.922 324.316ZM492.578 321.007L491.558 321.648L492.22 322.702L493.251 322.006L492.578 321.007ZM492.575 321.003L493.595 320.362L492.915 319.279L491.874 320.022L492.575 321.003ZM492.379 321.143L493.06 322.136L493.07 322.13L493.079 322.123L492.379 321.143ZM491.437 321.816L492.137 322.796L492.146 322.79L492.156 322.783L491.437 321.816ZM480.358 329.735L479.657 328.755L478.741 329.409L479.332 330.367L480.358 329.735ZM482.154 332.648L483.208 333.231L483.549 332.615L483.179 332.016L482.154 332.648ZM538.922 469.895L539.525 468.851L539.525 468.851L538.922 469.895ZM571.896 478.192L572.922 477.559L572.512 476.895L571.738 476.998L571.896 478.192ZM573.852 481.364L572.827 481.996L573.502 483.092L574.551 482.345L573.852 481.364ZM587.262 471.819L587.961 472.8L588.887 472.141L588.282 471.178L587.262 471.819ZM600.755 433.5C600.755 451.08 595.291 463.785 586.476 470.822L587.979 472.705C597.554 465.061 603.164 451.534 603.164 433.5H600.755ZM538.32 325.36C555.501 335.279 571.123 352.349 582.453 371.973C593.783 391.597 600.755 413.661 600.755 433.5H603.164C603.164 413.139 596.025 390.661 584.54 370.768C573.055 350.875 557.158 333.454 539.525 323.273L538.32 325.36ZM493.251 322.006C504.25 314.589 520.224 314.912 538.32 325.36L539.525 323.273C520.967 312.559 503.942 311.89 491.904 320.009L493.251 322.006ZM493.598 320.367L493.595 320.362L491.555 321.643L491.558 321.648L493.598 320.367ZM491.874 320.022L491.678 320.163L493.079 322.123L493.275 321.983L491.874 320.022ZM492.156 322.783C492.454 322.561 492.755 322.346 493.06 322.136L491.697 320.149C491.366 320.376 491.04 320.61 490.717 320.85L492.156 322.783ZM490.736 320.836L479.657 328.755L481.058 330.715L492.137 322.796L490.736 320.836ZM479.332 330.367L481.128 333.28L483.179 332.016L481.383 329.102L479.332 330.367ZM477.09 360.711C477.09 349.508 479.312 340.272 483.208 333.231L481.1 332.065C476.962 339.542 474.68 349.203 474.68 360.711H477.09ZM539.525 468.851C522.344 458.932 506.722 441.862 495.392 422.238C484.062 402.614 477.09 380.55 477.09 360.711H474.68C474.68 381.072 481.82 403.55 493.305 423.443C504.79 443.336 520.687 460.757 538.32 470.938L539.525 468.851ZM571.738 476.998C562.479 478.226 551.454 475.738 539.525 468.851L538.32 470.938C550.567 478.009 562.127 480.704 572.055 479.386L571.738 476.998ZM570.871 478.824L572.827 481.996L574.878 480.732L572.922 477.559L570.871 478.824ZM574.551 482.345L587.961 472.8L586.563 470.837L573.154 480.382L574.551 482.345ZM588.282 471.178L588.248 471.123L586.207 472.404L586.242 472.46L588.282 471.178Z" fill="#060606"/>
<mask id="mask4_3780_38832" style="mask-type:alpha" maskUnits="userSpaceOnUse" x="474" y="314" width="130" height="170">
<path fill-rule="evenodd" clip-rule="evenodd" d="M587.231 471.764C596.426 464.423 601.964 451.307 601.964 433.5C601.964 393.3 573.741 344.417 538.926 324.316C520.6 313.736 504.1 313.24 492.582 321.007L492.579 321.003L492.383 321.143C492.065 321.361 491.751 321.585 491.44 321.816L480.362 329.735L482.158 332.648C478.141 339.907 475.889 349.355 475.889 360.711C475.889 400.911 504.112 449.795 538.926 469.895C551.014 476.874 562.307 479.465 571.9 478.192L573.856 481.364L587.266 471.819L587.231 471.764Z" fill="#B0F127"/>
<path d="M587.231 471.764L586.479 470.822L585.639 471.493L586.211 472.404L587.231 471.764ZM538.926 324.316L538.324 325.36L538.324 325.36L538.926 324.316ZM492.582 321.007L491.561 321.648L492.223 322.702L493.255 322.006L492.582 321.007ZM492.579 321.003L493.599 320.362L492.919 319.279L491.878 320.022L492.579 321.003ZM492.383 321.143L493.064 322.136L493.074 322.13L493.083 322.123L492.383 321.143ZM491.44 321.816L492.141 322.796L492.15 322.79L492.16 322.783L491.44 321.816ZM480.362 329.735L479.661 328.755L478.745 329.409L479.336 330.367L480.362 329.735ZM482.158 332.648L483.212 333.231L483.553 332.615L483.183 332.016L482.158 332.648ZM538.926 469.895L539.529 468.851L539.529 468.851L538.926 469.895ZM571.9 478.192L572.926 477.559L572.516 476.895L571.742 476.998L571.9 478.192ZM573.856 481.364L572.831 481.996L573.506 483.092L574.555 482.345L573.856 481.364ZM587.266 471.819L587.964 472.8L588.891 472.141L588.286 471.178L587.266 471.819ZM600.759 433.5C600.759 451.08 595.294 463.785 586.479 470.822L587.983 472.705C597.558 465.061 603.168 451.534 603.168 433.5H600.759ZM538.324 325.36C555.505 335.279 571.127 352.349 582.457 371.973C593.787 391.597 600.759 413.661 600.759 433.5H603.168C603.168 413.139 596.029 390.661 584.544 370.768C573.059 350.875 557.162 333.454 539.529 323.273L538.324 325.36ZM493.255 322.006C504.254 314.589 520.228 314.912 538.324 325.36L539.529 323.273C520.971 312.559 503.946 311.89 491.908 320.009L493.255 322.006ZM493.602 320.367L493.599 320.362L491.558 321.643L491.561 321.648L493.602 320.367ZM491.878 320.022L491.682 320.163L493.083 322.123L493.279 321.983L491.878 320.022ZM492.16 322.783C492.457 322.561 492.759 322.346 493.064 322.136L491.701 320.149C491.37 320.376 491.044 320.61 490.721 320.85L492.16 322.783ZM490.74 320.836L479.661 328.755L481.062 330.715L492.141 322.796L490.74 320.836ZM479.336 330.367L481.132 333.28L483.183 332.016L481.387 329.102L479.336 330.367ZM477.094 360.711C477.094 349.508 479.316 340.272 483.212 333.231L481.104 332.065C476.966 339.542 474.684 349.203 474.684 360.711H477.094ZM539.529 468.851C522.348 458.932 506.725 441.862 495.396 422.238C484.066 402.614 477.094 380.55 477.094 360.711H474.684C474.684 381.072 481.824 403.55 493.309 423.443C504.794 443.336 520.691 460.757 538.324 470.938L539.529 468.851ZM571.742 476.998C562.483 478.226 551.458 475.738 539.529 468.851L538.324 470.938C550.571 478.009 562.131 480.704 572.059 479.386L571.742 476.998ZM570.875 478.824L572.831 481.996L574.882 480.732L572.926 477.559L570.875 478.824ZM574.555 482.345L587.964 472.8L586.567 470.837L573.158 480.382L574.555 482.345ZM588.286 471.178L588.251 471.123L586.211 472.404L586.245 472.46L588.286 471.178Z" fill="#060606"/>
</mask>
<g mask="url(#mask4_3780_38832)">
<rect width="153.979" height="66.2081" transform="matrix(0.866025 -0.5 2.20305e-08 1 543.907 470.317)" fill="#B0F127"/>
</g>
<path d="M587.227 471.764L586.476 470.822L585.635 471.493L586.207 472.404L587.227 471.764ZM538.922 324.316L538.32 325.36L538.32 325.36L538.922 324.316ZM492.578 321.007L491.558 321.648L492.22 322.702L493.251 322.006L492.578 321.007ZM492.575 321.003L493.595 320.362L492.915 319.279L491.874 320.022L492.575 321.003ZM492.379 321.143L493.06 322.136L493.07 322.13L493.079 322.123L492.379 321.143ZM491.437 321.816L492.137 322.796L492.146 322.79L492.156 322.783L491.437 321.816ZM480.358 329.735L479.657 328.755L478.741 329.409L479.332 330.367L480.358 329.735ZM482.154 332.648L483.208 333.231L483.549 332.615L483.179 332.016L482.154 332.648ZM538.922 469.895L539.525 468.851L539.525 468.851L538.922 469.895ZM571.896 478.192L572.922 477.559L572.512 476.895L571.738 476.998L571.896 478.192ZM573.852 481.364L572.827 481.996L573.502 483.092L574.551 482.345L573.852 481.364ZM587.262 471.819L587.961 472.8L588.887 472.141L588.282 471.178L587.262 471.819ZM600.755 433.5C600.755 451.08 595.291 463.785 586.476 470.822L587.979 472.705C597.554 465.061 603.164 451.534 603.164 433.5H600.755ZM538.32 325.36C555.501 335.279 571.123 352.349 582.453 371.973C593.783 391.597 600.755 413.661 600.755 433.5H603.164C603.164 413.139 596.025 390.661 584.54 370.768C573.055 350.875 557.158 333.454 539.525 323.273L538.32 325.36ZM493.251 322.006C504.25 314.589 520.224 314.912 538.32 325.36L539.525 323.273C520.967 312.559 503.942 311.89 491.904 320.009L493.251 322.006ZM493.598 320.367L493.595 320.362L491.555 321.643L491.558 321.648L493.598 320.367ZM491.874 320.022L491.678 320.163L493.079 322.123L493.275 321.983L491.874 320.022ZM492.156 322.783C492.454 322.561 492.755 322.346 493.06 322.136L491.697 320.149C491.366 320.376 491.04 320.61 490.717 320.85L492.156 322.783ZM490.736 320.836L479.657 328.755L481.058 330.715L492.137 322.796L490.736 320.836ZM479.332 330.367L481.128 333.28L483.179 332.016L481.383 329.102L479.332 330.367ZM477.09 360.711C477.09 349.508 479.312 340.272 483.208 333.231L481.1 332.065C476.962 339.542 474.68 349.203 474.68 360.711H477.09ZM539.525 468.851C522.344 458.932 506.722 441.862 495.392 422.238C484.062 402.614 477.09 380.55 477.09 360.711H474.68C474.68 381.072 481.82 403.55 493.305 423.443C504.79 443.336 520.687 460.757 538.32 470.938L539.525 468.851ZM571.738 476.998C562.479 478.226 551.454 475.738 539.525 468.851L538.32 470.938C550.567 478.009 562.127 480.704 572.055 479.386L571.738 476.998ZM570.871 478.824L572.827 481.996L574.878 480.732L572.922 477.559L570.871 478.824ZM574.551 482.345L587.961 472.8L586.563 470.837L573.154 480.382L574.551 482.345ZM588.282 471.178L588.248 471.123L586.207 472.404L586.242 472.46L588.282 471.178Z" fill="#060606"/>
<circle r="72.7891" transform="matrix(0.866025 0.5 -2.20305e-08 1 527.321 405.365)" fill="white" stroke="#060606" stroke-width="2.40952"/>
<mask id="mask5_3780_38832" style="mask-type:alpha" maskUnits="userSpaceOnUse" x="463" y="322" width="129" height="167">
<circle r="72.7891" transform="matrix(0.866025 0.5 -2.20305e-08 1 527.321 405.365)" fill="#B0F127" stroke="#060606" stroke-width="2.40952"/>
</mask>
<g mask="url(#mask5_3780_38832)">
<rect width="153.979" height="82.5719" transform="matrix(0.866025 0.5 2.20305e-08 -1 460.406 369.195)" fill="white"/>
<circle r="72.7891" transform="matrix(0.866025 0.5 -2.20305e-08 1 527.321 405.365)" stroke="#060606" stroke-width="2.40952"/>
<path d="M510.293 407.38C510.597 407.208 511.016 407.248 511.46 407.504L551.721 430.749C552.456 431.173 552.824 432.399 552.304 432.691L544.351 437.171C544.046 437.343 543.628 437.304 543.184 437.047L502.923 413.803C502.187 413.378 501.819 412.153 502.339 411.86L510.293 407.38Z" fill="#060606"/>
<path d="M510.293 373.559C510.61 373.394 511.028 373.434 511.46 373.683L551.721 396.927C552.456 397.352 552.824 398.577 552.304 398.87L544.351 403.35C544.046 403.521 543.628 403.482 543.184 403.226L502.923 379.981C502.187 379.556 501.819 378.331 502.339 378.038L510.293 373.559Z" fill="#060606"/>
<path d="M544.351 410.048C544.046 409.525 543.628 409.081 543.184 408.825L502.923 385.58C502.187 385.155 501.819 385.956 502.339 386.849L510.293 400.513C510.597 401.036 511.016 401.48 511.46 401.736L551.721 424.981C552.456 425.406 552.824 424.605 552.304 423.712L544.351 410.048Z" fill="#060606"/>
</g>
<ellipse opacity="0.4" rx="34.8474" ry="21.1617" transform="matrix(0.866025 0.5 -0.866025 0.5 210.554 155.36)" fill="#060606"/>
<path fill-rule="evenodd" clip-rule="evenodd" d="M225.46 159.651C231.184 155.081 234.632 146.916 234.632 135.831C234.632 110.805 217.062 80.3735 195.389 67.8606C183.98 61.2737 173.709 60.9651 166.538 65.8005L166.536 65.7976L166.415 65.8842C166.217 66.0205 166.02 66.1607 165.827 66.3049L158.931 71.2336L160.049 73.047C157.548 77.566 156.146 83.4479 156.146 90.5173C156.146 115.543 173.716 145.974 195.389 158.487C202.914 162.832 209.944 164.445 215.916 163.653L217.134 165.627L225.482 159.685L225.46 159.651Z" fill="#B0F127"/>
<path d="M225.46 159.651L224.992 159.065L224.469 159.482L224.825 160.05L225.46 159.651ZM195.389 67.8606L195.014 68.5101L195.014 68.5101L195.389 67.8606ZM166.538 65.8005L165.903 66.1993L166.315 66.8556L166.958 66.4223L166.538 65.8005ZM166.536 65.7976L167.172 65.3988L166.748 64.7244L166.1 65.1874L166.536 65.7976ZM166.415 65.8842L166.84 66.5026L166.845 66.4986L166.851 66.4943L166.415 65.8842ZM165.827 66.3049L166.263 66.9151L166.269 66.9109L166.274 66.9066L165.827 66.3049ZM158.931 71.2336L158.495 70.6234L157.925 71.0309L158.292 71.6273L158.931 71.2336ZM160.049 73.047L160.705 73.4101L160.917 73.0265L160.687 72.6533L160.049 73.047ZM195.389 158.487L195.764 157.838L195.764 157.838L195.389 158.487ZM215.916 163.653L216.555 163.259L216.3 162.845L215.818 162.909L215.916 163.653ZM217.134 165.627L216.496 166.021L216.916 166.703L217.569 166.238L217.134 165.627ZM225.482 159.685L225.917 160.296L226.493 159.886L226.117 159.286L225.482 159.685ZM233.882 135.831C233.882 146.775 230.48 154.684 224.992 159.065L225.928 160.237C231.889 155.478 235.382 147.057 235.382 135.831H233.882ZM195.014 68.5101C205.71 74.6853 215.435 85.3119 222.488 97.5283C229.541 109.745 233.882 123.48 233.882 135.831H235.382C235.382 123.155 230.937 109.162 223.787 96.7783C216.637 84.3943 206.741 73.5489 195.764 67.2111L195.014 68.5101ZM166.958 66.4223C173.804 61.8052 183.749 62.0062 195.014 68.5101L195.764 67.2111C184.212 60.5413 173.613 60.125 166.119 65.1787L166.958 66.4223ZM167.173 65.4017L167.172 65.3988L165.901 66.1964L165.903 66.1993L167.173 65.4017ZM166.1 65.1874L165.979 65.274L166.851 66.4943L166.973 66.4078L166.1 65.1874ZM166.274 66.9066C166.46 66.7681 166.649 66.6335 166.84 66.5026L165.991 65.2657C165.784 65.4075 165.58 65.5533 165.379 65.7033L166.274 66.9066ZM165.39 65.6948L158.495 70.6234L159.367 71.8438L166.263 66.9151L165.39 65.6948ZM158.292 71.6273L159.411 73.4406L160.687 72.6533L159.569 70.84L158.292 71.6273ZM156.896 90.5173C156.896 83.5429 158.28 77.793 160.705 73.4101L159.393 72.6839C156.817 77.3391 155.396 83.3529 155.396 90.5173H156.896ZM195.764 157.838C185.068 151.663 175.343 141.036 168.29 128.82C161.237 116.603 156.896 102.868 156.896 90.5173H155.396C155.396 103.193 159.841 117.186 166.991 129.57C174.141 141.954 184.037 152.799 195.014 159.137L195.764 157.838ZM215.818 162.909C210.054 163.674 203.19 162.125 195.764 157.838L195.014 159.137C202.638 163.539 209.835 165.216 216.015 164.396L215.818 162.909ZM215.278 164.046L216.496 166.021L217.772 165.234L216.555 163.259L215.278 164.046ZM217.569 166.238L225.917 160.296L225.047 159.074L216.699 165.016L217.569 166.238ZM226.117 159.286L226.095 159.252L224.825 160.05L224.847 160.084L226.117 159.286Z" fill="#060606"/>
<mask id="mask6_3780_38832" style="mask-type:alpha" maskUnits="userSpaceOnUse" x="155" y="61" width="81" height="106">
<path fill-rule="evenodd" clip-rule="evenodd" d="M225.462 159.648C231.186 155.078 234.634 146.913 234.634 135.828C234.634 110.802 217.064 80.3706 195.391 67.8577C183.982 61.2708 173.71 60.9621 166.54 65.7976L166.538 65.7949L166.428 65.8738C166.222 66.0149 166.019 66.1603 165.818 66.3099L158.933 71.2309L160.051 73.0441C157.55 77.5631 156.148 83.445 156.148 90.5144C156.148 115.54 173.718 145.971 195.391 158.484C202.916 162.829 209.946 164.442 215.918 163.65L217.136 165.625L225.484 159.683L225.462 159.648Z" fill="#B0F127"/>
<path d="M225.462 159.648L224.994 159.062L224.471 159.48L224.827 160.047L225.462 159.648ZM195.391 67.8577L195.016 68.5072L195.016 68.5072L195.391 67.8577ZM166.54 65.7976L165.905 66.1964L166.317 66.8527L166.959 66.4194L166.54 65.7976ZM166.538 65.7949L167.174 65.3962L166.75 64.7217L166.102 65.1847L166.538 65.7949ZM166.428 65.8738L166.852 66.4926L166.858 66.4884L166.864 66.484L166.428 65.8738ZM165.818 66.3099L166.254 66.92L166.26 66.9157L166.266 66.9112L165.818 66.3099ZM158.933 71.2309L158.497 70.6208L157.927 71.0282L158.294 71.6246L158.933 71.2309ZM160.051 73.0441L160.707 73.4072L160.919 73.0236L160.689 72.6505L160.051 73.0441ZM156.148 90.5144L156.898 90.5144L156.148 90.5144ZM195.391 158.484L195.016 159.134L195.016 159.134L195.391 158.484ZM215.918 163.65L216.557 163.256L216.302 162.842L215.82 162.906L215.918 163.65ZM217.136 165.625L216.498 166.018L216.918 166.7L217.571 166.236L217.136 165.625ZM225.484 159.683L225.919 160.294L226.495 159.883L226.119 159.284L225.484 159.683ZM233.884 135.828C233.884 146.772 230.482 154.681 224.994 159.062L225.93 160.234C231.891 155.476 235.384 147.054 235.384 135.828H233.884ZM195.016 68.5072C205.712 74.6823 215.437 85.309 222.49 97.5253C229.543 109.742 233.884 123.477 233.884 135.828H235.384C235.384 123.152 230.939 109.159 223.789 96.7753C216.639 84.3914 206.743 73.5459 195.766 67.2081L195.016 68.5072ZM166.959 66.4194C173.806 61.8022 183.751 62.0033 195.016 68.5072L195.766 67.2081C184.213 60.5383 173.615 60.122 166.121 65.1758L166.959 66.4194ZM167.175 65.3989L167.174 65.3962L165.903 66.1937L165.905 66.1964L167.175 65.3989ZM166.102 65.1847L165.992 65.2637L166.864 66.484L166.975 66.4051L166.102 65.1847ZM166.266 66.9112C166.459 66.7676 166.654 66.628 166.852 66.4926L166.004 65.2551C165.79 65.4018 165.578 65.553 165.37 65.7085L166.266 66.9112ZM165.382 65.6997L158.497 70.6208L159.369 71.8411L166.254 66.92L165.382 65.6997ZM158.294 71.6246L159.412 73.4377L160.689 72.6505L159.571 70.8373L158.294 71.6246ZM156.898 90.5144C156.898 83.54 158.282 77.7901 160.707 73.4072L159.395 72.681C156.819 77.3362 155.398 83.35 155.398 90.5144L156.898 90.5144ZM195.766 157.835C185.07 151.66 175.345 141.033 168.292 128.817C161.239 116.6 156.898 102.865 156.898 90.5144L155.398 90.5144C155.398 103.19 159.843 117.183 166.993 129.567C174.143 141.951 184.039 152.796 195.016 159.134L195.766 157.835ZM215.82 162.906C210.056 163.671 203.192 162.122 195.766 157.835L195.016 159.134C202.64 163.536 209.837 165.213 216.017 164.393L215.82 162.906ZM215.28 164.043L216.498 166.018L217.775 165.231L216.557 163.256L215.28 164.043ZM217.571 166.236L225.919 160.294L225.049 159.072L216.701 165.014L217.571 166.236ZM226.119 159.284L226.097 159.249L224.827 160.047L224.849 160.081L226.119 159.284Z" fill="#060606"/>
</mask>
<g mask="url(#mask6_3780_38832)">
<rect width="95.8563" height="41.2165" transform="matrix(0.866025 -0.5 2.20305e-08 1 198.491 158.749)" fill="#B0F127"/>
</g>
<path d="M225.46 159.651L224.992 159.065L224.469 159.482L224.825 160.05L225.46 159.651ZM195.389 67.8606L195.014 68.5101L195.014 68.5101L195.389 67.8606ZM166.538 65.8005L165.903 66.1993L166.315 66.8556L166.958 66.4223L166.538 65.8005ZM166.536 65.7976L167.172 65.3988L166.748 64.7244L166.1 65.1874L166.536 65.7976ZM166.415 65.8842L166.84 66.5026L166.845 66.4986L166.851 66.4943L166.415 65.8842ZM165.827 66.3049L166.263 66.9151L166.269 66.9109L166.274 66.9066L165.827 66.3049ZM158.931 71.2336L158.495 70.6234L157.925 71.0309L158.292 71.6273L158.931 71.2336ZM160.049 73.047L160.705 73.4101L160.917 73.0265L160.687 72.6533L160.049 73.047ZM195.389 158.487L195.764 157.838L195.764 157.838L195.389 158.487ZM215.916 163.653L216.555 163.259L216.3 162.845L215.818 162.909L215.916 163.653ZM217.134 165.627L216.496 166.021L216.916 166.703L217.569 166.238L217.134 165.627ZM225.482 159.685L225.917 160.296L226.493 159.886L226.117 159.286L225.482 159.685ZM233.882 135.831C233.882 146.775 230.48 154.684 224.992 159.065L225.928 160.237C231.889 155.478 235.382 147.057 235.382 135.831H233.882ZM195.014 68.5101C205.71 74.6853 215.435 85.3119 222.488 97.5283C229.541 109.745 233.882 123.48 233.882 135.831H235.382C235.382 123.155 230.937 109.162 223.787 96.7783C216.637 84.3943 206.741 73.5489 195.764 67.2111L195.014 68.5101ZM166.958 66.4223C173.804 61.8052 183.749 62.0062 195.014 68.5101L195.764 67.2111C184.212 60.5413 173.613 60.125 166.119 65.1787L166.958 66.4223ZM167.173 65.4017L167.172 65.3988L165.901 66.1964L165.903 66.1993L167.173 65.4017ZM166.1 65.1874L165.979 65.274L166.851 66.4943L166.973 66.4078L166.1 65.1874ZM166.274 66.9066C166.46 66.7681 166.649 66.6335 166.84 66.5026L165.991 65.2657C165.784 65.4075 165.58 65.5533 165.379 65.7033L166.274 66.9066ZM165.39 65.6948L158.495 70.6234L159.367 71.8438L166.263 66.9151L165.39 65.6948ZM158.292 71.6273L159.411 73.4406L160.687 72.6533L159.569 70.84L158.292 71.6273ZM156.896 90.5173C156.896 83.5429 158.28 77.793 160.705 73.4101L159.393 72.6839C156.817 77.3391 155.396 83.3529 155.396 90.5173H156.896ZM195.764 157.838C185.068 151.663 175.343 141.036 168.29 128.82C161.237 116.603 156.896 102.868 156.896 90.5173H155.396C155.396 103.193 159.841 117.186 166.991 129.57C174.141 141.954 184.037 152.799 195.014 159.137L195.764 157.838ZM215.818 162.909C210.054 163.674 203.19 162.125 195.764 157.838L195.014 159.137C202.638 163.539 209.835 165.216 216.015 164.396L215.818 162.909ZM215.278 164.046L216.496 166.021L217.772 165.234L216.555 163.259L215.278 164.046ZM217.569 166.238L225.917 160.296L225.047 159.074L216.699 165.016L217.569 166.238ZM226.117 159.286L226.095 159.252L224.825 160.05L224.847 160.084L226.117 159.286Z" fill="#060606"/>
<circle r="45.3134" transform="matrix(0.866025 0.5 -2.20305e-08 1 188.167 118.321)" fill="white" stroke="#060606" stroke-width="1.5"/>
<mask id="mask7_3780_38832" style="mask-type:alpha" maskUnits="userSpaceOnUse" x="148" y="66" width="81" height="104">
<circle r="45.3134" transform="matrix(0.866025 0.5 -2.20305e-08 1 188.167 118.32)" fill="#B0F127" stroke="#060606" stroke-width="1.5"/>
</mask>
<g mask="url(#mask7_3780_38832)">
<rect width="95.8563" height="51.4035" transform="matrix(0.866025 0.5 2.20305e-08 -1 146.51 95.8027)" fill="white"/>
<circle r="45.3134" transform="matrix(0.866025 0.5 -2.20305e-08 1 188.167 118.32)" stroke="#060606" stroke-width="1.5"/>
<path fill-rule="evenodd" clip-rule="evenodd" d="M203.218 127.009C203.218 136.608 196.48 140.499 188.167 135.699C179.854 130.9 173.115 119.228 173.115 109.629C173.115 100.03 179.854 96.1397 188.167 100.939C196.48 105.738 203.218 117.41 203.218 127.009ZM183.902 122.773L180.981 121.086C180.367 120.732 180.064 120.557 179.879 120.314C179.679 120.049 179.557 119.731 179.542 119.449C179.531 119.191 179.683 118.971 179.986 118.531L187.198 108.015C187.505 107.569 187.661 107.347 187.857 107.345C188.067 107.343 188.319 107.488 188.53 107.734C188.726 107.962 188.881 108.363 189.188 109.164L190.67 113.009L190.678 113.028C191.009 113.889 191.178 114.325 191.251 114.723C191.332 115.159 191.332 115.568 191.251 115.91C191.177 116.226 191.011 116.471 190.674 116.956L186.886 122.502L186.876 122.516C186.542 122.998 186.373 123.242 186.139 123.364C185.884 123.499 185.577 123.526 185.24 123.448C184.933 123.369 184.589 123.17 183.902 122.773ZM191.278 127.032L195.464 129.448C196.081 129.805 196.392 129.984 196.577 129.95C196.777 129.916 196.902 129.737 196.914 129.47C196.924 129.233 196.776 128.851 196.485 128.105C196.475 128.079 196.465 128.053 196.455 128.027L194.358 122.675L194.335 122.614C194.04 121.869 193.891 121.493 193.7 121.27C193.49 121.025 193.242 120.882 193.031 120.884C192.839 120.888 192.683 121.102 192.377 121.535L190.287 124.47L190.28 124.48C189.974 124.913 189.822 125.13 189.833 125.386C189.847 125.668 189.969 125.99 190.169 126.255C190.35 126.496 190.661 126.675 191.278 127.032Z" fill="#060606"/>
</g>
<path fill-rule="evenodd" clip-rule="evenodd" d="M702.871 337.924C711.359 331.148 716.47 319.041 716.47 302.603C716.47 265.495 690.419 220.372 658.282 201.818C641.365 192.051 626.134 191.594 615.502 198.764L615.499 198.759L615.3 198.901C615.019 199.095 614.741 199.293 614.467 199.497L604.221 206.82L605.88 209.509C602.172 216.21 600.094 224.931 600.094 235.413C600.094 272.521 626.146 317.644 658.282 336.198C669.44 342.64 679.864 345.032 688.719 343.857L690.524 346.785L702.902 337.975L702.871 337.924Z" fill="#B0F127"/>
<path d="M702.871 337.924L702.177 337.055L701.401 337.674L701.929 338.515L702.871 337.924ZM658.282 201.818L657.726 202.781L657.726 202.781L658.282 201.818ZM615.502 198.764L614.56 199.355L615.171 200.329L616.124 199.686L615.502 198.764ZM615.499 198.759L616.441 198.168L615.813 197.168L614.852 197.855L615.499 198.759ZM615.3 198.901L615.93 199.818L615.939 199.812L615.947 199.806L615.3 198.901ZM614.467 199.497L615.113 200.402L615.122 200.396L615.13 200.39L614.467 199.497ZM604.221 206.82L603.575 205.915L602.729 206.519L603.275 207.403L604.221 206.82ZM605.88 209.509L606.853 210.048L607.168 209.479L606.826 208.926L605.88 209.509ZM658.282 336.198L657.726 337.161L657.726 337.161L658.282 336.198ZM688.719 343.857L689.666 343.274L689.287 342.66L688.573 342.755L688.719 343.857ZM690.524 346.785L689.578 347.369L690.201 348.38L691.169 347.691L690.524 346.785ZM702.902 337.975L703.547 338.881L704.402 338.272L703.844 337.383L702.902 337.975ZM715.358 302.603C715.358 318.831 710.314 330.559 702.177 337.055L703.564 338.793C712.403 331.737 717.582 319.25 717.582 302.603H715.358ZM657.726 202.781C673.585 211.938 688.006 227.695 698.464 245.809C708.923 263.923 715.358 284.29 715.358 302.603H717.582C717.582 283.808 710.992 263.06 700.39 244.697C689.789 226.334 675.115 210.253 658.838 200.855L657.726 202.781ZM616.124 199.686C626.276 192.839 641.022 193.137 657.726 202.781L658.838 200.855C641.708 190.965 625.992 190.348 614.88 197.842L616.124 199.686ZM616.444 198.173L616.441 198.168L614.557 199.351L614.56 199.355L616.444 198.173ZM614.852 197.855L614.654 197.997L615.947 199.806L616.146 199.664L614.852 197.855ZM615.13 200.39C615.393 200.194 615.66 200.003 615.93 199.818L614.67 197.985C614.378 198.186 614.089 198.392 613.803 198.604L615.13 200.39ZM613.82 198.592L603.575 205.915L604.868 207.725L615.113 200.402L613.82 198.592ZM603.275 207.403L604.933 210.093L606.826 208.926L605.168 206.236L603.275 207.403ZM601.206 235.413C601.206 225.072 603.257 216.547 606.853 210.048L604.907 208.971C601.088 215.874 598.982 224.79 598.982 235.413H601.206ZM658.838 335.235C642.979 326.079 628.558 310.322 618.1 292.208C607.642 274.093 601.206 253.726 601.206 235.413H598.982C598.982 254.208 605.572 274.957 616.174 293.32C626.775 311.682 641.449 327.764 657.726 337.161L658.838 335.235ZM688.573 342.755C680.026 343.889 669.849 341.592 658.838 335.235L657.726 337.161C669.03 343.688 679.701 346.176 688.865 344.96L688.573 342.755ZM687.772 344.441L689.578 347.369L691.471 346.202L689.666 343.274L687.772 344.441ZM691.169 347.691L703.547 338.881L702.258 337.069L689.879 345.879L691.169 347.691ZM703.844 337.383L703.813 337.333L701.929 338.515L701.961 338.566L703.844 337.383Z" fill="#060606"/>
<mask id="mask8_3780_38832" style="mask-type:alpha" maskUnits="userSpaceOnUse" x="598" y="192" width="120" height="157">
<path fill-rule="evenodd" clip-rule="evenodd" d="M702.874 337.924C711.362 331.148 716.473 319.04 716.473 302.603C716.473 265.495 690.421 220.372 658.285 201.818C641.368 192.051 626.137 191.594 615.505 198.764L615.503 198.759L615.322 198.889C615.028 199.09 614.738 199.297 614.452 199.51L604.225 206.82L605.883 209.509C602.175 216.21 600.097 224.931 600.097 235.413C600.097 272.521 626.148 317.644 658.285 336.198C669.443 342.64 679.867 345.033 688.723 343.857L690.528 346.785L702.906 337.975L702.874 337.924Z" fill="#B0F127"/>
<path d="M702.874 337.924L702.18 337.055L701.404 337.674L701.932 338.515L702.874 337.924ZM658.285 201.818L658.841 200.855L658.841 200.855L658.285 201.818ZM615.505 198.764L614.563 199.355L615.174 200.328L616.127 199.686L615.505 198.764ZM615.503 198.759L616.444 198.168L615.816 197.168L614.856 197.855L615.503 198.759ZM615.322 198.889L615.951 199.806L615.96 199.8L615.968 199.793L615.322 198.889ZM614.452 199.51L615.098 200.415L615.107 200.409L615.115 200.403L614.452 199.51ZM604.225 206.82L603.578 205.915L602.733 206.519L603.278 207.403L604.225 206.82ZM605.883 209.509L606.856 210.047L607.171 209.478L606.83 208.925L605.883 209.509ZM658.285 336.198L657.729 337.161L657.729 337.161L658.285 336.198ZM688.723 343.857L689.669 343.274L689.291 342.66L688.576 342.755L688.723 343.857ZM690.528 346.785L689.581 347.369L690.205 348.38L691.173 347.691L690.528 346.785ZM702.906 337.975L703.551 338.881L704.406 338.272L703.848 337.383L702.906 337.975ZM715.361 302.603C715.361 318.831 710.317 330.559 702.18 337.055L703.568 338.793C712.406 331.737 717.585 319.25 717.585 302.603H715.361ZM657.729 202.781C673.588 211.938 688.009 227.695 698.467 245.809C708.925 263.923 715.361 284.29 715.361 302.603H717.585C717.585 283.808 710.995 263.06 700.393 244.697C689.792 226.334 675.118 210.253 658.841 200.855L657.729 202.781ZM616.127 199.686C626.279 192.839 641.025 193.137 657.729 202.781L658.841 200.855C641.711 190.965 625.995 190.348 614.883 197.842L616.127 199.686ZM616.447 198.172L616.444 198.168L614.561 199.351L614.563 199.355L616.447 198.172ZM614.856 197.855L614.675 197.984L615.968 199.793L616.149 199.664L614.856 197.855ZM615.115 200.403C615.39 200.198 615.669 199.999 615.951 199.806L614.692 197.972C614.387 198.181 614.086 198.397 613.788 198.618L615.115 200.403ZM613.805 198.606L603.578 205.915L604.872 207.725L615.098 200.415L613.805 198.606ZM603.278 207.403L604.936 210.092L606.83 208.925L605.172 206.236L603.278 207.403ZM601.209 235.413C601.209 225.072 603.26 216.546 606.856 210.047L604.91 208.97C601.091 215.873 598.985 224.79 598.985 235.413H601.209ZM658.841 335.235C642.982 326.079 628.561 310.322 618.103 292.208C607.644 274.093 601.209 253.726 601.209 235.413H598.985C598.985 254.208 605.575 274.957 616.177 293.32C626.778 311.682 641.452 327.764 657.729 337.161L658.841 335.235ZM688.576 342.755C680.03 343.889 669.852 341.593 658.841 335.235L657.729 337.161C669.034 343.688 679.705 346.176 688.869 344.96L688.576 342.755ZM687.776 344.441L689.581 347.369L691.475 346.202L689.669 343.274L687.776 344.441ZM691.173 347.691L703.551 338.881L702.261 337.069L689.883 345.879L691.173 347.691ZM703.848 337.383L703.816 337.332L701.932 338.515L701.964 338.566L703.848 337.383Z" fill="#060606"/>
</mask>
<g mask="url(#mask8_3780_38832)">
<rect width="142.134" height="61.1152" transform="matrix(0.866025 -0.5 2.20305e-08 1 662.882 336.592)" fill="#B0F127"/>
</g>
<path d="M702.871 337.924L702.177 337.055L701.401 337.674L701.929 338.515L702.871 337.924ZM658.282 201.818L657.726 202.781L657.726 202.781L658.282 201.818ZM615.502 198.764L614.56 199.355L615.171 200.329L616.124 199.686L615.502 198.764ZM615.499 198.759L616.441 198.168L615.813 197.168L614.852 197.855L615.499 198.759ZM615.3 198.901L615.93 199.818L615.939 199.812L615.947 199.806L615.3 198.901ZM614.467 199.497L615.113 200.402L615.122 200.396L615.13 200.39L614.467 199.497ZM604.221 206.82L603.575 205.915L602.729 206.519L603.275 207.403L604.221 206.82ZM605.88 209.509L606.853 210.048L607.168 209.479L606.826 208.926L605.88 209.509ZM658.282 336.198L657.726 337.161L657.726 337.161L658.282 336.198ZM688.719 343.857L689.666 343.274L689.287 342.66L688.573 342.755L688.719 343.857ZM690.524 346.785L689.578 347.369L690.201 348.38L691.169 347.691L690.524 346.785ZM702.902 337.975L703.547 338.881L704.402 338.272L703.844 337.383L702.902 337.975ZM715.358 302.603C715.358 318.831 710.314 330.559 702.177 337.055L703.564 338.793C712.403 331.737 717.582 319.25 717.582 302.603H715.358ZM657.726 202.781C673.585 211.938 688.006 227.695 698.464 245.809C708.923 263.923 715.358 284.29 715.358 302.603H717.582C717.582 283.808 710.992 263.06 700.39 244.697C689.789 226.334 675.115 210.253 658.838 200.855L657.726 202.781ZM616.124 199.686C626.276 192.839 641.022 193.137 657.726 202.781L658.838 200.855C641.708 190.965 625.992 190.348 614.88 197.842L616.124 199.686ZM616.444 198.173L616.441 198.168L614.557 199.351L614.56 199.355L616.444 198.173ZM614.852 197.855L614.654 197.997L615.947 199.806L616.146 199.664L614.852 197.855ZM615.13 200.39C615.393 200.194 615.66 200.003 615.93 199.818L614.67 197.985C614.378 198.186 614.089 198.392 613.803 198.604L615.13 200.39ZM613.82 198.592L603.575 205.915L604.868 207.725L615.113 200.402L613.82 198.592ZM603.275 207.403L604.933 210.093L606.826 208.926L605.168 206.236L603.275 207.403ZM601.206 235.413C601.206 225.072 603.257 216.547 606.853 210.048L604.907 208.971C601.088 215.874 598.982 224.79 598.982 235.413H601.206ZM658.838 335.235C642.979 326.079 628.558 310.322 618.1 292.208C607.642 274.093 601.206 253.726 601.206 235.413H598.982C598.982 254.208 605.572 274.957 616.174 293.32C626.775 311.682 641.449 327.764 657.726 337.161L658.838 335.235ZM688.573 342.755C680.026 343.889 669.849 341.592 658.838 335.235L657.726 337.161C669.03 343.688 679.701 346.176 688.865 344.96L688.573 342.755ZM687.772 344.441L689.578 347.369L691.471 346.202L689.666 343.274L687.772 344.441ZM691.169 347.691L703.547 338.881L702.258 337.069L689.879 345.879L691.169 347.691ZM703.844 337.383L703.813 337.333L701.929 338.515L701.961 338.566L703.844 337.383Z" fill="#060606"/>
<circle r="67.1901" transform="matrix(0.866025 0.5 -2.20305e-08 1 647.573 276.64)" fill="white" stroke="#060606" stroke-width="2.22418"/>
<mask id="mask9_3780_38832" style="mask-type:alpha" maskUnits="userSpaceOnUse" x="588" y="200" width="119" height="154">
<circle r="67.1901" transform="matrix(0.866025 0.5 -2.20305e-08 1 647.573 276.639)" fill="#B0F127" stroke="#060606" stroke-width="2.22418"/>
</mask>
<g mask="url(#mask9_3780_38832)">
<rect width="142.134" height="76.2204" transform="matrix(0.866025 0.5 2.20305e-08 -1 585.805 243.251)" fill="white"/>
<circle r="67.1901" transform="matrix(0.866025 0.5 -2.20305e-08 1 647.573 276.639)" stroke="#060606" stroke-width="2.22418"/>
<path d="M647.564 242.544L647.168 243.869L647.168 288.953L647.564 289.637L665.688 287.731L647.564 242.544Z" fill="#060606"/>
<path d="M647.567 242.545L629.443 266.804L647.567 289.638L647.567 267.756L647.567 242.545Z" fill="#060606"/>
<path d="M647.566 293.604L647.343 293.789L647.343 309.849L647.566 310.73L665.701 291.71L647.566 293.604Z" fill="#060606"/>
<path d="M647.567 310.723L647.567 293.597L629.443 270.77L647.567 310.723Z" fill="#060606"/>
<path d="M647.566 289.64L665.689 287.733L647.566 267.758L647.566 289.64Z" fill="#060606"/>
<path d="M629.443 266.803L647.567 289.636L647.567 267.754L629.443 266.803Z" fill="#060606"/>
</g>
</svg>
