<svg width="62" height="62" viewBox="0 0 62 62" fill="none" xmlns="http://www.w3.org/2000/svg">
<rect opacity="0.1" x="0.178711" y="0.529297" width="61.2848" height="61.2848" rx="30.6424" fill="white"/>
<path d="M19.6254 37.2344C19.8164 37.0457 20.0792 36.9355 20.3578 36.9355H45.6284C46.0901 36.9355 46.321 37.4861 45.9946 37.8085L41.0026 42.7396C40.8115 42.9284 40.5488 43.0385 40.2701 43.0385H14.9996C14.5378 43.0385 14.3069 42.4879 14.6333 42.1655L19.6254 37.2344Z" fill="white"/>
<path d="M19.6254 18.8496C19.8244 18.6609 20.0871 18.5508 20.3578 18.5508H45.6284C46.0901 18.5508 46.321 19.1013 45.9946 19.4238L41.0026 24.3548C40.8115 24.5436 40.5488 24.6537 40.2701 24.6537H14.9996C14.5378 24.6537 14.3069 24.1032 14.6333 23.7807L19.6254 18.8496Z" fill="white"/>
<path d="M41.0026 27.9961C40.8115 27.8074 40.5488 27.6973 40.2701 27.6973H14.9996C14.5378 27.6973 14.3069 28.2478 14.6333 28.5702L19.6254 33.5013C19.8164 33.6901 20.0792 33.8002 20.3578 33.8002H45.6284C46.0901 33.8002 46.321 33.2497 45.9946 32.9272L41.0026 27.9961Z" fill="white"/>
</svg>
