<svg width="62" height="62" viewBox="0 0 62 62" fill="none" xmlns="http://www.w3.org/2000/svg">
<rect opacity="0.1" x="0.355957" y="0.529297" width="61.2848" height="61.2848" rx="30.6424" fill="white"/>
<path fill-rule="evenodd" clip-rule="evenodd" d="M32.9177 31.2952C32.7473 31.3076 31.8665 31.359 29.9019 31.359C28.3394 31.359 27.2299 31.3132 26.8407 31.2952C20.8021 31.0356 16.2948 30.0085 16.2948 28.7788C16.2948 27.549 20.8021 26.5233 26.8407 26.2596V30.2722C27.2356 30.3 28.3664 30.3652 29.9289 30.3652C31.804 30.3652 32.743 30.2889 32.912 30.2736V26.2624C38.9379 26.5247 43.4353 27.5518 43.4353 28.7788C43.4353 30.0057 38.9393 31.0328 32.912 31.2938L32.9177 31.2952ZM32.9177 25.8474V22.2568H41.3272V16.7812H18.4312V22.2568H26.8393V25.846C20.0052 26.1528 14.8657 27.4755 14.8657 29.0605C14.8657 30.6456 20.0052 31.9669 26.8393 32.2751V43.7812H32.9163V32.2709C39.7348 31.9642 44.8657 30.6428 44.8657 29.0592C44.8657 27.4755 39.7391 26.1541 32.9163 25.846L32.9177 25.8474Z" fill="white"/>
</svg>
